<svg height="357" viewBox="0 0 1440 357" width="1440" xmlns="http://www.w3.org/2000/svg"><path d="m415.528017 41.5310714-24.684833-41.5310714h-2.262776l-1.851363.72578571 24.273419 40.80528569h-301.669226l-49.3696653-41.5310714h-2.8284704l-1.4913753 1.129 48.083997 40.4020714h-103.727724v3.2257143h107.584729l40.112853 33.4667857h-147.697582v3.2257143h151.503161l34.198778 28.6282143h-185.701939v3.225714h189.558944l29.416093 24.999286h-218.975037v3.225714h222.780615l25.50766 21.370357h-228.0775682l-20.2107068-11.410964v3.9515l13.1138174 7.459464h-13.1138174v3.225715h18.9250384l33.3245241 18.547857h-52.2495625v3.225714h58.0093568l29.2103854 16.128572h-87.2197422v3.225714h92.9281097l25.6619403 14.515714h-118.59005v3.225714h124.401271l22.67919 12.902858h-147.080461v3.225714h152.840256l20.056426 10.886786h-172.896682v3.991821l22.3706296 9.31425h-22.3706296v3.225714h30.0332131l21.136388 8.870715h-51.1696011v3.225714h58.8836113l18.8221849 8.064286h-77.7057962v3.225714h85.3683797l16.7651153 6.854643h-102.133495v3.225714h109.847505l14.96518 6.451429h-124.812685v3.225714h132.475269l13.319524 5.645h-132.8352558l-12.9595372-4.475679v3.507965l2.51991.967714h-2.51991v3.225714h12.1367094l14.8623263 4.838572h-26.9990357v3.225714h36.5644084l13.2166708 4.435357h-49.7810792v3.225714h59.3978786l11.7252956 4.032143h-71.1231742v3.225714h80.7399736l10.3882004 3.225715h-91.128174v3.225714h100.7964l9.205386 3.225714h-109.64179886l-.35998714-.040321v1.6935 1.572536h1439.94857v-1.572536-1.6935l-.35998.040321h-109.59038l9.20539-3.225714h100.7964v-3.225714h-91.1796l10.3882-3.225715h80.73997v-3.225714h-71.1746l11.7253-4.032143h59.4493v-3.225714h-49.78108l13.21667-4.435357h36.56441v-3.225714h-26.99903l14.86232-4.838572h12.13671v-3.225714h-2.51991l2.51991-.967714v-3.507965l-12.95953 4.475679h-132.88669l13.31953-5.645h132.52669v-3.225714h-124.81268l14.96518-6.451429h109.8475v-3.225714h-102.18492l16.76512-6.854643h85.36838v-3.225714h-77.7058l18.82219-8.064286h58.93503v-3.225714h-51.1696l21.13639-8.870715h30.03321v-3.225714h-22.37063l22.37063-9.31425v-3.991821h-172.89668l20.05643-10.886786h152.84025v-3.225714h-147.08046l22.67919-12.902858h124.40127v-3.225714h-118.64147l25.66194-14.515714h92.97953v-3.225714h-87.16831l29.21038-16.128572h57.95793v-3.225714h-52.19813l33.32452-18.547857h18.92504v-3.225715h-13.11382l13.11382-7.459464v-3.9515l-20.21071 11.410964h-228.07757l25.50767-21.370357h222.72918v-3.225714h-218.97503l29.41609-24.999286h189.55894v-3.225714h-185.70194l34.19878-28.6282143h151.50316v-3.2257143h-147.64615l40.11285-33.4667857h107.5333v-3.2257143h-103.72772l48.084-40.4020714-1.49138-1.129h-2.82847l-49.36966 41.5310714h-301.6178l24.27341-40.80528569-1.85136-.72578571h-2.26277l-24.68484 41.5310714h-302.389197v-41.5310714h-4.114139v41.5310714zm302.3892 3.2257143v33.4667857h-280.429984l-20.056427-33.4667857zm0 96.7714283v21.370357h-230.083211l-12.75383-21.370357zm-244.791257-3.225714-14.708046-24.999286h259.499303v24.999286zm244.791257 27.821786v18.547857h-217.072247l-11.108175-18.547857zm0 58.869285v12.902858h-185.444805l-7.55973-12.902858zm-194.958751-3.225714-8.536838-14.515714h203.495589v14.515714zm194.958751 19.354286v10.886786h-176.856541l-6.685475-10.886786zm0 14.1125v10.080357h-168.98825l-5.965501-10.080357zm0 13.306071v8.870715h-161.788507l-5.296954-8.870715zm128.51541 71.772143h-124.401271v-4.032143h126.715474zm6.891183-4.032143h125.9955l-4.679833 4.032143h-123.62987zm-262.122067 0h126.715474v4.032143h-124.401271zm-2.21135 4.032143h-123.62987l-4.679833-4.032143h125.9955zm128.926824-38.305357v6.451429h-143.377736l-3.754152-6.451429zm-149.034677-3.225714-4.216992-6.854643h153.251669v6.854643zm149.034677 12.902857v5.645h-138.132209l-3.342738-5.645zm0 8.870714v4.838572h-133.24667l-2.98275-4.838572zm0 8.064286v4.435357h-128.66969l-2.622764-4.435357zm4.114139 4.435357v-4.435357h131.292454l-2.622764 4.435357zm0-7.661071v-4.838572h136.177994l-2.982751 4.838572zm0-8.064286v-5.645h141.474947l-3.342737 5.645zm0-8.870714v-6.451429h147.131888l-3.754151 6.451429zm0-9.677143v-6.854643h153.25167l-4.216993 6.854643zm0-10.080357v-8.064286h159.834292l-4.679833 8.064286zm-4.114139 0h-155.154459l-4.731259-8.064286h159.885718zm-166.31406-11.29h-161.017107l-10.54248-8.870715h166.31406zm1.902789 3.225714 4.73126 8.064286h-154.383058l-9.411092-8.064286zm6.634049 11.29 4.216992 6.854643h-148.314703l-8.382558-6.854643zm6.119781 10.080357 3.754152 6.451429h-142.606335l-7.456877-6.451429zm5.656941 9.677143 3.342738 5.645h-137.360809l-6.685475-5.645zm5.245527 8.870714 2.982751 4.838572h-132.475269l-5.914074-4.838572zm4.88554 8.064286 2.622763 4.435357h-127.846862l-5.296954-4.435357zm-130.88104 4.435357h-126.612621l-7.919717-4.435357h129.235384zm3.857005 3.225714 4.679833 4.032143h-122.344202l-7.045463-4.032143zm8.536838 7.257857 4.165566 3.225715h-118.332917l-6.222635-3.225715zm5.656941 0h121.675654l2.05707 3.225715h-119.567159zm126.252634 0h122.447055v3.225715h-120.389986zm126.561194 0h122.447055l-2.057069 3.225715h-120.389986zm127.024035 0h121.727081l-4.165565 3.225715h-119.618586zm127.332595 0h120.441414l-6.22264 3.225715h-118.384339zm3.857005-3.225714 4.679833-4.032143h124.709836l-7.04547 4.032143zm8.536838-7.257857 5.296954-4.435357h129.286807l-7.91971 4.435357zm-5.656941 0h-127.898289l2.622764-4.435357h130.572479zm-123.32131-7.661071 2.982751-4.838572h135.406593l-5.965502 4.838572zm4.88554-8.064286 3.342738-5.645h140.703544l-6.68547 5.645zm5.245527-8.870714 3.754152-6.451429h146.360483l-7.45687 6.451429zm5.656941-9.677143 4.216992-6.854643h152.480272l-8.38256 6.854643zm6.119781-10.080357 4.73126-8.064286h159.062893l-9.41109 8.064286zm6.634049-11.29 5.296954-8.870715h166.31406l-10.54248 8.870715zm-4.525552 0h-161.788508v-8.870715h167.085461zm-161.788508-12.096429v-10.080357h174.902325l-5.965501 10.080357zm0-13.306071v-10.886786h183.542016l-6.685475 10.886786zm0-14.1125v-12.902858h193.004536l-7.55973 12.902858zm0-16.128572v-14.515714h203.495589l-8.536838 14.515714zm0-17.741428v-16.128572h215.169458l-9.719653 16.128572zm-4.114139 0h-205.449805l-9.719653-16.128572h215.169458zm-221.5978-19.354286h-216.352273l-22.216349-18.547857h227.409021zm1.902789 3.225714 9.719653 16.128572h-204.678404l-19.439306-16.128572zm11.673869 19.354286 8.536838 14.515714h-194.18735l-17.125103-14.515714zm10.439627 17.741428 7.55973 12.902858h-184.673404l-15.11946-12.902858zm9.513946 16.128572 6.685476 10.886786h-176.08514l-13.370951-10.886786zm8.588265 14.1125 5.965501 10.080357h-168.216849l-11.879576-10.080357zm-167.908289 10.080357h-166.931181l-17.845077-10.080357h172.896682zm3.857005 3.225714 10.542481 8.870715h-159.731438l-15.839435-8.870715zm14.399486 12.096429 9.411092 8.064286h-153.097389l-14.142352-8.064286zm13.268097 11.29 8.382558 6.854643h-147.029035l-12.59955-6.854643zm12.239563 10.080357 7.456877 6.451429h-141.320667l-11.211029-6.451429zm11.313882 9.677143 6.685475 5.645h-136.126567l-10.028213-5.645zm10.491054 8.870714 5.965501 4.838572h-131.1896l-8.896825-4.838572zm-132.320989 4.838572h-129.646798l-11.879576-4.838572h132.629549zm5.759795 3.225714 7.919717 4.435357h-125.069819l-10.593908-4.435357zm13.679511 7.661071 7.045463 4.032143h-120.8014l-9.411093-4.032143zm12.805257 7.257857 6.222635 3.225715h-116.790115l-8.331131-3.225715zm12.033856 6.451429 5.50266 3.225714h-113.035963l-7.354023-3.225714zm7.096889 0h116.430128l3.651298 3.225714h-114.578765zm122.035642 0h117.715796l1.851362 3.225714h-115.864433zm122.241348 0h118.487197v3.225714h-116.635834zm122.601336 0h118.487197l-1.851363 3.225714h-116.635834zm123.01275 0h117.715795l-3.651298 3.225714h-115.864433zm123.32131 0h116.430124l-5.50266 3.225714h-114.578763zm123.527014 0h114.88733l-7.35403 3.225714h-113.03596zm5.7598-3.225714 6.22263-3.225715h118.89861l-8.33113 3.225715zm12.03385-6.451429 7.04547-4.032143h123.16703l-9.4111 4.032143zm12.80526-7.257857 7.91972-4.435357h127.74401l-10.59391 4.435357zm13.67951-7.661071 8.89683-4.838572h132.62955l-11.87958 4.838572zm-7.09689 0h-131.189599l5.965499-4.838572h134.17235zm-121.36709-8.064286 6.68547-5.645h139.41788l-10.02821 5.645zm10.49105-8.870714 7.45688-6.451429h145.07482l-11.21103 6.451429zm11.31388-9.677143 8.38256-6.854643h151.1946l-12.59955 6.854643zm12.23957-10.080357 9.41109-8.064286h157.82865l-14.14235 8.064286zm13.26809-11.29 10.54248-8.870715h165.0284l-15.83944 8.870715zm14.39949-12.096429 11.87958-10.080357h172.89668l-17.84508 10.080357zm-5.65694 0h-168.216851l5.965501-10.080357h174.18235zm-160.34856-13.306071 6.685475-10.886786h182.770615l-13.37095 10.886786zm8.639691-14.1125 7.55973-12.902858h192.233139l-15.11946 12.902858zm9.462519-16.128572 8.536838-14.515714h202.724192l-17.12511 14.515714zm10.491054-17.741428 9.719653-16.128572h214.398053l-19.4393 16.128572zm11.622442-19.354286 11.108175-18.547857h227.409019l-22.21635 18.547857zm-4.525553 0h-217.072247v-18.547857h228.180422zm-217.072247-21.773572v-21.370357h242.837042l-12.753831 21.370357zm0-24.596071v-24.999286h259.499304l-14.708047 24.999286zm0-28.225v-28.6282143h278.527194l-17.125101 28.6282143zm-4.114139 0h-261.402093l-17.125102-28.6282143h278.527195zm-604.726974-65.3207143h299.71501l20.056427 33.4667857h-279.658584zm43.918432 36.6925h277.755794l17.125103 28.6282143h-260.682119zm38.055783 31.8539283h258.727903l14.708046 24.999286h-244.019856zm33.273098 28.225h242.06564l12.753831 21.370357h-229.363237zm-202.4670549 24.596072h226.1747799l22.216349 18.547857h-215.0666048zm39.0843184 21.773571h213.1638155l19.439306 16.128572h-203.3927362zm34.9701795 19.354286h201.489947l17.125103 14.515714h-192.953109zm31.421735 17.741428h190.998893l15.11946 12.902858h-183.439163zm28.438984 16.128572h181.536374l13.370951 10.886786h-174.799471zm-152.58312166 14.1125h171.35388066l17.845077 10.080357h-165.4398062zm31.47316166 13.306071h163.48559l15.839434 8.870715h-158.188636zm28.7989715 12.096429h156.2858465l14.142352 8.064286h-151.6060136zm26.5361951 11.29h149.6517984l12.59955 6.854643h-145.486233zm24.4791254 10.080357h143.532017l11.211028 6.451429h-139.829292zm22.627764 9.677143h137.875076l10.028213 5.645h-134.583765zm-118.6414774 8.870714h130.9324664l11.879576 4.838572h-127.9497161zm24.4791257 8.064286h126.0469267l10.593908 4.435357h-123.4241639zm22.8334702 7.661071h121.4699475l9.411093 4.032143h-119.1557449zm21.342095 7.257857h117.2015285l8.331131 3.225715h-115.144459zm20.0049995 6.451429h113.190243l7.354024 3.225714h-111.338881zm1208.271133 3.225714h-111.39031l7.35403-3.225714h113.19024zm18.82219-6.451428h-115.14446l8.33113-3.225715h117.20153zm20.005-6.451429h-119.15575l9.41109-4.032143h121.46995zm21.34209-7.257857h-123.42416l10.5939-4.435357h126.04693zm37.6958-12.499643-14.86233 4.838572h-127.94972l11.87958-4.838572zm-131.961-3.225714h-134.53234l10.02821-5.645h137.87508zm21.03353-8.870714h-139.77787l11.21103-6.451429h143.53202zm22.62776-9.677143h-145.48623l12.59955-6.854643h149.6518zm24.47913-10.080357h-151.55459l14.14235-8.064286h156.28585zm26.48477-11.29h-158.18864l15.83944-8.870715h163.48559zm52.60955-22.176786-23.75915 10.080357h-165.38838l17.84507-10.080357zm-172.69098-3.225714h-174.79947l13.37095-10.886786h181.53637zm25.86765-14.1125h-183.43916l15.11946-12.902858h190.99889zm28.43898-16.128572h-192.90168l17.1251-14.515714h201.48995zm31.42174-17.741428h-203.39274l19.43931-16.128572h213.11239zm68.2947-37.902143-33.32452 18.547857h-215.06661l22.21635-18.547857zm-227.97471-3.225715h-229.36324l12.75383-21.370357h242.06564zm29.36466-24.596071h-244.019854l14.708046-24.999286h258.727898zm33.2731-28.225h-260.630692l17.125102-28.6282143h277.7558zm78.11721-65.3207143-40.11285 33.4667857h-279.65859l20.05643-33.4667857zm-304.24056 0-20.05643 33.4667857h-280.429984v-33.4667857z" fill="#e0209e" opacity=".598098"/></svg>