<svg xmlns="http://www.w3.org/2000/svg" fill-rule="evenodd" stroke-linejoin="round" stroke-miterlimit="2" clip-rule="evenodd" viewBox="0 0 237 30"><path fill="#0e1025" fill-rule="nonzero" d="M20.2 28.64H9.4C2.68 28.64 0 25 0 20.28c0-4.4 2.2-6.08 4.32-6.68C2.48 13.12.28 11.52.28 7.56.28 4.16 2.16.48 8.52.48h11.64V5.2H9.76c-2.68 0-4.2.88-4.2 3.32C5.56 10.6 6.8 12 9.76 12h9.32v3.88H9.4c-2.36 0-4.04 1.4-4.04 3.84 0 2.84 1.32 4.2 5.12 4.2h9.72zM46.18 17.6V.48h5.08v16.6c0 7.84-3.92 12.08-11.2 12.08-7.4 0-11.52-4.2-11.52-12.04V.48h5.08V17.6c0 4.44 2.2 6.88 6.36 6.88 4.04 0 6.2-2.56 6.2-6.88zm38.325 11.04h-5.88l-6.16-9.28h-7.2v9.28h-5.04V.48h12.84c5.88 0 9.56 2.6 9.56 9.64 0 4.64-2.64 7.2-5.52 8.16zm-19.24-13.56h7.2c3.16 0 5.04-1.4 5.04-5s-1.88-4.88-5-4.88h-7.24zm37.461 14.08c-8.08 0-13.04-5.48-13.04-14.6 0-8.88 4.96-14.56 13.04-14.56s13 5.68 13 14.56c0 9.12-4.92 14.6-13 14.6zm0-4.72c4.88 0 7.96-3.44 7.96-9.88 0-6.28-2.92-9.88-7.96-9.88s-8 3.6-8 9.88c0 6.44 3.12 9.88 8 9.88zm45.578 4.2h-8.36l-5.72-9.24h-3.48v9.24h-7.36V.48h13.04c6.08 0 9.88 2.72 9.88 9.36 0 4.32-1.96 6.88-4.72 8.24zm-17.56-14.68h4.8c2.12 0 3.28-1 3.28-3.36 0-2.32-1.16-3.24-3.28-3.24h-4.8zm38.552 3.88V.48h7.4v16.6c0 7.84-4 12.08-11.44 12.08-7.6 0-11.8-4.2-11.8-12.04V.48h7.4v17.36c0 2.92 1.48 4.48 4.28 4.48 2.76 0 4.16-1.64 4.16-4.48zm29.483 10.8H184.7V21.8h12.04c2.16 0 2.92-1.08 2.92-2.64 0-1.52-.84-2.6-2.64-2.6h-3.8c-6.48 0-9.08-3.24-9.08-8.04 0-4.84 2.96-8.04 8.52-8.04h13.6v6.88h-11.2c-1.68 0-2.6.92-2.6 2.48s.84 2.52 2.68 2.52h4.84c6.28 0 8.28 3.64 8.28 7.84 0 4.68-2.68 8.44-9.48 8.44zm30.133 0h-7.76V7.36h-7.96V.48h23.6v6.88h-7.88z"/></svg>