<svg width="112" height="32" viewBox="0 0 112 32" fill="none" xmlns="http://www.w3.org/2000/svg">
<g clip-path="url(#clip0_1743_8768)">
<path d="M20.5917 0.556885V25.0725H17.1362V13.9381H4.25275V25.0725H0.797241V0.556885H4.25275V10.9803H17.1362V0.556885H20.5917Z" fill="white"/>
<path d="M23.9762 16.0142C23.9762 10.2693 27.6592 6.57202 32.7074 6.57202C38.3244 6.57202 41.4955 11.2362 41.0973 16.9954H27.3322C27.3322 20.6216 29.7638 22.8115 32.7501 22.8115C35.5941 22.8115 36.9166 21.5885 37.6845 19.7968H40.8698C40.0308 22.9395 37.3147 25.5133 32.8212 25.5133C26.9767 25.5275 23.9762 21.3895 23.9762 16.0142ZM27.3464 14.3647H37.8267C37.7556 11.7908 36.0065 9.21698 32.6789 9.21698C29.579 9.21698 27.4886 11.0798 27.3464 14.3647Z" fill="white"/>
<path d="M47.411 25.0867H44.3395V0.556885H47.411V25.0867Z" fill="white"/>
<path d="M62.4559 12.1889C61.9867 10.0275 60.2945 9.17425 58.0192 9.17425C56.0853 9.17425 54.066 9.81416 54.066 11.4779C54.066 12.9284 55.0757 13.5398 56.9812 13.9522L59.555 14.4642C63.0105 15.1467 65.9114 16.3554 65.9114 19.8821C65.9114 23.4655 62.6692 25.5275 58.3747 25.5275C53.4688 25.5275 50.7669 22.3848 50.4257 19.1995H53.6679C54.1371 21.5316 55.6018 22.9252 58.4316 22.9252C60.9059 22.9252 62.7972 21.9155 62.7972 20.2233C62.7972 18.4032 61.0766 17.621 58.972 17.2087L56.2702 16.6683C53.6679 16.1279 50.966 15.0045 50.966 11.6343C50.966 8.42058 54.2082 6.55774 58.3747 6.55774C62.4275 6.55774 65.1009 8.76187 65.6839 12.2032H62.4559V12.1889Z" fill="white"/>
<path d="M72.3675 0.556885V4.28257H69.2959V0.556885H72.3675ZM72.3675 6.88486V25.0867H69.2959V6.88486H72.3675Z" fill="white"/>
<path d="M79.9468 9.62942C80.9991 7.90878 82.7482 6.5863 85.834 6.5863C90.228 6.5863 91.8207 9.43034 91.8207 13.5826V25.0868H88.7491V14.5069C88.7491 11.7056 88.2798 9.2597 84.7532 9.2597C81.7812 9.2597 79.9468 11.3216 79.9468 15.218V25.101H76.8752V6.89915H79.9468V9.62942Z" fill="white"/>
<path d="M108.117 6.88493H111.188V22.6409C111.188 26.3666 110.506 27.8881 109.468 29.04C108.145 30.5615 105.884 31.4432 103.183 31.4432C99.0587 31.4432 96.2857 29.5519 95.7027 25.8689H98.9876C99.3999 27.49 100.381 28.7414 103.211 28.7414C104.875 28.7414 106.126 28.2721 106.937 27.3904C107.619 26.6794 108.117 25.8404 108.117 23.3661V21.6455C107.008 23.5794 105.244 24.7881 102.329 24.7881C98.0348 24.7881 94.821 21.5459 94.821 15.6872C94.821 9.87117 98.0348 6.5863 102.329 6.5863C105.244 6.5863 106.994 7.83768 108.117 9.77162V6.88493ZM103.111 9.21704C99.8265 9.21704 98.177 11.5491 98.177 15.673C98.177 19.8395 99.8408 22.1716 103.111 22.1716C105.856 22.1716 108.259 20.3088 108.259 15.673C108.259 11.0799 105.856 9.21704 103.111 9.21704Z" fill="white"/>
</g>
<defs>
<clipPath id="clip0_1743_8768">
<rect width="110.633" height="31" fill="white" transform="translate(0.683472 0.5)"/>
</clipPath>
</defs>
</svg>
