<svg width="112" height="33" viewBox="0 0 112 33" fill="none" xmlns="http://www.w3.org/2000/svg">
<path d="M32.504 20.2268C32.504 20.5448 32.4367 20.8255 32.3022 21.0725C32.173 21.3152 31.9751 21.5145 31.7332 21.6453C31.4862 21.7798 31.2092 21.8475 30.8913 21.8475H29.3154V24.1416H31.2243C31.9429 24.1416 32.5867 23.9807 33.1591 23.6586C33.7216 23.3461 34.1877 22.8853 34.5065 22.3263C34.832 21.7614 34.997 21.1251 34.997 20.414V12.8724H32.504V20.2268ZM39.215 19.5417H44.4358V17.4347H39.215V15.0433H44.986V12.8724H36.7859V24.1378H45.1469V21.967H39.215V19.5417ZM45.9294 15.1068H49.2676V24.1344H51.7605V15.1068H55.0837V12.8724H45.9256V15.1105L45.9294 15.1068ZM63.6021 18.4901C63.4024 18.3853 63.1915 18.3037 62.9733 18.2469C63.1383 18.2005 63.2987 18.1391 63.4525 18.0635C63.8644 17.85 64.1899 17.5509 64.4218 17.1653C64.654 16.7796 64.7735 16.3384 64.7735 15.8367C64.7735 15.2639 64.6164 14.7512 64.306 14.2984C63.9952 13.8492 63.5573 13.4974 62.9958 13.243C62.4343 12.9919 61.7909 12.8649 61.0723 12.8649H56.068V24.1303H61.1696C61.9254 24.1303 62.5993 23.9995 63.1943 23.7338C63.7855 23.4681 64.2459 23.1013 64.5755 22.6258C64.901 22.1541 65.0656 21.6152 65.0656 21.009C65.0656 20.4512 64.9385 19.9536 64.68 19.512C64.427 19.0747 64.0543 18.7188 63.6058 18.4863L63.6021 18.4901ZM58.4895 14.7625H60.7017C61.0084 14.7625 61.2779 14.8189 61.5139 14.9271C61.7395 15.0271 61.9309 15.1911 62.0641 15.3988C62.1949 15.6006 62.2622 15.8404 62.2622 16.1137C62.2622 16.3869 62.1949 16.6451 62.0641 16.8582C61.933 17.0717 61.7495 17.2325 61.5139 17.3487C61.2779 17.4648 61.0084 17.5208 60.7017 17.5208H58.4895V14.7584V14.7621V14.7625ZM62.2998 21.578C62.1577 21.7911 61.9555 21.9561 61.6973 22.0718C61.4353 22.188 61.1396 22.244 60.799 22.244H58.4895V19.3545H60.799C61.132 19.3545 61.4278 19.4184 61.6898 19.5417C61.948 19.6653 62.1539 19.8375 62.296 20.0622C62.4381 20.2866 62.5132 20.541 62.5132 20.8293C62.5132 21.1176 62.4418 21.3645 62.2998 21.578ZM73.4231 19.583C74.0481 19.2835 74.5307 18.8607 74.8753 18.3179C75.2196 17.7752 75.3917 17.1465 75.3917 16.4279C75.3917 15.7093 75.2234 15.103 74.8866 14.5641C74.5495 14.0251 74.0707 13.6094 73.4532 13.314C72.8353 13.0182 72.1204 12.8724 71.3045 12.8724H66.372V24.1378H68.8683V20.0359H70.4927L72.7793 24.1378H75.6274L73.0525 19.733C73.1799 19.6879 73.307 19.639 73.4269 19.583H73.4231ZM72.6147 17.2814C72.4761 17.5185 72.2685 17.7078 72.0197 17.8241C71.7611 17.9511 71.4582 18.0146 71.1102 18.0146H68.8646V14.8971H71.1102C71.4582 14.8971 71.7611 14.961 72.0197 15.0842C72.2675 15.2003 72.4748 15.388 72.6147 15.6232C72.753 15.8551 72.8244 16.1324 72.8244 16.4463C72.8244 16.7608 72.753 17.0378 72.6147 17.2739V17.2814ZM80.3547 12.8724L76.331 24.1378H78.8649L79.662 21.6528H83.8391L84.6923 24.1378H87.1773L83.0566 12.8724H80.3547ZM80.2273 19.7664L81.5221 15.7916L81.6758 15.0692L81.8291 15.7916L83.2141 19.7664H80.2273ZM88.0045 24.1378H90.5794V12.8724H88.0045V24.1378ZM99.663 20.4922L94.8162 12.8724H92.3872V24.1378H94.6629V16.5177L99.4834 24.1378H101.939V12.8724H99.663V20.4922ZM111.512 19.2312C111.269 18.7633 110.925 18.3706 110.487 18.0522C110.049 17.7343 109.544 17.5246 108.975 17.4159L107.059 17.0232C106.759 16.9518 106.52 16.8285 106.344 16.6488C106.168 16.4692 106.078 16.2444 106.078 15.9787C106.078 15.7356 106.142 15.5258 106.273 15.3462C106.4 15.1665 106.583 15.0282 106.815 14.9271C107.048 14.826 107.317 14.7775 107.624 14.7775C107.931 14.7775 108.208 14.8298 108.443 14.9346C108.679 15.0395 108.862 15.1853 108.994 15.3763C109.125 15.5662 109.195 15.7926 109.192 16.0238H111.688C111.673 15.3687 111.49 14.7884 111.146 14.2871C110.801 13.7819 110.318 13.3888 109.705 13.1043C109.091 12.8198 108.387 12.6777 107.601 12.6777C106.815 12.6777 106.119 12.8236 105.509 13.1193C104.899 13.4151 104.42 13.8229 104.08 14.3468C103.739 14.8711 103.567 15.4661 103.567 16.1358C103.567 16.6785 103.675 17.169 103.896 17.6031C104.113 18.0367 104.433 18.4107 104.828 18.6923C105.232 18.9806 105.696 19.1824 106.228 19.2948L108.256 19.7138C108.589 19.7927 108.852 19.9386 109.046 20.1483C109.241 20.3576 109.334 20.6158 109.334 20.93C109.337 21.1729 109.263 21.4103 109.121 21.6077C108.979 21.8061 108.78 21.9595 108.526 22.0681C108.271 22.1767 107.972 22.2289 107.627 22.2289C107.283 22.2289 106.958 22.1692 106.677 22.0493C106.396 21.9298 106.179 21.7576 106.026 21.5329C105.869 21.3123 105.794 21.0537 105.794 20.7658H103.297C103.308 21.4694 103.495 22.0869 103.866 22.6258C104.233 23.161 104.738 23.5804 105.382 23.8796C106.026 24.1792 106.763 24.3287 107.594 24.3287C108.425 24.3287 109.173 24.1754 109.817 23.8683C110.465 23.5617 110.966 23.1385 111.329 22.5995C111.692 22.0606 111.872 21.4506 111.872 20.7692C111.872 20.2118 111.748 19.6992 111.505 19.2275L111.512 19.2312ZM4.88586 22.6375H11.2751V24.1408H4.88586V22.6375Z" fill="white"/>
<path fill-rule="evenodd" clip-rule="evenodd" d="M7.64456 6.34872L3.00671 10.9866L1.37557 12.6177C0.49472 13.499 -6.71796e-05 14.6941 6.84146e-09 15.9401L6.84147e-09 27.1476C6.84147e-09 28.185 0.841879 29.0268 1.87919 29.0268H13.0867C14.3345 29.0268 15.5259 28.5307 16.4091 27.6513L18.0403 26.0201L22.6781 21.3823C23.5576 20.5028 24.0537 19.3076 24.0537 18.0599V6.85234C24.0537 5.81502 23.2118 4.97314 22.1745 4.97314H10.967C9.7192 4.97314 8.52779 5.46925 7.64456 6.34872ZM18.0403 26.0201V10.9866H3.00671V26.0201H18.0403Z" fill="white"/>
</svg>
