<svg xmlns="http://www.w3.org/2000/svg" width="216" height="31" viewBox="0 0 216 31"><path fill="#fff" fill-rule="evenodd" d="m5.204 0 11.1 17.16-2.862 4.402L5.516 9.288V31H0V0zm167.143 2.725v6.398h5.136v3.88h-5.136v10.526c0 2.394.787 3.509 3.355 3.509.622 0 1.284 0 1.781-.042v3.88c-.787.083-1.74.124-2.61.124l-.284-.002c-4.974-.083-7.13-2.368-7.13-7.634V13.003h-3.768v-3.88h3.769V2.725zM30.975 0v31h-5.516V0zm125.804 2.725v6.398h5.135v3.88h-5.135v10.526c0 2.394.786 3.509 3.355 3.509.62 0 1.283 0 1.78-.042v3.88c-.786.083-1.74.124-2.61.124l-.284-.002c-4.974-.083-7.129-2.368-7.129-7.634V13.003h-3.768v-3.88h3.768V2.725zm32.586 5.902c6.172 0 10.396 4.665 10.396 11.31v.248c-.002.446-.014 1.025-.083 1.403h-15.821c.456 3.261 2.858 5.45 6.171 5.45 2.154 0 3.935-.991 5.343-2.725l3.438 2.435c-2.03 2.724-5.095 4.252-8.74 4.252-6.75 0-11.182-4.623-11.182-11.186 0-6.48 4.184-11.187 10.478-11.187zm-145.504 0c7.082 0 9.195 3.798 9.195 9.288v12.59h-4.888V28.73c-1.532 1.485-3.81 2.27-6.295 2.27-4.68 0-8.076-2.89-8.076-6.977 0-4.086 3.395-6.975 8.076-6.975 2.65 0 4.638.784 6.295 2.064v-2.023c0-2.683-1.16-4.458-4.887-4.458-1.947 0-3.852.66-5.467 1.982l-2.816-2.807c2.485-2.106 5.59-3.179 8.863-3.179zm92.93 0c7.082 0 9.195 3.798 9.195 9.288v12.59h-4.888V28.73c-1.532 1.485-3.81 2.27-6.295 2.27-4.68 0-8.076-2.89-8.076-6.977 0-4.086 3.396-6.975 8.076-6.975 2.65 0 4.638.784 6.295 2.064v-2.023c0-2.683-1.16-4.458-4.887-4.458-1.947 0-3.851.66-5.467 1.982l-2.816-2.807c2.485-2.106 5.591-3.179 8.863-3.179zm-74.235.496v21.382h-4.888V9.123zm152.078-.496c.456 0 .952.042 1.366.082v4.046a19.548 19.548 0 0 0-1.74-.082c-2.525 0-4.845 1.28-6.087 3.22v14.611h-4.887V9.123h4.887v2.6c1.45-1.94 3.603-3.096 6.46-3.096zm-98.174 0c4.473 0 6.958 2.766 6.958 7.884v13.993h-4.887V17.296c0-3.014-.953-4.707-3.645-4.707-1.822 0-3.852 1.115-4.97 2.643.083.619.083 1.238.083 1.898v13.374h-4.887V17.296c0-3.014-.87-4.707-3.645-4.707-1.864 0-3.77 1.033-4.929 2.436v15.48h-4.887V9.122h4.887v2.146c1.74-1.569 3.976-2.642 6.544-2.642 2.775 0 4.804 1.115 5.881 3.179 1.864-1.734 4.184-3.179 7.497-3.179zm-36.998 0c4.515 0 7.58 2.807 7.58 8.008v13.87h-4.888V17.335c0-3.013-1.325-4.747-4.142-4.747l-.276.007c-2.293.102-4.365 1.454-5.48 2.883v15.025h-4.887V9.123h4.887v2.476c1.656-1.651 4.1-2.972 7.206-2.972zm56.584 12.383c-2.651 0-4.35.99-4.35 3.013 0 2.023 1.699 3.014 4.35 3.014l.31-.006c1.759-.065 3.49-.685 4.742-1.893v-2.229c-1.366-1.239-3.106-1.9-5.052-1.9zm-92.93 0c-2.652 0-4.35.99-4.35 3.013 0 2.023 1.698 3.014 4.35 3.014l.31-.006c1.758-.065 3.49-.685 4.742-1.893v-2.229c-1.366-1.239-3.106-1.9-5.052-1.9zm146.25-8.42-.247.004c-2.927.104-4.86 2.067-5.303 5.28h11.017c-.249-3.261-2.527-5.284-5.468-5.284zM60.112 0c1.697 0 3.023 1.28 3.023 2.972l-.005.18c-.09 1.602-1.381 2.792-3.018 2.792-1.7 0-3.024-1.28-3.024-2.972S58.414 0 60.113 0z"/></svg>