<svg width="137" height="32" viewBox="0 0 137 32" fill="none" xmlns="http://www.w3.org/2000/svg">
<path d="M22.6216 23.5976C23.0367 20.4738 23.4016 17.3626 24.0141 14.2678C24.7157 10.727 25.8597 6.87365 28.9294 4.97398C29.6771 4.51098 30.5327 4.18482 31.4119 4.19032C32.7991 4.19832 34.0762 5.03431 34.9501 6.11248C35.8237 7.19065 36.3569 8.49581 36.8794 9.78381C36.1039 8.42198 33.8746 8.80381 32.9099 10.0388C31.9451 11.2736 31.8011 12.9328 31.4281 14.4525C30.3896 18.6805 27.1946 22.3176 23.1341 23.8895C22.5819 24.1056 22.5891 23.8418 22.6216 23.5976Z" fill="white"/>
<path d="M28.426 20.1523C28.5241 19.284 28.5818 18.3815 28.1963 17.5772C27.4901 16.1027 26.1786 15.0757 24.9878 14.0147C21.0516 10.5098 18.7196 5.27033 18.7503 0C19.3446 2.051 21.1228 3.54167 22.9836 4.58567C24.8446 5.62967 26.8875 6.3655 28.6251 7.60583C30.3626 8.84617 31.947 10.3648 31.8525 12.4987C31.8543 12.4987 31.3525 16.9808 28.426 20.1523Z" fill="white"/>
<path d="M36.052 23.0374C36.2232 23.2119 36.4164 23.3632 36.6267 23.4877C36.8165 23.6014 37.015 23.6999 37.2204 23.7824C37.3829 23.8492 37.5502 23.9034 37.7212 23.9445C37.8175 23.9702 37.9162 23.9867 38.0157 23.994C38.14 23.994 38.2985 23.9885 38.4912 23.9787C38.679 23.9694 38.865 23.9392 39.0462 23.8885C39.2147 23.8442 39.3709 23.762 39.5029 23.648C39.5675 23.5887 39.6184 23.5155 39.6514 23.434C39.6844 23.3525 39.6989 23.2649 39.6937 23.177C39.7015 23.0239 39.6639 22.872 39.5857 22.7402C39.5049 22.6245 39.3974 22.5304 39.2722 22.4654C39.111 22.3809 38.9414 22.3135 38.766 22.2645C38.5672 22.2045 38.3432 22.1357 38.094 22.0584C37.4164 21.8907 36.763 21.6367 36.1502 21.3025C35.6895 21.0482 35.2789 20.7125 34.9379 20.3117C34.651 19.9689 34.4387 19.5702 34.3145 19.1409C34.1942 18.7094 34.1335 18.2637 34.1344 17.8159C34.1277 17.3034 34.2387 16.796 34.4587 16.3332C34.6764 15.8862 34.993 15.4947 35.3845 15.1884C35.8125 14.8562 36.2984 14.6067 36.8177 14.4524C37.7972 14.1707 38.828 14.1169 39.8315 14.2949C40.1867 14.3619 40.5325 14.4707 40.862 14.619C41.201 14.7732 41.522 14.9642 41.8195 15.1884C42.1507 15.439 42.4607 15.7164 42.7464 16.0179C42.8439 16.1174 42.9045 16.2469 42.9184 16.3854C42.922 16.5007 42.8485 16.6235 42.6977 16.7539C42.4425 16.964 42.1987 17.1702 41.9664 17.3727C41.7339 17.575 41.4937 17.8009 41.2457 18.05C41.1784 18.1097 41.0974 18.1517 41.0097 18.1725C40.9354 18.1889 40.858 18.187 40.7845 18.167C40.7105 18.1469 40.6407 18.1137 40.5784 18.0689C40.5102 18.0229 40.4494 17.9667 40.3982 17.9022C40.1895 17.6607 39.9174 17.4822 39.6127 17.387C39.3459 17.3032 39.0682 17.2585 38.7885 17.2547C38.523 17.242 38.259 17.2995 38.0229 17.4212C37.9329 17.4704 37.8595 17.5452 37.8122 17.6362C37.7649 17.727 37.7457 17.83 37.7572 17.932C37.7599 18.0079 37.7782 18.0824 37.8112 18.1509C37.8442 18.2192 37.8912 18.28 37.949 18.3292C38.075 18.4305 38.218 18.5087 38.3715 18.5599C38.5442 18.6205 38.7212 18.6682 38.901 18.7022C39.0875 18.7382 39.2614 18.7795 39.4164 18.8247C39.968 19.0002 40.5094 19.2067 41.0377 19.4434C41.5029 19.6492 41.9334 19.9257 42.314 20.2632C42.6732 20.5867 42.9594 20.9832 43.1535 21.426C43.3522 21.8782 43.452 22.4279 43.4525 23.0752C43.4627 23.6769 43.3299 24.2724 43.0652 24.8127C42.8117 25.3165 42.4475 25.7562 41.9997 26.099C41.519 26.4624 40.975 26.7332 40.3954 26.898C39.7464 27.0842 39.0737 27.1752 38.3985 27.1682C37.984 27.1674 37.5702 27.1315 37.1617 27.061C36.7447 26.9907 36.3364 26.8757 35.944 26.7179C35.5482 26.5559 35.1729 26.3482 34.8252 26.099C34.4669 25.8422 34.1492 25.5327 33.883 25.1812C33.8137 25.0942 33.759 24.9965 33.7209 24.892C33.6859 24.796 33.6694 24.6942 33.6722 24.592C33.6739 24.499 33.6939 24.4072 33.7309 24.3219C33.7687 24.2375 33.828 24.1645 33.9029 24.1102L35.1684 22.8447C35.326 22.714 35.4647 22.6645 35.5864 22.7077C35.7625 22.7845 35.921 22.8969 36.052 23.0374Z" fill="white"/>
<path d="M47.2762 12.505C47.2702 12.4183 47.2853 12.3316 47.3203 12.2523C47.3553 12.1728 47.4092 12.1031 47.477 12.0491C47.6538 11.9256 47.8473 11.828 48.0517 11.7591L50.2802 10.9836C50.3098 10.9776 50.34 10.9743 50.3703 10.9736H50.454C50.6963 10.9736 50.8575 11.0448 50.9395 11.1853C51.0287 11.356 51.0713 11.547 51.063 11.7393L51.053 14.4416H52.3978C52.5858 14.4336 52.7692 14.5008 52.9077 14.628C53.0392 14.7523 53.104 14.9388 53.104 15.1873V17.079C53.104 17.3536 53.0392 17.5545 52.9077 17.6825C52.8398 17.7468 52.7597 17.797 52.6722 17.8298C52.5845 17.8625 52.4913 17.8775 52.3978 17.8735H51.0557L51.0657 26.1603C51.0657 26.4088 50.9935 26.5971 50.8495 26.725C50.6803 26.8606 50.4668 26.9286 50.2505 26.916H48.032C47.5287 26.916 47.2768 26.664 47.2762 26.1603L47.2663 17.8735H46.2557C45.7513 17.8735 45.4993 17.6086 45.5 17.079V15.1883C45.5 14.6911 45.7518 14.4425 46.2557 14.4425H47.2663L47.2762 12.505Z" fill="white"/>
<path d="M55.1563 20.6918C55.1542 20.1048 55.2317 19.5203 55.3868 18.9543C55.6783 17.879 56.247 16.899 57.0362 16.1125C57.4237 15.7243 57.861 15.3893 58.3368 15.1163C59.3355 14.5455 60.467 14.2475 61.6173 14.2525C62.4608 14.2472 63.2972 14.4087 64.078 14.7278C64.8588 15.0472 65.5687 15.5177 66.167 16.1125C66.7513 16.6992 67.2178 17.3923 67.5415 18.1545C67.8825 18.9565 68.0545 19.8203 68.0468 20.6918C68.0492 21.277 67.9717 21.8598 67.8162 22.424C67.6677 22.9652 67.45 23.485 67.1685 23.9705C66.612 24.9252 65.8163 25.7183 64.86 26.272C63.8755 26.8445 62.7562 27.1445 61.6173 27.1412C61.0325 27.1432 60.45 27.0672 59.8852 26.915C59.3438 26.7695 58.8242 26.5533 58.3395 26.272C57.3838 25.7182 56.5888 24.925 56.0327 23.9705C55.751 23.4852 55.5333 22.9653 55.385 22.424C55.2302 21.8597 55.1533 21.277 55.1563 20.6918ZM58.7385 20.6918C58.7355 21.1045 58.8038 21.5147 58.9403 21.9042C59.0643 22.2638 59.2578 22.5955 59.5095 22.8807C59.7583 23.1582 60.0625 23.3805 60.4022 23.5337C60.7747 23.6987 61.1785 23.7807 61.5858 23.7742C61.9832 23.7802 62.3768 23.698 62.7387 23.5337C63.073 23.3805 63.3708 23.1578 63.6125 22.8807C63.858 22.5945 64.0447 22.2627 64.1618 21.9042C64.4177 21.1212 64.4177 20.277 64.1618 19.4938C64.0425 19.129 63.8562 18.7897 63.6125 18.4932C63.3663 18.1955 63.0563 17.9572 62.7055 17.7957C62.3547 17.6343 61.9718 17.554 61.5858 17.5608C61.1773 17.554 60.7728 17.6397 60.4022 17.8113C60.0595 17.9723 59.7552 18.2048 59.5095 18.4932C59.2597 18.7887 59.0667 19.128 58.9403 19.4938C58.8038 19.8785 58.7343 20.2837 58.7348 20.6918H58.7385Z" fill="white"/>
<path d="M78.9403 23.077C79.0173 23.0183 79.1057 22.9767 79.1998 22.9545C79.2628 22.9405 79.3272 22.9325 79.3917 22.9302C79.4972 22.9288 79.6013 22.9523 79.6962 22.9987C79.8142 23.0713 79.9122 23.1727 79.9807 23.2932L81.0797 24.9523C81.1137 25.0103 81.1437 25.0705 81.1697 25.1325C81.1945 25.1813 81.2095 25.2347 81.2138 25.2892C81.2163 25.3572 81.205 25.4247 81.1805 25.488C81.156 25.5513 81.119 25.6092 81.0715 25.6577C80.9772 25.7517 80.8733 25.8357 80.7617 25.908C80.2175 26.286 79.6248 26.589 78.9998 26.8088C78.3485 27.0365 77.6632 27.1512 76.9732 27.1475C76.3978 27.149 75.8248 27.073 75.2698 26.9213C74.735 26.7757 74.2218 26.5593 73.744 26.2783C73.272 26 72.8365 25.6638 72.4478 25.2775C72.0573 24.8908 71.7208 24.4533 71.4472 23.9768C71.1685 23.4883 70.9527 22.9665 70.8048 22.424C70.4973 21.2878 70.4973 20.0905 70.8048 18.9543C70.9525 18.4138 71.1687 17.8943 71.448 17.4087C71.7227 16.9342 72.0592 16.4983 72.4487 16.1125C72.8368 15.7268 73.2723 15.3922 73.7448 15.1163C74.7258 14.5477 75.8402 14.2495 76.974 14.2525C77.6452 14.246 78.3135 14.342 78.9557 14.5372C79.5638 14.7285 80.1383 15.0132 80.659 15.3812L80.6293 15.3523C80.7627 15.4277 80.8795 15.5295 80.9725 15.6513C81.061 15.7757 81.106 15.9257 81.1003 16.0783C81.096 16.2072 81.055 16.332 80.9823 16.4385L80.1087 17.9212C79.9285 18.2418 79.706 18.4022 79.4412 18.4022C79.3675 18.399 79.2948 18.384 79.2258 18.358C79.1247 18.3202 79.029 18.269 78.9413 18.2058C78.651 18.0152 78.3397 17.8587 78.0135 17.7392C77.675 17.6175 77.3177 17.5565 76.9578 17.559C76.5642 17.5547 76.1748 17.6403 75.8193 17.8095C75.4783 17.9713 75.1757 18.2038 74.9312 18.4913C74.6812 18.7878 74.4865 19.1268 74.3565 19.492C74.0827 20.2722 74.0827 21.1223 74.3565 21.9025C74.4842 22.2615 74.6793 22.5928 74.9312 22.8788C75.1858 23.1637 75.4983 23.3907 75.8478 23.5447C76.1975 23.6988 76.5758 23.7765 76.9578 23.7723C77.318 23.7757 77.6755 23.7097 78.0108 23.5778C78.3383 23.4458 78.65 23.278 78.9403 23.077Z" fill="white"/>
<path d="M84.0469 11.4953C84.0469 11.3835 84.0469 11.2826 84.0569 11.1908C84.0595 11.1058 84.0874 11.0236 84.137 10.9548C84.1967 10.882 84.2772 10.8288 84.3675 10.8026C84.511 10.7613 84.6599 10.7431 84.809 10.7485H87.1509C87.2575 10.7445 87.3635 10.7665 87.4599 10.8125C87.5365 10.8508 87.6037 10.906 87.6562 10.9736C87.7039 11.0363 87.7374 11.1086 87.7544 11.1853C87.77 11.2546 87.7782 11.3253 87.7787 11.3961V18.6598L91.3187 14.738C91.393 14.6488 91.4862 14.577 91.5914 14.5278C91.6967 14.4786 91.8114 14.4531 91.9275 14.4533H94.9459C95.3062 14.4533 95.4864 14.5941 95.4864 14.8756C95.489 14.9376 95.4774 14.9993 95.4522 15.0558C95.4115 15.1261 95.3639 15.1918 95.3099 15.2521L91.2754 19.5118L96.3502 26.0296H96.3304C96.4069 26.1038 96.468 26.1923 96.5105 26.29C96.5439 26.3658 96.5622 26.4475 96.5645 26.5305C96.5645 26.6808 96.5232 26.7845 96.4412 26.8393C96.3295 26.9026 96.2017 26.9318 96.0737 26.9231H92.7517C92.635 26.921 92.5232 26.8755 92.4382 26.7953C92.315 26.6813 92.2062 26.5526 92.114 26.4125L88.9037 21.8681L87.8147 22.9886V26.1593C87.8129 26.2286 87.8047 26.2976 87.7904 26.3656C87.772 26.454 87.7389 26.5386 87.6922 26.616C87.641 26.7 87.5722 26.772 87.4905 26.8268C87.3912 26.8901 87.2749 26.9216 87.1572 26.9168H84.6927C84.5845 26.9205 84.478 26.889 84.3892 26.8268C84.309 26.7698 84.2405 26.6978 84.1875 26.6151C84.1434 26.5458 84.107 26.4718 84.0794 26.3945C84.0647 26.3531 84.0539 26.3106 84.0469 26.2675V11.4953Z" fill="white"/>
<path d="M98.8755 11.4953C98.8693 11.306 98.9246 11.1198 99.0331 10.9647C99.1376 10.8212 99.3178 10.7495 99.5736 10.7495H101.978C102.051 10.751 102.121 10.7695 102.185 10.8035C102.26 10.842 102.328 10.8935 102.386 10.9557C102.451 11.025 102.504 11.1043 102.543 11.1908C102.586 11.2865 102.608 11.3903 102.606 11.4953V26.1593C102.606 26.408 102.536 26.5962 102.396 26.7242C102.246 26.8538 102.053 26.922 101.855 26.915H99.5781C99.3228 26.915 99.1426 26.8513 99.0376 26.7242C98.9325 26.5968 98.88 26.4085 98.88 26.1593L98.8755 11.4953Z" fill="white"/>
<path d="M105.167 15.391C105.061 15.1298 105.059 14.9058 105.161 14.719C105.263 14.5323 105.488 14.4388 105.834 14.4388H108.258C108.332 14.4363 108.405 14.4483 108.475 14.4745C108.544 14.5007 108.607 14.5403 108.661 14.5912C108.768 14.697 108.849 14.8265 108.897 14.9695L111.674 22.8707L114.393 14.9695C114.465 14.7598 114.557 14.619 114.668 14.547C114.809 14.4675 114.969 14.43 115.13 14.4388H117.652C117.8 14.4322 117.947 14.4573 118.084 14.5128C118.176 14.5488 118.252 14.6153 118.3 14.7012C118.349 14.787 118.366 14.8868 118.349 14.9838C118.336 15.0865 118.31 15.187 118.271 15.2828L117.46 17.3005L116.543 19.5777C116.225 20.3667 115.902 21.1683 115.576 21.9827C115.249 22.7968 114.93 23.5967 114.619 24.3822C114.307 25.1677 114.007 25.9218 113.718 26.6448C113.429 27.3678 113.166 28.0323 112.927 28.6382C112.687 29.2435 112.479 29.775 112.304 30.2325C112.129 30.6902 111.994 31.0435 111.901 31.2927L111.931 31.244C111.893 31.4072 111.808 31.5557 111.686 31.671C111.568 31.779 111.413 31.8372 111.254 31.8332H108.987C108.692 31.8332 108.49 31.7755 108.383 31.6612C108.266 31.52 108.208 31.3388 108.221 31.1558C108.217 31.0885 108.229 31.0213 108.255 30.9593C108.269 30.9268 108.287 30.8965 108.309 30.8693L109.85 26.8647L105.167 15.391Z" fill="white"/>
</svg>
