<svg height="19" viewBox="0 0 22 19" width="22" xmlns="http://www.w3.org/2000/svg"><path d="m141.014511 23.1793723c-.266846-.1910723-.711588-.1910723-.978434 0-.622639.4776809-1.334227.8598256-2.045815 1.1464342-1.77897-1.7196513-4.536373-1.8151874-6.404291 0-1.156331.9553618-1.77897 2.3884045-1.77897 3.9169834-2.579506-.1910723-4.892167-1.6241151-6.404291-3.9169834-.177897-.2866086-.444743-.3821447-.800537-.3821447s-.622639.2866085-.711588.5732171c-.088948.0955361-.978433 2.3884045-.889485 5.1589537.088949 2.3884046.978434 5.4455624 4.269528 7.6428945-1.334227.6687533-2.846352.9553618-4.358476.9553618-.355794 0-.800536.2866086-.889485.6687533-.088948.3821447.088949.8598256.444743 1.050898 2.223712 1.3375065 4.625321 2.0062598 6.849033 2.0062598s4.358476-.5732171 6.315343-1.8151874c3.824785-2.2928684 5.959549-6.6875327 5.959549-11.9420227 0-.1910723 0-.2866085 0-.4776809.889485-1.050898 1.512124-2.2928683 1.778969-3.6303749.088949-.3821447-.088948-.7642894-.355793-.9553618z" fill="#e0209e" transform="translate(-120 -23)"/></svg>