<svg xmlns="http://www.w3.org/2000/svg" width="42" height="42" fill="none" viewBox="0 0 42 42"><linearGradient id="c" x1="8.5" x2="34.5" y1="7" y2="36" gradientUnits="userSpaceOnUse"><stop offset="0" stop-color="#fec976"/><stop offset=".5" stop-color="#ffea8d"/><stop offset="1" stop-color="#cade39"/></linearGradient><clipPath id="a"><path d="M0 0h42v42H0z"/></clipPath><mask id="b" width="42" height="42" x="0" y="0" maskUnits="userSpaceOnUse"><path fill="#fff" d="M0 0h42v42H0z"/></mask><g clip-path="url(#a)" mask="url(#b)"><path fill="url(#c)" d="M21 42c11.598 0 21-9.402 21-21S32.598 0 21 0 0 9.402 0 21s9.402 21 21 21z"/><path fill="#0e1025" d="M13.636 11.54c2.98 2.239 6.187 6.776 7.364 9.211 1.177-2.435 4.383-6.972 7.364-9.21C30.515 9.926 34 8.677 34 12.652c0 .794-.455 6.67-.722 7.624-.928 3.317-4.31 4.163-7.318 3.65 5.258.896 6.596 3.86 3.707 6.824-5.487 5.63-7.886-1.412-8.5-3.217-.114-.33-.166-.485-.167-.354 0-.131-.054.023-.166.354-.615 1.805-3.014 8.847-8.5 3.217-2.89-2.964-1.552-5.929 3.706-6.823-3.008.512-6.39-.334-7.318-3.65-.267-.955-.722-6.83-.722-7.625 0-3.975 3.485-2.726 5.636-1.111z"/></g></svg>