<svg xmlns="http://www.w3.org/2000/svg" width="42" height="42" fill="none" viewBox="0 0 42 42"><linearGradient id="b" x1="8.5" x2="34.5" y1="7" y2="36" gradientUnits="userSpaceOnUse"><stop offset="0" stop-color="#fec976"/><stop offset=".5" stop-color="#ffea8d"/><stop offset="1" stop-color="#cade39"/></linearGradient><clipPath id="a"><path d="M0 0h42v42H0z"/></clipPath><g clip-path="url(#a)"><path fill="url(#b)" d="M21 42c11.598 0 21-9.402 21-21S32.598 0 21 0 0 9.402 0 21s9.402 21 21 21z"/><path fill="#0e1025" fill-rule="evenodd" d="M28.506 24.411h-2.79v-6.884c0-1.45-.605-2.187-1.818-2.187-1.34 0-2.012.874-2.012 2.601v3.768h-2.772V17.94c0-1.727-.672-2.601-2.012-2.601-1.213 0-1.819.736-1.819 2.187v6.884h-2.789v-7.092c0-1.45.367-2.601 1.102-3.453.76-.853 1.753-1.29 2.987-1.29 1.427 0 2.508.553 3.222 1.659l.695 1.173.695-1.173c.714-1.106 1.795-1.658 3.223-1.658 1.233 0 2.227.436 2.986 1.289.735.852 1.102 2.004 1.102 3.453zm4.493-7.546c0-5.858-3.81-7.574-3.81-7.574C27.27 8.4 23.972 8.028 20.546 8h-.084c-3.427.028-6.723.402-8.644 1.29 0 0-3.81 1.717-3.81 7.575 0 1.34-.025 2.944.017 4.645.138 5.728 1.043 11.373 6.3 12.775 2.423.646 4.505.782 6.18.689 3.04-.17 4.746-1.093 4.746-1.093l-.1-2.222s-2.172.69-4.611.606c-2.417-.083-4.969-.262-5.36-3.251a6.175 6.175 0 0 1-.054-.839s2.373.585 5.38.723c1.838.085 3.562-.108 5.313-.319 3.358-.404 6.282-2.488 6.65-4.393.579-3 .531-7.321.531-7.321z" clip-rule="evenodd"/></g></svg>