<?xml version="1.0" encoding="UTF-8"?>
<svg width="200px" height="100px" viewBox="0 0 200 100" version="1.1" xmlns="http://www.w3.org/2000/svg" xmlns:xlink="http://www.w3.org/1999/xlink">
    <title>Artboard</title>
    <defs>
        <polygon id="path-1" points="0 0 104 0 104 32 0 32"></polygon>
    </defs>
    <g id="Artboard" stroke="none" stroke-width="1" fill="none" fill-rule="evenodd">
        <g id="arm" transform="translate(48, 34)">
            <mask id="mask-2" fill="white">
                <use xlink:href="#path-1"></use>
            </mask>
            <g id="path-1"></g>
            <path d="M23.4816037,0.842495939 L30.4737785,0.842495939 L30.4737785,31.0669451 L23.4816037,31.0669451 L23.4816037,27.915936 C20.4024129,31.511575 16.6655095,32 14.5103719,32 C5.27575903,32 0,24.2319647 0,15.9317096 C0,6.08007423 6.68440371,0.0437949432 14.5984122,0.0437949432 C16.7972,0.0437949432 20.6680135,0.620552076 23.4816037,4.34831825 L23.4816037,0.842495939 Z M7.1231255,16.0660636 C7.1231255,21.3028996 10.377657,25.6972396 15.434425,25.6972396 C19.8320007,25.6972396 23.9203255,22.4564138 23.9203255,16.1536534 C23.9203255,9.54135934 19.8756509,6.39035027 15.434425,6.39035027 C10.377657,6.39035027 7.1231255,10.6941313 7.1231255,16.0660636 L7.1231255,16.0660636 Z M38.740688,0.842495939 L45.732123,0.842495939 L45.732123,3.54887497 C46.5244856,2.61804686 47.6675297,1.597402 48.635973,1.02064486 C49.9987479,0.219717003 51.3171328,0 52.9018581,0 C54.6160543,0 56.4634208,0.265738807 58.3973479,1.41925308 L55.5393676,7.80960336 C53.9553822,6.78821619 52.6806476,6.74442125 51.9778049,6.74442125 C50.4811199,6.74442125 48.9866544,6.96636511 47.6238795,8.38784507 C45.6884728,10.4744143 45.6884728,13.3574577 45.6884728,15.3549525 L45.6884728,31.0231501 L38.6962979,31.0231501 L38.6962979,0.842495939 L38.740688,0.842495939 Z M62.8829638,0.842495939 L69.8743987,0.842495939 L69.8743987,3.63720715 C72.2056169,0.754163764 74.9770368,0.0437949432 77.2638649,0.0437949432 C80.3844859,0.0437949432 83.3312468,1.55138019 85.0017923,4.48192995 C87.5083511,0.886290883 91.2474744,0.0437949432 93.8849838,0.0437949432 C97.5345871,0.0437949432 100.701818,1.77332405 102.415274,4.79220599 C102.988646,5.81359314 104,8.03154718 104,12.4258873 L104,31.11074 L97.0078253,31.11074 L97.0078253,14.4679193 C97.0078253,11.0949663 96.6549243,9.71950825 96.3478925,9.09672929 C95.908431,7.94395734 94.8526877,6.43414521 92.3468687,6.43414521 C90.6304527,6.43414521 89.135987,7.36720019 88.212674,8.65432614 C86.9808494,10.3838552 86.8491589,12.9588494 86.8491589,15.5331014 L86.8491589,31.11074 L79.8577241,31.11074 L79.8577241,14.4679193 C79.8577241,11.0949663 79.5063029,9.71950825 79.1970521,9.09672929 C78.7583298,7.94395734 77.7025864,6.43414521 75.1960276,6.43414521 C73.4803516,6.43414521 71.9858861,7.36720019 71.061833,8.65432614 C69.8307485,10.3838552 69.699058,12.9588494 69.699058,15.5331014 L69.699058,31.11074 L62.8829638,31.11074 L62.8829638,0.842495939 Z" id="Fill-1" fill="#FFFFFF" fill-rule="nonzero" mask="url(#mask-2)"></path>
        </g>
    </g>
</svg>