<?xml version="1.0" encoding="UTF-8"?>
<svg width="200px" height="100px" viewBox="0 0 200 100" version="1.1" xmlns="http://www.w3.org/2000/svg" xmlns:xlink="http://www.w3.org/1999/xlink">
    <title>Artboard</title>
    <g id="Artboard" stroke="none" stroke-width="1" fill="none" fill-rule="evenodd">
        <g id="ferrous" transform="translate(0, 28)" fill-rule="nonzero">
            <path d="M6.58818539,19 C6.58818539,19 8,19 8,20.4118146 L8,25.5890338 C8,25.5890338 8,27 6.58818539,27 L1.41096617,27 C1.41096617,27 0,27 0,25.5890338 L0,20.4118146 C0,20.4118146 0,19 1.41096617,19 L6.58818539,19 Z" id="Fill-7" fill="#FFFFFF"></path>
            <path d="M24.5890338,27 C24.5890338,27 26,27 26,28.5375556 L26,42.4624444 C26,42.4624444 26,44 24.5890338,44 L19.4109662,44 C19.4109662,44 18,44 18,42.4624444 L18,28.5375556 C18,28.5375556 18,27 19.4109662,27 L24.5890338,27 Z" id="Fill-9" fill="#FEFEFE"></path>
            <g id="Fill-11-Clipped" fill="#FEFEFE">
                <path d="M27,16.4125969 L27,1.58740306 C27,5.23580341e-16 25.4131382,5.23580341e-16 25.4131382,5.23580341e-16 L1.58779577,5.23580341e-16 C0,5.23580341e-16 0,1.58740306 0,1.58740306 L0,7.41354014 C0,9.0009432 1.58779577,9.0009432 1.58779577,9.0009432 L18.000934,9.0009432 L18.000934,16.4125969 C18.000934,18 19.5877958,18 19.5877958,18 L25.4131382,18 C27,18 27,16.4125969 27,16.4125969 Z" id="Fill-11"></path>
            </g>
            <path d="M53.7858424,14 L52.3473995,14 C49.8313113,14 48.6188416,15.2795744 48.6188416,17.6641934 L48.6188416,19.16683 L47,19.3870923 L47,21.4375846 L48.6188416,21.4375846 L48.6188416,29.2307621 L51.3362169,29.2307621 L51.3362169,21.4375846 L53.9890284,21.4375846 L53.9890284,19.16683 L51.3362169,19.16683 L51.3362169,17.6856596 C51.3362169,16.8027439 51.6058656,16.2716879 52.5050111,16.2716879 L53.7858424,16.2716879 L53.7858424,14 Z M60.41977,27.2026693 C58.9348032,27.2026693 58.1704821,26.3850856 58.1030699,25.0579122 L64.2850512,25.0579122 C64.3970883,24.6407205 64.4645005,23.867936 64.4645005,23.3172803 C64.4645005,21.1286574 63.274818,18.9456344 60.1273341,18.9456344 C56.9580124,18.9456344 55.3629075,21.3489197 55.3629075,24.1992627 C55.3629075,27.2689346 56.8678131,29.4743572 60.41977,29.4743572 C62.0623483,29.4743572 63.4324296,28.7911708 64.217639,28.0183863 L62.9377571,26.2740212 C62.1743855,26.8937421 61.2534023,27.2026693 60.41977,27.2026693 Z M58.1249077,23.1623501 C58.1923199,22.0134397 58.7771917,21.0838583 60.1273341,21.0838583 C61.0938918,21.0838583 61.9503112,21.6382472 61.9503112,22.8319567 C61.9503112,22.898222 61.927524,23.0307527 61.9047368,23.1623501 L58.1249077,23.1623501 Z M69.4776875,20.7543982 L69.4776875,19.16683 L66.8732989,19.16683 L66.8732989,29.2307621 L69.5906741,29.2307621 L69.5906741,22.8944888 C69.97236,22.1879696 70.6692689,21.7026459 71.5684144,21.7026459 C72.0630868,21.7026459 72.7372086,21.7903775 73.2100433,21.901442 L73.4122798,19.0781651 C73.0752189,18.9904335 72.6697964,18.9456344 72.2434856,18.9456344 C70.8040933,18.9456344 70.0169849,19.8509496 69.5004747,20.7562649 L69.4776875,20.7543982 Z M77.9535816,20.7543982 L77.9535816,19.16683 L75.3482435,19.16683 L75.3482435,29.2307621 L78.0656187,29.2307621 L78.0656187,22.8944888 C78.4473046,22.1879696 79.1442135,21.7026459 80.0443085,21.7026459 C80.5380314,21.7026459 81.2131026,21.7903775 81.6849879,21.901442 L81.8872244,19.0781651 C81.5501635,18.9904335 81.1456905,18.9456344 80.7184302,18.9456344 C79.2799873,18.9456344 78.492879,19.8509496 77.9754193,20.7562649 L77.9535816,20.7543982 Z M88.0711045,18.9456344 C84.6985969,18.9456344 83.1946408,21.1501237 83.1946408,24.2207289 C83.1946408,27.2250688 84.7669585,29.4743572 87.9809052,29.4743572 C91.3534128,29.4743572 92.8801561,27.2689346 92.8801561,24.1768631 C92.8801561,21.1501237 91.3087878,18.9456344 88.0711045,18.9456344 Z M88.0264796,27.0710719 C86.6307627,27.0710719 85.956641,26.1209576 85.956641,24.1768631 C85.956641,22.3223669 86.6079755,21.3489197 88.0036924,21.3489197 C89.4421352,21.3489197 90.0963182,22.3223669 90.0963182,24.2207289 C90.0963182,26.0546922 89.4421352,27.0710719 88.0264796,27.0710719 Z M104.503534,19.16683 L101.78426,19.16683 L101.78426,26.2534883 C101.379787,26.6286808 100.570841,27.0048066 99.7837325,27.0048066 C98.4108028,27.0048066 97.9389176,26.3645527 97.9389176,25.149377 L97.9389176,19.16683 L95.1978057,19.16683 L95.1978057,25.4592375 C95.1978057,28.0622521 96.3893871,29.4519576 98.7032387,29.4519576 C100.345817,29.4519576 101.335162,28.8350366 101.874459,28.0846516 L101.874459,29.2307621 L104.503534,29.2307621 L104.503534,19.16683 Z M115.113831,20.4240049 C114.439709,19.6950861 113.271864,18.9456344 111.248549,18.9456344 C108.14664,18.9456344 107.045258,20.7310654 107.045258,22.1898362 C107.045258,23.6467404 107.944403,24.6845863 109.740795,25.1260441 L111.519148,25.5460357 C112.216057,25.7018993 112.553117,26.0546922 112.553117,26.4961501 C112.553117,27.1588035 111.900833,27.4901302 110.977951,27.4901302 C109.69617,27.4901302 108.819812,26.8060105 108.236839,26.1872229 L106.68541,27.7775911 C107.337694,28.5699753 108.662201,29.4743572 110.864965,29.4743572 C114.214685,29.4743572 115.316067,27.8429231 115.316067,26.2534883 C115.316067,24.7947174 114.439709,23.7130057 112.395506,23.2715479 L110.685515,22.8739559 C110.033231,22.7414252 109.740795,22.3886322 109.740795,21.9247748 C109.740795,21.3937188 110.190843,20.952261 111.136512,20.952261 C112.148644,20.952261 113.002215,21.3937188 113.609874,21.9910402 L115.113831,20.4240049 Z M130.153392,20.4240049 C129.47927,19.6950861 128.312375,18.9456344 126.287161,18.9456344 C123.184302,18.9456344 122.084819,20.7310654 122.084819,22.1898362 C122.084819,23.6467404 122.983965,24.6845863 124.779407,25.1260441 L126.558709,25.5460357 C127.255618,25.7018993 127.592679,26.0546922 127.592679,26.4961501 C127.592679,27.1588035 126.940395,27.4901302 126.017512,27.4901302 C124.733833,27.4901302 123.859373,26.8060105 123.274502,26.1872229 L121.724971,27.7775911 C122.377255,28.5699753 123.701762,29.4743572 125.904526,29.4743572 C129.254246,29.4743572 130.354679,27.8429231 130.354679,26.2534883 C130.354679,24.7947174 129.47927,23.7130057 127.435067,23.2715479 L125.725076,22.8739559 C125.072792,22.7414252 124.779407,22.3886322 124.779407,21.9247748 C124.779407,21.3937188 125.230404,20.952261 126.174174,20.952261 C127.188206,20.952261 128.041777,21.3937188 128.647537,21.9910402 L130.153392,20.4240049 Z M134.46967,19.16683 L131.412385,19.16683 L135.616626,28.7911708 L133.413862,34 L136.178711,34 L142.181243,19.16683 L139.258783,19.16683 L136.965819,25.7224322 L134.46967,19.16683 Z M151.486022,20.4240049 C150.813799,19.6950861 149.645954,18.9456344 147.62169,18.9456344 C144.518831,18.9456344 143.419348,20.7310654 143.419348,22.1898362 C143.419348,23.6467404 144.318494,24.6845863 146.113936,25.1260441 L147.891339,25.5460357 C148.589197,25.7018993 148.927208,26.0546922 148.927208,26.4961501 C148.927208,27.1588035 148.274924,27.4901302 147.352041,27.4901302 C146.068362,27.4901302 145.192953,26.8060105 144.60903,26.1872229 L143.0595,27.7775911 C143.710834,28.5699753 145.036291,29.4743572 147.239055,29.4743572 C150.588775,29.4743572 151.689208,27.8429231 151.689208,26.2534883 C151.689208,24.7947174 150.813799,23.7130057 148.769596,23.2715479 L147.059605,22.8739559 C146.407321,22.7414252 146.113936,22.3886322 146.113936,21.9247748 C146.113936,21.3937188 146.564933,20.952261 147.508703,20.952261 C148.521785,20.952261 149.376306,21.3937188 149.982066,21.9910402 L151.486022,20.4240049 Z M157.737314,21.415185 L160.029328,21.415185 L160.029328,19.16683 L157.737314,19.16683 L157.737314,16.2968874 L155.018989,16.7159457 L155.018989,19.16683 L153.153286,19.3870923 L153.153286,21.415185 L155.018989,21.415185 L155.018989,26.2982874 C155.018989,28.1285174 155.826986,29.4743572 157.9405,29.4743572 C158.704821,29.4743572 159.602068,29.3418265 160.119527,29.1430305 L160.073953,26.8274768 C159.692267,26.9385412 159.221331,27.0048066 158.861483,27.0048066 C158.142737,27.0048066 157.737314,26.6734799 157.737314,25.9221616 L157.737314,21.415185 Z M166.977529,27.2026693 C165.491613,27.2026693 164.727292,26.3850856 164.65988,25.0579122 L170.84281,25.0579122 C170.954848,24.6407205 171.02226,23.867936 171.02226,23.3172803 C171.02226,21.1286574 169.832577,18.9456344 166.685093,18.9456344 C163.515772,18.9456344 161.920667,21.3489197 161.920667,24.1992627 C161.920667,27.2689346 163.425572,29.4743572 166.977529,29.4743572 C168.620108,29.4743572 169.990189,28.7911708 170.775398,28.0183863 L169.495516,26.2740212 C168.732145,26.8937421 167.809263,27.2026693 166.977529,27.2026693 Z M164.682667,23.1623501 C164.750079,22.0134397 165.334951,21.0838583 166.685093,21.0838583 C167.651651,21.0838583 168.50807,21.6382472 168.50807,22.8319567 C168.50807,22.898222 168.485283,23.0307527 168.462496,23.1623501 L164.682667,23.1623501 Z M173.431058,29.2307621 L176.147484,29.2307621 L176.147484,22.1441038 C176.664944,21.7465117 177.29444,21.3937188 178.14991,21.3937188 C179.117417,21.3937188 179.70134,21.8127771 180.0403,22.3652994 L180.0403,29.2307621 L182.757675,29.2307621 L182.757675,22.1441038 C183.183986,21.7465117 183.903682,21.3937188 184.827513,21.3937188 C186.086507,21.3937188 186.537504,21.9677073 186.537504,22.9392879 L186.537504,29.2307621 L189.276717,29.2307621 L189.276717,22.7180923 C189.276717,20.2690746 188.199072,18.9456344 185.613672,18.9456344 C183.813482,18.9456344 182.622851,19.7174857 182.060766,20.4240049 C181.432219,19.564422 180.578648,18.9456344 178.937019,18.9456344 C177.496677,18.9456344 176.620319,19.6521536 176.058234,20.3129404 L176.058234,19.16683 L173.431058,19.16683 L173.431058,29.2307621 Z M199.797763,20.4240049 C199.123642,19.6950861 197.955797,18.9456344 195.932482,18.9456344 C192.830573,18.9456344 191.729191,20.7310654 191.729191,22.1898362 C191.729191,23.6467404 192.628336,24.6845863 194.424728,25.1260441 L196.202131,25.5460357 C196.89904,25.7018993 197.23705,26.0546922 197.23705,26.4961501 C197.23705,27.1588035 196.584766,27.4901302 195.662834,27.4901302 C194.380103,27.4901302 193.502796,26.8060105 192.919823,26.1872229 L191.369343,27.7775911 C192.020677,28.5699753 193.346134,29.4743572 195.548898,29.4743572 C198.898618,29.4743572 200,27.8429231 200,26.2534883 C200,24.7947174 199.123642,23.7130057 197.079439,23.2715479 L195.369448,22.8739559 C194.717164,22.7414252 194.424728,22.3886322 194.424728,21.9247748 C194.424728,21.3937188 194.874776,20.952261 195.820445,20.952261 C196.831628,20.952261 197.686148,21.3937188 198.292858,21.9910402 L199.797763,20.4240049 Z" id="Fill-14" fill="#FEFEFE"></path>
        </g>
    </g>
</svg>