<?xml version="1.0" encoding="UTF-8"?>
<svg width="200px" height="100px" viewBox="0 0 200 100" version="1.1" xmlns="http://www.w3.org/2000/svg" xmlns:xlink="http://www.w3.org/1999/xlink">
    <title>Artboard</title>
    <defs>
        <polygon id="path-1" points="0 0 30 0 30 11 0 11"></polygon>
        <polygon id="path-3" points="0 0 30 0 30 14 0 14"></polygon>
        <polygon id="path-5" points="0 0 15 0 15 15 0 15"></polygon>
    </defs>
    <g id="Artboard" stroke="none" stroke-width="1" fill="none" fill-rule="evenodd">
        <g id="ferrocene" transform="translate(20, 33)">
            <g id="Fill-1-Clipped">
                <mask id="mask-2" fill="white">
                    <use xlink:href="#path-1"></use>
                </mask>
                <g id="path-1"></g>
                <path d="M22.8531664,10.9672296 C22.6505597,11.0445879 22.4239887,10.9814996 22.2802033,10.8147661 C20.4923261,8.74937449 17.8932958,7.44930434 15.0001591,7.44930434 C12.1070222,7.44930434 9.50799198,8.74937449 7.72011475,10.8147661 C7.57560317,10.9814996 7.34903224,11.0445879 7.14715169,10.9672296 L0.405213436,8.37760397 C0.015976157,8.22739367 -0.1249045,7.73245075 0.1249045,7.38922022 L5.31134601,0.255733037 C5.42826243,0.0942569636 5.61271442,-0.000375525751 5.80805926,-0.000375525751 L24.1922588,-0.000375525751 C24.3876036,-0.000375525751 24.5713294,0.0942569636 24.6889721,0.255733037 L29.8754136,7.38922022 C30.1244964,7.73245075 29.9843419,8.22739367 29.5951047,8.37760397 L22.8531664,10.9672296 Z" id="Fill-1" fill="#FFFFFF" fill-rule="nonzero" mask="url(#mask-2)"></path>
            </g>
            <g id="Fill-4-Clipped" transform="translate(0, 21)">
                <mask id="mask-4" fill="white">
                    <use xlink:href="#path-3"></use>
                </mask>
                <g id="path-3"></g>
                <path d="M5.80793824,0 C5.94736536,0 6.07372118,0.0867326053 6.13254199,0.217962807 C7.68003778,3.69254639 11.0691334,6.1029586 14.9999614,6.1029586 C18.9307895,6.1029586 22.3198851,3.69254639 23.8673808,0.217962807 C23.9262017,0.0867326053 24.0518313,0 24.1919846,0 C24.3873278,0 24.571052,0.095028767 24.6886937,0.257181029 L29.875092,7.42054001 C30.1248989,7.7652078 29.9840194,8.26297759 29.5947854,8.41230851 L15.2163639,13.9594242 C15.0769368,14.0137264 14.922986,14.0137264 14.783559,13.9594242 L0.405137441,8.41230851 C0.0159034055,8.26297759 -0.124976078,7.7652078 0.124830841,7.42054001 L5.31122913,0.257181029 C5.42814458,0.095028767 5.61259504,0 5.80793824,0" id="Fill-4" fill="#FFFFFF" fill-rule="nonzero" mask="url(#mask-4)"></path>
            </g>
            <path d="M21,17 C21,20.3140527 18.3139857,23 15.0003704,23 C11.6860142,23 9,20.3140527 9,17 C9,13.6859473 11.6860142,11 15.0003704,11 C18.3139857,11 21,13.6859473 21,17" id="Fill-7" fill="#FFFFFF" fill-rule="nonzero"></path>
            <path d="M39.7312716,26 L39.7312716,16.2429837 L38,16.2429837 L38,12.9726735 L39.7312716,12.9726735 L39.7312716,11.8109305 C39.7312716,10.0450517 40.1619713,8.63958641 41.0233708,7.59453471 C41.8847701,6.53101921 43.0300077,6 44.4597896,6 C45.5965544,6 46.7763892,6.27917282 48,6.83751846 L47.2501589,10.0812408 C46.9747935,9.95494833 46.6648308,9.8559823 46.3202711,9.78360413 C45.9757114,9.69350075 45.6657487,9.64844906 45.3896773,9.64844906 C44.3736496,9.64844906 43.8652828,10.3153619 43.8652828,11.6484491 L43.8652828,12.9726735 L47.0178634,12.9726735 L47.0178634,16.2429837 L43.8652828,16.2429837 L43.8652828,26 L39.7312716,26 Z" id="Fill-9" fill="#FFFFFF" fill-rule="nonzero"></path>
            <path d="M51.4306413,17.165012 L57.516118,17.165012 C57.4271405,16.2474428 57.0982156,15.5224128 56.5286138,14.9906739 C55.9765158,14.4401324 55.2916808,14.1648616 54.4733797,14.1648616 C53.6550785,14.1648616 52.9607624,14.4401324 52.3918899,14.9906739 C51.8397919,15.5412154 51.5196188,16.2662455 51.4306413,17.165012 M54.5266203,26 C52.9432587,26 51.5910925,25.6608003 50.470122,24.9816486 C49.3491515,24.302497 48.4856323,23.4037305 47.881023,22.2845969 C47.2939175,21.1647112 47,19.9538207 47,18.6511733 C47,17.256769 47.2939175,15.9811974 47.881023,14.8252106 C48.4681285,13.6692238 49.3221666,12.7426293 50.443137,12.0454272 C51.5641075,11.348225 52.9250255,11 54.5266203,11 C56.1107113,11 57.4628774,11.348225 58.5838479,12.0454272 C59.704089,12.7426293 60.5501045,13.6601985 61.118977,14.7981348 C61.7060825,15.9353189 62,17.1559868 62,18.4586342 C62,18.990373 61.9642632,19.458935 61.8927894,19.8620638 L51.5371226,19.8620638 C51.6085963,20.8345367 51.9470025,21.5776173 52.5516118,22.0920578 C53.1744542,22.5869435 53.8775222,22.8351384 54.6600865,22.8351384 C55.282929,22.8351384 55.8787864,22.6787004 56.4483882,22.3665764 C57.0172607,22.0552046 57.4096368,21.6332732 57.6225993,21.1007822 L61.2524432,22.1469615 C60.7010745,23.2841456 59.8382846,24.2107401 58.6633442,24.9267449 C57.5073662,25.6419976 56.1282151,26 54.5266203,26" id="Fill-11" fill="#FFFFFF" fill-rule="nonzero"></path>
            <path d="M73,14.8084593 C71.9549483,14.8256857 71.0088626,14.9922071 70.1624816,15.3073058 C69.3153619,15.6224045 68.7023633,16.0954114 68.3242245,16.7256088 L68.3242245,25 L64,25 L64,11.2095872 L67.9726736,11.2095872 L67.9726736,13.9945142 C68.4593796,13.0664445 69.0901034,12.3393489 69.8648449,11.8139451 C70.6395864,11.2885414 71.4505169,11.0172263 72.2976366,11 C72.6580502,11 72.8921713,11.0086132 73,11.0258395 L73,14.8084593 Z" id="Fill-13" fill="#FFFFFF" fill-rule="nonzero"></path>
            <path d="M83,14.8084593 C81.9549484,14.8256857 81.0088627,14.9922071 80.1624818,15.3073058 C79.3153621,15.6224045 78.7023633,16.0954114 78.3242249,16.7256088 L78.3242249,25 L74,25 L74,11.2095872 L77.9726738,11.2095872 L77.9726738,13.9945142 C78.4593797,13.0664445 79.0901033,12.3393489 79.8648451,11.8139451 C80.639587,11.2885414 81.450517,11.0172263 82.2976367,11 C82.6580504,11 82.8921713,11.0086132 83,11.0258395 L83,14.8084593 Z" id="Fill-15" fill="#FFFFFF" fill-rule="nonzero"></path>
            <path d="M88.3768839,18.5135379 C88.3768839,19.6326715 88.6708157,20.5412154 89.2579497,21.2384176 C89.8625885,21.9356197 90.6101818,22.2845969 91.5,22.2845969 C92.3715839,22.2845969 93.1009428,21.9356197 93.6880768,21.2384176 C94.2934452,20.5412154 94.5961294,19.6326715 94.5961294,18.5135379 C94.5961294,17.3944043 94.2934452,16.4858604 93.6880768,15.7886583 C93.1009428,15.0914561 92.3715839,14.742479 91.5,14.742479 C90.6101818,14.742479 89.8625885,15.0914561 89.2579497,15.7886583 C88.6708157,16.4858604 88.3768839,17.3944043 88.3768839,18.5135379 M91.5,26 C89.898327,26 88.5366137,25.6510229 87.4163176,24.9538207 C86.3127977,24.2566185 85.4674703,23.3390493 84.8803363,22.2018652 C84.2932023,21.063929 84,19.8349879 84,18.5135379 C84,17.1740373 84.2932023,15.9353189 84.8803363,14.7981348 C85.4674703,13.6601986 86.3215501,12.7426294 87.4425749,12.0454272 C88.5635997,11.348225 89.9158318,11 91.5,11 C93.0834387,11 94.4356701,11.348225 95.5566956,12.0454272 C96.6777204,12.7426294 97.5318002,13.6601986 98.1189342,14.7981348 C98.7060682,15.9353189 99,17.1740373 99,18.5135379 C99,19.8349879 98.7060682,21.063929 98.1189342,22.2018652 C97.5318002,23.3390493 96.6777204,24.2566185 95.5566956,24.9538207 C94.4356701,25.6510229 93.0834387,26 91.5,26" id="Fill-17" fill="#FFFFFF" fill-rule="nonzero"></path>
            <path d="M107.463196,26 C105.910532,26 104.569761,25.651775 103.440157,24.9545728 C102.328633,24.2566185 101.473113,23.3398014 100.873599,22.2018652 C100.291441,21.063929 100,19.8259627 100,18.4864621 C100,17.1650121 100.291441,15.936071 100.873599,14.7981348 C101.473113,13.6601986 102.328633,12.7433815 103.440157,12.0454272 C104.551681,11.348225 105.893177,11 107.463196,11 C109.050571,11 110.392066,11.3580024 111.48551,12.0732551 C112.597035,12.7704573 113.42652,13.6880265 113.973243,14.8259627 L109.84462,16.1195848 C109.297898,15.2020157 108.49517,14.7432311 107.436438,14.7432311 C106.572241,14.7432311 105.839661,15.0824308 105.240147,15.7615825 C104.640632,16.4399819 104.340513,17.3485259 104.340513,18.4864621 C104.340513,19.6236462 104.640632,20.5412154 105.240147,21.2384176 C105.839661,21.9356197 106.572241,22.2845969 107.436438,22.2845969 C107.965804,22.2845969 108.451056,22.1559868 108.892195,21.8987666 C109.333333,21.6234958 109.659487,21.2752708 109.871377,20.8533393 L114,22.1740373 C113.48799,23.293923 112.667906,24.2107401 111.539026,24.9267449 C110.426778,25.6419976 109.06865,26 107.463196,26" id="Fill-19" fill="#FFFFFF" fill-rule="nonzero"></path>
            <path d="M118.430857,17.165012 L124.51663,17.165012 C124.427648,16.2474428 124.097977,15.5224128 123.529077,14.9906739 C122.976952,14.4401324 122.292084,14.1648616 121.473743,14.1648616 C120.654673,14.1648616 119.961052,14.4401324 119.391423,14.9906739 C118.840027,15.5412154 118.519838,16.2662455 118.430857,17.165012 M121.526986,26 C119.943547,26 118.590586,25.6608003 117.469562,24.9816486 C116.349266,24.302497 115.485705,23.4037305 114.881066,22.2845969 C114.293932,21.1647112 114,19.9538207 114,18.6511733 C114,17.256769 114.293932,15.9811974 114.881066,14.8252106 C115.4682,13.6692238 116.32228,12.7426293 117.443304,12.0454272 C118.564329,11.348225 119.925314,11 121.526986,11 C123.110425,11 124.462657,11.348225 125.583682,12.0454272 C126.704707,12.7426293 127.550034,13.6601985 128.119664,14.7981348 C128.706798,15.9353189 129,17.1559868 129,18.4586342 C129,18.990373 128.964991,19.458935 128.893513,19.8620638 L118.537343,19.8620638 C118.60882,20.8345367 118.946514,21.5776173 119.551881,22.0920578 C120.174755,22.5869435 120.877856,22.8351384 121.660459,22.8351384 C122.283332,22.8351384 122.879218,22.6787004 123.448847,22.3665764 C124.018477,22.0552046 124.409414,21.6332732 124.623116,21.1007822 L128.253136,22.1469615 C127.701011,23.2841456 126.83818,24.2107401 125.663912,24.9267449 C124.507148,25.6419976 123.128659,26 121.526986,26" id="Fill-21" fill="#FFFFFF" fill-rule="nonzero"></path>
            <path d="M145,25 L140.573257,25 L140.573257,17.279906 C140.573257,16.373174 140.388778,15.7188681 140.01982,15.3177035 C139.669763,14.8986617 139.198736,14.6898559 138.609008,14.6898559 C138.000378,14.6898559 137.381919,14.916539 136.755144,15.369905 C136.128369,15.823271 135.685317,16.4082133 135.426743,17.1233017 L135.426743,25 L131,25 L131,11.2617223 L134.984447,11.2617223 L134.984447,13.5643069 C135.518983,12.7619777 136.275801,12.133415 137.253389,11.680049 C138.230977,11.226683 139.355997,11 140.628449,11 C141.568991,11 142.325809,11.1651854 142.897392,11.4969864 C143.487876,11.8109102 143.930172,12.2299519 144.225036,12.7533966 C144.538802,13.2589641 144.742183,13.8174481 144.834422,14.4281336 C144.944807,15.0388191 145,15.6316273 145,16.2072735 L145,25 Z" id="Fill-23" fill="#FFFFFF" fill-rule="nonzero"></path>
            <g id="Fill-25-Clipped" transform="translate(146, 11)">
                <mask id="mask-6" fill="white">
                    <use xlink:href="#path-5"></use>
                </mask>
                <g id="path-5"></g>
                <path d="M4.43068441,6.16501202 L10.5162203,6.16501202 C10.427242,5.24744283 10.0983138,4.52241274 9.52870646,3.99067388 C8.97660307,3.44013237 8.29176146,3.16486161 7.47345239,3.16486161 C6.65514325,3.16486161 5.96082036,3.44013237 5.39121303,3.99067388 C4.83983896,4.5412154 4.51966276,5.26624548 4.43068441,6.16501202 M7.5266935,15 C5.94331642,15 4.59113718,14.6608002 3.47015579,13.9816486 C2.3491744,13.302497 1.48564677,12.4037304 0.88103157,11.2845969 C0.293920299,10.1647112 0,8.9538207 0,7.65117325 C0,6.25676894 0.293920299,4.98119734 0.88103157,3.82521058 C1.46814283,2.66922382 2.32218916,1.74262936 3.44317055,1.04542719 C4.56415193,0.348225029 5.92508315,0 7.5266935,0 C9.11079992,0 10.4629792,0.348225029 11.5832312,1.04542719 C12.7049419,1.74262936 13.549507,2.66019855 14.1191143,3.79813477 C14.7062256,4.93531888 15.0001459,6.15598675 15.0001459,7.45863416 C15.0001459,7.99037306 14.9644086,8.45893497 14.8929343,8.86206372 L4.5371667,8.86206372 C4.60864111,9.83453666 4.94705059,10.5776173 5.55166579,11.0920578 C6.17451427,11.5869434 6.87758913,11.8351384 7.66016104,11.8351384 C8.28300954,11.8351384 8.87887279,11.6787003 9.44848011,11.3665764 C10.0180874,11.0552045 10.4090087,10.6332732 10.6227026,10.1007822 L14.2525819,11.1469614 C13.7012078,12.2841456 12.8384095,13.2107401 11.6634576,13.9267449 C10.506739,14.6419976 9.12830386,15 7.5266935,15" id="Fill-25" fill="#FFFFFF" fill-rule="nonzero" mask="url(#mask-6)"></path>
            </g>
        </g>
    </g>
</svg>