<?xml version="1.0" encoding="UTF-8"?>
<svg width="200px" height="100px" viewBox="0 0 200 100" version="1.1" xmlns="http://www.w3.org/2000/svg" xmlns:xlink="http://www.w3.org/1999/xlink">
    <title>Artboard</title>
    <g id="Artboard" stroke="none" stroke-width="1" fill="none" fill-rule="evenodd">
        <g id="gensyn" transform="translate(22, 23)" fill="#FFFFFF" fill-rule="nonzero">
            <path d="M29.9897348,34.1754289 L29.9897348,32.2923815 L27.9885942,32.2923815 L27.9885942,30.4093341 L26,30.4093341 L26,24.7660948 L27.9885942,24.7660948 L27.9885942,22.8830474 L29.9897348,22.8830474 L29.9897348,21 L45.9988594,21 L45.9988594,22.8830474 L41.9965783,22.8830474 L41.9965783,24.7660948 L43.9977188,24.7660948 L43.9977188,30.4093341 L41.9965783,30.4093341 L41.9965783,32.2923815 L39.9954377,32.2923815 L39.9954377,34.1754289 L29.996008,34.1754289 L29.9897348,34.1754289 Z M43.9977188,49.2280022 L43.9977188,45.4619074 L41.9965783,45.4619074 L41.9965783,43.57886 L29.9897348,43.57886 L29.9897348,41.7076185 L27.9885942,41.7076185 L27.9885942,39.8363771 L26,39.8363771 L26,36.0702822 L27.9885942,36.0702822 L27.9885942,34.1872348 L29.9897348,34.1872348 L29.9897348,37.9533296 L31.9908754,37.9533296 L31.9908754,39.8363771 L43.9977188,39.8363771 L43.9977188,41.7076185 L45.9988594,41.7076185 L45.9988594,43.57886 L48,43.57886 L48,47.3449548 L45.9988594,47.3449548 L45.9988594,49.2280022 L43.9977188,49.2280022 Z M29.9897348,52.994097 L29.9897348,51.1110496 L27.9885942,51.1110496 L27.9885942,49.2280022 L26,49.2280022 L26,45.4619074 L27.9885942,45.4619074 L27.9885942,43.57886 L29.9897348,43.57886 L29.9897348,49.2339052 L31.9908754,49.2339052 L31.9908754,51.1169526 L41.9903051,51.1169526 L41.9903051,53 L29.9834616,53 L29.9897348,52.994097 Z M38.0005703,32.2864785 L38.0005703,30.4034311 L39.9891645,30.4034311 L39.9891645,24.7601918 L38.0005703,24.7601918 L38.0005703,22.8771444 L31.9908754,22.8771444 L31.9908754,24.7601918 L29.9897348,24.7601918 L29.9897348,30.4034311 L31.9908754,30.4034311 L31.9908754,32.2864785 L38.0005703,32.2864785 Z M41.9965783,51.1110496 L41.9965783,49.2280022 L43.9977188,49.2280022 L43.9977188,51.1110496 L41.9965783,51.1110496 Z" id="Shape"></path>
            <path d="M51.9912171,41 L51.9912171,39.0114058 L49.9899624,39.0114058 L49.9899624,37.0102652 L47.9887077,37.0102652 L47.9887077,33.007984 L46,33.007984 L46,27.0108355 L47.9887077,27.0108355 L47.9887077,23.0022812 L49.9899624,23.0022812 L49.9899624,25.0034217 L61.9974906,25.0034217 L61.9974906,23.0022812 L59.9962359,23.0022812 L59.9962359,21.0011406 L51.9974906,21.0011406 L51.9974906,19 L61.9974906,19 L61.9974906,21.0011406 L63.9987453,21.0011406 L63.9987453,23.0022812 L66,23.0022812 L66,27.0108355 L49.9899624,27.0108355 L49.9899624,33.007984 L51.9912171,33.007984 L51.9912171,37.0102652 L53.9924718,37.0102652 L53.9924718,39.0114058 L61.9912171,39.0114058 L61.9912171,41 L51.9912171,41 Z M49.9899624,23.0022812 L49.9899624,21.0011406 L51.9912171,21.0011406 L51.9912171,23.0022812 L49.9899624,23.0022812 Z M61.9974906,39.0114058 L61.9974906,37.0102652 L63.9987453,37.0102652 L63.9987453,39.0114058 L61.9974906,39.0114058 Z M63.9987453,37.0102652 L63.9987453,35.0091246 L66,35.0091246 L66,37.0102652 L63.9987453,37.0102652 Z" id="Shape"></path>
            <path d="M69.0059978,41 L69.0059978,39.0943544 L70.9073064,39.0943544 L70.9073064,23.7530058 L69.0059978,23.7530058 L69.0059978,21.8353372 L70.9073064,21.8353372 L70.9073064,19.9176686 L72.8206107,19.9176686 L72.8206107,18 L74.7339149,18 L74.7339149,21.8353372 L76.6472192,21.8353372 L76.6472192,23.7530058 L74.7339149,23.7530058 L74.7339149,39.0943544 L76.6472192,39.0943544 L76.6472192,41 L69,41 L69.0059978,41 Z M83.3407852,41 L83.3407852,39.0943544 L85.2540894,39.0943544 L85.2540894,23.7530058 L83.3407852,23.7530058 L83.3407852,21.8353372 L76.653217,21.8353372 L76.653217,19.9176686 L85.2600872,19.9176686 L85.2600872,21.8353372 L87.1733915,21.8353372 L87.1733915,23.7530058 L89.0866957,23.7530058 L89.0866957,39.0943544 L91,39.0943544 L91,41 L83.3407852,41 L83.3407852,41 Z" id="Shape"></path>
            <path d="M95.9890196,41 L95.9890196,39.0114058 L94,39.0114058 L94,34.0054177 L95.9890196,34.0054177 L95.9890196,37.0102652 L97.9905882,37.0102652 L97.9905882,39.0114058 L104.001569,39.0114058 L104.001569,37.0102652 L106.003137,37.0102652 L106.003137,33.007984 L104.001569,33.007984 L104.001569,31.0068435 L99.9984314,31.0068435 L99.9984314,29.0057029 L95.9952941,29.0057029 L95.9952941,27.0171086 L94.0062745,27.0171086 L94.0062745,23.0085543 L95.9952941,23.0085543 L95.9952941,21.0074137 L97.9968627,21.0074137 L97.9968627,25.0096949 L99.9984314,25.0096949 L99.9984314,27.0108355 L104.001569,27.0108355 L104.001569,28.9994297 L107.998431,28.9994297 L107.998431,31.0005703 L110,31.0005703 L110,37.0102652 L107.998431,37.0102652 L107.998431,39.0114058 L106.009412,39.0114058 L106.009412,41 L95.9952941,41 L95.9890196,41 Z M106.99451,25.0034217 L106.99451,23.0022812 L105.00549,23.0022812 L105.00549,21.0011406 L97.9968627,21.0011406 L97.9968627,19 L107.000784,19 L107.000784,21.0011406 L109.002353,21.0011406 L109.002353,25.0034217 L107.000784,25.0034217 L106.99451,25.0034217 Z" id="Shape"></path>
            <path d="M118.577296,45.4619074 L118.577296,37.0029515 L116.666572,37.0029515 L116.666572,32.2923815 L114.755847,32.2923815 L114.755847,27.5936174 L112.857102,27.5936174 L112.857102,22.8830474 L110,22.8830474 L110,21 L119.535653,21 L119.535653,22.8830474 L116.666572,22.8830474 L116.666572,27.5936174 L118.577296,27.5936174 L118.577296,32.2923815 L120.488021,32.2923815 L120.488021,37.0029515 L122.398745,37.0029515 L122.398745,41.7017156 L120.488021,41.7017156 L120.488021,45.4619074 L118.577296,45.4619074 Z M110.952367,53 L110.952367,49.2339052 L116.666572,49.2339052 L116.666572,51.1169526 L114.755847,51.1169526 L114.755847,53 L110.952367,53 Z M116.666572,49.2339052 L116.666572,45.4678104 L118.577296,45.4678104 L118.577296,49.2339052 L116.666572,49.2339052 Z M122.404735,37.0088545 L122.404735,32.2982844 L124.315459,32.2982844 L124.315459,37.0088545 L122.404735,37.0088545 L122.404735,37.0088545 Z M126.220194,27.5995204 L126.220194,22.8889504 L123.363092,22.8889504 L123.363092,21.005903 L131,21.005903 L131,22.8889504 L128.130918,22.8889504 L128.130918,27.5995204 L126.220194,27.5995204 L126.220194,27.5995204 Z M124.321449,32.2982844 L124.321449,27.5995204 L126.220194,27.5995204 L126.220194,32.2982844 L124.321449,32.2982844 Z" id="Shape"></path>
            <path d="M134.005998,41 L134.005998,39.0943544 L135.907306,39.0943544 L135.907306,23.7530058 L134.005998,23.7530058 L134.005998,21.8353372 L135.907306,21.8353372 L135.907306,19.9176686 L137.820611,19.9176686 L137.820611,18 L139.733915,18 L139.733915,21.8353372 L141.647219,21.8353372 L141.647219,23.7530058 L139.733915,23.7530058 L139.733915,39.0943544 L141.647219,39.0943544 L141.647219,41 L134,41 L134.005998,41 Z M148.340785,41 L148.340785,39.0943544 L150.254089,39.0943544 L150.254089,23.7530058 L148.340785,23.7530058 L148.340785,21.8353372 L141.653217,21.8353372 L141.653217,19.9176686 L150.260087,19.9176686 L150.260087,21.8353372 L152.173391,21.8353372 L152.173391,23.7530058 L154.086696,23.7530058 L154.086696,39.0943544 L156,39.0943544 L156,41 L148.340785,41 Z" id="Shape"></path>
            <polygon id="Rectangle" transform="translate(20, 20) rotate(90) translate(-20, -20)" points="18 18 22 18 22 22 18 22"></polygon>
            <polygon id="Rectangle" transform="translate(17, 23) rotate(90) translate(-17, -23)" points="15 21 19 21 19 25 15 25"></polygon>
            <polygon id="Rectangle" transform="translate(5, 20) rotate(90) translate(-5, -20)" points="3 18 7 18 7 22 3 22"></polygon>
            <polygon id="Rectangle" transform="translate(9, 23) rotate(90) translate(-9, -23)" points="7 21 11 21 11 25 7 25"></polygon>
            <polygon id="Rectangle" transform="translate(13, 25) rotate(90) translate(-13, -25)" points="11 23 15 23 15 27 11 27"></polygon>
            <polygon id="Rectangle" transform="translate(5, 7) rotate(-90) translate(-5, -7)" points="3 5 7 5 7 9 3 9"></polygon>
            <polygon id="Rectangle" transform="translate(8, 4) rotate(-90) translate(-8, -4)" points="6 2 10 2 10 6 6 6"></polygon>
            <polygon id="Rectangle" transform="translate(20, 7) rotate(-90) translate(-20, -7)" points="18 5 22 5 22 9 18 9"></polygon>
            <polygon id="Rectangle" transform="translate(16, 4) rotate(-90) translate(-16, -4)" points="14 2 18 2 18 6 14 6"></polygon>
            <polygon id="Rectangle" transform="translate(12, 2) rotate(-90) translate(-12, -2)" points="10 4.07314527e-18 14 4.07314527e-18 14 4 10 4"></polygon>
            <rect id="Rectangle" x="0" y="9" width="4" height="10"></rect>
            <rect id="Rectangle" x="21" y="9" width="4" height="10"></rect>
        </g>
    </g>
</svg>