<?xml version="1.0" encoding="UTF-8"?>
<svg width="200px" height="100px" viewBox="0 0 200 100" version="1.1" xmlns="http://www.w3.org/2000/svg" xmlns:xlink="http://www.w3.org/1999/xlink">
    <title>Artboard</title>
    <g id="Artboard" stroke="none" stroke-width="1" fill="none" fill-rule="evenodd">
        <g id="jetbrains" transform="translate(67, 17)" fill="#FFFFFF" fill-rule="nonzero">
            <polygon id="Fill-1" points="29 28 32 28 30.507109 25"></polygon>
            <g id="Group-10">
                <path d="M12.81511,25.85 L12.79311,25.817 C12.79311,25.245 12.33111,24.937 11.49511,24.937 L10.07611,24.937 L10.07611,26.741 L11.45111,26.741 C12.30911,26.741 12.81511,26.444 12.81511,25.85" id="Fill-2"></path>
                <path d="M0,66 L66,66 L66,0 L0,0 L0,66 Z M55.8470001,32.978 C54.0936,33.0528 52.3731999,32.4852 51.0069999,31.383 L52.5909999,29.48 C53.5194,30.2555 54.6821001,30.6944 55.8909999,30.723 C56.6720001,30.723 57.0789999,30.448 57.0789999,30.008 C57.0789999,29.557 56.7489999,29.337 55.3299999,29.007 C53.13,28.501 51.447,27.907 51.447,25.784 C51.447,23.87 52.965,22.484 55.44,22.484 C56.9700999,22.4268 58.4705001,22.9141 59.6750001,23.859 L58.2999999,25.817 C57.4683999,25.1878 56.4608001,24.8347 55.4180001,24.805 C54.7250001,24.805 54.384,25.08 54.384,25.465 C54.384,25.938 54.7359999,26.147 56.1770001,26.466 C58.542,26.983 60.0050001,27.753 60.0050001,29.678 C60.0050001,31.779 58.344,32.978 55.8470001,32.978 L55.8470001,32.978 Z M50.5340001,32.912 L48.0369999,32.912 L44.154,27.258 L44.154,32.912 L41.316,32.912 L41.316,22.605 L44.0000001,22.605 L47.7069999,28.105 L47.7069999,22.605 L50.5340001,22.605 L50.5340001,32.912 Z M33.88,32.945 L33.143,31.086 L29.15,31.086 L28.413,33 L26.169,33 L25.432,33 L22.869,33 L20.79,29.876 L19.833,29.876 L19.833,33 L16.973,33 L16.995,22.638 L21.56,22.638 C22.781,22.539 23.9899,22.935 24.915,23.738 C25.5398,24.376 25.8698,25.245 25.828,26.136 C25.8687,27.5396 25.0173,28.8145 23.705,29.315 L25.7158,32.3224 L29.799,22.561 L32.549,22.561 L36.949,32.945 L33.88,32.945 Z M6.14900001,17.017 L7.986,15.279 C8.34020001,15.8389 8.94189999,16.1942 9.603,16.236 C10.307,16.236 10.769,15.741 10.769,14.784 L10.769,8.27199999 L13.607,8.27199999 L13.607,14.806 C13.6928,15.8697 13.3254,16.9202 12.595,17.699 C11.8415,18.4349 10.8207,18.832 9.768,18.799 C8.33799999,18.8562 6.97509999,18.1863 6.14900001,17.017 L6.14900001,17.017 Z M16.082,30.041 C16.082,31.9 14.641,33 12.177,33 L7.293,33 L7.293,22.638 L12.155,22.638 C13.1747,22.5544 14.1845,22.8833 14.96,23.551 C15.4022,23.9943 15.6442,24.5971 15.631,25.223 C15.6475,26.2526 15.0062,27.1777 14.036,27.522 C15.2449,27.7442 16.1128,28.8123 16.082,30.041 L16.082,30.041 Z M14.883,8.27199999 L23.166,8.27199999 L23.166,10.681 L17.666,10.681 L17.666,12.254 L22.605,12.254 L22.605,14.454 L17.71,14.454 L17.71,16.093 L23.21,16.093 L23.21,18.513 L14.85,18.513 L14.883,8.27199999 Z M31.933,53.625 L31.933,57.75 L7.18299999,57.75 L7.18299999,53.625 L31.933,53.625 Z M40.26,22.605 L40.26,32.912 L37.4,32.912 L37.4,22.605 L40.26,22.605 Z M33.154,8.27199999 L33.154,10.769 L30.063,10.769 L30.063,18.568 L27.203,18.568 L27.203,10.769 L24.123,10.769 L24.123,8.27199999 L33.154,8.27199999 Z" id="Fill-4"></path>
                <path d="M21.38389,25.113 L19.85489,25.113 L19.85489,27.61 L21.39489,27.588 C22.35189,27.588 22.93489,27.115 22.93489,26.356 C22.93489,25.531 22.32989,25.113 21.38389,25.113" id="Fill-6"></path>
                <path d="M11.825,28.743 L11.803,28.743 L10.076,28.743 L10.076,30.646 L11.858,30.646 C12.738,30.646 13.222,30.305 13.222,29.7 C13.2,29.117 12.782,28.743 11.825,28.743" id="Fill-8"></path>
            </g>
        </g>
    </g>
</svg>