<?xml version="1.0" encoding="UTF-8"?>
<svg width="200px" height="100px" viewBox="0 0 200 100" version="1.1" xmlns="http://www.w3.org/2000/svg" xmlns:xlink="http://www.w3.org/1999/xlink">
    <title>Artboard</title>
    <g id="Artboard" stroke="none" stroke-width="1" fill="none" fill-rule="evenodd">
        <g id="type=full-white" transform="translate(6, 35)" fill="#FFFFFF" fill-rule="nonzero">
            <polygon id="Path" points="3 3 8 3 8 11 3 11"></polygon>
            <polygon id="Path" points="3 11 8 11 8 19 3 19"></polygon>
            <polygon id="Path" points="3 27 8 27 8 19 3 19"></polygon>
            <polygon id="Path" points="17 27 25 27 25 19 17 19"></polygon>
            <polygon id="Path" points="25 27 28 27 28 19 25 19"></polygon>
            <polygon id="Path" points="17 11 28 11 28 3 17 3"></polygon>
            <polygon id="Path" points="8 11 8 19 16 18.9969957"></polygon>
            <polygon id="Path" points="8 11 16 11 8.01100561 19"></polygon>
            <path d="M29.5696657,30 L0,30 L0,0 L30,0 L30,30 L29.5696657,30 Z M29.5696657,29.1415957 L29.5696657,29.5710066 L29.139436,29.5710066 L29.139436,0.429471465 L29.5696657,0.429471465 L29.5696657,0.858943973 L0.430290375,0.858943973 L0.430290375,0.429471465 L0.860581797,0.429471465 L0.860581797,29.5710066 L0.430290375,29.5710066 L0.430290375,29.1415957 L29.5696657,29.1415957 Z" id="Shape"></path>
            <polygon id="Path" points="46.7735989 15.4803498 43.6274283 18.7940705 43.6274283 23 42 23 42 7 43.6274283 7 43.6274283 16.6690051 52.6674925 7 54.5377519 7 47.872729 14.2451555 55 23 53.0636906 23"></polygon>
            <polygon id="Path" points="74 21.5367862 74 23 63 23 63 7 73.6664883 7 73.6664883 8.46319254 64.6439061 8.46319254 64.6439061 14.1544152 72.6873333 14.1544152 72.6873333 15.5931908 64.6439061 15.5931908 64.6439061 21.5367862"></polygon>
            <polygon id="Path" points="89.8063104 17.468136 89.8063104 23 88.1936896 23 88.1936896 17.468136 82 7 83.7475971 7 89.0546381 15.9828215 94.3637352 7 96 7"></polygon>
            <path d="M115.262562,23 L111.827603,17.8577667 C111.441395,17.9036681 111.040218,17.9264063 110.626067,17.9264063 L106.588344,17.9264063 L106.588344,23 L105,23 L105,7 L110.626067,7 C112.543137,7 114.045058,7.48809565 115.133826,8.46319254 C116.221596,9.43884195 116.765481,10.7797051 116.765481,12.4852826 C116.765481,13.7354586 116.46809,14.7914036 115.87331,15.6530114 C115.279527,16.5135566 114.432264,17.1338632 113.330522,17.5146749 L117,23 L115.262562,23 Z M110.582157,16.4852932 C112.071104,16.4852932 113.208772,16.1349762 113.996158,15.4338109 C114.782546,14.733283 115.176738,13.7504403 115.176738,12.4852826 C115.176738,11.1898427 114.782546,10.1959496 113.996158,9.50359269 C113.208772,8.81018384 112.071104,8.46319254 110.582157,8.46319254 L106.588344,8.46319254 L106.588344,16.4852932 L110.582157,16.4852932 Z" id="Shape"></path>
            <path d="M133.511288,23 C131.907291,23 130.453804,22.630069 129.150825,21.890096 C127.847847,21.150234 126.830835,20.1362257 126.097641,18.8471832 C125.365522,17.5569198 125,16.1082731 125,14.5000222 C125,12.8924372 125.365522,11.4443455 126.097641,10.155192 C126.830835,8.8649397 127.847847,7.8498437 129.150825,7.109904 C130.453804,6.3699754 131.907291,6 133.511288,6 C135.115285,6 136.560172,6.3665014 137.847025,7.0983499 C139.133877,7.83076445 140.147663,8.84587155 140.888383,10.143649 C141.629103,11.4402389 142,12.8924372 142,14.5000222 C142,16.1082731 141.629103,17.5609154 140.888383,18.8587262 C140.147663,20.155316 139.133877,21.1698793 137.847025,21.901639 C136.560172,22.6340647 135.115285,23 133.511288,23 Z M133.511288,21.4230484 C134.790615,21.4230484 135.94631,21.1247062 136.980522,20.5281328 C138.01366,19.9315594 138.822108,19.1050139 139.408019,18.0470534 C139.993929,16.988094 140.286347,15.8059352 140.286347,14.5000222 C140.286347,13.1947751 139.993929,12.0131713 139.408019,10.9552108 C138.822108,9.8962514 138.01366,9.0684295 136.980522,8.4718561 C135.94631,7.8741284 134.790615,7.5746763 133.511288,7.5746763 C132.230886,7.5746763 131.070891,7.8741284 130.030228,8.4718561 C128.989566,9.0684295 128.172516,9.8962514 127.578005,10.9552108 C126.985645,12.0131713 126.688927,13.1947751 126.688927,14.5000222 C126.688927,15.8059352 126.985645,16.988094 127.578005,18.0470534 C128.172516,19.1050139 128.989566,19.9315594 130.030228,20.5281328 C131.070891,21.1247062 132.230886,21.4230484 133.511288,21.4230484 Z" id="Shape"></path>
            <path d="M159.224295,23 C157.665722,23 156.260707,22.6340647 155.010297,21.901639 C153.759887,21.1698793 152.777944,20.155316 152.066557,18.8587262 C151.355171,17.5609154 151,16.1082731 151,14.5000222 C151,12.8924372 151.355171,11.4402389 152.066557,10.143649 C152.777944,8.84587155 153.764065,7.83076445 155.021788,7.0983499 C156.280555,6.3665014 157.689748,6 159.248321,6 C160.415162,6 161.494255,6.20752985 162.482465,6.6220124 C163.470676,7.03534065 164.310551,7.6394281 165,8.4348519 L163.944934,9.5562878 C162.715416,8.23542435 161.164155,7.5746763 159.291151,7.5746763 C158.048053,7.5746763 156.916729,7.8775913 155.898224,8.4834102 C154.879719,9.0880859 154.08163,9.9158967 153.504999,10.9668648 C152.928369,12.016612 152.641098,13.1947751 152.641098,14.5000222 C152.641098,15.8059352 152.928369,16.9845423 153.504999,18.0355104 C154.08163,19.0852576 154.879719,19.91258 155.898224,20.5165898 C156.916729,21.1212655 158.048053,21.4230484 159.291151,21.4230484 C161.178779,21.4230484 162.73004,20.7547752 163.944934,19.4182288 L165,20.5397868 C164.310551,21.3369198 163.467542,21.9468121 162.470974,22.3687976 C161.475451,22.7895622 160.393225,23 159.224295,23 Z" id="Path"></path>
            <polygon id="Path" points="179.773653 15.4803498 176.627684 18.7940705 176.627684 23 175 23 175 7 176.627684 7 176.627684 16.6690051 185.667873 7 187.537869 7 180.872749 14.2451555 188 23 186.063547 23"></polygon>
        </g>
    </g>
</svg>