<?xml version="1.0" encoding="UTF-8"?>
<svg width="200px" height="100px" viewBox="0 0 200 100" version="1.1" xmlns="http://www.w3.org/2000/svg" xmlns:xlink="http://www.w3.org/1999/xlink">
    <title>Artboard</title>
    <defs>
        <polygon id="path-1" points="0 0 121 0 121 40 0 40"></polygon>
        <polygon id="path-3" points="0 0 121 0 121 40 0 40"></polygon>
        <polygon id="path-5" points="0 0 121 0 121 40 0 40"></polygon>
    </defs>
    <g id="Artboard" stroke="none" stroke-width="1" fill="none" fill-rule="evenodd">
        <g id="neo4j" transform="translate(40, 30)">
            <path d="M21.9996889,8 C15.4174233,8 11,11.855875 11,19.3415823 L11,24.675814 C11.6459058,24.3652401 12.3664828,24.1861592 13.1287512,24.1861592 C13.9009758,24.1861592 14.6296422,24.3696232 15.2823929,24.6864587 L15.2823929,19.3415823 C15.2823929,14.4869868 17.9425541,11.9917511 21.9996889,11.9917511 C26.0568236,11.9917511 28.7169849,14.4869868 28.7169849,19.3415823 L28.7169849,31 L33,31 L33,19.3415823 C33,11.8107917 28.5819545,8 21.9996889,8" id="Fill-1" fill="#FFFFFE" fill-rule="nonzero"></path>
            <path d="M55.4717571,18.2881563 C54.6117347,14.7942613 51.667908,12.8919414 48.0453137,12.8919414 C44.332092,12.8919414 41.5245189,14.8382173 40.6644965,18.2881563 L55.4717571,18.2881563 Z M36,20.5 C36,13.8656899 40.9813797,9 48.0453137,9 C55.1092476,9 60,13.8656899 60,20.5 L60,22.047619 L40.5288679,22.047619 C41.1620094,25.9401709 44.1508373,28.1074481 48.0453137,28.1074481 C50.9435142,28.1074481 52.9810672,27.2228327 54.2942264,25.3211233 L59.0487252,25.3211233 C57.3280554,29.3901099 53.2529493,32 48.0453137,32 C40.9813797,32 36,27.1349206 36,20.5 L36,20.5 Z" id="Fill-2" fill="#FFFFFE" fill-rule="nonzero"></path>
            <path d="M81.6693649,20.5 C81.6693649,16.0775336 78.6014944,12.8925519 73.9993773,12.8925519 C69.3985056,12.8925519 66.3306351,16.0775336 66.3306351,20.5 C66.3306351,24.9230769 69.3985056,28.1080586 73.9993773,28.1080586 C78.6014944,28.1080586 81.6693649,24.9230769 81.6693649,20.5 Z M62,20.5 C62,13.8663004 66.9626401,9 73.9993773,9 C81.0373599,9 86,13.8663004 86,20.5 C86,27.1355311 81.0373599,32 73.9993773,32 C66.9626401,32 62,27.1355311 62,20.5 L62,20.5 Z" id="Fill-3" fill="#FFFFFE" fill-rule="nonzero"></path>
            <path d="M110,36.332716 L110.52045,36.332716 C113.410389,36.332716 114.499673,35.1246914 114.499673,31.9944444 L114.499673,10 L119,10 L119,31.7265432 C119,37.1820988 116.725972,40 110.946749,40 L110,40 L110,36.332716" id="Fill-4" fill="#FFFFFE" fill-rule="nonzero"></path>
            <g id="Group-9">
                <g id="Fill-5-Clipped">
                    <mask id="mask-2" fill="white">
                        <use xlink:href="#path-1"></use>
                    </mask>
                    <g id="path-1"></g>
                    <path d="M92.7588165,22.6916098 C92.6313817,22.8692986 92.5570447,23.08703 92.5570447,23.3222799 C92.5570447,23.9222924 93.0380487,24.4059313 93.6371174,24.4059313 L104.404736,24.4059313 L104.404736,10.5824939 C104.403487,9.86798473 103.885002,9.60770819 103.656994,9.53262842 C103.572037,9.50509917 103.425862,9.47882125 103.268442,9.47882125 C103.006076,9.47882125 102.681243,9.57079397 102.414504,9.9324282 L92.7606906,22.6878558 L92.7588165,22.6916098 Z M108.704413,33.5387599 L104.404736,33.5387599 L104.404736,28.226866 L93.5028111,28.226866 C91.3270487,28.226866 89.439264,27.1582306 88.5753308,25.4401552 C87.7669942,23.8321967 87.9868817,21.9251705 89.1625305,20.3372333 L98.9606451,7.47919665 C100.371799,5.57404743 102.740587,4.82012138 104.989437,5.56278546 C107.240161,6.30357255 108.697541,8.31633611 108.704413,10.6888569 L108.704413,24.4059313 L111.937759,24.4059313 L111.937759,28.226866 L108.704413,28.226866 L108.704413,33.5387599 L108.704413,33.5387599 Z" id="Fill-5" fill="#FFFFFE" fill-rule="nonzero" mask="url(#mask-2)"></path>
                </g>
                <g id="Fill-7-Clipped">
                    <mask id="mask-4" fill="white">
                        <use xlink:href="#path-3"></use>
                    </mask>
                    <g id="path-1"></g>
                    <path d="M117.320007,0 C115.29042,0 113.639389,1.65363198 113.639389,3.68579115 C113.639389,5.71857599 115.29042,7.37220797 117.320007,7.37220797 C119.349594,7.37220797 121.000625,5.71857599 121.000625,3.68579115 C121.000625,1.65363198 119.349594,0 117.320007,0" id="Fill-7" fill="#FFFFFE" fill-rule="nonzero" mask="url(#mask-4)"></path>
                </g>
                <g id="Fill-8-Clipped">
                    <mask id="mask-6" fill="white">
                        <use xlink:href="#path-5"></use>
                    </mask>
                    <g id="path-1"></g>
                    <path d="M13.442501,25.9212914 C12.6123005,25.9212914 11.8476915,26.2015892 11.2311318,26.6677094 L7.18257709,23.8978915 C7.27190641,23.5800538 7.32313022,23.2465745 7.32313022,22.9005819 C7.32313022,20.8684227 5.67209949,19.2147907 3.64251235,19.2147907 C1.61354989,19.2147907 -0.0374808337,20.8684227 -0.0374808337,22.9005819 C-0.0374808337,24.9333667 1.61354989,26.586373 3.64251235,26.586373 C4.4733375,26.586373 5.2379465,26.3060752 5.85450622,25.839955 L9.90306093,28.6103985 C9.81373161,28.9282363 9.76250781,29.2617156 9.76250781,29.6077082 C9.76250781,29.9530751 9.81373161,30.2865545 9.90306093,30.6037665 L5.85450622,33.3748358 C5.2379465,32.9080898 4.4733375,32.6284177 3.64251235,32.6284177 C1.61354989,32.6284177 -0.0374808337,34.2807983 -0.0374808337,36.3135832 C-0.0374808337,38.346368 1.61354989,40 3.64251235,40 C5.67209949,40 7.32313022,38.346368 7.32313022,36.3135832 C7.32313022,35.9682162 7.27190641,35.6347369 7.18257709,35.3175249 L11.2311318,32.5464556 C11.8476915,33.0132015 12.6123005,33.2934993 13.442501,33.2934993 C15.4720881,33.2934993 17.1231189,31.640493 17.1231189,29.6077082 C17.1231189,27.5749234 15.4720881,25.9212914 13.442501,25.9212914" id="Fill-8" fill="#FFFFFE" fill-rule="nonzero" mask="url(#mask-6)"></path>
                </g>
            </g>
        </g>
    </g>
</svg>