<?xml version="1.0" encoding="UTF-8"?>
<svg width="200px" height="100px" viewBox="0 0 200 100" version="1.1" xmlns="http://www.w3.org/2000/svg" xmlns:xlink="http://www.w3.org/1999/xlink">
    <title>Artboard</title>
    <defs>
        <polygon id="path-1" points="3.76500072e-16 82 82 82 82 0 3.76500072e-16 0"></polygon>
    </defs>
    <g id="Artboard" stroke="none" stroke-width="1" fill="none" fill-rule="evenodd">
        <g id="no_starch" transform="translate(59, 8)">
            <g id="g8" transform="translate(41, 41) scale(-1, 1) rotate(-180) translate(-41, -41)translate(-0, 0)">
                <g id="g10" transform="translate(0, 0)">
                    <g id="g12-Clipped" transform="translate(-0, 0)">
                        <g transform="translate(0, 0)">
                            <mask id="mask-2" fill="white">
                                <use xlink:href="#path-1"></use>
                            </mask>
                            <g id="path-1"></g>
                            <g id="g12" mask="url(#mask-2)">
                                <g transform="translate(4.5372, 4.5546)" id="Group">
                                    <g transform="translate(-0, 0)">
                                        <g id="g18" stroke="#FFFFFF" stroke-width="5">
                                            <path d="M36.4446257,0 C16.3170884,0 0,16.3163596 0,36.444079 C0,56.5716163 16.3170884,72.8881582 36.4446257,72.8881582 C56.5723453,72.8881582 72.8887049,56.5716163 72.8887049,36.444079 C72.8887049,16.3163596 56.5723453,0 36.4446257,0 Z" id="path20"></path>
                                        </g>
                                        <g id="g22" transform="translate(38.1703, 41.8345)" fill="#FFFFFF" fill-rule="nonzero">
                                            <polygon id="path24" points="2.7377066 9.33415088 4.14992879 10.0234975 4.11147989 6.44465317 6.56856428 8.88697755 7.06147537 7.29836426 4.52002211 5.09402209 6.2135954 3.12456437 5.09128876 1.43026219 3.56025769 3.68380435 2.15587106 0 0.98363553 0.573817763 2.57971993 4.14683101 -1.16934995e-17 3.85618657 0.413826656 5.89015097 2.9213866 5.86682652"></polygon>
                                        </g>
                                        <g id="g26" transform="translate(20.8817, 31.213)" fill="#FFFFFF" fill-rule="nonzero">
                                            <path d="M20.0998395,29.0750126 C21.6926439,28.2777903 25.9098126,22.3710573 26.0874793,16.4182218 C26.1545371,14.2197107 26.144515,12.1254308 25.7086393,8.895542 C24.3049816,7.18010204 19.1533773,3.65246214 14.9635419,2.48623993 C14.4307241,3.99613324 14.2297329,6.35080873 14.0739329,9.4786531 C13.5511374,19.8662306 18.4348751,27.9268305 20.0998395,29.0750126 M3.77783102,12.0153686 C4.03913767,13.0740797 4.01526657,13.8262929 3.61000435,14.4166929 C3.2748977,14.9050486 3.0288977,15.2299507 2.23149328,15.3706263 C3.0288977,15.5165863 3.2748977,15.8383907 3.61000435,16.3265641 C4.01526657,16.9155063 4.03913767,17.6679018 3.77783102,18.7264306 C3.49939547,19.8525639 4.79517766,20.4307551 6.52975095,19.6953061 C5.8272843,16.9506751 5.68660875,13.7827419 6.04194207,10.8682797 C4.56011099,10.4258442 3.52618214,10.9971108 3.77783102,12.0153686 M27.6768215,16.5621774 C27.3504615,24.2935016 21.334395,31.2044615 19.8970261,31.2569415 C15.2567374,28.9669548 9.53915087,26.9402793 7.41097759,22.2635461 C7.28524426,21.9867506 7.16898649,21.6988395 7.05874204,21.4050973 C6.64783095,21.8333195 6.16694652,22.3014483 5.4229332,22.5255816 C2.19103995,23.504115 -0.722511092,20.8001195 0.80195998,18.4354218 C1.3081733,17.6505906 1.23127553,16.0725463 0.00127555552,15.4615552 L8.9859026e-13,15.2817019 C1.23127553,14.6687063 1.3081733,13.0926663 0.80195998,12.3071064 C-0.722511092,9.9462353 2.19103995,7.23968871 5.4229332,8.21548868 C5.81288875,8.33393313 6.12904429,8.52016423 6.40237762,8.73117756 C6.65311539,7.58700426 6.98202649,6.51407984 7.39439537,5.5721732 C8.56535535,4.61696433 11.8643064,0.825831091 13.2812663,0 C17.0723996,0.365537769 25.5174883,5.46466208 27.2132482,8.3813109 C27.7888882,12.1884797 27.7757682,14.2488663 27.6768215,16.5621774" id="path28"></path>
                                        </g>
                                        <g id="g30" transform="translate(13.3186, 20.8246)" fill="#FFFFFF" fill-rule="nonzero">
                                            <path d="M0,5.21009765 L1.54360441,5.21009765 L1.54360441,4.50216433 L1.56547107,4.50216433 C1.77994663,4.91015988 2.30511105,5.33947543 3.0879377,5.33947543 C4.71718654,5.33947543 5.01712431,4.26673322 5.01712431,2.8730977 L5.01712431,0 L3.40901325,0 L3.40901325,2.55129327 C3.40901325,3.15226215 3.39844435,3.92360879 2.57261326,3.92360879 C1.73675996,3.92360879 1.60865774,3.27034214 1.60865774,2.5950266 L1.60865774,0 L0,0 L0,5.21009765 Z" id="path32"></path>
                                        </g>
                                        <g id="g34" transform="translate(19.3121, 20.6965)" fill="#FFFFFF" fill-rule="nonzero">
                                            <path d="M2.89423548,1.41495552 C3.6981999,1.41495552 4.18054212,1.95087106 4.18054212,2.73315105 C4.18054212,3.51579547 3.6981999,4.05189324 2.89423548,4.05189324 C2.08954218,4.05189324 1.60738218,3.51579547 1.60738218,2.73315105 C1.60738218,1.95087106 2.08954218,1.41495552 2.89423548,1.41495552 M2.89423548,5.46757765 C4.50216433,5.46757765 5.78774208,4.39501767 5.78774208,2.73315105 C5.78774208,1.07128442 4.50216433,0 2.89423548,0 C1.28630663,0 0,1.07128442 0,2.73315105 C0,4.39501767 1.28630663,5.46757765 2.89423548,5.46757765" id="path36"></path>
                                        </g>
                                        <g id="g38" transform="translate(28.3717, 20.6965)" fill="#FFFFFF" fill-rule="nonzero">
                                            <path d="M3.25831547,3.80571102 C3.02343103,4.0950799 2.71237771,4.24431989 2.32624883,4.24431989 C2.05838218,4.24431989 1.73657773,4.12696879 1.73657773,3.81573324 C1.73657773,3.04493325 4.44913767,3.69838214 4.44913767,1.71471107 C4.44913767,0.386128879 3.16210215,0 2.04708439,0 C1.31855997,0 0.514595543,0.181675551 0,0.707933316 L0.975799975,1.78978663 C1.27628441,1.42552441 1.62906663,1.22198219 2.1119555,1.22198219 C2.47621771,1.22198219 2.84047993,1.31892441 2.84047993,1.59754218 C2.84047993,2.4333955 0.129195552,1.72546218 0.129195552,3.70822214 C0.129195552,4.93166209 1.22252886,5.46757765 2.31567995,5.46757765 C3.00156437,5.46757765 3.76252435,5.2950132 4.24541322,4.78041766 L3.25831547,3.80571102 Z" id="path40"></path>
                                        </g>
                                        <g id="g42" transform="translate(33.5619, 20.6966)" fill="#FFFFFF" fill-rule="nonzero">
                                            <path d="M4.05171101,4.05171101 L2.6367555,4.05171101 L2.6367555,2.31513328 C2.6367555,1.75789773 2.70107993,1.35135997 3.39771547,1.35135997 C3.56955102,1.35135997 3.91249324,1.37176886 4.05171101,1.50041774 L4.05171101,0.160537774 C3.6981999,0.0324355547 3.30150214,0 2.92612437,0 C1.85465773,0 1.02882664,0.439884434 1.02882664,1.57549329 L1.02882664,4.05171101 L7.53633167e-19,4.05171101 L7.53633167e-19,5.33819986 L1.02882664,5.33819986 L1.02882664,6.88107539 L2.6367555,6.88107539 L2.6367555,5.33819986 L4.05171101,5.33819986 L4.05171101,4.05171101 Z" id="path44"></path>
                                        </g>
                                        <g id="g46" transform="translate(38.4714, 20.6966)" fill="#FFFFFF" fill-rule="nonzero">
                                            <path d="M3.13039548,2.41134661 C2.63693774,2.41134661 1.54360441,2.36888883 1.54360441,1.66113774 C1.54360441,1.27573775 1.95087106,1.09315108 2.30456438,1.09315108 C2.93669327,1.09315108 3.52636435,1.42552441 3.52636435,2.06822218 L3.52636435,2.41134661 L3.13039548,2.41134661 Z M3.52636435,0.782097758 L3.50522658,0.782097758 C3.15080437,0.225408883 2.5088355,0 1.85465773,0 C0.879039978,0 0,0.55705332 0,1.60738218 C0,3.40828435 2.18703106,3.44017325 3.52636435,3.44017325 C3.52636435,4.00870657 3.05477325,4.37351544 2.49753771,4.37351544 C1.97273773,4.37351544 1.53285329,4.13735546 1.1900933,3.75195546 L0.332373325,4.63026656 C0.922044422,5.18731988 1.77903551,5.46739541 2.6261866,5.46739541 C4.50216433,5.46739541 5.00564433,4.51218656 5.00564433,2.77688438 L5.00564433,0.128102219 L3.52636435,0.128102219 L3.52636435,0.782097758 Z" id="path48"></path>
                                        </g>
                                        <g id="g50" transform="translate(44.6473, 20.8246)" fill="#FFFFFF" fill-rule="nonzero">
                                            <path d="M0,5.21009765 L1.60792884,5.21009765 L1.60792884,4.37424434 L1.62924884,4.37424434 C1.97291995,5.00564433 2.42264438,5.33947543 3.1305777,5.33947543 C3.31225325,5.33947543 3.51652435,5.32744876 3.66649324,5.28571986 L3.66649324,3.81646212 C3.44090214,3.88060435 3.21549325,3.92360879 2.9804266,3.92360879 C1.75789773,3.92360879 1.60792884,3.2167688 1.60792884,2.17646216 L1.60792884,0 L0,0 L0,5.21009765 Z" id="path52"></path>
                                        </g>
                                        <g id="g54" transform="translate(48.7961, 20.6965)" fill="#FFFFFF" fill-rule="nonzero">
                                            <path d="M3.68763102,3.6546488 C3.52636435,3.88078657 3.2266088,4.05189324 2.89423548,4.05189324 C2.09081773,4.05189324 1.60865774,3.51579547 1.60865774,2.73315105 C1.60865774,1.95087106 2.09081773,1.41495552 2.89423548,1.41495552 C3.24847547,1.41495552 3.50577325,1.59754218 3.68763102,1.81183551 L4.74816433,0.696088872 C4.24559546,0.181675551 3.50577325,0 2.89423548,0 C1.2868533,0 0,1.07128442 0,2.73315105 C0,4.39483544 1.2868533,5.46757765 2.89423548,5.46757765 C3.50577325,5.46757765 4.24559546,5.28499098 4.74816433,4.77039544 L3.68763102,3.6546488 Z" id="path56"></path>
                                        </g>
                                        <g id="g58" transform="translate(54.5541, 20.8246)" fill="#FFFFFF" fill-rule="nonzero">
                                            <path d="M1.60792884,6.75315539 L1.60792884,4.50216433 L1.62924884,4.50216433 C1.77976439,4.91034209 2.30511105,5.33947543 3.08720882,5.33947543 C4.71663988,5.33947543 5.01639543,4.26673322 5.01639543,2.8730977 L5.01639543,0 L3.40901325,0 L3.40901325,2.55129326 C3.40901325,3.15226215 3.39844435,3.92379101 2.57261326,3.92379101 C1.73675996,3.92379101 1.60792884,3.27052437 1.60792884,2.59520883 L1.60792884,0 L0,0 L0,6.75315539 L1.60792884,6.75315539 Z" id="path60"></path>
                                        </g>
                                        <g id="g62" transform="translate(23.1292, 8.989)" fill="#FFFFFF" fill-rule="nonzero">
                                            <path d="M2.76613326,2.82972882 C3.57009769,2.82972882 4.0524399,3.36564437 4.0524399,4.14792434 C4.0524399,4.92983988 3.57009769,5.46666653 2.76613326,5.46666653 C1.96143995,5.46666653 1.47927996,4.92983988 1.47927996,4.14792434 C1.47927996,3.36564437 1.96143995,2.82972882 2.76613326,2.82972882 M-1.32467453e-16,6.75279094 L1.47927996,6.75279094 L1.47927996,6.06708873 L1.50114663,6.06708873 C1.74714663,6.44100873 2.36870661,6.88216872 3.09850658,6.88216872 C4.64156433,6.88216872 5.65963986,5.7666043 5.65963986,4.19183989 C5.65963986,2.7442666 4.75946211,1.41495552 3.28018214,1.41495552 C2.61616438,1.41495552 1.99460439,1.59644884 1.62979551,2.10083995 L1.60792884,2.10083995 L1.60792884,0 L-1.32467453e-16,0 L-1.32467453e-16,6.75279094 Z" id="path64"></path>
                                        </g>
                                        <g id="g66" transform="translate(29.7873, 10.5317)" fill="#FFFFFF" fill-rule="nonzero">
                                            <path d="M0,5.21009765 L1.60865774,5.21009765 L1.60865774,4.37442656 L1.62924884,4.37442656 C1.97291995,5.00582654 2.42264438,5.33947543 3.13039548,5.33947543 C3.31225325,5.33947543 3.51652435,5.32763098 3.66649324,5.28571986 L3.66649324,3.81646212 C3.4414488,3.88078657 3.2158577,3.92379101 2.9804266,3.92379101 C1.75862663,3.92379101 1.60865774,3.2167688 1.60865774,2.17682661 L1.60865774,0 L0,0 L0,5.21009765 Z" id="path68"></path>
                                        </g>
                                        <g id="g70" transform="translate(33.8829, 10.4041)" fill="#FFFFFF" fill-rule="nonzero">
                                            <path d="M3.73063547,3.32263992 C3.74065769,3.85855546 3.32282214,4.30882656 2.74353771,4.30882656 C2.03724439,4.30882656 1.65111551,3.82666657 1.60792884,3.32263992 L3.73063547,3.32263992 Z M5.09201765,1.02919109 C4.57778656,0.375013324 3.73063547,0 2.8935066,0 C1.28612441,0 0,1.07128442 0,2.73296882 C0,4.39465322 1.28612441,5.4672132 2.8935066,5.4672132 C4.39483544,5.4672132 5.33801765,4.39465322 5.33801765,2.73296882 L5.33801765,2.22857773 L1.60792884,2.22857773 C1.73603106,1.61886218 2.19759995,1.22179997 2.81915993,1.22179997 C3.3446888,1.22179997 3.6981999,1.48966663 3.96624879,1.85374663 L5.09201765,1.02919109 Z" id="path72"></path>
                                        </g>
                                        <g id="g74" transform="translate(39.9732, 10.404)" fill="#FFFFFF" fill-rule="nonzero">
                                            <path d="M3.2584977,3.80498212 C3.02306658,4.09471546 2.71255993,4.24413767 2.32661328,4.24413767 C2.05783551,4.24413767 1.73675996,4.12678656 1.73675996,3.81500435 C1.73675996,3.04475103 4.44859101,3.6981999 4.44859101,1.71471107 C4.44859101,0.385764435 3.16246658,0 2.04726661,0 C1.31819552,0 0.514048876,0.181493329 0,0.707568871 L0.975982197,1.78942218 C1.27573775,1.42534219 1.62943107,1.22179997 2.11159106,1.22179997 C2.47639993,1.22179997 2.84066215,1.3180133 2.84066215,1.59735996 C2.84066215,2.43303105 0.128648886,1.72546218 0.128648886,3.70822214 C0.128648886,4.93056876 1.22198219,5.4672132 2.31513328,5.4672132 C3.00119993,5.4672132 3.76270657,5.29410209 4.24486656,4.78023544 L3.2584977,3.80498212 Z" id="path76"></path>
                                        </g>
                                        <g id="g78" transform="translate(45.3119, 10.404)" fill="#FFFFFF" fill-rule="nonzero">
                                            <path d="M3.2584977,3.80498212 C3.02379548,4.09471546 2.71274215,4.24413767 2.32661328,4.24413767 C2.05856439,4.24413767 1.73675996,4.12678656 1.73675996,3.81500435 C1.73675996,3.04475103 4.44931989,3.6981999 4.44931989,1.71471107 C4.44931989,0.385764435 3.16246658,0 2.04781328,0 C1.31874219,0 0.514777765,0.181493329 0,0.707568871 L0.976711087,1.78942218 C1.27646664,1.42534219 1.62943107,1.22179997 2.11231995,1.22179997 C2.47639993,1.22179997 2.84066215,1.3180133 2.84066215,1.59735996 C2.84066215,2.43303105 0.129377775,1.72546218 0.129377775,3.70822214 C0.129377775,4.93056876 1.22271108,5.4672132 2.31586216,5.4672132 C3.00192882,5.4672132 3.76343546,5.29410209 4.24559546,4.78023544 L3.2584977,3.80498212 Z" id="path80"></path>
                                        </g>
                                    </g>
                                </g>
                            </g>
                        </g>
                    </g>
                </g>
            </g>
        </g>
    </g>
</svg>