<?xml version="1.0" encoding="UTF-8"?>
<svg width="200px" height="100px" viewBox="0 0 200 100" version="1.1" xmlns="http://www.w3.org/2000/svg" xmlns:xlink="http://www.w3.org/1999/xlink">
    <title>Artboard</title>
    <defs>
        <polygon id="path-1" points="0 0 25 0 25 29 0 29"></polygon>
    </defs>
    <g id="Artboard" stroke="none" stroke-width="1" fill="none" fill-rule="evenodd">
        <g id="oxidos" transform="translate(36, 35)">
            <g id="Fill-1-Clipped" transform="translate(0, 1)">
                <mask id="mask-2" fill="white">
                    <use xlink:href="#path-1"></use>
                </mask>
                <g id="path-1"></g>
                <path d="M17.9523569,14.5041548 C17.9704148,14.5034936 17.9884727,14.5034936 18.0071994,14.5028324 C17.9730901,13.6518633 17.9597139,12.7995719 17.8995209,11.9505864 C17.8206012,10.8410867 17.5998936,9.75605159 17.1872372,8.71597829 C16.8421308,7.84583432 16.3666062,7.05503479 15.645628,6.43614822 C14.4932668,5.44632639 13.1282236,5.2096155 11.6621901,5.40731538 C10.0450052,5.62551258 8.91605236,6.52012108 8.17969152,7.93046839 C7.46673906,9.29585387 7.20857804,10.7795948 7.11962619,12.2871391 C7.05207628,13.4376334 7.07280942,14.5940785 7.09086732,15.7478788 C7.1022371,16.433547 7.15975484,17.1211987 7.2426874,17.8022385 C7.36173575,18.7788362 7.60785817,19.7283246 8.01717046,20.6295452 C8.41511297,21.5063012 8.94079837,22.2931335 9.75875414,22.8425937 C11.0074242,23.6816611 12.3851747,23.8423336 13.8277999,23.5051197 C15.1272995,23.2022885 16.0362136,22.3810736 16.6909795,21.2643006 C17.5537456,19.7924614 17.835315,18.1645781 17.945,16.5009897 C17.9891415,15.8384637 17.9523569,15.1699869 17.9523569,14.5041548 M24.9842351,14.4942368 C24.9842351,15.1488283 25.023695,15.8060647 24.977547,16.4573503 C24.7488137,19.7031989 23.8178288,22.6938229 21.6007206,25.1872217 C19.9875486,27.0022257 17.9503505,28.1249494 15.5807533,28.6717648 C14.4705272,28.9276506 13.3409055,29.0255088 12.2025893,28.9944322 C9.51931983,28.9210386 7.05742677,28.1904086 4.91321891,26.5459952 C3.40571905,25.3902113 2.29749933,23.9203556 1.4942574,22.2230459 C0.721780763,20.5905342 0.287053654,18.8667763 0.11985092,17.0735921 C0.0195292794,16.0024422 -0.018592944,14.9306311 0.00815949343,13.8568365 C0.0563138809,11.9148814 0.274346246,9.99805211 0.927105721,8.14866558 C1.57050184,6.32440481 2.5095124,4.67933019 3.9100025,3.31460591 C5.5552774,1.70986472 7.52760086,0.71144725 9.7868442,0.255877957 C10.5526327,0.101156309 11.326447,0.0370195577 12.108287,0.00924900554 C13.9649061,-0.0555489495 15.7593259,0.216866943 17.4728195,0.929644445 C20.1728092,2.0530294 22.1237307,3.96126306 23.4205552,6.54061839 C24.1903565,8.07130476 24.6438104,9.69323724 24.8705373,11.3852573 C25.0089811,12.4193798 25.016338,13.4554859 24.9842351,14.4942368" id="Fill-1" fill="#FFFFFF" fill-rule="nonzero" mask="url(#mask-2)"></path>
            </g>
            <path d="M70.5701236,19.2093448 C70.5701236,17.9641728 70.5720632,16.7196589 70.5668909,15.4744869 C70.5662443,15.3395713 70.5533135,15.1888607 70.4938314,15.0730308 C70.1724993,14.446496 69.7121602,13.9647487 69.0623838,13.6797807 C68.6246738,13.4869502 68.1649813,13.4073171 67.6955906,13.3981033 C67.0134871,13.3849409 66.383107,13.5527627 65.8548809,14.0206893 C65.374499,14.4458379 65.0893732,14.9966883 64.8773069,15.5942656 C64.4053301,16.9203869 64.4318384,18.3096882 64.4001577,19.6871433 C64.3878734,20.2057456 64.4589932,20.7282966 64.5145959,21.2462408 C64.5870088,21.917528 64.7357139,22.5743365 65.0104949,23.1923156 C65.4035934,24.0761772 66.0068186,24.7237719 66.9882719,24.8975168 C67.2559409,24.9449018 67.5352478,24.9449018 67.8080892,24.9376624 C68.8975152,24.9080468 69.7651768,24.4559151 70.3793932,23.5233524 C70.5112881,23.3232825 70.576589,23.1205801 70.5747316,22.8744414 C70.5649512,21.6523038 70.5701236,20.4308243 70.5701236,19.2093448 L70.5701236,19.2093448 Z M71.2535202,29.6017924 C71.1494267,28.8956246 71.0466262,28.2026193 70.9354207,27.4530152 C70.7640867,27.6425551 70.6270194,27.7919494 70.4925384,27.9439762 C69.5059128,29.056207 68.2968762,29.7755374 66.8279291,29.9407267 C64.2210651,30.2322759 61.996955,29.4602956 60.2965453,27.3582452 C59.3706948,26.2131082 58.8120811,24.8856706 58.4674734,23.4575399 C58.2360107,22.4986522 58.0795472,21.5259438 58.0510993,20.5374405 C58.0271771,19.7141264 57.9767467,18.8881799 58.0123066,18.0668402 C58.1073486,15.8858148 58.5036798,13.7771832 59.6467689,11.8811258 C60.6792991,10.1686853 62.1139794,8.99722325 64.0697739,8.56154467 C65.3596285,8.27394416 66.6501296,8.23840543 67.9257601,8.66157963 C68.8024733,8.95247076 69.546645,9.45791056 70.2061195,10.1022147 C70.3108596,10.204224 70.4110739,10.3101821 70.5688305,10.4707645 L70.5688305,0 L77,0 L77,29.6017924 L71.2535202,29.6017924 Z" id="Fill-4" fill="#FFFFFF" fill-rule="nonzero"></path>
            <path d="M46,28.9900618 L39.2207266,28.9900618 C38.1556456,26.960689 37.0886043,24.927341 35.9888918,22.8317138 C34.908782,24.9266784 33.8574229,26.9640018 32.808024,29 L26,29 C26.622713,27.7696555 27.2748301,26.592977 27.9047308,25.4043728 C28.538552,24.207818 29.1789075,23.0152385 29.8159958,21.8206714 C30.4530842,20.6267668 31.0888657,19.4321996 31.7324882,18.2250442 C29.9264245,14.8281802 28.1216675,11.4333039 26.2966545,8.00066254 L33.1170936,8.00066254 C34.0632514,9.87698763 35.0179038,11.7712014 36.0071877,13.7329947 C37.0226085,11.7831272 38.0112389,9.88493816 38.9933351,8 L45.7275222,8 C45.6556456,8.142447 45.6014114,8.25309187 45.5439101,8.36174912 C43.8463147,11.5439488 42.1519864,14.7274735 40.4458965,17.9050353 C40.3197857,18.1402385 40.3184788,18.3131625 40.4439362,18.5470406 C42.1062467,21.6556979 43.7587559,24.7689929 45.4132253,27.8816254 C45.6033717,28.2393993 45.7922112,28.5971731 46,28.9900618" id="Fill-6" fill="#FFFFFF" fill-rule="nonzero"></path>
            <path d="M101.575453,15.4746041 C101.595901,13.9912317 101.61503,12.5078593 101.369652,11.0363856 C101.128892,9.59531972 100.711355,8.21771361 99.951476,6.96107772 C98.92841,5.26815582 97.5168297,4.05514853 95.6006424,3.48136633 C94.504359,3.15282975 93.3836697,3.06755567 92.2445112,3.15216871 C90.185187,3.30619089 88.4470963,4.11596415 87.0599218,5.66147426 C85.9649576,6.88043091 85.3020426,8.31885264 84.9009955,9.8921264 C84.5824005,11.143474 84.4537751,12.4199411 84.4300289,13.7069848 C84.4095808,14.8049712 84.4240924,15.9036187 84.4260712,17.0022662 C84.4287097,18.0665396 84.5052253,19.1248637 84.6965142,20.1732721 C84.960361,21.6235926 85.4293487,22.9965714 86.2327621,24.2413086 C87.3198109,25.9249759 88.7874587,27.1036092 90.7471807,27.6172368 C91.8896373,27.9166876 93.0512228,27.9636214 94.2194045,27.8307525 C95.2127876,27.7177148 96.1606572,27.4460276 97.0432247,26.9641299 C98.4752532,26.1814592 99.500298,25.0107585 100.235771,23.5749809 C101.165831,21.7604277 101.498937,19.801107 101.570836,17.787581 C101.59854,17.0174701 101.575453,16.2460371 101.575453,15.4746041 M82,15.4970795 C82.0329808,14.4466879 82.0290231,13.3929911 82.1075176,12.3459046 C82.2988065,9.7863601 82.9960216,7.38282085 84.4933522,5.26551166 C86.0876464,3.01202836 88.2597651,1.64764304 90.9800255,1.18425443 C92.9694303,0.845141217 94.9357485,0.958839993 96.8407223,1.65293136 C99.3611188,2.57045404 101.1843,4.28717336 102.404591,6.65964375 C103.16513,8.13838888 103.603775,9.71959512 103.824087,11.3642611 C103.965245,12.4199411 104.004822,13.4815703 103.999545,14.5451827 C103.994268,15.725138 104.005482,16.9064154 103.956011,18.0843877 C103.852451,20.5712179 103.300351,22.9430272 101.996948,25.0933884 C100.396058,27.7342408 98.0623329,29.3233795 95.0188602,29.8231253 C92.9450245,30.1635606 90.8969138,30.0333358 88.9266378,29.2506651 C86.6898767,28.3622282 85.0454516,26.7889544 83.8475871,24.7258505 C82.9801908,23.2305794 82.4986704,21.6044224 82.239441,19.9035681 C82.01715,18.44201 82.0151712,16.9705363 82,15.4970795" id="Fill-8" fill="#FFFFFF" fill-rule="nonzero"></path>
            <path d="M127.810537,9.42082135 L125.443794,9.42082135 C125.435962,9.28722949 125.427476,9.17347802 125.422907,9.05972654 C125.362858,7.58029597 124.88246,6.27149262 123.874016,5.18225607 C123.140365,4.39062514 122.259853,3.81657698 121.235744,3.50243773 C118.974741,2.80802463 116.726792,2.86622306 114.515396,3.72200453 C113.685143,4.0434186 112.978253,4.56522044 112.375798,5.2331797 C110.90001,6.86868788 110.719861,10.0748923 113.068328,11.8122478 C113.962547,12.4735936 114.940966,12.9722483 115.98074,13.3320204 C117.147793,13.7361027 118.33247,14.086616 119.51323,14.4496949 C120.949202,14.8914739 122.371467,15.3709496 123.710837,16.0693307 C124.904652,16.6923185 125.967924,17.4826267 126.776637,18.5883969 C127.505066,19.5837224 127.876461,20.7086716 127.971757,21.9374521 C128.050736,22.9512952 127.971105,23.9452979 127.643442,24.9108628 C127.158475,26.3406925 126.225093,27.4094273 125.007128,28.2440457 C123.850518,29.036338 122.566629,29.5052321 121.199845,29.7565435 C119.688811,30.0343088 118.167333,30.0680374 116.645856,29.8901354 C114.644633,29.656019 112.760247,29.057501 111.113448,27.8452542 C109.271488,26.4894953 108.259128,24.6423564 108.054175,22.3448411 C108.031983,22.0915456 108.018929,21.8375889 108,21.5565169 L110.368701,21.5565169 C110.377839,21.6550574 110.391546,21.755582 110.395462,21.8561065 C110.494675,24.2210791 111.664992,25.875105 113.701461,26.9464852 C114.69685,27.4709324 115.766649,27.7480363 116.878222,27.8657559 C118.077911,27.9927343 119.276295,27.9947183 120.468152,27.7890398 C121.873446,27.5463259 123.156683,27.0284921 124.208858,26.0219238 C125.108952,25.1608515 125.567157,24.0954234 125.601751,22.8415118 C125.617416,22.289288 125.569768,21.7450004 125.424213,21.210633 C125.138324,20.164384 124.539132,19.3456379 123.668411,18.7233115 C122.774192,18.0844514 121.786635,17.6268001 120.759915,17.2683507 C119.593514,16.861623 118.410143,16.505819 117.231341,16.1374494 C115.807118,15.6923636 114.401171,15.201645 113.070939,14.5125227 C111.907149,13.9093753 110.8615,13.1527957 110.074327,12.0741407 C109.092644,10.728302 108.770203,9.20389992 108.929465,7.56376232 C109.154652,5.25434277 110.424182,3.6479338 112.322928,2.4813198 C113.556558,1.72407885 114.909635,1.31139907 116.3319,1.12622224 C117.550518,0.967499251 118.771747,0.950965606 119.991017,1.11960879 C122.06926,1.40597152 123.937329,2.17445535 125.465334,3.66314476 C126.637609,4.80528897 127.372565,6.20469669 127.681952,7.82499392 C127.779859,8.3401823 127.853616,8.86066145 127.810537,9.42082135" id="Fill-10" fill="#FFFFFF" fill-rule="nonzero"></path>
            <path d="M54.9538237,29 L48,29 L48,8 L54.9277425,8 C55.0024617,8.24525741 55.0320675,28.3881822 54.9538237,29" id="Fill-12" fill="#FFFFFF" fill-rule="nonzero"></path>
            <path d="M51.4965766,6 C50.6839341,5.98024724 49.9272483,5.81605246 49.260856,5.35680089 C48.4583875,4.804341 48.0469793,4.05867447 48.0031042,3.09017216 C47.9331585,1.54204993 49.0535623,0.397624641 50.522423,0.105036946 C51.3248916,-0.0548369216 52.1349906,-0.0455778173 52.9139319,0.226022575 C54.0597705,0.625398606 54.8189998,1.37847242 54.9709729,2.5840078 C55.2138754,4.50804966 53.8887213,5.54877299 52.6246108,5.84259523 C52.2564418,5.92777899 51.8730119,5.94938356 51.4965766,6" id="Fill-14" fill="#FFFFFF" fill-rule="nonzero"></path>
        </g>
    </g>
</svg>