<?xml version="1.0" encoding="UTF-8"?>
<svg width="200px" height="100px" viewBox="0 0 200 100" version="1.1" xmlns="http://www.w3.org/2000/svg" xmlns:xlink="http://www.w3.org/1999/xlink">
    <title>Artboard</title>
    <defs>
        <polygon id="path-1" points="0 0 148 0 148 49 0 49"></polygon>
    </defs>
    <g id="Artboard" stroke="none" stroke-width="1" fill="none" fill-rule="evenodd">
        <g id="rust_foundation" transform="translate(26, 25)">
            <mask id="mask-2" fill="white">
                <use xlink:href="#path-1"></use>
            </mask>
            <g id="path-1"></g>
            <path d="M147.953496,35.9646262 L144.815639,35.9646262 L144.815639,31.0882866 C144.815639,30.666215 144.721869,30.3380218 144.534329,30.1502648 C144.346789,29.9625078 144.112746,29.8686293 143.878703,29.8686293 C143.597394,29.8686293 143.316847,29.9625078 143.035537,30.1968224 C142.75499,30.4319003 142.520947,30.7127726 142.379911,31.0882866 L142.379911,35.9646262 L139.242053,35.9646262 L139.242053,27.2896417 L142.052097,27.2896417 L142.052097,28.5558567 C142.379911,28.0872274 142.801494,27.7117134 143.36335,27.4773988 C143.925969,27.2430841 144.581595,27.102648 145.330992,27.102648 C145.939352,27.102648 146.4082,27.1965265 146.736014,27.4308411 C147.063827,27.6651558 147.344374,27.8994704 147.531913,28.2276636 C147.719453,28.5558567 147.813222,28.8840498 147.906993,29.2595638 C147.953496,29.6343146 148,29.9625078 148,30.2441433 L148,35.9646262 L147.953496,35.9646262 Z M131.841863,31.6042367 C131.841863,32.1667445 131.982898,32.6353738 132.263445,32.963567 C132.544755,33.2917601 132.919072,33.4795171 133.387921,33.4795171 C133.856008,33.4795171 134.183821,33.2917601 134.511634,32.963567 C134.792943,32.6353738 134.933217,32.1667445 134.933217,31.6042367 C134.933217,31.0409657 134.792943,30.5723365 134.511634,30.2441433 C134.230324,29.9159502 133.856008,29.7281931 133.387921,29.7281931 C132.919072,29.7281931 132.591258,29.9159502 132.263445,30.2441433 C131.982898,30.5723365 131.841863,31.0409657 131.841863,31.6042367 L131.841863,31.6042367 Z M133.387921,36.1523832 C132.591258,36.1523832 131.935632,36.0111838 131.32651,35.7768692 C130.71815,35.5425545 130.249301,35.2143614 129.82848,34.7922897 C129.406897,34.370218 129.125588,33.9015888 128.938049,33.339081 C128.750509,32.77581 128.610235,32.2133022 128.610235,31.6507944 C128.610235,31.0409657 128.704005,30.4784579 128.938049,29.9625078 C129.125588,29.4 129.453401,28.9313707 129.82848,28.509299 C130.202797,28.0872274 130.71815,27.7590343 131.32651,27.5247196 C131.935632,27.2896417 132.591258,27.1492056 133.387921,27.1492056 C134.137317,27.1492056 134.839447,27.2896417 135.448569,27.5247196 C136.056929,27.7590343 136.525778,28.0872274 136.947362,28.509299 C137.368944,28.9313707 137.649491,29.4 137.837031,29.9625078 C138.02457,30.5257788 138.164844,31.0882866 138.164844,31.6507944 C138.164844,32.260623 138.071074,32.8231308 137.837031,33.339081 C137.649491,33.9015888 137.321678,34.370218 136.947362,34.7922897 C136.525778,35.2143614 136.056929,35.5425545 135.448569,35.7768692 C134.839447,36.0111838 134.137317,36.1523832 133.387921,36.1523832 L133.387921,36.1523832 Z M124.395168,35.9646262 L127.533026,35.9646262 L127.533026,27.2896417 L124.395168,27.2896417 L124.395168,35.9646262 Z M124.395168,26.5393769 L127.533026,26.5393769 L127.533026,23.9138318 L124.395168,23.9138318 L124.395168,26.5393769 Z M123.505499,35.4959969 C123.083916,35.6829906 122.615067,35.82419 122.100477,35.9646262 C121.585124,36.1050623 121.117037,36.1523832 120.601685,36.1523832 C120.226605,36.1523832 119.898792,36.1050623 119.618245,36.0111838 C119.290432,35.9180685 119.009122,35.7768692 118.775079,35.5898754 C118.541036,35.4021184 118.353496,35.1204829 118.213222,34.7922897 C118.072187,34.4640965 118.025683,34.0893458 118.025683,33.6199533 L118.025683,29.6343146 L116.948474,29.6343146 L116.948474,27.2896417 L118.025683,27.2896417 L118.025683,24.5702181 L121.163541,24.5702181 L121.163541,27.2896417 L122.849873,27.2896417 L122.849873,29.6343146 L121.163541,29.6343146 L121.163541,32.4949377 C121.163541,32.77581 121.210045,32.963567 121.35108,33.1040031 C121.491354,33.1978816 121.631627,33.2917601 121.866433,33.2917601 C122.006707,33.2917601 122.194246,33.2452025 122.381024,33.1978816 C122.568563,33.151324 122.756103,33.0574455 122.990146,33.0108879 C122.990146,33.0108879 123.505499,35.4959969 123.505499,35.4959969 L123.505499,35.4959969 Z M111.093579,33.9015888 C111.281119,33.9015888 111.468659,33.8542679 111.656198,33.8077103 C111.842975,33.7611527 112.030515,33.6672742 112.170788,33.5733956 C112.311824,33.4795171 112.405594,33.3856386 112.452097,33.2917601 C112.545868,33.1978816 112.545868,33.0574455 112.545868,32.963567 L112.545868,32.3071807 C112.358328,32.260623 112.170788,32.1667445 111.936745,32.1194237 C111.702702,32.072866 111.515162,32.072866 111.328385,32.072866 C110.953306,32.072866 110.625493,32.1667445 110.391449,32.3537383 C110.157406,32.5414953 110.01637,32.77581 110.01637,33.0574455 C110.01637,33.2917601 110.11014,33.4795171 110.29768,33.6672742 C110.485219,33.8542679 110.813033,33.9015888 111.093579,33.9015888 L111.093579,33.9015888 Z M110.157406,36.1523832 C109.735823,36.1523832 109.31424,36.0585047 108.939161,35.9180685 C108.564844,35.7768692 108.237031,35.5898754 107.955722,35.3082399 C107.675175,35.0739252 107.487635,34.7457321 107.300095,34.417539 C107.112556,34.0893458 107.066052,33.7138318 107.066052,33.2917601 C107.066052,32.8696885 107.159822,32.4476168 107.347362,32.072866 C107.534138,31.6973521 107.815448,31.4164798 108.143261,31.1348443 C108.471074,30.853972 108.845391,30.666215 109.31424,30.5250156 C109.782327,30.3845794 110.251176,30.2907009 110.813033,30.2907009 C111.515162,30.2907009 112.077019,30.3845794 112.545868,30.6188941 L112.545868,30.3380218 C112.545868,29.9159502 112.405594,29.6343146 112.170788,29.4465576 C111.936745,29.2595638 111.562428,29.1656853 111.047075,29.1656853 C110.531723,29.1656853 110.11014,29.2595638 109.688557,29.4 C109.266974,29.5404361 108.845391,29.775514 108.377304,30.1037072 L107.487635,28.1337851 C108.611348,27.3835203 109.9226,27.0087695 111.374889,27.0087695 C112.779911,27.0087695 113.810616,27.3369626 114.560013,27.9467913 C115.309408,28.5558567 115.683725,29.4938785 115.683725,30.7127726 L115.683725,32.4010592 C115.683725,32.6826947 115.730229,32.9170093 115.823999,33.0108879 C115.917768,33.1040031 116.058805,33.1978816 116.292848,33.1978816 L116.292848,35.82419 C116.058805,35.8707477 115.777495,35.9180685 115.589955,35.9646262 C115.402416,36.0111838 115.168373,36.0111838 114.980833,36.0111838 C114.418976,36.0111838 113.997394,35.9180685 113.716847,35.6829906 C113.435537,35.4959969 113.247997,35.1678037 113.15499,34.7922897 L113.107724,34.4640965 C112.733407,34.9800467 112.264559,35.3547975 111.749206,35.5898754 C111.234615,35.82419 110.765766,36.1523832 110.157406,36.1523832 Z M101.11815,33.4795171 C101.680006,33.4795171 102.195359,33.1978816 102.616942,32.5888162 L102.616942,31.0409657 C102.475906,30.666215 102.241863,30.3380218 101.960553,30.1037072 C101.680006,29.8686293 101.352193,29.7281931 101.02438,29.7281931 C100.790337,29.7281931 100.602797,29.775514 100.368753,29.8686293 C100.181214,29.9625078 99.9936748,30.1037072 99.8534014,30.2907009 C99.7131271,30.4784579 99.6193577,30.666215 99.5255882,30.9005296 C99.431818,31.1348443 99.385314,31.3691588 99.385314,31.6507944 C99.385314,32.2133022 99.5255882,32.6353738 99.8534014,32.963567 C100.181214,33.2917601 100.602797,33.4795171 101.11815,33.4795171 L101.11815,33.4795171 Z M100.274984,36.1523832 C99.6658617,36.1523832 99.1505089,36.0585047 98.6359183,35.82419 C98.1205655,35.5898754 97.6989829,35.3082399 97.3239036,34.8861683 C96.9495864,34.4640965 96.6682773,33.9954673 96.4814998,33.4321963 C96.2939602,32.8696885 96.1529246,32.260623 96.1529246,31.6042367 C96.1529246,30.9470872 96.246694,30.3845794 96.4342336,29.8220716 C96.6217733,29.2595638 96.9023203,28.7901714 97.2301334,28.4154206 C97.5587094,27.9933489 97.9795299,27.7117134 98.4483786,27.4773988 C98.9164652,27.2430841 99.431818,27.1492056 99.9936748,27.1492056 C100.555531,27.1492056 101.070884,27.2896417 101.539732,27.5247196 C102.007819,27.7590343 102.382136,28.1337851 102.616942,28.6031775 L102.616942,23.9138318 L105.754799,23.9138318 L105.754799,32.4949377 C105.754799,32.77581 105.801303,33.0108879 105.895073,33.1040031 C105.988843,33.1978816 106.129116,33.2917601 106.36316,33.2917601 L106.36316,35.9180685 C105.801303,36.0111838 105.379721,36.1050623 105.051907,36.1050623 C103.974698,36.1050623 103.366338,35.6829906 103.225302,34.8861683 L103.178798,34.5579751 C102.897489,35.0739252 102.475906,35.448676 101.960553,35.7303115 C101.398697,36.0111838 100.83684,36.1523832 100.274984,36.1523832 Z M95.1229811,35.9646262 L91.985124,35.9646262 L91.985124,31.0882866 C91.985124,30.666215 91.8913538,30.3380218 91.7038142,30.1502648 C91.5162745,29.9625078 91.2822316,29.8686293 91.0481879,29.8686293 C90.7668788,29.8686293 90.4863318,29.9625078 90.205022,30.1968224 C89.924475,30.4319003 89.6896692,30.7127726 89.5493957,31.0882866 L89.5493957,35.9646262 L86.4115386,35.9646262 L86.4115386,27.2896417 L89.2215826,27.2896417 L89.2215826,28.5558567 C89.5493957,28.0872274 89.9709791,27.7117134 90.5328351,27.4773988 C91.0946919,27.2430841 91.7510803,27.102648 92.5004768,27.102648 C93.1088369,27.102648 93.5776856,27.1965265 93.9054988,27.4308411 C94.2333119,27.6651558 94.5138589,27.8994704 94.7013985,28.2276636 C94.8889382,28.5558567 94.9827076,28.8840498 95.0757157,29.2595638 C95.1229811,29.6343146 95.1694852,29.9625078 95.1694852,30.2441433 L95.1694852,35.9646262 L95.1229811,35.9646262 Z M78.4959951,36.1523832 C77.6063252,36.1523832 76.9506989,35.8707477 76.4826123,35.3547975 C76.0137636,34.8396106 75.7797203,34.0420249 75.7797203,33.0108879 L75.7797203,27.2896417 L78.9175777,27.2896417 L78.9175777,32.3071807 C78.9175777,32.6826947 79.0113479,33.0108879 79.1516214,33.1978816 C79.292657,33.3856386 79.573204,33.5260748 79.8545138,33.5260748 C80.0885567,33.5260748 80.3226004,33.4795171 80.6039095,33.339081 C80.8379532,33.2452025 81.1192623,32.963567 81.353306,32.6353738 L81.353306,27.2896417 L84.4911631,27.2896417 L84.4911631,32.4949377 C84.4911631,32.77581 84.5376671,33.0108879 84.6314366,33.1040031 C84.7252068,33.1978816 84.8662424,33.2917601 85.1002861,33.2917601 L85.1002861,35.9180685 C84.5376671,36.0111838 84.1168467,36.1050623 83.7890335,36.1050623 C82.7118239,36.1050623 82.1027017,35.6829906 81.9624282,34.8861683 L81.9151621,34.5579751 C81.4935795,35.1204829 81.0254929,35.4959969 80.463636,35.7303115 C79.8545138,36.0111838 79.2453908,36.1523832 78.4959951,36.1523832 Z M68.4732995,31.6042367 C68.4732995,32.1667445 68.613573,32.6353738 68.8948824,32.963567 C69.1761918,33.2917601 69.5505087,33.4795171 70.0193577,33.4795171 C70.4874443,33.4795171 70.8152574,33.2917601 71.1430706,32.963567 C71.42438,32.6353738 71.5646534,32.1667445 71.5646534,31.6042367 C71.5646534,31.0409657 71.42438,30.5723365 71.1430706,30.2441433 C70.8617612,29.9159502 70.4874443,29.7281931 70.0193577,29.7281931 C69.5505087,29.7281931 69.2226956,29.9159502 68.8948824,30.2441433 C68.613573,30.5723365 68.4732995,31.0409657 68.4732995,31.6042367 L68.4732995,31.6042367 Z M70.0193577,36.1523832 C69.2226956,36.1523832 68.5670693,36.0111838 67.9579468,35.7768692 C67.3495867,35.5425545 66.8807376,35.2143614 66.4591547,34.7922897 C66.0383341,34.370218 65.7570247,33.9015888 65.5694852,33.339081 C65.3819456,32.77581 65.241672,32.2133022 65.241672,31.6507944 C65.241672,31.0409657 65.3354418,30.4784579 65.5694852,29.9625078 C65.7570247,29.4 66.0848379,28.9313707 66.4591547,28.509299 C66.8342339,28.0872274 67.3495867,27.7590343 67.9579468,27.5247196 C68.5670693,27.2896417 69.2226956,27.1492056 70.0193577,27.1492056 C70.7679913,27.1492056 71.4708837,27.2896417 72.0800061,27.5247196 C72.6883663,27.7590343 73.1572154,28.0872274 73.5787983,28.509299 C74.0003812,28.9313707 74.2809282,29.4 74.4684678,29.9625078 C74.6560074,30.5257788 74.796281,31.0882866 74.796281,31.6507944 C74.796281,32.260623 74.7025111,32.8231308 74.4684678,33.339081 C74.2809282,33.9015888 73.9531151,34.370218 73.5787983,34.7922897 C73.1572154,35.2143614 72.6883663,35.5425545 72.0800061,35.7768692 C71.4708837,36.0111838 70.8152574,36.1523832 70.0193577,36.1523832 L70.0193577,36.1523832 Z M57.1393514,35.9646262 L57.1393514,24.2420249 L65.1951683,24.2420249 L65.1951683,27.0553271 L60.370979,27.0553271 L60.370979,29.0252493 L64.3047364,29.0252493 L64.3047364,31.6507944 L60.370979,31.6507944 L60.370979,36.0111838 L57.1393514,36.0111838 L57.1393514,35.9646262 Z M92.6872536,21.0066511 C92.265671,21.1944081 91.7975844,21.3348442 91.2822316,21.4752804 C90.7668788,21.6164798 90.2987922,21.6630374 89.7834394,21.6630374 C89.4091222,21.6630374 89.0813091,21.6164798 88.8,21.5226012 C88.4721869,21.4287227 88.1908778,21.2882866 87.9568341,21.1005296 C87.7227912,20.9127726 87.5352515,20.6319003 87.394978,20.3037071 C87.2547045,19.975514 87.2074384,19.6 87.2074384,19.1313707 L87.2074384,15.1457321 L86.1302288,15.1457321 L86.1302288,12.8010592 L87.2074384,12.8010592 L87.2074384,10.0816355 L90.3452955,10.0816355 L90.3452955,12.8010592 L92.0316273,12.8010592 L92.0316273,15.1457321 L90.3452955,15.1457321 L90.3452955,18.0055919 C90.3452955,18.2872274 90.3925616,18.4749844 90.5328351,18.6154206 C90.6738715,18.7092991 90.814145,18.8031776 91.0481879,18.8031776 C91.1884614,18.8031776 91.376001,18.7558567 91.5635407,18.7092991 C91.7510803,18.6619782 91.9378579,18.5680997 92.1719008,18.5215421 L92.6872536,21.0066511 Z M82.0089323,21.6630374 C81.2595358,21.6630374 80.5101401,21.5226012 79.7607436,21.2882866 C79.0113479,21.053972 78.4022249,20.6784579 77.9341383,20.2098286 L79.0113479,18.333785 C79.573204,18.7092991 80.0885567,18.9901713 80.5566434,19.1779284 C81.0719961,19.3656854 81.4935795,19.4595639 81.9151621,19.4595639 C82.3367454,19.4595639 82.5707883,19.3183645 82.5707883,19.0374922 C82.5707883,18.8970561 82.4770189,18.7558567 82.3367454,18.6619782 C82.1492058,18.5680997 81.8213926,18.4276635 81.353306,18.2872274 C80.744183,18.0994704 80.2288302,17.9590343 79.8080098,17.7712772 C79.3864272,17.5835202 79.0586141,17.3965265 78.8238082,17.2087694 C78.5432613,17.0210124 78.4022249,16.7866978 78.2619514,16.5523831 C78.168182,16.3180685 78.0744118,16.036433 78.0744118,15.7082399 C78.0744118,15.2861682 78.168182,14.8640966 78.3557216,14.4893458 C78.5432613,14.1138317 78.7773042,13.7856386 79.1051173,13.5040031 C79.4329305,13.2231309 79.8080098,13.0353738 80.2288302,12.8476168 C80.6504136,12.6606231 81.1192623,12.6133022 81.633853,12.6133022 C82.2902414,12.6133022 82.8986015,12.7071807 83.4604583,12.8476168 C84.0230765,13.0353738 84.6314366,13.363567 85.1940555,13.8329595 L84.0230765,15.7082399 C83.4604583,15.3327259 83.0396371,15.0984112 82.6645585,14.9579751 C82.2902414,14.8175389 81.9624282,14.7236604 81.633853,14.7236604 C81.4470754,14.7236604 81.3060398,14.7702181 81.1657664,14.8175389 C81.0254929,14.9114174 80.9782267,15.0045327 80.9782267,15.1457321 C80.9782267,15.3327259 81.0719961,15.4266044 81.2595358,15.5678037 C81.4470754,15.660919 81.7748886,15.8021184 82.2902414,15.9425545 C82.8986015,16.1303115 83.4604583,16.2707477 83.8820409,16.4585047 C84.3036234,16.6462617 84.6314366,16.8332555 84.9127464,17.0683334 C85.1940555,17.302648 85.334329,17.5369627 85.4746025,17.7712772 C85.5683727,18.0529128 85.6621421,18.333785 85.6621421,18.7092991 C85.6621421,19.1779284 85.5683727,19.5534423 85.4280992,19.9281932 C85.2870628,20.3037071 85.0065159,20.5845794 84.7252068,20.8188941 C84.3973936,21.053972 84.0230765,21.2882866 83.6014939,21.3821651 C83.0861411,21.5691589 82.5707883,21.6630374 82.0089323,21.6630374 L82.0089323,21.6630374 Z M70.533948,21.6630374 C69.6442784,21.6630374 68.9886523,21.3821651 68.5205656,20.8662149 C68.0517166,20.3502648 67.8176733,19.5534423 67.8176733,18.5215421 L67.8176733,12.8010592 L70.9555309,12.8010592 L70.9555309,17.8185981 C70.9555309,18.1933489 71.0493007,18.5215421 71.1895743,18.7092991 C71.3771139,18.8970561 71.6111572,19.0374922 71.8924666,19.0374922 C72.1265099,19.0374922 72.3605532,18.9901713 72.6418626,18.8497352 C72.875906,18.7558567 73.1572154,18.4749844 73.3912587,18.1467913 L73.3912587,12.8010592 L76.5291163,12.8010592 L76.5291163,18.0055919 C76.5291163,18.2872274 76.5756204,18.5215421 76.6693898,18.6154206 C76.76316,18.7092991 76.9041956,18.8031776 77.1382385,18.8031776 L77.1382385,21.4287227 C76.5756204,21.5226012 76.1547995,21.6164798 75.8269864,21.6164798 C74.7497772,21.6164798 74.1406547,21.1944081 74.0003812,20.3968225 L73.9531151,20.0686293 C73.5315322,20.6319003 73.0634455,21.0066511 72.5015891,21.2409657 C71.9389703,21.5226012 71.283344,21.6630374 70.533948,21.6630374 L70.533948,21.6630374 Z M60.370979,15.0518536 L62.3851238,15.0518536 C62.571901,15.0518536 62.7594406,14.9579751 62.9469802,14.7236604 C63.1345198,14.4893458 63.1810235,14.2077103 63.1810235,13.7856386 C63.1810235,13.363567 63.0872537,13.0826947 62.8997141,12.8476168 C62.7129368,12.6133022 62.5253973,12.5194237 62.291354,12.5194237 L60.3237129,12.5194237 L60.3237129,15.0518536 L60.370979,15.0518536 Z M57.1393514,21.4752804 L57.1393514,9.75344238 L62.5253973,9.75344238 C63.0872537,9.75344238 63.6026064,9.89387853 64.1179591,10.1281932 C64.5860458,10.3625078 65.0076287,10.6907009 65.3819456,11.066215 C65.7570247,11.4409658 65.991068,11.8630374 66.1786077,12.3789875 C66.3661473,12.8476168 66.4591547,13.363567 66.4591547,13.8795172 C66.4591547,14.582461 66.3188812,15.1922897 65.991068,15.8021184 C65.7097586,16.4111838 65.2889381,16.8805763 64.7735854,17.2553271 L67.2558168,21.5691589 L63.6491102,21.5691589 L61.5884616,17.9590343 L60.370979,17.9590343 L60.370979,21.5691589 L57.1393514,21.5691589 L57.1393514,21.4752804 Z M41.7771139,20.4907009 C40.9812141,20.4907009 40.3248255,19.8343147 40.3248255,19.0374922 C40.3248255,18.2399065 40.9812141,17.5835202 41.7771139,17.5835202 L41.8236176,17.5835202 C42.6202797,17.5835202 43.2286399,18.2399065 43.2286399,19.0374922 C43.2286399,19.8343147 42.5730136,20.4907009 41.7771139,20.4907009 L41.7771139,20.4907009 Z M22.9492054,5.76780374 C22.9492054,4.97021807 23.6048317,4.31383177 24.4007315,4.31383177 L24.4479976,4.31383177 C25.2438973,4.31383177 25.8530198,4.97021807 25.8530198,5.76780374 C25.8530198,6.56462616 25.1973936,7.22101246 24.4007315,7.22101246 C23.6048317,7.22101246 22.9492054,6.56462616 22.9492054,5.76780374 L22.9492054,5.76780374 Z M38.1239035,29.3534424 C37.1869679,29.4465576 36.1570247,28.9779283 36.0159889,28.3680997 C35.4541324,25.2739253 34.5644629,24.6175389 33.1121745,23.4452025 C34.892276,22.3194237 36.7653849,20.6319003 36.7653849,18.333785 C36.7653849,15.8959969 35.0798156,14.3481464 33.9553403,13.5978816 C32.3627785,12.5667445 30.5834393,12.3324299 30.1153527,12.3324299 L11.0999047,12.3324299 C13.7224096,9.37792832 17.2353466,7.40876947 21.1226003,6.65850467 L23.3707884,9.0031776 C23.8861411,9.51836448 24.7285446,9.56568539 25.2438973,9.04973518 L27.7733948,6.65850467 C32.971901,7.64308411 37.4210112,10.8319003 40.0442784,15.4266044 L38.3114431,19.3183645 C38.0301337,19.975514 38.3114431,20.7723364 38.9670693,21.1005296 L42.2924666,22.5537383 C42.3862364,23.5856386 42.3862364,24.6175389 42.3389703,25.648676 L40.5123651,25.648676 C40.3248255,25.648676 40.2318181,25.7898754 40.2318181,25.9303116 L40.2318181,26.7744548 C40.2318181,28.7901714 39.1073429,29.2595638 38.1239035,29.3534424 L38.1239035,29.3534424 Z M20.4197079,21.2882866 L20.4197079,17.9117134 L26.4621423,17.9117134 C26.7899554,17.9117134 28.6630643,18.2872274 28.6630643,19.6938785 C28.6630643,20.8662149 27.2115384,21.2882866 26.0405594,21.2882866 L20.4197079,21.2882866 Z M5.57282303,18.9436137 C5.57282303,18.1467913 6.22844927,17.4896417 7.02511139,17.4896417 L7.07161511,17.4896417 C7.86827726,17.4896417 8.47663737,18.1467913 8.47663737,18.9436137 C8.47663737,19.7404362 7.82101118,20.3968225 7.02511139,20.3968225 C6.22844927,20.3968225 5.57282303,19.7404362 5.57282303,18.9436137 L5.57282303,18.9436137 Z M6.65003219,22.4133021 L9.78865226,21.0066511 C10.4442784,20.7257788 10.7720916,19.9281932 10.4442784,19.2718069 L9.83515592,17.8185981 L12.3646534,17.8185981 L12.3646534,29.2595638 L7.21265099,29.2595638 C6.60352847,27.0553271 6.41598888,24.7114175 6.65003219,22.4133021 L6.65003219,22.4133021 Z M15.0809282,39.4816355 C15.0809282,40.278458 14.425302,40.9348442 13.6286399,40.9348442 C12.8327401,40.9348442 12.1771139,40.278458 12.1771139,39.4816355 C12.1771139,38.6840498 12.8327401,38.0276635 13.6286399,38.0276635 L13.675906,38.0276635 C14.425302,38.0749844 15.0809282,38.6840498 15.0809282,39.4816355 L15.0809282,39.4816355 Z M36.6251114,39.575514 C36.6251114,40.3723364 35.9694852,41.0287227 35.1735854,41.0287227 C34.3769233,41.0287227 33.721297,40.3723364 33.721297,39.575514 C33.721297,38.7779283 34.3769233,38.121542 35.1735854,38.121542 L35.2200891,38.121542 C36.0159889,38.121542 36.6251114,38.7779283 36.6251114,39.575514 L36.6251114,39.575514 Z M34.1893836,36.2462617 C33.4872537,36.1050623 32.7843614,36.527134 32.5975841,37.2773988 L31.8481881,40.7005296 C27.0705025,42.8574455 21.637953,42.8108879 16.9075334,40.6539719 L16.1581374,37.2308411 C16.0178638,36.527134 15.3149716,36.0585047 14.5655755,36.1989408 L11.5679913,36.8553271 C11.0061349,36.2928193 10.4907822,35.6829906 10.0226956,35.0266043 L24.6820409,35.0266043 C24.8223144,35.0266043 24.9633503,34.9800467 24.9633503,34.8396106 L24.9633503,29.6343146 C24.9633503,29.4938785 24.8695804,29.4465576 24.6820409,29.4465576 L20.3732042,29.4465576 L20.3732042,26.1646261 L25.009854,26.1646261 C25.4314369,26.1646261 27.258042,26.3050623 27.8671646,28.6497352 C28.0539419,29.3534424 28.4755248,31.7446729 28.7095681,32.4949377 C28.9908775,33.339081 30.1153527,35.0266043 31.2855693,35.0266043 L38.8267958,35.0266043 C38.3114431,35.6829906 37.7495867,36.339377 37.1869679,36.9492056 L34.1893836,36.2462617 Z M48.615448,23.9138318 L46.5075334,22.6010592 C46.5075334,22.4133021 46.4610297,22.2255452 46.4610297,22.0385514 L48.2403688,20.3502648 C48.4279084,20.1625078 48.4744122,19.9281932 48.4279084,19.6938785 C48.3806423,19.4595639 48.1938651,19.2718069 48.0063255,19.1779284 L45.7116337,18.333785 L45.5705978,17.7712772 L47.0228861,15.7547975 C47.1631597,15.5678037 47.2096634,15.2861682 47.116656,15.0984112 C47.0228861,14.8640966 46.8353466,14.7236604 46.6013033,14.6763395 L44.1655755,14.3015888 C44.0718057,14.1138317 43.9780359,13.9733957 43.8850284,13.7856386 L44.9149716,11.5348443 C45.0087413,11.3005296 45.0087413,11.066215 44.8684678,10.8319003 C44.7274319,10.5968224 44.4933886,10.5037072 44.2593453,10.5037072 L41.7771139,10.5968224 C41.683344,10.4563863 41.5430706,10.3159502 41.4493007,10.175514 L42.0111572,7.78352027 C42.0584233,7.54920561 42.0111572,7.31489097 41.8236176,7.12713396 C41.6368403,6.93937695 41.4020346,6.89281932 41.1679913,6.93937695 L38.7795297,7.50264797 C38.6392562,7.40876947 38.4982203,7.26833333 38.3579468,7.17445483 L38.4517166,4.68934579 C38.4517166,4.45426791 38.3579468,4.21995327 38.1239035,4.07951713 C37.9363639,3.93908099 37.6558168,3.93908099 37.4210112,4.0329595 L35.1263193,5.11141744 C34.9860458,5.01753894 34.7985062,4.92366044 34.6109666,4.82978193 L34.2366497,2.39123053 C34.1893836,2.15691589 34.0491102,1.96915888 33.8150669,1.87528037 C33.5810235,1.78216511 33.3469802,1.82872274 33.1121745,1.96915888 L31.0987921,3.42313084 L30.5361733,3.28269471 L29.7875396,0.938021807 C29.6937698,0.703707165 29.5062302,0.515950156 29.2249208,0.468629283 C28.9908775,0.422071651 28.7568342,0.515950156 28.5692946,0.656386293 L26.8837253,2.4385514 C26.6961856,2.4385514 26.508646,2.39123053 26.3211065,2.39123053 L25.009854,0.281635514 C24.9633503,0.140436137 24.7285446,0 24.4479976,0 C24.1666882,0 23.9799109,0.140436137 23.838875,0.328193146 L22.5276226,2.4385514 C22.3400829,2.4385514 22.1533057,2.48510904 21.9657661,2.48510904 L20.2794344,0.703707165 C20.0918948,0.515950156 19.8578515,0.468629283 19.6238082,0.515950156 C19.3897649,0.562507788 19.2022253,0.750264797 19.1084555,0.938021807 L18.2652896,3.23537383 C18.1250161,3.28269471 17.9374765,3.32925234 17.797203,3.37580997 L15.8303243,1.92260125 C15.6427846,1.78216511 15.3614752,1.73484423 15.174698,1.82872274 C14.9398923,1.92260125 14.7996188,2.11035826 14.7531151,2.3446729 L14.3780359,4.78246106 C14.1912587,4.87633957 14.0502228,4.97021807 13.8626832,5.06409657 L11.6152574,4.0329595 C11.3804518,3.93908099 11.1464085,3.93908099 10.9123651,4.07951713 C10.7248255,4.21995327 10.584552,4.45426791 10.584552,4.68934579 L10.6783218,7.17445483 C10.5380483,7.26833333 10.3970124,7.40876947 10.2567389,7.50264797 L7.86827726,6.93937695 C7.63423388,6.89281932 7.39942823,6.93937695 7.21265099,7.12713396 C7.02511139,7.31489097 6.97784531,7.54920561 7.02511139,7.78352027 L7.58696784,10.175514 C7.44669431,10.3159502 7.35292451,10.4563863 7.25915471,10.5968224 L4.77692327,10.5037072 C4.54287996,10.5037072 4.30883663,10.5968224 4.16780076,10.8319003 C4.02752723,11.0188941 4.02752723,11.3005296 4.12129704,11.5348443 L5.15124011,13.7856386 C5.05823267,13.9260747 4.96446287,14.1138317 4.87069308,14.3015888 L2.43496536,14.6763395 C2.20092204,14.7236604 2.01338244,14.8640966 1.91961264,15.0984112 C1.8266052,15.3327259 1.87310892,15.5678037 2.01338244,15.7547975 L3.371901,17.8185981 L3.23162747,18.3811059 L0.936173283,19.1779284 C0.702129961,19.2718069 0.56185644,19.4595639 0.514590362,19.6938785 C0.468086641,19.9281932 0.56185644,20.1625078 0.702129961,20.3502648 L2.48223144,22.0385514 C2.48223144,22.2255452 2.43496536,22.4133021 2.43496536,22.6010592 L0.32781312,23.9138318 C0.140273521,24.0077103 0,24.2420249 0,24.4763396 C0,24.7114175 0.140273521,24.9457321 0.32781312,25.0861682 L2.43496536,26.3989408 C2.43496536,26.5866978 2.48223144,26.7744548 2.48223144,26.9614486 L0.702129961,28.6497352 C0.514590362,28.8374922 0.468086641,29.0718068 0.514590362,29.3061215 C0.514590362,29.5404361 0.702129961,29.7281931 0.936173283,29.8220716 L3.23162747,30.666215 L3.371901,31.2287228 L1.91961264,33.2452025 C1.77933912,33.4321963 1.7328354,33.7138318 1.8266052,33.9015888 C1.91961264,34.0893458 2.10715224,34.2763395 2.34119556,34.3236605 L4.77692327,34.6984112 C4.87069308,34.8861683 4.96446287,35.0266043 5.05823267,35.2143614 L4.02752723,37.4651557 C3.93375744,37.6994704 3.93375744,37.933785 4.07403096,38.1680997 C4.21506684,38.3558567 4.44911016,38.4970561 4.68315347,38.4970561 L7.16538491,38.4031776 C7.25915471,38.5436137 7.39942823,38.6840498 7.49319803,38.8252492 L6.93134159,41.2164797 C6.88483787,41.4507944 6.93134159,41.685109 7.11888119,41.872866 C7.30642079,42.0606231 7.54046411,42.1071807 7.77450744,42.0606231 L10.162969,41.497352 C10.3032426,41.5912305 10.4442784,41.7324299 10.584552,41.8255452 L10.4907822,44.3114174 C10.4907822,44.5457321 10.584552,44.7800467 10.8185953,44.9204829 C11.0526386,45.060919 11.2874443,45.060919 11.5214876,44.9678037 L13.7696757,43.9359034 C13.9099493,44.0297819 14.0974889,44.1236604 14.2842661,44.2175389 L14.6593453,46.6553271 C14.705849,46.8896417 14.8468849,47.0773987 15.0809282,47.1712773 C15.3149716,47.2651558 15.5490149,47.2185981 15.7365545,47.0773987 L17.7506993,45.62419 L18.3125557,45.7646261 L19.1557216,48.0619782 C19.2494913,48.2970561 19.4362686,48.4374922 19.6703119,48.4840499 C19.9051176,48.5313707 20.1391609,48.4374922 20.3267005,48.2970561 L22.0122698,46.5148909 C22.1998094,46.5148909 22.387349,46.5614486 22.5741262,46.5614486 L23.8861411,48.6718069 C24.0264146,48.8595638 24.2604579,49 24.4945012,49 C24.7285446,49 24.9633503,48.8595638 25.1036237,48.6718069 L26.4148762,46.5614486 C26.6024159,46.5614486 26.7899554,46.5148909 26.9767327,46.5148909 L28.6630643,48.2970561 C28.850604,48.4840499 29.0846473,48.5313707 29.3186906,48.4840499 C29.5527339,48.4374922 29.7402735,48.2497352 29.8340433,48.0619782 L30.6772092,45.7646261 L31.2390656,45.62419 L33.2059443,47.0773987 C33.3934839,47.2185981 33.6747933,47.2651558 33.9088366,47.1712773 C34.14288,47.0773987 34.2831535,46.8896417 34.3304196,46.6553271 L34.7047364,44.2175389 C34.892276,44.1236604 35.0325495,44.0297819 35.2200891,43.9359034 L37.4682773,44.9678037 C37.7023206,45.060919 37.9363639,45.060919 38.1704072,44.9204829 C38.3579468,44.7800467 38.4982203,44.5457321 38.4982203,44.3114174 L38.4052129,41.8255452 C38.5454864,41.7324299 38.6857599,41.5912305 38.8267958,41.497352 L41.2152574,42.0606231 C41.4493007,42.1071807 41.683344,42.0606231 41.8708837,41.872866 C42.0584233,41.685109 42.104927,41.4507944 42.0584233,41.2164797 L41.4958045,38.8252492 C41.5895743,38.6840498 41.7306101,38.5436137 41.8236176,38.4031776 L44.305849,38.4970561 C44.5406547,38.4970561 44.774698,38.4031776 44.9149716,38.1680997 C45.0552451,37.9811059 45.0552451,37.6994704 44.9622376,37.4651557 L43.8377624,35.1678037 C43.9315322,35.0266043 44.025302,34.8396106 44.1190718,34.6518536 L46.5540372,34.2763395 C46.7888428,34.229782 46.97562,34.0893458 47.0693899,33.8542679 C47.1631597,33.6199533 47.116656,33.3856386 46.97562,33.1978816 L45.524094,31.1821651 L45.6643676,30.6188941 L47.9590594,29.775514 C48.1938651,29.6816355 48.3341386,29.4938785 48.3806423,29.2595638 C48.4279084,29.0252493 48.3341386,28.7901714 48.1938651,28.6031775 L46.4137636,26.914891 C46.4137636,26.7271339 46.4610297,26.5393769 46.4610297,26.3523832 L48.5681819,25.0396106 C48.7557216,24.8984112 48.895995,24.6640966 48.895995,24.4297819 C48.895995,24.1954673 48.8022253,24.0077103 48.615448,23.9138318 L48.615448,23.9138318 Z" id="Fill-1" fill="#FFFFFF" fill-rule="nonzero" mask="url(#mask-2)"></path>
        </g>
    </g>
</svg>