<?xml version="1.0" encoding="UTF-8"?>
<svg width="200px" height="100px" viewBox="0 0 200 100" version="1.1" xmlns="http://www.w3.org/2000/svg" xmlns:xlink="http://www.w3.org/1999/xlink">
    <title>Artboard</title>
    <g id="Artboard" stroke="none" stroke-width="1" fill="none" fill-rule="evenodd">
        <g id="sentry" transform="translate(20, 32)" fill="#FFFFFF" fill-rule="nonzero">
            <path d="M23.1643516,1.79596139 C22.4881768,0.681437715 21.2736914,0 19.9635177,0 C18.653344,0 17.4388586,0.681437715 16.7626838,1.79596139 L11.4973121,10.7525859 C19.6824548,14.8111085 25.0880634,22.8746105 25.7010124,31.9401289 L22.0040493,31.9401289 C21.3922686,24.1697604 16.6861544,17.3009962 9.63282635,13.8838282 L4.75955676,22.2523514 C8.71971229,24.016266 11.5031725,27.6612129 12.1454809,31.9242343 L3.65526907,31.9242343 C3.45071703,31.9098643 3.26723033,31.7940828 3.1672323,31.6162794 C3.06723427,31.438476 3.06419175,31.2225957 3.15913982,31.0420823 L5.51175272,27.0684246 C4.71469408,26.4079597 3.80375116,25.8963689 2.82305226,25.5584346 L0.494445615,29.5320923 C0.00477182218,30.3662568 -0.12781601,31.3605444 0.126340405,32.2925452 C0.380496819,33.224546 1.00018849,34.0164857 1.84679793,34.4912172 C2.39901919,34.8002284 3.02143713,34.9643412 3.65526907,34.9680561 L15.2822981,34.9680561 C15.7215065,29.5854491 13.2931017,24.3669517 8.88063038,21.2112531 L10.7291119,18.0323269 C16.2995765,21.832071 19.433834,28.272254 18.9712592,34.9680561 L28.8218255,34.9680561 C29.2886578,24.8225281 24.2868447,15.1961414 15.6904045,9.69559296 L19.427378,3.33774059 C19.6006991,3.04933081 19.9756906,2.9535644 20.2675969,3.12316307 C20.6917074,3.35363522 36.5038268,30.7559789 36.7999039,31.0738715 C36.9060762,31.2629453 36.9022388,31.4939936 36.7898453,31.6794868 C36.6774518,31.86498 36.4736938,31.9765455 36.2557622,31.9719182 L32.4467698,31.9719182 C32.4947823,32.9838764 32.4947823,33.9931854 32.4467698,34.9999236 L36.2717663,34.9999236 C37.2528279,35.0062231 38.1956838,34.6225307 38.8901651,33.9342955 C39.5846465,33.2460603 39.9730253,32.3104914 39.9687647,31.336133 C39.9692058,30.6989784 39.7978976,30.0733183 39.4726002,29.524145 L23.1643516,1.79596139 Z M99.440223,22.4748762 L87.6291459,7.32729295 L84.6843788,7.32729295 L84.6843788,27.632684 L87.6691564,27.632684 L87.6691564,12.0718403 L99.8163209,27.632684 L102.425001,27.632684 L102.425001,7.32729295 L99.440223,7.32729295 L99.440223,22.4748762 Z M69.6964741,18.7078487 L80.2832322,18.7078487 L80.2832322,16.06934 L69.688472,16.06934 L69.688472,9.95785437 L81.6355845,9.95785437 L81.6355845,7.31934564 L66.6476799,7.31934564 L66.6476799,27.632684 L81.7876241,27.632684 L81.7876241,24.9941752 L69.688472,24.9941752 L69.6964741,18.7078487 Z M57.2452303,16.1329185 L57.2452303,16.1329185 C53.1241567,15.1474514 51.9718565,14.3686144 51.9718565,12.4771534 C51.9718565,10.7764279 53.4842505,9.62406712 55.7408384,9.62406712 C57.7958743,9.68384238 59.7779852,10.3938549 61.3983123,11.6506326 L62.9987292,9.40154229 C60.9474453,7.80451745 58.4026987,6.96207432 55.796853,7.01734765 C51.7477981,7.01734765 48.9230622,9.40154229 48.9230622,12.795046 C48.9230622,16.4508111 51.3236876,17.7144343 55.6928259,18.7714272 C59.5818391,19.6615265 60.7741497,20.4880474 60.7741497,22.3397719 C60.7741497,24.1914964 59.1737327,25.3359098 56.7010886,25.3359098 C54.2394056,25.3247103 51.8707032,24.4007202 50.0593583,22.7450849 L48.2588892,24.8829128 C50.5789596,26.8627831 53.5381744,27.9486756 56.5970615,27.9426544 C60.9822039,27.9426544 63.7989377,25.5981712 63.7989377,21.9741953 C63.7749314,18.9065316 61.9504561,17.2614373 57.2452303,16.1329185 Z M156.559104,7.32729295 L150.4055,16.8640715 L144.291908,7.32729295 L140.722978,7.32729295 L148.797081,19.6058953 L148.797081,27.6406313 L151.869882,27.6406313 L151.869882,19.5105276 L160,7.32729295 L156.559104,7.32729295 Z M104.84163,10.0770641 L111.539375,10.0770641 L111.539375,27.6406313 L114.612176,27.6406313 L114.612176,10.0770641 L121.30992,10.0770641 L121.30992,7.32729295 L104.849632,7.32729295 L104.84163,10.0770641 Z M135.521623,19.7092104 C138.610428,18.8588477 140.322874,16.7130725 140.322874,13.6454087 C140.322874,9.74327685 137.450125,7.28755638 132.816918,7.28755638 L123.72655,7.28755638 L123.72655,27.6247366 L126.767342,27.6247366 L126.767342,20.329101 L131.928687,20.329101 L137.114038,27.6406313 L140.666963,27.6406313 L135.065504,19.8363675 L135.521623,19.7092104 Z M126.75934,17.7223816 L126.75934,10.0134856 L132.496835,10.0134856 C135.489615,10.0134856 137.202061,11.4201604 137.202061,13.8599863 C137.202061,16.2998121 135.369583,17.7223816 132.528843,17.7223816 L126.75934,17.7223816 Z" id="Shape"></path>
        </g>
    </g>
</svg>