<?xml version="1.0" encoding="UTF-8"?>
<svg id="Layer_1" data-name="Layer 1" xmlns="http://www.w3.org/2000/svg" viewBox="0 0 267.34 63.44">
  <defs>
    <style>
      .cls-1 {
        fill: #fff;
        stroke-width: 0px;
      }
    </style>
  </defs>
  <path class="cls-1" d="m6.59,50.96c-.88.56-1.84.75-2.87.56-1.04-.19-1.92-.66-2.64-1.41-.72-.75-1.08-1.73-1.08-2.92,0-1.57.72-2.83,2.16-3.77l33.15-19.87v4.05L2.16,8.02c-1.44-.88-2.16-2.2-2.16-3.95C0,2.43.72,1.25,2.16.53c1.44-.72,2.92-.71,4.43.05l35.5,21.28c1.51,1.13,2.26,2.42,2.26,3.86,0,1.7-.75,3.02-2.26,3.96L6.59,50.96Z"/>
  <path class="cls-1" d="m79.76,55.05c-5.02,0-9.5-1.11-13.42-3.34-3.93-2.23-7-5.3-9.23-9.23-2.23-3.92-3.34-8.43-3.34-13.51s1.11-9.68,3.34-13.61,5.3-7,9.23-9.23c3.92-2.23,8.4-3.34,13.42-3.34s9.49,1.12,13.42,3.34c3.92,2.23,7,5.31,9.23,9.23s3.38,8.46,3.44,13.61c0,5.08-1.13,9.59-3.39,13.51-2.26,3.93-5.34,7-9.23,9.23s-8.38,3.34-13.46,3.34Zm0-7.72c3.45,0,6.49-.79,9.13-2.35,2.64-1.57,4.71-3.74,6.21-6.5,1.51-2.76,2.26-5.93,2.26-9.51s-.75-6.76-2.26-9.56c-1.51-2.79-3.58-4.97-6.21-6.54-2.64-1.57-5.68-2.35-9.13-2.35s-6.42.79-9.09,2.35c-2.67,1.57-4.76,3.75-6.26,6.54-1.51,2.8-2.26,5.98-2.26,9.56s.75,6.75,2.26,9.51,3.59,4.93,6.26,6.5c2.67,1.57,5.7,2.35,9.09,2.35Z"/>
  <path class="cls-1" d="m112.06,63.44c-1.26,0-2.29-.44-3.11-1.32-.82-.88-1.23-1.92-1.23-3.11s.41-2.21,1.23-3.06,1.85-1.27,3.11-1.27h44.54c1.19,0,2.21.43,3.06,1.27s1.27,1.87,1.27,3.06-.43,2.23-1.27,3.11c-.85.88-1.87,1.32-3.06,1.32h-44.54Z"/>
  <path class="cls-1" d="m187.58,55.05c-5.02,0-9.5-1.11-13.42-3.34-3.93-2.23-7-5.3-9.23-9.23-2.23-3.92-3.34-8.43-3.34-13.51s1.11-9.68,3.34-13.61,5.3-7,9.23-9.23c3.92-2.23,8.4-3.34,13.42-3.34s9.49,1.12,13.42,3.34c3.92,2.23,7,5.31,9.23,9.23s3.38,8.46,3.44,13.61c0,5.08-1.13,9.59-3.39,13.51-2.26,3.93-5.34,7-9.23,9.23s-8.38,3.34-13.46,3.34Zm0-7.72c3.45,0,6.49-.79,9.13-2.35,2.64-1.57,4.71-3.74,6.21-6.5,1.51-2.76,2.26-5.93,2.26-9.51s-.75-6.76-2.26-9.56c-1.51-2.79-3.58-4.97-6.21-6.54-2.64-1.57-5.68-2.35-9.13-2.35s-6.42.79-9.09,2.35c-2.67,1.57-4.76,3.75-6.26,6.54-1.51,2.8-2.26,5.98-2.26,9.56s.75,6.75,2.26,9.51,3.59,4.93,6.26,6.5c2.67,1.57,5.7,2.35,9.09,2.35Z"/>
  <path class="cls-1" d="m260.84,50.96l-35.5-21.28c-1.57-.94-2.35-2.26-2.35-3.96,0-1.44.79-2.73,2.35-3.86L260.84.58c1.51-.75,2.97-.77,4.38-.05,1.41.72,2.12,1.9,2.12,3.53,0,1.76-.69,3.08-2.07,3.95l-33.06,19.59v-4.05l33.06,19.87c1.38.94,2.07,2.2,2.07,3.77,0,1.19-.34,2.16-1.03,2.92-.69.75-1.56,1.22-2.59,1.41s-1.99,0-2.87-.56Z"/>
</svg>