<?xml version="1.0" encoding="UTF-8"?>
<svg width="349px" height="140px" viewBox="0 0 349 140" version="1.1" xmlns="http://www.w3.org/2000/svg" xmlns:xlink="http://www.w3.org/1999/xlink">
    <title>crabnebula</title>
    <defs>
        <polygon id="path-1" points="0 52.3248 347.736 52.3248 347.736 0 0 0"></polygon>
    </defs>
    <g id="Web" stroke="none" stroke-width="1" fill="none" fill-rule="evenodd">
        <g id="sponsor-logo-/-sizing-box" transform="translate(-749.000000, -136.000000)">
            <g id="crabnebula" transform="translate(749.017027, 136.000000)">
                <rect id="Rectangle-Copy-4" stroke="#FFFFFF" opacity="0.01" x="0.5" y="0.5" width="347" height="139"></rect>
                <g id="Group-21" transform="translate(0.034055, 43.837600)">
                    <path d="M88.329,45.00756 C85.8666,45.00756 83.5494,44.53716 81.3774,43.59756 C79.2066,42.65796 77.3106,41.37756 75.6906,39.75756 C74.103,38.13636 72.8382,36.25716 71.8986,34.11756 C70.959,31.94676 70.4898,29.62956 70.4898,27.16596 C70.4898,24.70236 70.959,22.40196 71.8986,20.26236 C72.8382,18.09156 74.103,16.19556 75.6906,14.57436 C77.3106,12.95436 79.2066,11.67396 81.3774,10.73436 C83.5494,9.79356 85.8666,9.32436 88.329,9.32436 C90.111,9.32436 91.8126,9.55116 93.4326,10.00476 C95.0862,10.45836 96.5922,11.10636 97.9542,11.94876 C99.3474,12.75996 100.5954,13.74756 101.697,14.91516 C102.7986,16.04916 103.7226,17.32956 104.4678,18.75516 L97.6626,22.44996 C96.6906,20.70036 95.4258,19.32276 93.8706,18.31836 C92.3478,17.31276 90.4998,16.81116 88.329,16.81116 C86.9034,16.81116 85.575,17.08596 84.3426,17.63676 C83.1438,18.18876 82.0902,18.94956 81.183,19.92156 C80.2758,20.86236 79.563,21.96396 79.0446,23.22756 C78.5262,24.45996 78.267,25.77156 78.267,27.16596 C78.267,28.55916 78.5262,29.88756 79.0446,31.15236 C79.563,32.38356 80.2758,33.48516 81.183,34.45836 C82.0902,35.39796 83.1438,36.14316 84.3426,36.69396 C85.575,37.24596 86.9034,37.52076 88.329,37.52076 C90.4998,37.52076 92.3478,37.01796 93.8706,36.01356 C95.4258,35.00916 96.6906,33.63156 97.6626,31.88196 L104.4678,35.57676 C103.7226,37.00236 102.7986,38.29836 101.697,39.46596 C100.5954,40.59996 99.3474,41.58876 97.9542,42.43116 C96.5922,43.24116 95.0862,43.87356 93.4326,44.32716 C91.8126,44.78076 90.111,45.00756 88.329,45.00756" id="Fill-1" fill="#FFFFFF"></path>
                    <path d="M108.354,20.11656 L115.6944,20.11656 L115.6944,23.76216 C116.0832,22.69296 116.796,21.76896 117.8328,20.99136 C118.902,20.21376 120.1176,19.82496 121.4784,19.82496 C121.8348,19.82496 122.208,19.84056 122.5968,19.87296 C122.9856,19.90536 123.4068,19.98696 123.8604,20.11656 L123.8604,27.55416 C123.3096,27.35976 122.7756,27.21456 122.256,27.11736 C121.7376,27.02016 121.1868,26.97096 120.6036,26.97096 C119.016,26.97096 117.8004,27.52176 116.958,28.62456 C116.1156,29.72616 115.6944,31.15176 115.6944,32.90256 L115.6944,44.42376 L108.354,44.42376 L108.354,20.11656 Z" id="Fill-3" fill="#FFFFFF"></path>
                    <path d="M138.57708,38.29872 C140.22948,38.29872 141.55788,37.73112 142.56348,36.59712 C143.60028,35.46312 144.11868,34.02072 144.11868,32.26992 C144.11868,30.52032 143.60028,29.07792 142.56348,27.94392 C141.55788,26.80872 140.22948,26.24232 138.57708,26.24232 C136.92468,26.24232 135.57948,26.80872 134.54268,27.94392 C133.53828,29.07792 133.03548,30.52032 133.03548,32.26992 C133.03548,34.02072 133.53828,35.46312 134.54268,36.59712 C135.57948,37.73112 136.92468,38.29872 138.57708,38.29872 M136.92468,44.95872 C135.33588,44.95872 133.84548,44.61912 132.45228,43.93752 C131.09148,43.25712 129.90828,42.34992 128.90388,41.21592 C127.89948,40.04832 127.10508,38.70432 126.52188,37.18032 C125.93868,35.62512 125.64708,33.98832 125.64708,32.26992 C125.64708,30.55272 125.93868,28.93152 126.52188,27.40872 C127.10508,25.85352 127.89948,24.50832 128.90388,23.37432 C129.90828,22.20672 131.09148,21.28392 132.45228,20.60232 C133.84548,19.92192 135.33588,19.58232 136.92468,19.58232 C137.73468,19.58232 138.47988,19.67952 139.16028,19.87392 C139.87308,20.03592 140.50548,20.26272 141.05628,20.55432 C141.63948,20.84592 142.12548,21.16992 142.51428,21.52632 C142.93548,21.88272 143.27628,22.22352 143.53548,22.54752 L143.53548,20.11632 L150.87588,20.11632 L150.87588,44.42472 L143.53548,44.42472 L143.53548,41.99352 C143.27628,42.31752 142.93548,42.65832 142.51428,43.01472 C142.12548,43.37112 141.63948,43.69512 141.05628,43.98672 C140.50548,44.27832 139.87308,44.50512 139.16028,44.66712 C138.47988,44.86152 137.73468,44.95872 136.92468,44.95872" id="Fill-5" fill="#FFFFFF"></path>
                    <path d="M169.21476,38.29872 C170.86716,38.29872 172.19676,37.73112 173.20116,36.59712 C174.23796,35.46312 174.75636,34.02072 174.75636,32.26992 C174.75636,30.52032 174.23796,29.07792 173.20116,27.94392 C172.19676,26.80872 170.86716,26.24232 169.21476,26.24232 C167.56236,26.24232 166.21716,26.80872 165.18036,27.94392 C164.17596,29.07792 163.67316,30.52032 163.67316,32.26992 C163.67316,34.02072 164.17596,35.46312 165.18036,36.59712 C166.21716,37.73112 167.56236,38.29872 169.21476,38.29872 M170.86716,44.95872 C170.05716,44.95872 169.29636,44.86152 168.58236,44.66712 C167.90196,44.50512 167.27076,44.27832 166.68756,43.98672 C166.13676,43.69512 165.64956,43.37112 165.22956,43.01472 C164.80716,42.65832 164.48316,42.31752 164.25636,41.99352 L164.25636,44.42472 L156.91716,44.42472 L156.91716,7.96272 L164.25636,7.96272 L164.25636,22.54752 C164.48316,22.22352 164.80716,21.88272 165.22956,21.52632 C165.64956,21.16992 166.13676,20.84592 166.68756,20.55432 C167.27076,20.26272 167.90196,20.03592 168.58236,19.87392 C169.29636,19.67952 170.05716,19.58232 170.86716,19.58232 C172.45596,19.58232 173.92956,19.92192 175.29156,20.60232 C176.68476,21.28392 177.88356,22.20672 178.88796,23.37432 C179.89236,24.50832 180.68676,25.85352 181.26996,27.40872 C181.85316,28.93152 182.14476,30.55272 182.14476,32.26992 C182.14476,33.98832 181.85316,35.62512 181.26996,37.18032 C180.68676,38.70432 179.89236,40.04832 178.88796,41.21592 C177.88356,42.34992 176.68476,43.25712 175.29156,43.93752 C173.92956,44.61912 172.45596,44.95872 170.86716,44.95872" id="Fill-7" fill="#FFFFFF"></path>
                    <polygon id="Fill-9" fill="#FFFFFF" points="211.29096 44.42412 194.47176 23.08212 194.47176 44.42412 186.74256 44.42412 186.74256 9.90732 193.40256 9.90732 210.17256 31.24932 210.17256 9.90732 217.95096 9.90732 217.95096 44.42412"></polygon>
                    <path d="M240.13116,29.20764 C239.80716,27.91164 239.15916,26.98764 238.18716,26.43684 C237.21516,25.85364 236.19396,25.56204 235.12476,25.56204 C234.57276,25.56204 234.02316,25.62564 233.47236,25.75644 C232.92036,25.88604 232.40196,26.09604 231.91596,26.38764 C231.42996,26.67924 230.99196,27.05244 230.60436,27.50604 C230.24676,27.95964 229.98756,28.52724 229.82556,29.20764 L240.13116,29.20764 Z M235.46436,44.95884 C233.68236,44.95884 231.99756,44.66724 230.40876,44.08404 C228.85356,43.50084 227.49276,42.65844 226.32636,41.55564 C225.15996,40.45404 224.23596,39.12444 223.55556,37.56924 C222.87516,35.98164 222.53436,34.21524 222.53436,32.27004 C222.53436,30.45564 222.84276,28.78644 223.45836,27.26244 C224.10636,25.70724 224.99796,24.36204 226.13196,23.22804 C227.29836,22.09404 228.65916,21.20244 230.21436,20.55444 C231.77076,19.90644 233.47236,19.58124 235.31916,19.58124 C236.90676,19.58124 238.42956,19.84164 239.88876,20.36004 C241.37916,20.84604 242.67516,21.59124 243.77676,22.59564 C244.87836,23.56884 245.75316,24.80004 246.40236,26.29044 C247.08276,27.74964 247.42236,29.46684 247.42236,31.44444 C247.42236,31.76844 247.40676,32.14044 247.37436,32.56164 C247.37436,32.95164 247.34196,33.43764 247.27716,34.02084 L229.63116,34.02084 C229.85796,35.47884 230.55516,36.56484 231.72156,37.27764 C232.88796,37.95804 234.16836,38.29884 235.56156,38.29884 C236.98836,38.29884 238.20276,38.02284 239.20716,37.47204 C240.24516,36.88884 240.99036,36.24084 241.44396,35.52804 L246.88836,39.61164 C245.75316,41.23164 244.19796,42.52884 242.22156,43.50084 C240.27756,44.47284 238.02516,44.95884 235.46436,44.95884 L235.46436,44.95884 Z" id="Fill-11" fill="#FFFFFF"></path>
                    <path d="M264.3462,38.29872 C265.9986,38.29872 267.3282,37.73112 268.3326,36.59712 C269.3694,35.46312 269.8878,34.02072 269.8878,32.26992 C269.8878,30.52032 269.3694,29.07792 268.3326,27.94392 C267.3282,26.80872 265.9986,26.24232 264.3462,26.24232 C262.6938,26.24232 261.3486,26.80872 260.3118,27.94392 C259.3074,29.07792 258.8046,30.52032 258.8046,32.26992 C258.8046,34.02072 259.3074,35.46312 260.3118,36.59712 C261.3486,37.73112 262.6938,38.29872 264.3462,38.29872 M265.9986,44.95872 C265.1886,44.95872 264.4266,44.86152 263.7138,44.66712 C263.0334,44.50512 262.4022,44.27832 261.819,43.98672 C261.2682,43.69512 260.781,43.37112 260.3598,43.01472 C259.9386,42.65832 259.6146,42.31752 259.3878,41.99352 L259.3878,44.42472 L252.0474,44.42472 L252.0474,7.96272 L259.3878,7.96272 L259.3878,22.54752 C259.6146,22.22352 259.9386,21.88272 260.3598,21.52632 C260.781,21.16992 261.2682,20.84592 261.819,20.55432 C262.4022,20.26272 263.0334,20.03592 263.7138,19.87392 C264.4266,19.67952 265.1886,19.58232 265.9986,19.58232 C267.5862,19.58232 269.061,19.92192 270.423,20.60232 C271.8162,21.28392 273.015,22.20672 274.0194,23.37432 C275.0238,24.50832 275.8182,25.85352 276.4014,27.40872 C276.9846,28.93152 277.2762,30.55272 277.2762,32.26992 C277.2762,33.98832 276.9846,35.62512 276.4014,37.18032 C275.8182,38.70432 275.0238,40.04832 274.0194,41.21592 C273.015,42.34992 271.8162,43.25712 270.423,43.93752 C269.061,44.61912 267.5862,44.95872 265.9986,44.95872" id="Fill-13" fill="#FFFFFF"></path>
                    <path d="M290.75496,44.95896 C287.74056,44.95896 285.45696,43.95456 283.90056,41.94456 C282.34536,39.93576 281.56776,37.27776 281.56776,33.97176 L281.56776,20.11656 L288.90816,20.11656 L288.90816,32.70816 C288.90816,34.49016 289.18296,35.86776 289.73376,36.83976 C290.31696,37.81296 291.29016,38.29896 292.65096,38.29896 C294.04416,38.29896 295.14576,37.79616 295.95696,36.79176 C296.79936,35.78616 297.22056,34.16616 297.22056,31.93056 L297.22056,20.11656 L304.56096,20.11656 L304.56096,44.42376 L297.22056,44.42376 L297.22056,41.94456 C296.63736,42.78696 295.81056,43.50096 294.74136,44.08416 C293.67096,44.66736 292.34256,44.95896 290.75496,44.95896" id="Fill-15" fill="#FFFFFF"></path>
                    <mask id="mask-2" fill="white">
                        <use xlink:href="#path-1"></use>
                    </mask>
                    <g id="Clip-18"></g>
                    <polygon id="Fill-17" fill="#FFFFFF" mask="url(#mask-2)" points="310.5792 44.424 317.9208 44.424 317.9208 7.9632 310.5792 7.9632"></polygon>
                    <path d="M335.43684,38.29872 C337.08924,38.29872 338.41884,37.73112 339.42444,36.59712 C340.45884,35.46312 340.97964,34.02072 340.97964,32.26992 C340.97964,30.52032 340.45884,29.07792 339.42444,27.94392 C338.41884,26.80872 337.08924,26.24232 335.43684,26.24232 C333.78444,26.24232 332.43924,26.80872 331.40364,27.94392 C330.39804,29.07792 329.89644,30.52032 329.89644,32.26992 C329.89644,34.02072 330.39804,35.46312 331.40364,36.59712 C332.43924,37.73112 333.78444,38.29872 335.43684,38.29872 M333.78444,44.95872 C332.19564,44.95872 330.70524,44.61912 329.31204,43.93752 C327.95364,43.25712 326.76924,42.34992 325.76364,41.21592 C324.76044,40.04832 323.96604,38.70432 323.38284,37.18032 C322.79844,35.62512 322.50684,33.98832 322.50684,32.26992 C322.50684,30.55272 322.79844,28.93152 323.38284,27.40872 C323.96604,25.85352 324.76044,24.50832 325.76364,23.37432 C326.76924,22.20672 327.95364,21.28392 329.31204,20.60232 C330.70524,19.92192 332.19564,19.58232 333.78444,19.58232 C334.59564,19.58232 335.33964,19.67952 336.02244,19.87392 C336.73404,20.03592 337.36764,20.26272 337.91724,20.55432 C338.49924,20.84592 338.98764,21.16992 339.37644,21.52632 C339.79644,21.88272 340.13604,22.22352 340.39524,22.54752 L340.39524,20.11632 L347.73564,20.11632 L347.73564,44.42472 L340.39524,44.42472 L340.39524,41.99352 C340.13604,42.31752 339.79644,42.65832 339.37644,43.01472 C338.98764,43.37112 338.49924,43.69512 337.91724,43.98672 C337.36764,44.27832 336.73404,44.50512 336.02244,44.66712 C335.33964,44.86152 334.59564,44.95872 333.78444,44.95872" id="Fill-19" fill="#FFFFFF" mask="url(#mask-2)"></path>
                    <path d="M33.2634,24.7326 C29.2218,28.5522 24.603,31.0914 20.703,31.9362 C23.0058,40.167 31.857,40.7994 31.857,40.7994 C31.857,40.7994 37.125,39.5886 41.103,30.6498 C44.3778,23.2902 44.0922,15.6846 40.791,11.8146 C40.5162,15.555 37.821,20.4246 33.2634,24.7326 M21.8934,10.1598 C13.239,21.5706 13.2894,36.1482 22.005,42.7206 C24.2958,44.4486 26.9562,45.4506 29.7918,45.783 C21.7482,52.317 12.4818,54.3438 6.2262,50.0886 C-2.3538,44.253 -2.025,28.809 6.9606,15.5958 C14.4642,4.5618 25.6314,-1.4298 34.107,0.2922 C29.6298,2.2722 25.3326,5.625 21.8934,10.1598" id="Fill-20" fill="#FFFFFF" mask="url(#mask-2)"></path>
                </g>
            </g>
        </g>
    </g>
</svg>