<?xml version="1.0" encoding="utf-8"?>
<!-- Generator: Adobe Illustrator 27.9.0, SVG Export Plug-In . SVG Version: 6.00 Build 0)  -->
<svg version="1.1"
	 id="svg2985" xmlns:cc="http://creativecommons.org/ns#" xmlns:dc="http://purl.org/dc/elements/1.1/" xmlns:svg="http://www.w3.org/2000/svg" xmlns:sodipodi="http://sodipodi.sourceforge.net/DTD/sodipodi-0.dtd" xmlns:rdf="http://www.w3.org/1999/02/22-rdf-syntax-ns#" xmlns:inkscape="http://www.inkscape.org/namespaces/inkscape"
	 xmlns="http://www.w3.org/2000/svg" xmlns:xlink="http://www.w3.org/1999/xlink" x="0px" y="0px" viewBox="0 0 494 198.4"
	 style="enable-background:new 0 0 494 198.4;" xml:space="preserve">
<style type="text/css">
	.st0{display:none;}
	.st1{fill-rule:evenodd;clip-rule:evenodd;fill:#FFFFFF;}
	.st2{fill:#FFFFFF;}
</style>
<sodipodi:namedview  bordercolor="#666666" borderopacity="1" gridtolerance="10" guidetolerance="10" id="namedview2987" inkscape:current-layer="layer3" inkscape:cx="189.53162" inkscape:cy="116.82782" inkscape:guide-bbox="true" inkscape:pagecheckerboard="0" inkscape:pageopacity="0" inkscape:pageshadow="2" inkscape:showpageshadow="false" inkscape:window-height="1136" inkscape:window-maximized="1" inkscape:window-width="1920" inkscape:window-x="0" inkscape:window-y="27" inkscape:zoom="2.9762211" objecttolerance="10" pagecolor="#ffffff" showgrid="true" showguides="true">
	
		<inkscape:grid  dotted="true" empspacing="5" enabled="true" id="grid2833" snapvisiblegridlinesonly="true" type="xygrid" visible="true">
		</inkscape:grid>
</sodipodi:namedview>
<g id="layer1" transform="translate(-0.00185968,-0.29560251)" inkscape:groupmode="layer" inkscape:label="Image" class="st0">
	
		<image style="display:inline;overflow:visible;enable-background:new    ;" width="484" height="199" id="image3010" xlink:href="5C66E2EEC2FED4FA.png"  transform="matrix(1 0 0 1 -1.049368e-05 0.1792)">
	</image>
</g>
<g id="layer2" transform="translate(-0.00185968,-0.29560251)" inkscape:groupmode="layer" inkscape:label="Logo">
</g>
<g>
	<path class="st1" d="M154,104.6c-3.2,0-9,0-9,0V115c0,0,4.2,0.1,8.9,0.1s6.2-2.6,6.2-5.4S157.2,104.6,154,104.6z"/>
	<path class="st1" d="M158.3,90.1c0-3.4-2.1-4.7-4.8-4.7h-8.5V95h8.5C156.7,95,158.3,93.5,158.3,90.1z"/>
	<path class="st1" d="M81.5,0C47.7,0,17.9,16.9,0,42.6c0,2,0,107.3,0,113.2c17.9,25.8,47.7,42.6,81.5,42.6
		c54.8,0,99.2-44.4,99.2-99.2C180.7,44.4,136.3,0,81.5,0z M51.8,126.1L9,125.9V74.7h41.9v10.8H24.6v8.2h24.2v10.8H24.8v9.9h27V126.1
		z M118.2,125.9h-12.9V85.7l-10,40.2H83.5L73.4,86.1V126l-12.9-0.1V74.7h20.6l8.2,30.1l8.5-30h20.4V125.9z M158.4,125.6
		c-10.2,0-29.5,0.4-29.5,0.4V74.6c0,0,21,0.1,30.1,0.1s15.4,5.2,15.4,12.8s-8.6,11.1-8.6,11.1s10.4,1.4,10.4,12.9
		S168.6,125.6,158.4,125.6z"/>
</g>
<path id="path3802" inkscape:connector-curvature="0" class="st2" d="M402.9,126.8V75.2h20.8l8.1,32.4l8.6-32.4h20.2v51.6h-12.5
	V86.3l-10.6,40.4h-11.4l-10.2-40.9v41H402.9z M364.2,109.4c0.9,10.6,16.4,10.1,16.6,3.5c0.1-4.5-5.1-5.4-13.2-7.8
	c-7.1-2.1-16-5.6-16-14.5c0-10.4,9.1-16.1,21.3-16.1s20.1,4.8,21.2,15.3h-14.8c-1.9-7.6-13.3-7-13.1-1.9c0.1,3.4,4.6,4.1,14.6,6.7
	s15.2,6.9,15.2,15.7s-6.9,17.6-22.4,17.6s-23.8-6.2-23.8-17.9L364.2,109.4z M316.9,74.5c-11.4,0-26.4,5.2-26.4,26.8
	c0,22,16.2,26.4,27.1,26.4s25.8-4.4,25.8-26.1S328.2,74.5,316.9,74.5z M316.9,86.3c4.4,0,10.6,2.4,10.6,14.6
	c0,12.8-5.6,14.9-10.4,14.9c-4.6,0-11.2-1.9-11.2-13.9C305.9,88.5,312.6,86.3,316.9,86.3z M270,93.4c0,0-1.3-7.2-9.1-7.2
	s-10.6,6.2-10.6,15.1s1.9,14.6,9.6,14.6s10.6-9.7,10.6-9.7l13.8,4c0,0-2.1,17.6-23.2,17.6s-26.6-14.4-26.6-25.8s5.1-27.6,25.9-27.6
	s23.1,16.1,23.1,16.1L270,93.4z M184.6,126.8V75.5h41.7v10.7h-26v8.2h23.9v10.9h-23.8v10.1h26.9v11.4H184.6z"/>
<path id="path3605" class="st2" d="M479.5,52.2c-1.6,0-3,0.3-4.4,0.9c-1.4,0.6-2.6,1.4-3.7,2.5c-1.1,1.1-2,2.4-2.6,3.7
	c-0.6,1.3-0.8,2.8-0.8,4.4c0,1.6,0.3,3,0.8,4.4c0.6,1.3,1.4,2.6,2.6,3.7c1.1,1.1,2.4,2,3.7,2.5c1.4,0.6,2.8,0.8,4.4,0.8
	c1.6,0,3.1-0.3,4.4-0.8c1.3-0.6,2.6-1.4,3.7-2.5c1.1-1.1,2-2.4,2.5-3.7c0.6-1.4,0.9-2.8,0.9-4.4c0-1.6-0.3-3.1-0.9-4.4
	c-0.6-1.4-1.4-2.6-2.5-3.7c-1.1-1.1-2.4-2-3.8-2.6C482.6,52.5,481.1,52.2,479.5,52.2 M478.4,58h-0.7v4h0.7c1,0,1.8-0.2,2.3-0.5
	c0.5-0.4,0.8-0.9,0.8-1.5c0-0.7-0.3-1.2-0.8-1.5C480.2,58.1,479.5,58,478.4,58 M479.1,55.3c2.3,0,4,0.4,5.1,1.2
	c1.1,0.8,1.7,1.9,1.7,3.5c0,1.1-0.3,2-1,2.8c-0.7,0.7-1.6,1.2-2.9,1.4c0.5,0.3,1,0.7,1.5,1.2c0.5,0.5,0.9,1.2,1.3,1.9l2.2,4.3h-4.5
	l-2.1-4.2c-0.5-1-0.9-1.7-1.3-2.1c-0.4-0.4-0.8-0.6-1.1-0.6h-0.2v7h-4.2V55.3H479.1 M479.5,49.2c2,0,3.8,0.4,5.5,1.1
	c1.7,0.7,3.3,1.8,4.7,3.2c1.4,1.4,2.5,3,3.2,4.7c0.7,1.7,1.1,3.6,1.1,5.6c0,2-0.4,3.8-1.1,5.5c-0.7,1.7-1.8,3.2-3.2,4.7
	c-1.4,1.4-3,2.5-4.7,3.2c-1.7,0.7-3.5,1.1-5.5,1.1c-2,0-3.8-0.4-5.5-1.1c-1.7-0.7-3.3-1.8-4.7-3.2c-1.4-1.4-2.5-3-3.2-4.7
	c-0.7-1.7-1.1-3.5-1.1-5.5c0-2,0.4-3.9,1.1-5.6c0.7-1.7,1.8-3.3,3.2-4.7c1.4-1.4,3-2.5,4.7-3.2C475.7,49.5,477.5,49.2,479.5,49.2"/>
</svg>
