<?xml version="1.0" encoding="UTF-8"?>
<svg width="258px" height="84px" viewBox="0 0 258 84" version="1.1" xmlns="http://www.w3.org/2000/svg" xmlns:xlink="http://www.w3.org/1999/xlink">
    <title>Group 28</title>
    <defs>
        <polygon id="path-1" points="0 0 21.0907679 0 21.0907679 63.0806118 0 63.0806118"></polygon>
    </defs>
    <g id="Web" stroke="none" stroke-width="1" fill="none" fill-rule="evenodd">
        <g id="sponsor-logo-/-sizing-box" transform="translate(-445.000000, -1346.000000)">
            <g id="Group-28" transform="translate(445.000000, 1346.000000)">
                <path d="M91.2582369,41.4037212 C91.2582369,34.7743084 91.2582369,28.1448956 91.2582369,21.5164036 C91.2582369,21.0035449 91.3836455,20.5514558 91.857616,20.2678642 C92.1019783,20.1214647 92.3749263,20.0708233 92.6543292,20.0680611 C93.3237896,20.0616158 93.9932499,20.0606951 94.6627103,20.0671403 C95.5267383,20.0754271 96.0062416,20.561584 96.0062416,21.4215662 C96.0062416,26.6947116 96.0062416,31.9669362 96.0053195,37.2400816 C96.0053195,37.4886846 96.0154629,37.7345253 96.0505035,37.9812868 C96.1178184,38.4545532 96.2976321,38.6313376 96.7826681,38.6340998 C97.8541736,38.6387036 98.925679,38.6350206 99.9971844,38.6359413 C102.168781,38.6359413 104.340378,38.6350206 106.511052,38.6368621 C106.725907,38.6368621 106.934306,38.6166055 107.112276,38.4895418 C107.240451,38.3974666 107.319753,38.2657991 107.328974,38.1019053 C107.348339,37.7501781 107.384302,37.3975302 107.385224,37.0448823 C107.388912,31.8389517 107.387068,26.6330212 107.387068,21.4270907 C107.387068,20.6030179 107.730097,20.1417212 108.550785,20.0901591 C109.452621,20.0330725 110.366443,19.9925594 111.268278,20.12791 C111.804031,20.2080154 112.151671,20.647214 112.196855,21.1784877 C112.243883,21.7410671 112.231895,22.3036464 112.231895,22.8671465 C112.232818,35.5330079 112.232818,48.1988692 112.230973,60.8647306 C112.230973,61.1510844 112.216219,61.4374382 112.185789,61.7219505 C112.122163,62.3020241 111.614996,62.7310944 110.955679,62.743985 C110.171875,62.758717 109.38715,62.7605585 108.602424,62.743985 C107.827842,62.7264907 107.38799,62.257828 107.38799,61.4834758 C107.387068,55.8199316 107.38799,50.1554667 107.385224,44.4910018 C107.385224,44.1190181 107.352949,43.7470344 107.332663,43.3759714 C107.312376,42.9975425 107.133484,42.8041846 106.754492,42.7526225 C106.669657,42.7406527 106.582978,42.7461772 106.49722,42.7461772 C103.291925,42.7461772 100.087552,42.7461772 96.8822573,42.7452565 C96.7282629,42.7452565 96.577035,42.7517017 96.4304176,42.8032638 C96.2100305,42.8815277 96.0929211,43.0389763 96.0634132,43.2691642 C96.023762,43.5812991 96.0034753,43.8943547 96.0034753,44.2101726 C96.0071638,49.9317241 95.9979425,55.6541963 96.0154629,61.3757478 C96.0173071,62.1390511 95.5212056,62.7651623 94.6461121,62.7504302 C94.0052375,62.7393812 93.3643629,62.7485887 92.7225662,62.7485887 C91.7395845,62.7467472 91.2582369,62.2697978 91.2582369,61.2910387 C91.2582369,54.6625467 91.2582369,48.0331339 91.2582369,41.4037212" id="Fill-1" fill="#FFFFFF"></path>
                <path d="M153.060863,51.4794157 C153.060863,54.4497609 153.060863,57.4210269 153.060863,60.3913721 C153.060863,61.2771353 152.779616,61.6592473 151.924809,61.8995635 C150.35628,62.3415244 148.779452,62.7595457 147.159284,62.9602696 C146.290645,63.0679975 145.418318,63.1582312 144.543225,63.2199216 C143.768643,63.2742459 142.99406,63.2816119 142.223167,63.2558309 C140.695211,63.2042688 139.176476,63.055107 137.729667,62.5109427 C136.544741,62.0652988 135.478768,61.4327424 134.607363,60.4926548 C133.842002,59.6667405 133.333913,58.6907436 132.883918,57.6760751 C132.527979,56.8741003 132.37214,56.0270087 132.294682,55.157819 C132.151753,53.552028 132.089049,51.9443954 132.057697,50.332159 C132.032799,49.033899 132.016201,47.735639 132.015279,46.437379 C132.011591,42.4827502 132.009746,38.5281213 132.036488,34.5744132 C132.045709,33.1251499 132.104725,31.6749659 132.196015,30.2284648 C132.283617,28.8445749 132.350009,27.449636 132.762198,26.1099421 C133.43258,23.9323642 134.732772,22.2344979 136.713489,21.0817167 C138.118803,20.2631684 139.647681,19.8294943 141.262316,19.6573137 C142.456463,19.5311707 143.644156,19.5726046 144.82816,19.7236079 C146.52302,19.9399845 148.140422,20.4224585 149.547579,21.4177911 C151.366926,22.7040813 152.523266,24.4507475 153.002769,26.6356914 C153.287705,27.9348722 153.425101,29.2451019 153.406659,30.5746675 C153.395593,31.3573065 152.928078,31.8425427 152.138741,31.8535917 C151.449917,31.86372 150.761092,31.856354 150.072267,31.856354 C148.920537,31.856354 148.513881,31.477925 148.493594,30.3214608 C148.479762,29.5867008 148.444722,28.8547032 148.30917,28.1328338 C148.077717,26.8981057 147.645242,25.7591357 146.637363,24.9286176 C145.911653,24.3310497 145.055925,23.9866886 144.14118,23.8522588 C143.129612,23.703097 142.102369,23.6911272 141.098178,23.9489377 C139.715918,24.3043479 138.553122,24.9811005 137.835711,26.2710737 C137.429978,27.0012299 137.264918,27.8050462 137.165329,28.6208322 C136.939409,30.4798301 136.965229,32.3498769 136.91359,34.2180822 C136.842586,36.7676439 136.866562,39.3181263 136.888692,41.8667672 C136.90068,43.2119856 136.889615,44.5599662 136.941253,45.9042637 C136.985515,47.0690147 136.946786,48.2346865 136.998425,49.397596 C137.047297,50.5052603 137.015945,51.6129247 137.051908,52.7187476 C137.086026,53.7582764 137.237254,54.7784693 137.547087,55.781168 C137.968497,57.1392769 138.926581,57.9946553 140.159458,58.5342158 C141.526043,59.1317837 142.994982,59.2892322 144.478676,59.2017608 C145.468113,59.1428327 146.440951,58.9513163 147.393503,58.659438 C148.403226,58.3491447 148.279662,58.1023832 148.366341,57.3740686 C148.388472,57.1954427 148.37003,57.0112924 148.37003,56.8299043 C148.370952,53.4958621 148.370952,50.1627407 148.37003,46.8286985 C148.37003,46.5423447 148.366341,46.2578324 148.32669,45.9723994 C148.256609,45.4742727 148.10907,45.3269524 147.60098,45.3260316 C146.520254,45.3232694 145.438605,45.3333976 144.357878,45.3214279 C143.814749,45.3149826 143.313114,45.1906811 143.006048,44.6732186 C142.816091,44.3509555 142.852054,43.9891001 142.826234,43.6410559 C142.791194,43.1558197 142.82439,42.668742 142.864041,42.1835058 C142.912914,41.5785719 143.41547,41.1605506 144.104295,41.1587091 C145.777946,41.1550261 147.452519,41.1577884 149.12617,41.1568676 C150.006796,41.1568676 150.8865,41.1559469 151.767126,41.1577884 C152.606257,41.1587091 153.059019,41.6089567 153.059941,42.4523653 C153.061785,45.4613821 153.060863,48.4703989 153.060863,51.4794157" id="Fill-3" fill="#FFFFFF"></path>
                <path d="M182.162287,41.4070359 C182.162287,48.0649919 182.163209,54.722948 182.161365,61.380904 C182.161365,61.9296721 182.006448,62.401097 181.447643,62.634968 C181.262296,62.7132319 181.065884,62.7491412 180.862095,62.7491412 C180.144685,62.7472997 179.427274,62.7519034 178.709863,62.7472997 C177.922371,62.7417752 177.472376,62.28232 177.472376,61.4913943 C177.471454,55.6832921 177.470532,49.8761107 177.475142,44.0680085 C177.475142,43.7890207 177.433647,43.5164782 177.406905,43.2411734 C177.385696,43.027559 177.254755,42.8765557 177.044511,42.8038163 C176.897894,42.7531749 176.747588,42.7448882 176.592672,42.7448882 C173.368934,42.7458089 170.145197,42.7458089 166.921459,42.7467297 C166.808038,42.7467297 166.690929,42.7513334 166.581196,42.7780352 C166.238167,42.8618237 166.102615,43.0321627 166.09155,43.3848107 C166.084173,43.6140779 166.082328,43.843345 166.082328,44.0726122 C166.081406,49.6993263 166.082328,55.3251196 166.079562,60.950913 C166.079562,61.2271385 166.062042,61.5052055 166.021468,61.7777481 C165.932945,62.3642669 165.482027,62.7316469 164.817177,62.7436167 C164.051816,62.7583487 163.286455,62.7601902 162.521094,62.7436167 C161.81936,62.7288846 161.386885,62.2666673 161.345389,61.5254621 C161.339856,61.4306246 161.342623,61.3348665 161.342623,61.2391083 C161.342623,48.0189543 161.342623,34.7988004 161.343545,21.5786465 C161.343545,21.4451374 161.33709,21.3097869 161.355532,21.1790402 C161.451433,20.5142574 161.780631,20.1358284 162.478677,20.0916323 C163.35377,20.0363872 164.238085,19.9940327 165.111334,20.1247794 C165.676595,20.2094886 165.972596,20.5888383 166.039911,21.1624667 C166.08325,21.5252428 166.080484,21.8861775 166.081406,22.248033 C166.082328,27.2633679 166.081406,32.277782 166.082328,37.2931169 C166.082328,37.5122559 166.085095,37.7323155 166.090627,37.9523752 C166.100771,38.3814455 166.30917,38.6005845 166.735191,38.6328108 C166.792362,38.6374145 166.850456,38.635573 166.907627,38.635573 C170.141508,38.635573 173.374467,38.635573 176.608348,38.635573 C177.064798,38.6346523 177.350656,38.4772037 177.404139,38.1770386 C177.44379,37.9523752 177.454856,37.7221873 177.469609,37.4938408 C177.478831,37.3603318 177.472376,37.2259021 177.472376,37.0923931 C177.472376,31.8579192 177.478831,26.6234454 177.464999,21.3889716 C177.463155,20.5160989 177.969399,20.0759796 178.797465,20.0676928 C179.466925,20.0603268 180.136385,20.0621683 180.806768,20.066772 C181.705837,20.0741381 182.162287,20.5354347 182.162287,21.4340884 C182.162287,28.0911237 182.162287,34.7490798 182.162287,41.4070359" id="Fill-5" fill="#FFFFFF"></path>
                <path d="M243.009872,47.6222024 C242.961921,49.0677827 243.049523,50.5658458 243.079031,52.0639089 C243.106694,53.4800252 243.270832,54.8933791 243.650746,56.2689823 C243.999308,57.5359367 244.81262,58.3729001 246.043652,58.8010497 C246.840365,59.0781959 247.667508,59.3056216 248.512172,59.1988144 C249.904576,59.0229508 251.2103,58.610454 252.032833,57.3416581 C252.450554,56.6971319 252.627601,55.9596097 252.717969,55.2082762 C252.847988,54.1273137 252.836923,53.0380643 252.84891,51.9506565 C252.850755,51.7324383 252.870119,51.5105371 252.917147,51.2987642 C253.035179,50.7564414 253.504539,50.4028727 254.155557,50.3899822 C255.02604,50.3734087 255.896523,50.3715672 256.767006,50.3899822 C257.525912,50.4065558 257.983284,50.8963957 257.98605,51.6550952 C257.988817,52.4294474 258.020169,53.2047204 257.978673,53.9763104 C257.909514,55.2773326 257.856953,56.5866416 257.408802,57.8324188 C256.956963,59.089245 256.178692,60.1131209 255.1911,61.0145369 C254.51334,61.6332821 253.731381,62.0448581 252.923602,62.4352569 C252.174839,62.7971123 251.363372,62.9462741 250.556516,63.0733379 C249.729373,63.2040846 248.885631,63.2823485 248.048345,63.254726 C246.345186,63.1994809 244.675223,62.9803419 243.08733,62.2732046 C241.060506,61.3699471 239.684701,59.9077933 238.945159,57.8222905 C238.623339,56.9162708 238.469344,55.98447 238.368833,55.0351749 C238.140147,52.887061 238.189941,50.7306604 238.130004,48.5761012 C238.055312,45.8930306 238.154901,43.2090392 238.075598,40.5268892 C237.992607,37.7287246 238.050701,34.9314807 238.033181,32.1342368 C238.024882,30.7991468 238.130926,29.4686605 238.249879,28.1390949 C238.333792,27.1980866 238.43707,26.2635235 238.743214,25.3639491 C239.444027,23.3134349 240.745141,21.7518399 242.653011,20.7316469 C243.68302,20.1810373 244.805243,19.8661402 245.973571,19.7142162 C246.656863,19.6249033 247.343844,19.5586091 248.026214,19.5668959 C249.285832,19.5816279 250.527008,19.751967 251.749741,20.1018527 C252.944811,20.4443723 254.042136,20.9489443 254.993765,21.7407908 C256.454406,22.9571039 257.402347,24.4846311 257.700193,26.3795383 C257.939022,27.8923334 257.92058,29.4198606 257.921502,30.9446255 C257.921502,31.1333797 257.891072,31.3258168 257.849576,31.5108879 C257.730623,32.0375579 257.315668,32.3589003 256.710756,32.3681078 C255.868859,32.3809983 255.026962,32.3828398 254.185065,32.367187 C253.451978,32.3542965 253.013048,31.8773471 252.944811,31.1352212 C252.871041,30.3268011 252.929135,29.5137773 252.834156,28.7071987 C252.704137,27.5967721 252.572274,26.4706927 251.860396,25.5536239 C250.99729,24.4413558 249.848326,23.8262936 248.418116,23.77289 C247.488617,23.7388222 246.604302,23.9008745 245.737508,24.2516809 C244.460369,24.7700642 243.714373,25.7009442 243.412839,27.0213022 C243.157411,28.1390949 243.043068,29.2697781 242.993273,30.416114 C242.949012,31.4565635 242.986819,32.4979338 242.93518,33.5365418 C242.844812,35.3697586 242.86141,37.2038961 242.905672,39.0352714 C242.955466,41.069212 242.895529,43.1031527 242.959155,45.1352519 C242.984052,45.9464342 242.987741,46.7576165 243.009872,47.6222024" id="Fill-7" fill="#FFFFFF"></path>
                <path d="M214.781421,41.4171641 C214.781421,34.7601288 214.781421,28.1021728 214.780498,21.4451374 C214.780498,21.1136668 214.833981,20.8006112 215.040537,20.5289894 C215.32455,20.1570057 215.730284,20.0686135 216.161837,20.0676928 C218.208947,20.063089 220.256057,20.0658513 222.303167,20.0658513 C225.009595,20.0658513 227.716944,20.0650295 230.424293,20.0658513 C231.445082,20.0658513 231.87018,20.4921594 231.87018,21.5114316 C231.87018,21.9414226 231.87018,22.370493 231.87018,22.8004841 C231.87018,23.8252808 231.457992,24.2331738 230.420605,24.2331738 C228.230566,24.2331738 226.039605,24.2331738 223.849566,24.2331738 C222.701524,24.2331738 221.553482,24.2322531 220.405441,24.2340946 C219.771943,24.2340946 219.585675,24.4117997 219.584753,25.0480391 C219.581986,29.2890218 219.581986,33.5290837 219.584753,37.7700664 C219.585675,38.4633924 219.773788,38.635573 220.481055,38.635573 C223.647621,38.635573 226.813265,38.635573 229.979831,38.635573 C230.524805,38.635573 230.971112,38.8151196 231.24406,39.3169293 C231.381456,39.5701361 231.379611,39.8537276 231.395288,40.1253494 C231.42664,40.6768797 231.425718,41.2311723 231.350104,41.7827026 C231.271723,42.3600139 230.767323,42.7412052 230.049912,42.7439674 C228.892649,42.7485712 227.734464,42.7458089 226.577202,42.7458089 C224.530091,42.7458089 222.482981,42.7458089 220.435871,42.7458089 C219.788541,42.7458089 219.585675,42.9354838 219.585675,43.5698818 C219.582908,48.3449005 219.582908,53.1208399 219.584753,57.8967793 C219.585675,58.5109208 219.777476,58.6950711 220.392531,58.6950711 C224.00817,58.6959919 227.62381,58.6950711 231.239449,58.6959919 C231.681145,58.6959919 232.095178,58.765969 232.394867,59.144398 C232.63923,59.4519291 232.641074,59.8220713 232.657672,60.179323 C232.681647,60.6931025 232.677037,61.2078027 232.616177,61.722503 C232.549784,62.2915275 232.111776,62.6984998 231.490266,62.7454582 C231.433095,62.7500619 231.375001,62.7485842 231.317829,62.7485842 C226.248004,62.7485842 221.178179,62.7491412 216.108354,62.7472997 C215.33746,62.7472997 214.938181,62.4287196 214.802629,61.7022464 C214.775888,61.5632129 214.782343,61.4168134 214.782343,61.2740968 C214.781421,55.372078 214.781421,49.4691384 214.781421,43.5661988 L214.781421,41.4171641 Z" id="Fill-9" fill="#FFFFFF"></path>
                <path d="M196.069266,43.3366553 C196.069266,37.32875 196.069266,31.319924 196.068343,25.3120187 C196.068343,25.1499663 196.068343,24.9897555 196.034225,24.8277032 C195.937402,24.3682481 195.791707,24.2347391 195.31497,24.2347391 C193.698491,24.2319768 192.081089,24.2328976 190.46461,24.2328976 C189.804371,24.2328976 189.144131,24.2338183 188.484814,24.2328976 C187.617098,24.2319768 187.067513,23.7872537 187.110853,22.8637397 C187.132984,22.387711 187.114542,21.9089201 187.115464,21.4310499 C187.115464,20.5839583 187.582057,20.0996429 188.429487,20.0664958 C188.476515,20.0646543 188.524466,20.0653449 188.572416,20.0653449 C195.144377,20.0653449 201.717261,20.0653449 208.289223,20.0664958 C208.732763,20.0664958 209.143107,20.154888 209.442797,20.5241094 C209.676094,20.8123048 209.680704,21.1658734 209.698225,21.5028686 C209.729577,22.0930705 209.730499,22.6860346 209.653963,23.2753157 C209.581115,23.8369743 209.071182,24.2292146 208.383279,24.2319768 C207.120894,24.2365806 205.857588,24.2328976 204.595203,24.2328976 C203.600234,24.2328976 202.605264,24.2319768 201.610295,24.2338183 C201.033969,24.2347391 200.893806,24.3599613 200.794217,24.9197784 C200.760099,25.110374 200.760099,25.2991281 200.760099,25.4897238 C200.759177,37.4493685 200.759177,49.4090133 200.761943,61.3677373 C200.761943,61.609895 200.742578,61.8428452 200.642067,62.0656671 C200.427213,62.5435373 200.022401,62.7304499 199.535521,62.7424197 C198.789525,62.7608347 198.042606,62.7589932 197.297532,62.7442612 C196.49713,62.7286084 196.069266,62.2765193 196.069266,61.476386 C196.069266,55.4298091 196.069266,49.3832322 196.069266,43.3366553" id="Fill-11" fill="#FFFFFF"></path>
                <path d="M120.072696,41.3766511 C120.072696,34.7196157 120.078229,28.0616597 120.066236,21.4046244 C120.064397,20.5335932 120.531913,20.0741381 121.408851,20.066772 C122.058947,20.0612475 122.709042,20.0621683 123.36006,20.066772 C124.147552,20.0722966 124.698981,20.4332312 124.716501,21.3061039 C124.722034,21.5814087 124.745087,21.858555 124.745087,22.1347805 C124.746009,35.0391166 124.746009,47.9425319 124.744165,60.846868 C124.744165,61.1516369 124.727567,61.4573264 124.700825,61.7611745 C124.651953,62.3090218 124.191814,62.7261224 123.577681,62.7417752 C122.783734,62.761111 121.988865,62.764794 121.195841,62.7408544 C120.494106,62.7196771 120.073618,62.2408862 120.072696,61.5208583 C120.072696,54.8058156 120.072696,48.0916937 120.072696,41.3766511" id="Fill-13" fill="#FFFFFF"></path>
                <polygon id="Fill-15" fill="#FFFFFF" points="42.1823658 21.0015192 42.1823658 9.20751761e-05 21.0915979 21.0015192"></polygon>
                <g id="Group-19" transform="translate(42.182827, 20.919388)">
                    <mask id="mask-2" fill="white">
                        <use xlink:href="#path-1"></use>
                    </mask>
                    <g id="Clip-18"></g>
                    <polygon id="Fill-17" fill="#FFFFFF" mask="url(#mask-2)" points="21.0907679 0 0 21.0594345 0 63.0807039 21.0907679 42.0203486"></polygon>
                </g>
                <polygon id="Fill-20" fill="#FFFFFF" points="42.1823658 20.9193882 21.0915979 41.9788227 21.0915979 62.9811706 42.1823658 41.9208153"></polygon>
                <polygon id="Fill-22" fill="#FFFFFF" points="0 21.0014272 0 62.9812627 21.0907679 41.9209074 21.0907679 21.0014272 21.0907679 20.9194803 21.0907679 0"></polygon>
                <polyline id="Fill-24" fill="#FFFFFF" points="63.273687 20.085095 42.1819969 20.085095 42.1819969 21.001243 43.0995081 21.001243 46.5556203 21.001243 63.273687 21.001243"></polyline>
                <polyline id="Fill-26" fill="#FFFFFF" points="62.355807 44.2109092 63.9215697 42.6520764 85.0132598 21.6506492 86.5845552 20.0853712 84.3650082 20.0853712 63.2733182 20.0853712 62.355807 20.0853712 62.355807 21.0015192 63.2733182 21.0015192 66.6492058 21.0015192 84.3650082 21.0015192 63.2733182 42.0029464"></polyline>
            </g>
        </g>
    </g>
</svg>