<svg width="120" height="136" viewBox="0 0 120 136" fill="none" xmlns="http://www.w3.org/2000/svg">
<g clip-path="url(#clip0_680_2468)">
<path fill-rule="evenodd" clip-rule="evenodd" d="M54.52 67.98H58.74L56.64 62.68L54.52 67.98Z" fill="white"/>
<path fill-rule="evenodd" clip-rule="evenodd" d="M23.3002 62.5L23.2602 62.44C23.2602 61.4 22.4202 60.84 20.9002 60.84H18.3202V64.12H20.8202C22.3802 64.12 23.3002 63.58 23.3002 62.5Z" fill="white"/>
<path fill-rule="evenodd" clip-rule="evenodd" d="M101.54 75.46C98.352 75.596 95.224 74.564 92.74 72.56L95.62 69.1C97.308 70.51 99.422 71.308 101.62 71.36C103.04 71.36 103.78 70.86 103.78 70.06C103.78 69.24 103.18 68.84 100.6 68.24C96.6 67.32 93.54 66.24 93.54 62.38C93.54 58.9 96.3 56.38 100.8 56.38C103.582 56.276 106.31 57.162 108.5 58.88L106 62.44C104.488 61.296 102.656 60.654 100.76 60.6C99.5 60.6 98.88 61.1 98.88 61.8C98.88 62.66 99.52 63.04 102.14 63.62C106.44 64.56 109.1 65.96 109.1 69.46C109.1 73.28 106.08 75.46 101.54 75.46ZM91.88 75.34H87.34L80.28 65.06V75.34H75.12V56.6H80L86.74 66.6V56.6H91.88V75.34ZM68 75.34H73.2V56.6H68V75.34ZM61.6 75.4L60.26 72.02H53L51.66 75.5H47.58H46.24H41.58L37.8 69.82H36.06V75.5H30.86L30.9 56.66H39.2C41.42 56.48 43.618 57.2 45.3 58.66C46.436 59.82 47.036 61.4 46.96 63.02C47.034 65.572 45.486 67.89 43.1 68.8L46.756 74.268L54.18 56.52H59.18L67.18 75.4H61.6ZM13.06 120.5H58.06V113H13.06V120.5ZM11.18 46.44L14.52 43.28C15.164 44.298 16.258 44.944 17.46 45.02C18.74 45.02 19.58 44.12 19.58 42.38V30.54H24.74V42.42C24.896 44.354 24.228 46.264 22.9 47.68C21.53 49.018 19.674 49.74 17.76 49.68C15.16 49.784 12.682 48.566 11.18 46.44ZM29.24 70.12C29.24 73.5 26.62 75.5 22.14 75.5H13.26V56.66H22.1C23.954 56.508 25.79 57.106 27.2 58.32C28.004 59.126 28.444 60.222 28.42 61.36C28.45 63.232 27.284 64.914 25.52 65.54C27.718 65.944 29.296 67.886 29.24 70.12ZM27.06 30.54H42.12V34.92H32.12V37.78H41.1V41.78H32.2V44.76H42.2V49.16H27L27.06 30.54ZM43.86 30.54H60.28V35.08H54.66V49.26H49.46V35.08H43.86V30.54ZM0 135.5H120V15.5H0V135.5Z" fill="white"/>
<path fill-rule="evenodd" clip-rule="evenodd" d="M38.8798 61.16H36.0998V65.7L38.8998 65.66C40.6398 65.66 41.6998 64.8 41.6998 63.42C41.6998 61.92 40.5998 61.16 38.8798 61.16Z" fill="white"/>
<path fill-rule="evenodd" clip-rule="evenodd" d="M21.5 67.76H21.46H18.32V71.22H21.56C23.16 71.22 24.04 70.6 24.04 69.5C24 68.44 23.24 67.76 21.5 67.76Z" fill="white"/>
</g>
<defs>
<clipPath id="clip0_680_2468">
<rect width="120" height="135" fill="white" transform="translate(0 0.5)"/>
</clipPath>
</defs>
</svg>
