<?xml version="1.0" encoding="UTF-8" standalone="no"?>
<!-- Created with Inkscape (http://www.inkscape.org/) -->

<svg
   version="1.1"
   id="svg2"
   width="557.70667"
   height="303.95999"
   viewBox="0 0 557.70667 303.95999"
   sodipodi:docname="Logo_MINI.eps"
   xmlns:inkscape="http://www.inkscape.org/namespaces/inkscape"
   xmlns:sodipodi="http://sodipodi.sourceforge.net/DTD/sodipodi-0.dtd"
   xmlns="http://www.w3.org/2000/svg"
   xmlns:svg="http://www.w3.org/2000/svg">
  <defs
     id="defs6" />
  <sodipodi:namedview
     id="namedview4"
     pagecolor="#ffffff"
     bordercolor="#000000"
     borderopacity="0.25"
     inkscape:showpageshadow="2"
     inkscape:pageopacity="0.0"
     inkscape:pagecheckerboard="0"
     inkscape:deskcolor="#d1d1d1" />
  <g
     id="g8"
     inkscape:groupmode="layer"
     inkscape:label="ink_ext_XXXXXX"
     transform="matrix(1.3333333,0,0,-1.3333333,0,303.96)">
    <g
       id="g10"
       transform="scale(0.1)">
      <path
         d="m 2082.51,310.512 c -400.93,0 -725.87,325.039 -725.87,725.868 0,400.92 324.94,725.96 725.87,725.96 400.92,0 725.86,-325.04 725.86,-725.96 -1.06,-400.45 -325.42,-724.81 -725.86,-725.868 M 3227.4,705.18 h -365.38 c 19.64,45.359 34.38,92.648 43.82,141.281 h 457.93 l 121.83,121.73 h -563.2 c 0,24.368 4.91,48.729 4.91,73.099 0.77,24.46 -0.86,48.92 -4.91,73.1 H 3624 l 121.73,121.73 h -844.71 c -9.53,48.63 -24.17,95.92 -43.92,141.38 h 1032.89 l 121.74,121.73 h -1217.9 c -250.01,395.53 -773.34,513.51 -1168.87,263.49 -106.23,-67.12 -196.28,-157.17 -263.5,-263.49 H 145.492 L 267.223,1377.5 H 1300.11 c -19.16,-46.13 -35.44,-93.23 -48.73,-141.38 H 406.578 l 121.828,-121.73 h 701.504 c 0,-24.37 -4.82,-48.73 -4.82,-73.1 -0.87,-24.46 0.77,-48.919 4.82,-73.099 H 669.688 l 121.734,-121.73 h 458.038 c 11.07,-48.731 27.35,-96.109 48.73,-141.281 H 937.613 L 1059.44,583.352 h 306.93 C 1616.29,187.82 2139.62,69.8398 2535.15,319.859 c 106.32,67.121 196.37,157.172 263.5,263.493 h 306.93 z m -565.12,141.281 h -77.92 V 1231.3 h 77.92 z m -414.12,0 h -77.92 V 1231.3 h 92.56 l 151,-277.749 V 1231.3 h 77.92 V 846.461 h -92.55 l -151.01,277.649 z m -165.65,0 H 2004.6 V 1231.3 h 77.91 z m -506.67,0 h -73.1 V 1231.3 h 112.1 l 97.37,-306.929 97.46,306.929 h 112.1 V 846.461 h -78.01 v 284.489 l -82.82,-282.559 h -92.55 l -92.55,287.379 v -287.379 -1.93"
         style="fill:#FFFFFF;fill-opacity:1;fill-rule:nonzero;stroke:none"
         id="path12" />
    </g>
  </g>
</svg>
