<?xml version="1.0" encoding="UTF-8"?>
<svg width="207px" height="140px" viewBox="0 0 207 140" version="1.1" xmlns="http://www.w3.org/2000/svg" xmlns:xlink="http://www.w3.org/1999/xlink">
    <title>neo4j</title>
    <defs>
        <polygon id="path-1" points="0 0 12.5115328 0 12.5115328 12.5115328 0 12.5115328"></polygon>
        <polygon id="path-3" points="5.95672817e-16 0 29.098535 0 29.098535 35.3729273 5.95672817e-16 35.3729273"></polygon>
    </defs>
    <g id="Web" stroke="none" stroke-width="1" fill="none" fill-rule="evenodd">
        <g id="sponsor-logo-/-sizing-box" transform="translate(-1177.000000, -136.000000)">
            <g id="neo4j" transform="translate(1177.051082, 136.000000)">
                <rect id="Rectangle-Copy-5" stroke="#FFFFFF" opacity="0.01" x="0.5" y="0.5" width="205" height="139"></rect>
                <g id="Group-17" transform="translate(0.000000, 35.906304)">
                    <path d="M38.3873465,14.293344 C27.1653305,14.293344 19.6199225,20.757984 19.6199225,33.4776 L19.6199225,41.231008 C20.7780665,40.727648 22.0177465,40.438944 23.2790585,40.378208 C24.5586745,40.326624 25.8291385,40.621152 26.9564985,41.231008 L26.9564985,33.4776 C26.9564985,25.288224 31.4867385,20.965984 38.3307705,20.965984 C45.1739705,20.965984 49.7042105,25.288224 49.7042105,33.4776 L49.7042105,53.306656 L57.0407865,53.306656 L57.0407865,33.4776 C57.0407865,20.757984 49.4579385,14.293344 38.2924985,14.293344" id="Fill-1" fill="#FFFFFF"></path>
                    <path d="M94.2908409,30.5392256 C92.9047289,24.7168896 87.5466489,20.7241216 81.5712249,21.0610816 C75.6473849,20.7349376 70.3600249,24.7468416 69.0787449,30.5392256 L94.2908409,30.5392256 Z M61.0216569,34.3306496 C61.0216569,22.6909696 69.4198649,14.2935936 81.4946809,14.2935936 C93.5703289,14.2935936 101.759705,22.7483776 101.759705,34.3306496 L101.759705,36.9273216 L68.7750649,36.9273216 C69.6328569,43.2147456 75.1573369,47.8007296 81.4946809,47.4862336 C86.4617209,47.4862336 89.9120249,45.9886336 92.0727289,42.7471616 L100.110681,42.7471616 C97.0963449,49.8557696 90.1965689,54.3868416 81.3623929,54.3868416 C69.4955769,54.3868416 61.0973689,45.9886336 61.0973689,34.3306496 L61.0216569,34.3306496 Z" id="Fill-3" fill="#FFFFFF"></path>
                    <path d="M139.199372,34.3306496 C139.598732,27.4741376 134.363788,21.5927296 127.507276,21.1933696 C127.025548,21.1659136 126.54382,21.1659136 126.062092,21.1933696 C119.074124,20.9163136 113.184396,26.3567616 112.90734,33.3447296 C112.894028,33.6733696 112.894028,34.0020096 112.906508,34.3306496 C112.507148,41.1971456 117.750412,47.0877056 124.61774,47.4862336 C125.098636,47.5145216 125.581196,47.5145216 126.062092,47.4862336 C134.043468,47.7142016 139.199372,42.1031936 139.199372,34.3306496 M105.7979,34.3306496 C105.7979,22.7483776 114.270988,14.2935936 126.346636,14.2935936 C137.2267,13.8626176 146.39534,22.3332096 146.826316,33.2124416 C146.841292,33.5851776 146.845452,33.9579136 146.838796,34.3306496 C146.838796,45.9894656 138.422284,54.3868416 126.346636,54.3868416 C114.270988,54.3868416 105.7979,45.9894656 105.7979,34.3306496" id="Fill-5" fill="#FFFFFF"></path>
                    <path d="M188.657612,61.0786176 L189.529548,61.0786176 C194.26862,61.0786176 195.994188,58.9179136 195.994188,53.4957696 L195.994188,16.8711296 L203.329932,16.8711296 L203.329932,53.0789376 C203.329932,62.5570816 199.652492,67.3152896 190.174348,67.3152896 L188.657612,67.3152896 L188.657612,61.0786176 Z" id="Fill-7" fill="#FFFFFF"></path>
                    <path d="M157.833926,38.6527232 C157.556038,38.9439232 157.399622,39.3308032 157.397958,39.7334912 C157.397958,40.7801472 158.246598,41.6287872 159.293254,41.6287872 L177.62471,41.6287872 L177.62471,18.1605632 C177.62471,16.8717952 176.77191,16.4349952 176.335942,16.4349952 L175.691142,16.4349952 C175.073798,16.4616192 174.508038,16.7869312 174.174406,17.3077632 L157.833926,38.6527232 Z M184.998726,56.9841792 L177.662982,56.9841792 L177.662982,47.9228672 L159.122694,47.9228672 C155.64327,48.0759552 152.379334,46.2380672 150.706182,43.1837952 C149.321734,40.3491712 149.745222,36.9637632 151.78695,34.5584512 L168.354566,12.7766912 C170.703302,9.4952832 174.932358,8.1524352 178.742918,9.4786432 C182.488582,10.6783872 185.02119,14.1711232 184.998726,18.1039872 L184.998726,41.4582272 L189.30183,41.4582272 L189.30183,47.9228672 L184.998726,47.9228672 L184.998726,56.9841792 Z" id="Fill-9" fill="#FFFFFF"></path>
                    <g id="Group-13" transform="translate(193.396684, 0.000000)">
                        <mask id="mask-2" fill="white">
                            <use xlink:href="#path-1"></use>
                        </mask>
                        <g id="Clip-12"></g>
                        <path d="M6.255808,-8.31999998e-05 C2.800512,-8.31999998e-05 0,2.8004288 0,6.2557248 C0,9.7110208 2.800512,12.5115328 6.255808,12.5115328 C9.711104,12.5115328 12.511616,9.7101888 12.511616,6.2557248 C12.511616,2.8004288 9.711104,-8.31999998e-05 6.255808,-8.31999998e-05" id="Fill-11" fill="#FFFFFF" mask="url(#mask-2)"></path>
                    </g>
                    <g id="Group-16" transform="translate(0.000000, 32.814465)">
                        <mask id="mask-4" fill="white">
                            <use xlink:href="#path-3"></use>
                        </mask>
                        <g id="Clip-15"></g>
                        <path d="M22.8617273,11.2220473 C21.5138873,11.1521593 20.1935033,11.6147513 19.1842873,12.5108153 L12.2836793,7.99971132 C12.4692153,7.44393532 12.5465913,6.85820732 12.5116473,6.27414332 C12.5216313,2.81967932 9.72943932,0.0100153173 6.27497532,0 C2.81967932,-0.0107846827 0.0100153173,2.78140732 5.95672817e-16,6.23670332 C-0.0107846827,9.69116732 2.78140732,12.5008313 6.23670332,12.5108153 C6.24335932,12.5108153 6.24918332,12.5108153 6.25583932,12.5108153 C7.59868732,12.5890233 8.91657532,12.1239353 9.91414332,11.2220473 L16.8147513,15.9611193 C16.6441913,16.5193913 16.5734713,17.1034553 16.6059193,17.6866873 C16.5709753,18.2690873 16.6416953,18.8539833 16.8147513,19.4114233 L9.91414332,24.1696313 C8.88079932,23.3276473 7.58870332,22.8658873 6.25583932,22.8617273 C2.80054332,22.8617273 5.95672817e-16,25.6622393 5.95672817e-16,29.1175353 C5.95672817e-16,32.5719993 2.80054332,35.3733433 6.25583932,35.3733433 C9.71030332,35.3733433 12.5116473,32.5719993 12.5116473,29.1175353 C12.5482553,28.5326393 12.4708793,27.9469113 12.2836793,27.3919673 L19.1842873,22.6528953 C20.2242873,23.4940473 21.5238713,23.9491513 22.8617273,23.9416633 C26.3062073,23.9416633 29.098535,21.1494713 29.098535,17.7049913 C29.098535,17.6991673 29.098535,17.6925113 29.098535,17.6866873 C29.1208633,14.1947833 26.3511353,11.3252153 22.8617273,11.2220473" id="Fill-14" fill="#FFFFFF" mask="url(#mask-4)"></path>
                    </g>
                </g>
            </g>
        </g>
    </g>
</svg>
