<?xml version="1.0" encoding="UTF-8"?>
<svg width="192px" height="140px" viewBox="0 0 192 140" version="1.1" xmlns="http://www.w3.org/2000/svg" xmlns:xlink="http://www.w3.org/1999/xlink">
    <title>realm</title>
    <defs>
        <polygon id="path-1" points="0 0 13.39481 0 13.39481 21.098462 0 21.098462"></polygon>
        <polygon id="path-3" points="0 0 15.517634 0 15.517634 20.81123 0 20.81123"></polygon>
        <polygon id="path-5" points="0 0 63.573829 0 63.573829 37.97409 0 37.97409"></polygon>
    </defs>
    <g id="Web" stroke="none" stroke-width="1" fill="none" fill-rule="evenodd">
        <g id="sponsor-logo-/-sizing-box" transform="translate(-478.000000, -136.000000)">
            <g id="realm" transform="translate(478.982973, 136.000000)">
                <rect id="Rectangle-Copy-3" stroke="#FFFFFF" opacity="0.01" x="0.5340545" y="0.5" width="189" height="139"></rect>
                <g id="Group-24" transform="translate(0.000000, 27.545951)">
                    <g id="Group-3" transform="translate(110.054923, 63.809636)">
                        <mask id="mask-2" fill="white">
                            <use xlink:href="#path-1"></use>
                        </mask>
                        <g id="Clip-2"></g>
                        <path d="M4.00367,8.10271 C4.00367,9.40049 4.22246,10.42151 4.66191,11.16577 C5.09949,11.9119 5.81383,12.28403 6.79932,12.28403 C7.41268,12.28403 7.93067,12.17183 8.35516,11.94743 C8.78152,11.7249 9.12186,11.39765 9.37805,10.96755 L9.37805,4.5254 C9.12186,4.0766 8.78152,3.72878 8.35516,3.48381 C7.93067,3.23697 7.42203,3.11355 6.82737,3.11355 C5.84936,3.11355 5.13502,3.54739 4.68248,4.41507 C4.22994,5.28275 4.00367,6.41597 4.00367,7.81473 L4.00367,8.10271 Z M0,7.81473 C0,5.47536 0.51051,3.58853 1.52966,2.15237 C2.54881,0.71808 3.97562,0 5.81383,0 C6.64411,0 7.37528,0.18513 8.00734,0.55539 C8.63753,0.92565 9.17609,1.45486 9.62489,2.13928 L9.91287,0.27489 L13.39481,0.27489 L13.39481,14.66828 C13.39481,16.6243 12.77958,18.18575 11.55099,19.35076 C10.32053,20.51577 8.63192,21.09921 6.48516,21.09921 C5.73529,21.09921 4.94054,20.99636 4.09904,20.79066 C3.25941,20.58496 2.48149,20.30259 1.76902,19.94729 L2.50954,17.13668 C3.14908,17.41157 3.78862,17.62849 4.42816,17.78744 C5.0677,17.94826 5.74464,18.0268 6.45711,18.0268 C7.43512,18.0268 8.16629,17.73134 8.65062,17.13668 C9.13495,16.54202 9.37805,15.71548 9.37805,14.65519 L9.37805,13.68279 C8.9386,14.24005 8.42248,14.66454 7.82782,14.95626 C7.23316,15.24985 6.55248,15.39571 5.78578,15.39571 C3.96627,15.39571 2.54881,14.72625 1.52966,13.38733 C0.51051,12.04841 0,10.28687 0,8.10271 L0,7.81473 Z" id="Fill-1" fill="#FFFFFF" mask="url(#mask-2)"></path>
                    </g>
                    <path d="M127.132137,76.51853 L129.050757,76.10713 L129.050757,66.9086 L126.926437,66.4972 L126.926437,64.0849 L132.779537,64.0849 L132.959057,66.25036 C133.305007,65.48366 133.753807,64.88526 134.301717,64.45516 C134.849627,64.02506 135.485427,63.81001 136.207247,63.81001 C136.416687,63.81001 136.639217,63.82684 136.871097,63.85863 C137.104847,63.89042 137.299327,63.92969 137.454537,63.97457 L137.030047,67.62107 L135.384447,67.57993 C134.799137,67.57993 134.314807,67.694 133.931457,67.92401 C133.548107,68.15215 133.254517,68.47566 133.054427,68.89641 L133.054427,76.10713 L134.973047,76.51853 L134.973047,78.91774 L127.132137,78.91774 L127.132137,76.51853 Z" id="Fill-4" fill="#FFFFFF"></path>
                    <path d="M143.63283,71.651855 C143.63283,73.003865 143.87032,74.090335 144.3453,74.907525 C144.82028,75.726585 145.58885,76.134245 146.64914,76.134245 C147.68138,76.134245 148.43873,75.722845 148.91745,74.900045 C149.39804,74.079115 149.6374,72.994515 149.6374,71.651855 L149.6374,71.363875 C149.6374,70.047395 149.3943,68.974015 148.90997,68.141865 C148.42564,67.311585 147.66268,66.894575 146.62109,66.894575 C145.5795,66.894575 144.82028,67.311585 144.3453,68.141865 C143.87032,68.974015 143.63283,70.047395 143.63283,71.363875 L143.63283,71.651855 Z M139.62916,71.363875 C139.62916,69.151665 140.24813,67.339635 141.48794,65.927785 C142.72588,64.515935 144.43693,63.810945 146.62109,63.810945 C148.8146,63.810945 150.53126,64.514065 151.7692,65.922175 C153.00714,67.328415 153.62611,69.142315 153.62611,71.363875 L153.62611,71.651855 C153.62611,73.882765 153.00714,75.698535 151.7692,77.101035 C150.53126,78.503535 148.82395,79.204785 146.64914,79.204785 C144.44628,79.204785 142.72588,78.503535 141.48794,77.101035 C140.24813,75.698535 139.62916,73.882765 139.62916,71.651855 L139.62916,71.363875 Z" id="Fill-6" fill="#FFFFFF"></path>
                    <path d="M166.727517,77.039325 C166.252537,77.733095 165.665357,78.267915 164.965977,78.643785 C164.266597,79.017785 163.469977,79.204785 162.574247,79.204785 C161.010927,79.204785 159.786077,78.705495 158.899697,77.705045 C158.013317,76.702725 157.570127,75.146885 157.570127,73.035655 L157.570127,66.909535 L155.939487,66.498135 L155.939487,64.083965 L157.570127,64.083965 L161.573797,64.083965 L161.573797,73.063705 C161.573797,74.142695 161.753317,74.916875 162.114227,75.388115 C162.475137,75.857485 163.011827,76.093105 163.724297,76.093105 C164.356357,76.093105 164.902397,75.990255 165.364287,75.784555 C165.824307,75.578855 166.202047,75.285265 166.493767,74.900045 L166.493767,66.909535 L164.739707,66.498135 L164.739707,64.083965 L166.493767,64.083965 L170.497437,64.083965 L170.497437,76.108065 L172.292637,76.517595 L172.292637,78.916805 L166.987447,78.916805 L166.727517,77.039325 Z" id="Fill-8" fill="#FFFFFF"></path>
                    <g id="Group-12" transform="translate(174.550475, 63.809823)">
                        <mask id="mask-4" fill="white">
                            <use xlink:href="#path-3"></use>
                        </mask>
                        <g id="Clip-11"></g>
                        <path d="M11.51546,7.81473 C11.51546,6.41597 11.28171,5.28275 10.81608,4.41507 C10.35045,3.54739 9.63798,3.11355 8.6768,3.11355 C8.07466,3.11355 7.56041,3.23697 7.13592,3.48194 C6.70956,3.72878 6.37483,4.08221 6.12799,4.53849 L6.12799,11.03674 C6.37483,11.45749 6.70956,11.77726 7.13592,11.99605 C7.56041,12.21484 8.08401,12.32517 8.70485,12.32517 C9.67351,12.32517 10.38411,11.94556 10.83665,11.18634 C11.28919,10.42899 11.51546,9.40049 11.51546,8.10271 L11.51546,7.81473 Z M0,2.68719 L0,0.27489 L5.81196,0.27489 L6.00457,2.00277 C6.44402,1.36323 6.96762,0.86955 7.58098,0.52173 C8.19247,0.17391 8.90681,0 9.72026,0 C11.5566,0 12.98154,0.71808 13.99695,2.15237 C15.01049,3.58853 15.51913,5.47536 15.51913,7.81473 L15.51913,8.10271 C15.51913,10.29622 15.01049,12.05963 13.99695,13.39481 C12.98154,14.72812 11.56595,15.39571 9.74644,15.39571 C8.97039,15.39571 8.28036,15.25172 7.67635,14.96374 C7.07421,14.67576 6.55809,14.25314 6.12799,13.69588 L6.12799,17.98566 L8.06157,18.39706 L8.06157,20.81123 L0.2057,20.81123 L0.2057,18.39706 L2.13928,17.98566 L2.13928,3.09859 L0,2.68719 Z" id="Fill-10" fill="#FFFFFF" mask="url(#mask-4)"></path>
                    </g>
                    <path d="M0.51612,47.723896 L5.34072,46.689786 L5.34072,23.569106 L0,22.534996 L0,16.470586 L14.71316,16.470586 L15.16009,21.914156 C16.03338,19.986186 17.15912,18.480836 18.53731,17.401846 C19.9155,16.320986 21.51248,15.780556 23.32638,15.780556 C23.85559,15.780556 24.41285,15.821696 24.99816,15.902106 C25.58347,15.982516 26.07154,16.079756 26.46237,16.195696 L25.3946,25.360566 L21.26003,25.257716 C19.79021,25.257716 18.57284,25.545696 17.60792,26.117916 C16.643,26.693876 15.90622,27.509196 15.40132,28.565746 L15.40132,46.689786 L20.22592,47.723896 L20.22592,53.754646 L0.51612,53.754646 L0.51612,47.723896 Z" id="Fill-13" fill="#FFFFFF"></path>
                    <path d="M45.759274,23.534511 C43.898624,23.534511 42.428804,24.246981 41.347944,25.670051 C40.268954,27.094991 39.603234,28.966861 39.350784,31.287531 L39.453634,31.459571 L51.790024,31.459571 L51.790024,30.563841 C51.790024,28.428301 51.288864,26.720991 50.290284,25.447521 C49.291704,24.172181 47.780744,23.534511 45.759274,23.534511 M46.655004,54.477401 C41.280624,54.477401 36.983364,52.755131 33.768834,49.308721 C30.550564,45.862311 28.944234,41.486511 28.944234,36.181321 L28.944234,34.803131 C28.944234,29.266061 30.464544,24.707001 33.508904,21.122211 C36.553264,17.539291 40.635474,15.759051 45.759274,15.7812815 C50.789574,15.7812815 54.696004,17.298061 57.474824,20.329331 C60.253644,23.362471 61.644924,27.463381 61.644924,32.632061 L61.644924,38.109291 L39.384444,38.109291 L39.315254,38.316861 C39.498514,40.775911 40.319444,42.797381 41.779914,44.381271 C43.238514,45.967031 45.218844,46.759911 47.722774,46.759911 C49.951814,46.759911 51.801244,46.535511 53.271064,46.086711 C54.740884,45.639781 56.349084,44.932921 58.095664,43.968001 L60.816514,50.170791 C59.277504,51.388161 57.285954,52.411051 54.838124,53.237591 C52.392164,54.064131 49.663834,54.477401 46.655004,54.477401" id="Fill-15" fill="#FFFFFF"></path>
                    <path d="M81.423353,47.034801 C82.939923,47.034801 84.318113,46.707551 85.557923,46.053051 C86.799603,45.398551 87.764523,44.577621 88.452683,43.588391 L88.452683,37.903591 L83.317663,37.903591 C81.182123,37.903591 79.562703,38.402881 78.459403,39.401461 C77.357973,40.401911 76.806323,41.602451 76.806323,43.003081 C76.806323,44.267201 77.213983,45.254561 78.029303,45.967031 C78.844623,46.679501 79.975973,47.034801 81.423353,47.034801 L81.423353,47.034801 Z M90.141293,53.753711 C89.866403,53.134741 89.623303,52.497071 89.417603,51.842571 C89.210033,51.186201 89.049213,50.526091 88.935143,49.860371 C87.740213,51.238561 86.287223,52.353081 84.576173,53.202061 C82.865123,54.052911 80.907233,54.477401 78.700633,54.477401 C75.048523,54.477401 72.148153,53.484431 70.001393,51.496621 C67.852763,49.510681 66.779383,46.804791 66.779383,43.382691 C66.779383,39.891401 68.180013,37.191121 70.983143,35.285591 C73.784403,33.378191 77.896533,32.424491 83.317663,32.424491 L88.452683,32.424491 L88.452683,28.772381 C88.452683,26.980921 87.936563,25.591511 86.902453,24.602281 C85.868343,23.614921 84.340553,23.121241 82.319083,23.121241 C81.170903,23.121241 80.148013,23.254011 79.252283,23.517681 C78.356553,23.781351 77.632863,24.097381 77.081213,24.465771 L76.426713,28.461961 L68.845733,28.461961 L68.881263,20.192821 C70.717603,18.951141 72.826963,17.905811 75.203733,17.056831 C77.580503,16.205981 80.170453,15.781491 82.973583,15.781491 C87.590613,15.781491 91.341833,16.912841 94.223503,19.175541 C97.107043,21.438241 98.548813,24.660251 98.548813,28.841571 L98.548813,44.242891 C98.548813,44.818851 98.554423,45.357411 98.565643,45.862311 C98.576863,46.369081 98.618003,46.851541 98.687193,47.309691 L101.753993,47.724831 L101.753993,53.753711 L90.141293,53.753711 Z" id="Fill-17" fill="#FFFFFF"></path>
                    <polygon id="Fill-19" fill="#FFFFFF" points="104.096542 6.06441 104.096542 0 119.533392 0 119.533392 46.69016 124.391652 47.72427 124.391652 53.75502 104.612662 53.75502 104.612662 47.72427 109.472792 46.69016 109.472792 7.09852"></polygon>
                    <g id="Group-23" transform="translate(126.494280, 15.780743)">
                        <mask id="mask-6" fill="white">
                            <use xlink:href="#path-5"></use>
                        </mask>
                        <g id="Clip-22"></g>
                        <path d="M0,6.75444 L0,0.69003 L14.71316,0.69003 L15.12643,5.61748 C16.32136,3.82602 17.81923,2.44222 19.62378,1.46608 C21.42646,0.48994 23.51151,0 25.87706,0 C28.26692,0 30.31083,0.52921 32.01066,1.58576 C33.71049,2.64231 34.99705,4.23929 35.87034,6.37483 C37.01852,4.37767 38.51265,2.81435 40.35086,1.68861 C42.1872,0.56474 44.34705,0 46.82854,0 C50.50309,0 53.40346,1.26973 55.52965,3.80919 C57.65397,6.34678 58.71613,10.21207 58.71613,15.40319 L58.71613,30.90923 L63.57439,31.94334 L63.57439,37.97409 L44.31339,37.97409 L44.31339,31.94334 L48.65366,30.90923 L48.65366,15.36953 C48.65366,12.54396 48.19551,10.57859 47.27547,9.47716 C46.3573,8.37386 44.99033,7.82221 43.17643,7.82221 C41.75149,7.82221 40.51729,8.13824 39.47196,8.7703 C38.42663,9.40236 37.59448,10.28126 36.97364,11.407 C36.97364,11.84271 36.98486,12.21671 37.0073,12.52526 C37.02974,12.83568 37.04283,13.15171 37.04283,13.47335 L37.04283,30.90923 L41.10821,31.94334 L41.10821,37.97409 L22.94864,37.97409 L22.94864,31.94334 L27.01589,30.90923 L27.01589,15.36953 C27.01589,12.61315 26.55587,10.66461 25.63583,9.52765 C24.71766,8.39069 23.33947,7.82221 21.50126,7.82221 C20.14551,7.82221 18.95806,8.08027 17.93517,8.59826 C16.91228,9.11438 16.06891,9.84368 15.40319,10.78616 L15.40319,30.90923 L19.74533,31.94334 L19.74533,37.97409 L0.51612,37.97409 L0.51612,31.94334 L5.37625,30.90923 L5.37625,7.78855 L0,6.75444 Z" id="Fill-21" fill="#FFFFFF" mask="url(#mask-6)"></path>
                    </g>
                </g>
            </g>
        </g>
    </g>
</svg>