<?xml version="1.0" encoding="UTF-8"?>
<svg width="309px" height="140px" viewBox="0 0 309 140" version="1.1" xmlns="http://www.w3.org/2000/svg" xmlns:xlink="http://www.w3.org/1999/xlink">
    <title>rust foundation</title>
    <defs>
        <polygon id="path-1" points="0 0 308 0 308 100 0 100"></polygon>
    </defs>
    <g id="Web" stroke="none" stroke-width="1" fill="none" fill-rule="evenodd">
        <g id="sponsor-logo-/-sizing-box" transform="translate(-90.000000, -136.000000)">
            <g id="rust-foundation" transform="translate(90.982973, 136.000000)">
                <g id="Group-3-Copy-2" transform="translate(0.000000, 20.000000)">
                    <mask id="mask-2" fill="white">
                        <use xlink:href="#path-1"></use>
                    </mask>
                    <g id="Clip-2"></g>
                    <path d="M307.903222,73.3971548 L301.373086,73.3971548 L301.373086,63.4454259 C301.373086,62.5840539 301.177943,61.9142709 300.787658,61.5310927 C300.397373,61.1479146 299.91031,60.9563255 299.423247,60.9563255 C298.837819,60.9563255 298.253978,61.1479146 297.66855,61.6261085 C297.084709,62.10586 296.597646,62.6790696 296.304139,63.4454259 L296.304139,73.3971548 L289.774003,73.3971548 L289.774003,55.6930774 L295.621933,55.6930774 L295.621933,58.2771936 C296.304139,57.3208058 297.181487,56.5544495 298.350756,56.0762556 C299.521611,55.5980617 300.886023,55.3114569 302.445577,55.3114569 C303.711623,55.3114569 304.687336,55.503046 305.369542,55.9812398 C306.051747,56.4594337 306.635589,56.9376276 307.025874,57.6074106 C307.416159,58.2771936 307.611301,58.9469766 307.806444,59.7133329 C307.903222,60.4781316 308,61.1479146 308,61.7226818 L308,73.3971548 L307.903222,73.3971548 Z M274.373606,64.4983871 C274.373606,65.6463639 274.667113,66.6027517 275.250954,67.2725347 C275.836382,67.9423177 276.615366,68.3254958 277.591078,68.3254958 C278.565205,68.3254958 279.24741,67.9423177 279.929616,67.2725347 C280.515044,66.6027517 280.806964,65.6463639 280.806964,64.4983871 C280.806964,63.3488526 280.515044,62.3924648 279.929616,61.7226818 C279.344188,61.0528988 278.565205,60.6697207 277.591078,60.6697207 C276.615366,60.6697207 275.93316,61.0528988 275.250954,61.7226818 C274.667113,62.3924648 274.373606,63.3488526 274.373606,64.4983871 L274.373606,64.4983871 Z M277.591078,73.780333 C275.93316,73.780333 274.568749,73.4921705 273.301115,73.0139767 C272.035068,72.5357828 271.059356,71.8659998 270.183594,71.0046277 C269.306246,70.1432557 268.720818,69.1868679 268.330533,68.038891 C267.940248,66.8893565 267.648327,65.7413797 267.648327,64.5934028 C267.648327,63.3488526 267.84347,62.2008757 268.330533,61.1479146 C268.720818,59.9999377 269.403024,59.0435499 270.183594,58.1821779 C270.962578,57.3208058 272.035068,56.6510228 273.301115,56.1728289 C274.568749,55.6930774 275.93316,55.4064726 277.591078,55.4064726 C279.150632,55.4064726 280.611822,55.6930774 281.879455,56.1728289 C283.145502,56.6510228 284.121215,57.3208058 284.998563,58.1821779 C285.875911,59.0435499 286.459752,59.9999377 286.850037,61.1479146 C287.240322,62.2974491 287.532243,63.4454259 287.532243,64.5934028 C287.532243,65.837953 287.3371,66.9859299 286.850037,68.038891 C286.459752,69.1868679 285.777547,70.1432557 284.998563,71.0046277 C284.121215,71.8659998 283.145502,72.5357828 281.879455,73.0139767 C280.611822,73.4921705 279.150632,73.780333 277.591078,73.780333 L277.591078,73.780333 Z M258.876431,73.3971548 L265.406568,73.3971548 L265.406568,55.6930774 L258.876431,55.6930774 L258.876431,73.3971548 Z M258.876431,54.1619224 L265.406568,54.1619224 L265.406568,48.8036586 L258.876431,48.8036586 L258.876431,54.1619224 Z M257.024957,72.440767 C256.147609,72.8223876 255.171896,73.11055 254.100992,73.3971548 C253.028501,73.6837596 252.054375,73.780333 250.981884,73.780333 C250.201314,73.780333 249.519108,73.6837596 248.935267,73.4921705 C248.253061,73.3021391 247.667633,73.0139767 247.18057,72.6323561 C246.693507,72.249178 246.303222,71.6744107 246.011301,71.0046277 C245.717794,70.3348448 245.621016,69.5700461 245.621016,68.6121006 L245.621016,60.4781316 L243.379257,60.4781316 L243.379257,55.6930774 L245.621016,55.6930774 L245.621016,50.1432245 L252.151153,50.1432245 L252.151153,55.6930774 L255.660545,55.6930774 L255.660545,60.4781316 L252.151153,60.4781316 L252.151153,66.3161469 C252.151153,66.8893565 252.247931,67.2725347 252.541438,67.5591395 C252.833358,67.7507286 253.125279,67.9423177 253.613928,67.9423177 C253.905849,67.9423177 254.296134,67.8473019 254.684833,67.7507286 C255.075118,67.6557129 255.465403,67.4641238 255.952466,67.3691081 L257.024957,72.440767 Z M231.194746,69.1868679 C231.585031,69.1868679 231.975316,69.0902945 232.365601,68.9952788 C232.7543,68.9002631 233.144585,68.708674 233.436506,68.5170849 C233.730013,68.3254958 233.925155,68.1339068 234.021933,67.9423177 C234.217076,67.7507286 234.217076,67.4641238 234.217076,67.2725347 L234.217076,65.9329687 C233.826791,65.837953 233.436506,65.6463639 232.949442,65.5497906 C232.462379,65.4547749 232.072094,65.4547749 231.683396,65.4547749 C230.902825,65.4547749 230.22062,65.6463639 229.733557,66.0279845 C229.246493,66.4111626 228.952986,66.8893565 228.952986,67.4641238 C228.952986,67.9423177 229.148129,68.3254958 229.538414,68.708674 C229.928699,69.0902945 230.610905,69.1868679 231.194746,69.1868679 L231.194746,69.1868679 Z M229.246493,73.780333 C228.369145,73.780333 227.491797,73.5887439 226.711227,73.3021391 C225.932243,73.0139767 225.250037,72.6323561 224.66461,72.0575889 C224.080769,71.579395 223.690483,70.909612 223.300198,70.239829 C222.909913,69.5700461 222.813135,68.8036897 222.813135,67.9423177 C222.813135,67.0809456 223.008278,66.2195736 223.398563,65.4547749 C223.787261,64.6884185 224.372689,64.1152089 225.054895,63.5404417 C225.7371,62.967232 226.516084,62.5840539 227.491797,62.2958914 C228.465923,62.0092866 229.441636,61.8176975 230.610905,61.8176975 C232.072094,61.8176975 233.241363,62.0092866 234.217076,62.4874805 L234.217076,61.9142709 C234.217076,61.0528988 233.925155,60.4781316 233.436506,60.0949534 C232.949442,59.7133329 232.170459,59.5217438 231.097968,59.5217438 C230.025477,59.5217438 229.148129,59.7133329 228.270781,59.9999377 C227.393432,60.2865425 226.516084,60.766294 225.541958,61.436077 L223.690483,57.4158215 C226.029021,55.8846665 228.757844,55.1198678 231.780174,55.1198678 C234.704139,55.1198678 236.84912,55.7896508 238.408674,57.034201 C239.968228,58.2771936 240.747212,60.1915268 240.747212,62.6790696 L240.747212,66.1245578 C240.747212,66.6993251 240.84399,67.177519 241.039133,67.3691081 C241.234275,67.5591395 241.527782,67.7507286 242.014845,67.7507286 L242.014845,73.11055 C241.527782,73.2055657 240.942355,73.3021391 240.552069,73.3971548 C240.161784,73.4921705 239.674721,73.4921705 239.284436,73.4921705 C238.115167,73.4921705 237.237819,73.3021391 236.653978,72.8223876 C236.06855,72.440767 235.678265,71.7709841 235.484709,71.0046277 L235.386345,70.3348448 C234.607361,71.3878059 233.631648,72.1526046 232.559157,72.6323561 C231.488253,73.11055 230.51254,73.780333 229.246493,73.780333 Z M210.435068,68.3254958 C211.604337,68.3254958 212.676828,67.7507286 213.554176,66.507736 L213.554176,63.3488526 C213.260669,62.5840539 212.773606,61.9142709 212.188178,61.436077 C211.604337,60.9563255 210.922132,60.6697207 210.239926,60.6697207 C209.752863,60.6697207 209.362578,60.766294 208.875514,60.9563255 C208.485229,61.1479146 208.094944,61.436077 207.803024,61.8176975 C207.511103,62.2008757 207.315961,62.5840539 207.120818,63.0622478 C206.925675,63.5404417 206.828897,64.0186355 206.828897,64.5934028 C206.828897,65.7413797 207.120818,66.6027517 207.803024,67.2725347 C208.485229,67.9423177 209.362578,68.3254958 210.435068,68.3254958 L210.435068,68.3254958 Z M208.680372,73.780333 C207.412739,73.780333 206.340248,73.5887439 205.269343,73.11055 C204.196853,72.6323561 203.319504,72.0575889 202.538934,71.1962168 C201.759951,70.3348448 201.174523,69.378457 200.785824,68.2289225 C200.395539,67.0809456 200.102032,65.837953 200.102032,64.4983871 C200.102032,63.1572635 200.297175,62.0092866 200.68746,60.8613098 C201.077745,59.7133329 201.661586,58.7553875 202.343792,57.9905888 C203.027584,57.1292167 203.903346,56.5544495 204.879058,56.0762556 C205.853185,55.5980617 206.925675,55.4064726 208.094944,55.4064726 C209.264213,55.4064726 210.336704,55.6930774 211.312417,56.1728289 C212.286543,56.6510228 213.065527,57.4158215 213.554176,58.3737669 L213.554176,48.8036586 L220.084312,48.8036586 L220.084312,66.3161469 C220.084312,66.8893565 220.18109,67.3691081 220.376233,67.5591395 C220.571376,67.7507286 220.863296,67.9423177 221.350359,67.9423177 L221.350359,73.3021391 C220.18109,73.4921705 219.303742,73.6837596 218.621537,73.6837596 C216.379777,73.6837596 215.11373,72.8223876 214.820223,71.1962168 L214.723445,70.5264338 C214.138017,71.579395 213.260669,72.3441937 212.188178,72.9189609 C211.01891,73.4921705 209.849641,73.780333 208.680372,73.780333 Z M197.958637,73.3971548 L191.428501,73.3971548 L191.428501,63.4454259 C191.428501,62.5840539 191.233358,61.9142709 190.843073,61.5310927 C190.452788,61.1479146 189.965725,60.9563255 189.478662,60.9563255 C188.893234,60.9563255 188.309393,61.1479146 187.723965,61.6261085 C187.140124,62.10586 186.651474,62.6790696 186.359554,63.4454259 L186.359554,73.3971548 L179.829418,73.3971548 L179.829418,55.6930774 L185.677348,55.6930774 L185.677348,58.2771936 C186.359554,57.3208058 187.236902,56.5544495 188.406171,56.0762556 C189.57544,55.5980617 190.941438,55.3114569 192.500992,55.3114569 C193.767038,55.3114569 194.742751,55.503046 195.424957,55.9812398 C196.107163,56.4594337 196.691004,56.9376276 197.081289,57.6074106 C197.471574,58.2771936 197.666716,58.9469766 197.860272,59.7133329 C197.958637,60.4781316 198.055415,61.1479146 198.055415,61.7226818 L198.055415,73.3971548 L197.958637,73.3971548 Z M163.35653,73.780333 C161.505056,73.780333 160.140644,73.2055657 159.166518,72.1526046 C158.190805,71.1012011 157.703742,69.4734727 157.703742,67.3691081 L157.703742,55.6930774 L164.233878,55.6930774 L164.233878,65.9329687 C164.233878,66.6993251 164.429021,67.3691081 164.720942,67.7507286 C165.014449,68.1339068 165.59829,68.4205116 166.183718,68.4205116 C166.670781,68.4205116 167.157844,68.3254958 167.743271,68.038891 C168.230335,67.8473019 168.815762,67.2725347 169.302825,66.6027517 L169.302825,55.6930774 L175.832962,55.6930774 L175.832962,66.3161469 C175.832962,66.8893565 175.92974,67.3691081 176.124882,67.5591395 C176.320025,67.7507286 176.613532,67.9423177 177.100595,67.9423177 L177.100595,73.3021391 C175.92974,73.4921705 175.053978,73.6837596 174.371772,73.6837596 C172.130013,73.6837596 170.862379,72.8223876 170.570459,71.1962168 L170.472094,70.5264338 C169.594746,71.6744107 168.62062,72.440767 167.451351,72.9189609 C166.183718,73.4921705 164.916084,73.780333 163.35653,73.780333 Z M142.498488,64.4983871 C142.498488,65.6463639 142.790409,66.6027517 143.375836,67.2725347 C143.961264,67.9423177 144.740248,68.3254958 145.715961,68.3254958 C146.690087,68.3254958 147.372292,67.9423177 148.054498,67.2725347 C148.639926,66.6027517 148.931846,65.6463639 148.931846,64.4983871 C148.931846,63.3488526 148.639926,62.3924648 148.054498,61.7226818 C147.46907,61.0528988 146.690087,60.6697207 145.715961,60.6697207 C144.740248,60.6697207 144.058042,61.0528988 143.375836,61.7226818 C142.790409,62.3924648 142.498488,63.3488526 142.498488,64.4983871 L142.498488,64.4983871 Z M145.715961,73.780333 C144.058042,73.780333 142.693631,73.4921705 141.425997,73.0139767 C140.159951,72.5357828 139.184238,71.8659998 138.30689,71.0046277 C137.431128,70.1432557 136.8457,69.1868679 136.455415,68.038891 C136.06513,66.8893565 135.773209,65.7413797 135.773209,64.5934028 C135.773209,63.3488526 135.968352,62.2008757 136.455415,61.1479146 C136.8457,59.9999377 137.527906,59.0435499 138.30689,58.1821779 C139.08746,57.3208058 140.159951,56.6510228 141.425997,56.1728289 C142.693631,55.6930774 144.058042,55.4064726 145.715961,55.4064726 C147.273928,55.4064726 148.736704,55.6930774 150.004337,56.1728289 C151.270384,56.6510228 152.246097,57.3208058 153.123445,58.1821779 C154.000793,59.0435499 154.584634,59.9999377 154.97492,61.1479146 C155.365205,62.2974491 155.657125,63.4454259 155.657125,64.5934028 C155.657125,65.837953 155.461983,66.9859299 154.97492,68.038891 C154.584634,69.1868679 153.902429,70.1432557 153.123445,71.0046277 C152.246097,71.8659998 151.270384,72.5357828 150.004337,73.0139767 C148.736704,73.4921705 147.372292,73.780333 145.715961,73.780333 L145.715961,73.780333 Z M118.911623,73.3971548 L118.911623,49.4734415 L135.676431,49.4734415 L135.676431,55.2148835 L125.636902,55.2148835 L125.636902,59.235139 L133.82337,59.235139 L133.82337,64.5934028 L125.636902,64.5934028 L125.636902,73.4921705 L118.911623,73.4921705 L118.911623,73.3971548 Z M192.88969,42.8706275 C192.012342,43.2538057 191.038216,43.5404105 189.965725,43.8270153 C188.893234,44.1151777 187.919108,44.2101935 186.846617,44.2101935 C186.067633,44.2101935 185.385428,44.1151777 184.8,43.9235887 C184.117794,43.7319996 183.532367,43.4453948 183.045304,43.0622166 C182.55824,42.6790384 182.167955,42.1058288 181.876035,41.4360459 C181.584114,40.7662629 181.48575,39.9999065 181.48575,39.0435188 L181.48575,30.9095497 L179.24399,30.9095497 L179.24399,26.1244955 L181.48575,26.1244955 L181.48575,20.5746426 L188.015886,20.5746426 L188.015886,26.1244955 L191.525279,26.1244955 L191.525279,30.9095497 L188.015886,30.9095497 L188.015886,36.7460074 C188.015886,37.3207746 188.11425,37.7039528 188.406171,37.9905576 C188.699678,38.1821467 188.991599,38.3737358 189.478662,38.3737358 C189.770582,38.3737358 190.160867,38.2771624 190.551153,38.1821467 C190.941438,38.0855733 191.330136,37.8939843 191.817199,37.7989685 L192.88969,42.8706275 Z M170.667237,44.2101935 C169.107683,44.2101935 167.548129,43.9235887 165.988575,43.4453948 C164.429021,42.9672009 163.161388,42.2008445 162.187261,41.2444568 L164.429021,37.4157904 C165.59829,38.1821467 166.670781,38.7553563 167.644907,39.1385345 C168.717398,39.5217127 169.594746,39.7133017 170.472094,39.7133017 C171.349442,39.7133017 171.836506,39.4251393 171.836506,38.8519297 C171.836506,38.5653249 171.641363,38.2771624 171.349442,38.0855733 C170.959157,37.8939843 170.276952,37.6073795 169.302825,37.3207746 C168.035192,36.9375965 166.962701,36.6509917 166.08694,36.2678135 C165.209591,35.8846353 164.527386,35.5030148 164.038736,35.1198366 C163.454895,34.7366585 163.161388,34.2584646 162.869467,33.7802707 C162.674325,33.3020768 162.479182,32.7273095 162.479182,32.0575266 C162.479182,31.1961545 162.674325,30.3347825 163.06461,29.5699838 C163.454895,28.8036274 163.941958,28.1338444 164.624164,27.5590772 C165.306369,26.9858676 166.08694,26.6026894 166.962701,26.2195112 C167.840049,25.8378907 168.815762,25.7413174 169.886666,25.7413174 C171.252664,25.7413174 172.518711,25.9329064 173.68798,26.2195112 C174.858835,26.6026894 176.124882,27.2724724 177.295738,28.2304178 L174.858835,32.0575266 C173.68798,31.2911702 172.812218,30.8129763 172.031648,30.5263715 C171.252664,30.2397667 170.570459,30.0481776 169.886666,30.0481776 C169.497968,30.0481776 169.204461,30.1431934 168.91254,30.2397667 C168.62062,30.4313558 168.522255,30.6213873 168.522255,30.9095497 C168.522255,31.2911702 168.717398,31.4827593 169.107683,31.7709218 C169.497968,31.9609532 170.180174,32.2491157 171.252664,32.5357205 C172.518711,32.9188986 173.68798,33.2055034 174.565328,33.5886816 C175.442676,33.9718598 176.124882,34.3534803 176.71031,34.8332318 C177.295738,35.3114257 177.587658,35.7896196 177.879579,36.2678135 C178.074721,36.8425808 178.269864,37.4157904 178.269864,38.1821467 C178.269864,39.1385345 178.074721,39.9048908 177.782801,40.6696895 C177.489294,41.4360459 176.905452,42.0092555 176.320025,42.4874494 C175.637819,42.9672009 174.858835,43.4453948 173.981487,43.6369839 C172.908996,44.0186044 171.836506,44.2101935 170.667237,44.2101935 L170.667237,44.2101935 Z M146.786865,44.2101935 C144.93539,44.2101935 143.570979,43.6369839 142.596853,42.5840227 C141.62114,41.5310616 141.134077,39.9048908 141.134077,37.7989685 L141.134077,26.1244955 L147.664213,26.1244955 L147.664213,36.3643869 C147.664213,37.1291856 147.859356,37.7989685 148.151276,38.1821467 C148.541561,38.5653249 149.028624,38.8519297 149.614052,38.8519297 C150.101115,38.8519297 150.588178,38.7553563 151.173606,38.4687515 C151.660669,38.2771624 152.246097,37.7039528 152.73316,37.0341698 L152.73316,26.1244955 L159.263296,26.1244955 L159.263296,36.7460074 C159.263296,37.3207746 159.360074,37.7989685 159.555217,37.9905576 C159.750359,38.1821467 160.043866,38.3737358 160.53093,38.3737358 L160.53093,43.7319996 C159.360074,43.9235887 158.484312,44.1151777 157.802107,44.1151777 C155.560347,44.1151777 154.292714,43.2538057 154.000793,41.6260773 L153.902429,40.9562943 C153.02508,42.1058288 152.050954,42.8706275 150.881685,43.3488214 C149.71083,43.9235887 148.346419,44.2101935 146.786865,44.2101935 L146.786865,44.2101935 Z M125.636902,30.7179606 L129.828501,30.7179606 C130.217199,30.7179606 130.607484,30.5263715 130.99777,30.0481776 C131.388055,29.5699838 131.484833,28.9952165 131.484833,28.1338444 C131.484833,27.2724724 131.28969,26.6992628 130.899405,26.2195112 C130.510706,25.7413174 130.120421,25.5497283 129.633358,25.5497283 L125.538538,25.5497283 L125.538538,30.7179606 L125.636902,30.7179606 Z M118.911623,43.8270153 L118.911623,19.9048597 L130.120421,19.9048597 C131.28969,19.9048597 132.362181,20.1914645 133.434672,20.6696584 C134.408798,21.1478523 135.286146,21.8176352 136.06513,22.5839916 C136.8457,23.3487903 137.332763,24.2101623 137.723048,25.2631235 C138.113334,26.2195112 138.30689,27.2724724 138.30689,28.3254335 C138.30689,29.7600152 138.014969,31.0045654 137.332763,32.2491157 C136.747336,33.4921082 135.871574,34.4500537 134.799083,35.2148524 L139.964808,44.0186044 L132.458959,44.0186044 L128.170582,36.6509917 L125.636902,36.6509917 L125.636902,44.0186044 L118.911623,44.0186044 L118.911623,43.8270153 Z M86.9415613,41.8176664 C85.2852294,41.8176664 83.9192315,40.4781004 83.9192315,38.8519297 C83.9192315,37.2242013 85.2852294,35.8846353 86.9415613,35.8846353 L87.0383393,35.8846353 C88.6962578,35.8846353 89.9623046,37.2242013 89.9623046,38.8519297 C89.9623046,40.4781004 88.5978932,41.8176664 86.9415613,41.8176664 L86.9415613,41.8176664 Z M47.7591573,11.7708906 C47.7591573,10.1431622 49.1235687,8.80359627 50.7799006,8.80359627 L50.8782651,8.80359627 C52.5345971,8.80359627 53.8022304,10.1431622 53.8022304,11.7708906 C53.8022304,13.3970614 52.437819,14.7366273 50.7799006,14.7366273 C49.1235687,14.7366273 47.7591573,13.3970614 47.7591573,11.7708906 L47.7591573,11.7708906 Z M79.3389342,59.904922 C77.3890952,60.0949534 75.2457002,59.1385656 74.9521931,57.8940154 C73.7829243,51.5793638 71.9314498,50.2397979 68.9091199,47.8472708 C72.6136554,45.5497594 76.511747,42.1058288 76.511747,37.4157904 C76.511747,32.4407047 73.0039406,29.2818213 70.6638164,27.7506663 C67.349566,25.6463016 63.646617,25.1681077 62.6724908,25.1681077 L23.0998017,25.1681077 C28.5574471,19.1385033 35.8681536,15.1198055 43.9578438,13.5886504 L48.6365055,18.3737046 C49.7089963,19.4251081 51.4621063,19.5216815 52.5345971,18.4687204 L57.7986865,13.5886504 C68.6171994,15.5979994 77.8761583,22.1057977 83.3353903,31.4827593 L79.7292194,39.4251393 C79.1437917,40.7662629 79.7292194,42.3924336 81.0936307,43.0622166 L88.0140521,46.0279533 C88.2091946,48.1338756 88.2091946,50.2397979 88.1108301,52.3441625 L84.3095166,52.3441625 C83.9192315,52.3441625 83.7256754,52.632325 83.7256754,52.9189298 L83.7256754,54.6416739 C83.7256754,58.7553875 81.3855513,59.7133329 79.3389342,59.904922 L79.3389342,59.904922 Z M42.4950679,43.4453948 L42.4950679,36.5544183 L55.0698638,36.5544183 C55.7520694,36.5544183 59.650161,37.3207746 59.650161,40.1914956 C59.650161,42.5840227 56.6294177,43.4453948 54.1925155,43.4453948 L42.4950679,43.4453948 Z M11.5974966,38.6603406 C11.5974966,37.0341698 12.961908,35.6930463 14.6198264,35.6930463 L14.7166044,35.6930463 C16.3745229,35.6930463 17.6405697,37.0341698 17.6405697,38.6603406 C17.6405697,40.2865113 16.2761583,41.6260773 14.6198264,41.6260773 C12.961908,41.6260773 11.5974966,40.2865113 11.5974966,38.6603406 L11.5974966,38.6603406 Z M13.8392562,45.7413485 L20.370979,42.8706275 C21.7353903,42.2974179 22.417596,40.6696895 21.7353903,39.3301236 L20.467757,36.3643869 L25.7318464,36.3643869 L25.7318464,59.7133329 L15.0101115,59.7133329 C13.7424782,55.2148835 13.3521931,50.431387 13.8392562,45.7413485 L13.8392562,45.7413485 Z M31.3846344,80.5747361 C31.3846344,82.2009069 30.020223,83.5404728 28.3623046,83.5404728 C26.7059726,83.5404728 25.3415613,82.2009069 25.3415613,80.5747361 C25.3415613,78.9470077 26.7059726,77.6074418 28.3623046,77.6074418 L28.4606691,77.6074418 C30.020223,77.7040151 31.3846344,78.9470077 31.3846344,80.5747361 L31.3846344,80.5747361 Z M76.2198264,80.7663252 C76.2198264,82.3924959 74.855415,83.7320619 73.1990831,83.7320619 C71.5411647,83.7320619 70.1767533,82.3924959 70.1767533,80.7663252 C70.1767533,79.1385968 71.5411647,77.7990308 73.1990831,77.7990308 L73.2958611,77.7990308 C74.9521931,77.7990308 76.2198264,79.1385968 76.2198264,80.7663252 L76.2198264,80.7663252 Z M71.1508795,73.9719221 C69.6896902,73.6837596 68.2269143,74.5451317 67.8382157,76.0762867 L66.2786618,83.0622789 C56.3359106,87.4641549 45.0303346,87.3691392 35.1859479,82.9672632 L33.626394,75.981271 C33.3344734,74.5451317 31.8716975,73.5887439 30.3121436,73.8753487 L24.0739279,75.2149147 C22.9046591,74.0669378 21.8321683,72.8223876 20.8580421,71.4828216 L51.3653283,71.4828216 C51.6572488,71.4828216 51.9507559,71.3878059 51.9507559,71.1012011 L51.9507559,60.4781316 C51.9507559,60.1915268 51.7556134,60.0949534 51.3653283,60.0949534 L42.3982898,60.0949534 L42.3982898,53.3971237 L52.0475339,53.3971237 C52.9248822,53.3971237 56.7261957,53.6837285 57.993829,58.4687827 C58.3825276,59.904922 59.2598759,64.7849919 59.746939,66.3161469 C60.3323667,68.038891 62.6724908,71.4828216 65.1078064,71.4828216 L80.8017102,71.4828216 C79.7292194,72.8223876 78.5599505,74.1619535 77.3890952,75.4065037 L71.1508795,73.9719221 Z M101.172689,48.8036586 L96.7859479,46.1245267 C96.7859479,45.7413485 96.6891699,45.3581703 96.6891699,44.9765498 L100.392119,41.5310616 C100.782404,41.1478834 100.879182,40.6696895 100.782404,40.1914956 C100.684039,39.7133017 100.295341,39.3301236 99.9050558,39.1385345 L95.129616,37.4157904 L94.8361089,36.2678135 L97.8584387,32.1525423 C98.1503593,31.7709218 98.2471373,31.1961545 98.0535813,30.8129763 C97.8584387,30.3347825 97.4681536,30.0481776 96.9810905,29.9516043 L91.9121436,29.1868056 C91.7170011,28.8036274 91.5218585,28.5170226 91.3283025,28.1338444 L93.4716975,23.5403793 C93.6668401,23.0621855 93.6668401,22.5839916 93.3749195,22.1057977 C93.0814124,21.6260461 92.5943493,21.4360147 92.1072862,21.4360147 L86.9415613,21.6260461 C86.7464187,21.3394413 86.4544982,21.0528365 86.2593556,20.7662317 L87.4286244,15.8846042 C87.526989,15.4064103 87.4286244,14.9282164 87.0383393,14.5450382 C86.6496407,14.1618601 86.1609911,14.0668443 85.6739279,14.1618601 L80.7033456,15.3113946 C80.411425,15.1198055 80.1179179,14.8332007 79.8259974,14.6416116 L80.0211399,9.5699526 C80.0211399,9.09020108 79.8259974,8.61200718 79.3389342,8.32540238 C78.9486491,8.03879757 78.364808,8.03879757 77.8761583,8.23038665 L73.1007186,10.4313247 C72.808798,10.2397356 72.4185129,10.0481465 72.0282278,9.85655741 L71.2492441,4.87991414 C71.1508795,4.40172025 70.858959,4.01854208 70.3718958,3.826953 C69.8848327,3.63692155 69.3977696,3.73193728 68.9091199,4.01854208 L64.7191078,6.98583643 L63.5482525,6.69923162 L61.9902851,1.91417744 C61.7951426,1.43598355 61.4048574,1.05280538 60.8194298,0.956232019 C60.3323667,0.861216295 59.8453035,1.05280538 59.4550184,1.33941019 L55.947212,4.9764875 C55.5569269,4.9764875 55.1666418,4.87991414 54.7763567,4.87991414 L52.0475339,0.574611487 C51.9507559,0.286449044 51.4621063,-0.000155763482 50.8782651,-0.000155763482 C50.2928375,-0.000155763482 49.9041389,0.286449044 49.6106318,0.669627211 L46.8818091,4.9764875 C46.4915239,4.9764875 46.1028254,5.07150323 45.7125402,5.07150323 L42.2031473,1.43598355 C41.8128622,1.05280538 41.3257991,0.956232019 40.8387359,1.05280538 C40.3516728,1.1478211 39.9613877,1.53099927 39.7662451,1.91417744 L38.0115487,6.60265826 C37.7196281,6.69923162 37.329343,6.79424734 37.0374224,6.88926307 L32.9441883,3.92352636 C32.5539032,3.63692155 31.9684755,3.54034819 31.579777,3.73193728 C31.0911273,3.92352636 30.7992067,4.30670453 30.7024287,4.78489842 L29.9218585,9.75998405 C29.5331599,9.95157313 29.2396528,10.1431622 28.8493677,10.3347513 L24.1722925,8.23038665 C23.6836428,8.03879757 23.1965797,8.03879757 22.7095166,8.32540238 C22.3192315,8.61200718 22.0273109,9.09020108 22.0273109,9.5699526 L22.2224534,14.6416116 C21.9305329,14.8332007 21.6370258,15.1198055 21.3451052,15.3113946 L16.3745229,14.1618601 C15.8874598,14.0668443 15.3988101,14.1618601 15.0101115,14.5450382 C14.6198264,14.9282164 14.5214619,15.4064103 14.6198264,15.8846042 L15.7890952,20.7662317 C15.4971746,21.0528365 15.3020321,21.3394413 15.1068895,21.6260461 L9.94116465,21.4360147 C9.45410153,21.4360147 8.9670384,21.6260461 8.67353131,22.1057977 C8.38161073,22.4874182 8.38161073,23.0621855 8.57675329,23.5403793 L10.7201484,28.1338444 C10.5265923,28.4204493 10.3314498,28.8036274 10.1363072,29.1868056 L5.06736034,29.9516043 C4.58029722,30.0481776 4.1900121,30.3347825 3.99486955,30.8129763 C3.80131352,31.2911702 3.89809153,31.7709218 4.1900121,32.1525423 L7.01719937,36.3643869 L6.7252788,37.5123637 L1.9482525,39.1385345 C1.46118938,39.3301236 1.16926881,39.7133017 1.07090427,40.1914956 C0.974126252,40.6696895 1.16926881,41.1478834 1.46118938,41.5310616 L5.16572488,44.9765498 C5.16572488,45.3581703 5.06736034,45.7413485 5.06736034,46.1245267 L0.682205682,48.8036586 C0.291920571,48.9952477 0,49.4734415 0,49.9516354 C0,50.431387 0.291920571,50.9095809 0.682205682,51.1961857 L5.06736034,53.8753176 C5.06736034,54.2584957 5.16572488,54.6416739 5.16572488,55.0232944 L1.46118938,58.4687827 C1.07090427,58.8519608 0.974126252,59.3301547 1.07090427,59.8083486 C1.07090427,60.2865425 1.46118938,60.6697207 1.9482525,60.8613098 L6.7252788,62.5840539 L7.01719937,63.7320307 L3.99486955,67.8473019 C3.70294898,68.2289225 3.60617096,68.8036897 3.80131352,69.1868679 C3.99486955,69.5700461 4.38515466,69.9516666 4.87221779,70.04824 L9.94116465,70.8130386 C10.1363072,71.1962168 10.3314498,71.4828216 10.5265923,71.8659998 L8.38161073,76.4594649 C8.18646818,76.9376588 8.18646818,77.4158527 8.47838875,77.8940466 C8.77189585,78.2772247 9.25895897,78.5653872 9.7460221,78.5653872 L14.911747,78.3737981 C15.1068895,78.6604029 15.3988101,78.9470077 15.5939527,79.2351701 L14.4246839,84.1152401 C14.3279058,84.5934339 14.4246839,85.0716278 14.814969,85.454806 C15.2052541,85.8379842 15.6923172,85.9329999 16.1793803,85.8379842 L21.1499627,84.6884497 C21.4418832,84.8800388 21.7353903,85.1682012 22.0273109,85.3582326 L21.8321683,90.4314493 C21.8321683,90.9096432 22.0273109,91.3878371 22.514374,91.6744419 C23.0014371,91.9610467 23.4900868,91.9610467 23.9771499,91.7710152 L28.6558117,89.6650929 C28.9477322,89.856682 29.3380174,90.0482711 29.7267159,90.2398602 L30.5072862,95.2149458 C30.6040642,95.6931397 30.8975713,96.0763179 31.3846344,96.267907 C31.8716975,96.459496 32.3587607,96.3644803 32.7490458,96.0763179 L36.9406444,93.1105812 L38.1099132,93.397186 L39.8646097,98.0856668 C40.0597522,98.5654183 40.4484508,98.8520231 40.9355139,98.9470389 C41.4241636,99.0436122 41.9112267,98.8520231 42.3015118,98.5654183 L45.8093183,94.928341 C46.1996034,94.928341 46.5898885,95.0233567 46.9785871,95.0233567 L49.7089963,99.330217 C50.0009169,99.7133952 50.48798,100 50.9750431,100 C51.4621063,100 51.9507559,99.7133952 52.2426765,99.330217 L54.9714992,95.0233567 C55.3617843,95.0233567 55.7520694,94.928341 56.140768,94.928341 L59.650161,98.5654183 C60.0404461,98.9470389 60.5275092,99.0436122 61.0145723,98.9470389 C61.5016355,98.8520231 61.8919206,98.468845 62.0870631,98.0856668 L63.8417596,93.397186 L65.0110284,93.1105812 L69.1042625,96.0763179 C69.4945476,96.3644803 70.0799753,96.459496 70.5670384,96.267907 C71.0541015,96.0763179 71.3460221,95.6931397 71.4443866,95.2149458 L72.2233703,90.2398602 C72.6136554,90.0482711 72.905576,89.856682 73.2958611,89.6650929 L77.9745229,91.7710152 C78.461586,91.9610467 78.9486491,91.9610467 79.4357123,91.6744419 C79.8259974,91.3878371 80.1179179,90.9096432 80.1179179,90.4314493 L79.9243619,85.3582326 C80.2162825,85.1682012 80.5082031,84.8800388 80.8017102,84.6884497 L85.7722925,85.8379842 C86.2593556,85.9329999 86.7464187,85.8379842 87.1367038,85.454806 C87.526989,85.0716278 87.623767,84.5934339 87.526989,84.1152401 L86.3561336,79.2351701 C86.5512762,78.9470077 86.8447833,78.6604029 87.0383393,78.3737981 L92.2040642,78.5653872 C92.6927138,78.5653872 93.179777,78.3737981 93.4716975,77.8940466 C93.7636181,77.512426 93.7636181,76.9376588 93.5700621,76.4594649 L91.2299379,71.7709841 C91.4250805,71.4828216 91.620223,71.1012011 91.8153656,70.7180229 L96.8827259,69.9516666 C97.3713756,69.8566509 97.7600742,69.5700461 97.9552167,69.0902945 C98.1503593,68.6121006 98.0535813,68.1339068 97.7600742,67.7507286 L94.7393309,63.637015 L95.0312514,62.4874805 L99.8066912,60.766294 C100.295341,60.5747049 100.587261,60.1915268 100.684039,59.7133329 C100.782404,59.235139 100.587261,58.7553875 100.295341,58.3737669 L96.5908054,54.9282787 C96.5908054,54.5451005 96.6891699,54.1619224 96.6891699,53.7803018 L101.074325,51.1011699 C101.46461,50.8130075 101.75653,50.3348136 101.75653,49.8566197 C101.75653,49.3784258 101.561388,48.9952477 101.172689,48.8036586 L101.172689,48.8036586 Z" id="Fill-1" fill="#FFFFFF" mask="url(#mask-2)"></path>
                </g>
                <rect id="Rectangle" stroke="#FFFFFF" opacity="0.01" x="0.5" y="0.5" width="307" height="139"></rect>
            </g>
        </g>
    </g>
</svg>