<?xml version="1.0" encoding="UTF-8" standalone="no"?>
<!DOCTYPE svg PUBLIC "-//W3C//DTD SVG 1.1//EN" "http://www.w3.org/Graphics/SVG/1.1/DTD/svg11.dtd">
<svg width="100%" height="100%" viewBox="0 0 166 99" version="1.1" xmlns="http://www.w3.org/2000/svg" xmlns:xlink="http://www.w3.org/1999/xlink" xml:space="preserve" xmlns:serif="http://www.serif.com/" style="fill-rule:evenodd;clip-rule:evenodd;stroke-linejoin:round;stroke-miterlimit:2;">
    <g id="Web" transform="matrix(0.726779,0,0,0.726779,21.6078,13.4745)">
        <g id="sponsor-logo---sizing-box" serif:id="sponsor-logo-/-sizing-box">
            <g id="Group-40">
                <g id="Group-3" transform="matrix(1,0,0,1,43.196,88.7299)">
                    <path id="Fill-1" d="M16.594,7.284L3.23,0L0,9.635L16.569,7.29C16.518,7.29 16.493,7.29 16.594,7.284" style="fill:white;"/>
                </g>
                <path id="Fill-4" d="M59.789,96.014L59.765,96.02C59.827,96.02 59.934,96.014 59.789,96.014" style="fill:white;"/>
                <path id="Fill-6" d="M105.793,91.325L116.552,88.156L120.594,75.405L110.659,76.084L105.793,91.325Z" style="fill:white;"/>
                <path id="Fill-8" d="M131.395,9.622L123.174,4.29L118.572,18.926L127.618,21.645L131.395,9.622Z" style="fill:white;"/>
                <path id="Fill-10" d="M75.924,6.205C75.924,6.205 81.495,7.914 83.692,8.537L91.611,10.882L91.75,0L77.825,2.769L75.924,6.205Z" style="fill:white;"/>
                <path id="Fill-12" d="M20.641,46.85L30.417,46.875L33.898,35.956L25.01,33.599C24.065,36.598 21.604,43.851 20.641,46.85" style="fill:white;"/>
                <path id="Fill-14" d="M2.449,36.705L9.764,44.325L13.975,30.805L4.997,28.424L2.449,36.705Z" style="fill:white;"/>
                <path id="Fill-16" d="M157.381,80.337C157.23,76.508 156.166,75.255 153.906,72.904L142.122,73.69C145.408,75.754 147.422,78.31 147.838,81.74C148.297,85.507 144.206,89.859 140.246,89.859C138.037,89.859 136.935,88.126 136.935,86.136C136.998,84.652 137.52,82.725 138.301,81.441L128.304,81.441C127.524,83.436 126.876,85.688 126.876,87.808C126.876,95.072 133.303,96.937 139.402,96.937C145.76,96.937 151.023,95.715 154.334,89.859C155.826,87.215 157.507,83.424 157.381,80.337" style="fill:white;"/>
                <g id="Group-20" transform="matrix(1,0,0,1,0,0.9855)">
                    <path id="Fill-18" d="M33.03,0L2.392,0.025L-0,7.552L11.23,7.539L5.678,25.037L14.661,27.419L20.9,7.533L30.638,7.52L33.03,0Z" style="fill:white;"/>
                </g>
                <path id="Fill-21" d="M42.586,8.045L45.834,8.039C48.239,8.039 50.637,8.612 50.644,11.444C50.65,14.917 48.119,20.772 43.965,20.772L38.639,20.779L42.586,8.045ZM36.373,27.925C37.475,27.856 38.582,27.856 39.684,27.856C41.503,27.85 44.229,27.981 44.229,30.488C44.235,32.221 43.587,34.41 43.071,36.082C42.101,39.492 40.937,42.897 40.742,46.371L50.801,46.358C50.537,40.765 54.037,35.876 54.03,30.344C54.03,26.615 51.172,25.137 47.861,24.558L48.831,24.427C56.038,23.454 60.055,17.86 60.048,10.851C60.042,3.081 53.483,0.899 46.797,0.905L35.246,0.917C31.96,11.02 28.844,21.178 25.653,31.324L34.535,33.674L36.373,27.925Z" style="fill:white;"/>
                <path id="Fill-23" d="M63.592,46.482L68.773,36.766L81.174,36.754L80.796,46.526L90.535,46.519L91.309,13.251L82.943,10.738C82.181,16.98 81.753,23.291 81.753,29.552L81.69,29.552L72.342,29.558C75.703,23.26 78.927,16.911 81.829,10.401L75.124,8.387L53.463,46.488L63.592,46.482Z" style="fill:white;"/>
                <path id="Fill-25" d="M132.535,46.42L134.996,39.018L121.947,39.037L126.781,23.909L117.735,21.19L109.684,46.439L132.535,46.42Z" style="fill:white;"/>
                <path id="Fill-27" d="M66.053,68.04L62.414,68.04L66.242,56.273C69.1,56.404 74.488,55.506 74.488,59.877C74.557,65.022 71.246,68.04 66.053,68.04M66.834,85.02C65.014,87.72 63.069,87.914 60.016,87.914L56.057,87.914L60.406,74.544C63.585,74.669 69.232,73.902 69.232,78.529C69.232,80.58 68.004,83.349 66.834,85.02M72.09,49.332L59.305,49.332L47.3,86.536L62.578,94.779C71.725,94.436 78.133,87.733 78.133,78.529C78.133,74.993 75.924,72.231 72.486,71.264C79.241,69.724 83.585,65.415 83.585,58.343C83.578,51.453 78.19,49.332 72.09,49.332" style="fill:white;"/>
                <path id="Fill-29" d="M103.055,16.831L93.354,48.958L84.787,75.018L95.073,74.232L102.501,51.047L102.514,51.047L112.548,19.643C111.15,19.257 105.586,17.486 103.055,16.831" style="fill:white;"/>
                <path id="Fill-31" d="M107.865,49.401L105.46,56.915L116.697,56.915L111.441,73.646L121.248,72.979L126.366,56.915L136.098,56.915L138.503,49.401L107.865,49.401Z" style="fill:white;"/>
                <g id="Group-35" transform="matrix(1,0,0,1,136.363,48.9456)">
                    <path id="Fill-33" d="M16.033,0C5.974,0 0,6.94 0,16.587C0.012,17.991 1.278,21.445 3.865,22.599L15.964,21.788C13.905,20.067 10.267,16.007 10.267,13.85C10.267,10.888 11.935,7.015 15.378,7.015C17.714,7.015 19.143,7.658 19.143,10.165C19.143,11.773 18.362,13.251 17.909,14.798L27.257,14.798C27.842,13.444 28.749,10.358 28.749,8.942C28.755,1.927 21.875,0 16.033,0" style="fill:white;"/>
                </g>
                <path id="Fill-36" d="M42.75,52.887C42.75,53.461 42.095,55.332 41.875,55.986L40.861,59.117C40.465,60.302 39.986,61.661 38.476,61.661C37.62,61.661 37.066,61.168 37.066,60.283C37.066,59.135 37.959,57.009 38.337,55.824C38.715,54.646 39.212,52.295 40.528,51.839C40.824,51.74 41.145,51.702 41.466,51.702C42.064,51.702 42.781,52.232 42.781,52.868L42.75,52.887ZM41.472,49.601C36.896,49.601 36.241,52.949 35.108,56.504C34.73,57.782 34.012,59.341 34.012,60.682C34.012,63.264 36.323,63.756 38.469,63.756C41.094,63.775 42.492,62.902 43.423,60.457C44.059,58.786 45.715,54.19 45.715,52.575C45.715,50.287 43.386,49.601 41.472,49.601Z" style="fill:white;"/>
                <path id="Fill-38" d="M53.117,57.582L53.809,55.312L49.831,55.312L50.907,51.926L55.087,51.926L55.824,49.656L48.578,49.656L44.222,63.575L47.269,63.575L49.157,57.582L53.117,57.582Z" style="fill:white;"/>
            </g>
        </g>
    </g>
</svg>
