<svg width="318" height="320" viewBox="0 0 318 320" fill="none" xmlns="http://www.w3.org/2000/svg">
<g clip-path="url(#clip0_256_24)">
<path fill-rule="evenodd" clip-rule="evenodd" d="M33 158.1C33 227.7 89.5 284.1 159 284.1C228.5 284.1 285 227.7 285 158.1C285 88.5 228.6 32.1 159 32.1C89.4 32.1 33 88.4 33 158.1Z" fill="#192E45"/>
<path fill-rule="evenodd" clip-rule="evenodd" d="M56.9008 128.7L49.8008 143.1L59.4008 129.7C59.4008 129.8 58.8008 149 58.8008 149L61.5008 134.5C68.7008 148.2 84.6008 169.3 106.901 185C108.601 186.2 110.801 188.3 111.501 189.1C111.501 189.1 132.801 199.9 165.601 174.9C165.901 174.7 166.301 174.5 166.601 174.3L167.101 174.6L174.301 179.4C171.801 178.7 167.001 177.5 167.001 177.5C151.201 195.7 125.501 198.7 111.701 189.5C111.101 189.1 107.701 190.5 107.101 192.5C106.701 193.6 107.101 194.8 107.601 195.7C110.401 200.9 114.601 200.4 112.601 206.5C111.201 209.8 109.201 213 107.001 216C102.401 222.2 95.2008 227.7 95.9008 231C128.501 271.2 202.001 265.6 230.001 229.7C229.601 224.5 221.401 222 215.701 209.3C217.301 209.8 219.701 210.5 219.701 210.4C219.701 210.3 212.901 199.3 212.601 198.2L217.001 198.5C217.001 198.5 211.201 191.3 211.001 190.6L216.901 189.8C216.901 189.8 209.501 181.3 209.401 180.6L216.901 181.8L208.701 171.9H212.601L208.001 165.2L170.701 150.5C156.401 141.6 143.701 130.7 134.101 122.3L114.801 112.9C96.3008 111.5 79.0008 112 68.4008 114.1L75.2008 102.5L65.3008 114.3C64.6008 114.1 63.9008 113.9 63.9008 113.9L64.6008 98.9L61.3008 112.9L56.9008 128.7Z" fill="#D2943B"/>
<path fill-rule="evenodd" clip-rule="evenodd" d="M61.4001 112.9C56.5001 110.6 50.8001 113.9 49.8001 118.4C48.6001 122.7 51.6001 128 56.9001 128.7C61.9001 125.6 66.2001 117.6 61.4001 112.9Z" fill="#FFCD86"/>
<path fill-rule="evenodd" clip-rule="evenodd" d="M134.2 101.9C132.7 97.8 133.1 92.5 135.2 87.5C138.2 80.6 143.9 76 149.3 76C150.4 76 151.4 76.2 152.4 76.6C155.5 73.8 159.1 71.5 163.1 69.9C185.1 61.1 217.4 76.8 225.7 98.4C229.7 108.9 228.5 120.3 225.1 130.8C222.3 139.4 212.1 151.8 215.9 161.1C214.4 160.7 183.1 150.1 174.1 145.3C160 136.5 147.4 125.7 137.9 117.4L137.6 117.1L105.6 101.9C105.2 101.7 104.8 101.5 104.5 101.3C108.9 101.6 126.4 103.7 134.2 101.9Z" fill="#FFD524"/>
<path d="M143.6 105.6C142.7 105.6 142 105.4 141.3 105.1C139.7 104.4 138.5 103.1 137.7 101.1C136.3 97.7 136.7 93 138.6 88.6C141.1 83 145.9 78.9 150.1 78.9C150.9 78.9 151.7 79.1 152.5 79.4C154.6 80.3 156.1 82.4 156.6 85.4C157.2 88.6 156.7 92.3 155.1 95.8C152.7 101.4 147.8 105.6 143.6 105.6Z" fill="white"/>
<path d="M150.101 80.6C150.701 80.6 151.301 80.7 151.901 81C153.501 81.7 154.701 83.5 155.101 85.9C155.601 88.8 155.201 92.2 153.701 95.4C151.501 100.5 147.201 104.2 143.601 104.2C143.001 104.2 142.401 104.1 141.901 103.9C140.401 103.3 139.601 101.9 139.201 100.8C138.001 97.8 138.301 93.4 140.001 89.4C142.201 84.2 146.501 80.6 150.101 80.6ZM150.101 77.6C145.301 77.6 140.001 82 137.201 88.3C135.101 93 134.801 98.1 136.301 102C137.201 104.3 138.701 105.9 140.601 106.8C141.501 107.2 142.501 107.4 143.601 107.4C148.401 107.4 153.701 103 156.401 96.7C158.101 92.9 158.601 88.9 158.001 85.4C157.401 81.9 155.501 79.6 153.101 78.3C152.201 77.8 151.101 77.6 150.101 77.6Z" fill="#192E45"/>
<path d="M270.701 258.6L266.201 254.6C289.001 229.3 302.001 196.4 302.701 162.1L308.701 162.2C308.001 198 294.501 232.2 270.701 258.6Z" fill="#192E45"/>
<path d="M47.3012 258.6C23.5012 232.2 10.0012 198 9.20117 162.3L15.2012 162.2C16.0012 196.5 28.9012 229.3 51.7012 254.7L47.3012 258.6Z" fill="#192E45"/>
<path d="M21.7008 153.4C21.7008 153.6 21.5008 153.7 21.3008 153.7L1.10078 150.1C0.90078 150.1 0.800781 149.9 0.800781 149.7L2.30078 141.6C3.10078 137.1 6.30078 134.8 10.3008 135.6C14.2008 136.3 16.5008 139.6 15.7008 144.1L15.0008 147.8C15.0008 147.9 15.0008 148 15.2008 148L22.1008 149.3C22.3008 149.3 22.4008 149.5 22.4008 149.7L21.7008 153.4ZM9.60078 140C7.90078 139.7 6.60078 140.6 6.20078 142.5L5.60078 145.9C5.60078 146 5.60078 146.1 5.80078 146.1L11.0008 147C11.1008 147 11.2008 147 11.2008 146.8L11.8008 143.4C12.2008 141.7 11.3008 140.3 9.60078 140Z" fill="#192E45"/>
<path d="M26.6006 123.6C26.5006 123.9 26.4006 123.9 26.2006 124L17.8006 125.8L17.2006 128.6C17.2006 128.7 17.2006 128.8 17.3006 128.8L24.7006 130.5C24.9006 130.5 25.0006 130.7 24.9006 130.9L24.0006 134.8C24.0006 135 23.8006 135.1 23.6006 135L3.60056 130.4C3.40056 130.4 3.30056 130.2 3.40056 130L5.30056 121.8C6.30056 117.6 9.50056 115.4 13.3006 116.3C15.9006 116.9 17.7006 118.8 18.2006 121.3L27.3006 119.1C27.5006 119.1 27.7006 119.2 27.6006 119.4L26.6006 123.6ZM12.3006 120.7C10.8006 120.3 9.50056 121.2 9.10056 122.9L8.30056 126.5C8.30056 126.6 8.30056 126.7 8.40056 126.7L13.2006 127.8C13.3006 127.8 13.4006 127.8 13.4006 127.7L14.2006 124.1C14.6006 122.3 13.9006 121 12.3006 120.7Z" fill="#192E45"/>
<path d="M8.90134 110C8.70134 109.9 8.60134 109.8 8.70134 109.6L10.0013 105.9C10.1013 105.7 10.2013 105.6 10.4013 105.7L29.9013 112.2C30.1013 112.3 30.2013 112.4 30.1013 112.6L28.8013 116.3C28.7013 116.5 28.6013 116.6 28.4013 116.5L8.90134 110Z" fill="#192E45"/>
<path d="M33.401 104C33.301 104.2 33.1009 104.3 33.0009 104.2L11.5009 102C11.3009 102 11.2009 101.8 11.3009 101.6L12.901 97.9C13.001 97.7 13.1009 97.6 13.3009 97.7L27.7009 99.5V99.4L16.701 90C16.501 89.9 16.5009 89.7 16.6009 89.5L18.201 85.8C18.301 85.6 18.4009 85.6 18.6009 85.7L34.6009 100.2C34.7009 100.3 34.8009 100.5 34.7009 100.7L33.401 104Z" fill="#192E45"/>
<path d="M23.2 78.1C23.1 77.9 23 77.8 23.1 77.6L25.1 74.3C25.2 74.1 25.4 74.1 25.6 74.1L46.9 78.7C47.1 78.7 47.2 78.9 47.1 79L45 82.5C44.9 82.7 44.7 82.7 44.5 82.7L40.7 81.8L36.8 88.1L39.3 91C39.5 91.2 39.5 91.3 39.4 91.5L37.3 95C37.2 95.2 37 95.2 36.9 95L23.2 78.1ZM36.7 80.8L29.1 79V79.1L34.2 85L36.7 80.8Z" fill="#192E45"/>
<path d="M39.2016 72C36.6016 70 35.9016 69.2 35.1016 68C33.1016 65 33.4016 61.8 35.7016 58.9C37.9016 56.1 40.9016 55.2 44.0016 56.1C44.2016 56.1 44.3016 56.3 44.2016 56.5L43.3016 60.1C43.3016 60.3 43.1016 60.4 42.9016 60.3C41.5016 59.9 40.0016 60 38.9016 61.4C37.9016 62.7 37.9016 64.1 38.7016 65.3C39.2016 66 39.7016 66.5 42.0016 68.4C44.4016 70.3 45.0016 70.7 45.8016 71C47.2016 71.5 48.6016 71.3 49.6016 70C50.7016 68.6 50.5016 67.2 49.8016 65.9C49.7016 65.7 49.8016 65.6 50.0016 65.5L53.3016 63.8C53.5016 63.7 53.6016 63.7 53.7016 63.9C55.3016 66.7 55.0016 69.8 52.8016 72.6C50.5016 75.5 47.4016 76.5 44.0016 75.2C42.7016 74.6 41.8016 74 39.2016 72Z" fill="#192E45"/>
<path d="M62.2016 61.5C62.1016 61.6 61.9016 61.6 61.8016 61.5L56.1016 55.6L43.0016 51.1C42.8016 51 42.8016 50.9 42.9016 50.7L45.8016 47.9C46.0016 47.7 46.1016 47.7 46.4016 47.8L54.5016 50.7L54.6016 50.6L52.0016 42.4C51.9016 42.2 52.0016 42 52.1016 41.9L54.9016 39.2C55.1016 39 55.2016 39.1 55.3016 39.3L59.5016 52.5L65.2016 58.3C65.3016 58.4 65.3016 58.6 65.2016 58.7L62.2016 61.5Z" fill="#192E45"/>
<path d="M63.9016 32.4C63.8016 32.2 63.8016 32.1 64.0016 32L67.2016 29.7C67.4016 29.6 67.5016 29.6 67.6016 29.8L79.8016 46.3C79.9016 46.5 79.9016 46.6 79.7016 46.7L76.5016 49C76.3016 49.1 76.2016 49.1 76.1016 48.9L63.9016 32.4Z" fill="#192E45"/>
<path d="M80.6006 42.6C80.4006 42.6 80.3006 42.4 80.3006 42.2L80.9006 38.7C80.9006 38.5 81.1006 38.4 81.3006 38.4C83.1006 38.6 85.2006 38.6 87.2006 37.4C89.1006 36.3 89.6006 34.7 88.9006 33.5C88.3006 32.4 87.2006 32.1 84.9006 33.1L83.9006 33.5C79.9006 35.2 76.8006 34.7 74.9006 31.5C72.9006 28.2 74.1006 24.4 78.0006 22.1C80.4006 20.7 83.1006 20 85.3006 20.3C85.5006 20.3 85.6006 20.4 85.6006 20.7L85.4006 24.1C85.4006 24.3 85.3006 24.4 85.1006 24.4C83.2006 24.3 81.5006 24.6 80.1006 25.5C78.5006 26.5 78.2006 27.8 78.9006 28.9C79.5006 29.9 80.7006 30.2 82.9006 29.2L83.9006 28.8C87.9006 27.1 90.9006 27.6 92.9006 30.9C94.9006 34.2 93.9006 38.1 89.2006 40.9C86.2006 42.6 82.8006 43.1 80.6006 42.6Z" fill="#192E45"/>
<path d="M102.701 10.8C102.701 10.6 102.801 10.4 103.001 10.4L106.701 9.09999C106.901 8.99999 107.101 9.09999 107.201 9.29999L121.001 26.1C121.101 26.3 121.101 26.4 120.901 26.5L117.101 27.9C116.901 28 116.701 27.9 116.601 27.7L114.201 24.6L107.201 27.1L107.401 31C107.401 31.2 107.301 31.4 107.101 31.4L103.301 32.8C103.101 32.9 103.001 32.8 103.001 32.6L102.701 10.8ZM111.701 21.3L106.901 15.2H106.801L107.101 23L111.701 21.3Z" fill="#192E45"/>
<path d="M128.301 16.5L126.301 3.6C126.301 3.4 126.401 3.3 126.601 3.2L130.501 2.6C130.701 2.6 130.801 2.70001 130.901 2.90001L133.001 15.9C133.401 18.4 135.001 19.6 137.101 19.3C139.201 19 140.301 17.3 140.001 14.8L137.901 1.8C137.901 1.6 138.001 1.50001 138.201 1.40001L142.101 0.800003C142.301 0.800003 142.401 0.900002 142.501 1.1L144.501 14C145.301 19.2 142.401 22.5 137.801 23.3C132.901 24 129.201 21.7 128.301 16.5Z" fill="#192E45"/>
<path d="M148.5 0.599998C148.5 0.399998 148.6 0.299999 148.8 0.299999L152.5 0.200001C152.7 0.200001 152.9 0.3 153 0.5L160.7 13.7H160.9L160.7 0.400002C160.7 0.200002 160.8 0.0999985 161 0.0999985L164.5 0C164.7 0 164.8 0.0999992 164.8 0.299999L165.1 20.8C165.1 21 165 21.1 164.8 21.1L161.1 21.2C160.9 21.2 160.7 21.1 160.6 20.9L152.9 7.7H152.7L152.9 21C152.9 21.2 152.8 21.3 152.6 21.3L149.1 21.4C148.9 21.4 148.8 21.3 148.8 21.1L148.5 0.599998Z" fill="#192E45"/>
<path d="M170.402 0.799999C170.402 0.599999 170.602 0.5 170.702 0.5L174.602 0.799999C174.802 0.799999 174.902 0.999998 174.902 1.1L173.102 21.6C173.102 21.8 172.902 21.9 172.802 21.9L168.902 21.6C168.702 21.6 168.602 21.4 168.602 21.3L170.402 0.799999Z" fill="#192E45"/>
<path d="M182.1 23.2C181.9 23.2 181.8 23 181.8 22.8L178.9 1.40001C178.9 1.20001 179 1.10001 179.2 1.10001L183.2 1.80001C183.4 1.80001 183.5 2.00001 183.5 2.20001L185.2 16.6H185.3L191.8 3.70001C191.9 3.50001 192 3.40001 192.3 3.50001L196.2 4.20001C196.4 4.20001 196.5 4.40001 196.4 4.60001L186.1 23.6C186 23.8 185.9 23.9 185.7 23.8L182.1 23.2Z" fill="#192E45"/>
<path d="M200.601 5.79999C200.701 5.59999 200.801 5.49999 201.001 5.59999L213.901 9.69999C214.101 9.79999 214.201 9.89999 214.101 10.1L213.101 13.3C213.001 13.5 212.901 13.6 212.701 13.5L204.001 10.7C203.901 10.7 203.801 10.7 203.801 10.8L202.501 14.8C202.501 14.9 202.501 15 202.601 15L209.801 17.3C210.001 17.4 210.101 17.5 210.001 17.7L209.001 20.8C208.901 21 208.801 21.1 208.601 21L201.401 18.7C201.301 18.7 201.201 18.7 201.201 18.8L199.901 23C199.901 23.1 199.901 23.2 200.001 23.2L208.701 26C208.901 26.1 209.001 26.2 208.901 26.4L207.901 29.6C207.801 29.8 207.701 29.9 207.501 29.8L194.601 25.7C194.401 25.6 194.301 25.5 194.401 25.3L200.601 5.79999Z" fill="#192E45"/>
<path d="M220.901 35.9C220.601 35.8 220.601 35.7 220.601 35.4V26.8L218.001 25.6C217.901 25.5 217.801 25.6 217.801 25.7L214.601 32.5C214.501 32.7 214.401 32.7 214.201 32.6L210.601 30.9C210.401 30.8 210.401 30.7 210.501 30.5L219.201 11.9C219.301 11.7 219.401 11.7 219.601 11.8L227.201 15.4C231.101 17.2 232.501 20.9 230.901 24.4C229.701 26.8 227.501 28.2 225.001 28.1L225.201 37.4C225.201 37.6 225.001 37.7 224.801 37.6L220.901 35.9ZM226.801 22.6C227.501 21.2 226.901 19.8 225.301 19L221.901 17.4C221.801 17.3 221.701 17.4 221.701 17.5L219.601 21.9C219.501 22 219.601 22.1 219.701 22.1L223.101 23.7C224.701 24.5 226.101 24.1 226.801 22.6Z" fill="#192E45"/>
<path d="M227.701 36.5C227.701 36.3 227.701 36.1 228.001 36L231.501 35C231.701 34.9 231.801 35 231.901 35.2C232.501 36.9 233.501 38.8 235.401 40C237.301 41.2 238.901 41 239.701 39.8C240.401 38.8 240.201 37.7 238.201 36L237.301 35.3C234.001 32.5 233.101 29.5 235.101 26.3C237.201 23 241.101 22.5 244.901 24.9C247.301 26.4 249.001 28.5 249.701 30.7C249.801 30.9 249.701 31 249.501 31.1L246.401 32.4C246.201 32.5 246.101 32.4 246.001 32.2C245.201 30.4 244.201 29.1 242.801 28.2C241.201 27.2 239.901 27.5 239.201 28.6C238.501 29.6 238.901 30.7 240.701 32.3L241.601 33C244.901 35.9 245.801 38.8 243.701 42C241.601 45.2 237.701 46.1 233.101 43.1C230.201 41.5 228.201 38.7 227.701 36.5Z" fill="#192E45"/>
<path d="M259.701 36.7C259.901 36.6 260.001 36.6 260.201 36.7L263.201 39.2C263.401 39.3 263.401 39.5 263.301 39.7L255.401 59.9C255.301 60.1 255.201 60.1 255.001 60L251.901 57.4C251.701 57.3 251.701 57.1 251.801 56.9L253.301 53.3L247.701 48.5L244.401 50.5C244.201 50.6 244.101 50.6 243.901 50.5L240.801 47.9C240.601 47.8 240.701 47.6 240.801 47.5L259.701 36.7ZM254.901 49.6L257.901 42.4L257.801 42.3L251.201 46.4L254.901 49.6Z" fill="#192E45"/>
<path d="M271.801 47.7C271.901 47.6 272.101 47.6 272.201 47.7L274.801 50.6C274.901 50.7 274.901 50.9 274.801 51L262.501 62.1C262.401 62.2 262.401 62.3 262.501 62.4L268.701 69.3C268.801 69.4 268.801 69.6 268.701 69.7L266.101 72C266.001 72.1 265.801 72.1 265.701 72L256.501 61.8C256.401 61.7 256.401 61.5 256.501 61.4L271.801 47.7Z" fill="#192E45"/>
<path d="M277.601 89.6C277.501 89.4 277.501 89.2 277.601 89L282.301 81.8L280.801 79.4C280.701 79.3 280.601 79.3 280.501 79.3L274.101 83.3C273.901 83.4 273.801 83.4 273.701 83.2L271.601 79.8C271.501 79.6 271.501 79.5 271.701 79.4L289.201 68.6C289.401 68.5 289.501 68.5 289.601 68.7L294.001 75.9C296.301 79.6 295.501 83.4 292.201 85.5C289.901 86.9 287.301 86.8 285.201 85.4L280.301 93.3C280.201 93.5 280.001 93.5 279.901 93.3L277.601 89.6ZM289.901 81.7C291.201 80.9 291.501 79.4 290.601 77.9L288.601 74.7C288.501 74.6 288.401 74.6 288.301 74.6L284.101 77.2C284.001 77.3 284.001 77.4 284.001 77.5L286.001 80.7C287.001 82.1 288.501 82.5 289.901 81.7Z" fill="#192E45"/>
<path d="M299.801 86.8C300.001 86.7 300.101 86.8 300.201 86.9L301.901 90.4C302.001 90.6 301.901 90.7 301.801 90.8L283.401 99.8C283.201 99.9 283.101 99.8 283.001 99.7L281.301 96.2C281.201 96 281.301 95.9 281.401 95.8L299.801 86.8Z" fill="#192E45"/>
<path d="M294.401 99C297.301 97.9 298.501 97.6 300.001 97.5C303.601 97.3 306.201 99.5 307.501 103C308.901 106.7 307.901 109.8 305.901 111.6C305.801 111.8 305.601 111.8 305.401 111.6L302.901 109C302.801 108.8 302.801 108.7 302.901 108.5C303.901 107.2 304.301 106 303.701 104.3C303.101 102.6 301.801 101.9 300.301 101.9C299.501 101.9 298.501 102.2 296.001 103.1C293.401 104.1 292.501 104.5 291.901 105C290.701 105.9 290.301 107.3 290.901 109C291.501 110.5 292.701 111.5 294.101 111.4C294.601 111.4 295.301 111.2 296.101 110.9C296.201 110.9 296.301 110.8 296.201 110.7L295.201 108C295.101 107.8 295.201 107.7 295.401 107.6L298.201 106.6C298.401 106.5 298.501 106.6 298.601 106.8L301.101 113.6C301.201 113.8 301.101 113.9 300.901 114L299.301 114.6C297.501 115.2 295.901 115.7 294.701 115.8C291.201 116 288.401 113.9 287.101 110.4C285.801 106.9 286.401 103.5 289.201 101.3C290.401 100.7 291.501 100.1 294.401 99Z" fill="#192E45"/>
<path d="M311.402 116.5C311.602 116.5 311.702 116.6 311.802 116.7L312.602 120.6C312.602 120.8 312.502 120.9 312.402 121L304.602 122.7C304.502 122.7 304.402 122.8 304.502 122.9L306.002 129.6C306.002 129.7 306.102 129.8 306.202 129.7L314.002 128C314.202 128 314.302 128.1 314.402 128.2L315.202 132.1C315.202 132.3 315.102 132.4 315.002 132.5L294.902 136.9C294.702 136.9 294.602 136.8 294.502 136.7L293.702 132.8C293.702 132.6 293.802 132.5 293.902 132.4L301.902 130.7C302.002 130.7 302.102 130.6 302.002 130.5L300.502 123.8C300.502 123.7 300.402 123.6 300.302 123.7L292.302 125.4C292.102 125.4 292.002 125.3 291.902 125.2L291.102 121.3C291.102 121.1 291.202 121 291.302 120.9L311.402 116.5Z" fill="#192E45"/>
<path d="M295.301 145C295.301 144.8 295.401 144.7 295.601 144.7L312.101 143.4C312.201 143.4 312.301 143.3 312.301 143.2L311.901 137.9C311.901 137.7 312.001 137.6 312.201 137.6L315.601 137.3C315.801 137.3 315.901 137.4 315.901 137.6L317.201 153.2C317.201 153.4 317.101 153.5 316.901 153.5L313.501 153.8C313.301 153.8 313.201 153.7 313.201 153.5L312.801 148.2C312.801 148.1 312.701 148 312.601 148L296.101 149.3C295.901 149.3 295.801 149.2 295.801 149L295.301 145Z" fill="#192E45"/>
<path d="M62.8016 255.9C62.9016 255.7 63.1016 255.7 63.3016 255.9L66.6016 258.7C66.8016 258.9 66.9016 259.1 66.8016 259.4L62.5016 274.2L62.6016 274.3L76.4016 267.5C76.6016 267.4 76.9016 267.4 77.1016 267.6L80.3016 270.3C80.5016 270.4 80.5016 270.6 80.3016 270.8L64.8016 289.1C64.7016 289.3 64.5016 289.3 64.3016 289.1L61.2016 286.4C61.0016 286.3 61.0016 286.1 61.2016 285.9L70.2016 275.3L70.1016 275.2L59.9016 280.2C59.6016 280.4 59.3016 280.3 59.1016 280.1L57.2016 278.5C57.0016 278.3 56.9016 278 57.0016 277.7L60.2016 266.8L60.1016 266.7L51.1016 277.3C51.0016 277.5 50.8016 277.5 50.6016 277.3L47.5016 274.6C47.3016 274.5 47.3016 274.3 47.5016 274.1L62.8016 255.9Z" fill="#192E45"/>
<path d="M75.4007 285.7L83.1007 272.5C83.2007 272.3 83.4007 272.3 83.6007 272.4L87.6007 274.7C87.8007 274.8 87.8007 275 87.7007 275.2L80.0007 288.5C78.5007 291 79.1007 293.3 81.3007 294.6C83.4007 295.8 85.7007 295.2 87.2007 292.7L94.9007 279.4C95.0007 279.2 95.2007 279.2 95.4007 279.3L99.4007 281.6C99.6007 281.7 99.6007 281.9 99.5007 282.1L91.8007 295.3C88.7007 300.6 83.6007 301.5 78.9007 298.8C74.1007 295.9 72.3007 291 75.4007 285.7Z" fill="#192E45"/>
<path d="M102.601 283.3C102.701 283.1 102.901 283 103.101 283.1L107.401 284.8C107.601 284.9 107.701 285.1 107.601 285.3L100.501 303.4C100.401 303.5 100.501 303.6 100.601 303.7L110.801 307.7C111.001 307.8 111.101 308 111.001 308.2L109.501 312C109.401 312.2 109.201 312.3 109.001 312.2L94.0009 306.3C93.8009 306.2 93.7009 306 93.8009 305.8L102.601 283.3Z" fill="#192E45"/>
<path d="M120.201 289.9C120.301 289.7 120.401 289.6 120.601 289.6L125.101 290.7C125.301 290.8 125.401 290.9 125.401 291.1L120.901 310C120.901 310.1 120.901 310.2 121.101 310.3L131.701 312.8C131.901 312.9 132.001 313 132.001 313.2L131.101 317.1C131.001 317.3 130.901 317.4 130.701 317.4L115.001 313.7C114.801 313.6 114.701 313.5 114.701 313.3L120.201 289.9Z" fill="#192E45"/>
<path d="M139.802 318.6C139.502 318.6 139.402 318.4 139.402 318.2L134.102 293.5C134.102 293.2 134.202 293.1 134.502 293.1L139.202 293.6C139.502 293.6 139.602 293.8 139.602 294L142.802 310.7H142.902L149.402 295.1C149.502 294.9 149.702 294.8 149.902 294.8L154.602 295.3C154.802 295.3 154.902 295.5 154.802 295.7L144.402 318.7C144.302 318.9 144.102 319 143.902 319L139.802 318.6Z" fill="#192E45"/>
<path d="M161.501 295.3C161.601 295.1 161.701 294.9 162.001 294.9L166.601 294.7C166.901 294.7 167.001 294.8 167.101 295L176.301 318.7C176.401 318.9 176.301 319.1 176.101 319.1L171.401 319.3C171.101 319.3 171.001 319.2 170.901 319L169.301 314.7L160.601 315L159.401 319.4C159.301 319.7 159.201 319.8 158.901 319.8L154.101 320C153.801 320 153.801 319.9 153.801 319.6L161.501 295.3ZM167.601 310.3L164.501 301.8H164.401L161.901 310.6L167.601 310.3Z" fill="#192E45"/>
<path d="M176.902 294.5C176.902 294.3 177.002 294.1 177.202 294.1L186.202 292.3C190.402 291.5 193.802 292.7 195.702 296.1C196.402 297.4 196.902 298.7 197.702 302.6C198.502 306.5 198.502 308 198.402 309.4C197.902 313.3 195.402 315.7 191.102 316.5L182.102 318.3C181.902 318.3 181.702 318.2 181.702 318L176.902 294.5ZM186.202 312.6L188.902 312.1C191.302 311.6 192.602 310.6 192.902 308.5C193.002 307.7 193.002 306.8 192.302 303.6C191.702 300.5 191.302 299.6 191.002 298.9C190.002 297.1 188.402 296.6 186.002 297.1L183.302 297.6C183.202 297.6 183.102 297.7 183.102 297.9L186.002 312.4C186.002 312.6 186.102 312.7 186.202 312.6Z" fill="#192E45"/>
<path d="M220.202 307.6C220.002 307.7 219.802 307.6 219.602 307.5L202.902 288.6C202.702 288.4 202.802 288.2 203.002 288.1L207.302 286.2C207.502 286.1 207.702 286.1 207.902 286.3L218.802 299.3H218.902L216.902 282.5C216.902 282.2 217.002 282.1 217.202 282L221.502 280.1C221.702 280 221.902 280.1 221.902 280.4L224.102 305.5C224.102 305.7 224.002 305.9 223.802 306L220.202 307.6Z" fill="#192E45"/>
<path d="M236.602 300C236.402 300.1 236.202 300.1 236.102 299.9L223.402 279.5C223.302 279.3 223.302 279.1 223.502 279L231.602 273.9C236.202 271.1 240.602 272.1 243.102 276.1C245.602 280.1 244.502 284.6 240.002 287.4L236.302 289.7C236.202 289.8 236.202 289.9 236.202 290L240.602 297C240.702 297.2 240.702 297.4 240.502 297.5L236.602 300ZM238.602 278.9C237.502 277.2 235.702 276.8 233.802 278L230.302 280.2C230.202 280.3 230.202 280.4 230.202 280.5L233.502 285.8C233.602 285.9 233.702 285.9 233.802 285.9L237.302 283.7C239.302 282.5 239.702 280.6 238.602 278.9Z" fill="#192E45"/>
<path d="M240.802 268.4C240.702 268.2 240.702 268 240.802 267.9L244.102 265C244.302 264.8 244.502 264.8 244.802 264.9L261.602 270.9L261.702 270.8L251.502 259.1C251.402 258.9 251.402 258.7 251.502 258.6L254.602 255.9C254.802 255.8 255.002 255.8 255.102 255.9L270.902 274C271.002 274.2 271.002 274.4 270.902 274.5L267.602 277.3C267.402 277.5 267.202 277.5 266.902 277.4L250.102 271.4L250.002 271.5L260.202 283.2C260.302 283.4 260.302 283.6 260.202 283.7L257.102 286.4C256.902 286.5 256.702 286.5 256.602 286.4L240.802 268.4Z" fill="#192E45"/>
</g>
<defs>
<clipPath id="clip0_256_24">
<rect width="318" height="320" fill="white"/>
</clipPath>
</defs>
</svg>
