<svg width="599" height="599" viewBox="0 0 599 599" fill="none" xmlns="http://www.w3.org/2000/svg">
<path d="M30.4 297.1V354.9H0.5V210C12.5 203.9 25.8 200.9 39.2 201.3C74.8 201.3 88.6 222.2 88.7 249.6C88.7 286.1 63.9 299.7 30.5 297.1H30.4ZM30 223.2C29.8 223.2 30 275.7 30 275.7C55 278.3 58.8 264 58.8 249.4C58.8 234.8 54.8 216.9 30 223.2Z" fill="#313458"/>
<path d="M221.201 308.2C223.001 325.7 230.501 333.8 244.501 333.8C253.201 334.1 261.801 332 269.401 327.7L275.801 347.7C265.301 354.1 253.101 357.1 240.801 356.4C209.601 356.4 192.801 333.3 192.801 294.6C192.801 255.9 209.101 233.3 237.201 233.3C265.301 233.3 281.701 258.9 279.501 300.6L221.301 308L221.201 308.2ZM236.901 254.6C226.501 254.6 219.401 269.1 219.401 290L251.501 286C251.501 266 247.301 254.6 236.901 254.6Z" fill="#313458"/>
<path d="M342.5 257.9C336.4 254.8 329.2 254.6 323 257.5V355.1H294.6V243.2C305.4 236.8 320.9 233.3 347.8 234.5L342.5 258V257.9Z" fill="#313458"/>
<path d="M356.1 355V236.5H384.7V355H356.1Z" fill="#EF9158"/>
<path d="M443.7 356.6C414.6 356.6 399.9 330.3 399.9 295.3C399.9 260.3 414.2 234 443.7 234C473.2 234 486.9 260.3 486.9 295.3C486.9 330.3 473.2 356.6 443.7 356.6ZM443.7 254.8C431.1 254.8 428.9 272.8 428.9 294.4C428.9 316 431.3 333.5 443.7 333.5C456.1 333.5 458.6 316 458.6 294.6C458.6 273.2 456.4 254.8 443.7 254.8Z" fill="#EF9158"/>
<path d="M535.9 356.5C516.6 356.5 506.1 343.3 506.1 322.4V257.8H495.5V236.4H506.1V210.7L534.5 201.7V236.7H550.2V257.8H534.5V319.1C534.5 330.1 538.3 333.8 544.2 333.8C546.2 333.8 548.2 333.4 550.1 332.8V353.2C545.7 355.5 540.9 356.7 535.9 356.6V356.5Z" fill="#EF9158"/>
<path d="M370 217.1C361.3 217.1 354.2 210.1 354.1 201.5C354.1 192.8 361.1 185.7 369.8 185.7C378.5 185.7 385.6 192.7 385.7 201.3C385.7 210 378.7 217.1 370 217.1Z" fill="#EF9158"/>
<path d="M120.3 308.2C122.1 325.7 129.6 333.8 143.6 333.8C152.3 334.1 160.9 332 168.5 327.7L174.9 347.7C164.4 354.1 152.2 357.1 139.9 356.4C108.7 356.4 91.9004 333.3 91.9004 294.6C91.9004 255.9 108.2 233.3 136.3 233.3C164.4 233.3 180.8 258.9 178.6 300.6L120.4 308L120.3 308.2ZM136 254.6C125.6 254.6 118.5 269.1 118.5 290L150.6 286C150.6 266 146.4 254.6 136 254.6Z" fill="#313458"/>
<path d="M582.9 356.6C574.2 356.6 567.1 349.6 567 341C567 332.3 574 325.2 582.7 325.2C591.4 325.2 598.5 332.2 598.6 340.8C598.6 349.5 591.6 356.6 582.9 356.6Z" fill="#313458"/>
<path d="M157.299 380.4C159.999 380.4 162.199 381.4 163.899 383.3C165.499 385.2 166.399 388.1 166.399 392C166.399 395.9 165.999 396.7 165.299 398.5C164.499 400.2 163.499 401.6 162.099 402.5C160.699 403.4 159.099 403.8 157.299 403.8C155.499 403.8 155.099 403.6 154.199 403.3C153.299 403 152.599 402.6 151.999 402.1C151.399 401.6 150.899 401 150.399 400.5H150.099C150.099 401 150.199 401.6 150.299 402.4C150.299 403.1 150.299 403.7 150.299 404.3V413.5H146.199V380.9H149.599L150.199 384.1H150.399C150.799 383.4 151.299 382.8 151.999 382.3C152.599 381.7 153.399 381.3 154.299 381C155.199 380.7 156.199 380.5 157.399 380.5L157.299 380.4ZM156.399 383.8C154.999 383.8 153.799 384.1 152.899 384.6C151.999 385.2 151.399 386 150.999 387.1C150.599 388.2 150.399 389.6 150.399 391.3V392C150.399 393.8 150.599 395.3 150.999 396.6C151.399 397.8 151.999 398.8 152.899 399.4C153.799 400 154.999 400.4 156.499 400.4C157.999 400.4 158.899 400.1 159.699 399.4C160.599 398.7 161.199 397.7 161.599 396.5C161.999 395.2 162.199 393.8 162.199 392.1C162.199 389.5 161.699 387.5 160.799 386.1C159.899 384.6 158.399 383.9 156.399 383.9V383.8Z" fill="#313458"/>
<path d="M180.9 380.4C182.9 380.4 184.6 380.8 186 381.7C187.4 382.5 188.5 383.7 189.2 385.3C190 386.8 190.3 388.6 190.3 390.7V393H175C175 395.4 175.7 397.3 176.9 398.6C178.1 399.9 179.8 400.5 182 400.5C184.2 400.5 184.7 400.4 185.8 400.1C186.9 399.8 188.1 399.4 189.3 398.9V402.4C188.2 402.9 187 403.3 185.9 403.5C184.8 403.7 183.4 403.9 181.8 403.9C180.2 403.9 177.7 403.5 176.1 402.6C174.5 401.7 173.2 400.4 172.3 398.7C171.4 397 170.9 394.9 170.9 392.4C170.9 389.9 171.3 387.8 172.1 386C172.9 384.2 174.1 382.9 175.6 381.9C177.1 380.9 178.9 380.5 180.9 380.5V380.4ZM180.9 383.6C179.2 383.6 177.9 384.1 176.9 385.2C175.9 386.3 175.3 387.8 175.1 389.9H186.2C186.2 388.7 186 387.6 185.6 386.6C185.2 385.7 184.6 384.9 183.9 384.4C183.1 383.9 182.1 383.6 180.9 383.6Z" fill="#313458"/>
<path d="M204.801 380.4C206.801 380.4 208.501 380.8 209.901 381.7C211.301 382.5 212.401 383.7 213.101 385.3C213.901 386.8 214.201 388.6 214.201 390.7V393H198.901C198.901 395.4 199.601 397.3 200.801 398.6C202.001 399.9 203.701 400.5 205.901 400.5C208.101 400.5 208.601 400.4 209.701 400.1C210.801 399.8 212.001 399.4 213.201 398.9V402.4C212.101 402.9 210.901 403.3 209.801 403.5C208.701 403.7 207.301 403.9 205.701 403.9C204.101 403.9 201.601 403.5 200.001 402.6C198.401 401.7 197.101 400.4 196.201 398.7C195.301 397 194.801 394.9 194.801 392.4C194.801 389.9 195.201 387.8 196.001 386C196.801 384.2 198.001 382.9 199.501 381.9C201.001 380.9 202.801 380.5 204.801 380.5V380.4ZM204.801 383.6C203.101 383.6 201.801 384.1 200.801 385.2C199.801 386.3 199.201 387.8 199.001 389.9H210.101C210.101 388.7 209.901 387.6 209.501 386.6C209.101 385.7 208.501 384.9 207.801 384.4C207.001 383.9 206.001 383.6 204.801 383.6Z" fill="#313458"/>
<path d="M230.7 380.4C231.1 380.4 231.6 380.4 232 380.4C232.5 380.4 232.9 380.5 233.2 380.6L232.8 384.4C232.5 384.4 232.1 384.3 231.7 384.2C231.3 384.2 230.9 384.2 230.5 384.2C229.6 384.2 228.8 384.4 228 384.7C227.2 385 226.5 385.5 225.9 386.1C225.3 386.7 224.8 387.5 224.5 388.4C224.2 389.3 224 390.3 224 391.5V403.4H219.9V380.8H223.2L223.7 384.9H223.9C224.4 384.1 224.9 383.3 225.6 382.6C226.3 381.9 227 381.4 227.9 381C228.8 380.6 229.7 380.4 230.8 380.4H230.7Z" fill="#313458"/>
<path d="M235.5 393.9V390.3H245.9V393.9H235.5Z" fill="#313458"/>
<path d="M258.799 400.5C259.399 400.5 259.999 400.5 260.599 400.3C261.199 400.2 261.699 400.1 262.199 399.9V403.1C261.699 403.3 261.099 403.5 260.299 403.6C259.499 403.7 258.699 403.8 257.899 403.8C256.699 403.8 255.599 403.6 254.599 403.2C253.599 402.8 252.799 402.1 252.199 401C251.599 399.9 251.299 398.6 251.299 396.7V384H248.199V382.1L251.499 380.6L252.999 375.7H255.499V380.8H261.999V384H255.499V396.7C255.499 398 255.799 398.9 256.399 399.5C256.999 400.1 257.799 400.4 258.799 400.4V400.5Z" fill="#313458"/>
<path d="M286.4 392.1C286.4 394 286.2 395.6 285.7 397.1C285.2 398.6 284.5 399.8 283.6 400.8C282.7 401.8 281.6 402.6 280.3 403.1C279 403.6 277.5 403.9 275.9 403.9C274.3 403.9 273 403.6 271.7 403.1C270.4 402.6 269.3 401.8 268.4 400.8C267.5 399.8 266.8 398.6 266.3 397.1C265.8 395.6 265.5 394 265.5 392.1C265.5 390.2 265.9 387.5 266.8 385.8C267.6 384.1 268.9 382.7 270.4 381.8C272 380.9 273.9 380.4 276 380.4C278.1 380.4 279.9 380.9 281.5 381.8C283.1 382.7 284.3 384 285.2 385.8C286.1 387.5 286.5 389.6 286.5 392.1H286.4ZM269.6 392.1C269.6 393.8 269.8 395.3 270.3 396.6C270.7 397.8 271.4 398.8 272.3 399.5C273.2 400.2 274.4 400.5 275.9 400.5C277.4 400.5 278.5 400.2 279.4 399.5C280.3 398.8 281 397.9 281.4 396.6C281.8 395.4 282.1 393.9 282.1 392.1C282.1 390.3 281.9 388.9 281.4 387.7C281 386.5 280.3 385.5 279.4 384.9C278.5 384.3 277.3 383.9 275.8 383.9C273.6 383.9 272.1 384.6 271.1 386.1C270.1 387.5 269.6 389.6 269.6 392.2V392.1Z" fill="#313458"/>
<path d="M290.1 393.9V390.3H300.5V393.9H290.1Z" fill="#313458"/>
<path d="M316.7 380.4C319.4 380.4 321.6 381.4 323.3 383.3C324.9 385.2 325.8 388.1 325.8 392C325.8 395.9 325.4 396.7 324.7 398.5C323.9 400.2 322.9 401.6 321.5 402.5C320.1 403.4 318.5 403.8 316.7 403.8C314.9 403.8 314.5 403.6 313.6 403.3C312.7 403 312 402.6 311.4 402.1C310.8 401.6 310.3 401 309.8 400.5H309.5C309.5 401 309.6 401.6 309.7 402.4C309.7 403.1 309.7 403.7 309.7 404.3V413.5H305.6V380.9H309L309.6 384.1H309.8C310.2 383.4 310.7 382.8 311.4 382.3C312 381.7 312.8 381.3 313.7 381C314.6 380.7 315.6 380.5 316.8 380.5L316.7 380.4ZM315.7 383.8C314.3 383.8 313.1 384.1 312.2 384.6C311.3 385.2 310.7 386 310.3 387.1C309.9 388.2 309.7 389.6 309.7 391.3V392C309.7 393.8 309.9 395.3 310.3 396.6C310.7 397.8 311.3 398.8 312.2 399.4C313.1 400 314.3 400.4 315.8 400.4C317.3 400.4 318.1 400.1 319 399.4C319.9 398.7 320.5 397.7 320.9 396.5C321.3 395.3 321.5 393.8 321.5 392.1C321.5 389.5 321 387.5 320.1 386.1C319.2 384.6 317.7 383.9 315.7 383.9V383.8Z" fill="#313458"/>
<path d="M340.301 380.4C342.301 380.4 344.001 380.8 345.401 381.7C346.801 382.5 347.901 383.7 348.601 385.3C349.301 386.8 349.701 388.6 349.701 390.7V393H334.401C334.401 395.4 335.101 397.3 336.301 398.6C337.501 399.9 339.201 400.5 341.401 400.5C343.601 400.5 344.101 400.4 345.201 400.1C346.301 399.8 347.501 399.4 348.701 398.9V402.4C347.601 402.9 346.401 403.3 345.301 403.5C344.201 403.7 342.801 403.9 341.201 403.9C339.601 403.9 337.101 403.5 335.501 402.6C333.901 401.7 332.601 400.4 331.701 398.7C330.801 397 330.301 394.9 330.301 392.4C330.301 389.9 330.701 387.8 331.501 386C332.301 384.2 333.501 382.9 335.001 381.9C336.501 380.9 338.301 380.5 340.301 380.5V380.4ZM340.301 383.6C338.601 383.6 337.301 384.1 336.301 385.2C335.301 386.3 334.701 387.8 334.501 389.9H345.601C345.601 388.7 345.401 387.6 345.001 386.6C344.601 385.7 344.001 384.9 343.301 384.4C342.501 383.9 341.501 383.6 340.301 383.6Z" fill="#313458"/>
<path d="M364.1 380.4C366.1 380.4 367.8 380.8 369.2 381.7C370.6 382.5 371.7 383.7 372.4 385.3C373.1 386.8 373.5 388.6 373.5 390.7V393H358.2C358.2 395.4 358.9 397.3 360.1 398.6C361.3 399.9 363 400.5 365.2 400.5C367.4 400.5 367.9 400.4 369 400.1C370.1 399.8 371.3 399.4 372.5 398.9V402.4C371.4 402.9 370.2 403.3 369.1 403.5C368 403.7 366.6 403.9 365 403.9C363.4 403.9 360.9 403.5 359.3 402.6C357.7 401.7 356.4 400.4 355.5 398.7C354.6 397 354.1 394.9 354.1 392.4C354.1 389.9 354.5 387.8 355.3 386C356.1 384.2 357.3 382.9 358.8 381.9C360.3 380.9 362.1 380.5 364.1 380.5V380.4ZM364.1 383.6C362.4 383.6 361.1 384.1 360.1 385.2C359.1 386.3 358.5 387.8 358.3 389.9H369.4C369.4 388.7 369.2 387.6 368.8 386.6C368.4 385.7 367.8 384.9 367.1 384.4C366.3 383.9 365.3 383.6 364.1 383.6Z" fill="#313458"/>
<path d="M389.999 380.4C390.399 380.4 390.899 380.4 391.299 380.4C391.799 380.4 392.199 380.5 392.499 380.6L392.099 384.4C391.799 384.4 391.399 384.3 390.999 384.2C390.599 384.2 390.199 384.2 389.799 384.2C388.899 384.2 388.099 384.4 387.299 384.7C386.499 385 385.799 385.5 385.199 386.1C384.599 386.7 384.099 387.5 383.799 388.4C383.499 389.3 383.299 390.3 383.299 391.5V403.4H379.199V380.8H382.499L382.999 384.9H383.199C383.699 384.1 384.199 383.3 384.899 382.6C385.599 381.9 386.299 381.4 387.199 381C388.099 380.6 388.999 380.4 390.099 380.4H389.999Z" fill="#313458"/>
<path d="M432.6 380.4C435.1 380.4 437 381.1 438.3 382.4C439.6 383.7 440.2 385.8 440.2 388.7V403.5H436.1V389.3C436.1 387.5 435.7 386.2 435 385.3C434.3 384.4 433.2 384 431.7 384C429.7 384 428.2 384.6 427.3 385.9C426.4 387.1 425.9 388.9 425.9 391.3V403.6H421.8V389.4C421.8 388.2 421.6 387.2 421.3 386.4C421 385.6 420.5 385 419.8 384.6C419.2 384.2 418.3 384 417.4 384C416 384 414.9 384.3 414 384.9C413.2 385.5 412.6 386.4 412.2 387.6C411.8 388.8 411.6 390.2 411.6 392V403.6H407.5V381H410.8L411.4 384.1H411.6C412.1 383.3 412.6 382.7 413.3 382.2C414 381.7 414.8 381.3 415.6 381C416.4 380.7 417.3 380.6 418.3 380.6C420 380.6 421.4 380.9 422.6 381.5C423.8 382.1 424.6 383 425.2 384.3H425.5C426.2 383 427.2 382.1 428.5 381.5C429.8 380.9 431.2 380.6 432.6 380.6V380.4Z" fill="#313458"/>
<path d="M455.9 380.4C457.9 380.4 459.6 380.8 461 381.7C462.4 382.5 463.5 383.7 464.2 385.3C464.9 386.8 465.3 388.6 465.3 390.7V393H450C450 395.4 450.7 397.3 451.9 398.6C453.1 399.9 454.8 400.5 457 400.5C459.2 400.5 459.7 400.4 460.8 400.1C461.9 399.8 463.1 399.4 464.3 398.9V402.4C463.2 402.9 462 403.3 460.9 403.5C459.8 403.7 458.4 403.9 456.8 403.9C455.2 403.9 452.7 403.5 451.1 402.6C449.5 401.7 448.2 400.4 447.3 398.7C446.4 397 445.9 394.9 445.9 392.4C445.9 389.9 446.3 387.8 447.1 386C447.9 384.2 449.1 382.9 450.6 381.9C452.1 380.9 453.9 380.5 455.9 380.5V380.4ZM455.9 383.6C454.2 383.6 452.9 384.1 451.9 385.2C450.9 386.3 450.3 387.8 450.1 389.9H461.2C461.2 388.7 461 387.6 460.6 386.6C460.2 385.7 459.6 384.9 458.9 384.4C458.1 383.9 457.1 383.6 455.9 383.6Z" fill="#313458"/>
<path d="M479.699 380.4C481.699 380.4 483.399 380.8 484.799 381.7C486.199 382.5 487.299 383.7 487.999 385.3C488.699 386.8 489.099 388.6 489.099 390.7V393H473.799C473.799 395.4 474.499 397.3 475.699 398.6C476.899 399.9 478.599 400.5 480.799 400.5C482.999 400.5 483.499 400.4 484.599 400.1C485.699 399.8 486.899 399.4 488.099 398.9V402.4C486.999 402.9 485.799 403.3 484.699 403.5C483.599 403.7 482.199 403.9 480.599 403.9C478.999 403.9 476.499 403.5 474.899 402.6C473.299 401.7 471.999 400.4 471.099 398.7C470.199 397 469.699 394.9 469.699 392.4C469.699 389.9 470.099 387.8 470.899 386C471.699 384.2 472.899 382.9 474.399 381.9C475.899 380.9 477.699 380.5 479.699 380.5V380.4ZM479.699 383.6C477.999 383.6 476.699 384.1 475.699 385.2C474.699 386.3 474.099 387.8 473.899 389.9H484.999C484.999 388.7 484.799 387.6 484.399 386.6C483.999 385.7 483.399 384.9 482.699 384.4C481.899 383.9 480.899 383.6 479.699 383.6Z" fill="#313458"/>
<path d="M502.6 400.5C503.2 400.5 503.8 400.5 504.4 400.3C505 400.2 505.5 400.1 506 399.9V403.1C505.5 403.3 504.9 403.5 504.1 403.6C503.3 403.7 502.5 403.8 501.7 403.8C500.5 403.8 499.4 403.6 498.4 403.2C497.4 402.8 496.6 402.1 496 401C495.4 400 495.1 398.6 495.1 396.7V384H492V382.1L495.3 380.6L496.8 375.7H499.3V380.8H505.8V384H499.3V396.7C499.3 398 499.6 398.9 500.2 399.5C500.8 400.1 501.6 400.4 502.6 400.4V400.5Z" fill="#313458"/>
<path d="M525.4 397.1C525.4 398.6 525 399.8 524.3 400.8C523.6 401.8 522.5 402.6 521.2 403.1C519.8 403.6 518.2 403.9 516.3 403.9C514.4 403.9 513.4 403.8 512.2 403.5C511.1 403.3 510 402.9 509.1 402.5V398.9C510.1 399.4 511.2 399.8 512.6 400.2C514 400.6 515.2 400.8 516.4 400.8C517.6 400.8 519.4 400.5 520.2 400C521 399.4 521.4 398.7 521.4 397.7C521.4 396.7 521.2 396.6 520.9 396.2C520.6 395.8 520 395.3 519.3 394.9C518.5 394.5 517.4 394 515.9 393.4C514.5 392.8 513.2 392.3 512.2 391.7C511.2 391.1 510.4 390.5 509.9 389.7C509.4 388.9 509.1 387.9 509.1 386.6C509.1 384.6 509.9 383.2 511.4 382.1C513 381.1 515 380.6 517.6 380.6C520.2 380.6 520.3 380.7 521.5 381C522.7 381.3 523.9 381.7 525 382.1L523.7 385.3C522.7 384.9 521.7 384.5 520.7 384.2C519.7 383.9 518.6 383.8 517.5 383.8C516.4 383.8 515 384 514.3 384.5C513.6 385 513.2 385.6 513.2 386.4C513.2 387.2 513.4 387.5 513.7 387.9C514 388.3 514.6 388.7 515.4 389.1C516.2 389.5 517.3 389.9 518.7 390.5C520.1 391 521.3 391.6 522.3 392.1C523.3 392.7 524.1 393.3 524.6 394.1C525.1 394.9 525.4 395.9 525.4 397.2V397.1Z" fill="#313458"/>
<path d="M542.1 403.4V373.5H546.3V403.4H542.1Z" fill="#313458"/>
<path d="M573.599 392.1C573.599 394 573.399 395.6 572.899 397.1C572.399 398.6 571.699 399.8 570.799 400.8C569.899 401.8 568.799 402.6 567.499 403.1C566.199 403.6 564.699 403.9 563.099 403.9C561.499 403.9 560.199 403.6 558.899 403.1C557.599 402.6 556.499 401.8 555.599 400.8C554.699 399.8 553.999 398.6 553.499 397.1C552.999 395.6 552.699 394 552.699 392.1C552.699 390.2 553.099 387.5 553.999 385.8C554.799 384.1 556.099 382.7 557.599 381.8C559.199 380.9 561.099 380.4 563.199 380.4C565.299 380.4 567.099 380.9 568.699 381.8C570.299 382.7 571.499 384 572.399 385.8C573.299 387.5 573.699 389.6 573.699 392.1H573.599ZM556.799 392.1C556.799 393.8 556.999 395.3 557.499 396.6C557.899 397.8 558.599 398.8 559.499 399.5C560.399 400.2 561.599 400.5 563.099 400.5C564.599 400.5 565.699 400.2 566.599 399.5C567.499 398.8 568.199 397.9 568.599 396.6C568.999 395.4 569.299 393.9 569.299 392.1C569.299 390.3 569.099 388.9 568.599 387.7C568.199 386.5 567.499 385.5 566.599 384.9C565.699 384.2 564.499 383.9 562.999 383.9C560.799 383.9 559.299 384.6 558.299 386.1C557.299 387.5 556.799 389.6 556.799 392.2V392.1Z" fill="#313458"/>
<path d="M589.601 403.4H585.401V377.1H576.301V373.5H598.701V377.1H589.601V403.4Z" fill="#313458"/>
</svg>
