<svg xmlns="http://www.w3.org/2000/svg" xmlns:xlink="http://www.w3.org/1999/xlink" width="718" height="395" fill="none" viewBox="0 0 718 395"><filter id="c" width="164.466" height="186.374" x="551.241" y="205.382" color-interpolation-filters="sRGB" filterUnits="userSpaceOnUse"><feFlood flood-opacity="0" result="BackgroundImageFix"/><feColorMatrix in="SourceAlpha" result="hardAlpha" values="0 0 0 0 0 0 0 0 0 0 0 0 0 0 0 0 0 0 127 0"/><feOffset/><feGaussianBlur stdDeviation="8.036"/><feColorMatrix values="0 0 0 0 0 0 0 0 0 0.027451 0 0 0 0 0.894118 0 0 0 0.5 0"/><feBlend in2="BackgroundImageFix" result="effect1_dropShadow_543_184"/><feBlend in="SourceGraphic" in2="effect1_dropShadow_543_184" result="shape"/></filter><filter id="f" width="166.219" height="186.374" x="375.544" y="205.382" color-interpolation-filters="sRGB" filterUnits="userSpaceOnUse"><feFlood flood-opacity="0" result="BackgroundImageFix"/><feColorMatrix in="SourceAlpha" result="hardAlpha" values="0 0 0 0 0 0 0 0 0 0 0 0 0 0 0 0 0 0 127 0"/><feOffset/><feGaussianBlur stdDeviation="8.036"/><feColorMatrix values="0 0 0 0 0 0 0 0 0 0.027451 0 0 0 0 0.894118 0 0 0 0.5 0"/><feBlend in2="BackgroundImageFix" result="effect1_dropShadow_543_184"/><feBlend in="SourceGraphic" in2="effect1_dropShadow_543_184" result="shape"/></filter><filter id="i" width="162.494" height="189.222" x="188.236" y="205.382" color-interpolation-filters="sRGB" filterUnits="userSpaceOnUse"><feFlood flood-opacity="0" result="BackgroundImageFix"/><feColorMatrix in="SourceAlpha" result="hardAlpha" values="0 0 0 0 0 0 0 0 0 0 0 0 0 0 0 0 0 0 127 0"/><feOffset/><feGaussianBlur stdDeviation="8.036"/><feColorMatrix values="0 0 0 0 0 0 0 0 0 0.027451 0 0 0 0 0.894118 0 0 0 0.5 0"/><feBlend in2="BackgroundImageFix" result="effect1_dropShadow_543_184"/><feBlend in="SourceGraphic" in2="effect1_dropShadow_543_184" result="shape"/></filter><filter id="l" width="172.353" height="186.374" x="5.967" y="205.382" color-interpolation-filters="sRGB" filterUnits="userSpaceOnUse"><feFlood flood-opacity="0" result="BackgroundImageFix"/><feColorMatrix in="SourceAlpha" result="hardAlpha" values="0 0 0 0 0 0 0 0 0 0 0 0 0 0 0 0 0 0 127 0"/><feOffset/><feGaussianBlur stdDeviation="8.036"/><feColorMatrix values="0 0 0 0 0 0 0 0 0 0.027451 0 0 0 0 0.894118 0 0 0 0.5 0"/><feBlend in2="BackgroundImageFix" result="effect1_dropShadow_543_184"/><feBlend in="SourceGraphic" in2="effect1_dropShadow_543_184" result="shape"/></filter><filter id="n" width="176.515" height="191.85" x="541.382" y=".11" color-interpolation-filters="sRGB" filterUnits="userSpaceOnUse"><feFlood flood-opacity="0" result="BackgroundImageFix"/><feColorMatrix in="SourceAlpha" result="hardAlpha" values="0 0 0 0 0 0 0 0 0 0 0 0 0 0 0 0 0 0 127 0"/><feOffset/><feGaussianBlur stdDeviation="8.036"/><feColorMatrix values="0 0 0 0 0 0 0 0 0 0.027451 0 0 0 0 0.894118 0 0 0 0.5 0"/><feBlend in2="BackgroundImageFix" result="effect1_dropShadow_543_184"/><feBlend in="SourceGraphic" in2="effect1_dropShadow_543_184" result="shape"/></filter><filter id="q" width="166.876" height="186.374" x="363.494" y="2.739" color-interpolation-filters="sRGB" filterUnits="userSpaceOnUse"><feFlood flood-opacity="0" result="BackgroundImageFix"/><feColorMatrix in="SourceAlpha" result="hardAlpha" values="0 0 0 0 0 0 0 0 0 0 0 0 0 0 0 0 0 0 127 0"/><feOffset/><feGaussianBlur stdDeviation="8.036"/><feColorMatrix values="0 0 0 0 0 0 0 0 0 0.027451 0 0 0 0 0.894118 0 0 0 0.5 0"/><feBlend in2="BackgroundImageFix" result="effect1_dropShadow_543_184"/><feBlend in="SourceGraphic" in2="effect1_dropShadow_543_184" result="shape"/></filter><filter id="t" width="158.113" height="189.222" x="173.339" y="2.739" color-interpolation-filters="sRGB" filterUnits="userSpaceOnUse"><feFlood flood-opacity="0" result="BackgroundImageFix"/><feColorMatrix in="SourceAlpha" result="hardAlpha" values="0 0 0 0 0 0 0 0 0 0 0 0 0 0 0 0 0 0 127 0"/><feOffset/><feGaussianBlur stdDeviation="8.036"/><feColorMatrix values="0 0 0 0 0 0 0 0 0 0.027451 0 0 0 0 0.894118 0 0 0 0.5 0"/><feBlend in2="BackgroundImageFix" result="effect1_dropShadow_543_184"/><feBlend in="SourceGraphic" in2="effect1_dropShadow_543_184" result="shape"/></filter><filter id="w" width="144.092" height="186.374" x=".49" y="2.739" color-interpolation-filters="sRGB" filterUnits="userSpaceOnUse"><feFlood flood-opacity="0" result="BackgroundImageFix"/><feColorMatrix in="SourceAlpha" result="hardAlpha" values="0 0 0 0 0 0 0 0 0 0 0 0 0 0 0 0 0 0 127 0"/><feOffset/><feGaussianBlur stdDeviation="8.036"/><feColorMatrix values="0 0 0 0 0 0 0 0 0 0.027451 0 0 0 0 0.894118 0 0 0 0.5 0"/><feBlend in2="BackgroundImageFix" result="effect1_dropShadow_543_184"/><feBlend in="SourceGraphic" in2="effect1_dropShadow_543_184" result="shape"/></filter><linearGradient id="a"><stop offset=".36" stop-color="#2c19ff" stop-opacity="0"/><stop offset=".4" stop-color="#4c50ff" stop-opacity=".1"/><stop offset=".5" stop-color="#8cd4ff" stop-opacity=".32"/><stop offset=".55" stop-color="#9dfaff" stop-opacity=".4"/><stop offset=".61" stop-color="#6dcbff" stop-opacity=".66"/><stop offset=".67" stop-color="#3f9aff" stop-opacity=".9"/><stop offset=".7" stop-color="#2e82ff"/><stop offset=".72" stop-color="#2777ff"/><stop offset=".77" stop-color="#1856cd"/><stop offset=".82" stop-color="#0d3aa3"/><stop offset=".87" stop-color="#042985"/><stop offset=".9" stop-color="#001c73"/><stop offset=".93" stop-color="#00196d"/></linearGradient><linearGradient xlink:href="#a" id="d" x1="633.482" x2="633.482" y1="372.945" y2="224.207" gradientUnits="userSpaceOnUse"/><linearGradient id="b"><stop offset="0" stop-color="#f700ff"/><stop offset=".15" stop-color="#f71fff" stop-opacity=".88"/><stop offset=".47" stop-color="#f76fff" stop-opacity=".56"/><stop offset=".94" stop-color="#f7eeff" stop-opacity=".06"/><stop offset="1" stop-color="#f7ffff" stop-opacity="0"/></linearGradient><radialGradient xlink:href="#b" id="e" cx="0" cy="0" r="1" gradientTransform="matrix(365.976 0 0 193.967 323.813 142.185)" gradientUnits="userSpaceOnUse"/><linearGradient xlink:href="#a" id="g" x1="458.661" x2="458.661" y1="372.945" y2="224.207" gradientUnits="userSpaceOnUse"/><radialGradient xlink:href="#b" id="h" cx="0" cy="0" r="1" gradientTransform="matrix(365.976 0 0 193.967 -65.946 142.185)" gradientUnits="userSpaceOnUse"/><linearGradient xlink:href="#a" id="j" x1="269.491" x2="269.491" y1="375.793" y2="224.208" gradientUnits="userSpaceOnUse"/><radialGradient xlink:href="#b" id="k" cx="0" cy="0" r="1" gradientTransform="matrix(365.976 0 0 193.967 -65.946 142.185)" gradientUnits="userSpaceOnUse"/><linearGradient xlink:href="#a" id="m" x1="91.179" x2="91.179" y1="372.945" y2="224.207" gradientUnits="userSpaceOnUse"/><linearGradient xlink:href="#a" id="o" x1="629.649" x2="629.649" y1="173.149" y2="18.936" gradientUnits="userSpaceOnUse"/><radialGradient xlink:href="#b" id="p" cx="0" cy="0" r="1" gradientTransform="matrix(370.768 0 0 196.507 321.759 -65.03)" gradientUnits="userSpaceOnUse"/><linearGradient xlink:href="#a" id="r" x1="445.736" x2="445.736" y1="170.301" y2="21.564" gradientUnits="userSpaceOnUse"/><radialGradient xlink:href="#b" id="s" cx="0" cy="0" r="1" gradientTransform="matrix(370.768 0 0 196.507 321.76 -65.03)" gradientUnits="userSpaceOnUse"/><linearGradient xlink:href="#a" id="u" x1="252.403" x2="252.403" y1="173.149" y2="21.564" gradientUnits="userSpaceOnUse"/><radialGradient xlink:href="#b" id="v" cx="0" cy="0" r="1" gradientTransform="matrix(370.768 0 0 196.507 321.075 -65.03)" gradientUnits="userSpaceOnUse"/><linearGradient xlink:href="#a" id="x" x1="72.536" x2="72.536" y1="170.301" y2="21.55" gradientUnits="userSpaceOnUse"/><radialGradient xlink:href="#b" id="y" cx="0" cy="0" r="1" gradientTransform="matrix(370.768 0 0 196.507 321.759 -65.03)" gradientUnits="userSpaceOnUse"/><g filter="url(#c)"><path fill="#f7ffff" d="M605.87 375.683V270.747h-38.557v-49.292h132.321v49.292h-37.9v104.936z"/></g><path fill="url(#d)" d="M608.609 372.945V268.008h-38.557v-43.814h126.843v43.814h-37.899v104.937z"/><path fill="#0000c6" d="M661.734 318.601H605.87v3.012h55.864zm0 7.804H605.87v3.012h55.864zm0 7.668H605.87v3.012h55.864zm0 7.804H605.87v3.013h55.864zm0 7.668H605.87v3.012h55.864zm0 7.667H605.87v3.013h55.864zm0 7.668H605.87v3.012h55.864zm0 7.805H605.87v2.998h55.864z"/><path fill="url(#e)" d="M607.732 372.465V267.529h-38.556v-43.815h126.843v43.815h-37.9v104.936z" opacity=".38"/><g filter="url(#f)"><path fill="#f7ffff" d="M392.931 375.683v-49.291h58.493c7.01 0 10.077-3.068 10.077-8.763 0-5.696-3.067-8.763-10.077-8.763h-10.078c-35.271 0-49.73-17.745-49.73-42.939 0-26.508 16.431-44.472 47.32-44.472h75.581v49.292h-53.673c-6.134 0-9.42 2.848-9.42 8.325 0 5.915 3.286 8.982 9.42 8.982h20.374c33.299 0 44.471 19.935 44.471 42.281 0 24.974-14.677 45.348-52.139 45.348z"/></g><path fill="url(#g)" d="M395.669 372.945V329.13h55.755c11.145 0 12.815-7.202 12.815-11.501 0-4.3-1.67-11.502-12.815-11.502h-10.078c-30.738 0-46.991-13.897-46.991-40.2 0-26.302 16.663-41.733 44.581-41.733h72.842v43.814h-50.934c-7.723 0-12.159 4.04-12.159 11.064 0 7.448 4.436 11.72 12.159 11.72h20.374c36.311 0 41.733 24.769 41.733 39.543 0 15.91-6.421 42.61-49.401 42.61z"/><path fill="#0000c6" d="M392.931 372.685v2.998h80.619c8.544 0 15.883-1.068 22.154-2.998zm113.617-4.793a39.618 39.618 0 0 0 4.272-3.012H392.917v3.012zm9.119-7.667a38.18 38.18 0 0 0 2.355-3.013H392.917v3.013h122.736zm5.148-7.668a46.42 46.42 0 0 0 1.383-3.012H392.931v3.012zm2.971-7.667c.274-.986.534-1.999.753-3.013H392.931v3.013zm1.52-7.805c.11-.999.192-1.999.26-3.012H392.931v3.012H525.32zm.37-7.668a54.631 54.631 0 0 0-.11-3.012H392.931v3.012zm-.603-7.804a52.994 52.994 0 0 0-.534-3.012h-63.066c-.082 1.122-.287 2.122-.643 3.012z"/><path fill="url(#h)" d="M394.793 372.465v-43.814h55.754c11.146 0 12.816-7.202 12.816-11.502 0-4.299-1.67-11.501-12.816-11.501H440.47c-30.739 0-46.991-13.898-46.991-40.2 0-26.303 16.663-41.734 44.581-41.734h72.842v43.815h-50.935c-7.722 0-12.158 4.039-12.158 11.063 0 7.449 4.436 11.721 12.158 11.721h20.374c36.312 0 41.734 24.769 41.734 39.543 0 15.91-6.422 42.609-49.401 42.609z" opacity=".38"/><g filter="url(#i)"><path fill="#f7ffff" d="M281.203 221.455h53.454v90.916c0 42.938-22.345 66.16-64.188 66.16s-66.16-23.003-66.16-65.941v-91.135h53.454v96.393c0 7.448 4.162 11.392 12.049 11.392 7.886 0 11.391-3.944 11.391-11.392z"/></g><path fill="url(#j)" d="M270.469 375.793c-41.487 0-63.422-21.853-63.422-63.203v-88.396h47.977v93.654c0 8.982 5.395 14.13 14.788 14.13 9.392 0 14.13-4.888 14.13-14.13v-93.654h47.977v88.177c0 41.487-21.25 63.422-61.45 63.422z"/><path fill="#0000c6" d="M334.37 320.586h-53.331a12.887 12.887 0 0 1-.767 3.012h53.838c.096-.985.191-1.999.26-3.012zm-129.486 3.012h54.015a11.226 11.226 0 0 1-.904-3.012h-53.371c.082 1.013.178 2.026.273 3.012zm1.3 8.353H332.85c.192-.986.383-1.999.548-3.013h-60.122a18.905 18.905 0 0 1-3.451.302 18.71 18.71 0 0 1-3.423-.302h-60.765c.178 1.014.356 2.027.561 3.013zm2.04 7.667h122.668c.315-.986.602-1.985.876-3.012H207.321c.287 1.027.589 2.026.903 3.012zm3.122 7.804h116.52c.466-.985.904-1.985 1.315-3.012h-119.19c.424 1.027.89 2.027 1.369 3.012zm4.532 7.668h107.634a51.948 51.948 0 0 0 1.931-3.012h-111.55c.63 1.04 1.301 2.04 1.985 3.012zm3.752 4.656a48.131 48.131 0 0 0 2.998 3.012h94.394a46.765 46.765 0 0 0 2.889-3.012zm86.986 10.679a53.23 53.23 0 0 0 4.792-3.012H228.42a54.23 54.23 0 0 0 4.957 3.012zm-31.752 8.01c7.134-.287 13.651-1.301 19.552-3.012h-48.483c6.065 1.711 12.761 2.725 20.045 3.012z"/><path fill="url(#k)" d="M269.592 375.313c-41.487 0-63.421-21.852-63.421-63.202v-88.397h47.977v93.654c0 8.982 5.394 14.131 14.787 14.131s14.13-4.888 14.13-14.131v-93.654h47.978v88.178c0 41.487-21.251 63.421-61.451 63.421z" opacity=".38"/><g filter="url(#l)"><path fill="#f7ffff" d="m102.878 375.683-27.604-50.606v50.606H22.04V221.455h72.513c34.394 0 56.083 15.335 56.083 49.73 0 21.688-7.011 35.709-21.469 45.567l33.08 58.931zM88.2 288.93c5.915 0 8.544-3.067 8.544-9.201s-2.63-8.982-8.544-8.982H75.274v18.183z"/></g><path fill="url(#m)" d="m104.507 372.945-26.823-49.182-5.148 1.314v47.868H24.778V224.194h69.775c24.331 0 53.344 8.147 53.344 46.991 0 20.388-6.257 33.751-20.278 43.308l-2.081 1.41 32.026 57.042h-53.071zm-31.971-81.277H88.2c5.148 0 11.282-2.067 11.282-11.939 0-7.558-4.012-11.721-11.282-11.721H72.536z"/><path fill="#0000c6" d="M22.04 321.613h109.85l-1.684-3.012H22.04zm112.548 4.792H76l1.643 3.012h58.63zm-59.314 0H22.04v3.012h53.234zm63.614 7.668H80.176l1.643 3.012h58.767zm-63.614 0H22.04v3.012h53.234zm0 7.804H22.04v3.013h53.234zm67.995 0H84.434l1.643 3.013h58.89zm-67.995 7.668H22.04v3.012h53.234zm72.308 0H88.624l1.643 3.012h59zm4.3 7.667H92.8l1.643 3.013h59.123zm-76.608 0H22.04v3.013h53.234zm80.907 7.668H96.99l1.643 3.012h59.246zm-80.907 0H22.04v3.012h53.234zm27.604 10.803h59.369l-1.685-2.999h-59.314zm-27.604-2.998H22.04v2.998h53.234z"/><path fill="url(#h)" d="m103.631 372.465-26.823-49.182-5.148 1.315v47.867H23.902V223.714h69.774c24.331 0 53.345 8.147 53.345 46.992 0 20.387-6.257 33.751-20.278 43.308l-2.068 1.41 32.026 57.041zM71.66 291.189h15.663c5.149 0 11.283-2.067 11.283-11.939 0-7.558-4.012-11.721-11.283-11.721H71.66z" opacity=".38"/><g filter="url(#n)"><path fill="#f7ffff" d="M557.455 95.926c0-48.634 27.603-79.743 72.294-79.743s72.075 31.109 72.075 79.743c0 48.634-27.384 79.962-72.075 79.962s-72.294-30.013-72.294-79.962zm110.413 0c0-31.108-13.801-48.196-38.119-48.196-24.317 0-38.338 17.088-38.338 48.196 0 31.108 15.117 48.196 38.338 48.196 23.222 0 38.119-16.211 38.119-48.196z"/></g><path fill="#0000c6" d="M651.985 173.053H607.5c6.832 1.862 14.267 2.835 22.249 2.835 7.983 0 15.418-.973 22.236-2.835zm-57.589-5.038h70.651a65.803 65.803 0 0 0 5.244-3.012h-81.153a61.927 61.927 0 0 0 5.258 3.012zm-15.335-11.064a52.532 52.532 0 0 0 3.286 3.013h94.708a62.03 62.03 0 0 0 3.273-3.013zm-4.545-5.038h110.358a62.768 62.768 0 0 0 2.273-3.012H572.229a61.725 61.725 0 0 0 2.287 3.012zm-5.546-8.038h55.987c-4.148-.424-7.996-1.437-11.487-3.012H567.3a70.33 70.33 0 0 0 1.67 3.012zm123.078-3.012h-46.046c-3.478 1.575-7.312 2.588-11.46 3.012h55.85a70.13 70.13 0 0 0 1.656-3.012zm-127.158-5.038h40.693a32.958 32.958 0 0 1-3.026-3.013h-38.913a87.194 87.194 0 0 0 1.232 3.013zm130.773-3.013h-38.831a32.677 32.677 0 0 1-2.998 3.013h40.61a85.25 85.25 0 0 0 1.233-3.013zm-133.731-5.038h36.928a39.888 39.888 0 0 1-1.671-3.013h-36.133c.274 1.014.575 2.027.876 3.013zm136.319-3.013h-36.093a39.565 39.565 0 0 1-1.656 3.012h36.872a94.51 94.51 0 0 0 .877-3.012zm-138.413-5.038h35.216a45.444 45.444 0 0 1-.986-3.013h-34.833a71.65 71.65 0 0 0 .603 3.013zm140.207-3.013h-34.806a55.497 55.497 0 0 1-.972 3.013h35.189c.205-1 .411-1.999.589-3.013z"/><path fill="url(#o)" d="M629.749 173.149c-43.554 0-69.555-28.863-69.555-77.223s26.658-77.004 69.555-77.004c42.898 0 69.337 29.506 69.337 77.004 0 47.498-25.919 77.223-69.337 77.223zm0-128.158c-26.11 0-41.076 18.567-41.076 50.935s15.349 50.935 41.076 50.935c25.728 0 40.858-18.567 40.858-50.935s-14.897-50.935-40.858-50.935z"/><path fill="url(#p)" d="M628.873 172.67c-43.555 0-69.556-28.863-69.556-77.223s26.659-77.005 69.556-77.005S698.21 47.95 698.21 95.447s-25.919 77.223-69.337 77.223zm0-128.158c-26.111 0-41.076 18.567-41.076 50.935s15.349 50.934 41.076 50.934 40.857-18.566 40.857-50.934c0-32.368-14.897-50.935-40.857-50.935z" opacity=".38"/><g filter="url(#q)"><path fill="#f7ffff" d="m475.302 173.04-32.422-50.606h-29.356v50.606h-33.957V18.812h70.98c32.642 0 53.235 14.678 53.235 52.14 0 24.536-12.706 38.556-28.041 44.91l38.557 57.178zm-28.917-77.333c14.459 0 22.783-6.572 22.783-22.784 0-16.211-8.324-22.345-22.564-22.345h-33.08v45.129z"/></g><path fill="#0000c6" d="M379.567 119.175h98.405l-2.026-3.012h-96.379zm101.637 4.792h-37.339l1.931 3.013h37.448zm-67.68 0h-33.957v3.013h33.957zm72.855 7.668h-37.612l1.931 3.012h37.708zm-72.855 0h-33.957v3.012h33.957zm78.113 7.805h-37.858l1.93 3.012h37.968zm-78.113 0h-33.957v3.012h33.957zm83.289 7.667H458.68l1.931 3.012h38.228zm-83.289 0h-33.957v3.012h33.957zm88.451 7.668h-38.379l1.93 3.012h38.489zm-88.451 0h-33.957v3.012h33.957zm93.626 7.667h-38.639l1.931 3.013h38.735zm-93.626 0h-33.957v3.013h33.957zm61.779 10.598h38.995l-1.89-2.793h-38.899zm-61.779-2.793h-33.957v2.793h33.957z"/><path fill="url(#r)" d="m476.795 170.301-32.423-50.606h-33.587v50.606h-28.479V21.551h68.241c33.984 0 50.497 16.156 50.497 49.4 0 27.371-16.513 38.311-26.358 42.378l-3.094 1.287 37.557 55.685zm-66.01-71.856h35.6c16.937 0 25.522-8.585 25.522-25.522 0-16.937-8.517-25.084-25.303-25.084h-35.819z"/><path fill="url(#s)" d="m475.933 169.822-32.423-50.606h-33.587v50.606h-28.48V21.071h68.242c33.984 0 50.496 16.157 50.496 49.401 0 27.37-16.512 38.311-26.357 42.377l-3.094 1.287 37.557 55.686zm-66.024-71.856h35.6c16.937 0 25.522-8.585 25.522-25.522s-8.517-25.084-25.303-25.084h-35.819z" opacity=".38"/><g filter="url(#t)"><path fill="#f7ffff" d="M281.203 18.812h34.176v90.915c0 42.939-21.688 66.161-61.998 66.161-40.309 0-63.969-23.003-63.969-65.941V18.812h34.175v94.421c0 20.154 10.077 31.108 29.137 31.108 19.059 0 28.479-11.392 28.479-31.108z"/></g><path fill="#0000c6" d="M189.959 120.955h34.203c-.15-.972-.26-1.985-.356-3.012h-34.12c.068 1.013.164 2.026.273 3.012zm125.132-3.012h-34.12a51.039 51.039 0 0 1-.356 3.012h34.23c.096-.986.178-1.999.26-3.012zm-123.995 10.844h35.188a28.84 28.84 0 0 1-1.04-3.013h-34.655c.164 1.014.329 2.027.52 3.013zm123.133-3.013h-34.682a32.794 32.794 0 0 1-1.041 3.013h35.23c.192-.986.356-1.999.506-3.013zm-121.162 10.845h38.229a22.738 22.738 0 0 1-2.437-3.013h-36.654a65.83 65.83 0 0 0 .862 3.013zm119.587-3.013h-36.736a24.78 24.78 0 0 1-2.423 3.013h38.324c.301-.986.575-1.986.835-3.013zM196.039 144.45h112.905c.438-.985.862-1.985 1.246-3.012H266.8c-3.93 1.89-8.627 2.903-14.09 2.903s-10.543-1-14.609-2.903h-43.363a66.099 66.099 0 0 0 1.301 3.012zm4.422 7.846h104.224a47.382 47.382 0 0 0 1.835-3.012H198.558a55.588 55.588 0 0 0 1.889 3.012zm100.623 4.82h-96.885a42.772 42.772 0 0 0 2.903 3.012h91.203a44.873 44.873 0 0 0 2.793-3.012zm-13.158 10.844a47.423 47.423 0 0 0 4.697-3.012h-79.675a51.338 51.338 0 0 0 4.847 3.012zm-38.899 7.832h8.585c6.874-.288 13.158-1.301 18.854-3.012h-46.841c5.874 1.711 12.351 2.724 19.402 3.012z"/><path fill="url(#u)" d="M253.381 173.149c-40.063 0-61.231-21.852-61.231-63.202V21.55h28.699v91.683c0 21.825 11.323 33.847 31.875 33.847s31.218-12.337 31.218-33.847V21.55h28.699v88.178c0 41.487-20.497 63.421-59.26 63.421z"/><path fill="url(#v)" d="M251.82 172.67c-40.063 0-61.231-21.853-61.231-63.203V21.071h28.699v91.682c0 21.826 11.323 33.847 31.875 33.847s31.218-12.336 31.218-33.847V21.071h28.699v88.177c0 41.487-20.498 63.422-59.26 63.422z" opacity=".38"/><g filter="url(#w)"><path fill="#f7ffff" d="M67.607 173.04c-34.833 0-51.044-18.622-51.044-46.225 0-21.469 10.296-31.985 22.564-36.147-10.296-3.286-20.593-13.144-20.593-32.86s11.173-38.996 44.691-38.996h65.065v31.766H71.331c-12.049 0-18.84 4.162-18.84 15.335 0 9.639 5.696 15.773 18.84 15.773h51.044v22.565h-52.14c-11.172 0-18.62 6.572-18.62 17.964 0 12.925 5.914 19.059 23.002 19.059h53.892v31.766z"/></g><path fill="#0000c6" d="M17.59 115.889a49.32 49.32 0 0 0-.493 3.012h34.778c.15-1.054.37-2.068.657-3.012H17.603zm34.312 10.816a26.067 26.067 0 0 1-.233-3.012H16.672a53.588 53.588 0 0 0-.096 3.012h35.34zM17 134.373h37.736a14.146 14.146 0 0 1-1.63-3.012H16.728c.068 1.013.15 2.026.274 3.012zm1.534 7.805h109.989v-.904H74.631c-5.724 0-10.173-.712-13.583-2.109H17.795a51.02 51.02 0 0 0 .74 3.013zm2.889 7.667H128.51v-3.012H20.095c.411 1.027.85 2.04 1.328 3.012zm5.025 7.668H128.51V154.5H24.162a37.883 37.883 0 0 0 2.287 3.013zm102.061 7.667v-3.012h-97.35a39.03 39.03 0 0 0 4.176 3.012zm0 7.805v-3.012h-82.7c5.408 1.725 11.584 2.765 18.567 3.012z"/><path fill="url(#x)" d="M67.607 170.301c-31.15 0-48.306-15.444-48.306-43.486 0-21.921 11.255-30.355 20.703-33.56l7.872-2.67-7.927-2.532c-5.614-1.794-18.69-8.339-18.69-30.26 0-10.899 4.094-36.256 41.953-36.256h62.326v26.288h-54.22c-14.323 0-21.58 6.08-21.58 18.074 0 6.915 2.807 18.512 21.58 18.512h48.305v17.088H70.222c-12.98 0-21.36 8.133-21.36 20.702 0 15.075 7.942 21.798 25.741 21.798h51.154v26.289H67.593z"/><path fill="url(#y)" d="M66.73 169.822c-31.149 0-48.305-15.445-48.305-43.486 0-21.921 11.255-30.355 20.702-33.56L47 90.107l-7.927-2.532c-5.614-1.794-18.69-8.339-18.69-30.26 0-10.899 4.094-36.257 41.952-36.257h62.327v26.29h-54.22c-14.323 0-21.58 6.079-21.58 18.073 0 6.914 2.807 18.511 21.58 18.511h48.305v17.088H69.346c-12.98 0-21.36 8.133-21.36 20.703 0 15.075 7.942 21.797 25.741 21.797h51.154v26.289H66.717z" opacity=".38"/></svg>