<?xml version="1.0" encoding="UTF-8"?>
<svg width="511px" height="304px" viewBox="0 0 511 304" version="1.1" xmlns="http://www.w3.org/2000/svg" xmlns:xlink="http://www.w3.org/1999/xlink">
    <title>Group 20</title>
    <defs>
        <path d="M450.021735,149.917899 L443.67675,185.290273 L409.934357,185.290273 L395.029595,269.809839 L361.515145,269.809839 L376.426711,185.290273 L342.857826,185.290273 L349.202812,149.917899 L450.021735,149.917899 Z M248.145398,262.412932 C239.69449,256.688729 235.469036,248.325203 235.469036,237.329157 C235.469036,236.421039 235.584709,234.836085 235.812652,232.567491 L271.024769,232.567491 C270.684555,236.421039 271.473851,239.427691 273.406264,241.580644 C275.331874,243.733597 278.278124,244.811774 282.248418,244.811774 C285.538284,244.811774 288.17494,244.073716 290.161788,242.601001 C292.145234,241.128286 293.138658,239.029752 293.138658,236.3088 C293.138658,233.13549 291.69275,230.526777 288.797531,228.486063 C285.909117,226.44535 281.231179,224.064517 274.763717,221.343565 C268.303059,218.622613 262.968508,216.044511 258.777076,213.605858 C254.578839,211.170606 250.948759,207.823835 247.890238,203.572348 C244.824913,199.320861 243.293951,194.021807 243.293951,187.671786 C243.293951,179.396691 245.338635,172.281402 249.4212,166.32932 C253.500362,160.377238 259.202343,155.843452 266.513535,152.724561 C273.831531,149.60567 282.193984,148.047925 291.604294,148.047925 C300.109637,148.047925 307.652174,149.381191 314.231907,152.044323 C320.804835,154.707455 325.93866,158.533793 329.623174,163.523338 C333.307688,168.512884 335.151646,174.407146 335.151646,181.209525 C335.151646,183.02236 335.097212,184.386237 334.981539,185.290953 L299.092398,185.290953 C299.204668,184.722954 299.259102,183.930477 299.259102,182.91012 C299.259102,180.189168 298.408568,178.063425 296.7075,176.532889 C295.006431,175.002354 292.682772,174.237086 289.736521,174.237086 C286.671196,174.237086 284.208049,175.002354 282.336874,176.532889 C280.465698,178.063425 279.530111,180.189168 279.530111,182.91012 C279.530111,185.858952 280.972617,188.379233 283.867835,190.477768 C286.759652,192.576302 291.267483,195.042164 297.391329,197.875355 C303.964258,200.936426 309.383862,203.800228 313.636533,206.46336 C317.889204,209.126491 321.543099,212.670531 324.608424,217.092078 C327.670347,221.513624 329.197907,226.955528 329.197907,233.417789 C329.197907,240.560287 327.272297,246.995338 323.417676,252.719541 C319.559653,258.443743 314.0618,262.92311 306.91391,266.15424 C299.772825,269.385371 291.321917,271.000936 281.567991,271.000936 C267.734902,271.000936 256.589502,268.140535 248.145398,262.412932 M164.706631,149.917899 L152.629045,219.47223 C152.292234,221.512944 152.122127,223.441419 152.122127,225.254253 C152.122127,229.788039 153.33669,233.304869 155.776022,235.797941 C158.215354,238.291013 161.984921,239.53925 167.088127,239.53925 C173.211973,239.53925 178.145072,237.780835 181.890824,234.267406 C185.629773,230.753977 188.069105,225.822252 189.202016,219.47223 L201.453111,149.917899 L234.794052,149.917899 L222.542958,219.47223 C220.617348,230.811797 216.701489,240.331727 210.808987,248.042224 C204.90628,255.752722 197.707358,261.507535 189.202016,265.303263 C180.696674,269.102392 171.398634,271.000256 161.304494,271.000256 C148.264104,271.000256 137.802533,267.599066 129.919782,260.796686 C122.037031,253.994307 118.100758,244.243095 118.100758,231.546454 C118.100758,227.465026 118.495406,223.441419 119.288104,219.47223 L131.535797,149.917899 L164.706631,149.917899 Z M45.418527,202.80572 L61.9222929,202.80572 C70.7644466,202.80572 75.9799224,198.615454 77.5687203,190.221318 C77.7966635,188.860842 77.9123361,187.898305 77.9123361,187.330307 C77.9123361,184.269236 76.91551,181.888403 74.9354664,180.187808 C72.9486185,178.487213 70.0261829,177.636916 66.174964,177.636916 L49.6711981,177.636916 L45.418527,202.80572 Z M102.577828,158.335164 C109.150757,163.947127 112.440623,171.405936 112.440623,180.697986 C112.440623,183.534579 112.21268,186.085471 111.760196,188.350663 C110.402743,196.513519 106.939368,203.686628 101.383678,209.863189 C95.8245867,216.046552 88.4555583,220.437488 79.2697887,223.042799 L97.9815414,269.809159 L60.9016519,269.809159 L44.9116086,225.593692 L41.3393649,225.593692 L33.511048,269.809159 L0,269.809159 L21.2633553,149.917219 L73.8297719,149.917219 C86.4176783,149.917219 95.9980957,152.7232 102.577828,158.335164 L102.577828,158.335164 Z" id="path-1"></path>
        <filter x="-6.4%" y="-16.2%" width="112.9%" height="147.0%" filterUnits="objectBoundingBox" id="filter-2">
            <feMorphology radius="0.405" operator="dilate" in="SourceAlpha" result="shadowSpreadOuter1"></feMorphology>
            <feOffset dx="0" dy="9" in="shadowSpreadOuter1" result="shadowOffsetOuter1"></feOffset>
            <feGaussianBlur stdDeviation="8" in="shadowOffsetOuter1" result="shadowBlurOuter1"></feGaussianBlur>
            <feComposite in="shadowBlurOuter1" in2="SourceAlpha" operator="out" result="shadowBlurOuter1"></feComposite>
            <feColorMatrix values="0 0 0 0 0.956862745   0 0 0 0 0.00784313725   0 0 0 0 0.356862745  0 0 0 1 0" type="matrix" in="shadowBlurOuter1"></feColorMatrix>
        </filter>
        <filter x="-6.3%" y="-15.8%" width="112.7%" height="146.2%" filterUnits="objectBoundingBox" id="filter-3">
            <feGaussianBlur stdDeviation="12" in="SourceAlpha" result="shadowBlurInner1"></feGaussianBlur>
            <feOffset dx="0" dy="0" in="shadowBlurInner1" result="shadowOffsetInner1"></feOffset>
            <feComposite in="shadowOffsetInner1" in2="SourceAlpha" operator="arithmetic" k2="-1" k3="1" result="shadowInnerInner1"></feComposite>
            <feColorMatrix values="0 0 0 0 0.956862745   0 0 0 0 0.00784313725   0 0 0 0 0.356862745  0 0 0 1 0" type="matrix" in="shadowInnerInner1"></feColorMatrix>
        </filter>
        <path d="M444.491221,6.03260577 C451.97252,8.33861244 458.97752,11.6785808 465.496014,16.089924 C469.701056,18.9367198 472.58947,22.9025071 474.53209,27.6267597 C476.879564,33.3271538 477.304831,39.2418229 476.831934,45.2891383 C476.52234,49.3025423 475.719436,53.1594915 474.130638,56.8497824 C472.23905,61.2441196 470.469939,65.6860735 468.16329,69.8831417 C467.545235,71.0036448 467.033234,72.1850333 466.538034,73.3765695 L465.946147,74.8080365 C465.747731,75.284651 465.54629,75.7596418 465.336114,76.2297618 C463.747316,79.7772028 461.484895,82.8960938 459.389179,86.1204217 C452.823055,96.215153 444.919891,105.112666 436.326093,113.41497 C431.978162,117.615439 427.392082,121.482592 422.353517,124.79195 C420.526569,125.99257 418.771067,127.305429 417.001956,128.591079 C414.623862,130.315482 412.024629,131.53991 409.231475,132.427621 C405.962022,133.464984 402.64834,134.237054 399.25641,134.764238 C397.099455,135.097555 394.976522,135.070345 392.884208,134.461532 C387.961315,133.02623 383.069043,131.478689 378.455745,129.135269 C377.387474,128.59448 376.404257,127.870026 375.356398,127.281621 C373.423985,126.200042 371.450745,125.196691 369.528538,124.091305 C364.598842,121.244509 361.329388,116.976015 359.315323,111.619142 C356.848774,105.058246 356.580005,98.2830764 357.09713,91.4330802 C357.597244,84.7565446 359.100989,78.2772781 360.652363,71.8116163 C360.720406,71.5293175 360.781644,71.2436176 360.866698,70.96472 C361.295367,69.5532263 361.257943,68.3696122 359.83585,67.4002731 C358.842426,66.7268375 358.631494,65.5602295 359.002327,64.369813 C359.427594,63.0127383 359.999153,61.7611005 361.162683,60.8699887 C361.720634,60.44484 362.023424,59.9720746 361.601559,59.1319808 C361.155879,58.2510726 361.686613,57.4381882 362.237759,56.7443455 C364.088521,54.4145305 365.942686,52.0847155 367.807057,49.7685053 C373.985337,42.0886187 380.898479,35.1297844 387.978326,28.3376084 C390.774883,25.6574708 393.591852,22.9977404 396.497277,20.4434469 C399.086303,18.1680509 401.981521,16.3212049 405.029836,14.7226457 C405.989239,14.2192696 406.904414,13.5832471 407.748143,12.8962068 C412.072259,9.38958009 416.838653,6.80127466 422.292279,5.50202016 C429.688524,3.24703133 437.077965,3.74700623 444.491221,6.03260577 Z M341.950817,1.63044582 C348.38766,2.08280406 354.535321,3.60653709 359.635124,7.77979696 C363.789133,11.1741844 367.051782,15.3508454 369.164509,20.3471932 C370.37567,23.2075938 370.130716,25.9659588 368.54532,28.5984797 C367.674373,30.0541889 366.541462,31.2684136 365.149988,32.2921718 C363.033859,33.8465155 361.057217,35.5879247 358.951295,37.1592744 C356.692276,38.8462645 354.344801,40.4210154 352.051761,42.0671912 C350.520799,43.1657755 349.04087,44.3323836 347.499702,45.4105608 C340.185108,50.5293514 332.846698,55.6141302 325.538908,60.7397232 C323.065555,62.47433 320.636429,64.2769605 318.21751,66.0931959 C314.686092,68.7427227 311.168282,71.4024532 307.330672,73.6098253 C301.268064,77.0960449 295.236075,80.629881 289.19388,84.1501125 C288.649539,84.4698243 288.139218,84.8371528 287.622093,85.1772718 C287.802406,86.0785871 288.486236,86.2350418 289.03398,86.5105382 C293.058708,88.5444497 297.100446,90.5477505 301.125174,92.5918655 C304.261945,94.1836224 307.405519,95.7753792 310.501464,97.4521657 C312.586973,98.5813608 314.563615,99.9214295 316.652527,101.047223 C318.044001,101.795485 319.557952,102.309065 320.997056,102.975698 C322.129967,103.502882 323.082566,104.257947 323.939904,105.196675 C324.589712,105.910925 325.413029,106.540145 326.277172,106.975497 C328.131337,107.917627 330.050142,108.737313 331.965545,109.550198 C333.901361,110.376687 335.663668,111.437858 337.181021,112.917376 C337.633505,113.356129 338.188053,113.760871 338.769819,113.981948 C341.161521,114.893467 343.291259,116.240338 345.308726,117.781077 C348.105282,119.917024 350.898437,122.063175 353.654167,124.253541 C355.300802,125.566401 356.076489,127.362229 356.117315,129.447158 C356.134325,130.331467 356.035663,131.229382 355.892773,132.106889 C355.71246,133.212275 355.178325,133.630622 354.042011,133.610923 C353.402409,133.59661 352.756003,133.518382 352.123206,133.409544 C345.080783,132.215727 338.031555,131.028711 331.179651,128.974393 C327.910198,127.991449 324.712189,126.743212 321.5448,125.460964 C313.321835,122.127798 305.054642,118.883063 296.954155,115.267598 C290.486692,112.379988 284.219956,109.033217 277.90559,105.81229 C273.799211,103.717157 269.75407,101.499582 265.698723,99.2990118 C264.766538,98.7888333 263.950025,98.7990369 263.045057,99.3296225 C260.435618,100.860158 257.81257,102.363484 255.182718,103.860007 C254.281152,104.373587 253.726604,105.115046 253.297934,106.063978 C252.113991,108.679493 250.817777,111.247392 249.606616,113.852703 C248.395455,116.458014 247.157077,119.053122 246.068394,121.709451 C244.758571,124.909971 242.904406,127.777174 240.852918,130.515132 C239.617942,132.161308 237.67192,132.341571 235.93683,131.232783 C233.660801,129.783876 232.595932,127.76697 232.51428,125.032414 C232.320359,118.454513 233.521313,112.135102 235.497954,105.887116 C239.175664,94.2856581 243.486172,82.9494925 249.065676,72.1201042 C253.451031,63.6171297 257.856798,55.1209576 262.272771,46.6349891 C262.912373,45.4037584 263.684658,44.2439527 264.361684,43.0331291 C264.586225,42.6317887 265.144175,41.7202699 265.433357,40.9686069 C264.606637,41.0808462 263.630224,41.4991925 263.174338,41.6828568 C261.238522,42.4481245 259.2925,43.2031886 257.421324,44.1079051 C255.86995,44.8561668 254.376412,45.7506798 252.933906,46.6962105 C252.134404,47.2199938 251.399542,47.4716818 250.44014,47.2982211 C246.976764,46.6792046 244.316293,44.8187538 242.251196,42.0535865 C240.907352,40.2543571 241.070655,38.4585289 242.601616,36.8089518 C244.707539,34.5403582 247.143469,32.6799074 249.688267,30.935097 C262.517725,22.1396202 276.480095,15.7147727 291.303205,11.1197653 C301.298683,8.02468263 311.437051,5.48059266 321.714907,3.49089664 C326.539137,2.55556944 331.40079,1.96036123 336.310074,1.79370293 C338.191455,1.72908033 340.086446,1.50120061 341.950817,1.63044582 Z M151.500216,1.63996915 C152.895092,1.70799295 153.279534,2.37462615 152.575291,3.56504257 C151.820017,4.84388993 151.078351,6.13974324 150.190393,7.32675848 C149.809354,7.84033814 149.128927,8.25868448 148.506336,8.44234873 C145.947929,9.20761643 143.665095,10.4082364 141.589791,12.1020289 C139.711812,13.6359655 137.394957,14.2957964 135.09171,14.9386212 C123.340729,18.2173682 111.596553,21.5063187 99.8523765,24.808874 C98.0866675,25.3054477 96.358382,25.9244642 94.5960751,26.4312415 C91.7450844,27.2543295 89.5541082,28.9821339 87.9244847,31.386775 C86.2812526,33.8084222 84.7843124,36.3253026 83.2159273,38.7945664 C80.2628725,43.4405917 77.2894049,48.0730122 74.3669693,52.7394445 C73.7647911,53.6951789 73.2714812,54.7359429 72.8530184,55.7903118 C72.4991962,56.6746211 72.7543564,57.0113389 73.7171612,56.9637223 C74.5472826,56.922908 75.3910125,56.7698544 76.1939168,56.5453759 C90.2277313,52.5897922 104.254742,48.6274061 118.27835,44.6412117 C119.211896,44.3745584 120.139455,44.0855933 121.064945,43.7889007 L123.839129,42.8902247 C124.301765,42.7414431 124.764864,42.5943756 125.228915,42.4508454 C125.987592,42.2161633 126.756475,41.97808 127.538966,41.8896491 C128.824974,41.743398 129.403337,42.4712526 129.063124,43.6956809 C128.77054,44.7466485 128.450739,45.7874126 128.161557,46.8349791 C127.923408,47.6988813 127.348447,48.2906883 126.647606,48.7940644 C123.674139,50.9436163 120.700671,53.0965695 117.727204,55.2461214 C115.662106,56.7358425 113.467728,57.9738756 110.980766,58.6235029 C109.735584,58.9500171 108.834018,59.5690336 108.616281,60.9601203 C108.452978,61.9838784 107.633063,62.1981533 106.741704,62.3376021 C105.472707,62.5314699 104.20371,62.7457449 102.955125,63.0484508 C100.808377,63.5688328 98.8759632,64.575585 97.0490157,65.793211 C94.3068934,67.6196499 91.3572408,68.9325091 88.2170685,69.9800756 C83.0934504,71.6874729 78.0752985,73.714582 73.0061146,75.5954399 C71.7541282,76.0614029 70.481729,76.4831505 69.2161341,76.9151016 C68.3077636,77.2246098 67.4674358,77.6191478 66.9333003,78.4762477 C66.0419404,79.897945 64.6810857,80.687021 63.1365156,81.1869959 C61.9593762,81.5679292 60.761824,81.8910422 59.5642719,82.2141553 C56.8935944,82.9352075 54.869323,84.4385334 53.5254789,86.904396 C52.6000977,88.5981885 51.4978054,90.1967477 50.4975771,91.8497259 C48.8067151,94.6421027 47.1294616,97.4446831 45.4522082,100.247264 C45.3603505,100.407119 45.3501441,100.614592 45.3093184,100.767646 C45.7716088,101.445883 46.3186583,101.311189 46.8593197,101.132258 L47.0750275,101.060148 C50.2764382,100.002378 53.4710447,98.9242007 56.6792598,97.8868378 C64.9838759,95.2067002 73.2476663,92.3973175 81.6101187,89.9246525 C89.9827775,87.4451851 98.5901837,85.955464 107.214601,84.6153952 C112.695443,83.7650978 118.176286,82.9011956 123.646922,81.9658684 C125.150666,81.7107792 126.613585,81.1869959 128.090112,80.7618472 C129.750355,80.2856806 130.614498,80.8060627 130.682541,82.5202623 C130.811822,85.7717998 129.675508,88.6458051 127.814539,91.2511165 C127.596803,91.5572236 127.229372,91.8259176 126.878952,91.9551628 C125.2051,92.5707782 123.912288,93.7135779 122.592259,94.8529765 C119.853539,97.210001 116.784812,98.965015 113.246589,99.8493243 C111.565934,100.271072 109.892082,100.733634 108.238644,101.250615 C106.898202,101.668961 105.70065,102.393414 104.737845,103.430777 C103.992777,104.226656 103.094613,104.662008 102.046755,104.900091 C96.4298268,106.185741 90.9762014,108.022383 85.5565974,109.950858 C84.5835863,110.297779 83.6207816,110.750138 82.7566388,111.307933 C81.1576345,112.338493 79.4701746,113.059545 77.6500314,113.641149 C75.1693876,114.436056 72.7098509,115.297598 70.2555514,116.174371 L66.5760462,117.494528 C65.9627887,117.714317 65.3493626,117.93345 64.7355199,118.151127 C58.9859086,120.185038 53.2499059,122.246159 47.4934903,124.256262 C45.4351975,124.973913 43.3462855,125.589529 41.1417008,125.742582 C40.4646755,125.790199 39.7944546,126.075899 39.1480486,126.317383 C34.9225946,127.898936 30.707347,129.5111 26.4784909,131.08245 C24.3521554,131.874927 22.1679835,132.164028 19.9021604,131.749083 C17.3981877,131.289923 15.7005214,129.861423 14.6390547,127.603033 C13.8803782,125.987468 13.080876,124.395711 12.3800358,122.756338 C11.7982704,121.39246 11.216505,120.011577 10.8456721,118.583078 C10.3013302,116.481142 10.9409319,115.498199 12.982214,114.685314 C16.2040376,113.403066 19.4224591,112.110613 22.6238699,110.773946 C25.1278426,109.726379 26.6179785,107.7843 27.3834593,105.206198 C28.4857517,101.498901 29.6424782,97.8086104 30.7753898,94.1115171 C31.3163295,92.3428984 31.3163295,92.298683 29.8329979,91.3055356 C27.6862495,89.8702335 26.0906473,87.9247529 24.6923691,85.7990093 C23.7363686,84.3501024 22.8279981,82.8671837 21.8243677,81.4522887 C20.1198972,79.0578511 20.3716553,76.6498088 23.1784182,75.095465 C24.3045255,74.4730473 25.4136221,73.7996117 26.5941636,73.2928344 C30.7379663,71.5140122 34.8953775,69.7487947 39.083408,68.0720081 C41.1621136,67.2387166 42.7475094,65.9564681 43.7783568,63.9633708 C45.2378736,61.1505869 46.7348138,58.3514077 48.2045369,55.5420249 C49.7627156,52.5523791 51.3208943,49.5627333 52.8484537,46.5560815 C53.2975358,45.6751734 53.6955858,44.7602533 54.0119845,43.8215249 C54.3692089,42.7603537 53.9609525,42.3079955 52.8450516,42.4780549 C52.208852,42.5732883 51.5760545,42.7365454 50.9738763,42.9576227 C49.1129074,43.6480642 47.2519386,44.3351046 45.4249911,45.1071747 C43.2510256,46.0220947 41.5329465,45.7704067 39.8624973,44.0868177 C38.4608169,42.6719228 37.2904819,41.0903695 36.4195348,39.270733 C36.0572073,38.5122677 35.6472498,37.7759101 35.2258101,37.0450794 L34.3783315,35.5858745 C34.2381036,35.3422643 34.0992775,35.09804 33.963192,34.8525874 C33.7216403,34.4240375 33.4766864,33.9886852 33.3099817,33.5261234 C32.7860527,32.0568094 33.0412129,30.9514228 34.3816549,30.1895562 L34.8754667,29.9072831 L35.867485,29.3395245 C37.3612888,28.4915122 38.8852335,27.6803285 40.4952948,27.1829045 C47.0750275,25.1421906 53.726205,23.33956 60.3603719,21.4723068 C61.2143082,21.2342235 62.1124724,21.1457926 62.9936258,21.009745 C66.1269939,20.5301772 68.7228243,19.0608633 70.6722487,16.5950007 C71.7711389,15.203914 72.7373458,13.680181 73.5708693,12.1122325 C75.2209057,9.00694624 77.3370348,6.28939559 79.9158545,3.9221675 C81.5284674,2.44605113 83.3145892,2.40183567 85.0190598,3.77931753 C85.5157718,4.18065793 85.9784624,4.6568245 86.3526975,5.17040415 C87.5774667,6.8539931 88.8056381,8.53758205 89.9385497,10.2823924 C90.5407279,11.2109172 91.2687852,11.6564731 92.3676754,11.6938862 C94.6527773,11.7704129 96.9048029,11.4832014 99.149347,11.1550495 L100.49538,10.955828 C110.259513,9.50351995 119.860343,7.22472279 129.539423,5.34726602 C135.663269,4.16025079 141.831343,3.22152241 147.979004,2.17055476 C148.860158,2.02090241 149.737909,1.87465125 150.619063,1.73180128 C150.911646,1.68418462 151.211034,1.6229632 151.500216,1.63996915 Z M239.34373,0.447171895 C243.433098,2.69535835 244.201981,5.69860893 247.046168,9.67800098 C249.682824,13.3648907 249.679422,17.0721876 247.195862,20.9597475 C241.93956,29.1668185 236.686661,37.3738894 231.423555,45.5775592 C226.92593,52.5840102 223.020277,59.9918015 219.118026,67.4063953 C214.372045,76.4229494 209.741737,85.5177309 204.771215,94.3846327 C202.120951,99.1156877 199.878942,103.972587 198.320764,109.24103 C197.861475,110.795373 197.357959,112.342915 196.752379,113.832636 C196.116179,115.38698 196.289688,116.648821 197.43961,117.801824 C199.059027,119.424192 199.732651,121.4479 199.433262,123.845739 C199.004593,127.28094 196.721759,129.532528 193.829943,129.410085 C192.737857,129.362468 191.792063,128.906709 190.972148,128.168651 C186.658239,124.281091 185.385839,120.124837 182.545055,114.747556 C182.395361,114.465257 182.235461,114.182958 182.041539,113.938073 C181.504001,113.254434 181.031104,113.138793 180.354079,113.655774 C179.663445,114.179557 179.051061,114.829184 178.387644,115.403986 C175.199842,118.175955 172.02905,120.978536 168.803824,123.696086 C167.143582,125.093975 165.313232,126.216368 163.254939,126.770762 C158.879791,127.944172 154.83465,126.934019 151.259005,124.080421 C145.557023,119.53303 141.818075,114.128539 137.745717,107.78532 C136.449503,105.768415 135.769076,103.510025 135.483296,101.112186 C135.245146,99.1156877 135.173702,97.0987821 135.081844,95.8539467 C135.248549,87.8985637 136.531154,80.9091187 138.21181,73.9979011 C139.970715,66.7669716 142.297776,59.7469159 145.097735,52.9309315 C148.081409,45.6795949 151.218179,38.5030844 154.297113,31.2993645 C154.504643,30.8095931 154.787021,30.3504325 155.0728,29.9048767 C157.726467,25.7588263 160.322297,21.5583569 163.088234,17.4973363 C164.32321,15.6845021 165.877987,14.123356 167.351112,12.5145933 C168.364949,11.4058054 169.548892,11.3922006 170.756651,12.2084862 C174.876639,15.000863 177.540512,18.1333588 180.684086,22.2147865 C181.194407,22.8746174 181.650293,23.6126755 181.997311,24.3847456 C182.633511,25.7962394 182.4566,27.1090986 181.333894,28.0750365 C178.200526,30.7619765 176.59812,34.5917162 174.822204,38.3024142 C172.791129,42.5505003 170.800879,46.8223947 168.769803,51.0704807 C162.846683,63.4508115 157.505328,76.1066387 154.164429,89.6569789 C153.143788,93.8064304 152.473567,98.06472 151.684272,102.278794 C151.53798,103.071271 151.53798,103.911365 151.592414,104.720848 C151.660457,105.737804 152.272841,106.173156 153.164201,105.78202 C153.837824,105.486116 154.48423,105.020153 155.038779,104.49637 C156.658196,102.969236 158.264004,101.421694 159.798368,99.7959256 C163.904747,95.4424027 168.028137,91.1024845 172.042659,86.6469259 C178.955801,78.9704406 185.542338,70.9538362 191.758042,62.5903105 C198.157461,53.9750968 204.44461,45.251045 210.677325,36.4861789 C217.794595,26.4730762 224.779182,16.344333 231.865833,6.3074219 C233.172254,4.46057585 234.648781,2.75317857 236.121906,1.05938606 C237.166362,-0.144635129 238.013494,-0.28408391 239.34373,0.447171895 Z M445.743208,16.6409167 C444.01152,17.1340892 442.317256,17.7701117 440.640003,18.4299425 C434.744099,20.7359492 429.103356,23.599751 423.591895,26.7016361 C418.131465,29.7763117 413.477342,34.0005894 408.683731,38.0105922 C405.86336,40.3676167 403.09402,42.7892638 400.174987,45.0136419 C398.511342,46.2788845 397.262758,47.6835759 396.67759,49.7651041 C395.793035,52.918007 394.319909,55.78521 392.363681,58.3905214 C391.819339,59.1149748 391.31242,59.8972485 390.927979,60.7203364 C388.743807,65.4037747 386.624276,70.121225 385.307649,75.158387 C383.905968,80.5186621 383.035021,85.9979789 382.562124,91.5283135 C382.119847,96.6641101 381.878295,101.823715 381.572102,106.973116 C381.534679,107.598935 381.582309,108.24176 381.677569,108.864178 C382.058608,111.316436 382.44305,113.768694 382.881925,116.210748 C383.150694,117.683463 383.276573,119.186789 383.967207,120.581277 C384.722481,122.098207 385.34167,122.482542 386.903251,122.064195 C387.454397,121.917944 388.005543,121.76149 388.4138,121.64925 C388.866284,121.492796 389.17928,121.380556 389.495679,121.275119 C392.731111,120.210547 395.633134,118.469138 398.494331,116.669908 C407.071118,111.268819 415.164802,105.245312 421.856805,97.4463837 C424.945945,93.8479249 428.215399,90.3957173 431.161649,86.6748157 C436.662905,79.7227837 441.000629,71.9714722 444.95051,64.0126881 C450.009487,53.8227235 452.455624,42.9049043 452.56109,31.4224875 C452.601916,27.147192 451.941901,22.9671297 450.288463,18.9877377 C449.332462,16.6919346 448.032846,15.9912895 445.743208,16.6409167 Z M335.469746,17.2283022 C329.662298,18.0173782 323.939904,19.231603 318.258336,20.629492 C312.049436,22.1566262 305.857547,23.7517842 299.658853,25.3333375 C295.538866,26.3843051 292.66406,28.8059522 291.065056,32.8329609 C289.98998,35.5437092 288.642734,38.1490206 287.373737,40.7781403 C286.084327,43.4514755 284.723473,46.0907987 283.427258,48.7641339 C282.239913,51.2163918 281.219272,53.7536793 279.916253,56.1413146 C276.514116,62.3586895 272.992905,68.5114418 269.536334,74.7016072 C268.934155,75.7797844 268.376205,76.8919735 267.876091,78.0211685 C267.654952,78.5279458 267.624333,79.1197528 267.50866,79.6707455 L267.848874,79.966649 L268.128684,79.8937754 L268.693029,79.7591765 C268.97328,79.6886018 269.247152,79.6061229 269.49891,79.4802789 C270.383466,79.0415254 271.240804,78.5279458 272.070926,77.9905578 C277.977035,74.1540157 283.862732,70.2834617 289.775646,66.4571232 C299.601017,60.1002995 309.439997,53.7570805 318.91835,46.883276 C329.407138,39.2748144 339.446844,31.1255637 348.955816,22.3232845 C350.007077,21.347143 351.048131,20.3505944 351.990523,19.2690161 C353.069,18.030983 352.619918,16.8745785 351.027718,16.5990821 C350.445952,16.5004476 349.843774,16.4698369 349.251802,16.4426274 C344.6317,16.2453583 340.04562,16.6058845 335.469746,17.2283022 Z" id="path-4"></path>
        <filter x="-6.1%" y="-14.4%" width="112.2%" height="142.2%" filterUnits="objectBoundingBox" id="filter-5">
            <feOffset dx="0" dy="9" in="SourceAlpha" result="shadowOffsetOuter1"></feOffset>
            <feGaussianBlur stdDeviation="8" in="shadowOffsetOuter1" result="shadowBlurOuter1"></feGaussianBlur>
            <feColorMatrix values="0 0 0 0 0.956862745   0 0 0 0 0.00784313725   0 0 0 0 0.356862745  0 0 0 1 0" type="matrix" in="shadowBlurOuter1"></feColorMatrix>
        </filter>
        <filter x="-4.4%" y="-8.5%" width="108.8%" height="130.4%" filterUnits="objectBoundingBox" id="filter-6">
            <feGaussianBlur stdDeviation="2.5" in="SourceAlpha" result="shadowBlurInner1"></feGaussianBlur>
            <feOffset dx="-2" dy="-4" in="shadowBlurInner1" result="shadowOffsetInner1"></feOffset>
            <feComposite in="shadowOffsetInner1" in2="SourceAlpha" operator="arithmetic" k2="-1" k3="1" result="shadowInnerInner1"></feComposite>
            <feColorMatrix values="0 0 0 0 0.956862745   0 0 0 0 0.00784313725   0 0 0 0 0.356862745  0 0 0 1 0" type="matrix" in="shadowInnerInner1"></feColorMatrix>
        </filter>
    </defs>
    <g id="Web" stroke="none" stroke-width="1" fill="none" fill-rule="evenodd">
        <g id="DT_EuroRust-'23_vs.2c" transform="translate(-500.000000, -384.000000)">
            <g id="Group-20" transform="translate(517.000000, 391.000000)">
                <g id="Combined-Shape">
                    <use fill="black" fill-opacity="1" filter="url(#filter-2)" xlink:href="#path-1"></use>
                    <use fill="#000000" fill-rule="evenodd" xlink:href="#path-1"></use>
                    <use fill="black" fill-opacity="1" filter="url(#filter-3)" xlink:href="#path-1"></use>
                    <use stroke="#F4025B" stroke-width="0.81" xlink:href="#path-1"></use>
                </g>
                <g id="Combined-Shape">
                    <use fill="black" fill-opacity="1" filter="url(#filter-5)" xlink:href="#path-4"></use>
                    <use fill="#FFFFFF" fill-rule="evenodd" xlink:href="#path-4"></use>
                    <use fill="black" fill-opacity="1" filter="url(#filter-6)" xlink:href="#path-4"></use>
                </g>
            </g>
        </g>
    </g>
</svg>