<svg width="851" height="503" viewBox="0 0 851 503" fill="none" xmlns="http://www.w3.org/2000/svg">
<g filter="url(#filter0_d_485_36956)">
<path d="M671.87 429.683V324.747H633.313V275.455H765.634V324.747H727.734V429.683H671.87Z" fill="#F7FFFF"/>
</g>
<path d="M674.609 426.945V322.008H636.052V278.194H762.895V322.008H724.996V426.945H674.609Z" fill="url(#paint0_linear_485_36956)"/>
<path d="M727.734 372.601H671.87V375.613H727.734V372.601Z" fill="#0000C6"/>
<path d="M727.734 380.405H671.87V383.417H727.734V380.405Z" fill="#0000C6"/>
<path d="M727.734 388.073H671.87V391.085H727.734V388.073Z" fill="#0000C6"/>
<path d="M727.734 395.877H671.87V398.89H727.734V395.877Z" fill="#0000C6"/>
<path d="M727.734 403.545H671.87V406.557H727.734V403.545Z" fill="#0000C6"/>
<path d="M727.734 411.212H671.87V414.225H727.734V411.212Z" fill="#0000C6"/>
<path d="M727.734 418.88H671.87V421.892H727.734V418.88Z" fill="#0000C6"/>
<path d="M727.734 426.685H671.87V429.683H727.734V426.685Z" fill="#0000C6"/>
<path opacity="0.38" d="M673.732 426.465V321.529H635.176V277.714H762.019V321.529H724.119V426.465H673.732Z" fill="url(#paint1_radial_485_36956)"/>
<g filter="url(#filter1_d_485_36956)">
<path d="M458.931 429.683V380.392H517.424C524.434 380.392 527.501 377.324 527.501 371.629C527.501 365.933 524.434 362.866 517.424 362.866H507.346C472.075 362.866 457.616 345.121 457.616 319.927C457.616 293.419 474.047 275.455 504.936 275.455H580.517V324.747H526.844C520.71 324.747 517.424 327.595 517.424 333.072C517.424 338.987 520.71 342.054 526.844 342.054H547.218C580.517 342.054 591.689 361.989 591.689 384.335C591.689 409.309 577.012 429.683 539.55 429.683H458.931Z" fill="#F7FFFF"/>
</g>
<path d="M461.669 426.945V383.13H517.424C528.569 383.13 530.239 375.928 530.239 371.629C530.239 367.329 528.569 360.127 517.424 360.127H507.346C476.608 360.127 460.355 346.23 460.355 319.927C460.355 293.625 477.018 278.194 504.936 278.194H577.778V322.008H526.844C519.121 322.008 514.685 326.048 514.685 333.072C514.685 340.52 519.121 344.792 526.844 344.792H547.218C583.529 344.792 588.951 369.561 588.951 384.335C588.951 400.245 582.53 426.945 539.55 426.945H461.669Z" fill="url(#paint2_linear_485_36956)"/>
<path d="M458.931 426.685V429.683H539.55C548.094 429.683 555.433 428.615 561.704 426.685H458.931Z" fill="#0000C6"/>
<path d="M572.548 421.892C574.081 420.961 575.492 419.948 576.82 418.88H458.917V421.892H572.548Z" fill="#0000C6"/>
<path d="M581.667 414.225C582.502 413.252 583.296 412.253 584.022 411.212H458.917V414.225H581.653H581.667Z" fill="#0000C6"/>
<path d="M586.815 406.557C587.308 405.571 587.773 404.572 588.198 403.545H458.931V406.557H586.815Z" fill="#0000C6"/>
<path d="M589.786 398.89C590.06 397.904 590.32 396.891 590.539 395.877H458.931V398.89H589.786Z" fill="#0000C6"/>
<path d="M591.306 391.085C591.416 390.086 591.498 389.086 591.566 388.073H458.931V391.085H591.32H591.306Z" fill="#0000C6"/>
<path d="M591.676 383.417C591.662 382.404 591.635 381.405 591.566 380.405H458.931V383.417H591.676Z" fill="#0000C6"/>
<path d="M591.073 375.613C590.922 374.6 590.745 373.587 590.539 372.601H527.473C527.391 373.723 527.186 374.723 526.83 375.613H591.073Z" fill="#0000C6"/>
<path opacity="0.38" d="M460.793 426.465V382.651H516.547C527.693 382.651 529.363 375.449 529.363 371.149C529.363 366.85 527.693 359.648 516.547 359.648H506.47C475.731 359.648 459.479 345.75 459.479 319.448C459.479 293.145 476.142 277.714 504.06 277.714H576.902V321.529H525.967C518.245 321.529 513.809 325.568 513.809 332.592C513.809 340.041 518.245 344.313 525.967 344.313H546.341C582.653 344.313 588.075 369.082 588.075 383.856C588.075 399.766 581.653 426.465 538.674 426.465H460.793Z" fill="url(#paint3_radial_485_36956)"/>
<g filter="url(#filter2_d_485_36956)">
<path d="M347.203 275.455H400.657V366.371C400.657 409.309 378.312 432.531 336.469 432.531C294.626 432.531 270.309 409.528 270.309 366.59V275.455H323.763V371.848C323.763 379.296 327.925 383.24 335.812 383.24C343.698 383.24 347.203 379.296 347.203 371.848V275.455Z" fill="#F7FFFF"/>
</g>
<path d="M336.469 429.793C294.982 429.793 273.047 407.94 273.047 366.59V278.194H321.024V371.848C321.024 380.83 326.419 385.978 335.812 385.978C345.204 385.978 349.942 381.09 349.942 371.848V278.194H397.919V366.371C397.919 407.858 376.669 429.793 336.469 429.793Z" fill="url(#paint4_linear_485_36956)"/>
<path d="M400.37 374.586H347.039C346.889 375.695 346.628 376.695 346.272 377.598H400.11C400.206 376.613 400.301 375.599 400.37 374.586Z" fill="#0000C6"/>
<path d="M270.884 377.598H324.899C324.475 376.695 324.173 375.695 323.995 374.586H270.624C270.706 375.599 270.802 376.612 270.897 377.598H270.884Z" fill="#0000C6"/>
<path d="M272.184 385.951H398.85C399.042 384.965 399.233 383.952 399.398 382.938H339.276C338.235 383.13 337.099 383.24 335.825 383.24C334.552 383.24 333.457 383.13 332.402 382.938H271.637C271.815 383.952 271.993 384.965 272.198 385.951H272.184Z" fill="#0000C6"/>
<path d="M274.224 393.618H396.892C397.207 392.632 397.494 391.633 397.768 390.606H273.321C273.608 391.633 273.91 392.632 274.224 393.618Z" fill="#0000C6"/>
<path d="M277.346 401.422H393.866C394.332 400.437 394.77 399.437 395.181 398.41H275.991C276.415 399.437 276.881 400.437 277.36 401.422H277.346Z" fill="#0000C6"/>
<path d="M281.878 409.09H389.512C390.183 408.118 390.826 407.118 391.443 406.078H279.893C280.523 407.118 281.194 408.118 281.878 409.09Z" fill="#0000C6"/>
<path d="M285.63 413.746C286.588 414.8 287.588 415.799 288.628 416.758H383.022C384.021 415.799 384.993 414.8 385.911 413.746H285.63Z" fill="#0000C6"/>
<path d="M372.616 424.425C374.286 423.494 375.875 422.495 377.408 421.413H294.42C295.995 422.495 297.652 423.494 299.377 424.425H372.616Z" fill="#0000C6"/>
<path d="M340.864 432.435C347.998 432.148 354.515 431.134 360.416 429.423H311.933C317.998 431.134 324.694 432.148 331.978 432.435H340.864Z" fill="#0000C6"/>
<path opacity="0.38" d="M335.592 429.313C294.105 429.313 272.171 407.461 272.171 366.111V277.714H320.148V371.368C320.148 380.35 325.542 385.499 334.935 385.499C344.328 385.499 349.065 380.611 349.065 371.368V277.714H397.043V365.892C397.043 407.379 375.792 429.313 335.592 429.313Z" fill="url(#paint5_radial_485_36956)"/>
<g filter="url(#filter3_d_485_36956)">
<path d="M168.878 429.683L141.274 379.077V429.683H88.0396V275.455H160.553C194.947 275.455 216.636 290.79 216.636 325.185C216.636 346.873 209.625 360.894 195.167 370.752L228.247 429.683H168.878ZM154.2 342.93C160.115 342.93 162.744 339.863 162.744 333.729C162.744 327.595 160.115 324.747 154.2 324.747H141.274V342.93H154.2Z" fill="#F7FFFF"/>
</g>
<path d="M170.507 426.945L143.684 377.763L138.536 379.077V426.945H90.7778V278.194H160.553C184.884 278.194 213.897 286.341 213.897 325.185C213.897 345.573 207.64 358.936 193.619 368.493L191.538 369.903L223.564 426.945H170.493H170.507ZM138.536 345.668H154.2C159.348 345.668 165.482 343.601 165.482 333.729C165.482 326.171 161.47 322.008 154.2 322.008H138.536V345.668Z" fill="url(#paint6_linear_485_36956)"/>
<path d="M88.0396 375.613H197.891L196.207 372.601H88.0396V375.613Z" fill="#0000C6"/>
<path d="M200.588 380.405H142L143.643 383.417H202.273L200.588 380.405Z" fill="#0000C6"/>
<path d="M141.274 380.405H88.0396V383.417H141.274V380.405Z" fill="#0000C6"/>
<path d="M204.888 388.073H146.176L147.819 391.085H206.586L204.888 388.073Z" fill="#0000C6"/>
<path d="M141.274 388.073H88.0396V391.085H141.274V388.073Z" fill="#0000C6"/>
<path d="M141.274 395.877H88.0396V398.89H141.274V395.877Z" fill="#0000C6"/>
<path d="M209.269 395.877H150.434L152.077 398.89H210.967L209.269 395.877Z" fill="#0000C6"/>
<path d="M141.274 403.545H88.0396V406.557H141.274V403.545Z" fill="#0000C6"/>
<path d="M213.582 403.545H154.624L156.267 406.557H215.267L213.582 403.545Z" fill="#0000C6"/>
<path d="M217.882 411.212H158.8L160.443 414.225H219.566L217.882 411.212Z" fill="#0000C6"/>
<path d="M141.274 411.212H88.0396V414.225H141.274V411.212Z" fill="#0000C6"/>
<path d="M222.181 418.88H162.99L164.633 421.892H223.879L222.181 418.88Z" fill="#0000C6"/>
<path d="M141.274 418.88H88.0396V421.892H141.274V418.88Z" fill="#0000C6"/>
<path d="M168.878 429.683H228.247L226.562 426.684H167.248L168.878 429.683Z" fill="#0000C6"/>
<path d="M141.274 426.685H88.0396V429.683H141.274V426.685Z" fill="#0000C6"/>
<path opacity="0.38" d="M169.631 426.465L142.808 377.283L137.66 378.598V426.465H89.9016V277.714H159.677C184.007 277.714 213.021 285.861 213.021 324.706C213.021 345.093 206.764 358.457 192.743 368.014L190.675 369.424L222.701 426.465H169.631ZM137.66 345.189H153.323C158.472 345.189 164.606 343.122 164.606 333.25C164.606 325.692 160.594 321.529 153.323 321.529H137.66V345.189Z" fill="url(#paint7_radial_485_36956)"/>
<g filter="url(#filter4_d_485_36956)">
<path d="M623.455 149.926C623.455 101.292 651.058 70.1832 695.749 70.1832C740.44 70.1832 767.824 101.292 767.824 149.926C767.824 198.56 740.44 229.888 695.749 229.888C651.058 229.888 623.455 199.875 623.455 149.926ZM733.868 149.926C733.868 118.818 720.067 101.73 695.749 101.73C671.432 101.73 657.411 118.818 657.411 149.926C657.411 181.034 672.528 198.122 695.749 198.122C718.971 198.122 733.868 181.911 733.868 149.926Z" fill="#F7FFFF"/>
</g>
<path d="M717.985 227.053H673.5C680.332 228.915 687.767 229.888 695.749 229.888C703.732 229.888 711.167 228.915 717.985 227.053Z" fill="#0000C6"/>
<path d="M660.396 222.015H731.047C732.855 221.084 734.594 220.084 736.291 219.003H655.138C656.823 220.084 658.575 221.084 660.396 222.015Z" fill="#0000C6"/>
<path d="M645.061 210.951C646.115 212.006 647.211 213.005 648.347 213.964H743.055C744.178 212.991 745.273 212.006 746.328 210.951H645.061Z" fill="#0000C6"/>
<path d="M640.516 205.913H750.874C751.654 204.941 752.421 203.927 753.147 202.901H638.229C638.968 203.927 639.721 204.941 640.516 205.913Z" fill="#0000C6"/>
<path d="M634.97 197.875H690.957C686.809 197.451 682.961 196.438 679.47 194.863H633.3C633.834 195.89 634.395 196.89 634.97 197.875Z" fill="#0000C6"/>
<path d="M758.048 194.863H712.002C708.524 196.438 704.69 197.451 700.542 197.875H756.392C756.967 196.89 757.514 195.89 758.048 194.863Z" fill="#0000C6"/>
<path d="M630.89 189.825H671.583C670.515 188.894 669.515 187.894 668.557 186.812H629.644C630.041 187.839 630.452 188.839 630.876 189.825H630.89Z" fill="#0000C6"/>
<path d="M761.663 186.812H722.832C721.888 187.894 720.888 188.894 719.834 189.825H760.444C760.869 188.839 761.28 187.839 761.677 186.812H761.663Z" fill="#0000C6"/>
<path d="M627.932 181.774H664.86C664.271 180.815 663.71 179.802 663.189 178.761H627.056C627.33 179.775 627.631 180.788 627.932 181.774Z" fill="#0000C6"/>
<path d="M764.251 178.761H728.158C727.638 179.802 727.09 180.815 726.502 181.773H763.374C763.676 180.788 763.977 179.774 764.251 178.761Z" fill="#0000C6"/>
<path d="M625.838 173.723H661.054C660.698 172.751 660.369 171.751 660.068 170.71H625.235C625.413 171.724 625.618 172.723 625.838 173.723Z" fill="#0000C6"/>
<path d="M766.045 170.71H731.239C730.938 171.751 730.609 172.751 730.267 173.723H765.456C765.661 172.723 765.867 171.724 766.045 170.71Z" fill="#0000C6"/>
<path d="M695.749 227.149C652.195 227.149 626.194 198.286 626.194 149.926C626.194 101.565 652.852 72.9216 695.749 72.9216C738.647 72.9216 765.086 102.428 765.086 149.926C765.086 197.424 739.167 227.149 695.749 227.149ZM695.749 98.9914C669.639 98.9914 654.673 117.558 654.673 149.926C654.673 182.294 670.022 200.861 695.749 200.861C721.477 200.861 736.607 182.294 736.607 149.926C736.607 117.558 721.71 98.9914 695.749 98.9914Z" fill="url(#paint8_linear_485_36956)"/>
<path opacity="0.38" d="M694.873 226.67C651.318 226.67 625.317 197.807 625.317 149.447C625.317 101.086 651.976 72.4423 694.873 72.4423C737.77 72.4423 764.21 101.949 764.21 149.447C764.21 196.944 738.291 226.67 694.873 226.67ZM694.873 98.512C668.762 98.512 653.797 117.079 653.797 149.447C653.797 181.815 669.146 200.381 694.873 200.381C720.6 200.381 735.73 181.815 735.73 149.447C735.73 117.079 720.833 98.512 694.873 98.512Z" fill="url(#paint9_radial_485_36956)"/>
<g filter="url(#filter5_d_485_36956)">
<path d="M541.302 227.04L508.88 176.434H479.524V227.04H445.567V72.812H516.547C549.189 72.812 569.782 87.4899 569.782 124.951C569.782 149.488 557.076 163.508 541.741 169.862L580.298 227.04H541.302ZM512.385 149.707C526.844 149.707 535.168 143.135 535.168 126.923C535.168 110.712 526.844 104.578 512.604 104.578H479.524V149.707H512.385Z" fill="#F7FFFF"/>
</g>
<path d="M445.567 173.175H543.972L541.946 170.163H445.567V173.175Z" fill="#0000C6"/>
<path d="M547.204 177.967H509.865L511.796 180.98H549.244L547.204 177.967Z" fill="#0000C6"/>
<path d="M479.524 177.967H445.567V180.98H479.524V177.967Z" fill="#0000C6"/>
<path d="M552.379 185.635H514.767L516.698 188.647H554.406L552.379 185.635Z" fill="#0000C6"/>
<path d="M479.524 185.635H445.567V188.647H479.524V185.635Z" fill="#0000C6"/>
<path d="M557.637 193.44H519.779L521.709 196.452H559.677L557.637 193.44Z" fill="#0000C6"/>
<path d="M479.524 193.44H445.567V196.452H479.524V193.44Z" fill="#0000C6"/>
<path d="M562.813 201.107H524.68L526.611 204.119H564.839L562.813 201.107Z" fill="#0000C6"/>
<path d="M479.524 201.107H445.567V204.119H479.524V201.107Z" fill="#0000C6"/>
<path d="M567.975 208.775H529.596L531.526 211.787H570.015L567.975 208.775Z" fill="#0000C6"/>
<path d="M479.524 208.775H445.567V211.787H479.524V208.775Z" fill="#0000C6"/>
<path d="M573.15 216.442H534.511L536.442 219.455H575.177L573.15 216.442Z" fill="#0000C6"/>
<path d="M479.524 216.442H445.567V219.455H479.524V216.442Z" fill="#0000C6"/>
<path d="M541.303 227.04H580.298L578.408 224.247H539.509L541.303 227.04Z" fill="#0000C6"/>
<path d="M479.524 224.247H445.567V227.04H479.524V224.247Z" fill="#0000C6"/>
<path d="M542.795 224.301L510.372 173.695H476.785V224.301H448.306V75.5504H516.547C550.531 75.5504 567.044 91.7071 567.044 124.951C567.044 152.322 550.531 163.262 540.686 167.329L537.592 168.616L575.149 224.301H542.795ZM476.785 152.445H512.385C529.322 152.445 537.907 143.86 537.907 126.923C537.907 109.986 529.39 101.839 512.604 101.839H476.785V152.445Z" fill="url(#paint10_linear_485_36956)"/>
<path opacity="0.38" d="M541.933 223.822L509.51 173.216H475.923V223.822H447.443V75.071H515.685C549.669 75.071 566.181 91.2277 566.181 124.472C566.181 151.843 549.669 162.783 539.824 166.849L536.73 168.136L574.287 223.822H541.933ZM475.909 151.966H511.509C528.446 151.966 537.031 143.381 537.031 126.444C537.031 109.507 528.514 101.36 511.728 101.36H475.909V151.966Z" fill="url(#paint11_radial_485_36956)"/>
<g filter="url(#filter6_d_485_36956)">
<path d="M347.203 72.812H381.379V163.727C381.379 206.666 359.691 229.888 319.381 229.888C279.072 229.888 255.412 206.885 255.412 163.947V72.812H289.587V167.233C289.587 187.387 299.664 198.341 318.724 198.341C337.783 198.341 347.203 186.949 347.203 167.233V72.812Z" fill="#F7FFFF"/>
</g>
<path d="M255.959 174.955H290.162C290.012 173.983 289.902 172.97 289.806 171.943H255.686C255.754 172.956 255.85 173.969 255.959 174.955Z" fill="#0000C6"/>
<path d="M381.091 171.943H346.971C346.875 172.97 346.765 173.983 346.615 174.955H380.845C380.941 173.969 381.023 172.956 381.105 171.943H381.091Z" fill="#0000C6"/>
<path d="M257.096 182.787H292.284C291.887 181.828 291.545 180.815 291.244 179.774H256.589C256.753 180.788 256.918 181.801 257.109 182.787H257.096Z" fill="#0000C6"/>
<path d="M380.229 179.774H345.547C345.245 180.815 344.889 181.828 344.506 182.787H379.736C379.928 181.801 380.092 180.788 380.242 179.774H380.229Z" fill="#0000C6"/>
<path d="M259.067 190.619H297.296C296.406 189.701 295.598 188.688 294.859 187.606H258.205C258.479 188.633 258.753 189.633 259.067 190.619Z" fill="#0000C6"/>
<path d="M378.654 187.606H341.918C341.179 188.688 340.371 189.688 339.495 190.619H377.819C378.12 189.633 378.394 188.633 378.654 187.606Z" fill="#0000C6"/>
<path d="M262.039 198.45H374.944C375.382 197.465 375.806 196.465 376.19 195.438H332.8C328.87 197.328 324.174 198.341 318.71 198.341C313.247 198.341 308.167 197.341 304.101 195.438H260.738C261.149 196.465 261.587 197.465 262.039 198.45Z" fill="#0000C6"/>
<path d="M266.461 206.296H370.685C371.329 205.324 371.945 204.311 372.52 203.284H264.558C265.16 204.311 265.79 205.324 266.447 206.296H266.461Z" fill="#0000C6"/>
<path d="M367.084 211.116H270.199C271.116 212.17 272.088 213.17 273.102 214.128H364.305C365.277 213.17 366.208 212.17 367.098 211.116H367.084Z" fill="#0000C6"/>
<path d="M353.926 221.96C355.569 221.043 357.13 220.029 358.623 218.948H278.948C280.495 220.029 282.111 221.043 283.795 221.96H353.926Z" fill="#0000C6"/>
<path d="M315.027 229.792H323.612C330.486 229.504 336.77 228.491 342.466 226.78H295.625C301.499 228.491 307.976 229.504 315.027 229.792Z" fill="#0000C6"/>
<path d="M319.381 227.149C279.318 227.149 258.15 205.297 258.15 163.947V75.5504H286.849V167.233C286.849 189.058 298.172 201.08 318.724 201.08C339.276 201.08 349.942 188.743 349.942 167.233V75.5504H378.641V163.728C378.641 205.215 358.144 227.149 319.381 227.149Z" fill="url(#paint12_linear_485_36956)"/>
<path opacity="0.38" d="M317.82 226.67C277.757 226.67 256.589 204.817 256.589 163.467V75.0711H285.288V166.753C285.288 188.579 296.611 200.6 317.163 200.6C337.715 200.6 348.381 188.264 348.381 166.753V75.0711H377.08V163.248C377.08 204.735 356.582 226.67 317.82 226.67Z" fill="url(#paint13_radial_485_36956)"/>
<g filter="url(#filter7_d_485_36956)">
<path d="M133.607 227.04C98.7742 227.04 82.5627 208.418 82.5627 180.815C82.5627 159.346 92.8592 148.83 105.127 144.668C94.8309 141.382 84.5344 131.524 84.5344 111.807C84.5344 92.0905 95.7072 72.812 129.225 72.812H194.29V104.578H137.331C125.282 104.578 118.491 108.74 118.491 119.913C118.491 129.552 124.187 135.686 137.331 135.686H188.375V158.251H136.236C125.063 158.251 117.615 164.823 117.615 176.215C117.615 189.14 123.529 195.274 140.617 195.274H194.509V227.04H133.607Z" fill="#F7FFFF"/>
</g>
<path d="M83.5896 169.889C83.3979 170.861 83.2336 171.874 83.0967 172.901H117.875C118.025 171.847 118.244 170.833 118.532 169.889H83.6033H83.5896Z" fill="#0000C6"/>
<path d="M117.902 180.705C117.765 179.761 117.697 178.734 117.669 177.693H82.6723C82.6175 178.679 82.5764 179.665 82.5764 180.705H117.916H117.902Z" fill="#0000C6"/>
<path d="M83.0009 188.373H120.736C120.079 187.456 119.545 186.456 119.107 185.361H82.7271C82.7955 186.374 82.8777 187.387 83.0009 188.373Z" fill="#0000C6"/>
<path d="M84.5343 196.178H194.523V195.274H140.631C134.908 195.274 130.458 194.562 127.048 193.165H83.7949C84.014 194.192 84.2605 195.192 84.5343 196.178Z" fill="#0000C6"/>
<path d="M87.4233 203.845H194.509V200.833H86.0952C86.506 201.86 86.9441 202.873 87.4233 203.845Z" fill="#0000C6"/>
<path d="M92.4485 211.513H194.509V208.5H90.1619C90.8739 209.541 91.6406 210.554 92.4485 211.513Z" fill="#0000C6"/>
<path d="M194.509 219.18V216.168H97.1587C98.4594 217.25 99.856 218.249 101.335 219.18H194.509Z" fill="#0000C6"/>
<path d="M194.509 226.985V223.973H111.809C117.217 225.698 123.393 226.738 130.376 226.985H194.509Z" fill="#0000C6"/>
<path d="M133.607 224.301C102.457 224.301 85.301 208.857 85.301 180.815C85.301 158.894 96.5559 150.46 106.003 147.256L113.876 144.586L105.949 142.053C100.335 140.259 87.259 133.714 87.259 111.793C87.259 100.894 91.3529 75.5367 129.212 75.5367H191.538V101.826H137.317C122.995 101.826 115.739 107.905 115.739 119.899C115.739 126.814 118.545 138.411 137.317 138.411H185.623V155.499H136.222C123.242 155.499 114.862 163.632 114.862 176.201C114.862 191.276 122.804 197.999 140.603 197.999H191.757V224.288H133.593L133.607 224.301Z" fill="url(#paint14_linear_485_36956)"/>
<path opacity="0.38" d="M132.731 223.822C101.581 223.822 84.4248 208.377 84.4248 180.336C84.4248 158.415 95.6797 149.98 105.127 146.777L113 144.107L105.072 141.574C99.4587 139.78 86.3828 133.235 86.3828 111.314C86.3828 100.415 90.4767 75.0573 128.335 75.0573H190.662V101.346H136.441C122.119 101.346 114.862 107.425 114.862 119.42C114.862 126.334 117.669 137.931 136.441 137.931H184.747V155.019H135.346C122.366 155.019 113.986 163.152 113.986 175.722C113.986 190.797 121.927 197.519 139.727 197.519H190.881V223.808H132.717L132.731 223.822Z" fill="url(#paint15_radial_485_36956)"/>
<defs>
<filter id="filter0_d_485_36956" x="617.241" y="259.382" width="164.466" height="186.374" filterUnits="userSpaceOnUse" color-interpolation-filters="sRGB">
<feFlood flood-opacity="0" result="BackgroundImageFix"/>
<feColorMatrix in="SourceAlpha" type="matrix" values="0 0 0 0 0 0 0 0 0 0 0 0 0 0 0 0 0 0 127 0" result="hardAlpha"/>
<feOffset/>
<feGaussianBlur stdDeviation="8.03645"/>
<feColorMatrix type="matrix" values="0 0 0 0 0 0 0 0 0 0.027451 0 0 0 0 0.894118 0 0 0 0.5 0"/>
<feBlend mode="normal" in2="BackgroundImageFix" result="effect1_dropShadow_485_36956"/>
<feBlend mode="normal" in="SourceGraphic" in2="effect1_dropShadow_485_36956" result="shape"/>
</filter>
<filter id="filter1_d_485_36956" x="441.544" y="259.382" width="166.219" height="186.374" filterUnits="userSpaceOnUse" color-interpolation-filters="sRGB">
<feFlood flood-opacity="0" result="BackgroundImageFix"/>
<feColorMatrix in="SourceAlpha" type="matrix" values="0 0 0 0 0 0 0 0 0 0 0 0 0 0 0 0 0 0 127 0" result="hardAlpha"/>
<feOffset/>
<feGaussianBlur stdDeviation="8.03645"/>
<feColorMatrix type="matrix" values="0 0 0 0 0 0 0 0 0 0.027451 0 0 0 0 0.894118 0 0 0 0.5 0"/>
<feBlend mode="normal" in2="BackgroundImageFix" result="effect1_dropShadow_485_36956"/>
<feBlend mode="normal" in="SourceGraphic" in2="effect1_dropShadow_485_36956" result="shape"/>
</filter>
<filter id="filter2_d_485_36956" x="254.236" y="259.382" width="162.494" height="189.222" filterUnits="userSpaceOnUse" color-interpolation-filters="sRGB">
<feFlood flood-opacity="0" result="BackgroundImageFix"/>
<feColorMatrix in="SourceAlpha" type="matrix" values="0 0 0 0 0 0 0 0 0 0 0 0 0 0 0 0 0 0 127 0" result="hardAlpha"/>
<feOffset/>
<feGaussianBlur stdDeviation="8.03645"/>
<feColorMatrix type="matrix" values="0 0 0 0 0 0 0 0 0 0.027451 0 0 0 0 0.894118 0 0 0 0.5 0"/>
<feBlend mode="normal" in2="BackgroundImageFix" result="effect1_dropShadow_485_36956"/>
<feBlend mode="normal" in="SourceGraphic" in2="effect1_dropShadow_485_36956" result="shape"/>
</filter>
<filter id="filter3_d_485_36956" x="71.9667" y="259.382" width="172.353" height="186.374" filterUnits="userSpaceOnUse" color-interpolation-filters="sRGB">
<feFlood flood-opacity="0" result="BackgroundImageFix"/>
<feColorMatrix in="SourceAlpha" type="matrix" values="0 0 0 0 0 0 0 0 0 0 0 0 0 0 0 0 0 0 127 0" result="hardAlpha"/>
<feOffset/>
<feGaussianBlur stdDeviation="8.03645"/>
<feColorMatrix type="matrix" values="0 0 0 0 0 0 0 0 0 0.027451 0 0 0 0 0.894118 0 0 0 0.5 0"/>
<feBlend mode="normal" in2="BackgroundImageFix" result="effect1_dropShadow_485_36956"/>
<feBlend mode="normal" in="SourceGraphic" in2="effect1_dropShadow_485_36956" result="shape"/>
</filter>
<filter id="filter4_d_485_36956" x="607.382" y="54.1103" width="176.515" height="191.85" filterUnits="userSpaceOnUse" color-interpolation-filters="sRGB">
<feFlood flood-opacity="0" result="BackgroundImageFix"/>
<feColorMatrix in="SourceAlpha" type="matrix" values="0 0 0 0 0 0 0 0 0 0 0 0 0 0 0 0 0 0 127 0" result="hardAlpha"/>
<feOffset/>
<feGaussianBlur stdDeviation="8.03645"/>
<feColorMatrix type="matrix" values="0 0 0 0 0 0 0 0 0 0.027451 0 0 0 0 0.894118 0 0 0 0.5 0"/>
<feBlend mode="normal" in2="BackgroundImageFix" result="effect1_dropShadow_485_36956"/>
<feBlend mode="normal" in="SourceGraphic" in2="effect1_dropShadow_485_36956" result="shape"/>
</filter>
<filter id="filter5_d_485_36956" x="429.494" y="56.7391" width="166.876" height="186.374" filterUnits="userSpaceOnUse" color-interpolation-filters="sRGB">
<feFlood flood-opacity="0" result="BackgroundImageFix"/>
<feColorMatrix in="SourceAlpha" type="matrix" values="0 0 0 0 0 0 0 0 0 0 0 0 0 0 0 0 0 0 127 0" result="hardAlpha"/>
<feOffset/>
<feGaussianBlur stdDeviation="8.03645"/>
<feColorMatrix type="matrix" values="0 0 0 0 0 0 0 0 0 0.027451 0 0 0 0 0.894118 0 0 0 0.5 0"/>
<feBlend mode="normal" in2="BackgroundImageFix" result="effect1_dropShadow_485_36956"/>
<feBlend mode="normal" in="SourceGraphic" in2="effect1_dropShadow_485_36956" result="shape"/>
</filter>
<filter id="filter6_d_485_36956" x="239.339" y="56.7391" width="158.113" height="189.222" filterUnits="userSpaceOnUse" color-interpolation-filters="sRGB">
<feFlood flood-opacity="0" result="BackgroundImageFix"/>
<feColorMatrix in="SourceAlpha" type="matrix" values="0 0 0 0 0 0 0 0 0 0 0 0 0 0 0 0 0 0 127 0" result="hardAlpha"/>
<feOffset/>
<feGaussianBlur stdDeviation="8.03645"/>
<feColorMatrix type="matrix" values="0 0 0 0 0 0 0 0 0 0.027451 0 0 0 0 0.894118 0 0 0 0.5 0"/>
<feBlend mode="normal" in2="BackgroundImageFix" result="effect1_dropShadow_485_36956"/>
<feBlend mode="normal" in="SourceGraphic" in2="effect1_dropShadow_485_36956" result="shape"/>
</filter>
<filter id="filter7_d_485_36956" x="66.4898" y="56.7391" width="144.092" height="186.374" filterUnits="userSpaceOnUse" color-interpolation-filters="sRGB">
<feFlood flood-opacity="0" result="BackgroundImageFix"/>
<feColorMatrix in="SourceAlpha" type="matrix" values="0 0 0 0 0 0 0 0 0 0 0 0 0 0 0 0 0 0 127 0" result="hardAlpha"/>
<feOffset/>
<feGaussianBlur stdDeviation="8.03645"/>
<feColorMatrix type="matrix" values="0 0 0 0 0 0 0 0 0 0.027451 0 0 0 0 0.894118 0 0 0 0.5 0"/>
<feBlend mode="normal" in2="BackgroundImageFix" result="effect1_dropShadow_485_36956"/>
<feBlend mode="normal" in="SourceGraphic" in2="effect1_dropShadow_485_36956" result="shape"/>
</filter>
<linearGradient id="paint0_linear_485_36956" x1="699.482" y1="426.945" x2="699.482" y2="278.207" gradientUnits="userSpaceOnUse">
<stop offset="0.36" stop-color="#2C19FF" stop-opacity="0"/>
<stop offset="0.4" stop-color="#4C50FF" stop-opacity="0.1"/>
<stop offset="0.5" stop-color="#8CD4FF" stop-opacity="0.32"/>
<stop offset="0.55" stop-color="#9DFAFF" stop-opacity="0.4"/>
<stop offset="0.61" stop-color="#6DCBFF" stop-opacity="0.66"/>
<stop offset="0.67" stop-color="#3F9AFF" stop-opacity="0.9"/>
<stop offset="0.7" stop-color="#2E82FF"/>
<stop offset="0.72" stop-color="#2777FF"/>
<stop offset="0.77" stop-color="#1856CD"/>
<stop offset="0.82" stop-color="#0D3AA3"/>
<stop offset="0.87" stop-color="#042985"/>
<stop offset="0.9" stop-color="#001C73"/>
<stop offset="0.93" stop-color="#00196D"/>
</linearGradient>
<radialGradient id="paint1_radial_485_36956" cx="0" cy="0" r="1" gradientUnits="userSpaceOnUse" gradientTransform="translate(389.813 196.185) scale(365.976 193.967)">
<stop stop-color="#F700FF"/>
<stop offset="0.15" stop-color="#F71FFF" stop-opacity="0.88"/>
<stop offset="0.47" stop-color="#F76FFF" stop-opacity="0.56"/>
<stop offset="0.94" stop-color="#F7EEFF" stop-opacity="0.06"/>
<stop offset="1" stop-color="#F7FFFF" stop-opacity="0"/>
</radialGradient>
<linearGradient id="paint2_linear_485_36956" x1="524.661" y1="426.945" x2="524.661" y2="278.207" gradientUnits="userSpaceOnUse">
<stop offset="0.36" stop-color="#2C19FF" stop-opacity="0"/>
<stop offset="0.4" stop-color="#4C50FF" stop-opacity="0.1"/>
<stop offset="0.5" stop-color="#8CD4FF" stop-opacity="0.32"/>
<stop offset="0.55" stop-color="#9DFAFF" stop-opacity="0.4"/>
<stop offset="0.61" stop-color="#6DCBFF" stop-opacity="0.66"/>
<stop offset="0.67" stop-color="#3F9AFF" stop-opacity="0.9"/>
<stop offset="0.7" stop-color="#2E82FF"/>
<stop offset="0.72" stop-color="#2777FF"/>
<stop offset="0.77" stop-color="#1856CD"/>
<stop offset="0.82" stop-color="#0D3AA3"/>
<stop offset="0.87" stop-color="#042985"/>
<stop offset="0.9" stop-color="#001C73"/>
<stop offset="0.93" stop-color="#00196D"/>
</linearGradient>
<radialGradient id="paint3_radial_485_36956" cx="0" cy="0" r="1" gradientUnits="userSpaceOnUse" gradientTransform="translate(0.0540724 196.185) scale(365.976 193.967)">
<stop stop-color="#F700FF"/>
<stop offset="0.15" stop-color="#F71FFF" stop-opacity="0.88"/>
<stop offset="0.47" stop-color="#F76FFF" stop-opacity="0.56"/>
<stop offset="0.94" stop-color="#F7EEFF" stop-opacity="0.06"/>
<stop offset="1" stop-color="#F7FFFF" stop-opacity="0"/>
</radialGradient>
<linearGradient id="paint4_linear_485_36956" x1="335.491" y1="429.793" x2="335.491" y2="278.208" gradientUnits="userSpaceOnUse">
<stop offset="0.36" stop-color="#2C19FF" stop-opacity="0"/>
<stop offset="0.4" stop-color="#4C50FF" stop-opacity="0.1"/>
<stop offset="0.5" stop-color="#8CD4FF" stop-opacity="0.32"/>
<stop offset="0.55" stop-color="#9DFAFF" stop-opacity="0.4"/>
<stop offset="0.61" stop-color="#6DCBFF" stop-opacity="0.66"/>
<stop offset="0.67" stop-color="#3F9AFF" stop-opacity="0.9"/>
<stop offset="0.7" stop-color="#2E82FF"/>
<stop offset="0.72" stop-color="#2777FF"/>
<stop offset="0.77" stop-color="#1856CD"/>
<stop offset="0.82" stop-color="#0D3AA3"/>
<stop offset="0.87" stop-color="#042985"/>
<stop offset="0.9" stop-color="#001C73"/>
<stop offset="0.93" stop-color="#00196D"/>
</linearGradient>
<radialGradient id="paint5_radial_485_36956" cx="0" cy="0" r="1" gradientUnits="userSpaceOnUse" gradientTransform="translate(0.0540111 196.185) scale(365.976 193.967)">
<stop stop-color="#F700FF"/>
<stop offset="0.15" stop-color="#F71FFF" stop-opacity="0.88"/>
<stop offset="0.47" stop-color="#F76FFF" stop-opacity="0.56"/>
<stop offset="0.94" stop-color="#F7EEFF" stop-opacity="0.06"/>
<stop offset="1" stop-color="#F7FFFF" stop-opacity="0"/>
</radialGradient>
<linearGradient id="paint6_linear_485_36956" x1="157.179" y1="426.945" x2="157.179" y2="278.207" gradientUnits="userSpaceOnUse">
<stop offset="0.36" stop-color="#2C19FF" stop-opacity="0"/>
<stop offset="0.4" stop-color="#4C50FF" stop-opacity="0.1"/>
<stop offset="0.5" stop-color="#8CD4FF" stop-opacity="0.32"/>
<stop offset="0.55" stop-color="#9DFAFF" stop-opacity="0.4"/>
<stop offset="0.61" stop-color="#6DCBFF" stop-opacity="0.66"/>
<stop offset="0.67" stop-color="#3F9AFF" stop-opacity="0.9"/>
<stop offset="0.7" stop-color="#2E82FF"/>
<stop offset="0.72" stop-color="#2777FF"/>
<stop offset="0.77" stop-color="#1856CD"/>
<stop offset="0.82" stop-color="#0D3AA3"/>
<stop offset="0.87" stop-color="#042985"/>
<stop offset="0.9" stop-color="#001C73"/>
<stop offset="0.93" stop-color="#00196D"/>
</linearGradient>
<radialGradient id="paint7_radial_485_36956" cx="0" cy="0" r="1" gradientUnits="userSpaceOnUse" gradientTransform="translate(0.0540951 196.185) scale(365.976 193.967)">
<stop stop-color="#F700FF"/>
<stop offset="0.15" stop-color="#F71FFF" stop-opacity="0.88"/>
<stop offset="0.47" stop-color="#F76FFF" stop-opacity="0.56"/>
<stop offset="0.94" stop-color="#F7EEFF" stop-opacity="0.06"/>
<stop offset="1" stop-color="#F7FFFF" stop-opacity="0"/>
</radialGradient>
<linearGradient id="paint8_linear_485_36956" x1="695.649" y1="227.149" x2="695.649" y2="72.9358" gradientUnits="userSpaceOnUse">
<stop offset="0.36" stop-color="#2C19FF" stop-opacity="0"/>
<stop offset="0.4" stop-color="#4C50FF" stop-opacity="0.1"/>
<stop offset="0.5" stop-color="#8CD4FF" stop-opacity="0.32"/>
<stop offset="0.55" stop-color="#9DFAFF" stop-opacity="0.4"/>
<stop offset="0.61" stop-color="#6DCBFF" stop-opacity="0.66"/>
<stop offset="0.67" stop-color="#3F9AFF" stop-opacity="0.9"/>
<stop offset="0.7" stop-color="#2E82FF"/>
<stop offset="0.72" stop-color="#2777FF"/>
<stop offset="0.77" stop-color="#1856CD"/>
<stop offset="0.82" stop-color="#0D3AA3"/>
<stop offset="0.87" stop-color="#042985"/>
<stop offset="0.9" stop-color="#001C73"/>
<stop offset="0.93" stop-color="#00196D"/>
</linearGradient>
<radialGradient id="paint9_radial_485_36956" cx="0" cy="0" r="1" gradientUnits="userSpaceOnUse" gradientTransform="translate(387.759 -11.0302) scale(370.768 196.507)">
<stop stop-color="#F700FF"/>
<stop offset="0.15" stop-color="#F71FFF" stop-opacity="0.88"/>
<stop offset="0.47" stop-color="#F76FFF" stop-opacity="0.56"/>
<stop offset="0.94" stop-color="#F7EEFF" stop-opacity="0.06"/>
<stop offset="1" stop-color="#F7FFFF" stop-opacity="0"/>
</radialGradient>
<linearGradient id="paint10_linear_485_36956" x1="511.736" y1="224.301" x2="511.736" y2="75.5641" gradientUnits="userSpaceOnUse">
<stop offset="0.36" stop-color="#2C19FF" stop-opacity="0"/>
<stop offset="0.4" stop-color="#4C50FF" stop-opacity="0.1"/>
<stop offset="0.5" stop-color="#8CD4FF" stop-opacity="0.32"/>
<stop offset="0.55" stop-color="#9DFAFF" stop-opacity="0.4"/>
<stop offset="0.61" stop-color="#6DCBFF" stop-opacity="0.66"/>
<stop offset="0.67" stop-color="#3F9AFF" stop-opacity="0.9"/>
<stop offset="0.7" stop-color="#2E82FF"/>
<stop offset="0.72" stop-color="#2777FF"/>
<stop offset="0.77" stop-color="#1856CD"/>
<stop offset="0.82" stop-color="#0D3AA3"/>
<stop offset="0.87" stop-color="#042985"/>
<stop offset="0.9" stop-color="#001C73"/>
<stop offset="0.93" stop-color="#00196D"/>
</linearGradient>
<radialGradient id="paint11_radial_485_36956" cx="0" cy="0" r="1" gradientUnits="userSpaceOnUse" gradientTransform="translate(387.76 -11.0303) scale(370.768 196.507)">
<stop stop-color="#F700FF"/>
<stop offset="0.15" stop-color="#F71FFF" stop-opacity="0.88"/>
<stop offset="0.47" stop-color="#F76FFF" stop-opacity="0.56"/>
<stop offset="0.94" stop-color="#F7EEFF" stop-opacity="0.06"/>
<stop offset="1" stop-color="#F7FFFF" stop-opacity="0"/>
</radialGradient>
<linearGradient id="paint12_linear_485_36956" x1="318.403" y1="227.149" x2="318.403" y2="75.5644" gradientUnits="userSpaceOnUse">
<stop offset="0.36" stop-color="#2C19FF" stop-opacity="0"/>
<stop offset="0.4" stop-color="#4C50FF" stop-opacity="0.1"/>
<stop offset="0.5" stop-color="#8CD4FF" stop-opacity="0.32"/>
<stop offset="0.55" stop-color="#9DFAFF" stop-opacity="0.4"/>
<stop offset="0.61" stop-color="#6DCBFF" stop-opacity="0.66"/>
<stop offset="0.67" stop-color="#3F9AFF" stop-opacity="0.9"/>
<stop offset="0.7" stop-color="#2E82FF"/>
<stop offset="0.72" stop-color="#2777FF"/>
<stop offset="0.77" stop-color="#1856CD"/>
<stop offset="0.82" stop-color="#0D3AA3"/>
<stop offset="0.87" stop-color="#042985"/>
<stop offset="0.9" stop-color="#001C73"/>
<stop offset="0.93" stop-color="#00196D"/>
</linearGradient>
<radialGradient id="paint13_radial_485_36956" cx="0" cy="0" r="1" gradientUnits="userSpaceOnUse" gradientTransform="translate(387.075 -11.0303) scale(370.768 196.507)">
<stop stop-color="#F700FF"/>
<stop offset="0.15" stop-color="#F71FFF" stop-opacity="0.88"/>
<stop offset="0.47" stop-color="#F76FFF" stop-opacity="0.56"/>
<stop offset="0.94" stop-color="#F7EEFF" stop-opacity="0.06"/>
<stop offset="1" stop-color="#F7FFFF" stop-opacity="0"/>
</radialGradient>
<linearGradient id="paint14_linear_485_36956" x1="138.536" y1="224.301" x2="138.536" y2="75.5504" gradientUnits="userSpaceOnUse">
<stop offset="0.36" stop-color="#2C19FF" stop-opacity="0"/>
<stop offset="0.4" stop-color="#4C50FF" stop-opacity="0.1"/>
<stop offset="0.5" stop-color="#8CD4FF" stop-opacity="0.32"/>
<stop offset="0.55" stop-color="#9DFAFF" stop-opacity="0.4"/>
<stop offset="0.61" stop-color="#6DCBFF" stop-opacity="0.66"/>
<stop offset="0.67" stop-color="#3F9AFF" stop-opacity="0.9"/>
<stop offset="0.7" stop-color="#2E82FF"/>
<stop offset="0.72" stop-color="#2777FF"/>
<stop offset="0.77" stop-color="#1856CD"/>
<stop offset="0.82" stop-color="#0D3AA3"/>
<stop offset="0.87" stop-color="#042985"/>
<stop offset="0.9" stop-color="#001C73"/>
<stop offset="0.93" stop-color="#00196D"/>
</linearGradient>
<radialGradient id="paint15_radial_485_36956" cx="0" cy="0" r="1" gradientUnits="userSpaceOnUse" gradientTransform="translate(387.759 -11.0303) scale(370.768 196.507)">
<stop stop-color="#F700FF"/>
<stop offset="0.15" stop-color="#F71FFF" stop-opacity="0.88"/>
<stop offset="0.47" stop-color="#F76FFF" stop-opacity="0.56"/>
<stop offset="0.94" stop-color="#F7EEFF" stop-opacity="0.06"/>
<stop offset="1" stop-color="#F7FFFF" stop-opacity="0"/>
</radialGradient>
</defs>
</svg>
