<svg clip-rule="evenodd" fill-rule="evenodd" stroke-linejoin="round" stroke-miterlimit="2" viewBox="0 0 718 395" xmlns="http://www.w3.org/2000/svg" xmlns:xlink="http://www.w3.org/1999/xlink"><linearGradient id="a" gradientTransform="matrix(0 -151.586 752.86 0 360.879 375.793)" gradientUnits="userSpaceOnUse" x1="0" x2="1" y1="0" y2="0"><stop offset="0" stop-color="#2c19ff" stop-opacity="0"/><stop offset=".36" stop-color="#2c19ff" stop-opacity="0"/><stop offset=".4" stop-color="#4c50ff" stop-opacity=".1"/><stop offset=".5" stop-color="#8cd4ff" stop-opacity=".32"/><stop offset=".55" stop-color="#9dfaff" stop-opacity=".4"/><stop offset=".61" stop-color="#6dcbff" stop-opacity=".66"/><stop offset=".67" stop-color="#3f9aff" stop-opacity=".9"/><stop offset=".7" stop-color="#2e82ff"/><stop offset=".72" stop-color="#2777ff"/><stop offset=".77" stop-color="#1856cd"/><stop offset=".82" stop-color="#0d3aa3"/><stop offset=".87" stop-color="#042985"/><stop offset=".9" stop-color="#001c73"/><stop offset=".93" stop-color="#00196d"/><stop offset="1" stop-color="#00196d"/></linearGradient><linearGradient id="b" gradientTransform="matrix(0 -154.213 174.734 0 629.649 173.149)" gradientUnits="userSpaceOnUse" x1="0" x2="1" y1="0" y2="0"><stop offset="0" stop-color="#2c19ff" stop-opacity="0"/><stop offset=".36" stop-color="#2c19ff" stop-opacity="0"/><stop offset=".4" stop-color="#4c50ff" stop-opacity=".1"/><stop offset=".5" stop-color="#8cd4ff" stop-opacity=".32"/><stop offset=".55" stop-color="#9dfaff" stop-opacity=".4"/><stop offset=".61" stop-color="#6dcbff" stop-opacity=".66"/><stop offset=".67" stop-color="#3f9aff" stop-opacity=".9"/><stop offset=".7" stop-color="#2e82ff"/><stop offset=".72" stop-color="#2777ff"/><stop offset=".77" stop-color="#1856cd"/><stop offset=".82" stop-color="#0d3aa3"/><stop offset=".87" stop-color="#2c3594"/><stop offset=".9" stop-color="#2c2f8b"/><stop offset=".93" stop-color="#2e2c88"/><stop offset="1" stop-color="#312b8a"/></linearGradient><filter id="c" color-interpolation-filters="sRGB" height="1.106" width="1.056" x="-.028" y="-.053"><feFlood flood-color="#0000c6" flood-opacity=".502" result="flood"/><feComposite in="flood" in2="SourceGraphic" operator="in" result="composite1"/><feGaussianBlur in="composite1" result="blur" stdDeviation="8"/><feOffset result="offset"/><feComposite in="SourceGraphic" in2="offset" result="composite2"/></filter><path d="m557.455 95.926c0-48.634 27.603-79.743 72.294-79.743s72.075 31.109 72.075 79.743-27.384 79.962-72.075 79.962-72.294-30.013-72.294-79.962zm110.413 0c0-31.109-13.801-48.196-38.119-48.196-24.317 0-38.338 17.087-38.338 48.196 0 31.108 15.117 48.196 38.338 48.196 23.222 0 38.119-16.211 38.119-48.196zm-192.566 77.114-32.422-50.606h-29.356v50.606h-33.957v-154.228h70.98c32.642 0 53.235 14.678 53.235 52.14 0 24.536-12.706 38.556-28.041 44.91l38.557 57.178zm-28.917-77.333c14.459 0 22.783-6.572 22.783-22.784 0-16.211-8.324-22.345-22.564-22.345h-33.08v45.129zm-165.182-76.895h34.176v90.915c0 42.939-21.688 66.161-61.998 66.161-40.309 0-63.969-23.003-63.969-65.941v-91.135h34.175v94.421c0 20.154 10.077 31.108 29.137 31.108 19.059 0 28.479-11.392 28.479-31.108zm-213.596 154.228c-34.833 0-51.044-18.622-51.044-46.225 0-21.469 10.296-31.984 22.564-36.147-10.296-3.286-20.593-13.144-20.593-32.861 0-19.716 11.173-38.995 44.691-38.995h65.065v31.766h-56.959c-12.049 0-18.84 4.162-18.84 15.335 0 9.639 5.696 15.773 18.84 15.773h51.044v22.565h-52.139c-11.173 0-18.621 6.572-18.621 17.964 0 12.925 5.915 19.059 23.002 19.059h53.892v31.766zm538.263 202.643v-104.936h-38.557v-49.292h132.321v49.292h-37.9v104.936zm-212.939 0v-49.291h58.493c7.01 0 10.077-3.068 10.077-8.763 0-5.696-3.067-8.763-10.077-8.763h-10.078c-35.271 0-49.73-17.745-49.73-42.939 0-26.508 16.431-44.472 47.32-44.472h75.581v49.292h-53.673c-6.134 0-9.42 2.848-9.42 8.325 0 5.915 3.286 8.982 9.42 8.982h20.374c33.299 0 44.471 19.935 44.471 42.281 0 24.974-14.677 45.348-52.139 45.348zm-111.728-154.228h53.454v90.916c0 42.938-22.345 66.16-64.188 66.16s-66.16-23.003-66.16-65.941v-91.135h53.454v96.393c0 7.448 4.162 11.392 12.049 11.392 7.886 0 11.391-3.944 11.391-11.392zm-178.325 154.228-27.604-50.606v50.606h-53.234v-154.228h72.513c34.394 0 56.083 15.335 56.083 49.73 0 21.688-7.011 35.709-21.469 45.567l33.08 58.931zm-14.678-86.753c5.915 0 8.544-3.067 8.544-9.201s-2.629-8.982-8.544-8.982h-12.926v18.183z" fill="#f7ffff" filter="url(#c)"/><path d="m608.609 372.945v-104.937h-38.557v-43.814h126.843v43.814h-37.899v104.937zm-212.94 0v-43.815h55.755c11.145 0 12.815-7.202 12.815-11.501 0-4.3-1.67-11.502-12.815-11.502h-10.078c-30.738 0-46.991-13.897-46.991-40.2 0-26.302 16.663-41.733 44.581-41.733h72.842v43.814h-50.934c-7.723 0-12.159 4.04-12.159 11.064 0 7.448 4.436 11.72 12.159 11.72h20.374c36.311 0 41.733 24.769 41.733 39.543 0 15.91-6.421 42.61-49.401 42.61zm-125.2 2.848c-41.487 0-63.422-21.853-63.422-63.203v-88.396h47.977v93.654c0 8.982 5.395 14.13 14.788 14.13 9.392 0 14.13-4.888 14.13-14.13v-93.654h47.977v88.177c0 41.487-21.25 63.422-61.45 63.422zm-165.962-2.848-26.823-49.182-5.148 1.314v47.868h-47.758v-148.751h69.775c24.331 0 53.344 8.147 53.344 46.991 0 20.388-6.257 33.751-20.278 43.308l-2.081 1.41 32.026 57.042zm-31.971-81.277h15.664c5.148 0 11.282-2.067 11.282-11.939 0-7.558-4.012-11.721-11.282-11.721h-15.664z" fill="url(#a)"/><path d="m629.749 173.149c-43.554 0-69.555-28.863-69.555-77.223s26.658-77.004 69.555-77.004c42.898 0 69.337 29.506 69.337 77.004s-25.919 77.223-69.337 77.223zm0-128.158c-26.11 0-41.076 18.567-41.076 50.935s15.349 50.935 41.076 50.935c25.728 0 40.858-18.567 40.858-50.935s-14.897-50.935-40.858-50.935zm-152.954 125.31-32.423-50.606h-33.587v50.606h-28.479v-148.751h68.241c33.984 0 50.497 16.157 50.497 49.402 0 27.37-16.513 38.31-26.358 42.377l-3.094 1.287 37.557 55.685zm-66.01-71.856h35.6c16.937 0 25.522-8.585 25.522-25.522s-8.517-25.084-25.303-25.084h-35.819zm-157.404 74.704c-40.063 0-61.231-21.852-61.231-63.202v-88.397h28.699v91.683c0 21.825 11.323 33.847 31.875 33.847s31.218-12.337 31.218-33.847v-91.683h28.699v88.178c0 41.487-20.497 63.421-59.26 63.421zm-185.774-2.848c-31.15 0-48.306-15.444-48.306-43.486 0-21.921 11.255-30.355 20.703-33.559l7.872-2.67-7.927-2.533c-5.614-1.794-18.69-8.339-18.69-30.26 0-10.898 4.094-36.256 41.953-36.256h62.326v26.289h-54.221c-14.322 0-21.578 6.079-21.578 18.073 0 6.915 2.806 18.512 21.578 18.512h48.306v17.088h-49.401c-12.98 0-21.36 8.133-21.36 20.702 0 15.075 7.942 21.798 25.741 21.798h51.154v26.289h-58.164z" fill="url(#b)"/><path d="m661.734 318.601v3.012h-55.864v-3.012zm0 7.804v3.012h-55.864v-3.012zm0 7.668v3.012h-55.864v-3.012zm0 7.804v3.013h-55.864v-3.013zm0 7.668v3.012h-55.864v-3.012zm0 7.667v3.013h-55.864v-3.013zm0 7.668v3.012h-55.864v-3.012zm0 7.805v2.998h-55.864v-2.998zm-268.803 0h102.773c-6.271 1.93-13.61 2.998-22.154 2.998h-80.619zm113.617-4.793h-113.631v-3.012h117.903a39.618 39.618 0 0 1 -4.272 3.012zm9.119-7.667h-122.75v-3.013h125.105a38.18 38.18 0 0 1 -2.355 3.013zm5.148-7.668h-127.884v-3.012h129.267a46.42 46.42 0 0 1 -1.383 3.012zm2.971-7.667h-130.855v-3.013h131.608a53.463 53.463 0 0 1 -.753 3.013zm1.52-7.805h-132.375v-3.012h132.635a70.779 70.779 0 0 1 -.26 3.012zm.37-7.668h-132.745v-3.012h132.635c.069 1 .096 1.999.11 3.012zm-.603-7.804h-64.243c.356-.89.561-1.89.643-3.012h63.066c.206.986.383 1.999.534 3.012zm-190.703-1.027a103.952 103.952 0 0 1 -.26 3.012h-53.838c.356-.903.617-1.903.767-3.012zm-129.473 3.012c-.095-.986-.191-1.999-.273-3.012h53.371c.178 1.109.48 2.109.904 3.012zm1.301 8.353a98.868 98.868 0 0 1 -.561-3.013h60.765a18.71 18.71 0 0 0 3.423.302c1.274 0 2.41-.11 3.451-.302h60.122a99.011 99.011 0 0 1 -.548 3.013zm2.026 7.667a87.572 87.572 0 0 1 -.903-3.012h124.447a64.547 64.547 0 0 1 -.876 3.012zm3.136 7.804a54.108 54.108 0 0 1 -1.369-3.012h119.19a53.582 53.582 0 0 1 -1.315 3.012zm4.518 7.668a52.584 52.584 0 0 1 -1.985-3.012h111.55a51.948 51.948 0 0 1 -1.931 3.012zm3.752 4.656h100.281a46.765 46.765 0 0 1 -2.889 3.012h-94.394a48.131 48.131 0 0 1 -2.998-3.012zm86.986 10.679h-73.239a54.23 54.23 0 0 1 -4.957-3.012h82.988a53.23 53.23 0 0 1 -4.792 3.012zm-31.752 8.01h-8.886c-7.284-.287-13.98-1.301-20.045-3.012h48.483c-5.901 1.711-12.418 2.725-19.552 3.012zm-252.824-56.822v-3.012h108.167l1.684 3.012zm112.548 4.792 1.685 3.012h-58.63l-1.643-3.012zm-59.314 0v3.012h-53.234v-3.012zm63.614 7.668 1.698 3.012h-58.767l-1.643-3.012zm-63.614 0v3.012h-53.234v-3.012zm0 7.804v3.013h-53.234v-3.013zm67.995 0 1.698 3.013h-58.89l-1.643-3.013zm-67.995 7.668v3.012h-53.234v-3.012zm72.308 0 1.685 3.012h-59l-1.643-3.012zm4.3 7.667 1.684 3.013h-59.123l-1.643-3.013zm-76.608 0v3.013h-53.234v-3.013zm80.907 7.668 1.698 3.012h-59.246l-1.643-3.012zm-80.907 0v3.012h-53.234v-3.012zm27.604 10.803-1.63-2.999h59.314l1.685 2.999zm-27.604-2.998v2.998h-53.234v-2.998zm304.293-253.51v-3.012h96.379l2.026 3.012zm101.637 4.792 2.04 3.013h-37.448l-1.931-3.013zm-67.68 0v3.013h-33.957v-3.013zm72.855 7.668 2.027 3.012h-37.708l-1.931-3.012zm-72.855 0v3.012h-33.957v-3.012zm78.113 7.805 2.04 3.012h-37.968l-1.93-3.012zm-78.113 0v3.012h-33.957v-3.012zm83.289 7.667 2.026 3.012h-38.228l-1.931-3.012zm-83.289 0v3.012h-33.957v-3.012zm88.451 7.668 2.04 3.012h-38.489l-1.93-3.012zm-88.451 0v3.012h-33.957v-3.012zm93.626 7.667 2.027 3.013h-38.735l-1.931-3.013zm-93.626 0v3.013h-33.957v-3.013zm61.779 10.598-1.794-2.793h38.899l1.89 2.793zm-61.779-2.793v2.793h-33.957v-2.793zm-223.565-49.292a70.468 70.468 0 0 1 -.273-3.012h34.12c.096 1.027.206 2.04.356 3.012zm91.012-3.012h34.134a187.245 187.245 0 0 1 -.26 3.012h-34.23c.15-.972.26-1.985.356-3.012zm-89.862 10.844a99.344 99.344 0 0 1 -.52-3.013h34.655a28.84 28.84 0 0 0 1.04 3.013zm88.438-3.013h34.695a67.562 67.562 0 0 1 -.506 3.013h-35.23c.383-.959.739-1.972 1.041-3.013zm-86.48 10.845a65.83 65.83 0 0 1 -.862-3.013h36.654a22.738 22.738 0 0 0 2.437 3.013zm119.587-3.013a64.581 64.581 0 0 1 -.835 3.013h-38.324a24.78 24.78 0 0 0 2.423-3.013zm-116.615 10.844a66.099 66.099 0 0 1 -1.301-3.012h43.363c4.066 1.903 9.146 2.903 14.609 2.903s10.16-1.013 14.09-2.903h43.39a53.709 53.709 0 0 1 -1.246 3.012zm108.646 7.846h-104.238a55.588 55.588 0 0 1 -1.889-3.012h107.962a47.382 47.382 0 0 1 -1.835 3.012zm-100.486 4.82h96.899a44.873 44.873 0 0 1 -2.793 3.012h-91.203a42.772 42.772 0 0 1 -2.903-3.012zm83.727 10.844h-70.131a51.338 51.338 0 0 1 -4.847-3.012h79.675a47.423 47.423 0 0 1 -4.697 3.012zm-38.899 7.832c-7.051-.288-13.528-1.301-19.402-3.012h46.841c-5.696 1.711-11.98 2.724-18.854 3.012zm-231.437-59.903h34.942a20.038 20.038 0 0 0 -.657 3.012h-34.778c.137-1.027.301-2.04.493-3.012zm34.312 10.816h-35.326c0-1.04.042-2.026.096-3.012h34.997a26.2 26.2 0 0 0 .233 3.012zm-34.901 7.668a54.24 54.24 0 0 1 -.274-3.012h36.38a14.145 14.145 0 0 0 1.629 3.012zm1.533 7.805a51.577 51.577 0 0 1 -.739-3.013h43.253c3.41 1.397 7.86 2.109 13.583 2.109h53.892v.904zm2.889 7.667a42.805 42.805 0 0 1 -1.328-3.012h108.414v3.012zm5.026 7.668a37.864 37.864 0 0 1 -2.287-3.013h104.347v3.013zm102.06 7.667h-93.174a38.939 38.939 0 0 1 -4.176-3.012h97.35zm0 7.805h-64.133c-6.983-.247-13.158-1.287-18.567-3.012h82.7zm523.476.068c-6.818 1.862-14.253 2.835-22.236 2.835-7.982 0-15.417-.973-22.249-2.835zm-57.589-5.038a61.927 61.927 0 0 1 -5.258-3.012h81.153a65.803 65.803 0 0 1 -5.244 3.012zm-15.335-11.064h101.267a62.03 62.03 0 0 1 -3.273 3.013h-94.708a52.532 52.532 0 0 1 -3.286-3.013zm-4.545-5.038a61.725 61.725 0 0 1 -2.287-3.012h114.918a62.768 62.768 0 0 1 -2.273 3.012zm-5.546-8.038a70.33 70.33 0 0 1 -1.67-3.012h46.17c3.491 1.575 7.339 2.588 11.487 3.012zm123.078-3.012a70.13 70.13 0 0 1 -1.656 3.012h-55.85c4.148-.424 7.982-1.437 11.46-3.012zm-86.465-5.038h-40.707a87.194 87.194 0 0 1 -1.232-3.013h38.913a32.958 32.958 0 0 0 3.026 3.013zm51.249-3.013h38.845a85.25 85.25 0 0 1 -1.233 3.013h-40.61a32.677 32.677 0 0 0 2.998-3.013zm-94.9-5.038a97.263 97.263 0 0 1 -.876-3.013h36.133a39.888 39.888 0 0 0 1.671 3.013zm136.319-3.013a94.51 94.51 0 0 1 -.877 3.012h-36.872a39.565 39.565 0 0 0 1.656-3.012zm-138.413-5.038c-.22-1-.425-1.999-.603-3.013h34.833c.301 1.041.63 2.041.986 3.013zm140.207-3.013c-.178 1.014-.384 2.013-.589 3.013h-35.189c.342-.972.671-1.972.972-3.013z" fill="#0000c6"/></svg>