<svg width="718" height="395" viewBox="0 0 718 395" fill="none" xmlns="http://www.w3.org/2000/svg">
<g filter="url(#filter0_d_543_184)">
<path d="M605.87 375.683V270.747H567.313V221.455H699.634V270.747H661.734V375.683H605.87Z" fill="#F7FFFF"/>
</g>
<path d="M608.609 372.945V268.008H570.052V224.194H696.895V268.008H658.996V372.945H608.609Z" fill="url(#paint0_linear_543_184)"/>
<path d="M661.734 318.601H605.87V321.613H661.734V318.601Z" fill="#0000C6"/>
<path d="M661.734 326.405H605.87V329.417H661.734V326.405Z" fill="#0000C6"/>
<path d="M661.734 334.073H605.87V337.085H661.734V334.073Z" fill="#0000C6"/>
<path d="M661.734 341.877H605.87V344.89H661.734V341.877Z" fill="#0000C6"/>
<path d="M661.734 349.545H605.87V352.557H661.734V349.545Z" fill="#0000C6"/>
<path d="M661.734 357.212H605.87V360.225H661.734V357.212Z" fill="#0000C6"/>
<path d="M661.734 364.88H605.87V367.892H661.734V364.88Z" fill="#0000C6"/>
<path d="M661.734 372.685H605.87V375.683H661.734V372.685Z" fill="#0000C6"/>
<path opacity="0.38" d="M607.732 372.465V267.529H569.176V223.714H696.019V267.529H658.119V372.465H607.732Z" fill="url(#paint1_radial_543_184)"/>
<g filter="url(#filter1_d_543_184)">
<path d="M392.931 375.683V326.392H451.424C458.434 326.392 461.501 323.324 461.501 317.629C461.501 311.933 458.434 308.866 451.424 308.866H441.346C406.075 308.866 391.616 291.121 391.616 265.927C391.616 239.419 408.047 221.455 438.936 221.455H514.517V270.747H460.844C454.71 270.747 451.424 273.595 451.424 279.072C451.424 284.987 454.71 288.054 460.844 288.054H481.218C514.517 288.054 525.689 307.989 525.689 330.335C525.689 355.309 511.012 375.683 473.55 375.683H392.931Z" fill="#F7FFFF"/>
</g>
<path d="M395.669 372.945V329.13H451.424C462.569 329.13 464.239 321.928 464.239 317.629C464.239 313.329 462.569 306.127 451.424 306.127H441.346C410.608 306.127 394.355 292.23 394.355 265.927C394.355 239.625 411.018 224.194 438.936 224.194H511.778V268.008H460.844C453.121 268.008 448.685 272.048 448.685 279.072C448.685 286.52 453.121 290.792 460.844 290.792H481.218C517.529 290.792 522.951 315.561 522.951 330.335C522.951 346.245 516.53 372.945 473.55 372.945H395.669Z" fill="url(#paint2_linear_543_184)"/>
<path d="M392.931 372.685V375.683H473.55C482.094 375.683 489.433 374.615 495.704 372.685H392.931Z" fill="#0000C6"/>
<path d="M506.548 367.892C508.081 366.961 509.492 365.948 510.82 364.88H392.917V367.892H506.548Z" fill="#0000C6"/>
<path d="M515.667 360.225C516.502 359.252 517.296 358.253 518.022 357.212H392.917V360.225H515.653H515.667Z" fill="#0000C6"/>
<path d="M520.815 352.557C521.308 351.571 521.773 350.572 522.198 349.545H392.931V352.557H520.815Z" fill="#0000C6"/>
<path d="M523.786 344.89C524.06 343.904 524.32 342.891 524.539 341.877H392.931V344.89H523.786Z" fill="#0000C6"/>
<path d="M525.306 337.085C525.416 336.086 525.498 335.086 525.566 334.073H392.931V337.085H525.32H525.306Z" fill="#0000C6"/>
<path d="M525.676 329.417C525.662 328.404 525.635 327.405 525.566 326.405H392.931V329.417H525.676Z" fill="#0000C6"/>
<path d="M525.073 321.613C524.922 320.6 524.745 319.587 524.539 318.601H461.473C461.391 319.723 461.186 320.723 460.83 321.613H525.073Z" fill="#0000C6"/>
<path opacity="0.38" d="M394.793 372.465V328.651H450.547C461.693 328.651 463.363 321.449 463.363 317.149C463.363 312.85 461.693 305.648 450.547 305.648H440.47C409.731 305.648 393.479 291.75 393.479 265.448C393.479 239.145 410.142 223.714 438.06 223.714H510.902V267.529H459.967C452.245 267.529 447.809 271.568 447.809 278.592C447.809 286.041 452.245 290.313 459.967 290.313H480.341C516.653 290.313 522.075 315.082 522.075 329.856C522.075 345.766 515.653 372.465 472.674 372.465H394.793Z" fill="url(#paint3_radial_543_184)"/>
<g filter="url(#filter2_d_543_184)">
<path d="M281.203 221.455H334.657V312.371C334.657 355.309 312.312 378.531 270.469 378.531C228.626 378.531 204.309 355.528 204.309 312.59V221.455H257.763V317.848C257.763 325.296 261.925 329.24 269.812 329.24C277.698 329.24 281.203 325.296 281.203 317.848V221.455Z" fill="#F7FFFF"/>
</g>
<path d="M270.469 375.793C228.982 375.793 207.047 353.94 207.047 312.59V224.194H255.024V317.848C255.024 326.83 260.419 331.978 269.812 331.978C279.204 331.978 283.942 327.09 283.942 317.848V224.194H331.919V312.371C331.919 353.858 310.669 375.793 270.469 375.793Z" fill="url(#paint4_linear_543_184)"/>
<path d="M334.37 320.586H281.039C280.889 321.695 280.628 322.695 280.272 323.598H334.11C334.206 322.613 334.301 321.599 334.37 320.586Z" fill="#0000C6"/>
<path d="M204.884 323.598H258.899C258.475 322.695 258.173 321.695 257.995 320.586H204.624C204.706 321.599 204.802 322.612 204.897 323.598H204.884Z" fill="#0000C6"/>
<path d="M206.184 331.951H332.85C333.042 330.965 333.233 329.952 333.398 328.938H273.276C272.235 329.13 271.099 329.24 269.825 329.24C268.552 329.24 267.457 329.13 266.402 328.938H205.637C205.815 329.952 205.993 330.965 206.198 331.951H206.184Z" fill="#0000C6"/>
<path d="M208.224 339.618H330.892C331.207 338.632 331.494 337.633 331.768 336.606H207.321C207.608 337.633 207.91 338.632 208.224 339.618Z" fill="#0000C6"/>
<path d="M211.346 347.422H327.866C328.332 346.437 328.77 345.437 329.181 344.41H209.991C210.415 345.437 210.881 346.437 211.36 347.422H211.346Z" fill="#0000C6"/>
<path d="M215.878 355.09H323.512C324.183 354.118 324.826 353.118 325.443 352.078H213.893C214.523 353.118 215.194 354.118 215.878 355.09Z" fill="#0000C6"/>
<path d="M219.63 359.746C220.588 360.8 221.588 361.799 222.628 362.758H317.022C318.021 361.799 318.993 360.8 319.911 359.746H219.63Z" fill="#0000C6"/>
<path d="M306.616 370.425C308.286 369.494 309.875 368.495 311.408 367.413H228.42C229.995 368.495 231.652 369.494 233.377 370.425H306.616Z" fill="#0000C6"/>
<path d="M274.864 378.435C281.998 378.148 288.515 377.134 294.416 375.423H245.933C251.998 377.134 258.694 378.148 265.978 378.435H274.864Z" fill="#0000C6"/>
<path opacity="0.38" d="M269.592 375.313C228.105 375.313 206.171 353.461 206.171 312.111V223.714H254.148V317.368C254.148 326.35 259.542 331.499 268.935 331.499C278.328 331.499 283.065 326.611 283.065 317.368V223.714H331.043V311.892C331.043 353.379 309.792 375.313 269.592 375.313Z" fill="url(#paint5_radial_543_184)"/>
<g filter="url(#filter3_d_543_184)">
<path d="M102.878 375.683L75.2744 325.077V375.683H22.0396V221.455H94.5529C128.947 221.455 150.636 236.79 150.636 271.185C150.636 292.873 143.625 306.894 129.167 316.752L162.247 375.683H102.878ZM88.1998 288.93C94.1147 288.93 96.7436 285.863 96.7436 279.729C96.7436 273.595 94.1147 270.747 88.1998 270.747H75.2744V288.93H88.1998Z" fill="#F7FFFF"/>
</g>
<path d="M104.507 372.945L77.6841 323.763L72.5358 325.077V372.945H24.7778V224.194H94.5527C118.884 224.194 147.897 232.341 147.897 271.185C147.897 291.573 141.64 304.936 127.619 314.493L125.538 315.903L157.564 372.945H104.493H104.507ZM72.5358 291.668H88.1996C93.3478 291.668 99.4819 289.601 99.4819 279.729C99.4819 272.171 95.4701 268.008 88.1996 268.008H72.5358V291.668Z" fill="url(#paint6_linear_543_184)"/>
<path d="M22.0396 321.613H131.891L130.207 318.601H22.0396V321.613Z" fill="#0000C6"/>
<path d="M134.588 326.405H76L77.6431 329.417H136.273L134.588 326.405Z" fill="#0000C6"/>
<path d="M75.2744 326.405H22.0396V329.417H75.2744V326.405Z" fill="#0000C6"/>
<path d="M138.888 334.073H80.176L81.8191 337.085H140.586L138.888 334.073Z" fill="#0000C6"/>
<path d="M75.2744 334.073H22.0396V337.085H75.2744V334.073Z" fill="#0000C6"/>
<path d="M75.2744 341.877H22.0396V344.89H75.2744V341.877Z" fill="#0000C6"/>
<path d="M143.269 341.877H84.4343L86.0774 344.89H144.967L143.269 341.877Z" fill="#0000C6"/>
<path d="M75.2744 349.545H22.0396V352.557H75.2744V349.545Z" fill="#0000C6"/>
<path d="M147.582 349.545H88.6243L90.2673 352.557H149.267L147.582 349.545Z" fill="#0000C6"/>
<path d="M151.882 357.212H92.8003L94.4433 360.225H153.566L151.882 357.212Z" fill="#0000C6"/>
<path d="M75.2744 357.212H22.0396V360.225H75.2744V357.212Z" fill="#0000C6"/>
<path d="M156.181 364.88H96.99L98.633 367.892H157.879L156.181 364.88Z" fill="#0000C6"/>
<path d="M75.2744 364.88H22.0396V367.892H75.2744V364.88Z" fill="#0000C6"/>
<path d="M102.878 375.683H162.247L160.562 372.684H101.248L102.878 375.683Z" fill="#0000C6"/>
<path d="M75.2744 372.685H22.0396V375.683H75.2744V372.685Z" fill="#0000C6"/>
<path opacity="0.38" d="M103.631 372.465L76.8079 323.283L71.6596 324.598V372.465H23.9016V223.714H93.6765C118.007 223.714 147.021 231.861 147.021 270.706C147.021 291.093 140.764 304.457 126.743 314.014L124.675 315.424L156.701 372.465H103.631ZM71.6596 291.189H87.3234C92.4716 291.189 98.6057 289.122 98.6057 279.25C98.6057 271.692 94.5939 267.529 87.3234 267.529H71.6596V291.189Z" fill="url(#paint7_radial_543_184)"/>
<g filter="url(#filter4_d_543_184)">
<path d="M557.455 95.926C557.455 47.2917 585.058 16.1832 629.749 16.1832C674.44 16.1832 701.824 47.2917 701.824 95.926C701.824 144.56 674.44 175.888 629.749 175.888C585.058 175.888 557.455 145.875 557.455 95.926ZM667.868 95.926C667.868 64.8175 654.067 47.7298 629.749 47.7298C605.432 47.7298 591.411 64.8175 591.411 95.926C591.411 127.034 606.528 144.122 629.749 144.122C652.971 144.122 667.868 127.911 667.868 95.926Z" fill="#F7FFFF"/>
</g>
<path d="M651.985 173.053H607.5C614.332 174.915 621.767 175.888 629.749 175.888C637.732 175.888 645.167 174.915 651.985 173.053Z" fill="#0000C6"/>
<path d="M594.396 168.015H665.047C666.855 167.084 668.594 166.084 670.291 165.003H589.138C590.823 166.084 592.575 167.084 594.396 168.015Z" fill="#0000C6"/>
<path d="M579.061 156.951C580.115 158.006 581.211 159.005 582.347 159.964H677.055C678.178 158.991 679.273 158.006 680.328 156.951H579.061Z" fill="#0000C6"/>
<path d="M574.516 151.913H684.874C685.654 150.941 686.421 149.927 687.147 148.901H572.229C572.968 149.927 573.721 150.941 574.516 151.913Z" fill="#0000C6"/>
<path d="M568.97 143.875H624.957C620.809 143.451 616.961 142.438 613.47 140.863H567.3C567.834 141.89 568.395 142.89 568.97 143.875Z" fill="#0000C6"/>
<path d="M692.048 140.863H646.002C642.524 142.438 638.69 143.451 634.542 143.875H690.392C690.967 142.89 691.514 141.89 692.048 140.863Z" fill="#0000C6"/>
<path d="M564.89 135.825H605.583C604.515 134.894 603.515 133.894 602.557 132.812H563.644C564.041 133.839 564.452 134.839 564.876 135.825H564.89Z" fill="#0000C6"/>
<path d="M695.663 132.812H656.832C655.888 133.894 654.888 134.894 653.834 135.825H694.444C694.869 134.839 695.28 133.839 695.677 132.812H695.663Z" fill="#0000C6"/>
<path d="M561.932 127.774H598.86C598.271 126.815 597.71 125.802 597.189 124.761H561.056C561.33 125.775 561.631 126.788 561.932 127.774Z" fill="#0000C6"/>
<path d="M698.251 124.761H662.158C661.638 125.802 661.09 126.815 660.502 127.773H697.374C697.676 126.788 697.977 125.774 698.251 124.761Z" fill="#0000C6"/>
<path d="M559.838 119.723H595.054C594.698 118.751 594.369 117.751 594.068 116.71H559.235C559.413 117.724 559.618 118.723 559.838 119.723Z" fill="#0000C6"/>
<path d="M700.045 116.71H665.239C664.938 117.751 664.609 118.751 664.267 119.723H699.456C699.661 118.723 699.867 117.724 700.045 116.71Z" fill="#0000C6"/>
<path d="M629.749 173.149C586.195 173.149 560.194 144.286 560.194 95.926C560.194 47.5655 586.852 18.9216 629.749 18.9216C672.647 18.9216 699.086 48.4281 699.086 95.926C699.086 143.424 673.167 173.149 629.749 173.149ZM629.749 44.9914C603.639 44.9914 588.673 63.5579 588.673 95.926C588.673 128.294 604.022 146.861 629.749 146.861C655.477 146.861 670.607 128.294 670.607 95.926C670.607 63.5579 655.71 44.9914 629.749 44.9914Z" fill="url(#paint8_linear_543_184)"/>
<path opacity="0.38" d="M628.873 172.67C585.318 172.67 559.317 143.807 559.317 95.4466C559.317 47.0861 585.976 18.4423 628.873 18.4423C671.77 18.4423 698.21 47.9488 698.21 95.4466C698.21 142.944 672.291 172.67 628.873 172.67ZM628.873 44.512C602.762 44.512 587.797 63.0785 587.797 95.4466C587.797 127.815 603.146 146.381 628.873 146.381C654.6 146.381 669.73 127.815 669.73 95.4466C669.73 63.0785 654.833 44.512 628.873 44.512Z" fill="url(#paint9_radial_543_184)"/>
<g filter="url(#filter5_d_543_184)">
<path d="M475.302 173.04L442.88 122.434H413.524V173.04H379.567V18.812H450.547C483.189 18.812 503.782 33.4899 503.782 70.9515C503.782 95.4877 491.076 109.508 475.741 115.862L514.298 173.04H475.302ZM446.385 95.7068C460.844 95.7068 469.168 89.1346 469.168 72.9231C469.168 56.7117 460.844 50.5776 446.604 50.5776H413.524V95.7068H446.385Z" fill="#F7FFFF"/>
</g>
<path d="M379.567 119.175H477.972L475.946 116.163H379.567V119.175Z" fill="#0000C6"/>
<path d="M481.204 123.967H443.865L445.796 126.98H483.244L481.204 123.967Z" fill="#0000C6"/>
<path d="M413.524 123.967H379.567V126.98H413.524V123.967Z" fill="#0000C6"/>
<path d="M486.379 131.635H448.767L450.698 134.647H488.406L486.379 131.635Z" fill="#0000C6"/>
<path d="M413.524 131.635H379.567V134.647H413.524V131.635Z" fill="#0000C6"/>
<path d="M491.637 139.44H453.779L455.709 142.452H493.677L491.637 139.44Z" fill="#0000C6"/>
<path d="M413.524 139.44H379.567V142.452H413.524V139.44Z" fill="#0000C6"/>
<path d="M496.813 147.107H458.68L460.611 150.119H498.839L496.813 147.107Z" fill="#0000C6"/>
<path d="M413.524 147.107H379.567V150.119H413.524V147.107Z" fill="#0000C6"/>
<path d="M501.975 154.775H463.596L465.526 157.787H504.015L501.975 154.775Z" fill="#0000C6"/>
<path d="M413.524 154.775H379.567V157.787H413.524V154.775Z" fill="#0000C6"/>
<path d="M507.15 162.442H468.511L470.442 165.455H509.177L507.15 162.442Z" fill="#0000C6"/>
<path d="M413.524 162.442H379.567V165.455H413.524V162.442Z" fill="#0000C6"/>
<path d="M475.303 173.04H514.298L512.408 170.247H473.509L475.303 173.04Z" fill="#0000C6"/>
<path d="M413.524 170.247H379.567V173.04H413.524V170.247Z" fill="#0000C6"/>
<path d="M476.795 170.301L444.372 119.695H410.785V170.301H382.306V21.5504H450.547C484.531 21.5504 501.044 37.7071 501.044 70.9515C501.044 98.322 484.531 109.262 474.686 113.329L471.592 114.616L509.149 170.301H476.795ZM410.785 98.4452H446.385C463.322 98.4452 471.907 89.8603 471.907 72.9232C471.907 55.986 463.39 47.8392 446.604 47.8392H410.785V98.4452Z" fill="url(#paint10_linear_543_184)"/>
<path opacity="0.38" d="M475.933 169.822L443.51 119.216H409.923V169.822H381.443V21.071H449.685C483.669 21.071 500.181 37.2277 500.181 70.4721C500.181 97.8426 483.669 108.783 473.824 112.849L470.73 114.136L508.287 169.822H475.933ZM409.909 97.9659H445.509C462.446 97.9659 471.031 89.3809 471.031 72.4438C471.031 55.5067 462.514 47.3599 445.728 47.3599H409.909V97.9659Z" fill="url(#paint11_radial_543_184)"/>
<g filter="url(#filter6_d_543_184)">
<path d="M281.203 18.812H315.379V109.727C315.379 152.666 293.691 175.888 253.381 175.888C213.072 175.888 189.412 152.885 189.412 109.947V18.812H223.587V113.233C223.587 133.387 233.664 144.341 252.724 144.341C271.783 144.341 281.203 132.949 281.203 113.233V18.812Z" fill="#F7FFFF"/>
</g>
<path d="M189.959 120.955H224.162C224.012 119.983 223.902 118.97 223.806 117.943H189.686C189.754 118.956 189.85 119.969 189.959 120.955Z" fill="#0000C6"/>
<path d="M315.091 117.943H280.971C280.875 118.97 280.765 119.983 280.615 120.955H314.845C314.941 119.969 315.023 118.956 315.105 117.943H315.091Z" fill="#0000C6"/>
<path d="M191.096 128.787H226.284C225.887 127.828 225.545 126.815 225.244 125.774H190.589C190.753 126.788 190.918 127.801 191.109 128.787H191.096Z" fill="#0000C6"/>
<path d="M314.229 125.774H279.547C279.245 126.815 278.889 127.828 278.506 128.787H313.736C313.928 127.801 314.092 126.788 314.242 125.774H314.229Z" fill="#0000C6"/>
<path d="M193.067 136.619H231.296C230.406 135.701 229.598 134.688 228.859 133.606H192.205C192.479 134.633 192.753 135.633 193.067 136.619Z" fill="#0000C6"/>
<path d="M312.654 133.606H275.918C275.179 134.688 274.371 135.688 273.495 136.619H311.819C312.12 135.633 312.394 134.633 312.654 133.606Z" fill="#0000C6"/>
<path d="M196.039 144.45H308.944C309.382 143.465 309.806 142.465 310.19 141.438H266.8C262.87 143.328 258.173 144.341 252.71 144.341C247.247 144.341 242.167 143.341 238.101 141.438H194.738C195.149 142.465 195.587 143.465 196.039 144.45Z" fill="#0000C6"/>
<path d="M200.461 152.296H304.685C305.329 151.324 305.945 150.311 306.52 149.284H198.558C199.16 150.311 199.79 151.324 200.447 152.296H200.461Z" fill="#0000C6"/>
<path d="M301.084 157.116H204.199C205.116 158.17 206.088 159.17 207.102 160.128H298.305C299.277 159.17 300.208 158.17 301.098 157.116H301.084Z" fill="#0000C6"/>
<path d="M287.926 167.96C289.569 167.043 291.13 166.029 292.623 164.948H212.948C214.495 166.029 216.111 167.043 217.795 167.96H287.926Z" fill="#0000C6"/>
<path d="M249.027 175.792H257.612C264.486 175.504 270.77 174.491 276.466 172.78H229.625C235.499 174.491 241.976 175.504 249.027 175.792Z" fill="#0000C6"/>
<path d="M253.381 173.149C213.318 173.149 192.15 151.297 192.15 109.947V21.5504H220.849V113.233C220.849 135.058 232.172 147.08 252.724 147.08C273.276 147.08 283.942 134.743 283.942 113.233V21.5504H312.641V109.728C312.641 151.215 292.144 173.149 253.381 173.149Z" fill="url(#paint12_linear_543_184)"/>
<path opacity="0.38" d="M251.82 172.67C211.757 172.67 190.589 150.817 190.589 109.467V21.0711H219.288V112.753C219.288 134.579 230.611 146.6 251.163 146.6C271.715 146.6 282.381 134.264 282.381 112.753V21.0711H311.08V109.248C311.08 150.735 290.582 172.67 251.82 172.67Z" fill="url(#paint13_radial_543_184)"/>
<g filter="url(#filter7_d_543_184)">
<path d="M67.6069 173.04C32.7742 173.04 16.5627 154.418 16.5627 126.815C16.5627 105.346 26.8592 94.8305 39.1273 90.6681C28.8309 87.382 18.5344 77.5237 18.5344 57.8071C18.5344 38.0905 29.7072 18.812 63.2254 18.812H128.29V50.5776H71.3311C59.2821 50.5776 52.4908 54.74 52.4908 65.9128C52.4908 75.552 58.1867 81.6861 71.3311 81.6861H122.375V104.251H70.2358C59.063 104.251 51.6145 110.823 51.6145 122.215C51.6145 135.14 57.5295 141.274 74.6172 141.274H128.509V173.04H67.6069Z" fill="#F7FFFF"/>
</g>
<path d="M17.5896 115.889C17.3979 116.861 17.2336 117.874 17.0967 118.901H51.8746C52.0252 117.847 52.2443 116.833 52.5318 115.889H17.6033H17.5896Z" fill="#0000C6"/>
<path d="M51.902 126.705C51.7651 125.761 51.6966 124.734 51.6693 123.693H16.6723C16.6175 124.679 16.5764 125.665 16.5764 126.705H51.9157H51.902Z" fill="#0000C6"/>
<path d="M17.0009 134.373H54.7363C54.0791 133.456 53.5451 132.456 53.1069 131.361H16.7271C16.7955 132.374 16.8777 133.387 17.0009 134.373Z" fill="#0000C6"/>
<path d="M18.5343 142.178H128.523V141.274H74.6308C68.9075 141.274 64.4576 140.562 61.0483 139.165H17.7949C18.014 140.192 18.2605 141.192 18.5343 142.178Z" fill="#0000C6"/>
<path d="M21.4233 149.845H128.509V146.833H20.0952C20.506 147.86 20.9441 148.873 21.4233 149.845Z" fill="#0000C6"/>
<path d="M26.4485 157.513H128.509V154.5H24.1619C24.8739 155.541 25.6406 156.554 26.4485 157.513Z" fill="#0000C6"/>
<path d="M128.509 165.18V162.168H31.1587C32.4594 163.25 33.856 164.249 35.3348 165.18H128.509Z" fill="#0000C6"/>
<path d="M128.509 172.985V169.973H45.8091C51.2175 171.698 57.3926 172.738 64.3756 172.985H128.509Z" fill="#0000C6"/>
<path d="M67.6067 170.301C36.4572 170.301 19.301 154.857 19.301 126.815C19.301 104.894 30.5559 96.4598 40.0035 93.2559L47.8764 90.5859L39.9487 88.0529C34.3349 86.2592 21.259 79.7144 21.259 57.7934C21.259 46.8945 25.3529 21.5367 63.2116 21.5367H125.538V47.8255H71.3173C56.9954 47.8255 49.7386 53.9048 49.7386 65.8991C49.7386 72.8136 52.5454 84.4108 71.3173 84.4108H119.623V101.499H70.2219C57.2418 101.499 48.8623 109.632 48.8623 122.201C48.8623 137.276 56.8037 143.999 74.6034 143.999H125.757V170.288H67.593L67.6067 170.301Z" fill="url(#paint14_linear_543_184)"/>
<path opacity="0.38" d="M66.7305 169.822C35.581 169.822 18.4248 154.377 18.4248 126.336C18.4248 104.415 29.6797 95.9805 39.1273 92.7765L47.0002 90.1066L39.0725 87.5735C33.4587 85.7799 20.3828 79.2351 20.3828 57.314C20.3828 46.4151 24.4767 21.0573 62.3354 21.0573H124.662V47.3462H70.4411C56.1191 47.3462 48.8623 53.4255 48.8623 65.4197C48.8623 72.3342 51.6692 83.9314 70.4411 83.9314H118.747V101.019H69.3457C56.3656 101.019 47.986 109.152 47.986 121.722C47.986 136.797 55.9275 143.519 73.7272 143.519H124.881V169.808H66.7168L66.7305 169.822Z" fill="url(#paint15_radial_543_184)"/>
<defs>
<filter id="filter0_d_543_184" x="551.241" y="205.382" width="164.466" height="186.374" filterUnits="userSpaceOnUse" color-interpolation-filters="sRGB">
<feFlood flood-opacity="0" result="BackgroundImageFix"/>
<feColorMatrix in="SourceAlpha" type="matrix" values="0 0 0 0 0 0 0 0 0 0 0 0 0 0 0 0 0 0 127 0" result="hardAlpha"/>
<feOffset/>
<feGaussianBlur stdDeviation="8.03645"/>
<feColorMatrix type="matrix" values="0 0 0 0 0 0 0 0 0 0.027451 0 0 0 0 0.894118 0 0 0 0.5 0"/>
<feBlend mode="normal" in2="BackgroundImageFix" result="effect1_dropShadow_543_184"/>
<feBlend mode="normal" in="SourceGraphic" in2="effect1_dropShadow_543_184" result="shape"/>
</filter>
<filter id="filter1_d_543_184" x="375.544" y="205.382" width="166.219" height="186.374" filterUnits="userSpaceOnUse" color-interpolation-filters="sRGB">
<feFlood flood-opacity="0" result="BackgroundImageFix"/>
<feColorMatrix in="SourceAlpha" type="matrix" values="0 0 0 0 0 0 0 0 0 0 0 0 0 0 0 0 0 0 127 0" result="hardAlpha"/>
<feOffset/>
<feGaussianBlur stdDeviation="8.03645"/>
<feColorMatrix type="matrix" values="0 0 0 0 0 0 0 0 0 0.027451 0 0 0 0 0.894118 0 0 0 0.5 0"/>
<feBlend mode="normal" in2="BackgroundImageFix" result="effect1_dropShadow_543_184"/>
<feBlend mode="normal" in="SourceGraphic" in2="effect1_dropShadow_543_184" result="shape"/>
</filter>
<filter id="filter2_d_543_184" x="188.236" y="205.382" width="162.494" height="189.222" filterUnits="userSpaceOnUse" color-interpolation-filters="sRGB">
<feFlood flood-opacity="0" result="BackgroundImageFix"/>
<feColorMatrix in="SourceAlpha" type="matrix" values="0 0 0 0 0 0 0 0 0 0 0 0 0 0 0 0 0 0 127 0" result="hardAlpha"/>
<feOffset/>
<feGaussianBlur stdDeviation="8.03645"/>
<feColorMatrix type="matrix" values="0 0 0 0 0 0 0 0 0 0.027451 0 0 0 0 0.894118 0 0 0 0.5 0"/>
<feBlend mode="normal" in2="BackgroundImageFix" result="effect1_dropShadow_543_184"/>
<feBlend mode="normal" in="SourceGraphic" in2="effect1_dropShadow_543_184" result="shape"/>
</filter>
<filter id="filter3_d_543_184" x="5.96665" y="205.382" width="172.353" height="186.374" filterUnits="userSpaceOnUse" color-interpolation-filters="sRGB">
<feFlood flood-opacity="0" result="BackgroundImageFix"/>
<feColorMatrix in="SourceAlpha" type="matrix" values="0 0 0 0 0 0 0 0 0 0 0 0 0 0 0 0 0 0 127 0" result="hardAlpha"/>
<feOffset/>
<feGaussianBlur stdDeviation="8.03645"/>
<feColorMatrix type="matrix" values="0 0 0 0 0 0 0 0 0 0.027451 0 0 0 0 0.894118 0 0 0 0.5 0"/>
<feBlend mode="normal" in2="BackgroundImageFix" result="effect1_dropShadow_543_184"/>
<feBlend mode="normal" in="SourceGraphic" in2="effect1_dropShadow_543_184" result="shape"/>
</filter>
<filter id="filter4_d_543_184" x="541.382" y="0.110331" width="176.515" height="191.85" filterUnits="userSpaceOnUse" color-interpolation-filters="sRGB">
<feFlood flood-opacity="0" result="BackgroundImageFix"/>
<feColorMatrix in="SourceAlpha" type="matrix" values="0 0 0 0 0 0 0 0 0 0 0 0 0 0 0 0 0 0 127 0" result="hardAlpha"/>
<feOffset/>
<feGaussianBlur stdDeviation="8.03645"/>
<feColorMatrix type="matrix" values="0 0 0 0 0 0 0 0 0 0.027451 0 0 0 0 0.894118 0 0 0 0.5 0"/>
<feBlend mode="normal" in2="BackgroundImageFix" result="effect1_dropShadow_543_184"/>
<feBlend mode="normal" in="SourceGraphic" in2="effect1_dropShadow_543_184" result="shape"/>
</filter>
<filter id="filter5_d_543_184" x="363.494" y="2.73908" width="166.876" height="186.374" filterUnits="userSpaceOnUse" color-interpolation-filters="sRGB">
<feFlood flood-opacity="0" result="BackgroundImageFix"/>
<feColorMatrix in="SourceAlpha" type="matrix" values="0 0 0 0 0 0 0 0 0 0 0 0 0 0 0 0 0 0 127 0" result="hardAlpha"/>
<feOffset/>
<feGaussianBlur stdDeviation="8.03645"/>
<feColorMatrix type="matrix" values="0 0 0 0 0 0 0 0 0 0.027451 0 0 0 0 0.894118 0 0 0 0.5 0"/>
<feBlend mode="normal" in2="BackgroundImageFix" result="effect1_dropShadow_543_184"/>
<feBlend mode="normal" in="SourceGraphic" in2="effect1_dropShadow_543_184" result="shape"/>
</filter>
<filter id="filter6_d_543_184" x="173.339" y="2.73908" width="158.113" height="189.222" filterUnits="userSpaceOnUse" color-interpolation-filters="sRGB">
<feFlood flood-opacity="0" result="BackgroundImageFix"/>
<feColorMatrix in="SourceAlpha" type="matrix" values="0 0 0 0 0 0 0 0 0 0 0 0 0 0 0 0 0 0 127 0" result="hardAlpha"/>
<feOffset/>
<feGaussianBlur stdDeviation="8.03645"/>
<feColorMatrix type="matrix" values="0 0 0 0 0 0 0 0 0 0.027451 0 0 0 0 0.894118 0 0 0 0.5 0"/>
<feBlend mode="normal" in2="BackgroundImageFix" result="effect1_dropShadow_543_184"/>
<feBlend mode="normal" in="SourceGraphic" in2="effect1_dropShadow_543_184" result="shape"/>
</filter>
<filter id="filter7_d_543_184" x="0.489847" y="2.73908" width="144.092" height="186.374" filterUnits="userSpaceOnUse" color-interpolation-filters="sRGB">
<feFlood flood-opacity="0" result="BackgroundImageFix"/>
<feColorMatrix in="SourceAlpha" type="matrix" values="0 0 0 0 0 0 0 0 0 0 0 0 0 0 0 0 0 0 127 0" result="hardAlpha"/>
<feOffset/>
<feGaussianBlur stdDeviation="8.03645"/>
<feColorMatrix type="matrix" values="0 0 0 0 0 0 0 0 0 0.027451 0 0 0 0 0.894118 0 0 0 0.5 0"/>
<feBlend mode="normal" in2="BackgroundImageFix" result="effect1_dropShadow_543_184"/>
<feBlend mode="normal" in="SourceGraphic" in2="effect1_dropShadow_543_184" result="shape"/>
</filter>
<linearGradient id="paint0_linear_543_184" x1="633.482" y1="372.945" x2="633.482" y2="224.207" gradientUnits="userSpaceOnUse">
<stop offset="0.36" stop-color="#2C19FF" stop-opacity="0"/>
<stop offset="0.4" stop-color="#4C50FF" stop-opacity="0.1"/>
<stop offset="0.5" stop-color="#8CD4FF" stop-opacity="0.32"/>
<stop offset="0.55" stop-color="#9DFAFF" stop-opacity="0.4"/>
<stop offset="0.61" stop-color="#6DCBFF" stop-opacity="0.66"/>
<stop offset="0.67" stop-color="#3F9AFF" stop-opacity="0.9"/>
<stop offset="0.7" stop-color="#2E82FF"/>
<stop offset="0.72" stop-color="#2777FF"/>
<stop offset="0.77" stop-color="#1856CD"/>
<stop offset="0.82" stop-color="#0D3AA3"/>
<stop offset="0.87" stop-color="#042985"/>
<stop offset="0.9" stop-color="#001C73"/>
<stop offset="0.93" stop-color="#00196D"/>
</linearGradient>
<radialGradient id="paint1_radial_543_184" cx="0" cy="0" r="1" gradientUnits="userSpaceOnUse" gradientTransform="translate(323.813 142.185) scale(365.976 193.967)">
<stop stop-color="#F700FF"/>
<stop offset="0.15" stop-color="#F71FFF" stop-opacity="0.88"/>
<stop offset="0.47" stop-color="#F76FFF" stop-opacity="0.56"/>
<stop offset="0.94" stop-color="#F7EEFF" stop-opacity="0.06"/>
<stop offset="1" stop-color="#F7FFFF" stop-opacity="0"/>
</radialGradient>
<linearGradient id="paint2_linear_543_184" x1="458.661" y1="372.945" x2="458.661" y2="224.207" gradientUnits="userSpaceOnUse">
<stop offset="0.36" stop-color="#2C19FF" stop-opacity="0"/>
<stop offset="0.4" stop-color="#4C50FF" stop-opacity="0.1"/>
<stop offset="0.5" stop-color="#8CD4FF" stop-opacity="0.32"/>
<stop offset="0.55" stop-color="#9DFAFF" stop-opacity="0.4"/>
<stop offset="0.61" stop-color="#6DCBFF" stop-opacity="0.66"/>
<stop offset="0.67" stop-color="#3F9AFF" stop-opacity="0.9"/>
<stop offset="0.7" stop-color="#2E82FF"/>
<stop offset="0.72" stop-color="#2777FF"/>
<stop offset="0.77" stop-color="#1856CD"/>
<stop offset="0.82" stop-color="#0D3AA3"/>
<stop offset="0.87" stop-color="#042985"/>
<stop offset="0.9" stop-color="#001C73"/>
<stop offset="0.93" stop-color="#00196D"/>
</linearGradient>
<radialGradient id="paint3_radial_543_184" cx="0" cy="0" r="1" gradientUnits="userSpaceOnUse" gradientTransform="translate(-65.9459 142.185) scale(365.976 193.967)">
<stop stop-color="#F700FF"/>
<stop offset="0.15" stop-color="#F71FFF" stop-opacity="0.88"/>
<stop offset="0.47" stop-color="#F76FFF" stop-opacity="0.56"/>
<stop offset="0.94" stop-color="#F7EEFF" stop-opacity="0.06"/>
<stop offset="1" stop-color="#F7FFFF" stop-opacity="0"/>
</radialGradient>
<linearGradient id="paint4_linear_543_184" x1="269.491" y1="375.793" x2="269.491" y2="224.208" gradientUnits="userSpaceOnUse">
<stop offset="0.36" stop-color="#2C19FF" stop-opacity="0"/>
<stop offset="0.4" stop-color="#4C50FF" stop-opacity="0.1"/>
<stop offset="0.5" stop-color="#8CD4FF" stop-opacity="0.32"/>
<stop offset="0.55" stop-color="#9DFAFF" stop-opacity="0.4"/>
<stop offset="0.61" stop-color="#6DCBFF" stop-opacity="0.66"/>
<stop offset="0.67" stop-color="#3F9AFF" stop-opacity="0.9"/>
<stop offset="0.7" stop-color="#2E82FF"/>
<stop offset="0.72" stop-color="#2777FF"/>
<stop offset="0.77" stop-color="#1856CD"/>
<stop offset="0.82" stop-color="#0D3AA3"/>
<stop offset="0.87" stop-color="#042985"/>
<stop offset="0.9" stop-color="#001C73"/>
<stop offset="0.93" stop-color="#00196D"/>
</linearGradient>
<radialGradient id="paint5_radial_543_184" cx="0" cy="0" r="1" gradientUnits="userSpaceOnUse" gradientTransform="translate(-65.946 142.185) scale(365.976 193.967)">
<stop stop-color="#F700FF"/>
<stop offset="0.15" stop-color="#F71FFF" stop-opacity="0.88"/>
<stop offset="0.47" stop-color="#F76FFF" stop-opacity="0.56"/>
<stop offset="0.94" stop-color="#F7EEFF" stop-opacity="0.06"/>
<stop offset="1" stop-color="#F7FFFF" stop-opacity="0"/>
</radialGradient>
<linearGradient id="paint6_linear_543_184" x1="91.1793" y1="372.945" x2="91.1793" y2="224.207" gradientUnits="userSpaceOnUse">
<stop offset="0.36" stop-color="#2C19FF" stop-opacity="0"/>
<stop offset="0.4" stop-color="#4C50FF" stop-opacity="0.1"/>
<stop offset="0.5" stop-color="#8CD4FF" stop-opacity="0.32"/>
<stop offset="0.55" stop-color="#9DFAFF" stop-opacity="0.4"/>
<stop offset="0.61" stop-color="#6DCBFF" stop-opacity="0.66"/>
<stop offset="0.67" stop-color="#3F9AFF" stop-opacity="0.9"/>
<stop offset="0.7" stop-color="#2E82FF"/>
<stop offset="0.72" stop-color="#2777FF"/>
<stop offset="0.77" stop-color="#1856CD"/>
<stop offset="0.82" stop-color="#0D3AA3"/>
<stop offset="0.87" stop-color="#042985"/>
<stop offset="0.9" stop-color="#001C73"/>
<stop offset="0.93" stop-color="#00196D"/>
</linearGradient>
<radialGradient id="paint7_radial_543_184" cx="0" cy="0" r="1" gradientUnits="userSpaceOnUse" gradientTransform="translate(-65.9459 142.185) scale(365.976 193.967)">
<stop stop-color="#F700FF"/>
<stop offset="0.15" stop-color="#F71FFF" stop-opacity="0.88"/>
<stop offset="0.47" stop-color="#F76FFF" stop-opacity="0.56"/>
<stop offset="0.94" stop-color="#F7EEFF" stop-opacity="0.06"/>
<stop offset="1" stop-color="#F7FFFF" stop-opacity="0"/>
</radialGradient>
<linearGradient id="paint8_linear_543_184" x1="629.649" y1="173.149" x2="629.649" y2="18.9358" gradientUnits="userSpaceOnUse">
<stop offset="0.36" stop-color="#2C19FF" stop-opacity="0"/>
<stop offset="0.4" stop-color="#4C50FF" stop-opacity="0.1"/>
<stop offset="0.5" stop-color="#8CD4FF" stop-opacity="0.32"/>
<stop offset="0.55" stop-color="#9DFAFF" stop-opacity="0.4"/>
<stop offset="0.61" stop-color="#6DCBFF" stop-opacity="0.66"/>
<stop offset="0.67" stop-color="#3F9AFF" stop-opacity="0.9"/>
<stop offset="0.7" stop-color="#2E82FF"/>
<stop offset="0.72" stop-color="#2777FF"/>
<stop offset="0.77" stop-color="#1856CD"/>
<stop offset="0.82" stop-color="#0D3AA3"/>
<stop offset="0.87" stop-color="#042985"/>
<stop offset="0.9" stop-color="#001C73"/>
<stop offset="0.93" stop-color="#00196D"/>
</linearGradient>
<radialGradient id="paint9_radial_543_184" cx="0" cy="0" r="1" gradientUnits="userSpaceOnUse" gradientTransform="translate(321.759 -65.0302) scale(370.768 196.507)">
<stop stop-color="#F700FF"/>
<stop offset="0.15" stop-color="#F71FFF" stop-opacity="0.88"/>
<stop offset="0.47" stop-color="#F76FFF" stop-opacity="0.56"/>
<stop offset="0.94" stop-color="#F7EEFF" stop-opacity="0.06"/>
<stop offset="1" stop-color="#F7FFFF" stop-opacity="0"/>
</radialGradient>
<linearGradient id="paint10_linear_543_184" x1="445.736" y1="170.301" x2="445.736" y2="21.5641" gradientUnits="userSpaceOnUse">
<stop offset="0.36" stop-color="#2C19FF" stop-opacity="0"/>
<stop offset="0.4" stop-color="#4C50FF" stop-opacity="0.1"/>
<stop offset="0.5" stop-color="#8CD4FF" stop-opacity="0.32"/>
<stop offset="0.55" stop-color="#9DFAFF" stop-opacity="0.4"/>
<stop offset="0.61" stop-color="#6DCBFF" stop-opacity="0.66"/>
<stop offset="0.67" stop-color="#3F9AFF" stop-opacity="0.9"/>
<stop offset="0.7" stop-color="#2E82FF"/>
<stop offset="0.72" stop-color="#2777FF"/>
<stop offset="0.77" stop-color="#1856CD"/>
<stop offset="0.82" stop-color="#0D3AA3"/>
<stop offset="0.87" stop-color="#042985"/>
<stop offset="0.9" stop-color="#001C73"/>
<stop offset="0.93" stop-color="#00196D"/>
</linearGradient>
<radialGradient id="paint11_radial_543_184" cx="0" cy="0" r="1" gradientUnits="userSpaceOnUse" gradientTransform="translate(321.76 -65.0303) scale(370.768 196.507)">
<stop stop-color="#F700FF"/>
<stop offset="0.15" stop-color="#F71FFF" stop-opacity="0.88"/>
<stop offset="0.47" stop-color="#F76FFF" stop-opacity="0.56"/>
<stop offset="0.94" stop-color="#F7EEFF" stop-opacity="0.06"/>
<stop offset="1" stop-color="#F7FFFF" stop-opacity="0"/>
</radialGradient>
<linearGradient id="paint12_linear_543_184" x1="252.403" y1="173.149" x2="252.403" y2="21.5644" gradientUnits="userSpaceOnUse">
<stop offset="0.36" stop-color="#2C19FF" stop-opacity="0"/>
<stop offset="0.4" stop-color="#4C50FF" stop-opacity="0.1"/>
<stop offset="0.5" stop-color="#8CD4FF" stop-opacity="0.32"/>
<stop offset="0.55" stop-color="#9DFAFF" stop-opacity="0.4"/>
<stop offset="0.61" stop-color="#6DCBFF" stop-opacity="0.66"/>
<stop offset="0.67" stop-color="#3F9AFF" stop-opacity="0.9"/>
<stop offset="0.7" stop-color="#2E82FF"/>
<stop offset="0.72" stop-color="#2777FF"/>
<stop offset="0.77" stop-color="#1856CD"/>
<stop offset="0.82" stop-color="#0D3AA3"/>
<stop offset="0.87" stop-color="#042985"/>
<stop offset="0.9" stop-color="#001C73"/>
<stop offset="0.93" stop-color="#00196D"/>
</linearGradient>
<radialGradient id="paint13_radial_543_184" cx="0" cy="0" r="1" gradientUnits="userSpaceOnUse" gradientTransform="translate(321.075 -65.0303) scale(370.768 196.507)">
<stop stop-color="#F700FF"/>
<stop offset="0.15" stop-color="#F71FFF" stop-opacity="0.88"/>
<stop offset="0.47" stop-color="#F76FFF" stop-opacity="0.56"/>
<stop offset="0.94" stop-color="#F7EEFF" stop-opacity="0.06"/>
<stop offset="1" stop-color="#F7FFFF" stop-opacity="0"/>
</radialGradient>
<linearGradient id="paint14_linear_543_184" x1="72.5359" y1="170.301" x2="72.5359" y2="21.5504" gradientUnits="userSpaceOnUse">
<stop offset="0.36" stop-color="#2C19FF" stop-opacity="0"/>
<stop offset="0.4" stop-color="#4C50FF" stop-opacity="0.1"/>
<stop offset="0.5" stop-color="#8CD4FF" stop-opacity="0.32"/>
<stop offset="0.55" stop-color="#9DFAFF" stop-opacity="0.4"/>
<stop offset="0.61" stop-color="#6DCBFF" stop-opacity="0.66"/>
<stop offset="0.67" stop-color="#3F9AFF" stop-opacity="0.9"/>
<stop offset="0.7" stop-color="#2E82FF"/>
<stop offset="0.72" stop-color="#2777FF"/>
<stop offset="0.77" stop-color="#1856CD"/>
<stop offset="0.82" stop-color="#0D3AA3"/>
<stop offset="0.87" stop-color="#042985"/>
<stop offset="0.9" stop-color="#001C73"/>
<stop offset="0.93" stop-color="#00196D"/>
</linearGradient>
<radialGradient id="paint15_radial_543_184" cx="0" cy="0" r="1" gradientUnits="userSpaceOnUse" gradientTransform="translate(321.759 -65.0303) scale(370.768 196.507)">
<stop stop-color="#F700FF"/>
<stop offset="0.15" stop-color="#F71FFF" stop-opacity="0.88"/>
<stop offset="0.47" stop-color="#F76FFF" stop-opacity="0.56"/>
<stop offset="0.94" stop-color="#F7EEFF" stop-opacity="0.06"/>
<stop offset="1" stop-color="#F7FFFF" stop-opacity="0"/>
</radialGradient>
</defs>
</svg>
