<svg fill="none" height="395" viewBox="0 0 718 395" width="718" xmlns="http://www.w3.org/2000/svg" xmlns:xlink="http://www.w3.org/1999/xlink"><filter id="a" color-interpolation-filters="sRGB" filterUnits="userSpaceOnUse" height="186.374" width="164.466" x="551.241" y="205.382"><feFlood flood-opacity="0" result="BackgroundImageFix"/><feColorMatrix in="SourceAlpha" result="hardAlpha" type="matrix" values="0 0 0 0 0 0 0 0 0 0 0 0 0 0 0 0 0 0 127 0"/><feOffset/><feGaussianBlur stdDeviation="8.03645"/><feColorMatrix type="matrix" values="0 0 0 0 0 0 0 0 0 0.027451 0 0 0 0 0.894118 0 0 0 0.5 0"/><feBlend in2="BackgroundImageFix" mode="normal" result="effect1_dropShadow_543_184"/><feBlend in="SourceGraphic" in2="effect1_dropShadow_543_184" mode="normal" result="shape"/></filter><filter id="b" color-interpolation-filters="sRGB" filterUnits="userSpaceOnUse" height="186.374" width="166.219" x="375.544" y="205.382"><feFlood flood-opacity="0" result="BackgroundImageFix"/><feColorMatrix in="SourceAlpha" result="hardAlpha" type="matrix" values="0 0 0 0 0 0 0 0 0 0 0 0 0 0 0 0 0 0 127 0"/><feOffset/><feGaussianBlur stdDeviation="8.03645"/><feColorMatrix type="matrix" values="0 0 0 0 0 0 0 0 0 0.027451 0 0 0 0 0.894118 0 0 0 0.5 0"/><feBlend in2="BackgroundImageFix" mode="normal" result="effect1_dropShadow_543_184"/><feBlend in="SourceGraphic" in2="effect1_dropShadow_543_184" mode="normal" result="shape"/></filter><filter id="c" color-interpolation-filters="sRGB" filterUnits="userSpaceOnUse" height="189.222" width="162.494" x="188.236" y="205.382"><feFlood flood-opacity="0" result="BackgroundImageFix"/><feColorMatrix in="SourceAlpha" result="hardAlpha" type="matrix" values="0 0 0 0 0 0 0 0 0 0 0 0 0 0 0 0 0 0 127 0"/><feOffset/><feGaussianBlur stdDeviation="8.03645"/><feColorMatrix type="matrix" values="0 0 0 0 0 0 0 0 0 0.027451 0 0 0 0 0.894118 0 0 0 0.5 0"/><feBlend in2="BackgroundImageFix" mode="normal" result="effect1_dropShadow_543_184"/><feBlend in="SourceGraphic" in2="effect1_dropShadow_543_184" mode="normal" result="shape"/></filter><filter id="d" color-interpolation-filters="sRGB" filterUnits="userSpaceOnUse" height="186.374" width="172.353" x="5.96665" y="205.382"><feFlood flood-opacity="0" result="BackgroundImageFix"/><feColorMatrix in="SourceAlpha" result="hardAlpha" type="matrix" values="0 0 0 0 0 0 0 0 0 0 0 0 0 0 0 0 0 0 127 0"/><feOffset/><feGaussianBlur stdDeviation="8.03645"/><feColorMatrix type="matrix" values="0 0 0 0 0 0 0 0 0 0.027451 0 0 0 0 0.894118 0 0 0 0.5 0"/><feBlend in2="BackgroundImageFix" mode="normal" result="effect1_dropShadow_543_184"/><feBlend in="SourceGraphic" in2="effect1_dropShadow_543_184" mode="normal" result="shape"/></filter><filter id="e" color-interpolation-filters="sRGB" filterUnits="userSpaceOnUse" height="191.85" width="176.515" x="541.382" y=".110331"><feFlood flood-opacity="0" result="BackgroundImageFix"/><feColorMatrix in="SourceAlpha" result="hardAlpha" type="matrix" values="0 0 0 0 0 0 0 0 0 0 0 0 0 0 0 0 0 0 127 0"/><feOffset/><feGaussianBlur stdDeviation="8.03645"/><feColorMatrix type="matrix" values="0 0 0 0 0 0 0 0 0 0.027451 0 0 0 0 0.894118 0 0 0 0.5 0"/><feBlend in2="BackgroundImageFix" mode="normal" result="effect1_dropShadow_543_184"/><feBlend in="SourceGraphic" in2="effect1_dropShadow_543_184" mode="normal" result="shape"/></filter><filter id="f" color-interpolation-filters="sRGB" filterUnits="userSpaceOnUse" height="186.374" width="166.876" x="363.494" y="2.73908"><feFlood flood-opacity="0" result="BackgroundImageFix"/><feColorMatrix in="SourceAlpha" result="hardAlpha" type="matrix" values="0 0 0 0 0 0 0 0 0 0 0 0 0 0 0 0 0 0 127 0"/><feOffset/><feGaussianBlur stdDeviation="8.03645"/><feColorMatrix type="matrix" values="0 0 0 0 0 0 0 0 0 0.027451 0 0 0 0 0.894118 0 0 0 0.5 0"/><feBlend in2="BackgroundImageFix" mode="normal" result="effect1_dropShadow_543_184"/><feBlend in="SourceGraphic" in2="effect1_dropShadow_543_184" mode="normal" result="shape"/></filter><filter id="g" color-interpolation-filters="sRGB" filterUnits="userSpaceOnUse" height="189.222" width="158.113" x="173.339" y="2.73908"><feFlood flood-opacity="0" result="BackgroundImageFix"/><feColorMatrix in="SourceAlpha" result="hardAlpha" type="matrix" values="0 0 0 0 0 0 0 0 0 0 0 0 0 0 0 0 0 0 127 0"/><feOffset/><feGaussianBlur stdDeviation="8.03645"/><feColorMatrix type="matrix" values="0 0 0 0 0 0 0 0 0 0.027451 0 0 0 0 0.894118 0 0 0 0.5 0"/><feBlend in2="BackgroundImageFix" mode="normal" result="effect1_dropShadow_543_184"/><feBlend in="SourceGraphic" in2="effect1_dropShadow_543_184" mode="normal" result="shape"/></filter><filter id="h" color-interpolation-filters="sRGB" filterUnits="userSpaceOnUse" height="186.374" width="144.092" x=".489847" y="2.73908"><feFlood flood-opacity="0" result="BackgroundImageFix"/><feColorMatrix in="SourceAlpha" result="hardAlpha" type="matrix" values="0 0 0 0 0 0 0 0 0 0 0 0 0 0 0 0 0 0 127 0"/><feOffset/><feGaussianBlur stdDeviation="8.03645"/><feColorMatrix type="matrix" values="0 0 0 0 0 0 0 0 0 0.027451 0 0 0 0 0.894118 0 0 0 0.5 0"/><feBlend in2="BackgroundImageFix" mode="normal" result="effect1_dropShadow_543_184"/><feBlend in="SourceGraphic" in2="effect1_dropShadow_543_184" mode="normal" result="shape"/></filter><linearGradient id="i"><stop offset=".36" stop-color="#2c19ff" stop-opacity="0"/><stop offset=".4" stop-color="#4c50ff" stop-opacity=".1"/><stop offset=".5" stop-color="#8cd4ff" stop-opacity=".32"/><stop offset=".55" stop-color="#9dfaff" stop-opacity=".4"/><stop offset=".61" stop-color="#6dcbff" stop-opacity=".66"/><stop offset=".67" stop-color="#3f9aff" stop-opacity=".9"/><stop offset=".7" stop-color="#2e82ff"/><stop offset=".72" stop-color="#2777ff"/><stop offset=".77" stop-color="#1856cd"/><stop offset=".82" stop-color="#0d3aa3"/><stop offset=".87" stop-color="#042985"/><stop offset=".9" stop-color="#001c73"/><stop offset=".93" stop-color="#00196d"/></linearGradient><linearGradient id="j" gradientUnits="userSpaceOnUse" x1="633.482" x2="633.482" xlink:href="#i" y1="372.945" y2="224.207"/><linearGradient id="k"><stop offset="0" stop-color="#f700ff"/><stop offset=".15" stop-color="#f71fff" stop-opacity=".88"/><stop offset=".47" stop-color="#f76fff" stop-opacity=".56"/><stop offset=".94" stop-color="#f7eeff" stop-opacity=".06"/><stop offset="1" stop-color="#f7ffff" stop-opacity="0"/></linearGradient><radialGradient id="l" cx="0" cy="0" gradientTransform="matrix(365.976 0 0 193.967 323.813 142.185)" gradientUnits="userSpaceOnUse" r="1" xlink:href="#k"/><linearGradient id="m" gradientUnits="userSpaceOnUse" x1="458.661" x2="458.661" xlink:href="#i" y1="372.945" y2="224.207"/><radialGradient id="n" cx="0" cy="0" gradientTransform="matrix(365.976 0 0 193.967 -65.9459 142.185)" gradientUnits="userSpaceOnUse" r="1" xlink:href="#k"/><linearGradient id="o" gradientUnits="userSpaceOnUse" x1="269.491" x2="269.491" xlink:href="#i" y1="375.793" y2="224.208"/><radialGradient id="p" cx="0" cy="0" gradientTransform="matrix(365.976 0 0 193.967 -65.946 142.185)" gradientUnits="userSpaceOnUse" r="1" xlink:href="#k"/><linearGradient id="q" gradientUnits="userSpaceOnUse" x1="91.1793" x2="91.1793" xlink:href="#i" y1="372.945" y2="224.207"/><linearGradient id="r" gradientUnits="userSpaceOnUse" x1="629.649" x2="629.649" xlink:href="#i" y1="173.149" y2="18.9358"/><radialGradient id="s" cx="0" cy="0" gradientTransform="matrix(370.768 0 0 196.507 321.759 -65.0302)" gradientUnits="userSpaceOnUse" r="1" xlink:href="#k"/><linearGradient id="t" gradientUnits="userSpaceOnUse" x1="445.736" x2="445.736" xlink:href="#i" y1="170.301" y2="21.5641"/><radialGradient id="u" cx="0" cy="0" gradientTransform="matrix(370.768 0 0 196.507 321.76 -65.0303)" gradientUnits="userSpaceOnUse" r="1" xlink:href="#k"/><linearGradient id="v" gradientUnits="userSpaceOnUse" x1="252.403" x2="252.403" xlink:href="#i" y1="173.149" y2="21.5644"/><radialGradient id="w" cx="0" cy="0" gradientTransform="matrix(370.768 0 0 196.507 321.075 -65.0303)" gradientUnits="userSpaceOnUse" r="1" xlink:href="#k"/><linearGradient id="x" gradientUnits="userSpaceOnUse" x1="72.5359" x2="72.5359" xlink:href="#i" y1="170.301" y2="21.5504"/><radialGradient id="y" cx="0" cy="0" gradientTransform="matrix(370.768 0 0 196.507 321.759 -65.0303)" gradientUnits="userSpaceOnUse" r="1" xlink:href="#k"/><g filter="url(#a)"><path d="m605.87 375.683v-104.936h-38.557v-49.292h132.321v49.292h-37.9v104.936z" fill="#f7ffff"/></g><path d="m608.609 372.945v-104.937h-38.557v-43.814h126.843v43.814h-37.899v104.937z" fill="url(#j)"/><path d="m661.734 318.601h-55.864v3.012h55.864z" fill="#0000c6"/><path d="m661.734 326.405h-55.864v3.012h55.864z" fill="#0000c6"/><path d="m661.734 334.073h-55.864v3.012h55.864z" fill="#0000c6"/><path d="m661.734 341.877h-55.864v3.013h55.864z" fill="#0000c6"/><path d="m661.734 349.545h-55.864v3.012h55.864z" fill="#0000c6"/><path d="m661.734 357.212h-55.864v3.013h55.864z" fill="#0000c6"/><path d="m661.734 364.88h-55.864v3.012h55.864z" fill="#0000c6"/><path d="m661.734 372.685h-55.864v2.998h55.864z" fill="#0000c6"/><path d="m607.732 372.465v-104.936h-38.556v-43.815h126.843v43.815h-37.9v104.936z" fill="url(#l)" opacity=".38"/><g filter="url(#b)"><path d="m392.931 375.683v-49.291h58.493c7.01 0 10.077-3.068 10.077-8.763 0-5.696-3.067-8.763-10.077-8.763h-10.078c-35.271 0-49.73-17.745-49.73-42.939 0-26.508 16.431-44.472 47.32-44.472h75.581v49.292h-53.673c-6.134 0-9.42 2.848-9.42 8.325 0 5.915 3.286 8.982 9.42 8.982h20.374c33.299 0 44.471 19.935 44.471 42.281 0 24.974-14.677 45.348-52.139 45.348z" fill="#f7ffff"/></g><path d="m395.669 372.945v-43.815h55.755c11.145 0 12.815-7.202 12.815-11.501 0-4.3-1.67-11.502-12.815-11.502h-10.078c-30.738 0-46.991-13.897-46.991-40.2 0-26.302 16.663-41.733 44.581-41.733h72.842v43.814h-50.934c-7.723 0-12.159 4.04-12.159 11.064 0 7.448 4.436 11.72 12.159 11.72h20.374c36.311 0 41.733 24.769 41.733 39.543 0 15.91-6.421 42.61-49.401 42.61z" fill="url(#m)"/><path d="m392.931 372.685v2.998h80.619c8.544 0 15.883-1.068 22.154-2.998z" fill="#0000c6"/><path d="m506.548 367.892c1.533-.931 2.944-1.944 4.272-3.012h-117.903v3.012z" fill="#0000c6"/><path d="m515.667 360.225c.835-.973 1.629-1.972 2.355-3.013h-125.105v3.013h122.736z" fill="#0000c6"/><path d="m520.815 352.557c.493-.986.958-1.985 1.383-3.012h-129.267v3.012z" fill="#0000c6"/><path d="m523.786 344.89c.274-.986.534-1.999.753-3.013h-131.608v3.013z" fill="#0000c6"/><path d="m525.306 337.085c.11-.999.192-1.999.26-3.012h-132.635v3.012h132.389z" fill="#0000c6"/><path d="m525.676 329.417c-.014-1.013-.041-2.012-.11-3.012h-132.635v3.012z" fill="#0000c6"/><path d="m525.073 321.613c-.151-1.013-.328-2.026-.534-3.012h-63.066c-.082 1.122-.287 2.122-.643 3.012z" fill="#0000c6"/><path d="m394.793 372.465v-43.814h55.754c11.146 0 12.816-7.202 12.816-11.502 0-4.299-1.67-11.501-12.816-11.501h-10.077c-30.739 0-46.991-13.898-46.991-40.2 0-26.303 16.663-41.734 44.581-41.734h72.842v43.815h-50.935c-7.722 0-12.158 4.039-12.158 11.063 0 7.449 4.436 11.721 12.158 11.721h20.374c36.312 0 41.734 24.769 41.734 39.543 0 15.91-6.422 42.609-49.401 42.609z" fill="url(#n)" opacity=".38"/><g filter="url(#c)"><path d="m281.203 221.455h53.454v90.916c0 42.938-22.345 66.16-64.188 66.16s-66.16-23.003-66.16-65.941v-91.135h53.454v96.393c0 7.448 4.162 11.392 12.049 11.392 7.886 0 11.391-3.944 11.391-11.392z" fill="#f7ffff"/></g><path d="m270.469 375.793c-41.487 0-63.422-21.853-63.422-63.203v-88.396h47.977v93.654c0 8.982 5.395 14.13 14.788 14.13 9.392 0 14.13-4.888 14.13-14.13v-93.654h47.977v88.177c0 41.487-21.25 63.422-61.45 63.422z" fill="url(#o)"/><path d="m334.37 320.586h-53.331c-.15 1.109-.411 2.109-.767 3.012h53.838c.096-.985.191-1.999.26-3.012z" fill="#0000c6"/><path d="m204.884 323.598h54.015c-.424-.903-.726-1.903-.904-3.012h-53.371c.082 1.013.178 2.026.273 3.012z" fill="#0000c6"/><path d="m206.184 331.951h126.666c.192-.986.383-1.999.548-3.013h-60.122c-1.041.192-2.177.302-3.451.302-1.273 0-2.368-.11-3.423-.302h-60.765c.178 1.014.356 2.027.561 3.013z" fill="#0000c6"/><path d="m208.224 339.618h122.668c.315-.986.602-1.985.876-3.012h-124.447c.287 1.027.589 2.026.903 3.012z" fill="#0000c6"/><path d="m211.346 347.422h116.52c.466-.985.904-1.985 1.315-3.012h-119.19c.424 1.027.89 2.027 1.369 3.012z" fill="#0000c6"/><path d="m215.878 355.09h107.634c.671-.972 1.314-1.972 1.931-3.012h-111.55c.63 1.04 1.301 2.04 1.985 3.012z" fill="#0000c6"/><path d="m219.63 359.746c.958 1.054 1.958 2.053 2.998 3.012h94.394c.999-.959 1.971-1.958 2.889-3.012z" fill="#0000c6"/><path d="m306.616 370.425c1.67-.931 3.259-1.93 4.792-3.012h-82.988c1.575 1.082 3.232 2.081 4.957 3.012z" fill="#0000c6"/><path d="m274.864 378.435c7.134-.287 13.651-1.301 19.552-3.012h-48.483c6.065 1.711 12.761 2.725 20.045 3.012z" fill="#0000c6"/><path d="m269.592 375.313c-41.487 0-63.421-21.852-63.421-63.202v-88.397h47.977v93.654c0 8.982 5.394 14.131 14.787 14.131s14.13-4.888 14.13-14.131v-93.654h47.978v88.178c0 41.487-21.251 63.421-61.451 63.421z" fill="url(#p)" opacity=".38"/><g filter="url(#d)"><path d="m102.878 375.683-27.6036-50.606v50.606h-53.2348v-154.228h72.5133c34.3941 0 56.0831 15.335 56.0831 49.73 0 21.688-7.011 35.709-21.469 45.567l33.08 58.931zm-14.6782-86.753c5.9149 0 8.5438-3.067 8.5438-9.201s-2.6289-8.982-8.5438-8.982h-12.9254v18.183z" fill="#f7ffff"/></g><path d="m104.507 372.945-26.8229-49.182-5.1483 1.314v47.868h-47.758v-148.751h69.7749c24.3313 0 53.3443 8.147 53.3443 46.991 0 20.388-6.257 33.751-20.278 43.308l-2.081 1.41 32.026 57.042h-53.071zm-31.9712-81.277h15.6638c5.1482 0 11.2823-2.067 11.2823-11.939 0-7.558-4.0118-11.721-11.2823-11.721h-15.6638z" fill="url(#q)"/><g fill="#0000c6"><path d="m22.0396 321.613h109.8514l-1.684-3.012h-108.1674z"/><path d="m134.588 326.405h-58.588l1.6431 3.012h58.6299z"/><path d="m75.2744 326.405h-53.2348v3.012h53.2348z"/><path d="m138.888 334.073h-58.712l1.6431 3.012h58.7669z"/><path d="m75.2744 334.073h-53.2348v3.012h53.2348z"/><path d="m75.2744 341.877h-53.2348v3.013h53.2348z"/><path d="m143.269 341.877h-58.8347l1.6431 3.013h58.8896z"/><path d="m75.2744 349.545h-53.2348v3.012h53.2348z"/><path d="m147.582 349.545h-58.9577l1.643 3.012h58.9997z"/><path d="m151.882 357.212h-59.0817l1.643 3.013h59.1227z"/><path d="m75.2744 357.212h-53.2348v3.013h53.2348z"/><path d="m156.181 364.88h-59.191l1.643 3.012h59.246z"/><path d="m75.2744 364.88h-53.2348v3.012h53.2348z"/><path d="m102.878 375.683h59.369l-1.685-2.999h-59.314z"/><path d="m75.2744 372.685h-53.2348v2.998h53.2348z"/></g><path d="m103.631 372.465-26.8231-49.182-5.1483 1.315v47.867h-47.758v-148.751h69.7749c24.3305 0 53.3445 8.147 53.3445 46.992 0 20.387-6.257 33.751-20.278 43.308l-2.068 1.41 32.026 57.041zm-31.9714-81.276h15.6638c5.1482 0 11.2823-2.067 11.2823-11.939 0-7.558-4.0118-11.721-11.2823-11.721h-15.6638z" fill="url(#n)" opacity=".38"/><g filter="url(#e)"><path d="m557.455 95.926c0-48.6343 27.603-79.7428 72.294-79.7428s72.075 31.1085 72.075 79.7428c0 48.634-27.384 79.962-72.075 79.962s-72.294-30.013-72.294-79.962zm110.413 0c0-31.1085-13.801-48.1962-38.119-48.1962-24.317 0-38.338 17.0877-38.338 48.1962 0 31.108 15.117 48.196 38.338 48.196 23.222 0 38.119-16.211 38.119-48.196z" fill="#f7ffff"/></g><path d="m651.985 173.053h-44.485c6.832 1.862 14.267 2.835 22.249 2.835 7.983 0 15.418-.973 22.236-2.835z" fill="#0000c6"/><path d="m594.396 168.015h70.651c1.808-.931 3.547-1.931 5.244-3.012h-81.153c1.685 1.081 3.437 2.081 5.258 3.012z" fill="#0000c6"/><path d="m579.061 156.951c1.054 1.055 2.15 2.054 3.286 3.013h94.708c1.123-.973 2.218-1.958 3.273-3.013z" fill="#0000c6"/><path d="m574.516 151.913h110.358c.78-.972 1.547-1.986 2.273-3.012h-114.918c.739 1.026 1.492 2.04 2.287 3.012z" fill="#0000c6"/><path d="m568.97 143.875h55.987c-4.148-.424-7.996-1.437-11.487-3.012h-46.17c.534 1.027 1.095 2.027 1.67 3.012z" fill="#0000c6"/><path d="m692.048 140.863h-46.046c-3.478 1.575-7.312 2.588-11.46 3.012h55.85c.575-.985 1.122-1.985 1.656-3.012z" fill="#0000c6"/><path d="m564.89 135.825h40.693c-1.068-.931-2.068-1.931-3.026-3.013h-38.913c.397 1.027.808 2.027 1.232 3.013z" fill="#0000c6"/><path d="m695.663 132.812h-38.831c-.944 1.082-1.944 2.082-2.998 3.013h40.61c.425-.986.836-1.986 1.233-3.013z" fill="#0000c6"/><path d="m561.932 127.774h36.928c-.589-.959-1.15-1.972-1.671-3.013h-36.133c.274 1.014.575 2.027.876 3.013z" fill="#0000c6"/><path d="m698.251 124.761h-36.093c-.52 1.041-1.068 2.054-1.656 3.012h36.872c.302-.985.603-1.999.877-3.012z" fill="#0000c6"/><path d="m559.838 119.723h35.216c-.356-.972-.685-1.972-.986-3.013h-34.833c.178 1.014.383 2.013.603 3.013z" fill="#0000c6"/><path d="m700.045 116.71h-34.806c-.301 1.041-.63 2.041-.972 3.013h35.189c.205-1 .411-1.999.589-3.013z" fill="#0000c6"/><path d="m629.749 173.149c-43.554 0-69.555-28.863-69.555-77.223 0-48.3605 26.658-77.0044 69.555-77.0044 42.898 0 69.337 29.5065 69.337 77.0044 0 47.498-25.919 77.223-69.337 77.223zm0-128.1576c-26.11 0-41.076 18.5665-41.076 50.9346 0 32.368 15.349 50.935 41.076 50.935 25.728 0 40.858-18.567 40.858-50.935 0-32.3681-14.897-50.9346-40.858-50.9346z" fill="url(#r)"/><path d="m628.873 172.67c-43.555 0-69.556-28.863-69.556-77.2234 0-48.3605 26.659-77.0043 69.556-77.0043s69.337 29.5065 69.337 77.0043c0 47.4974-25.919 77.2234-69.337 77.2234zm0-128.158c-26.111 0-41.076 18.5665-41.076 50.9346 0 32.3684 15.349 50.9344 41.076 50.9344s40.857-18.566 40.857-50.9344c0-32.3681-14.897-50.9346-40.857-50.9346z" fill="url(#s)" opacity=".38"/><g filter="url(#f)"><path d="m475.302 173.04-32.422-50.606h-29.356v50.606h-33.957v-154.228h70.98c32.642 0 53.235 14.6779 53.235 52.1395 0 24.5362-12.706 38.5565-28.041 44.9105l38.557 57.178zm-28.917-77.3332c14.459 0 22.783-6.5722 22.783-22.7837 0-16.2114-8.324-22.3455-22.564-22.3455h-33.08v45.1292z" fill="#f7ffff"/></g><g fill="#0000c6"><path d="m379.567 119.175h98.405l-2.026-3.012h-96.379z"/><path d="m481.204 123.967h-37.339l1.931 3.013h37.448z"/><path d="m413.524 123.967h-33.957v3.013h33.957z"/><path d="m486.379 131.635h-37.612l1.931 3.012h37.708z"/><path d="m413.524 131.635h-33.957v3.012h33.957z"/><path d="m491.637 139.44h-37.858l1.93 3.012h37.968z"/><path d="m413.524 139.44h-33.957v3.012h33.957z"/><path d="m496.813 147.107h-38.133l1.931 3.012h38.228z"/><path d="m413.524 147.107h-33.957v3.012h33.957z"/><path d="m501.975 154.775h-38.379l1.93 3.012h38.489z"/><path d="m413.524 154.775h-33.957v3.012h33.957z"/><path d="m507.15 162.442h-38.639l1.931 3.013h38.735z"/><path d="m413.524 162.442h-33.957v3.013h33.957z"/><path d="m475.303 173.04h38.995l-1.89-2.793h-38.899z"/><path d="m413.524 170.247h-33.957v2.793h33.957z"/></g><path d="m476.795 170.301-32.423-50.606h-33.587v50.606h-28.479v-148.7506h68.241c33.984 0 50.497 16.1567 50.497 49.4011 0 27.3705-16.513 38.3105-26.358 42.3775l-3.094 1.287 37.557 55.685zm-66.01-71.8558h35.6c16.937 0 25.522-8.5849 25.522-25.522 0-16.9372-8.517-25.084-25.303-25.084h-35.819z" fill="url(#t)"/><path d="m475.933 169.822-32.423-50.606h-33.587v50.606h-28.48v-148.751h68.242c33.984 0 50.496 16.1567 50.496 49.4011 0 27.3705-16.512 38.3109-26.357 42.3769l-3.094 1.287 37.557 55.686zm-66.024-71.8561h35.6c16.937 0 25.522-8.585 25.522-25.5221s-8.517-25.0839-25.303-25.0839h-35.819z" fill="url(#u)" opacity=".38"/><g filter="url(#g)"><path d="m281.203 18.812h34.176v90.915c0 42.939-21.688 66.161-61.998 66.161-40.309 0-63.969-23.003-63.969-65.941v-91.135h34.175v94.421c0 20.154 10.077 31.108 29.137 31.108 19.059 0 28.479-11.392 28.479-31.108z" fill="#f7ffff"/></g><path d="m189.959 120.955h34.203c-.15-.972-.26-1.985-.356-3.012h-34.12c.068 1.013.164 2.026.273 3.012z" fill="#0000c6"/><path d="m315.091 117.943h-34.12c-.096 1.027-.206 2.04-.356 3.012h34.23c.096-.986.178-1.999.26-3.012z" fill="#0000c6"/><path d="m191.096 128.787h35.188c-.397-.959-.739-1.972-1.04-3.013h-34.655c.164 1.014.329 2.027.52 3.013z" fill="#0000c6"/><path d="m314.229 125.774h-34.682c-.302 1.041-.658 2.054-1.041 3.013h35.23c.192-.986.356-1.999.506-3.013z" fill="#0000c6"/><path d="m193.067 136.619h38.229c-.89-.918-1.698-1.931-2.437-3.013h-36.654c.274 1.027.548 2.027.862 3.013z" fill="#0000c6"/><path d="m312.654 133.606h-36.736c-.739 1.082-1.547 2.082-2.423 3.013h38.324c.301-.986.575-1.986.835-3.013z" fill="#0000c6"/><path d="m196.039 144.45h112.905c.438-.985.862-1.985 1.246-3.012h-43.39c-3.93 1.89-8.627 2.903-14.09 2.903s-10.543-1-14.609-2.903h-43.363c.411 1.027.849 2.027 1.301 3.012z" fill="#0000c6"/><path d="m200.461 152.296h104.224c.644-.972 1.26-1.985 1.835-3.012h-107.962c.602 1.027 1.232 2.04 1.889 3.012z" fill="#0000c6"/><path d="m301.084 157.116h-96.885c.917 1.054 1.889 2.054 2.903 3.012h91.203c.972-.958 1.903-1.958 2.793-3.012z" fill="#0000c6"/><path d="m287.926 167.96c1.643-.917 3.204-1.931 4.697-3.012h-79.675c1.547 1.081 3.163 2.095 4.847 3.012z" fill="#0000c6"/><path d="m249.027 175.792h8.585c6.874-.288 13.158-1.301 18.854-3.012h-46.841c5.874 1.711 12.351 2.724 19.402 3.012z" fill="#0000c6"/><path d="m253.381 173.149c-40.063 0-61.231-21.852-61.231-63.202v-88.3966h28.699v91.6826c0 21.825 11.323 33.847 31.875 33.847s31.218-12.337 31.218-33.847v-91.6826h28.699v88.1776c0 41.487-20.497 63.421-59.26 63.421z" fill="url(#v)"/><path d="m251.82 172.67c-40.063 0-61.231-21.853-61.231-63.203v-88.3959h28.699v91.6819c0 21.826 11.323 33.847 31.875 33.847s31.218-12.336 31.218-33.847v-91.6819h28.699v88.1769c0 41.487-20.498 63.422-59.26 63.422z" fill="url(#w)" opacity=".38"/><g filter="url(#h)"><path d="m67.6069 173.04c-34.8327 0-51.0442-18.622-51.0442-46.225 0-21.469 10.2965-31.9845 22.5646-36.1469-10.2964-3.2861-20.5929-13.1444-20.5929-32.861s11.1728-38.9951 44.691-38.9951h65.0646v31.7656h-56.9589c-12.049 0-18.8403 4.1624-18.8403 15.3352 0 9.6392 5.6959 15.7733 18.8403 15.7733h51.0439v22.5649h-52.1392c-11.1728 0-18.6213 6.572-18.6213 17.964 0 12.925 5.915 19.059 23.0027 19.059h53.8918v31.766z" fill="#f7ffff"/></g><path d="m17.5896 115.889c-.1917.972-.356 1.985-.4929 3.012h34.7779c.1506-1.054.3697-2.068.6572-3.012h-34.9285z" fill="#0000c6"/><path d="m51.902 126.705c-.1369-.944-.2054-1.971-.2327-3.012h-34.997c-.0548.986-.0959 1.972-.0959 3.012h35.3393z" fill="#0000c6"/><path d="m17.0009 134.373h37.7354c-.6572-.917-1.1912-1.917-1.6294-3.012h-36.3798c.0684 1.013.1506 2.026.2738 3.012z" fill="#0000c6"/><path d="m18.5343 142.178h109.9887v-.904h-53.8922c-5.7233 0-10.1732-.712-13.5825-2.109h-43.2534c.2191 1.027.4656 2.027.7394 3.013z" fill="#0000c6"/><path d="m21.4233 149.845h107.0857v-3.012h-108.4138c.4108 1.027.8489 2.04 1.3281 3.012z" fill="#0000c6"/><path d="m26.4485 157.513h102.0605v-3.013h-104.3471c.712 1.041 1.4787 2.054 2.2866 3.013z" fill="#0000c6"/><path d="m128.509 165.18v-3.012h-97.3503c1.3007 1.082 2.6973 2.081 4.1761 3.012z" fill="#0000c6"/><path d="m128.509 172.985v-3.012h-82.6999c5.4084 1.725 11.5835 2.765 18.5665 3.012z" fill="#0000c6"/><path d="m67.6067 170.301c-31.1495 0-48.3057-15.444-48.3057-43.486 0-21.921 11.2549-30.3552 20.7025-33.5591l7.8729-2.67-7.9277-2.533c-5.6138-1.7937-18.6897-8.3385-18.6897-30.2595 0-10.8989 4.0939-36.2567 41.9526-36.2567h62.3264v26.2888h-54.2207c-14.3219 0-21.5787 6.0793-21.5787 18.0736 0 6.9145 2.8068 18.5117 21.5787 18.5117h48.3057v17.0882h-49.4011c-12.9801 0-21.3596 8.133-21.3596 20.702 0 15.075 7.9414 21.798 25.7411 21.798h51.1536v26.289h-58.164z" fill="url(#x)"/><path d="m66.7305 169.822c-31.1495 0-48.3057-15.445-48.3057-43.486 0-21.921 11.2549-30.3555 20.7025-33.5595l7.8729-2.6699-7.9277-2.5331c-5.6138-1.7936-18.6897-8.3384-18.6897-30.2595 0-10.8989 4.0939-36.2567 41.9526-36.2567h62.3266v26.2889h-54.2209c-14.322 0-21.5788 6.0793-21.5788 18.0735 0 6.9145 2.8069 18.5117 21.5788 18.5117h48.3059v17.0876h-49.4013c-12.9801 0-21.3597 8.133-21.3597 20.703 0 15.075 7.9415 21.797 25.7412 21.797h51.1538v26.289h-58.1642z" fill="url(#y)" opacity=".38"/></svg>