<?xml version="1.0" encoding="UTF-8"?>
<svg width="29px" height="23px" viewBox="0 0 29 23" version="1.1" xmlns="http://www.w3.org/2000/svg" xmlns:xlink="http://www.w3.org/1999/xlink">
    <title>Fill 1</title>
    <g id="Web" stroke="none" stroke-width="1" fill="none" fill-rule="evenodd">
        <g id="DT_EuroRust-'23_vs.2d" transform="translate(-279.000000, -1318.000000)" fill="#FFFFFF">
            <g id="Group-12" transform="translate(238.000000, 1300.000000)">
                <g id="Group-6" transform="translate(41.000000, 6.000000)">
                    <path d="M25.58293,15.6368743 C26.81108,14.9183012 27.754595,13.7804425 28.198875,12.4245213 C27.04917,13.0900293 25.775925,13.5731346 24.42061,13.8335077 C23.33543,12.7049884 21.78915,12 20.07786,12 C16.79216,12 14.128075,14.5996272 14.128075,17.8061783 C14.128075,18.2612652 14.18071,18.7044655 14.28221,19.1294113 C9.33742,18.8872927 4.953345,16.5756325 2.01898,13.0627184 C1.50684,13.9202515 1.21336,14.9177351 1.21336,15.9818686 C1.21336,17.9963639 2.26374,19.7735517 3.86019,20.814761 C2.88492,20.78462 1.967505,20.5233979 1.165365,20.0885465 C1.164785,20.1127443 1.164785,20.136942 1.164785,20.1615642 C1.164785,22.9747256 3.215665,25.3214795 5.93746,25.8549614 C5.438225,25.987695 4.9126,26.0587316 4.37001,26.0587316 C3.98663,26.0587316 3.613835,26.0222228 3.25061,25.9544409 C4.007655,28.2611483 6.20484,29.9399887 8.80846,29.986686 C6.772225,31.5441133 4.206885,32.4724 1.41926,32.4724 C0.93902,32.4724 0.46545,32.4448061 0,32.3911749 C2.633055,34.0386007 5.760415,35 9.120355,35 C20.06394,35 26.048525,26.1524093 26.048525,18.4794692 C26.048525,18.227728 26.04258,17.9774019 26.031125,17.7283494 C27.193735,16.9095893 28.202355,15.8870589 29,14.7225968 C27.93309,15.1844761 26.786285,15.4966407 25.58293,15.6368743 Z" id="Fill-1"></path>
                </g>
            </g>
        </g>
    </g>
</svg>