<?xml version="1.0" encoding="UTF-8" standalone="no"?>
<!DOCTYPE svg PUBLIC "-//W3C//DTD SVG 1.1//EN" "http://www.w3.org/Graphics/SVG/1.1/DTD/svg11.dtd">
<svg width="100%" height="100%" viewBox="0 0 237 30" version="1.1" xmlns="http://www.w3.org/2000/svg" xmlns:xlink="http://www.w3.org/1999/xlink" xml:space="preserve" xmlns:serif="http://www.serif.com/" style="fill-rule:evenodd;clip-rule:evenodd;stroke-linejoin:round;stroke-miterlimit:2;">
    <g transform="matrix(1,0,0,1,-0.943555,-0.359999)">
        <path d="M21.144,29L10.344,29C3.624,29 0.944,25.36 0.944,20.64C0.944,16.24 3.144,14.56 5.264,13.96C3.424,13.48 1.224,11.88 1.224,7.92C1.224,4.52 3.104,0.84 9.464,0.84L21.104,0.84L21.104,5.56L10.704,5.56C8.024,5.56 6.504,6.44 6.504,8.88C6.504,10.96 7.744,12.36 10.704,12.36L20.024,12.36L20.024,16.24L10.344,16.24C7.984,16.24 6.304,17.64 6.304,20.08C6.304,22.92 7.624,24.28 11.424,24.28L21.144,24.28L21.144,29ZM47.123,17.96L47.123,0.84L52.203,0.84L52.203,17.44C52.203,25.28 48.283,29.52 41.003,29.52C33.603,29.52 29.483,25.32 29.483,17.48L29.483,0.84L34.563,0.84L34.563,17.96C34.563,22.4 36.763,24.84 40.923,24.84C44.963,24.84 47.123,22.28 47.123,17.96ZM85.449,29L79.569,29L73.409,19.72L66.209,19.72L66.209,29L61.169,29L61.169,0.84L74.009,0.84C79.889,0.84 83.569,3.44 83.569,10.48C83.569,15.12 80.929,17.68 78.049,18.64L85.449,29ZM66.209,15.44L73.409,15.44C76.569,15.44 78.449,14.04 78.449,10.44C78.449,6.84 76.569,5.56 73.449,5.56L66.209,5.56L66.209,15.44ZM103.67,29.52C95.59,29.52 90.63,24.04 90.63,14.92C90.63,6.04 95.59,0.36 103.67,0.36C111.75,0.36 116.67,6.04 116.67,14.92C116.67,24.04 111.75,29.52 103.67,29.52ZM103.67,24.8C108.55,24.8 111.63,21.36 111.63,14.92C111.63,8.64 108.71,5.04 103.67,5.04C98.63,5.04 95.67,8.64 95.67,14.92C95.67,21.36 98.79,24.8 103.67,24.8ZM149.248,29L140.888,29L135.168,19.76L131.688,19.76L131.688,29L124.328,29L124.328,0.84L137.368,0.84C143.448,0.84 147.248,3.56 147.248,10.2C147.248,14.52 145.288,17.08 142.528,18.44L149.248,29ZM131.688,14.32L136.488,14.32C138.608,14.32 139.768,13.32 139.768,10.96C139.768,8.64 138.608,7.72 136.488,7.72L131.688,7.72L131.688,14.32ZM170.24,18.2L170.24,0.84L177.64,0.84L177.64,17.44C177.64,25.28 173.64,29.52 166.2,29.52C158.6,29.52 154.4,25.32 154.4,17.48L154.4,0.84L161.8,0.84L161.8,18.2C161.8,21.12 163.28,22.68 166.08,22.68C168.84,22.68 170.24,21.04 170.24,18.2ZM199.723,29L185.643,29L185.643,22.16L197.683,22.16C199.843,22.16 200.603,21.08 200.603,19.52C200.603,18 199.763,16.92 197.963,16.92L194.163,16.92C187.683,16.92 185.083,13.68 185.083,8.88C185.083,4.04 188.043,0.84 193.603,0.84L207.203,0.84L207.203,7.72L196.003,7.72C194.323,7.72 193.403,8.64 193.403,10.2C193.403,11.76 194.243,12.72 196.083,12.72L200.923,12.72C207.203,12.72 209.203,16.36 209.203,20.56C209.203,25.24 206.523,29 199.723,29ZM229.856,29L222.096,29L222.096,7.72L214.136,7.72L214.136,0.84L237.736,0.84L237.736,7.72L229.856,7.72L229.856,29Z" style="fill:rgb(14,16,37);fill-rule:nonzero;"/>
    </g>
</svg>
