<svg clip-rule="evenodd" fill-rule="evenodd" stroke-linejoin="round" stroke-miterlimit="2" viewBox="0 0 237 30" xmlns="http://www.w3.org/2000/svg"><path d="m21.144 29h-10.8c-6.72 0-9.4-3.64-9.4-8.36 0-4.4 2.2-6.08 4.32-6.68-1.84-.48-4.04-2.08-4.04-6.04 0-3.4 1.88-7.08 8.24-7.08h11.64v4.72h-10.4c-2.68 0-4.2.88-4.2 3.32 0 2.08 1.24 3.48 4.2 3.48h9.32v3.88h-9.68c-2.36 0-4.04 1.4-4.04 3.84 0 2.84 1.32 4.2 5.12 4.2h9.72zm25.979-11.04v-17.12h5.08v16.6c0 7.84-3.92 12.08-11.2 12.08-7.4 0-11.52-4.2-11.52-12.04v-16.64h5.08v17.12c0 4.44 2.2 6.88 6.36 6.88 4.04 0 6.2-2.56 6.2-6.88zm38.326 11.04h-5.88l-6.16-9.28h-7.2v9.28h-5.04v-28.16h12.84c5.88 0 9.56 2.6 9.56 9.64 0 4.64-2.64 7.2-5.52 8.16zm-19.24-13.56h7.2c3.16 0 5.04-1.4 5.04-5s-1.88-4.88-5-4.88h-7.24zm37.461 14.08c-8.08 0-13.04-5.48-13.04-14.6 0-8.88 4.96-14.56 13.04-14.56s13 5.68 13 14.56c0 9.12-4.92 14.6-13 14.6zm0-4.72c4.88 0 7.96-3.44 7.96-9.88 0-6.28-2.92-9.88-7.96-9.88s-8 3.6-8 9.88c0 6.44 3.12 9.88 8 9.88zm45.578 4.2h-8.36l-5.72-9.24h-3.48v9.24h-7.36v-28.16h13.04c6.08 0 9.88 2.72 9.88 9.36 0 4.32-1.96 6.88-4.72 8.24zm-17.56-14.68h4.8c2.12 0 3.28-1 3.28-3.36 0-2.32-1.16-3.24-3.28-3.24h-4.8zm38.552 3.88v-17.36h7.4v16.6c0 7.84-4 12.08-11.44 12.08-7.6 0-11.8-4.2-11.8-12.04v-16.64h7.4v17.36c0 2.92 1.48 4.48 4.28 4.48 2.76 0 4.16-1.64 4.16-4.48zm29.483 10.8h-14.08v-6.84h12.04c2.16 0 2.92-1.08 2.92-2.64 0-1.52-.84-2.6-2.64-2.6h-3.8c-6.48 0-9.08-3.24-9.08-8.04 0-4.84 2.96-8.04 8.52-8.04h13.6v6.88h-11.2c-1.68 0-2.6.92-2.6 2.48s.84 2.52 2.68 2.52h4.84c6.28 0 8.28 3.64 8.28 7.84 0 4.68-2.68 8.44-9.48 8.44zm30.133 0h-7.76v-21.28h-7.96v-6.88h23.6v6.88h-7.88z" fill="#0e1025" fill-rule="nonzero" transform="translate(-.943555 -.359999)"/></svg>