<svg width="402" height="402" viewBox="0 0 402 402" fill="none" xmlns="http://www.w3.org/2000/svg">
<path d="M328.845 324.619C323.516 326.348 318.151 326.64 312.749 325.493C307.347 324.346 302.59 321.902 298.476 318.162L284.702 322.632L281.509 312.793L291.84 309.441C291.062 307.881 290.386 306.288 289.813 304.661C289.24 303.035 288.687 301.402 288.155 299.762L278.317 302.954L275.124 293.116L284.963 289.923C284.431 288.283 283.919 286.637 283.428 284.984C282.937 283.331 282.548 281.644 282.262 279.925L271.931 283.277L268.739 273.438L282.513 268.969C283.049 266.711 283.768 264.529 284.671 262.423C285.573 260.318 286.768 258.344 288.255 256.503L277.75 250.94L282.402 241.818L296.411 248.962C298.467 247.48 300.684 246.352 303.062 245.581C305.439 244.809 307.896 244.42 310.431 244.413L317.821 230.324L326.943 234.977L321.46 245.728C323.745 246.345 325.905 247.208 327.941 248.314C329.976 249.421 331.887 250.772 333.674 252.367L347.448 247.897L350.641 257.736L340.31 261.088C341.088 262.648 341.764 264.241 342.337 265.868C342.91 267.494 343.462 269.127 343.995 270.767L353.833 267.575L357.026 277.413L347.187 280.606C347.719 282.246 348.231 283.892 348.722 285.545C349.213 287.198 349.602 288.885 349.888 290.604L360.218 287.252L363.411 297.091L349.637 301.56C348.503 307.003 346.087 311.774 342.388 315.875C338.689 319.975 334.175 322.89 328.845 324.619ZM311.025 303.215L330.702 296.83L327.51 286.991L307.833 293.376L311.025 303.215ZM304.64 283.538L324.317 277.153L321.125 267.314L301.447 273.699L304.64 283.538Z" fill="#200E46"/>
<path d="M328.199 322.351C322.787 323.801 317.414 323.813 312.079 322.387C306.744 320.961 302.12 318.274 298.206 314.325L284.219 318.073L281.542 308.082L292.032 305.271C291.336 303.672 290.745 302.046 290.257 300.392C289.769 298.738 289.302 297.079 288.856 295.413L278.864 298.09L276.187 288.099L286.179 285.422C285.732 283.757 285.307 282.086 284.902 280.41C284.498 278.733 284.197 277.029 284.001 275.297L273.51 278.108L270.833 268.117L284.821 264.369C285.473 262.141 286.305 260 287.316 257.944C288.327 255.889 289.622 253.98 291.203 252.218L281.001 246.117L286.121 237.249L299.739 245.112C301.87 243.738 304.142 242.727 306.557 242.08C308.972 241.433 311.445 241.172 313.977 241.297L322.089 227.611L330.957 232.731L324.923 243.183C327.173 243.918 329.285 244.892 331.261 246.102C333.236 247.313 335.074 248.762 336.775 250.448L350.763 246.7L353.44 256.691L342.949 259.502C343.645 261.1 344.237 262.726 344.725 264.38C345.213 266.034 345.68 267.694 346.126 269.359L356.117 266.682L358.794 276.673L348.803 279.35C349.249 281.016 349.675 282.686 350.079 284.363C350.484 286.039 350.784 287.743 350.981 289.476L361.472 286.665L364.149 296.656L350.161 300.404C348.746 305.78 346.085 310.42 342.178 314.322C338.271 318.225 333.611 320.901 328.199 322.351ZM311.515 300.05L331.498 294.696L328.821 284.705L308.838 290.059L311.515 300.05ZM306.161 280.068L326.144 274.714L323.466 264.722L303.484 270.077L306.161 280.068Z" fill="#0089E5"/>
<path d="M73.6087 282.279C62.8674 273.338 55.1121 262.407 50.3425 249.485C45.5729 236.562 44.3956 223.273 46.8107 209.618L19.0488 186.508L35.5554 166.679L56.3768 184.01C58.6321 180.293 61.094 176.747 63.7625 173.373C66.431 170 69.1407 166.66 71.8918 163.355L52.0619 146.849L68.5685 127.019L88.3984 143.525C91.1495 140.22 93.9419 136.95 96.7756 133.714C99.6093 130.477 102.65 127.413 105.896 124.521L85.075 107.189L101.582 87.3589L129.343 110.468C134.821 108.593 140.381 107.207 146.024 106.309C151.667 105.411 157.42 105.305 163.284 105.99L161.038 76.4249L186.474 74.0986L190.046 113.16C195.911 115.525 201.24 118.701 206.032 122.69C210.824 126.679 214.915 131.343 218.304 136.682L257.861 133.522L260.188 158.958L230.21 161.699C231.948 167.342 233.004 173.047 233.378 178.814C233.753 184.581 233.447 190.41 232.459 196.302L260.221 219.411L243.714 239.241L222.893 221.909C220.638 225.627 218.176 229.173 215.507 232.546C212.839 235.92 210.129 239.26 207.378 242.565L227.208 259.071L210.701 278.901L190.871 262.394C188.12 265.699 185.328 268.97 182.494 272.206C179.66 275.442 176.62 278.507 173.373 281.399L194.195 298.731L177.688 318.561L149.926 295.452C136.935 300.304 123.653 301.557 110.08 299.211C96.507 296.864 84.3499 291.221 73.6087 282.279ZM95.0451 216.198L134.705 249.211L151.211 229.381L111.552 196.368L95.0451 216.198ZM128.058 176.538L167.718 209.551L184.225 189.722L144.565 156.708L128.058 176.538Z" fill="#200E46"/>
<path d="M76.0109 269.062C66.1287 259.18 59.4012 247.588 55.8284 234.285C52.2556 220.982 52.2937 207.641 55.9425 194.262L30.4008 168.72L48.6448 150.476L67.8011 169.632C70.3857 166.135 73.1603 162.829 76.125 159.712C79.0896 156.595 82.0923 153.517 85.133 150.476L66.8889 132.232L85.133 113.988L103.377 132.232C106.418 129.191 109.496 126.189 112.613 123.224C115.73 120.259 119.036 117.485 122.533 114.9L103.377 95.7438L121.621 77.4998L147.163 103.041C152.788 101.673 158.451 100.799 164.153 100.419C169.854 100.039 175.593 100.457 181.37 101.673L181.826 72.0266L207.368 72.0266V111.251C212.993 114.14 218.01 117.789 222.419 122.198C226.828 126.607 230.477 131.624 233.366 137.249L273.047 137.705L273.047 163.247L242.944 163.247C244.16 169.024 244.692 174.801 244.54 180.579C244.388 186.356 243.552 192.133 242.032 197.911L267.574 223.452L249.329 241.696L230.173 222.54C227.589 226.037 224.814 229.344 221.849 232.46C218.885 235.577 215.882 238.656 212.841 241.696L231.085 259.94L212.841 278.184L194.597 259.94C191.557 262.981 188.478 265.984 185.361 268.948C182.245 271.913 178.938 274.688 175.441 277.272L194.597 296.428L176.353 314.672L150.812 289.131C137.433 292.78 124.092 292.818 110.789 289.245C97.4857 285.672 85.8931 278.945 76.0109 269.062ZM103.377 205.208L139.865 241.696L158.109 223.452L121.621 186.964L103.377 205.208ZM139.865 168.72L176.353 205.208L194.597 186.964L158.109 150.476L139.865 168.72Z" fill="#0089E5"/>
</svg>
