<svg width="327" height="327" viewBox="0 0 327 327" fill="none" xmlns="http://www.w3.org/2000/svg">
<mask id="mask0_38_403" style="mask-type:alpha" maskUnits="userSpaceOnUse" x="0" y="0" width="327" height="327">
<rect width="327" height="327" fill="#D9D9D9"/>
</mask>
<g mask="url(#mask0_38_403)">
<path d="M39.6371 257.262C32.3987 255.323 26.8928 251.085 23.1193 244.549C19.3459 238.013 18.4289 231.126 20.3685 223.888L69.7382 39.6374C71.6777 32.399 75.9154 26.8931 82.4512 23.1196C88.987 19.3462 95.8741 18.4292 103.112 20.3687L287.363 69.7385C294.601 71.678 300.107 75.9157 303.881 82.4515C307.654 88.9873 308.571 95.8744 306.632 103.113L257.262 287.363C255.322 294.602 251.085 300.107 244.549 303.881C238.013 307.654 231.126 308.571 223.887 306.632L39.6371 257.262Z" fill="url(#paint0_linear_38_403)"/>
<path d="M310.401 70.0824C317.448 72.6319 322.572 77.3236 325.775 84.1573C328.977 90.991 329.304 97.9311 326.754 104.978L261.857 284.349C259.307 291.395 254.616 296.52 247.782 299.722C240.948 302.925 234.008 303.252 226.962 300.702L47.5907 235.805C40.544 233.255 35.4196 228.564 32.2171 221.73C29.0146 214.896 28.6878 207.956 31.2373 200.909L96.1346 21.5385C98.6841 14.4918 103.376 9.36739 110.21 6.16485C117.043 2.96231 123.983 2.63556 131.03 5.1851L310.401 70.0824ZM102.123 125.13L131.559 187.942L156.101 176.175L138.317 138.226L176.266 120.441L164.934 95.6945L102.123 125.13ZM201.89 129.712L219.675 167.661L181.726 185.446L193.057 210.193L255.869 180.757L226.433 117.945L201.89 129.712Z" fill="url(#paint1_linear_38_403)"/>
<path d="M310.401 70.0824C317.448 72.6319 322.572 77.3236 325.775 84.1573C328.977 90.991 329.304 97.9311 326.754 104.978L261.857 284.349C259.307 291.395 254.616 296.52 247.782 299.722C240.948 302.925 234.008 303.252 226.962 300.702L47.5907 235.805C40.544 233.255 35.4196 228.564 32.2171 221.73C29.0146 214.896 28.6878 207.956 31.2373 200.909L96.1346 21.5385C98.6841 14.4918 103.376 9.36739 110.21 6.16485C117.043 2.96231 123.983 2.63556 131.03 5.1851L310.401 70.0824ZM102.123 125.13L131.559 187.942L156.101 176.175L138.317 138.226L176.266 120.441L164.934 95.6945L102.123 125.13ZM201.89 129.712L219.675 167.661L181.726 185.446L193.057 210.193L255.869 180.757L226.433 117.945L201.89 129.712Z" stroke="black"/>
</g>
<defs>
<linearGradient id="paint0_linear_38_403" x1="195.238" y1="45.0536" x2="131.762" y2="281.947" gradientUnits="userSpaceOnUse">
<stop stop-color="#5C0B80"/>
<stop offset="1" stop-color="#38001E"/>
</linearGradient>
<linearGradient id="paint1_linear_38_403" x1="220.715" y1="37.6337" x2="137.276" y2="268.253" gradientUnits="userSpaceOnUse">
<stop stop-color="#A509BA"/>
<stop offset="1" stop-color="#5C0B80"/>
</linearGradient>
</defs>
</svg>
