<svg width="268" height="268" viewBox="0 0 268 268" fill="none" xmlns="http://www.w3.org/2000/svg">
<mask id="mask0_56_5967" style="mask-type:alpha" maskUnits="userSpaceOnUse" x="0" y="0" width="268" height="268">
<rect width="267.841" height="267.841" fill="#D9D9D9"/>
</mask>
<g mask="url(#mask0_56_5967)">
<path d="M87.4806 241.961C74.3959 237.174 67.2982 229.883 66.1876 220.087C65.6847 215.652 66.5583 211.388 68.8086 207.295C71.0589 203.202 74.4295 199.498 78.9204 196.18L98.2401 210.557C96.6605 211.484 94.9529 212.52 93.1171 213.664C91.2813 214.809 89.8823 216.09 88.92 217.51C91.6579 220.194 97.4958 222.153 106.434 223.386C115.371 224.619 124.553 224.701 133.979 223.632C143.405 222.564 152.381 220.423 160.908 217.21C169.436 213.997 174.733 210.775 176.8 207.546C175.339 206.214 173.539 205.201 171.402 204.508C169.264 203.814 167.229 203.202 165.297 202.673L180.599 184.09C186.109 186.461 190.465 189.383 193.667 192.857C196.869 196.332 198.732 200.379 199.256 205C200.366 214.795 195.081 223.49 183.4 231.086C171.72 238.681 156.084 243.589 136.493 245.81C116.903 248.032 100.565 246.749 87.4806 241.961ZM132.722 212.543C104.483 196.277 82.9147 179.816 68.0164 163.161C53.1181 146.505 44.684 129.491 42.7143 112.118C41.2265 98.9959 42.2784 87.2239 45.8702 76.8019C49.4619 66.3798 54.5769 57.423 61.2152 49.9314C67.8535 42.4398 75.6045 36.5068 84.4681 32.1323C93.3318 27.7579 102.292 25.0573 111.348 24.0305C120.404 23.0037 129.741 23.6298 139.359 25.9087C148.977 28.1877 157.859 32.2348 166.006 38.05C174.153 43.8652 181.144 51.4495 186.978 60.8028C192.812 70.1561 196.472 81.3938 197.96 94.5158C199.93 111.889 195.519 130.359 184.728 149.928C173.937 169.496 156.601 190.368 132.722 212.543ZM122.663 123.831C128.762 123.14 133.737 120.376 137.588 115.541C141.439 110.705 143.018 105.238 142.327 99.1389C141.635 93.04 138.872 88.0651 134.036 84.2144C129.2 80.3636 123.733 78.784 117.634 79.4755C111.535 80.167 106.56 82.9306 102.71 87.7662C98.8588 92.6018 97.2791 98.0691 97.9707 104.168C98.6622 110.267 101.426 115.242 106.261 119.093C111.097 122.943 116.564 124.523 122.663 123.831Z" fill="#200E46"/>
<path d="M85.6534 236.175C73.1914 229.944 66.9603 221.899 66.9603 212.041C66.9603 207.577 68.3088 203.439 71.0059 199.626C73.7029 195.813 77.4694 192.511 82.3054 189.721L99.8825 206.182C98.2085 206.926 96.395 207.763 94.442 208.693C92.489 209.623 90.9544 210.739 89.8384 212.041C92.2565 215.017 97.8365 217.621 106.579 219.853C115.321 222.085 124.435 223.201 133.921 223.201C143.407 223.201 152.567 222.085 161.402 219.853C170.237 217.621 175.864 215.017 178.282 212.041C176.98 210.553 175.306 209.344 173.26 208.414C171.214 207.484 169.261 206.647 167.401 205.903L184.699 189.163C189.907 192.139 193.906 195.534 196.696 199.347C199.486 203.16 200.881 207.391 200.881 212.041C200.881 221.899 194.65 229.944 182.188 236.175C169.726 242.406 153.637 245.521 133.921 245.521C114.205 245.521 98.1155 242.406 85.6534 236.175ZM133.921 212.041C107.695 192.697 88.1179 173.911 75.1909 155.683C62.2638 137.455 55.8003 119.599 55.8003 102.115C55.8003 88.9086 58.1718 77.3301 62.9148 67.379C67.6578 57.428 73.7494 49.1044 81.1894 42.4084C88.6294 35.7124 96.9995 30.6903 106.3 27.3423C115.6 23.9943 124.807 22.3203 133.921 22.3203C143.035 22.3203 152.242 23.9943 161.542 27.3423C170.842 30.6903 179.212 35.7124 186.652 42.4084C194.092 49.1044 200.183 57.428 204.926 67.379C209.669 77.3301 212.041 88.9086 212.041 102.115C212.041 119.599 205.577 137.455 192.65 155.683C179.723 173.911 160.147 192.697 133.921 212.041ZM133.921 122.761C140.059 122.761 145.313 120.575 149.684 116.204C154.055 111.833 156.241 106.579 156.241 100.441C156.241 94.3026 154.055 89.0481 149.684 84.6771C145.313 80.3061 140.059 78.1206 133.921 78.1206C127.783 78.1206 122.528 80.3061 118.157 84.6771C113.786 89.0481 111.601 94.3026 111.601 100.441C111.601 106.579 113.786 111.833 118.157 116.204C122.528 120.575 127.783 122.761 133.921 122.761Z" fill="url(#paint0_linear_56_5967)"/>
</g>
<defs>
<linearGradient id="paint0_linear_56_5967" x1="133.921" y1="22.3203" x2="133.921" y2="245.521" gradientUnits="userSpaceOnUse">
<stop stop-color="#A509BA"/>
<stop offset="1" stop-color="#5C0B80"/>
</linearGradient>
</defs>
</svg>
