<svg width="215" height="29" viewBox="0 0 215 29" fill="none" xmlns="http://www.w3.org/2000/svg">
<path d="M8.64945 28.4807C7.05508 28.4807 5.59358 28.1345 4.26494 27.4421C2.96287 26.7498 1.92653 25.8044 1.15592 24.6061C0.385306 23.3811 0 21.9697 0 20.3719C0 19.1203 0.279015 17.9486 0.837044 16.8567C1.42165 15.7383 2.21883 14.8062 3.2286 14.0606C2.35169 13.3682 1.64751 12.5294 1.11606 11.5441C0.584602 10.5321 0.318874 9.49357 0.318874 8.42837C0.318874 6.85721 0.690893 5.48577 1.43493 4.31405C2.20554 3.1157 3.2286 2.18366 4.50409 1.51791C5.80616 0.852159 7.2278 0.519284 8.76903 0.519284H21.1652V7.26997H10.6823C10.2571 7.26997 9.8718 7.34986 9.52635 7.50964C9.18091 7.64279 8.90189 7.85583 8.68931 8.14876C8.5033 8.41506 8.41029 8.76125 8.41029 9.18733C8.41029 9.58678 8.5033 9.93297 8.68931 10.2259C8.90189 10.4922 9.18091 10.7052 9.52635 10.865C9.8718 10.9982 10.2571 11.0647 10.6823 11.0647H19.7702V17.7755H10.7221C10.2704 17.7755 9.8718 17.8554 9.52635 18.0152C9.18091 18.1749 8.90189 18.4013 8.68931 18.6942C8.5033 18.9871 8.41029 19.3466 8.41029 19.7727C8.41029 20.1722 8.5033 20.5184 8.68931 20.8113C8.90189 21.1042 9.18091 21.3306 9.52635 21.4904C9.8718 21.6235 10.2704 21.6901 10.7221 21.6901H21.1652V28.4807H8.64945Z" fill="white"/>
<path d="M36.7782 28.9601C34.3335 28.9601 32.1678 28.494 30.2812 27.562C28.4211 26.6033 26.9596 25.2452 25.8967 23.4876C24.8337 21.73 24.3023 19.6529 24.3023 17.2562V0.519284H32.7524V17.6157C32.7524 18.4679 32.9119 19.2401 33.2308 19.9325C33.5762 20.5983 34.0412 21.1175 34.6258 21.4904C35.237 21.8632 35.9412 22.0496 36.7384 22.0496C37.5621 22.0496 38.2663 21.8632 38.8509 21.4904C39.4355 21.1175 39.8872 20.5983 40.2061 19.9325C40.5516 19.2401 40.7243 18.4679 40.7243 17.6157V0.519284H49.1744V17.2562C49.1744 19.6529 48.643 21.73 47.5801 23.4876C46.5172 25.2452 45.0557 26.6033 43.1956 27.562C41.3355 28.494 39.1964 28.9601 36.7782 28.9601Z" fill="white"/>
<path d="M52.6017 28.4807V0.519284H65.835C67.8545 0.519284 69.688 0.945363 71.3355 1.79752C72.9831 2.64968 74.2984 3.83471 75.2816 5.35262C76.2648 6.84389 76.7564 8.57484 76.7564 10.5455C76.7564 12.1699 76.3578 13.7011 75.5606 15.1391C74.79 16.5505 73.7537 17.7222 72.4516 18.6543L74.0061 21.0909C74.1921 21.3572 74.3914 21.5569 74.604 21.6901C74.8166 21.8232 75.1355 21.8898 75.5606 21.8898H77.5536V28.4807H73.0893C71.681 28.4807 70.4188 28.1745 69.3027 27.562C68.2132 26.9495 67.3762 26.1506 66.7916 25.1653L64.121 20.6515C64.0147 20.6515 63.9084 20.6515 63.8022 20.6515C63.6959 20.6515 63.5896 20.6515 63.4833 20.6515H61.2113V28.4807H52.6017ZM61.2113 14.0606H64.9581C65.4895 14.0606 65.9944 13.9275 66.4727 13.6612C66.951 13.3682 67.3363 12.9688 67.6286 12.4628C67.9209 11.9302 68.0671 11.3177 68.0671 10.6253C68.0671 9.93297 67.9209 9.34711 67.6286 8.86777C67.3363 8.3618 66.951 7.97567 66.4727 7.70937C65.9944 7.41644 65.4895 7.26997 64.9581 7.26997H61.2113V14.0606Z" fill="white"/>
<path d="M94.2773 29C92.0718 29 90.039 28.6405 88.1789 27.9215C86.3453 27.2025 84.751 26.1905 83.3958 24.8857C82.0671 23.5542 81.0308 22.0096 80.2867 20.2521C79.5427 18.4945 79.1707 16.5771 79.1707 14.5C79.1707 12.4229 79.5427 10.5055 80.2867 8.74793C81.0308 6.96373 82.0671 5.41919 83.3958 4.11433C84.751 2.80946 86.3453 1.79752 88.1789 1.07851C90.039 0.359504 92.0718 0 94.2773 0C96.4829 0 98.5024 0.359504 100.336 1.07851C102.196 1.79752 103.79 2.80946 105.119 4.11433C106.474 5.41919 107.524 6.96373 108.268 8.74793C109.012 10.5055 109.384 12.4229 109.384 14.5C109.384 16.5771 109.012 18.4945 108.268 20.2521C107.524 22.0096 106.474 23.5542 105.119 24.8857C103.79 26.1905 102.196 27.2025 100.336 27.9215C98.5024 28.6405 96.4829 29 94.2773 29ZM94.2773 22.0496C95.2605 22.0496 96.1507 21.8632 96.9479 21.4904C97.7451 21.0909 98.4227 20.545 98.9807 19.8526C99.5387 19.1602 99.9639 18.3613 100.256 17.4559C100.549 16.5239 100.695 15.5386 100.695 14.5C100.695 13.4614 100.549 12.4894 100.256 11.584C99.9639 10.652 99.5387 9.83976 98.9807 9.14738C98.4227 8.455 97.7451 7.92241 96.9479 7.54959C96.1507 7.15014 95.2605 6.95041 94.2773 6.95041C93.2941 6.95041 92.4039 7.15014 91.6068 7.54959C90.8096 7.92241 90.132 8.455 89.5739 9.14738C89.0159 9.83976 88.5907 10.652 88.2984 11.584C88.0061 12.4894 87.86 13.4614 87.86 14.5C87.86 15.5386 88.0061 16.5239 88.2984 17.4559C88.5907 18.3613 89.0159 19.1602 89.5739 19.8526C90.132 20.545 90.8096 21.0909 91.6068 21.4904C92.4039 21.8632 93.2941 22.0496 94.2773 22.0496Z" fill="white"/>
<path d="M112.157 28.4807V0.519284H125.39C127.41 0.519284 129.243 0.945363 130.891 1.79752C132.538 2.64968 133.854 3.83471 134.837 5.35262C135.82 6.84389 136.312 8.57484 136.312 10.5455C136.312 12.1699 135.913 13.7011 135.116 15.1391C134.345 16.5505 133.309 17.7222 132.007 18.6543L133.561 21.0909C133.747 21.3572 133.947 21.5569 134.159 21.6901C134.372 21.8232 134.691 21.8898 135.116 21.8898H137.109V28.4807H132.645C131.236 28.4807 129.974 28.1745 128.858 27.562C127.769 26.9495 126.931 26.1506 126.347 25.1653L123.676 20.6515C123.57 20.6515 123.464 20.6515 123.357 20.6515C123.251 20.6515 123.145 20.6515 123.039 20.6515H120.767V28.4807H112.157ZM120.767 14.0606H124.513C125.045 14.0606 125.55 13.9275 126.028 13.6612C126.506 13.3682 126.892 12.9688 127.184 12.4628C127.476 11.9302 127.622 11.3177 127.622 10.6253C127.622 9.93297 127.476 9.34711 127.184 8.86777C126.892 8.3618 126.506 7.97567 126.028 7.70937C125.55 7.41644 125.045 7.26997 124.513 7.26997H120.767V14.0606Z" fill="white"/>
<path d="M151.88 28.9601C149.435 28.9601 147.269 28.494 145.382 27.562C143.522 26.6033 142.061 25.2452 140.998 23.4876C139.935 21.73 139.404 19.6529 139.404 17.2562V0.519284H147.854V17.6157C147.854 18.4679 148.013 19.2401 148.332 19.9325C148.677 20.5983 149.142 21.1175 149.727 21.4904C150.338 21.8632 151.042 22.0496 151.84 22.0496C152.663 22.0496 153.368 21.8632 153.952 21.4904C154.537 21.1175 154.989 20.5983 155.307 19.9325C155.653 19.2401 155.826 18.4679 155.826 17.6157V0.519284H164.276V17.2562C164.276 19.6529 163.744 21.73 162.681 23.4876C161.618 25.2452 160.157 26.6033 158.297 27.562C156.437 28.494 154.298 28.9601 151.88 28.9601Z" fill="white"/>
<path d="M168.181 28.4807V21.73H180.019C180.471 21.73 180.843 21.6368 181.136 21.4504C181.454 21.264 181.694 21.0243 181.853 20.7314C182.039 20.4118 182.132 20.079 182.132 19.7328C182.132 19.36 182.039 19.0271 181.853 18.7342C181.694 18.4146 181.454 18.1616 181.136 17.9752C180.843 17.7888 180.471 17.6956 180.019 17.6956H176.432C174.705 17.6956 173.137 17.3627 171.729 16.697C170.32 16.0312 169.191 15.0725 168.341 13.8209C167.517 12.5427 167.105 11.0115 167.105 9.22727C167.105 7.4697 167.504 5.93848 168.301 4.63361C169.098 3.32874 170.174 2.31681 171.529 1.5978C172.885 0.878788 174.386 0.519284 176.034 0.519284H188.749V7.26997H177.189C176.817 7.26997 176.485 7.34986 176.193 7.50964C175.927 7.66942 175.715 7.88246 175.555 8.14876C175.422 8.41506 175.356 8.70799 175.356 9.02755C175.356 9.34711 175.422 9.64004 175.555 9.90634C175.715 10.1726 175.927 10.399 176.193 10.5854C176.485 10.7452 176.817 10.8251 177.189 10.8251H181.056C182.942 10.8251 184.59 11.1846 185.998 11.9036C187.407 12.596 188.496 13.568 189.267 14.8196C190.037 16.0712 190.423 17.5491 190.423 19.2534C190.423 21.1974 190.011 22.8618 189.187 24.2466C188.39 25.6313 187.314 26.6832 185.958 27.4022C184.603 28.1212 183.102 28.4807 181.454 28.4807H168.181Z" fill="white"/>
<path d="M208.543 28.4807C206.762 28.4807 205.181 28.1079 203.8 27.3623C202.418 26.59 201.328 25.5514 200.531 24.2466C199.734 22.9151 199.335 21.4105 199.335 19.7328V7.26997H192.121V0.519284H215V7.26997H207.945V20.1722C207.945 20.5983 208.091 20.9711 208.383 21.2906C208.676 21.5836 209.034 21.73 209.46 21.73H212.13V28.4807H208.543Z" fill="white"/>
</svg>
