<svg width="549" height="306" viewBox="0 0 549 306" fill="none" xmlns="http://www.w3.org/2000/svg">
<mask id="path-1-outside-1_67_1656" maskUnits="userSpaceOnUse" x="4.92578" y="0" width="539" height="306" fill="black">
<rect fill="white" x="4.92578" width="539" height="306"/>
<path d="M51.756 142.94C44.0454 142.94 36.9773 141.263 30.5518 137.91C24.2547 134.556 19.2428 129.978 15.516 124.174C11.7892 118.241 9.92578 111.405 9.92578 103.667C9.92578 97.6048 11.2751 91.9299 13.9739 86.6418C16.8011 81.2248 20.6564 76.7107 25.5398 73.0994C21.299 69.746 17.8934 65.6832 15.3232 60.9111C12.753 56.01 11.4679 50.98 11.4679 45.8209C11.4679 38.2113 13.2671 31.5691 16.8654 25.8941C20.5922 20.0902 25.5398 15.576 31.7084 12.3516C38.0054 9.12724 44.8807 7.51503 52.3343 7.51503H112.285V40.2105H61.5871C59.5309 40.2105 57.6675 40.5974 55.9969 41.3712C54.3263 42.0161 52.9769 43.0479 51.9488 44.4667C51.0492 45.7564 50.5994 47.4331 50.5994 49.4967C50.5994 51.4314 51.0492 53.1081 51.9488 54.5268C52.9769 55.8166 54.3263 56.8484 55.9969 57.6222C57.6675 58.2671 59.5309 58.5896 61.5871 58.5896H105.538V91.0915H61.7799C59.5952 91.0915 57.6675 91.4784 55.9969 92.2523C54.3263 93.0262 52.9769 94.1225 51.9488 95.5412C51.0492 96.9599 50.5994 98.7011 50.5994 100.765C50.5994 102.699 51.0492 104.376 51.9488 105.795C52.9769 107.214 54.3263 108.31 55.9969 109.084C57.6675 109.729 59.5952 110.051 61.7799 110.051H112.285V142.94H51.756Z"/>
<path d="M187.792 145.261C175.969 145.261 165.495 143.004 156.371 138.49C147.375 133.847 140.307 127.269 135.167 118.757C130.026 110.244 127.456 100.184 127.456 88.5765V7.51503H168.322V90.3177C168.322 94.4449 169.093 98.1852 170.636 101.539C172.306 104.763 174.555 107.278 177.382 109.084C180.338 110.889 183.744 111.792 187.599 111.792C191.583 111.792 194.988 110.889 197.816 109.084C200.643 107.278 202.827 104.763 204.37 101.539C206.04 98.1852 206.876 94.4449 206.876 90.3177V7.51503H247.742V88.5765C247.742 100.184 245.172 110.244 240.031 118.757C234.891 127.269 227.823 133.847 218.827 138.49C209.831 143.004 199.486 145.261 187.792 145.261Z"/>
<path d="M264.317 142.94V7.51503H328.315C338.082 7.51503 346.949 9.57865 354.917 13.7059C362.885 17.8331 369.246 23.5726 374.001 30.9242C378.756 38.1469 381.133 46.5303 381.133 56.0745C381.133 63.9421 379.205 71.3582 375.35 78.3229C371.623 85.1586 366.611 90.8336 360.314 95.3477L367.832 107.149C368.732 108.439 369.696 109.406 370.724 110.051C371.752 110.696 373.294 111.018 375.35 111.018H384.988V142.94H363.399C356.588 142.94 350.483 141.457 345.086 138.49C339.817 135.524 335.769 131.654 332.942 126.882L320.026 105.021C319.512 105.021 318.998 105.021 318.484 105.021C317.97 105.021 317.456 105.021 316.942 105.021H305.954V142.94H264.317ZM305.954 73.0994H324.074C326.645 73.0994 329.086 72.4545 331.399 71.1647C333.713 69.746 335.576 67.8113 336.99 65.3608C338.403 62.7813 339.11 59.8148 339.11 56.4614C339.11 53.1081 338.403 50.2706 336.99 47.949C335.576 45.4985 333.713 43.6283 331.399 42.3386C329.086 40.9198 326.645 40.2105 324.074 40.2105H305.954V73.0994Z"/>
<path d="M465.867 145.455C455.201 145.455 445.37 143.714 436.374 140.231C427.507 136.749 419.796 131.848 413.242 125.528C406.817 119.079 401.805 111.599 398.206 103.086C394.608 94.5739 392.809 85.2876 392.809 75.2275C392.809 65.1673 394.608 55.8811 398.206 47.3686C401.805 38.7272 406.817 31.2466 413.242 24.9268C419.796 18.607 427.507 13.7059 436.374 10.2235C445.37 6.74118 455.201 5 465.867 5C476.534 5 486.301 6.74118 495.168 10.2235C504.164 13.7059 511.874 18.607 518.3 24.9268C524.854 31.2466 529.93 38.7272 533.528 47.3686C537.127 55.8811 538.926 65.1673 538.926 75.2275C538.926 85.2876 537.127 94.5739 533.528 103.086C529.93 111.599 524.854 119.079 518.3 125.528C511.874 131.848 504.164 136.749 495.168 140.231C486.301 143.714 476.534 145.455 465.867 145.455ZM465.867 111.792C470.622 111.792 474.927 110.889 478.783 109.084C482.638 107.149 485.915 104.505 488.614 101.152C491.313 97.7983 493.369 93.929 494.782 89.5438C496.196 85.0296 496.903 80.2575 496.903 75.2275C496.903 70.1974 496.196 65.4898 494.782 61.1046C493.369 56.5904 491.313 52.6567 488.614 49.3033C485.915 45.9499 482.638 43.3704 478.783 41.5647C474.927 39.6301 470.622 38.6627 465.867 38.6627C461.113 38.6627 456.807 39.6301 452.952 41.5647C449.097 43.3704 445.82 45.9499 443.121 49.3033C440.422 52.6567 438.366 56.5904 436.952 61.1046C435.539 65.4898 434.832 70.1974 434.832 75.2275C434.832 80.2575 435.539 85.0296 436.952 89.5438C438.366 93.929 440.422 97.7983 443.121 101.152C445.82 104.505 449.097 107.149 452.952 109.084C456.807 110.889 461.113 111.792 465.867 111.792Z"/>
<path d="M12.8173 298.678V163.254H76.8156C86.5825 163.254 95.4497 165.317 103.417 169.444C111.385 173.572 117.746 179.311 122.501 186.663C127.256 193.885 129.634 202.269 129.634 211.813C129.634 219.681 127.706 227.097 123.851 234.061C120.124 240.897 115.112 246.572 108.815 251.086L116.333 262.888C117.232 264.177 118.196 265.145 119.224 265.79C120.252 266.434 121.794 266.757 123.851 266.757H133.489V298.678H111.899C105.088 298.678 98.9837 297.195 93.5863 294.229C88.3173 291.262 84.2693 287.393 81.442 282.621L68.5267 260.76C68.0126 260.76 67.4986 260.76 66.9846 260.76C66.4705 260.76 65.9565 260.76 65.4424 260.76H54.4548V298.678H12.8173ZM54.4548 228.838H72.5748C75.145 228.838 77.5867 228.193 79.8999 226.903C82.2131 225.485 84.0765 223.55 85.4901 221.099C86.9037 218.52 87.6105 215.553 87.6105 212.2C87.6105 208.847 86.9037 206.009 85.4901 203.688C84.0765 201.237 82.2131 199.367 79.8999 198.077C77.5867 196.658 75.145 195.949 72.5748 195.949H54.4548V228.838Z"/>
<path d="M204.922 301C193.099 301 182.626 298.743 173.501 294.229C164.506 289.586 157.438 283.008 152.297 274.495C147.157 265.983 144.586 255.923 144.586 244.315V163.254H185.453V246.056C185.453 250.183 186.224 253.924 187.766 257.277C189.437 260.502 191.686 263.017 194.513 264.822C197.469 266.628 200.874 267.531 204.73 267.531C208.713 267.531 212.119 266.628 214.946 264.822C217.773 263.017 219.958 260.502 221.5 257.277C223.171 253.924 224.006 250.183 224.006 246.056V163.254H264.873V244.315C264.873 255.923 262.302 265.983 257.162 274.495C252.021 283.008 244.953 289.586 235.958 294.229C226.962 298.743 216.617 301 204.922 301Z"/>
<path d="M283.761 298.678V265.983H341.012C343.197 265.983 344.996 265.532 346.41 264.629C347.952 263.726 349.108 262.565 349.879 261.146C350.779 259.599 351.229 257.987 351.229 256.31C351.229 254.504 350.779 252.892 349.879 251.473C349.108 249.925 347.952 248.7 346.41 247.797C344.996 246.895 343.197 246.443 341.012 246.443H323.663C315.31 246.443 307.728 244.831 300.917 241.607C294.106 238.382 288.644 233.739 284.532 227.677C280.548 221.486 278.556 214.07 278.556 205.429C278.556 196.916 280.484 189.5 284.339 183.18C288.194 176.861 293.399 171.959 299.953 168.477C306.507 164.995 313.768 163.254 321.736 163.254H383.228V195.949H327.326C325.527 195.949 323.92 196.336 322.507 197.11C321.222 197.884 320.193 198.915 319.422 200.205C318.78 201.495 318.459 202.914 318.459 204.461C318.459 206.009 318.78 207.428 319.422 208.718C320.193 210.007 321.222 211.104 322.507 212.007C323.92 212.78 325.527 213.167 327.326 213.167H346.024C355.148 213.167 363.116 214.909 369.927 218.391C376.738 221.744 382.007 226.452 385.734 232.514C389.461 238.576 391.324 245.734 391.324 253.988C391.324 263.404 389.332 271.465 385.348 278.171C381.493 284.878 376.288 289.973 369.734 293.455C363.18 296.937 355.919 298.678 347.952 298.678H283.761Z"/>
<path d="M478.956 298.678C470.346 298.678 462.699 296.873 456.017 293.261C449.334 289.521 444.065 284.491 440.21 278.171C436.355 271.722 434.427 264.435 434.427 256.31V195.949H399.536V163.254H510.184V195.949H476.064V258.438C476.064 260.502 476.771 262.307 478.185 263.855C479.598 265.274 481.333 265.983 483.39 265.983H496.305V298.678H478.956Z"/>
</mask>
<path d="M51.756 142.94C44.0454 142.94 36.9773 141.263 30.5518 137.91C24.2547 134.556 19.2428 129.978 15.516 124.174C11.7892 118.241 9.92578 111.405 9.92578 103.667C9.92578 97.6048 11.2751 91.9299 13.9739 86.6418C16.8011 81.2248 20.6564 76.7107 25.5398 73.0994C21.299 69.746 17.8934 65.6832 15.3232 60.9111C12.753 56.01 11.4679 50.98 11.4679 45.8209C11.4679 38.2113 13.2671 31.5691 16.8654 25.8941C20.5922 20.0902 25.5398 15.576 31.7084 12.3516C38.0054 9.12724 44.8807 7.51503 52.3343 7.51503H112.285V40.2105H61.5871C59.5309 40.2105 57.6675 40.5974 55.9969 41.3712C54.3263 42.0161 52.9769 43.0479 51.9488 44.4667C51.0492 45.7564 50.5994 47.4331 50.5994 49.4967C50.5994 51.4314 51.0492 53.1081 51.9488 54.5268C52.9769 55.8166 54.3263 56.8484 55.9969 57.6222C57.6675 58.2671 59.5309 58.5896 61.5871 58.5896H105.538V91.0915H61.7799C59.5952 91.0915 57.6675 91.4784 55.9969 92.2523C54.3263 93.0262 52.9769 94.1225 51.9488 95.5412C51.0492 96.9599 50.5994 98.7011 50.5994 100.765C50.5994 102.699 51.0492 104.376 51.9488 105.795C52.9769 107.214 54.3263 108.31 55.9969 109.084C57.6675 109.729 59.5952 110.051 61.7799 110.051H112.285V142.94H51.756Z" fill="white"/>
<path d="M187.792 145.261C175.969 145.261 165.495 143.004 156.371 138.49C147.375 133.847 140.307 127.269 135.167 118.757C130.026 110.244 127.456 100.184 127.456 88.5765V7.51503H168.322V90.3177C168.322 94.4449 169.093 98.1852 170.636 101.539C172.306 104.763 174.555 107.278 177.382 109.084C180.338 110.889 183.744 111.792 187.599 111.792C191.583 111.792 194.988 110.889 197.816 109.084C200.643 107.278 202.827 104.763 204.37 101.539C206.04 98.1852 206.876 94.4449 206.876 90.3177V7.51503H247.742V88.5765C247.742 100.184 245.172 110.244 240.031 118.757C234.891 127.269 227.823 133.847 218.827 138.49C209.831 143.004 199.486 145.261 187.792 145.261Z" fill="white"/>
<path d="M264.317 142.94V7.51503H328.315C338.082 7.51503 346.949 9.57865 354.917 13.7059C362.885 17.8331 369.246 23.5726 374.001 30.9242C378.756 38.1469 381.133 46.5303 381.133 56.0745C381.133 63.9421 379.205 71.3582 375.35 78.3229C371.623 85.1586 366.611 90.8336 360.314 95.3477L367.832 107.149C368.732 108.439 369.696 109.406 370.724 110.051C371.752 110.696 373.294 111.018 375.35 111.018H384.988V142.94H363.399C356.588 142.94 350.483 141.457 345.086 138.49C339.817 135.524 335.769 131.654 332.942 126.882L320.026 105.021C319.512 105.021 318.998 105.021 318.484 105.021C317.97 105.021 317.456 105.021 316.942 105.021H305.954V142.94H264.317ZM305.954 73.0994H324.074C326.645 73.0994 329.086 72.4545 331.399 71.1647C333.713 69.746 335.576 67.8113 336.99 65.3608C338.403 62.7813 339.11 59.8148 339.11 56.4614C339.11 53.1081 338.403 50.2706 336.99 47.949C335.576 45.4985 333.713 43.6283 331.399 42.3386C329.086 40.9198 326.645 40.2105 324.074 40.2105H305.954V73.0994Z" fill="white"/>
<path d="M465.867 145.455C455.201 145.455 445.37 143.714 436.374 140.231C427.507 136.749 419.796 131.848 413.242 125.528C406.817 119.079 401.805 111.599 398.206 103.086C394.608 94.5739 392.809 85.2876 392.809 75.2275C392.809 65.1673 394.608 55.8811 398.206 47.3686C401.805 38.7272 406.817 31.2466 413.242 24.9268C419.796 18.607 427.507 13.7059 436.374 10.2235C445.37 6.74118 455.201 5 465.867 5C476.534 5 486.301 6.74118 495.168 10.2235C504.164 13.7059 511.874 18.607 518.3 24.9268C524.854 31.2466 529.93 38.7272 533.528 47.3686C537.127 55.8811 538.926 65.1673 538.926 75.2275C538.926 85.2876 537.127 94.5739 533.528 103.086C529.93 111.599 524.854 119.079 518.3 125.528C511.874 131.848 504.164 136.749 495.168 140.231C486.301 143.714 476.534 145.455 465.867 145.455ZM465.867 111.792C470.622 111.792 474.927 110.889 478.783 109.084C482.638 107.149 485.915 104.505 488.614 101.152C491.313 97.7983 493.369 93.929 494.782 89.5438C496.196 85.0296 496.903 80.2575 496.903 75.2275C496.903 70.1974 496.196 65.4898 494.782 61.1046C493.369 56.5904 491.313 52.6567 488.614 49.3033C485.915 45.9499 482.638 43.3704 478.783 41.5647C474.927 39.6301 470.622 38.6627 465.867 38.6627C461.113 38.6627 456.807 39.6301 452.952 41.5647C449.097 43.3704 445.82 45.9499 443.121 49.3033C440.422 52.6567 438.366 56.5904 436.952 61.1046C435.539 65.4898 434.832 70.1974 434.832 75.2275C434.832 80.2575 435.539 85.0296 436.952 89.5438C438.366 93.929 440.422 97.7983 443.121 101.152C445.82 104.505 449.097 107.149 452.952 109.084C456.807 110.889 461.113 111.792 465.867 111.792Z" fill="white"/>
<path d="M12.8173 298.678V163.254H76.8156C86.5825 163.254 95.4497 165.317 103.417 169.444C111.385 173.572 117.746 179.311 122.501 186.663C127.256 193.885 129.634 202.269 129.634 211.813C129.634 219.681 127.706 227.097 123.851 234.061C120.124 240.897 115.112 246.572 108.815 251.086L116.333 262.888C117.232 264.177 118.196 265.145 119.224 265.79C120.252 266.434 121.794 266.757 123.851 266.757H133.489V298.678H111.899C105.088 298.678 98.9837 297.195 93.5863 294.229C88.3173 291.262 84.2693 287.393 81.442 282.621L68.5267 260.76C68.0126 260.76 67.4986 260.76 66.9846 260.76C66.4705 260.76 65.9565 260.76 65.4424 260.76H54.4548V298.678H12.8173ZM54.4548 228.838H72.5748C75.145 228.838 77.5867 228.193 79.8999 226.903C82.2131 225.485 84.0765 223.55 85.4901 221.099C86.9037 218.52 87.6105 215.553 87.6105 212.2C87.6105 208.847 86.9037 206.009 85.4901 203.688C84.0765 201.237 82.2131 199.367 79.8999 198.077C77.5867 196.658 75.145 195.949 72.5748 195.949H54.4548V228.838Z" fill="white"/>
<path d="M204.922 301C193.099 301 182.626 298.743 173.501 294.229C164.506 289.586 157.438 283.008 152.297 274.495C147.157 265.983 144.586 255.923 144.586 244.315V163.254H185.453V246.056C185.453 250.183 186.224 253.924 187.766 257.277C189.437 260.502 191.686 263.017 194.513 264.822C197.469 266.628 200.874 267.531 204.73 267.531C208.713 267.531 212.119 266.628 214.946 264.822C217.773 263.017 219.958 260.502 221.5 257.277C223.171 253.924 224.006 250.183 224.006 246.056V163.254H264.873V244.315C264.873 255.923 262.302 265.983 257.162 274.495C252.021 283.008 244.953 289.586 235.958 294.229C226.962 298.743 216.617 301 204.922 301Z" fill="white"/>
<path d="M283.761 298.678V265.983H341.012C343.197 265.983 344.996 265.532 346.41 264.629C347.952 263.726 349.108 262.565 349.879 261.146C350.779 259.599 351.229 257.987 351.229 256.31C351.229 254.504 350.779 252.892 349.879 251.473C349.108 249.925 347.952 248.7 346.41 247.797C344.996 246.895 343.197 246.443 341.012 246.443H323.663C315.31 246.443 307.728 244.831 300.917 241.607C294.106 238.382 288.644 233.739 284.532 227.677C280.548 221.486 278.556 214.07 278.556 205.429C278.556 196.916 280.484 189.5 284.339 183.18C288.194 176.861 293.399 171.959 299.953 168.477C306.507 164.995 313.768 163.254 321.736 163.254H383.228V195.949H327.326C325.527 195.949 323.92 196.336 322.507 197.11C321.222 197.884 320.193 198.915 319.422 200.205C318.78 201.495 318.459 202.914 318.459 204.461C318.459 206.009 318.78 207.428 319.422 208.718C320.193 210.007 321.222 211.104 322.507 212.007C323.92 212.78 325.527 213.167 327.326 213.167H346.024C355.148 213.167 363.116 214.909 369.927 218.391C376.738 221.744 382.007 226.452 385.734 232.514C389.461 238.576 391.324 245.734 391.324 253.988C391.324 263.404 389.332 271.465 385.348 278.171C381.493 284.878 376.288 289.973 369.734 293.455C363.18 296.937 355.919 298.678 347.952 298.678H283.761Z" fill="white"/>
<path d="M478.956 298.678C470.346 298.678 462.699 296.873 456.017 293.261C449.334 289.521 444.065 284.491 440.21 278.171C436.355 271.722 434.427 264.435 434.427 256.31V195.949H399.536V163.254H510.184V195.949H476.064V258.438C476.064 260.502 476.771 262.307 478.185 263.855C479.598 265.274 481.333 265.983 483.39 265.983H496.305V298.678H478.956Z" fill="white"/>
<path d="M51.756 142.94C44.0454 142.94 36.9773 141.263 30.5518 137.91C24.2547 134.556 19.2428 129.978 15.516 124.174C11.7892 118.241 9.92578 111.405 9.92578 103.667C9.92578 97.6048 11.2751 91.9299 13.9739 86.6418C16.8011 81.2248 20.6564 76.7107 25.5398 73.0994C21.299 69.746 17.8934 65.6832 15.3232 60.9111C12.753 56.01 11.4679 50.98 11.4679 45.8209C11.4679 38.2113 13.2671 31.5691 16.8654 25.8941C20.5922 20.0902 25.5398 15.576 31.7084 12.3516C38.0054 9.12724 44.8807 7.51503 52.3343 7.51503H112.285V40.2105H61.5871C59.5309 40.2105 57.6675 40.5974 55.9969 41.3712C54.3263 42.0161 52.9769 43.0479 51.9488 44.4667C51.0492 45.7564 50.5994 47.4331 50.5994 49.4967C50.5994 51.4314 51.0492 53.1081 51.9488 54.5268C52.9769 55.8166 54.3263 56.8484 55.9969 57.6222C57.6675 58.2671 59.5309 58.5896 61.5871 58.5896H105.538V91.0915H61.7799C59.5952 91.0915 57.6675 91.4784 55.9969 92.2523C54.3263 93.0262 52.9769 94.1225 51.9488 95.5412C51.0492 96.9599 50.5994 98.7011 50.5994 100.765C50.5994 102.699 51.0492 104.376 51.9488 105.795C52.9769 107.214 54.3263 108.31 55.9969 109.084C57.6675 109.729 59.5952 110.051 61.7799 110.051H112.285V142.94H51.756Z" stroke="url(#paint0_linear_67_1656)" stroke-width="10" mask="url(#path-1-outside-1_67_1656)"/>
<path d="M187.792 145.261C175.969 145.261 165.495 143.004 156.371 138.49C147.375 133.847 140.307 127.269 135.167 118.757C130.026 110.244 127.456 100.184 127.456 88.5765V7.51503H168.322V90.3177C168.322 94.4449 169.093 98.1852 170.636 101.539C172.306 104.763 174.555 107.278 177.382 109.084C180.338 110.889 183.744 111.792 187.599 111.792C191.583 111.792 194.988 110.889 197.816 109.084C200.643 107.278 202.827 104.763 204.37 101.539C206.04 98.1852 206.876 94.4449 206.876 90.3177V7.51503H247.742V88.5765C247.742 100.184 245.172 110.244 240.031 118.757C234.891 127.269 227.823 133.847 218.827 138.49C209.831 143.004 199.486 145.261 187.792 145.261Z" stroke="url(#paint1_linear_67_1656)" stroke-width="10" mask="url(#path-1-outside-1_67_1656)"/>
<path d="M264.317 142.94V7.51503H328.315C338.082 7.51503 346.949 9.57865 354.917 13.7059C362.885 17.8331 369.246 23.5726 374.001 30.9242C378.756 38.1469 381.133 46.5303 381.133 56.0745C381.133 63.9421 379.205 71.3582 375.35 78.3229C371.623 85.1586 366.611 90.8336 360.314 95.3477L367.832 107.149C368.732 108.439 369.696 109.406 370.724 110.051C371.752 110.696 373.294 111.018 375.35 111.018H384.988V142.94H363.399C356.588 142.94 350.483 141.457 345.086 138.49C339.817 135.524 335.769 131.654 332.942 126.882L320.026 105.021C319.512 105.021 318.998 105.021 318.484 105.021C317.97 105.021 317.456 105.021 316.942 105.021H305.954V142.94H264.317ZM305.954 73.0994H324.074C326.645 73.0994 329.086 72.4545 331.399 71.1647C333.713 69.746 335.576 67.8113 336.99 65.3608C338.403 62.7813 339.11 59.8148 339.11 56.4614C339.11 53.1081 338.403 50.2706 336.99 47.949C335.576 45.4985 333.713 43.6283 331.399 42.3386C329.086 40.9198 326.645 40.2105 324.074 40.2105H305.954V73.0994Z" stroke="url(#paint2_linear_67_1656)" stroke-width="10" mask="url(#path-1-outside-1_67_1656)"/>
<path d="M465.867 145.455C455.201 145.455 445.37 143.714 436.374 140.231C427.507 136.749 419.796 131.848 413.242 125.528C406.817 119.079 401.805 111.599 398.206 103.086C394.608 94.5739 392.809 85.2876 392.809 75.2275C392.809 65.1673 394.608 55.8811 398.206 47.3686C401.805 38.7272 406.817 31.2466 413.242 24.9268C419.796 18.607 427.507 13.7059 436.374 10.2235C445.37 6.74118 455.201 5 465.867 5C476.534 5 486.301 6.74118 495.168 10.2235C504.164 13.7059 511.874 18.607 518.3 24.9268C524.854 31.2466 529.93 38.7272 533.528 47.3686C537.127 55.8811 538.926 65.1673 538.926 75.2275C538.926 85.2876 537.127 94.5739 533.528 103.086C529.93 111.599 524.854 119.079 518.3 125.528C511.874 131.848 504.164 136.749 495.168 140.231C486.301 143.714 476.534 145.455 465.867 145.455ZM465.867 111.792C470.622 111.792 474.927 110.889 478.783 109.084C482.638 107.149 485.915 104.505 488.614 101.152C491.313 97.7983 493.369 93.929 494.782 89.5438C496.196 85.0296 496.903 80.2575 496.903 75.2275C496.903 70.1974 496.196 65.4898 494.782 61.1046C493.369 56.5904 491.313 52.6567 488.614 49.3033C485.915 45.9499 482.638 43.3704 478.783 41.5647C474.927 39.6301 470.622 38.6627 465.867 38.6627C461.113 38.6627 456.807 39.6301 452.952 41.5647C449.097 43.3704 445.82 45.9499 443.121 49.3033C440.422 52.6567 438.366 56.5904 436.952 61.1046C435.539 65.4898 434.832 70.1974 434.832 75.2275C434.832 80.2575 435.539 85.0296 436.952 89.5438C438.366 93.929 440.422 97.7983 443.121 101.152C445.82 104.505 449.097 107.149 452.952 109.084C456.807 110.889 461.113 111.792 465.867 111.792Z" stroke="url(#paint3_linear_67_1656)" stroke-width="10" mask="url(#path-1-outside-1_67_1656)"/>
<path d="M12.8173 298.678V163.254H76.8156C86.5825 163.254 95.4497 165.317 103.417 169.444C111.385 173.572 117.746 179.311 122.501 186.663C127.256 193.885 129.634 202.269 129.634 211.813C129.634 219.681 127.706 227.097 123.851 234.061C120.124 240.897 115.112 246.572 108.815 251.086L116.333 262.888C117.232 264.177 118.196 265.145 119.224 265.79C120.252 266.434 121.794 266.757 123.851 266.757H133.489V298.678H111.899C105.088 298.678 98.9837 297.195 93.5863 294.229C88.3173 291.262 84.2693 287.393 81.442 282.621L68.5267 260.76C68.0126 260.76 67.4986 260.76 66.9846 260.76C66.4705 260.76 65.9565 260.76 65.4424 260.76H54.4548V298.678H12.8173ZM54.4548 228.838H72.5748C75.145 228.838 77.5867 228.193 79.8999 226.903C82.2131 225.485 84.0765 223.55 85.4901 221.099C86.9037 218.52 87.6105 215.553 87.6105 212.2C87.6105 208.847 86.9037 206.009 85.4901 203.688C84.0765 201.237 82.2131 199.367 79.8999 198.077C77.5867 196.658 75.145 195.949 72.5748 195.949H54.4548V228.838Z" stroke="url(#paint4_linear_67_1656)" stroke-width="10" mask="url(#path-1-outside-1_67_1656)"/>
<path d="M204.922 301C193.099 301 182.626 298.743 173.501 294.229C164.506 289.586 157.438 283.008 152.297 274.495C147.157 265.983 144.586 255.923 144.586 244.315V163.254H185.453V246.056C185.453 250.183 186.224 253.924 187.766 257.277C189.437 260.502 191.686 263.017 194.513 264.822C197.469 266.628 200.874 267.531 204.73 267.531C208.713 267.531 212.119 266.628 214.946 264.822C217.773 263.017 219.958 260.502 221.5 257.277C223.171 253.924 224.006 250.183 224.006 246.056V163.254H264.873V244.315C264.873 255.923 262.302 265.983 257.162 274.495C252.021 283.008 244.953 289.586 235.958 294.229C226.962 298.743 216.617 301 204.922 301Z" stroke="url(#paint5_linear_67_1656)" stroke-width="10" mask="url(#path-1-outside-1_67_1656)"/>
<path d="M283.761 298.678V265.983H341.012C343.197 265.983 344.996 265.532 346.41 264.629C347.952 263.726 349.108 262.565 349.879 261.146C350.779 259.599 351.229 257.987 351.229 256.31C351.229 254.504 350.779 252.892 349.879 251.473C349.108 249.925 347.952 248.7 346.41 247.797C344.996 246.895 343.197 246.443 341.012 246.443H323.663C315.31 246.443 307.728 244.831 300.917 241.607C294.106 238.382 288.644 233.739 284.532 227.677C280.548 221.486 278.556 214.07 278.556 205.429C278.556 196.916 280.484 189.5 284.339 183.18C288.194 176.861 293.399 171.959 299.953 168.477C306.507 164.995 313.768 163.254 321.736 163.254H383.228V195.949H327.326C325.527 195.949 323.92 196.336 322.507 197.11C321.222 197.884 320.193 198.915 319.422 200.205C318.78 201.495 318.459 202.914 318.459 204.461C318.459 206.009 318.78 207.428 319.422 208.718C320.193 210.007 321.222 211.104 322.507 212.007C323.92 212.78 325.527 213.167 327.326 213.167H346.024C355.148 213.167 363.116 214.909 369.927 218.391C376.738 221.744 382.007 226.452 385.734 232.514C389.461 238.576 391.324 245.734 391.324 253.988C391.324 263.404 389.332 271.465 385.348 278.171C381.493 284.878 376.288 289.973 369.734 293.455C363.18 296.937 355.919 298.678 347.952 298.678H283.761Z" stroke="url(#paint6_linear_67_1656)" stroke-width="10" mask="url(#path-1-outside-1_67_1656)"/>
<path d="M478.956 298.678C470.346 298.678 462.699 296.873 456.017 293.261C449.334 289.521 444.065 284.491 440.21 278.171C436.355 271.722 434.427 264.435 434.427 256.31V195.949H399.536V163.254H510.184V195.949H476.064V258.438C476.064 260.502 476.771 262.307 478.185 263.855C479.598 265.274 481.333 265.983 483.39 265.983H496.305V298.678H478.956Z" stroke="url(#paint7_linear_67_1656)" stroke-width="10" mask="url(#path-1-outside-1_67_1656)"/>
<defs>
<linearGradient id="paint0_linear_67_1656" x1="488.95" y1="3.42785" x2="9.37365" y2="286.423" gradientUnits="userSpaceOnUse">
<stop stop-color="#E00077"/>
<stop offset="1" stop-color="#05E6FF"/>
</linearGradient>
<linearGradient id="paint1_linear_67_1656" x1="488.95" y1="3.42785" x2="9.37365" y2="286.423" gradientUnits="userSpaceOnUse">
<stop stop-color="#E00077"/>
<stop offset="1" stop-color="#05E6FF"/>
</linearGradient>
<linearGradient id="paint2_linear_67_1656" x1="488.95" y1="3.42785" x2="9.37365" y2="286.423" gradientUnits="userSpaceOnUse">
<stop stop-color="#E00077"/>
<stop offset="1" stop-color="#05E6FF"/>
</linearGradient>
<linearGradient id="paint3_linear_67_1656" x1="488.95" y1="3.42785" x2="9.37365" y2="286.423" gradientUnits="userSpaceOnUse">
<stop stop-color="#E00077"/>
<stop offset="1" stop-color="#05E6FF"/>
</linearGradient>
<linearGradient id="paint4_linear_67_1656" x1="488.95" y1="3.42785" x2="9.37365" y2="286.423" gradientUnits="userSpaceOnUse">
<stop stop-color="#E00077"/>
<stop offset="1" stop-color="#05E6FF"/>
</linearGradient>
<linearGradient id="paint5_linear_67_1656" x1="488.95" y1="3.42785" x2="9.37365" y2="286.423" gradientUnits="userSpaceOnUse">
<stop stop-color="#E00077"/>
<stop offset="1" stop-color="#05E6FF"/>
</linearGradient>
<linearGradient id="paint6_linear_67_1656" x1="488.95" y1="3.42785" x2="9.37365" y2="286.423" gradientUnits="userSpaceOnUse">
<stop stop-color="#E00077"/>
<stop offset="1" stop-color="#05E6FF"/>
</linearGradient>
<linearGradient id="paint7_linear_67_1656" x1="488.95" y1="3.42785" x2="9.37365" y2="286.423" gradientUnits="userSpaceOnUse">
<stop stop-color="#E00077"/>
<stop offset="1" stop-color="#05E6FF"/>
</linearGradient>
</defs>
</svg>
