<svg width="122" height="18" viewBox="0 0 122 18" fill="none" xmlns="http://www.w3.org/2000/svg">
<path fill-rule="evenodd" clip-rule="evenodd" d="M2.9393 0L9.20874 9.96387L7.59224 12.5199L3.11552 5.39303V18H0V0H2.9393ZM97.3441 1.58226V5.29723H100.245V7.55013H97.3441V13.662C97.3441 15.0521 97.7886 15.6995 99.2391 15.6995C99.5904 15.6995 99.9643 15.6995 100.245 15.6751V17.928C99.8005 17.9762 99.2622 18 98.7709 18L98.6105 17.9988C95.8011 17.9506 94.5833 16.6239 94.5833 13.5662V7.55013H92.4551V5.29723H94.5839V1.58226H97.3441ZM17.4951 0V18H14.3796V0H17.4951ZM88.5511 1.58226V5.29723H91.4514V7.55013H88.5511V13.662C88.5511 15.0521 88.995 15.6995 90.4461 15.6995C90.7962 15.6995 91.1707 15.6995 91.4514 15.6751V17.928C91.0075 17.9762 90.4686 18 89.9773 18L89.8169 17.9988C87.0075 17.9506 85.7903 16.6239 85.7903 13.5662V7.55013H83.6621V5.29723H85.7903V1.58226H88.5511ZM106.956 5.00923C110.442 5.00923 112.828 7.71794 112.828 11.5763V11.7203C112.827 11.9793 112.82 12.3155 112.781 12.535H103.845C104.103 14.4285 105.459 15.6995 107.331 15.6995C108.547 15.6995 109.553 15.1241 110.348 14.1172L112.29 15.5311C111.144 17.1128 109.413 18 107.354 18C103.541 18 101.038 15.3157 101.038 11.5049C101.038 7.74232 103.401 5.00923 106.956 5.00923ZM24.7733 5.00923C28.7734 5.00923 29.9668 7.21452 29.9668 10.4023V17.7126H27.206V16.6819C26.3407 17.5442 25.0541 18 23.6505 18C21.0072 18 19.089 16.3219 19.089 13.9488C19.089 11.5763 21.0066 9.89884 23.6505 9.89884C25.1473 9.89884 26.2701 10.3541 27.206 11.0973V9.92265C27.206 8.36477 26.5508 7.33413 24.4457 7.33413C23.3461 7.33413 22.2701 7.71735 21.3579 8.48497L19.7674 6.8551C21.171 5.63226 22.9247 5.00923 24.7733 5.00923ZM77.2616 5.00923C81.2616 5.00923 82.455 7.21452 82.455 10.4023V17.7126H79.6942V16.6819C78.8289 17.5442 77.5423 18 76.1387 18C73.4954 18 71.5773 16.3219 71.5773 13.9488C71.5773 11.5763 73.4954 9.89884 76.1387 9.89884C77.6355 9.89884 78.7583 10.3541 79.6942 11.0973V9.92265C79.6942 8.36477 79.0391 7.33413 76.934 7.33413C75.8343 7.33413 74.7589 7.71735 73.8461 8.48497L72.2556 6.8551C73.6592 5.63226 75.4135 5.00923 77.2616 5.00923ZM35.3326 5.29723V17.7126H32.5717V5.29723H35.3326ZM121.228 5.00923C121.486 5.00923 121.766 5.03361 122 5.05684V7.40613C121.673 7.37525 121.345 7.35937 121.017 7.35852C119.591 7.35852 118.281 8.10174 117.579 9.22819V17.712H114.819V5.29723H117.579V6.8069C118.398 5.68045 119.614 5.00923 121.228 5.00923H121.228ZM65.7783 5.00923C68.3047 5.00923 69.7083 6.61529 69.7083 9.58703V17.712H66.9481V10.0428C66.9481 8.29277 66.4098 7.30974 64.8893 7.30974C63.8602 7.30974 62.7136 7.95716 62.0822 8.84439C62.1291 9.20381 62.1291 9.56323 62.1291 9.94645V17.712H59.3688V10.0428C59.3688 8.29277 58.8774 7.30974 57.3101 7.30974C56.2573 7.30974 55.1807 7.90955 54.5261 8.72419V17.7126H51.7658V5.29664H54.5261V6.54271C55.5089 5.63168 56.7718 5.00865 58.2222 5.00865C59.7896 5.00865 60.9356 5.65606 61.5439 6.85452C62.5967 5.84768 63.9071 5.00923 65.7783 5.00923ZM44.8813 5.00923C47.4315 5.00923 49.1626 6.6391 49.1626 9.65903V17.7126H46.4018V10.0655C46.4018 8.316 45.6534 7.30916 44.0623 7.30916L43.9064 7.31323C42.6113 7.37245 41.441 8.15748 40.8113 8.98723V17.7114H38.051V5.29723H40.8113V6.7349C41.7466 5.77626 43.127 5.00923 44.8813 5.00923ZM76.8408 12.1994C75.3435 12.1994 74.3839 12.7742 74.3839 13.9488C74.3839 15.1235 75.3435 15.6989 76.8408 15.6989L77.0159 15.6954C78.0094 15.6577 78.9871 15.2977 79.6942 14.5963V13.302C78.9227 12.5826 77.9399 12.1994 76.8408 12.1994ZM24.3526 12.1994C22.8547 12.1994 21.8956 12.7742 21.8956 13.9488C21.8956 15.1235 22.8547 15.6989 24.3526 15.6989L24.5276 15.6954C25.5206 15.6577 26.4989 15.2977 27.206 14.5963V13.302C26.4345 12.5826 25.4517 12.1994 24.3526 12.1994ZM106.957 7.31032L106.817 7.31264C105.164 7.37303 104.072 8.51284 103.822 10.3785H110.045C109.904 8.48497 108.618 7.31032 106.957 7.31032ZM33.9521 0C34.9106 0 35.6596 0.743226 35.6596 1.72568L35.6568 1.83019C35.6059 2.76039 34.8767 3.45135 33.9521 3.45135C32.992 3.45135 32.2441 2.70813 32.2441 1.72568C32.2441 0.743226 32.9925 0 33.9521 0Z" fill="white"/>
</svg>
