<svg width="443" height="120" viewBox="0 0 443 120" fill="none" xmlns="http://www.w3.org/2000/svg">
<path fill-rule="evenodd" clip-rule="evenodd" d="M157.58 37.9829H139.672V74.213C139.672 75.3933 139.904 76.562 140.356 77.6525C140.807 78.743 141.469 79.7339 142.303 80.5685C143.138 81.4032 144.129 82.0653 145.219 82.517C146.309 82.9687 147.478 83.2012 148.658 83.2012H151.375V67.6111H156.281L164.077 83.2012H176.337V82.0878L167.306 64.6504C169.778 63.3953 171.641 61.7743 172.861 59.7776C174.179 57.6511 174.82 54.9993 174.82 51.8576C174.82 47.4727 173.286 44.0242 170.19 41.5848C167.115 39.1612 162.889 37.9829 157.58 37.9829ZM151.375 58.3337V47.2583H157.58C159.488 47.2583 160.843 47.7776 161.744 48.7337L161.748 48.7357C162.661 49.6838 163.147 51.0235 163.147 52.8275C163.147 54.6314 162.661 55.9711 161.748 56.9193C160.871 57.832 159.515 58.3357 157.578 58.3357L151.375 58.3337Z" fill="white"/>
<path d="M191.803 37.9829H180.039V67.6347C180.102 72.6078 181.725 76.5796 184.948 79.4852C188.162 82.3868 192.539 83.8072 198.008 83.8072C201.63 83.8072 204.795 83.1698 207.488 81.8753C210.187 80.577 212.27 78.6885 213.72 76.2058L213.722 76.2039C215.172 73.7055 215.886 70.7685 215.886 67.4163V37.9829H204.183V67.3573C204.183 70.0327 203.624 71.8426 202.627 72.9108C201.624 73.9849 200.117 74.5632 198.008 74.5632C195.923 74.5632 194.43 73.9888 193.438 72.9186C192.437 71.8426 191.864 70.1783 191.805 67.8354L191.803 37.9829ZM296.107 37.9829H258.14V47.2603H271.151V74.2131C271.151 75.3933 271.383 76.562 271.834 77.6525C272.286 78.743 272.948 79.7339 273.782 80.5686C274.617 81.4032 275.607 82.0653 276.698 82.517C277.788 82.9687 278.957 83.2012 280.137 83.2012H282.854V47.2603H296.107V37.9829ZM330.167 37.9829H299.569V74.2131C299.569 75.3933 299.801 76.562 300.253 77.6525C300.704 78.743 301.366 79.7339 302.201 80.5686C303.035 81.4032 304.026 82.0653 305.116 82.517C306.207 82.9687 307.375 83.2012 308.555 83.2012H311.272V65.6104H328.438V56.3645H311.272V47.2603H330.167V37.9829ZM365.075 37.9829H333.537V74.2131C333.537 76.5969 334.484 78.8831 336.17 80.5687C337.855 82.2543 340.141 83.2012 342.525 83.2012H365.014V73.9554H345.24V64.4852H361.983V55.5147H345.24V47.2603H365.075V37.9829ZM442.9 37.9829H404.933V47.2603H417.944V74.2131C417.944 75.3933 418.176 76.562 418.628 77.6525C419.079 78.743 419.741 79.7339 420.576 80.5686C421.41 81.4032 422.401 82.0653 423.491 82.517C424.582 82.9687 425.75 83.2012 426.931 83.2012H429.647V47.2603H442.9V37.9829ZM238.953 37.377C235.641 37.377 232.641 37.9121 229.961 38.9901C227.282 40.0524 225.175 41.5593 223.672 43.5304C222.183 45.4878 221.439 47.754 221.439 50.3094C221.439 55.4871 224.479 59.5022 230.319 62.3704C232.106 63.2557 234.395 64.1606 237.177 65.097C239.939 66.0235 241.794 66.9009 242.809 67.7075L242.813 67.7114C243.783 68.4688 244.279 69.5212 244.279 70.9337C244.279 72.1553 243.832 73.0642 242.945 73.7252C242.056 74.3822 240.795 74.7422 239.105 74.7422C236.408 74.7422 234.578 74.1934 233.487 73.2137C232.422 72.2183 231.838 70.6367 231.838 68.3547V67.8275H220.106V68.3567C220.106 71.3606 220.859 74.0419 222.374 76.379L222.378 76.3829C223.918 78.7042 226.188 80.5219 229.153 81.8517H229.157C232.143 83.158 235.462 83.8072 239.105 83.8072C244.251 83.8072 248.371 82.6898 251.404 80.394C254.457 78.0826 255.982 74.8898 255.982 70.8727C255.982 65.8229 253.468 61.8708 248.559 59.0419C246.555 57.8852 244.009 56.819 240.934 55.8432C237.891 54.8557 235.832 53.9271 234.692 53.0734C233.563 52.2078 233.083 51.3147 233.083 50.4019C233.083 49.2845 233.542 48.3737 234.512 47.638C235.505 46.8786 236.886 46.4714 238.712 46.4714C240.498 46.4714 241.843 46.9396 242.813 47.8209L242.817 47.8229C243.793 48.6944 244.308 49.9317 244.308 51.6137V52.1449H255.982V51.6137C255.982 48.8281 255.258 46.3396 253.8 44.1639C252.344 41.9704 250.302 40.2904 247.694 39.1219C245.107 37.9553 242.192 37.377 238.953 37.377ZM400.155 44.457L400.595 44.1639C402.051 46.3396 402.775 48.8301 402.775 51.6137V52.1449H391.104V51.6137C391.104 49.9317 390.588 48.6944 389.612 47.8229C388.639 46.9396 387.291 46.4714 385.505 46.4714C383.679 46.4714 382.298 46.8786 381.307 47.636C380.337 48.3737 379.877 49.2845 379.877 50.4019C379.877 51.3147 380.357 52.2058 381.488 53.0734C382.627 53.9271 384.687 54.8557 387.73 55.8432C390.805 56.8209 393.348 57.8852 395.353 59.0419C400.261 61.8708 402.775 65.8229 402.775 70.8727C402.775 74.8898 401.251 78.0845 398.199 80.394C395.166 82.6898 391.045 83.8072 385.898 83.8072C382.257 83.8072 378.938 83.158 375.952 81.8517C372.982 80.5239 370.713 78.7042 369.171 76.3829C367.652 74.0419 366.901 71.3606 366.901 68.3567V67.8275H378.633V68.3567C378.633 70.6367 379.216 72.2183 380.282 73.2137C381.372 74.1953 383.203 74.7422 385.898 74.7422C387.588 74.7422 388.849 74.3822 389.74 73.7252C390.626 73.0642 391.072 72.1553 391.072 70.9337C391.072 69.5212 390.576 68.4688 389.607 67.7114C388.59 66.9009 386.733 66.0235 383.973 65.095C381.189 64.1626 378.901 63.2537 377.113 62.3704C371.274 59.5022 368.235 55.4872 368.235 50.3114C368.235 47.754 368.976 45.4878 370.466 43.5304L370.824 43.0839C372.299 41.3311 374.282 39.9698 376.755 38.9921C379.436 37.9101 382.436 37.377 385.747 37.377L386.55 37.3888C389.469 37.4773 392.117 38.0517 394.487 39.1219C397.096 40.2904 399.138 41.9704 400.593 44.1619L400.155 44.457Z" fill="white"/>
<path d="M39.7338 93.305L41.8406 91.1982C42.9364 90.1024 42.6924 88.326 41.4708 87.4998C37.9339 85.1116 34.8885 82.0663 32.5003 78.5293C31.6741 77.3077 29.8977 77.0637 28.802 78.1595L26.6931 80.2683C29.9408 85.5901 34.4115 90.0581 39.7338 93.305ZM19.3298 87.6316L14.9508 92.0126C13.9188 93.0458 13.3391 94.4464 13.3391 95.9067C13.3391 97.367 13.9188 98.7676 14.9508 99.8008L20.2013 105.051C21.2348 106.083 22.6357 106.663 24.0964 106.663C25.557 106.663 26.958 106.083 27.9915 105.051L32.3705 100.67C27.2449 97.1803 22.8198 92.7572 19.3298 87.6316Z" fill="white"/>
<path fill-rule="evenodd" clip-rule="evenodd" d="M26.6931 39.7337L28.8039 41.8425C29.8977 42.9363 31.676 42.6924 32.5003 41.4688C34.8887 37.9325 37.934 34.8878 41.4708 32.5002C42.6924 31.674 42.9364 29.8976 41.8406 28.8019L39.7337 26.693C34.411 29.941 29.9403 34.4104 26.6931 39.7337ZM32.3685 19.3297L27.9895 14.9507C26.9562 13.9181 25.5552 13.338 24.0944 13.338C22.6336 13.338 21.2326 13.9181 20.1993 14.9507L14.9488 20.2012C13.917 21.236 13.3374 22.6375 13.3371 24.0988C13.3367 25.5601 13.9156 26.962 14.9469 27.9973L14.9488 28.0012L19.3278 32.3763C22.8186 27.249 27.2432 22.8245 32.3705 19.3337L32.3685 19.3297Z" fill="white"/>
<path d="M80.2662 26.6929L78.1554 28.8038C77.0636 29.8975 77.3036 31.672 78.5252 32.5002C82.0611 34.8926 85.1072 37.9387 87.4997 41.4746C88.3259 42.6943 90.1023 42.9362 91.1961 41.8444L93.3069 39.7336C90.059 34.4108 85.5895 29.9401 80.2662 26.6929ZM100.672 32.3723L105.051 27.9972C106.083 26.9618 106.664 25.5596 106.664 24.0978C106.664 22.636 106.084 21.234 105.051 20.1992L99.8007 14.9487C98.7659 13.9169 97.3643 13.3373 95.903 13.3369C94.4417 13.3366 93.0399 13.9154 92.0046 14.9467L87.6275 19.3277C92.7557 22.8189 97.1809 27.2441 100.672 32.3723ZM54.1357 12.1257H65.8643V21.8064H54.1377L54.1357 12.1257ZM5.51213 50.7736C4.7881 50.7736 4.07117 50.9162 3.40228 51.1934C2.73338 51.4705 2.12565 51.8767 1.61377 52.3888C1.1019 52.9008 0.695916 53.5087 0.419022 54.1777C0.142127 54.8467 -0.000258046 55.5637 3.5107e-07 56.2877V63.7159C3.5107e-07 65.1778 0.580741 66.5798 1.61447 67.6136C2.64819 68.6473 4.05022 69.228 5.51213 69.228H28.8531C29.943 69.228 31.0525 68.809 31.8866 67.9749L36.8243 63.0372C38.4984 61.3651 38.4984 58.6405 36.8243 56.9683L31.8866 52.0306C31.0811 51.228 29.9903 50.7773 28.8531 50.7775L5.51213 50.7736ZM91.198 78.1572L93.3069 80.268C90.0588 85.5901 85.5874 90.0602 80.2643 93.3067L78.1574 91.1998C77.0636 90.1041 77.3075 88.3277 78.5311 87.5015C82.0674 85.1131 85.1121 82.0678 87.4997 78.531C88.3259 77.3093 90.1023 77.0654 91.198 78.1611V78.1572ZM92.0026 105.049L87.6256 100.674C92.7529 97.1831 97.1774 92.7586 100.668 87.6313L105.051 92.0103C106.084 93.0436 106.664 94.4446 106.664 95.9054C106.664 97.3662 106.084 98.7672 105.051 99.8005L99.8007 105.051C98.7659 106.083 97.3643 106.662 95.903 106.663C94.4417 106.663 93.0399 106.084 92.0046 105.053L92.0026 105.049ZM63.0334 83.1736C62.2281 82.3707 61.1372 81.9198 60 81.9198C58.8628 81.9198 57.7719 82.3707 56.9666 83.1736L52.0289 88.1113C51.2257 88.9173 50.775 90.0089 50.7757 91.1467V114.488C50.7757 115.949 51.3562 117.351 52.3895 118.385C53.4228 119.418 54.8243 119.999 56.2859 120H63.7141C65.1757 119.999 66.5772 119.418 67.6105 118.385C68.6438 117.351 69.2243 115.949 69.2243 114.488V91.1467C69.2243 90.0569 68.8072 88.9474 67.9731 88.1133L63.0334 83.1736ZM91.1469 50.7736C90.0452 50.7736 88.9436 51.1946 88.1134 52.0267L83.1757 56.9644C81.5016 58.6385 81.5016 61.3611 83.1757 63.0352L88.1134 67.9729C88.9456 68.8051 90.0452 69.2261 91.1469 69.2261H114.488C115.95 69.2261 117.352 68.6453 118.386 67.6116C119.419 66.5779 120 65.1758 120 63.7139V56.2857C119.999 54.8242 119.419 53.4226 118.385 52.3893C117.351 51.356 115.949 50.7756 114.488 50.7756L91.1469 50.7736Z" fill="white"/>
<path d="M56.2858 0C54.8242 0.000521616 53.4227 0.581493 52.3894 1.61516C51.3561 2.64883 50.7756 4.05056 50.7756 5.51213V28.8531C50.7756 29.9548 51.1946 31.0564 52.0268 31.8866L56.9645 36.8243C58.6386 38.4984 61.3612 38.4984 63.0353 36.8243L67.973 31.8866C68.8051 31.0544 69.2261 29.9548 69.2261 28.8531V5.51213C69.2261 4.05022 68.6454 2.64819 67.6117 1.61447C66.5779 0.580741 65.1759 0 63.714 0H56.2858Z" fill="white"/>
<path fill-rule="evenodd" clip-rule="evenodd" d="M47.0754 16.4008C39.8155 18.561 33.2088 22.4971 27.8529 27.853C22.4969 33.2089 18.5608 39.8157 16.4006 47.0755H19.3101C21.3856 40.5671 24.9892 34.6503 29.8197 29.8198C34.6501 24.9894 40.567 21.3857 47.0754 19.3103V16.4008ZM72.9246 19.3103C79.4334 21.3853 85.3507 24.9888 90.1816 29.8193C95.0124 34.6498 98.6163 40.5668 100.692 47.0755H103.601C101.441 39.8155 97.5045 33.2086 92.1482 27.8526C86.7919 22.4967 80.1848 18.5607 72.9246 16.4008V19.3103ZM103.601 72.9247H100.692C98.6163 79.4325 95.0128 85.3489 90.1827 90.1789C85.3526 95.009 79.4363 98.6125 72.9285 100.688V103.597C80.1874 101.437 86.7932 97.5009 92.1484 92.1453C97.5036 86.7898 101.439 80.1838 103.599 72.9247H103.601ZM16.4026 72.9247C18.5629 80.184 22.4988 86.7902 27.8544 92.1457C33.2099 97.5013 39.8161 101.437 47.0754 103.597V100.688C40.5672 98.6128 34.6505 95.0094 29.82 90.1793C24.9896 85.3492 21.3858 79.4327 19.3101 72.9247H16.4026Z" fill="white"/>
</svg>
