<svg width="327" height="351" viewBox="0 0 327 351" fill="none" xmlns="http://www.w3.org/2000/svg">
<g filter="url(#filter0_d_38_404)">
<mask id="mask0_38_404" style="mask-type:alpha" maskUnits="userSpaceOnUse" x="9" y="21" width="305" height="305">
<rect x="9.78442" y="21.292" width="304" height="304" fill="#D9D9D9"/>
</mask>
<g mask="url(#mask0_38_404)">
<path d="M119.84 176.456C120.732 179.786 122.607 182.276 125.463 183.925C128.319 185.574 131.413 185.953 134.743 185.06C138.073 184.168 140.562 182.294 142.211 179.437C143.861 176.581 144.239 173.488 143.347 170.158C142.454 166.828 140.58 164.338 137.724 162.689C134.867 161.04 131.774 160.662 128.444 161.554C125.114 162.446 122.624 164.32 120.975 167.177C119.326 170.033 118.948 173.126 119.84 176.456ZM166.853 163.859C167.745 167.189 169.62 169.679 172.476 171.328C175.332 172.977 178.426 173.356 181.756 172.463C185.086 171.571 187.575 169.697 189.224 166.84C190.874 163.984 191.252 160.891 190.36 157.561C189.467 154.231 187.593 151.741 184.737 150.092C181.88 148.443 178.787 148.064 175.457 148.957C172.127 149.849 169.637 151.723 167.988 154.58C166.339 157.436 165.961 160.529 166.853 163.859ZM213.866 151.262C214.758 154.592 216.633 157.082 219.489 158.731C222.345 160.38 225.439 160.758 228.769 159.866C232.099 158.974 234.588 157.1 236.237 154.243C237.887 151.387 238.265 148.294 237.373 144.964C236.48 141.634 234.606 139.144 231.75 137.495C228.893 135.846 225.8 135.467 222.47 136.36C219.14 137.252 216.65 139.126 215.001 141.983C213.352 144.839 212.974 147.932 213.866 151.262ZM109.775 279.93L59.3863 91.8782C57.6542 85.414 58.4731 79.2634 61.8429 73.4266C65.2128 67.5898 70.1299 63.8053 76.5942 62.0732L123.607 49.4761C125.339 55.9404 129.124 60.8575 134.961 64.2274C140.797 67.5973 146.948 68.4162 153.412 66.6841C159.877 64.952 164.794 61.1675 168.163 55.3307C171.533 49.4939 172.352 43.3433 170.62 36.879L217.633 24.2819C224.097 22.5498 230.248 23.3687 236.085 26.7386C241.922 30.1085 245.706 35.0256 247.438 41.4899L297.827 229.542C299.559 236.006 298.74 242.157 295.37 247.993C292 253.83 287.083 257.615 280.619 259.347L233.606 271.944C231.874 265.48 228.089 260.563 222.252 257.193C216.415 253.823 210.265 253.004 203.801 254.736C197.336 256.468 192.419 260.253 189.049 266.089C185.679 271.926 184.861 278.077 186.593 284.541L139.58 297.138C133.115 298.87 126.965 298.051 121.128 294.681C115.291 291.312 111.507 286.394 109.775 279.93Z" fill="url(#paint0_linear_38_404)"/>
<path d="M100.916 200.601C102.259 203.777 104.458 205.984 107.515 207.224C110.571 208.464 113.687 208.412 116.862 207.069C120.037 205.727 122.245 203.527 123.485 200.471C124.724 197.415 124.673 194.299 123.33 191.123C121.987 187.948 119.788 185.74 116.732 184.501C113.675 183.261 110.559 183.313 107.384 184.655C104.209 185.998 102.001 188.198 100.761 191.254C99.5218 194.31 99.5733 197.426 100.916 200.601ZM145.744 181.645C147.087 184.821 149.287 187.028 152.343 188.268C155.399 189.508 158.515 189.456 161.69 188.113C164.866 186.771 167.073 184.571 168.313 181.515C169.553 178.458 169.501 175.343 168.158 172.167C166.816 168.992 164.616 166.784 161.56 165.545C158.503 164.305 155.388 164.356 152.212 165.699C149.037 167.042 146.829 169.241 145.59 172.298C144.35 175.354 144.402 178.47 145.744 181.645ZM190.573 162.689C191.915 165.864 194.115 168.072 197.171 169.312C200.227 170.551 203.343 170.5 206.519 169.157C209.694 167.814 211.901 165.615 213.141 162.559C214.381 159.502 214.329 156.386 212.987 153.211C211.644 150.036 209.444 147.828 206.388 146.589C203.332 145.349 200.216 145.4 197.041 146.743C193.865 148.086 191.658 150.285 190.418 153.342C189.178 156.398 189.23 159.514 190.573 162.689ZM105.207 304.475L29.3826 125.162C26.7761 118.998 26.7395 112.793 29.2728 106.548C31.8061 100.302 36.1547 95.8763 42.3186 93.2698L87.1469 74.3137C89.7534 80.4776 94.1794 84.8262 100.425 87.3595C106.67 89.8928 112.875 89.8562 119.039 87.2497C125.203 84.6433 129.552 80.2173 132.085 73.9717C134.618 67.7261 134.582 61.5214 131.975 55.3575L176.803 36.4014C182.967 33.7949 189.172 33.7584 195.418 36.2917C201.663 38.825 206.089 43.1736 208.696 49.3375L284.52 228.651C287.127 234.814 287.163 241.019 284.63 247.265C282.097 253.51 277.748 257.936 271.584 260.543L226.756 279.499C224.149 273.335 219.723 268.986 213.478 266.453C207.232 263.92 201.028 263.956 194.864 266.563C188.7 269.169 184.351 273.595 181.818 279.841C179.284 286.086 179.321 292.291 181.928 298.455L137.099 317.411C130.935 320.018 124.731 320.054 118.485 317.521C112.24 314.988 107.814 310.639 105.207 304.475Z" fill="url(#paint1_linear_38_404)"/>
</g>
</g>
<defs>
<filter id="filter0_d_38_404" x="-17.6156" y="-2.10801" width="358.8" height="358.8" filterUnits="userSpaceOnUse" color-interpolation-filters="sRGB">
<feFlood flood-opacity="0" result="BackgroundImageFix"/>
<feColorMatrix in="SourceAlpha" type="matrix" values="0 0 0 0 0 0 0 0 0 0 0 0 0 0 0 0 0 0 127 0" result="hardAlpha"/>
<feOffset dy="4"/>
<feGaussianBlur stdDeviation="13.7"/>
<feComposite in2="hardAlpha" operator="out"/>
<feColorMatrix type="matrix" values="0 0 0 0 0 0 0 0 0 0 0 0 0 0 0 0 0 0 0.25 0"/>
<feBlend mode="normal" in2="BackgroundImageFix" result="effect1_dropShadow_38_404"/>
<feBlend mode="normal" in="SourceGraphic" in2="effect1_dropShadow_38_404" result="shape"/>
</filter>
<linearGradient id="paint0_linear_38_404" x1="-9.2698" y1="-329.655" x2="242.376" y2="272.175" gradientUnits="userSpaceOnUse">
<stop stop-color="#E5007A"/>
<stop offset="1" stop-color="#5C0B80"/>
</linearGradient>
<linearGradient id="paint1_linear_38_404" x1="194.341" y1="310.264" x2="122.305" y2="94.1525" gradientUnits="userSpaceOnUse">
<stop stop-color="#9A1191"/>
<stop offset="1" stop-color="#E5007A"/>
</linearGradient>
</defs>
</svg>
