<svg fill="none" height="42" viewBox="0 0 42 42" width="42" xmlns="http://www.w3.org/2000/svg"><path d="m13.636 11.5401c2.98 2.239 6.187 6.776 7.364 9.211 1.177-2.435 4.383-6.972 7.364-9.21 2.151-1.61503 5.636-2.86403 5.636 1.111 0 .794-.455 6.67-.722 7.624-.928 3.317-4.31 4.163-7.318 3.65 5.258.896 6.596 3.86 3.707 6.824-5.487 5.63-7.886-1.412-8.5-3.217-.114-.33-.166-.485-.167-.354 0-.131-.054.023-.166.354-.615 1.805-3.014 8.847-8.5 3.217-2.89-2.964-1.552-5.929 3.706-6.823-3.008.512-6.39-.334-7.318-3.65-.267-.955-.722-6.83-.722-7.625 0-3.97503 3.485-2.72603 5.636-1.111z" fill="#fff"/></svg>