<svg fill="none" height="42" viewBox="0 0 42 42" width="42" xmlns="http://www.w3.org/2000/svg" xmlns:xlink="http://www.w3.org/1999/xlink"><linearGradient id="a" gradientUnits="userSpaceOnUse" x1="0" x2="17.75" y1="0" y2="38.0649"><stop offset="0" stop-color="#59decb"/><stop offset=".6" stop-color="#3b63e7"/><stop offset="1" stop-color="#de59cc"/></linearGradient><clipPath id="b"><path d="m0 0h42v42h-42z"/></clipPath><g clip-path="url(#b)"><path d="m21 42c11.598 0 21-9.402 21-21 0-11.59798-9.402-21-21-21-11.59798 0-21 9.40202-21 21 0 11.598 9.40202 21 21 21z" fill="url(#a)"/><path d="m13.6358 11.5409c2.9809 2.2379 6.1871 6.7752 7.3643 9.2103 1.1772-2.4349 4.3833-6.9725 7.3642-9.2103 2.1508-1.61468 5.6357-2.86406 5.6357 1.1115 0 .794-.4552 6.6699-.7222 7.6238-.9281 3.3165-4.3099 4.1624-7.3181 3.6504 5.2583.895 6.5959 3.8593 3.7071 6.8237-5.4864 5.6298-7.8856-1.4126-8.5006-3.2171-.1127-.3308-.1654-.4856-.1662-.354-.0008-.1316-.0535.0232-.1662.354-.6148 1.8045-3.0139 8.8471-8.5006 3.2171-2.88886-2.9644-1.5513-5.9289 3.7071-6.8237-3.0083.512-6.39016-.3339-7.31809-3.6504-.267-.954-.72221-6.8299-.72221-7.6238 0-3.97556 3.4851-2.72618 5.6358-1.1115z" fill="#fff"/></g></svg>