<?xml version="1.0" encoding="UTF-8"?>
<svg width="21px" height="21px" viewBox="0 0 21 21" version="1.1" xmlns="http://www.w3.org/2000/svg" xmlns:xlink="http://www.w3.org/1999/xlink">
    <title>Fill 1</title>
    <g id="Web" stroke="none" stroke-width="1" fill="none" fill-rule="evenodd">
        <g id="M_EuroRust-'23_vs.2c" transform="translate(-112.000000, -2652.000000)" fill="#FFFFFF">
            <g id="Group-15-Copy" transform="translate(49.000000, 2641.000000)">
                <g id="Group-14-Copy" transform="translate(52.000000, 0.000000)">
                    <path d="M20.9817878,27.3069091 L19.3464693,28.9356364 C17.8071534,30.3723636 15.4976341,30.3723636 13.9583183,28.9356364 C12.4190024,27.4989091 12.4190024,25.0083636 13.8623156,23.5716364 L16.7489419,20.6981818 C16.8449446,20.6021818 17.03695,20.4101818 17.1340436,20.3152727 C17.9991588,19.7403636 18.9613676,19.4523636 20.019579,19.5483636 C21.0777905,19.7403636 21.9439966,20.2192727 22.5211037,21.0810909 C22.8102027,21.464 23.4833125,21.56 23.8684142,21.2730909 C24.2524249,20.9850909 24.3495186,20.3152727 24.0604195,19.9312727 C23.0982108,18.6865455 21.7509003,17.9207273 20.308678,17.7287273 C18.8653649,17.4418182 17.326049,17.8247273 16.0758322,18.7825455 C15.8827358,18.9734545 15.6907305,19.1654545 15.4976341,19.3574545 L12.6120987,22.2309091 C10.3996731,24.5294545 10.4956758,28.1687273 12.7081014,30.3723636 C13.8623156,31.4250909 15.3056288,32 16.7489419,32 C18.1922551,32 19.6344773,31.4250909 20.7897824,30.3723636 L22.425101,28.7436364 C22.8102027,28.3607273 22.8102027,27.7858182 22.425101,27.4029091 C22.0399993,27.02 21.3668895,26.924 20.9817878,27.3069091 M30.4096884,20.6981818 L27.524153,23.5716364 C27.3310567,23.7625455 27.1390513,23.9545455 26.8499523,24.1465455 C25.7917408,24.9123636 24.6375266,25.2952727 23.3873098,25.2952727 C21.6548976,25.2952727 19.9235763,24.5294545 18.7693622,22.9967273 C18.4802632,22.6138182 18.5762659,21.9429091 18.9613676,21.656 C19.3464693,21.368 20.019579,21.464 20.308678,21.8469091 C21.5588949,23.5716364 23.9644169,23.8585455 25.6957381,22.6138182 C25.8877435,22.5178182 25.9848371,22.4218182 26.0808398,22.2309091 L28.9663752,19.3574545 C30.4096884,17.8247273 30.4096884,15.4301818 28.8703725,13.9934545 C27.3310567,12.5567273 25.0226283,12.5567273 23.4833125,13.9934545 L21.8479939,15.6210909 C21.4628922,16.0050909 20.8857851,16.0050909 20.5006834,15.6210909 C20.1155817,15.2381818 20.1155817,14.6632727 20.5006834,14.2803636 L22.136002,12.6527273 C24.3495186,10.4490909 27.9081637,10.4490909 30.1216803,12.6527273 C32.5261113,14.7592727 32.622114,18.4945455 30.4096884,20.6981818" id="Fill-1"></path>
                </g>
            </g>
        </g>
    </g>
</svg>