<svg fill="none" height="42" viewBox="0 0 42 42" width="42" xmlns="http://www.w3.org/2000/svg" xmlns:xlink="http://www.w3.org/1999/xlink"><linearGradient id="a" gradientUnits="userSpaceOnUse" x1="8.5" x2="34.5" y1="7" y2="36"><stop offset="0" stop-color="#fec976"/><stop offset=".5" stop-color="#ffea8d"/><stop offset="1" stop-color="#cade39"/></linearGradient><clipPath id="b"><path d="m0 0h42v42h-42z"/></clipPath><g clip-path="url(#b)"><path d="m21 42c11.598 0 21-9.402 21-21 0-11.59798-9.402-21-21-21-11.59798 0-21 9.40202-21 21 0 11.598 9.40202 21 21 21z" fill="url(#a)"/><path d="m21 7c-7.735 0-14 6.265-14 14 0 6.195 4.0075 11.4275 9.5725 13.2825.7.1225.9625-.2975.9625-.665 0-.3325-.0175-1.435-.0175-2.6075-3.5175.6475-4.4275-.8575-4.7075-1.645-.1575-.4025-.84-1.645-1.435-1.9775-.49-.2625-1.19-.91-.0175-.9275 1.1025-.0175 1.89 1.015 2.1525 1.435 1.26 2.1175 3.2725 1.5225 4.0775 1.155.1225-.91.49-1.5225.8925-1.8725-3.115-.35-6.37-1.5575-6.37-6.9125 0-1.5225.5425-2.7825 1.435-3.7625-.14-.35-.63-1.785.14-3.71 0 0 1.1725-.3675 3.85 1.435 1.12-.315 2.31-.4725 3.5-.4725s2.38.1575 3.5.4725c2.6775-1.82 3.85-1.435 3.85-1.435.77 1.925.28 3.36.14 3.71.8925.98 1.435 2.2225 1.435 3.7625 0 5.3725-3.2725 6.5625-6.3875 6.9125.5075.4375.945 1.2775.945 2.59 0 1.8725-.0175 3.3775-.0175 3.85 0 .3675.2625.805.9625.665 2.7797-.9376 5.1952-2.7236 6.9062-5.1065 1.711-2.3828 2.6313-5.2425 2.6313-8.176 0-7.735-6.265-14-14-14z" fill="#0e1025"/></g></svg>