<svg xmlns="http://www.w3.org/2000/svg" width="42" height="42" fill="none" viewBox="0 0 42 42"><linearGradient id="b" x1="8.5" x2="34.5" y1="7" y2="36" gradientUnits="userSpaceOnUse"><stop offset="0" stop-color="#fec976"/><stop offset=".5" stop-color="#ffea8d"/><stop offset="1" stop-color="#cade39"/></linearGradient><clipPath id="a"><path d="M0 0h42v42H0z"/></clipPath><g clip-path="url(#a)"><path fill="url(#b)" d="M21 42c11.598 0 21-9.402 21-21S32.598 0 21 0 0 9.402 0 21s9.402 21 21 21z"/><path fill="#0e1025" d="M21 7C13.265 7 7 13.265 7 21c0 6.195 4.008 11.428 9.572 13.283.7.122.963-.298.963-.666 0-.332-.018-1.434-.018-2.607-3.517.647-4.427-.858-4.707-1.645-.158-.403-.84-1.645-1.435-1.978-.49-.262-1.19-.91-.018-.927 1.103-.018 1.89 1.015 2.153 1.435 1.26 2.118 3.272 1.522 4.077 1.155.123-.91.49-1.522.893-1.873-3.115-.35-6.37-1.557-6.37-6.912 0-1.522.542-2.783 1.435-3.763-.14-.35-.63-1.784.14-3.71 0 0 1.172-.367 3.85 1.436 1.12-.315 2.31-.473 3.5-.473s2.38.158 3.5.472c2.677-1.82 3.85-1.434 3.85-1.434.77 1.925.28 3.36.14 3.71.892.98 1.435 2.222 1.435 3.762 0 5.372-3.273 6.563-6.388 6.912.508.438.945 1.278.945 2.59 0 1.873-.017 3.378-.017 3.85 0 .368.263.806.963.666A14.017 14.017 0 0 0 35 21c0-7.735-6.265-14-14-14z"/></g></svg>