<svg height="42" viewBox="0 0 42 42" width="42" xmlns="http://www.w3.org/2000/svg" xmlns:xlink="http://www.w3.org/1999/xlink"><linearGradient id="a" gradientTransform="matrix(.42261826 .90630779 -.90630779 .42261826 0 0)"><stop offset="0" stop-color="#59decb"/><stop offset=".6" stop-color="#3b63e7"/><stop offset="1" stop-color="#de59cc"/></linearGradient><g fill="url(#a)" fill-rule="evenodd"><circle cx="21" cy="21" r="21"/><path d="m33 15.2491017c-.84617.3815524-1.755705.6394276-2.71009.7552727.97405-.5936039 1.722355-1.5335741 2.074715-2.6536829-.911835.5497675-1.92165.9488544-2.996555 1.1639453-.86066-.9322551-2.08702-1.5146368-3.44425-1.5146368-2.6059 0-4.718795 2.1475181-4.718795 4.7964082 0 .3759413.041745.7420633.122245 1.0931055-3.92173-.2000111-7.398755-2.1096434-9.72601-5.0116159-.40618.7083969-.63894 1.5324051-.63894 2.4114719 0 1.6641483.83306 3.13226 2.09921 3.9923894-.77349-.0248991-1.501095-.2406913-2.137275-.5999163-.00046.0199894-.00046.0399788-.00046.0603189 0 2.323916 1.62656 4.2625388 3.785225 4.7032412-.395945.1096495-.81282.1683319-1.24315.1683319-.30406 0-.599725-.0301595-.8878-.0861532.600415 1.9055409 2.34301 3.292409 4.40795 3.3309851-1.614945 1.2865704-3.649525 2.0534159-5.8604 2.0534159-.38088 0-.75647-.022795-1.12562-.067099 2.088285 1.360917 4.568605 2.1551164 7.233385 2.1551164 8.679395 0 13.42579-7.3088793 13.42579-13.647395 0-.2079601-.004715-.4147512-.0138-.6204903.92207-.6763671 1.72201-1.5210661 2.354625-2.483013" fill="#fff"/></g></svg>