<svg fill="none" height="42" viewBox="0 0 42 42" width="42" xmlns="http://www.w3.org/2000/svg"><path d="m21 7c-7.735 0-14 6.265-14 14 0 6.195 4.008 11.428 9.572 13.283.7.122.963-.298.963-.666 0-.332-.018-1.434-.018-2.607-3.517.647-4.427-.858-4.707-1.645-.158-.403-.84-1.645-1.435-1.978-.49-.262-1.19-.91-.018-.927 1.103-.018 1.89 1.015 2.153 1.435 1.26 2.118 3.272 1.522 4.077 1.155.123-.91.49-1.522.893-1.873-3.115-.35-6.37-1.557-6.37-6.912 0-1.522.542-2.783 1.435-3.763-.14-.35-.63-1.784.14-3.71 0 0 1.172-.367 3.85 1.436 1.12-.315 2.31-.473 3.5-.473s2.38.158 3.5.472c2.677-1.82 3.85-1.434 3.85-1.434.77 1.925.28 3.36.14 3.71.892.98 1.435 2.222 1.435 3.762 0 5.372-3.273 6.563-6.388 6.912.508.438.945 1.278.945 2.59 0 1.873-.017 3.378-.017 3.85 0 .368.263.806.963.666 2.7797-.9376 5.1952-2.7237 6.9061-5.1067 1.711-2.383 2.6312-5.2427 2.6309-8.1763 0-7.735-6.265-14-14-14z" fill="#fff"/></svg>