<svg xmlns="http://www.w3.org/2000/svg" width="42" height="42" fill="none" viewBox="0 0 42 42"><linearGradient id="b" x1="8.5" x2="34.5" y1="7" y2="36" gradientUnits="userSpaceOnUse"><stop offset="0" stop-color="#fec976"/><stop offset=".5" stop-color="#ffea8d"/><stop offset="1" stop-color="#cade39"/></linearGradient><clipPath id="a"><path d="M0 0h42v42H0z"/></clipPath><g clip-path="url(#a)"><path fill="url(#b)" d="M21 42c11.598 0 21-9.402 21-21S32.598 0 21 0 0 9.402 0 21s9.402 21 21 21z"/><path fill="#0e1025" d="M9.5 11.147c0-.91.756-1.647 1.69-1.647h19.62c.934 0 1.69.737 1.69 1.647v19.706c0 .91-.756 1.647-1.69 1.647H11.19c-.934 0-1.69-.737-1.69-1.647zm7.106 17.607V18.368h-3.452v10.386zM14.88 16.949c1.203 0 1.952-.796 1.952-1.794-.022-1.02-.748-1.794-1.93-1.794-1.181 0-1.953.776-1.953 1.794 0 .998.749 1.794 1.908 1.794zm7.055 11.805v-5.8c0-.31.023-.621.115-.843.249-.62.816-1.262 1.77-1.262 1.25 0 1.749.952 1.749 2.349v5.556h3.451v-5.957c0-3.191-1.702-4.675-3.973-4.675-1.831 0-2.652 1.006-3.112 1.715v.036h-.023l.023-.036v-1.47h-3.45c.043.976 0 10.387 0 10.387z"/></g></svg>