<svg fill="none" height="42" viewBox="0 0 42 42" width="42" xmlns="http://www.w3.org/2000/svg" xmlns:xlink="http://www.w3.org/1999/xlink"><linearGradient id="a" gradientUnits="userSpaceOnUse" x1="8.5" x2="34.5" y1="7" y2="36"><stop offset="0" stop-color="#fec976"/><stop offset=".5" stop-color="#ffea8d"/><stop offset="1" stop-color="#cade39"/></linearGradient><clipPath id="b"><path d="m0 0h42v42h-42z"/></clipPath><g clip-path="url(#b)"><path d="m21 42c11.598 0 21-9.402 21-21 0-11.59798-9.402-21-21-21-11.59798 0-21 9.40202-21 21 0 11.598 9.40202 21 21 21z" fill="url(#a)"/><path d="m9.5 11.1474c0-.91.7561-1.6474 1.6891-1.6474h19.6218c.933 0 1.6891.7374 1.6891 1.6474v19.7052c0 .91-.7561 1.6474-1.6891 1.6474h-19.6218c-.933 0-1.6891-.7374-1.6891-1.6474zm7.1056 17.6065v-10.386h-3.4515v10.386zm-1.725-11.8048c1.2032 0 1.9521-.7963 1.9521-1.794-.0216-1.0192-.7475-1.794-1.9291-1.794-1.1817 0-1.9536.7763-1.9536 1.794 0 .9977.7489 1.794 1.9076 1.794zm7.0552 11.8048v-5.8003c0-.3105.023-.621.115-.8424.2487-.6196.8165-1.2621 1.771-1.2621 1.2492 0 1.748.9516 1.748 2.3488v5.556h3.4514v-5.957c0-3.1913-1.7019-4.6748-3.9732-4.6748-1.8314 0-2.6522 1.0063-3.1122 1.715v.0359h-.023l.023-.0359v-1.4692h-3.45c.0431.9747 0 10.386 0 10.386z" fill="#0e1025"/></g></svg>