<svg xmlns="http://www.w3.org/2000/svg" width="42" height="42" fill="none" viewBox="0 0 42 42"><linearGradient id="b" x1="8.5" x2="34.5" y1="7" y2="36" gradientUnits="userSpaceOnUse"><stop offset="0" stop-color="#fec976"/><stop offset=".5" stop-color="#ffea8d"/><stop offset="1" stop-color="#cade39"/></linearGradient><clipPath id="a"><path d="M0 0h42v42H0z"/></clipPath><g clip-path="url(#a)"><path fill="url(#b)" d="M21 42c11.598 0 21-9.402 21-21S32.598 0 21 0 0 9.402 0 21s9.402 21 21 21z"/><path fill="#0e1025" fill-rule="evenodd" d="M33.38 11c.895 0 1.62.725 1.62 1.62v16.76A1.62 1.62 0 0 1 33.38 31H9.62A1.62 1.62 0 0 1 8 29.38V12.62c0-.895.725-1.62 1.62-1.62zM15.337 23.072l-4.78 4.322-.132.12-.131.119-.09.081-.196.177a.81.81 0 1 0 1.087 1.201l5.329-4.818a.81.81 0 0 0-1.087-1.202zm12.326 0a.81.81 0 0 0-1.086 1.202l5.328 4.818a.81.81 0 1 0 1.087-1.201l-.195-.177-.09-.081-.132-.119-.132-.12-4.78-4.322zm4.34-10.164-5.284 4.777-.504.456a76066.462 76066.462 0 0 0-4.715 4.264l-2.218-2.006-2.497-2.258-.504-.456-5.283-4.777a.81.81 0 0 0-1.087 1.201l5.283 4.778.252.228 2.75 2.486 2.496 2.257.072.066.193.174.007.007-.065-.065a.814.814 0 0 0 .906.208.862.862 0 0 0 .18-.102l.037-.029.014-.012.007-.007.193-.174.072-.066 2.497-2.257 2.749-2.486.252-.228 5.283-4.778a.81.81 0 0 0-1.087-1.201z" clip-rule="evenodd"/></g></svg>