<svg fill="none" height="42" viewBox="0 0 42 42" width="42" xmlns="http://www.w3.org/2000/svg"><path clip-rule="evenodd" d="m33.38 11c.895 0 1.62.725 1.62 1.62v16.76c0 .4296-.1707.8417-.4745 1.1455s-.7158.4745-1.1455.4745h-23.76c-.42965 0-.8417-.1707-1.14551-.4745s-.47449-.7159-.47449-1.1455v-16.76c0-.895.725-1.62 1.62-1.62zm-18.043 12.072-4.78 4.322-.132.12-.131.119-.09.081-.196.177c-.08043.0709-.14597.1571-.19281.2536-.04685.0965-.07408.2013-.0801.3084-.00602.107.00928.2142.04501.3154.03574.1011.0912.1941.16316.2736.07194.0795.15904.1439.25604.1896.0971.0456.2022.0714.3094.0761.1071.0046.2141-.012.3148-.0491.1006-.037.1929-.0936.2715-.1666l5.329-4.818c.1594-.1441.255-.3457.2658-.5603.0108-.2147-.0642-.4248-.2083-.5842s-.3457-.255-.5603-.2658c-.2147-.0108-.4248.0642-.5842.2083zm12.326 0c-.1597-.1418-.369-.2148-.5823-.203-.2133.0117-.4133.1072-.5565.2657s-.218.3672-.2081.5805c.0099.2134.1037.4142.2609.5588l5.328 4.818c.0786.073.1709.1296.2715.1666.1007.0371.2077.0537.3148.0491.1072-.0047.2123-.0305.3094-.0761.097-.0457.1841-.1101.256-.1896.072-.0795.1275-.1725.1632-.2736.0357-.1012.051-.2084.045-.3154-.006-.1071-.0332-.2119-.0801-.3084-.0468-.0965-.1124-.1827-.1928-.2536l-.195-.177-.09-.081-.132-.119-.132-.12zm4.34-10.164-5.284 4.777-.504.456c-1.5717 1.4213-3.1434 2.8426-4.715 4.264l-2.218-2.006-2.497-2.258-.504-.456-5.283-4.777c-.1598-.1409-.3686-.2132-.5813-.2013-.2127.012-.4121.1073-.55506.2652-.14295.158-.21793.3659-.20869.5787s.10195.4134.25805.5584l5.283 4.778.252.228 2.75 2.486 2.496 2.257.072.066.193.174.007.007-.065-.065c.1117.123.2584.2089.4204.246.1619.0372.3314.024.4856-.038.0639-.0267.1243-.0609.18-.102l.037-.029.014-.012.007-.007.193-.174.072-.066 2.497-2.257 2.749-2.486.252-.228 5.283-4.778c.1561-.145.2488-.3456.258-.5584.0093-.2128-.0657-.4207-.2086-.5787-.143-.1579-.3424-.2532-.5551-.2652-.2127-.0119-.4205.0604-.5803.2013z" fill="#fff" fill-rule="evenodd"/></svg>