<svg fill="none" height="42" viewBox="0 0 42 42" width="42" xmlns="http://www.w3.org/2000/svg" xmlns:xlink="http://www.w3.org/1999/xlink"><linearGradient id="a" gradientUnits="userSpaceOnUse" x1="8.5" x2="34.5" y1="7" y2="36"><stop offset="0" stop-color="#fec976"/><stop offset=".5" stop-color="#ffea8d"/><stop offset="1" stop-color="#cade39"/></linearGradient><clipPath id="b"><path d="m0 0h42v42h-42z"/></clipPath><g clip-path="url(#b)"><path d="m21 42c11.598 0 21-9.402 21-21 0-11.59798-9.402-21-21-21-11.59798 0-21 9.40202-21 21 0 11.598 9.40202 21 21 21z" fill="url(#a)"/><path clip-rule="evenodd" d="m33.38 11c.8947 0 1.62.7253 1.62 1.62v16.76c0 .8947-.7253 1.62-1.62 1.62h-23.76c-.8947 0-1.62-.7253-1.62-1.62v-16.76c0-.8947.7253-1.62 1.62-1.62zm-18.0431 12.072c-3.3957 3.0707-4.1946 3.7933-4.7797 4.3224l-.1324.1197c-.0435.0394-.0869.0786-.1312.1187l-.0901.0814c-.0613.0555-.1255.1135-.1951.1765-.33184.3001-.35758.8123-.05752 1.1441.30002.3318.81222.3575 1.14402.0575.8881-.8032.8881-.8032 5.3286-4.8187.3318-.3001.3575-.8123.0574-1.1441-.3-.3318-.8122-.3575-1.144-.0575zm12.3262 0c-.3318-.3-.844-.2743-1.144.0575-.3001.3318-.2744.844.0574 1.1441 4.4405 4.0155 4.4405 4.0155 5.3286 4.8187.3318.3.844.2743 1.144-.0575.3001-.3318.2743-.844-.0575-1.1441-.0696-.063-.1338-.121-.1951-.1765l-.0901-.0814c-.0443-.0401-.0877-.0793-.1312-.1187l-.1324-.1197c-.5851-.5291-1.384-1.2517-4.7797-4.3224zm4.3391-10.1643c-2.9083 2.63-4.1458 3.7492-5.2832 4.7777l-.504.4558c-.6769.6121-1.4002 1.2662-2.4969 2.258-1.3311 1.2037-1.8922 1.7111-2.2178 2.0056-.3251-.2934-.886-.8007-2.2184-2.0056-1.0967-.9918-1.82-1.6459-2.4969-2.258l-.504-.4558c-1.1374-1.0285-2.3749-2.1477-5.2832-4.7777-.3318-.3-.844-.2743-1.14403.0575-.30005.3318-.27432.844.05748 1.1441 2.90825 2.63 4.14575 3.7491 5.28315 4.7777l.2518.2276c.7541.682 1.5153 1.3704 2.7491 2.4862 1.7978 1.6257 2.1911 1.9814 2.4965 2.2576l.0723.0654c.06.0542.1207.1091.1926.1741.0025.0023.0051.0046.0077.0069l-.0652-.0643c.0357.0394.0743.0745.1153.1052.014.0104.0281.0203.0424.0297.0134.0088.027.0172.0409.0251.0158.009.0317.0174.0478.0252.0163.008.0329.0153.0496.0221.017.007.0343.0133.0519.0191.0128.0041.0254.0079.038.0114.0203.0056.041.0104.0619.0144.0205.0038.0408.0069.0612.0093.0114.0013.0231.0024.0349.0032.0189.0013.0377.002.0565.002.0189 0 .038-.0007.0571-.002.012-.0008.0237-.0019.0354-.0032.0201-.0024.0404-.0055.0606-.0093.0212-.004.0419-.0088.0625-.0145.0123-.0034.0249-.0072.0374-.0113.0179-.0058.0352-.0121.0524-.0191.0165-.0068.0331-.0141.0495-.0221.016-.0078.0319-.0162.0476-.0252.014-.0079.0276-.0163.041-.0251.0143-.0094.0284-.0193.0423-.0297l.0362-.0287.014-.0122c.0026-.0023.0052-.0046.0077-.0069.0719-.065.1326-.1199.1926-.1741l.0723-.0654c.3054-.2762.6987-.6319 2.4965-2.2576 1.2338-1.1158 1.995-1.8042 2.7491-2.4862l.2518-.2276c1.1374-1.0286 2.3749-2.1477 5.2831-4.7777.3318-.3001.3576-.8123.0575-1.1441-.3-.3318-.8122-.3575-1.144-.0575z" fill="#0e1025" fill-rule="evenodd"/></g></svg>