<svg fill="none" height="42" viewBox="0 0 42 42" width="42" xmlns="http://www.w3.org/2000/svg" xmlns:xlink="http://www.w3.org/1999/xlink"><linearGradient id="a" gradientUnits="userSpaceOnUse" x1="8.5" x2="34.5" y1="7" y2="36"><stop offset="0" stop-color="#fec976"/><stop offset=".5" stop-color="#ffea8d"/><stop offset="1" stop-color="#cade39"/></linearGradient><clipPath id="b"><path d="m0 0h42v42h-42z"/></clipPath><g clip-path="url(#b)"><path d="m21 42c11.598 0 21-9.402 21-21 0-11.59798-9.402-21-21-21-11.59798 0-21 9.40202-21 21 0 11.598 9.40202 21 21 21z" fill="url(#a)"/><path clip-rule="evenodd" d="m28.5058 24.411h-2.7891v-6.8836c0-1.451-.606-2.1875-1.8183-2.1875-1.3403 0-2.012.8737-2.012 2.6012v3.7678h-2.7726v-3.7678c0-1.7275-.6719-2.6012-2.0122-2.6012-1.2122 0-1.8183.7365-1.8183 2.1875v6.8836h-2.789v-7.092c0-1.4495.3663-2.6013 1.1021-3.4534.7589-.8522 1.7526-1.289 2.9862-1.289 1.4273 0 2.5081.5526 3.2227 1.658l.6947 1.1732.6949-1.1732c.7144-1.1054 1.7953-1.658 3.2227-1.658 1.2334 0 2.2272.4368 2.9861 1.289.7357.8521 1.1021 2.0039 1.1021 3.4534zm4.4932-7.5465c0-5.8571-3.8092-7.57391-3.8092-7.57391-1.9207-.88866-5.2187-1.26237-8.6452-1.29059h-.0841c-3.4265.02822-6.7224.40193-8.6432 1.29059 0 0-3.80938 1.71681-3.80938 7.57391 0 1.3413-.02599 2.9449.01618 4.6456.13833 5.7279 1.04241 11.3731 6.2994 12.7748 2.4239.6464 4.505.7816 6.181.6888 3.0394-.1697 4.7457-1.0927 4.7457-1.0927l-.1002-2.2216s-2.1721.6899-4.6114.6059c-2.4168-.0835-4.9682-.2626-5.3591-3.2518-.0361-.2626-.0542-.5434-.0542-.8382 0 0 2.3725.5842 5.3792.7229 1.8385.085 3.5626-.1085 5.3137-.319 3.3582-.4039 6.2821-2.4883 6.6496-4.393.579-3.0002.5312-7.3217.5312-7.3217z" fill="#0e1025" fill-rule="evenodd"/></g></svg>