<svg height="42" viewBox="0 0 42 42" width="42" xmlns="http://www.w3.org/2000/svg" xmlns:xlink="http://www.w3.org/1999/xlink"><linearGradient id="a" gradientTransform="matrix(.42261826 .90630779 -.90630779 .42261826 0 0)"><stop offset="0" stop-color="#59decb"/><stop offset=".6" stop-color="#3b63e7"/><stop offset="1" stop-color="#de59cc"/></linearGradient><mask id="b" fill="#fff"><path d="m0 0h25v27h-25z" fill="#fff" fill-rule="evenodd"/></mask><g fill="none" fill-rule="evenodd"><circle cx="21" cy="21" fill="url(#a)" r="21"/><path d="m20.50578 16.4109629h-2.7890646v-6.88355399c0-1.45104503-.6060421-2.18755039-1.8182708-2.18755039-1.3403106 0-2.0120542.87368185-2.0120542 2.60126188v3.7677712h-2.7726031v-3.7677712c0-1.72758003-.6718881-2.60126188-2.01219861-2.60126188-1.2122287 0-1.81827085.73650536-1.81827085 2.18755039v6.88355399h-2.78906461v-7.09200988c0-1.44944488.36633999-2.60126187 1.10219674-3.45341443.75881618-.85215256 1.75256936-1.28899349 2.9861691-1.28899349 1.42723863 0 2.50806433.55263359 3.22269453 1.65804624l.694703 1.17320082.6948475-1.17320082c.7144857-1.10541265 1.7953114-1.65804624 3.2226945-1.65804624 1.2334553 0 2.2272085.43684093 2.9861691 1.28899349.7357123.85215256 1.1020523 2.00396955 1.1020523 3.45341443zm4.4932604-7.54645245c0-5.85713053-3.8092428-7.57394591-3.8092428-7.57394591-1.9206497-.88866507-5.2187204-1.26237281-8.6451617-1.29059363h-.0841846c-3.42644129.02822082-6.72234601.40192856-8.64314008 1.29059363 0 0-3.80938719 1.71681538-3.80938719 7.57394591 0 1.34121655-.0259918 2.94485765.01617268 4.64552615.13833414 5.7279547 1.0424156 11.3731381 6.29940169 12.7748695 2.42387981.6463151 4.5049566.7816005 6.1809946.6887918 3.0394523-.1697614 4.7456696-1.092757 4.7456696-1.092757l-.1002128-2.2215899s-2.1720482.6899556-4.6113787.6058749c-2.4168042-.0834987-4.96818827-.26257-5.35907607-3.2517955-.03609972-.2625701-.05414958-.5433236-.05414958-.8381876 0 0 2.3724738.5842002 5.37914755.7229768 1.8384867.0849534 3.5626095-.1085192 5.3137348-.3190117 3.3581407-.4039651 6.2820739-2.4883786 6.649569-4.3929934.5790396-3.000281.5312436-7.32170405.5312436-7.32170405z" fill="#fff" mask="url(#b)" transform="translate(8 8)"/></g></svg>