<svg fill="none" height="42" viewBox="0 0 42 42" width="42" xmlns="http://www.w3.org/2000/svg"><path clip-rule="evenodd" d="m28.5059 24.411h-2.79v-6.884c0-1.45-.605-2.187-1.818-2.187-1.34 0-2.012.874-2.012 2.601v3.768h-2.772v-3.769c0-1.727-.672-2.601-2.012-2.601-1.213 0-1.819.736-1.819 2.187v6.884h-2.789v-7.092c0-1.45.367-2.601 1.102-3.453.76-.853 1.753-1.29 2.987-1.29 1.427 0 2.508.553 3.222 1.659l.695 1.173.695-1.173c.714-1.106 1.795-1.658 3.223-1.658 1.233 0 2.227.436 2.986 1.289.735.852 1.102 2.004 1.102 3.453zm4.493-7.546c0-5.858-3.81-7.574-3.81-7.574-1.919-.891-5.217-1.263-8.643-1.291h-.084c-3.427.028-6.723.402-8.644 1.29 0 0-3.81003 1.717-3.81003 7.575 0 1.34-.025 2.944.017 4.645.138 5.728 1.043 11.373 6.30003 12.775 2.423.646 4.505.782 6.18.689 3.04-.17 4.746-1.093 4.746-1.093l-.1-2.222s-2.172.69-4.611.606c-2.417-.083-4.969-.262-5.36-3.251-.0371-.2781-.0551-.5584-.054-.839 0 0 2.373.585 5.38.723 1.838.085 3.562-.108 5.313-.319 3.358-.404 6.282-2.488 6.65-4.393.579-3 .53-7.321.53-7.321z" fill="#fff" fill-rule="evenodd"/></svg>