<svg xmlns="http://www.w3.org/2000/svg" width="226" height="61" viewBox="0 0 226 61"><g fill="#2180E3" fill-rule="evenodd"><path fill-rule="nonzero" d="M203.527 14.687z"/><path d="M80.103 19.308H71v18.417a4.568 4.568 0 0 0 4.568 4.569h1.381v-7.925h2.494l3.963 7.925h6.232v-.566l-4.591-8.864c1.257-.638 2.204-1.462 2.824-2.477.67-1.081.996-2.429.996-4.026 0-2.229-.78-3.982-2.354-5.222-1.563-1.232-3.711-1.83-6.41-1.83zm-3.154 10.345v-5.63h3.154c.97 0 1.659.264 2.117.75l.002.001c.464.482.711 1.163.711 2.08s-.247 1.598-.711 2.08c-.446.464-1.135.72-2.12.72z"/><g fill-rule="nonzero"><path d="M97.5 19.308h-5.98v15.073c.032 2.528.857 4.547 2.495 6.024 1.634 1.475 3.859 2.197 6.639 2.197 1.841 0 3.45-.324 4.819-.982 1.372-.66 2.431-1.62 3.168-2.882l.001-.001c.737-1.27 1.1-2.763 1.1-4.467V19.308h-5.949V34.24c0 1.36-.284 2.28-.791 2.823-.51.546-1.276.84-2.348.84-1.06 0-1.819-.292-2.323-.836-.509-.547-.8-1.393-.83-2.584zM150.521 19.308h-19.3v4.716h6.614v13.701a4.568 4.568 0 0 0 4.568 4.569h1.381v-18.27h6.737zM167.835 19.308h-15.554v18.417a4.568 4.568 0 0 0 4.568 4.569h1.381v-8.942h8.726v-4.7h-8.726v-4.628h9.605zM185.58 19.308h-16.032v18.417a4.569 4.569 0 0 0 4.569 4.569h11.432v-4.7h-10.052V32.78h8.511V28.22h-8.511v-4.196h10.083zM225.141 19.308h-19.3v4.716h6.614v13.701a4.568 4.568 0 0 0 4.568 4.569h1.381v-18.27h6.737zM121.468 19c-1.684 0-3.209.272-4.571.82-1.362.54-2.433 1.306-3.197 2.308-.757.995-1.135 2.147-1.135 3.446 0 2.632 1.545 4.673 4.514 6.131.908.45 2.072.91 3.486 1.386 1.404.471 2.347.917 2.863 1.327l.002.002c.493.385.745.92.745 1.638 0 .621-.227 1.083-.678 1.419-.452.334-1.093.517-1.952.517-1.371 0-2.301-.279-2.856-.777-.541-.506-.838-1.31-.838-2.47v-.268h-5.964v.269c0 1.527.383 2.89 1.153 4.078l.002.002c.783 1.18 1.937 2.104 3.444 2.78h.002c1.518.664 3.205.994 5.057.994 2.616 0 4.71-.568 6.252-1.735 1.552-1.175 2.327-2.798 2.327-4.84 0-2.567-1.278-4.576-3.773-6.014-1.019-.588-2.313-1.13-3.876-1.626-1.547-.502-2.594-.974-3.173-1.408-.574-.44-.818-.894-.818-1.358 0-.568.233-1.031.726-1.405.505-.386 1.207-.593 2.135-.593.908 0 1.592.238 2.085.686l.002.001c.496.443.758 1.072.758 1.927v.27h5.934v-.27c0-1.416-.368-2.681-1.109-3.787-.74-1.115-1.778-1.969-3.104-2.563-1.315-.593-2.797-.887-4.443-.887zM203.412 22.599l.224-.149c.74 1.106 1.108 2.372 1.108 3.787v.27h-5.933v-.27c0-.855-.262-1.484-.758-1.927-.495-.449-1.18-.687-2.088-.687-.928 0-1.63.207-2.134.592-.493.375-.727.838-.727 1.406 0 .464.244.917.819 1.358.579.434 1.626.906 3.173 1.408 1.563.497 2.856 1.038 3.875 1.626 2.495 1.438 3.773 3.447 3.773 6.014 0 2.042-.775 3.666-2.326 4.84-1.542 1.167-3.637 1.735-6.253 1.735-1.851 0-3.538-.33-5.056-.994-1.51-.675-2.663-1.6-3.447-2.78-.772-1.19-1.154-2.553-1.154-4.08v-.269h5.964v.269c0 1.159.296 1.963.838 2.469.554.499 1.485.777 2.855.777.859 0 1.5-.183 1.953-.517.45-.336.677-.798.677-1.419 0-.718-.252-1.253-.745-1.638-.517-.412-1.461-.858-2.864-1.33-1.415-.474-2.578-.936-3.487-1.385-2.968-1.458-4.513-3.499-4.513-6.13 0-1.3.377-2.452 1.134-3.447l.182-.227c.75-.891 1.758-1.583 3.015-2.08 1.363-.55 2.888-.821 4.571-.821l.408.006c1.484.045 2.83.337 4.035.881 1.326.594 2.364 1.448 3.104 2.562z"/></g><path fill-rule="nonzero" d="m20.198 47.43 1.071-1.071c.557-.557.433-1.46-.188-1.88a16.941 16.941 0 0 1-4.56-4.56c-.42-.621-1.323-.745-1.88-.188l-1.072 1.072a19.919 19.919 0 0 0 6.629 6.628zM9.826 44.546 7.6 46.773a2.801 2.801 0 0 0 0 3.959l2.669 2.669a2.802 2.802 0 0 0 3.96 0l2.226-2.227a25.128 25.128 0 0 1-6.628-6.628z"/><path d="m13.569 20.198 1.073 1.072c.556.556 1.46.432 1.879-.19a16.94 16.94 0 0 1 4.56-4.559c.621-.42.745-1.323.188-1.88l-1.071-1.072a19.918 19.918 0 0 0-6.629 6.63zm2.885-10.372L14.228 7.6a2.801 2.801 0 0 0-3.96 0l-2.669 2.669a2.807 2.807 0 0 0-.001 3.963l.001.002 2.226 2.224a25.13 25.13 0 0 1 6.63-6.63z"/><g fill-rule="nonzero"><path d="m40.802 13.569-1.073 1.073c-.555.556-.433 1.458.188 1.879a17.033 17.033 0 0 1 4.562 4.562c.42.62 1.323.743 1.879.188l1.073-1.073a19.917 19.917 0 0 0-6.63-6.629zM51.175 16.456l2.226-2.224h.001a2.807 2.807 0 0 0-.001-3.964l-2.669-2.669a2.807 2.807 0 0 0-3.963-.001l-.001.001-2.224 2.226a25.13 25.13 0 0 1 6.631 6.631zM27.519 6.164h5.962v4.921H27.52zM2.802 25.81A2.802 2.802 0 0 0 0 28.613v3.776a2.802 2.802 0 0 0 2.802 2.802h11.865c.554 0 1.118-.213 1.542-.637l2.51-2.51c.851-.85.851-2.235 0-3.085l-2.51-2.51a2.184 2.184 0 0 0-1.542-.637zM46.359 39.73l1.072 1.073a19.916 19.916 0 0 1-6.63 6.628L39.73 46.36c-.556-.557-.432-1.46.19-1.88a16.94 16.94 0 0 0 4.559-4.56c.42-.621 1.323-.745 1.88-.188zM46.768 53.4l-2.225-2.224a25.13 25.13 0 0 0 6.63-6.63l2.228 2.226a2.801 2.801 0 0 1 0 3.96l-2.669 2.669a2.807 2.807 0 0 1-3.963.001zM32.042 42.28a2.184 2.184 0 0 0-3.084 0l-2.51 2.51a2.184 2.184 0 0 0-.637 1.543v11.865A2.802 2.802 0 0 0 28.612 61h3.776a2.802 2.802 0 0 0 2.801-2.802V46.333c0-.554-.212-1.118-.636-1.542zM46.333 25.81c-.56 0-1.12.214-1.542.637l-2.51 2.51c-.851.851-.851 2.235 0 3.086l2.51 2.51c.423.423.982.637 1.542.637h11.865A2.802 2.802 0 0 0 61 32.388v-3.776a2.802 2.802 0 0 0-2.802-2.801z"/><path d="M28.612 0a2.802 2.802 0 0 0-2.801 2.802v11.865c0 .56.213 1.12.636 1.542l2.51 2.51c.851.851 2.235.851 3.086 0l2.51-2.51c.423-.423.637-.982.637-1.542V2.802A2.802 2.802 0 0 0 32.388 0z"/></g><path d="M23.93 8.337A23.16 23.16 0 0 0 8.337 23.93h1.479A21.75 21.75 0 0 1 23.93 9.816zm13.14 1.479A21.749 21.749 0 0 1 51.185 23.93h1.479A23.16 23.16 0 0 0 37.07 8.337zM52.664 37.07h-1.479a21.75 21.75 0 0 1-14.113 14.113v1.479A23.16 23.16 0 0 0 52.663 37.07zm-44.326 0A23.16 23.16 0 0 0 23.93 52.662v-1.479A21.75 21.75 0 0 1 9.816 37.07z"/></g></svg>