<svg fill="none" height="42" viewBox="0 0 42 42" width="42" xmlns="http://www.w3.org/2000/svg"><path clip-rule="evenodd" d="m33 15.25c-.8599.3871-1.7737.6414-2.71.754.9895-.6045 1.7266-1.547 2.075-2.653-.9243.5581-1.9383.9519-2.997 1.164-.4379-.4772-.9701-.8583-1.5629-1.1191-.5929-.2608-1.2334-.3956-1.8811-.3959-2.606 0-4.719 2.147-4.719 4.796 0 .376.042.742.122 1.093-3.922-.2-7.399-2.11-9.726-5.011-.4202.7339-.6406 1.5653-.639 2.411 0 1.664.833 3.133 2.1 3.993-.7507-.024-1.4844-.2299-2.138-.6v.06c0 2.324 1.626 4.263 3.785 4.703-.694.1922-1.4232.2206-2.13.083.6 1.905 2.342 3.292 4.407 3.33-.9735.7796-2.0929 1.3571-3.2925 1.6984-1.1996.3414-2.4553.4399-3.6935.2896 2.15 1.4066 4.6638 2.1552 7.233 2.154 8.68 0 13.426-7.309 13.426-13.647 0-.208-.005-.415-.014-.62.9264-.6818 1.7239-1.5233 2.355-2.485z" fill="#fff" fill-rule="evenodd"/></svg>