<svg fill="none" height="42" viewBox="0 0 42 42" width="42" xmlns="http://www.w3.org/2000/svg" xmlns:xlink="http://www.w3.org/1999/xlink"><linearGradient id="a" gradientUnits="userSpaceOnUse" x1="8.5" x2="34.5" y1="7" y2="36"><stop offset="0" stop-color="#fec976"/><stop offset=".5" stop-color="#ffea8d"/><stop offset="1" stop-color="#cade39"/></linearGradient><clipPath id="b"><path d="m0 0h42v42h-42z"/></clipPath><g clip-path="url(#b)"><path d="m21 42c11.598 0 21-9.402 21-21 0-11.59798-9.402-21-21-21-11.59798 0-21 9.40202-21 21 0 11.598 9.40202 21 21 21z" fill="url(#a)"/><path clip-rule="evenodd" d="m33 15.2491c-.8462.3816-1.7557.6394-2.7101.7553.9741-.5936 1.7224-1.5336 2.0747-2.6537-.9118.5498-1.9216.9488-2.9965 1.1639-.8607-.9322-2.087-1.5146-3.4443-1.5146-2.6059 0-4.7188 2.1475-4.7188 4.7964 0 .3759.0418.7421.1223 1.0931-3.9218-.2-7.3988-2.1096-9.726-5.0116-.4062.7084-.639 1.5324-.639 2.4115 0 1.6641.8331 3.1322 2.0992 3.9924-.7735-.0249-1.5011-.2407-2.1372-.6-.0005.02-.0005.04-.0005.0604 0 2.3239 1.6266 4.2625 3.7852 4.7032-.3959.1097-.8128.1683-1.2431.1683-.3041 0-.5998-.0301-.8878-.0861.6004 1.9055 2.343 3.2924 4.4079 3.331-1.6149 1.2865-3.6495 2.0534-5.8604 2.0534-.3809 0-.7564-.0228-1.1256-.0671 2.0883 1.3609 4.5686 2.1551 7.2334 2.1551 8.6794 0 13.4258-7.3089 13.4258-13.6474 0-.208-.0047-.4147-.0138-.6205.922-.6764 1.722-1.5211 2.3546-2.483z" fill="#0e1025" fill-rule="evenodd"/></g></svg>