<svg fill="none" height="42" viewBox="0 0 42 42" width="42" xmlns="http://www.w3.org/2000/svg"><path d="m9 21c0-3.1826 1.2643-6.2348 3.5147-8.4853 2.2505-2.2504 5.3027-3.5147 8.4853-3.5147s6.2348 1.2643 8.4853 3.5147c2.2504 2.2505 3.5147 5.3027 3.5147 8.4853s-1.2643 6.2348-3.5147 8.4853c-2.2505 2.2504-5.3027 3.5147-8.4853 3.5147s-6.2348-1.2643-8.4853-3.5147c-2.2504-2.2505-3.5147-5.3027-3.5147-8.4853zm11.25-10.384c-1.005.306-2.002 1.23-2.83 2.782-.216.403-.413.839-.593 1.308 1.057.236 2.208.386 3.423.43zm-4.877 3.693c.215-.577.455-1.116.722-1.617.261-.49.56-.958.895-1.4-1.2772.5289-2.4374 1.3047-3.414 2.283.544.277 1.143.52 1.797.734zm-1.11 5.941c.055-1.605.283-3.13.655-4.512-.8125-.2584-1.5987-.5933-2.348-1-1.1949 1.6037-1.904 3.5169-2.043 5.512zm2.1-4.112c-.3542 1.3437-.5555 2.7231-.6 4.112h4.487v-3.614c-1.3084-.0401-2.6108-.2069-3.887-.498zm5.387.497v3.615h4.485c-.0442-1.3889-.2451-2.7683-.599-4.112-1.212.281-2.521.45-3.886.497zm-5.985 5.115c.052 1.48.264 2.871.599 4.112 1.2764-.29 2.5777-.4564 3.886-.497v-3.615zm5.985 0v3.614c1.365.045 2.675.217 3.886.498.335-1.241.546-2.631.6-4.112zm-4.923 5.544c.18.469.377.905.592 1.308.828 1.552 1.827 2.475 2.831 2.783v-4.52c-1.1516.0391-2.2973.1827-3.423.429zm.165 3.414c-.336-.442-.636-.91-.897-1.4-.2758-.5229-.517-1.0634-.722-1.618-.617.198-1.217.444-1.797.735.9773.9784 2.1382 1.7542 3.416 2.283zm-2.075-4.446c-.3887-1.4743-.6085-2.988-.655-4.512h-3.735c.1388 1.9954.8479 3.909 2.043 5.513.7493-.4064 1.5351-.7415 2.347-1.001zm10.092 4.446c1.2767-.5284 2.4365-1.3035 3.413-2.281-.5788-.2912-1.1793-.5372-1.796-.736-.2047.5542-.4456 1.0943-.721 1.617-.261.49-.56.958-.896 1.4zm-3.259-3.845v4.521c1.005-.306 2.002-1.23 2.83-2.782.216-.403.414-.839.593-1.308-1.1255-.2474-2.2713-.3923-3.423-.431zm5.332-.601c.855.277 1.643.613 2.348 1 1.1949-1.6037 1.904-3.5169 2.043-5.512h-3.735c-.0469 1.524-.2669 3.0377-.656 4.512zm4.391-6.012c-.1388-1.9954-.8479-3.909-2.043-5.513-.705.387-1.493.723-2.348 1.001.3891 1.4743.6092 2.988.656 4.512zm-5.568-7.559c.266.502.507 1.041.723 1.617.616-.1986 1.2158-.4443 1.794-.735-.9766-.9771-2.1364-1.7519-3.413-2.28.327.425.627.896.896 1.398zm-.732 2.015c-.171-.447-.37-.884-.593-1.308-.828-1.553-1.825-2.475-2.83-2.783v4.52c1.1516-.0391 2.2973-.1827 3.423-.429z" fill="#fff"/></svg>