<svg xmlns="http://www.w3.org/2000/svg" width="42" height="42" fill="none" viewBox="0 0 42 42"><linearGradient id="b" x1="8.5" x2="34.5" y1="7" y2="36" gradientUnits="userSpaceOnUse"><stop offset="0" stop-color="#fec976"/><stop offset=".5" stop-color="#ffea8d"/><stop offset="1" stop-color="#cade39"/></linearGradient><clipPath id="a"><path d="M0 0h42v42H0z"/></clipPath><g clip-path="url(#a)"><path fill="url(#b)" d="M21 42c11.598 0 21-9.402 21-21S32.598 0 21 0 0 9.402 0 21s9.402 21 21 21z"/><path fill="#000" d="M9 21a12 12 0 1 1 24 0 12 12 0 0 1-24 0zm11.25-10.384c-1.005.306-2.002 1.23-2.83 2.782-.216.403-.413.839-.593 1.308 1.057.236 2.208.386 3.423.43zm-4.877 3.693c.215-.577.455-1.116.722-1.617.261-.49.56-.958.895-1.4a10.5 10.5 0 0 0-3.414 2.283c.544.277 1.143.52 1.797.734zm-1.11 5.941c.055-1.605.283-3.13.655-4.512a13.498 13.498 0 0 1-2.348-1 10.44 10.44 0 0 0-2.043 5.512zm2.1-4.112a18.446 18.446 0 0 0-.6 4.112h4.487v-3.614a20.261 20.261 0 0 1-3.886-.498zm5.387.497v3.615h4.485a18.45 18.45 0 0 0-.599-4.112c-1.212.281-2.521.45-3.886.497zm-5.985 5.115c.052 1.48.264 2.871.599 4.112a20.4 20.4 0 0 1 3.886-.497V21.75zm5.985 0v3.614c1.365.045 2.675.217 3.886.498.335-1.241.546-2.631.6-4.112zm-4.923 5.544c.18.469.377.905.592 1.308.828 1.552 1.827 2.475 2.831 2.783v-4.52a19.04 19.04 0 0 0-3.423.429zm.165 3.414c-.336-.442-.636-.91-.897-1.4a13.499 13.499 0 0 1-.722-1.618c-.617.198-1.217.444-1.797.735a10.507 10.507 0 0 0 3.416 2.283zm-2.075-4.446a20.104 20.104 0 0 1-.655-4.512h-3.735a10.44 10.44 0 0 0 2.043 5.513 13.624 13.624 0 0 1 2.347-1.001zm10.092 4.446a10.5 10.5 0 0 0 3.413-2.281 12.598 12.598 0 0 0-1.796-.736 13.51 13.51 0 0 1-.721 1.617c-.261.49-.56.958-.896 1.4zm-3.259-3.845v4.521c1.005-.306 2.002-1.23 2.83-2.782.216-.403.414-.839.593-1.308a18.902 18.902 0 0 0-3.423-.43zm5.332-.601c.855.277 1.643.613 2.348 1a10.44 10.44 0 0 0 2.043-5.512h-3.735a20.104 20.104 0 0 1-.656 4.512zm4.391-6.012a10.44 10.44 0 0 0-2.043-5.513c-.705.387-1.493.723-2.348 1.001a20.1 20.1 0 0 1 .656 4.512zm-5.568-7.559c.266.502.507 1.041.723 1.617a12.604 12.604 0 0 0 1.794-.735 10.5 10.5 0 0 0-3.413-2.28c.327.425.627.896.896 1.398zm-.732 2.015c-.171-.447-.37-.884-.593-1.308-.828-1.553-1.825-2.475-2.83-2.783v4.52a19.04 19.04 0 0 0 3.423-.429z"/></g></svg>