<svg fill="none" height="42" viewBox="0 0 42 42" width="42" xmlns="http://www.w3.org/2000/svg" xmlns:xlink="http://www.w3.org/1999/xlink"><linearGradient id="a" gradientUnits="userSpaceOnUse" x1="8.5" x2="34.5" y1="7" y2="36"><stop offset="0" stop-color="#fec976"/><stop offset=".5" stop-color="#ffea8d"/><stop offset="1" stop-color="#cade39"/></linearGradient><clipPath id="b"><path d="m0 0h42v42h-42z"/></clipPath><g clip-path="url(#b)"><path d="m21 42c11.598 0 21-9.402 21-21 0-11.59798-9.402-21-21-21-11.59798 0-21 9.40202-21 21 0 11.598 9.40202 21 21 21z" fill="url(#a)"/><path d="m9 21c0-3.1826 1.2643-6.2348 3.5147-8.4853 2.2505-2.2504 5.3027-3.5147 8.4853-3.5147s6.2348 1.2643 8.4853 3.5147c2.2504 2.2505 3.5147 5.3027 3.5147 8.4853s-1.2643 6.2348-3.5147 8.4853c-2.2505 2.2504-5.3027 3.5147-8.4853 3.5147s-6.2348-1.2643-8.4853-3.5147c-2.2504-2.2505-3.5147-5.3027-3.5147-8.4853zm11.25-10.3845c-1.005.306-2.0025 1.23-2.8305 2.7825-.215.403-.4125.839-.5925 1.308 1.0575.2355 2.208.3855 3.423.4305zm-4.8765 3.693c.214-.577.4545-1.116.7215-1.617.2611-.4894.5605-.9574.8955-1.3995-1.2772.5289-2.4374 1.3047-3.414 2.283.544.277 1.143.5205 1.797.7335zm-1.11 5.9415c.054-1.605.282-3.1305.654-4.512-.8123-.2586-1.5983-.5936-2.3475-1.0005-1.195 1.6039-1.9041 3.5172-2.043 5.5125zm2.1-4.1115c-.3542 1.3435-.5555 2.7228-.6 4.1115h4.4865v-3.6135c-1.365-.045-2.6745-.2175-3.8865-.498zm5.3865.4965v3.615h4.485c-.0441-1.3887-.2448-2.7679-.5985-4.1115-1.212.2805-2.5215.45-3.8865.4965zm-5.985 5.115c.0525 1.4805.264 2.871.5985 4.1115 1.2766-.2898 2.5781-.4561 3.8865-.4965v-3.615zm5.985 0v3.6135c1.365.045 2.6745.2175 3.8865.498.3345-1.2405.546-2.631.6-4.1115zm-4.923 5.544c.18.469.3775.905.5925 1.308.828 1.5525 1.827 2.475 2.8305 2.7825v-4.5195c-1.215.045-2.3655.1935-3.423.429zm.165 3.414c-.3355-.4421-.6355-.91-.897-1.3995-.2757-.5231-.5167-1.0638-.7215-1.6185-.617.1984-1.2178.4441-1.797.735.9766.9783 2.1383 1.7541 3.4155 2.283zm-2.0745-4.446c-.3889-1.4743-.6088-2.988-.6555-4.512h-3.735c.1389 1.9953.848 3.9086 2.043 5.5125.705-.387 1.4925-.723 2.3475-1.0005zm10.092 4.446c1.2765-.5286 2.4362-1.3039 3.4125-2.2815-.5787-.2908-1.179-.5365-1.7955-.735-.2049.5542-.4459 1.0944-.7215 1.617-.2611.4894-.5605.9574-.8955 1.3995zm-3.2595-3.8445v4.521c1.005-.306 2.0025-1.23 2.8305-2.7825.216-.403.4135-.839.5925-1.308-1.1255-.2471-2.2713-.3921-3.423-.4305zm5.3325-.6015c.855.2775 1.6425.6135 2.3475 1.0005 1.195-1.6039 1.9041-3.5172 2.043-5.5125h-3.735c-.0467 1.524-.2666 3.0377-.6555 4.512zm4.3905-6.012c-.1389-1.9953-.848-3.9086-2.043-5.5125-.705.387-1.4925.723-2.3475 1.0005.372 1.38.6 2.907.6555 4.512zm-5.568-7.5585c.266.502.507 1.041.723 1.617.616-.1986 1.2158-.4443 1.794-.735-.9765-.9771-2.1361-1.7519-3.4125-2.28.327.4245.627.8955.8955 1.398zm-.732 2.0145c-.1712-.4474-.3691-.8842-.5925-1.308-.828-1.5525-1.8255-2.475-2.8305-2.7825v4.5195c1.215-.045 2.3655-.1935 3.423-.429z" fill="#000"/></g></svg>