<?xml version="1.0" encoding="UTF-8"?>
<svg width="42px" height="42px" viewBox="0 0 42 42" version="1.1" xmlns="http://www.w3.org/2000/svg" xmlns:xlink="http://www.w3.org/1999/xlink">
    <title>Group 14 Copy 3</title>
    <defs>
        <polygon id="path-1" points="0 0 30 0 30 21 0 21"></polygon>
        <linearGradient id="holoGradient" gradientTransform="rotate(65)">
        <stop offset="0%" stop-color="#59DECB" /> 
        <stop offset="60%" stop-color="#3B63E7" />
        <stop offset="100%" stop-color="#DE59CC" />
        </linearGradient>
    </defs>
    <g id="Web" stroke="none" stroke-width="1" fill="none" fill-rule="evenodd">
        <g id="DT_EuroRust-'23_vs.2d" transform="translate(-1160.000000, -5348.000000)">
            <g id="Group-32" transform="translate(165.000000, 5283.000000)">
                <g id="Group-14-Copy-3" transform="translate(995.000000, 65.000000)">
                    <circle id="Oval" class="icon-oval" fill="url(#holoGradient)" opacity="1" cx="21" cy="21" r="21"></circle>
                    <g id="Group-3" transform="translate(6.000000, 11.000000)">
                        <mask id="mask-2" fill="white">
                            <use xlink:href="#path-1"></use>
                        </mask>
                        <g id="Clip-2"></g>
                        <path class="icon-inner" d="M12.0906041,14.9970051 L12.0906041,5.99568618 L19.9251616,10.4963456 L12.0906041,14.9970051 Z M29.3343115,3.28375037 C28.9848288,1.98932994 27.9767056,0.975719886 26.6843877,0.629515314 C24.9484955,-0.0417368845 8.13492062,-0.370631228 3.25752452,0.648748901 C1.96520658,0.998800191 0.953242902,2.00856353 0.607600659,3.30298395 C-0.175855092,6.74579609 -0.235382368,14.1891944 0.626803006,17.7089409 C0.976285718,19.0033613 1.98440893,20.0169714 3.27672687,20.3631759 C6.71394696,21.1555997 23.0551441,21.2671545 26.70359,20.3631759 C27.995908,20.0131246 29.0078716,19.0033613 29.3535139,17.7089409 C30.188816,13.9583913 30.2483433,6.97659914 29.3343115,3.28375037 L29.3343115,3.28375037 Z" id="Fill-1" fill="#fff" mask="url(#mask-2)"></path>
                    </g>
                </g>
            </g>
        </g>
    </g>
</svg>