<svg fill="none" height="42" viewBox="0 0 42 42" width="42" xmlns="http://www.w3.org/2000/svg" xmlns:xlink="http://www.w3.org/1999/xlink"><linearGradient id="a" gradientUnits="userSpaceOnUse" x1="8.5" x2="34.5" y1="7" y2="36"><stop offset="0" stop-color="#fec976"/><stop offset=".5" stop-color="#ffea8d"/><stop offset="1" stop-color="#cade39"/></linearGradient><clipPath id="b"><path d="m0 0h42v42h-42z"/></clipPath><g clip-path="url(#b)"><path d="m21 42c11.598 0 21-9.402 21-21 0-11.59798-9.402-21-21-21-11.59798 0-21 9.40202-21 21 0 11.598 9.40202 21 21 21z" fill="url(#a)"/><path clip-rule="evenodd" d="m18.0906 25.9971v-9.0013l7.8346 4.5006zm17.2437-11.7133c-.3495-1.2944-1.3576-2.308-2.6499-2.6542-1.7359-.6713-18.5495-1.0002-23.42687.0192-1.29232.3501-2.30428 1.3598-2.64992 2.6543-.78346 3.4428-.84299 10.8862.0192 14.4059.34948 1.2944 1.35761 2.3081 2.64992 2.6543 3.43727.7924 19.77847.9039 23.42687 0 1.2923-.3501 2.3043-1.3599 2.6499-2.6543.8353-3.7505.8948-10.7323-.0192-14.4252z" fill="#0e1025" fill-rule="evenodd"/></g></svg>