<svg fill="none" height="42" viewBox="0 0 42 42" width="42" xmlns="http://www.w3.org/2000/svg"><path clip-rule="evenodd" d="m18.0898 25.9968v-9.001l7.835 4.5zm17.244-11.713c-.1705-.6357-.505-1.2155-.9701-1.6813s-1.0444-.8012-1.6799-.9727c-1.736-.672-18.55-1-23.42596.019-.63549.1715-1.21478.5069-1.67986.9727s-.79962 1.0456-.97014 1.6813c-.784 3.443-.843 10.886.019 14.406.17061.6357.50519 1.2155.97025 1.6812.46507.4658 1.04431.8013 1.67975.9728 3.43696.793 19.77796.904 23.42696 0 .6355-.1715 1.2147-.507 1.6798-.9728.4651-.4657.7996-1.0455.9702-1.6812.835-3.75.894-10.732-.02-14.425z" fill="#105696" fill-rule="evenodd"/></svg>