<svg xmlns="http://www.w3.org/2000/svg" width="42" height="42" fill="none" viewBox="0 0 42 42"><linearGradient id="b" x1="8.5" x2="34.5" y1="7" y2="36" gradientUnits="userSpaceOnUse"><stop offset="0" stop-color="#fec976"/><stop offset=".5" stop-color="#ffea8d"/><stop offset="1" stop-color="#cade39"/></linearGradient><clipPath id="a"><path d="M0 0h42v42H0z"/></clipPath><g clip-path="url(#a)"><path fill="url(#b)" d="M21 42c11.598 0 21-9.402 21-21S32.598 0 21 0 0 9.402 0 21s9.402 21 21 21z"/><path fill="#0e1025" fill-rule="evenodd" d="M18.09 25.997v-9.001l7.835 4.5zm17.244-11.713a3.757 3.757 0 0 0-2.65-2.654c-1.736-.672-18.55-1-23.426.019a3.757 3.757 0 0 0-2.65 2.654c-.784 3.443-.843 10.886.019 14.406a3.758 3.758 0 0 0 2.65 2.654c3.437.793 19.778.904 23.427 0a3.758 3.758 0 0 0 2.65-2.654c.835-3.75.894-10.732-.02-14.425z" clip-rule="evenodd"/></g></svg>