<svg height="42" viewBox="0 0 42 42" width="42" xmlns="http://www.w3.org/2000/svg" xmlns:xlink="http://www.w3.org/1999/xlink"><linearGradient id="a" gradientTransform="matrix(.42261826 .90630779 -.90630779 .42261826 0 0)"><stop offset="0" stop-color="#59decb"/><stop offset=".6" stop-color="#3b63e7"/><stop offset="1" stop-color="#de59cc"/></linearGradient><mask id="b" fill="#fff"><path d="m0 0h30v21h-30z" fill="#fff" fill-rule="evenodd"/></mask><g fill="none" fill-rule="evenodd"><circle cx="21" cy="21" fill="url(#a)" r="21"/><path d="m12.0906041 14.9970051v-9.00131892l7.8345575 4.50065942zm17.2437074-11.71325473c-.3494827-1.29442043-1.3576059-2.30803048-2.6499238-2.65423506-1.7358922-.67125219-18.54946708-1.00014654-23.42686318.01923359-1.29231794.35005129-2.30428162 1.35981463-2.64992386 2.65423505-.78345575 3.44281214-.84298303 10.88621045.01920235 14.40595695.34948271 1.2944204 1.35760592 2.3080305 2.64992386 2.654235 3.43722009.7924238 19.77841723.9039786 23.42686313 0 1.292318-.3500513 2.3042816-1.3598146 2.6499239-2.654235.8353021-3.7505496.8948294-10.73234176-.0192024-14.42519053z" fill="#fff" mask="url(#b)" transform="translate(6 11)"/></g></svg>