<svg height="38" viewBox="0 0 291 38" width="291" xmlns="http://www.w3.org/2000/svg" xmlns:xlink="http://www.w3.org/1999/xlink"><defs><linearGradient id="a" x1="50%" x2="50%" y1="0%" y2="100%"><stop offset="0" stop-color="#fff" stop-opacity="0"/><stop offset=".521224869" stop-color="#fff"/><stop offset="1" stop-color="#fff" stop-opacity="0"/></linearGradient><path id="b" d="m34.3807492 10.7868132h-19.2088914l-.5277167 3.0065934h19.2088913l-1.4512212 8.4131868h-19.2088913l-.5277168 2.9802198h19.2088913l-1.9261663 10.8131868h-29.9479281l6.27982986-36h30.02708564z"/><filter id="c" height="111.1%" width="111%" x="-2.8%" y="-2.8%"><feOffset dx="2" dy="2" in="SourceAlpha" result="shadowOffsetOuter1"/><feColorMatrix in="shadowOffsetOuter1" type="matrix" values="0 0 0 0 0   0 0 0 0 0   0 0 0 0 0  0 0 0 1 0"/></filter><path id="d" d="m67.494978 27.5868132c-.4045828 2.3384615-1.5831503 4.3252747-3.5357025 5.9604395-1.9349616 1.6351649-4.0634193 2.4527473-6.3853732 2.4527473h-16.2009056c-2.0580955 0-3.7291987-.6593407-5.0133095-1.978022-1.3017015-1.3538461-1.9525522-3.0153846-1.9525522-4.9846154 0-.2461538.0087953-.4879121.0263859-.7252747.0175905-.2373626.0439764-.4791209.0791575-.7252747l4.8022228-27.5868132h10.8181943l-4.4328211 25.1868132h11.3986828l4.4328211-25.1868132h10.8181943z"/><filter id="e" height="111.1%" width="110.5%" x="-2.6%" y="-2.8%"><feOffset dx="2" dy="2" in="SourceAlpha" result="shadowOffsetOuter1"/><feColorMatrix in="shadowOffsetOuter1" type="matrix" values="0 0 0 0 0   0 0 0 0 0   0 0 0 0 0  0 0 0 1 0"/></filter><path id="f" d="m84.2236004 10.7868132-.5277168 3.0065934h11.3986828l.5541026-3.0065934zm22.7709796-3.82417584c0 .24615385-.013193.48351649-.039579.71208791-.026385.22857143-.057169.46593407-.09235.71208792l-.94989 5.40659341c-.211087 1.2307692-1.231339 2.6285714-3.060758 4.1934066 1.073024 1.3362637 1.609537 2.5406593 1.609537 3.6131868v.6065934l-2.453884 13.7934066h-10.8181939l2.480269-13.7934066h-11.4250686l-2.4538831 13.7934066h-10.7390368l6.2798298-36h24.6179885c2.0580951 0 3.7467891.65934066 5.0660811 1.97802198s1.978938 2.98021978 1.978938 4.98461538z"/><filter id="g" height="111.1%" width="110.5%" x="-2.6%" y="-2.8%"><feOffset dx="2" dy="2" in="SourceAlpha" result="shadowOffsetOuter1"/><feColorMatrix in="shadowOffsetOuter1" type="matrix" values="0 0 0 0 0   0 0 0 0 0   0 0 0 0 0  0 0 0 1 0"/></filter><path id="h" d="m120.240272 10.7868132-2.506655 14.4h11.398683l2.53304-14.4zm22.770979-3.82417584c0 .24615385-.013193.48351649-.039578.71208791-.026386.22857143-.05717.46593407-.092351.71208792l-3.351001 19.20000001c-.404583 2.3384615-1.583151 4.3252747-3.535703 5.9604395-1.934962 1.6351649-4.063419 2.4527473-6.385373 2.4527473h-16.200906c-2.058095 0-3.729198-.6593407-5.013309-1.978022-1.301702-1.3538461-1.952553-3.0153846-1.952553-4.9846154 0-.2461538.008796-.4879121.026386-.7252747.017591-.2373626.043977-.4791209.079158-.7252747l3.324616-19.20000001c.386992-2.32087912 1.547969-4.2989011 3.482931-5.93406594 1.952552-1.63516483 4.089805-2.45274725 6.411759-2.45274725h16.200905c2.058096 0 3.746789.65934066 5.066081 1.97802198s1.978938 2.98021978 1.978938 4.98461538z"/><filter id="i" height="111.1%" width="110.9%" x="-2.7%" y="-2.8%"><feOffset dx="2" dy="2" in="SourceAlpha" result="shadowOffsetOuter1"/><feColorMatrix in="shadowOffsetOuter1" type="matrix" values="0 0 0 0 0   0 0 0 0 0   0 0 0 0 0  0 0 0 1 0"/></filter><path id="j" d="m36.8610181 13.7934066c-.2110867 1.2307692-1.2313392 2.6285714-3.0607574 4.1934066 1.0730242 1.3362637 1.6095362 2.5406593 1.6095362 3.6131868v.6065934l-2.4538831 13.7934066h-10.8181943l2.480269-13.7934066h-11.4250686l-2.4538831 13.7934066h-10.7390368l3.82594676-22.2065934zm1.0818194-6.83076924c0 .24615385-.0131929.48351649-.0395787.71208791-.0263859.22857143-.0571693.46593407-.0923505.71208792l-.4221734 2.40000001h-33.0086855l1.89978046-10.7868132h24.61798844c2.0580955 0 3.7467893.65934066 5.0660813 1.97802198 1.3192919 1.31868132 1.9789379 2.98021978 1.9789379 4.98461538z"/><filter id="k" height="111.1%" width="110.5%" x="-2.6%" y="-2.8%"><feOffset dx="2" dy="2" in="SourceAlpha" result="shadowOffsetOuter1"/><feColorMatrix in="shadowOffsetOuter1" type="matrix" values="0 0 0 0 0   0 0 0 0 0   0 0 0 0 0  0 0 0 1 0"/></filter><path id="l" d="m70.4765779 27.5868132c-.4045828 2.3384615-1.5831503 4.3252747-3.5357025 5.9604395-1.9349616 1.6351649-4.0634193 2.4527473-6.3853732 2.4527473h-16.2009056c-2.0580955 0-3.7291987-.6593407-5.0133096-1.978022-1.3017014-1.3538461-1.9525521-3.0153846-1.9525521-4.9846154 0-.2461538.0087953-.4879121.0263858-.7252747.0175906-.2373626.0439764-.4791209.0791576-.7252747l2.3483397-13.7934066h10.8181943l-1.978938 11.3934066h11.3986828l1.978938-11.3934066h10.8181943zm-19.2880488-16.8h-10.7918085l1.8997805-10.7868132h10.8181943zm22.216877 0h-10.7918084l1.8997805-10.7868132h10.8181942z"/><filter id="m" height="111.1%" width="110.5%" x="-2.6%" y="-2.8%"><feOffset dx="2" dy="2" in="SourceAlpha" result="shadowOffsetOuter1"/><feColorMatrix in="shadowOffsetOuter1" type="matrix" values="0 0 0 0 0   0 0 0 0 0   0 0 0 0 0  0 0 0 1 0"/></filter><path id="n" d="m107.575069 20.756044c0 .2461538-.013193.487912-.039579.7252747-.026386.2373626-.057169.4791209-.092351.7252747l-.94989 5.3802198c-.404583 2.3384615-1.58315 4.3252747-3.535702 5.9604395-1.934962 1.6351649-4.0634197 2.4527473-6.3853736 2.4527473h-24.5388309l1.8470088-10.8131868h22.216877l.5541027-2.9802198h-13.8261801c-2.075686 0-3.773175-.6593407-5.092467-1.978022-1.319292-1.3362637-1.978938-2.9978022-1.978938-4.9846154 0-.2461538.0087953-.487912.0263858-.7252747.0175906-.2373626.0439764-.4791209.0791575-.7252747h24.6179888c2.093276 0 3.799561.6593407 5.118853 1.978022s1.978938 2.9802198 1.978938 4.9846154zm1.847008-9.9692308h-33.0086851l.4221734-2.40000001c.3869923-2.32087912 1.5479693-4.2989011 3.4829309-5.93406594 1.9525521-1.63516483 4.0898051-2.45274725 6.411759-2.45274725h24.6179888z"/><filter id="o" height="111.1%" width="110.2%" x="-2.5%" y="-2.8%"><feOffset dx="2" dy="2" in="SourceAlpha" result="shadowOffsetOuter1"/><feColorMatrix in="shadowOffsetOuter1" type="matrix" values="0 0 0 0 0   0 0 0 0 0   0 0 0 0 0  0 0 0 1 0"/></filter><linearGradient id="p" x1="50%" x2="50%" y1="-15.516484%" y2="112.676923%"><stop offset="0" stop-color="#fff" stop-opacity="0"/><stop offset=".507106227" stop-color="#fff"/><stop offset="1" stop-color="#fff" stop-opacity="0"/></linearGradient><path id="q" d="m129.897489 36h-10.818194l3.905104-22.2065934h10.818194zm15.54126-25.2131868h-33.008686l1.899781-10.7868132h33.035071z"/><filter id="r" height="111.1%" width="111.4%" x="-2.9%" y="-2.8%"><feOffset dx="2" dy="2" in="SourceAlpha" result="shadowOffsetOuter1"/><feColorMatrix in="shadowOffsetOuter1" type="matrix" values="0 0 0 0 0   0 0 0 0 0   0 0 0 0 0  0 0 0 1 0"/></filter></defs><g fill="none"><g><g><use fill="#000" filter="url(#c)" xlink:href="#b"/><use fill="#f7f300" xlink:href="#b"/><use fill="url(#a)" xlink:href="#b"/></g><g><use fill="#000" filter="url(#e)" xlink:href="#d"/><use fill="#f7f300" xlink:href="#d"/><use fill="url(#a)" xlink:href="#d"/></g><g><use fill="#000" filter="url(#g)" xlink:href="#f"/><use fill="#f7f300" xlink:href="#f"/><use fill="url(#a)" xlink:href="#f"/></g><g><use fill="#000" filter="url(#i)" xlink:href="#h"/><use fill="#f7f300" xlink:href="#h"/><use fill="url(#a)" xlink:href="#h"/></g></g><g transform="translate(141.085085)"><use fill="#000" filter="url(#k)" xlink:href="#j"/><use fill="#e0209e" xlink:href="#j"/><use fill="url(#a)" xlink:href="#j"/></g><g transform="translate(141.085085)"><use fill="#000" filter="url(#m)" xlink:href="#l"/><use fill="#e0209e" xlink:href="#l"/><use fill="url(#a)" xlink:href="#l"/></g><g transform="translate(141.085085)"><use fill="#000" filter="url(#o)" xlink:href="#n"/><use fill="#e0209e" xlink:href="#n"/><use fill="url(#a)" xlink:href="#n"/></g><g transform="translate(141.085085)"><use fill="#000" filter="url(#r)" xlink:href="#q"/><use fill="#e0209e" xlink:href="#q"/><use fill="url(#p)" xlink:href="#q"/></g></g></svg>