<svg height="128" viewBox="0 0 320 128" width="320" xmlns="http://www.w3.org/2000/svg"><path d="m149.474662 1074.91403-8.879683-14.91403h-.813971l-.665976.26063 8.731688 14.6534h-108.5171246l-17.7593658-14.91403h-1.0174636l-.5364809.40543 17.2968823 14.5086h-37.3131674v1.15837h38.7006178l14.4294847 12.0181h-53.1301025v1.15837h54.4990536l12.3020606 10.28054h-66.8011142v1.15837h68.1885647l10.5816221 8.97738h-78.7701868v1.15837h80.1391379l9.1756723 7.67421h-82.04456985l-7.27024035-4.09774v1.419l4.71733152 2.67874h-4.71733152v1.15837h6.80775687l11.98757183 6.66063h-18.7953287v1.15837h20.8672547l10.5076248 5.79186h-31.3748795v1.15837h33.4283061l9.2311703 5.21267h-42.6594764v1.15837h44.7499018l8.1582086 4.63348h-52.9081104v1.15838h54.9800364l7.2147424 3.9095h-62.1947788v1.43348l8.0472126 3.3448h-8.0472126v1.15837h10.8036142l7.6032284 3.18552h-18.4068426v1.15837h21.1817435l6.7707582 2.89593h-27.9525017v1.15837h30.7089033l6.0307846 2.46154h-36.7396879v1.15837h39.5145888l5.3833077 2.31674h-44.8978965v1.15837h47.6542981l4.7913288 2.02715h-47.78379339l-4.66183351-1.60724v1.25973l.90646763.34751h-.90646763v1.15837h4.36584408l5.34630906 1.73756h-9.71215314v1.15837h13.1530302l4.7543303 1.59276h-17.9073605v1.15837h21.3667369l4.2178494 1.44796h-25.5845863v1.15838h29.0439627l3.7368666 1.15837h-32.7808293v1.15837h36.258705l3.3113818 1.15837h-39.44059142l-.12949538-.01448v.60814.56471h517.981501v-.56471-.60814l-.129496.01448h-39.422092l3.311382-1.15837h36.258705v-1.15837h-32.799329l3.736867-1.15837h29.043963v-1.15838h-25.603086l4.217849-1.44796h21.385237v-1.15837h-17.907361l4.75433-1.59276h13.153031v-1.15837h-9.712153l5.346309-1.73756h4.365844v-1.15837h-.906468l.906468-.34751v-1.25973l-4.661834 1.60724h-47.802293l4.791329-2.02715h47.672798v-1.15837h-44.897897l5.383308-2.31674h39.514589v-1.15837h-36.758188l6.030785-2.46154h30.708903v-1.15837h-27.952501l6.770758-2.89593h21.200243v-1.15837h-18.406843l7.603229-3.18552h10.803614v-1.15837h-8.047213l8.047213-3.3448v-1.43348h-62.194779l7.214742-3.9095h54.980037v-1.15838h-52.908111l8.158209-4.63348h44.749902v-1.15837h-42.677976l9.23117-5.21267h33.446806v-1.15837h-31.35638l10.507624-5.79186h20.848756v-1.15837h-18.77683l11.987572-6.66063h6.807757v-1.15837h-4.717332l4.717332-2.67874v-1.419l-7.27024 4.09774h-82.04457l9.175672-7.67421h80.120639v-1.15837h-78.770187l10.581622-8.97738h68.188565v-1.15837h-66.801115l12.302061-10.28054h54.499054v-1.15837h-53.111603l14.429484-12.0181h38.682119v-1.15837h-37.313168l17.296883-14.5086-.536481-.40543h-1.017464l-17.759366 14.91403h-108.498625l8.731688-14.6534-.665976-.26063h-.813971l-8.879683 14.91403h-108.776115v-14.91403h-1.479947v14.91403zm108.776115 1.15837v12.0181h-100.876897l-7.214743-12.0181zm0 34.75113v7.67421h-82.766044l-4.587836-7.67421zm-88.056855-1.15837-5.290811-8.97738h93.347666v8.97738zm88.056855 9.99095v6.66063h-78.085711l-3.995858-6.66063zm0 21.14027v4.63348h-66.708618l-2.719403-4.63348zm-70.130996-1.15837-3.07089-5.21267h73.201886v5.21267zm70.130996 6.95023v3.9095h-63.619228l-2.404914-3.9095zm0 5.06787v3.61991h-60.788829l-2.145924-3.61991zm0 4.77828v3.18552h-58.198922l-1.905432-3.18552zm46.229849 25.77375h-44.749902v-1.44796h45.582372zm2.478911-1.44796h45.323381l-1.683439 1.44796h-44.472412zm-94.291132 0h45.582372v1.44796h-44.749902zm-.795472 1.44796h-44.472412l-1.683439-1.44796h45.323381zm46.377844-13.75565v2.31674h-51.576158l-1.350452-2.31674zm-53.611086-1.15837-1.516945-2.46154h55.128031v2.46154zm53.611086 4.63348v2.02715h-49.689226l-1.202457-2.02715zm0 3.18552v1.73756h-47.931788l-1.072962-1.73756zm0 2.89593v1.59276h-46.285347l-.943466-1.59276zm1.479947 1.59276v-1.59276h47.228813l-.943466 1.59276zm0-2.75113v-1.73756h48.98625l-1.072961 1.73756zm0-2.89593v-2.02715h50.891682l-1.202457 2.02715zm0-3.18552v-2.31674h52.92661l-1.350452 2.31674zm0-3.47511v-2.46154h55.128031l-1.516946 2.46154zm0-3.61991v-2.89593h57.495946l-1.683439 2.89593zm-1.479947 0h-55.812507l-1.701939-2.89593h57.514446zm-59.826864-4.0543h-57.921431l-3.792365-3.18552h59.826864zm.684476 1.15837 1.701939 2.89593h-55.535016l-3.385379-2.89593zm2.386415 4.0543 1.516946 2.46154h-53.352095l-3.015392-2.46154zm2.201421 3.61991 1.350452 2.31674h-51.298668l-2.682404-2.31674zm2.034927 3.47511 1.202458 2.02715h-49.411736l-2.404914-2.02715zm1.886933 3.18552 1.072962 1.73756h-47.654298l-2.127424-1.73756zm1.757437 2.89593.943467 1.59276h-45.989358l-1.905432-1.59276zm-47.080818 1.59276h-45.545374l-2.848898-1.59276h46.48884zm1.38745 1.15837 1.68344 1.44796h-44.009928l-2.53441-1.44796zm3.070891 2.60634 1.498446 1.15837h-42.56698l-2.23842-1.15837zm2.034927 0h43.769437l.739973 1.15837h-43.010964zm45.415878 0h44.046927v1.15837h-43.306954zm45.526874 0h44.046927l-.739974 1.15837h-43.306953zm45.693368 0h43.787936l-1.498446 1.15837h-43.029464zm45.804364 0h43.325453l-2.23842 1.15837h-42.585479zm1.387451-1.15838 1.683439-1.44796h44.860898l-2.534409 1.44796zm3.07089-2.60633 1.905432-1.59276h46.507339l-2.848898 1.59276zm-2.034927 0h-46.007857l.943466-1.59276h46.969823zm-44.361416-2.75113 1.072962-1.73756h48.70876l-2.145923 1.73756zm1.757437-2.89593 1.202457-2.02715h50.614193l-2.404915 2.02715zm1.886933-3.18552 1.350452-2.31674h52.649119l-2.682404 2.31674zm2.034927-3.47511 1.516946-2.46154h54.850541l-3.015392 2.46154zm2.201421-3.61991 1.70194-2.89593h57.218456l-3.385379 2.89593zm2.386415-4.0543 1.905432-3.18552h59.826864l-3.792365 3.18552zm-1.627942 0h-58.198921v-3.18552h60.104353zm-58.198921-4.34389v-3.61991h62.916253l-2.145923 3.61991zm0-4.77828v-3.9095h66.024142l-2.404914 3.9095zm0-5.06788v-4.63348h69.42802l-2.719403 4.63348zm0-5.79185v-5.21267h73.201886l-3.070891 5.21267zm0-6.37104v-5.79186h77.401236l-3.496376 5.79186zm-1.479947 0h-73.904861l-3.496375-5.79186h77.401236zm-79.713653-6.95023h-77.826721l-7.9917144-6.66063h81.8040784zm.684475 1.15837 3.496375 5.79186h-73.62737l-6.99275-5.79186zm4.19935 6.95023 3.070891 5.21267h-69.853506l-6.16028-5.21267zm3.755366 6.37104 2.719403 4.63348h-66.431127l-5.438806-4.63348zm3.422378 5.79186 2.404914 3.9095h-63.341738l-4.809828-3.9095zm3.08939 5.06787 2.145923 3.61991h-60.511339l-4.273347-3.61991zm-60.400343 3.61991h-60.0488557l-6.4192707-3.61991h62.1947784zm1.38745 1.15837 3.792365 3.18552h-57.4589482l-5.6977965-3.18552zm5.179815 4.34389 3.385379 2.89593h-55.0725329l-5.0873183-2.89593zm4.77283 4.0543 3.015392 2.46154h-52.8896111l-4.5323381-2.46154zm4.402842 3.61991 2.682405 2.31674h-50.836185l-4.0328557-2.31674zm4.069855 3.47511 2.404914 2.02715h-48.967751l-3.607371-2.02715zm3.773865 3.18552 2.145924 1.73756h-47.191815l-3.200386-1.73756zm-47.5988 1.73756h-46.6368341l-4.2733474-1.73756h47.7097965zm2.071926 1.15837 2.848899 1.59276h-44.9903936l-3.8108639-1.59276zm4.920825 2.75113 2.534409 1.44796h-43.454948l-3.3853791-1.44796zm4.606335 2.60634 2.23842 1.15837h-42.0119995l-2.9968929-1.15837zm4.328845 2.31674 1.97943 1.15837h-40.6615481l-2.6454055-1.15837zm2.552909 0h41.882504l1.313454 1.15837h-41.216528zm43.898932 0h42.344988l.665976 1.15837h-41.679011zm43.97293 0h42.622478v1.15837h-41.956502zm44.102425 0h42.622478l-.665977 1.15837h-41.956501zm44.25042 0h42.344987l-1.313453 1.15837h-41.679011zm44.361415 0h41.882504l-1.979429 1.15837h-41.216528zm44.435413 0h41.327524l-2.645405 1.15837h-40.661548zm2.071926-1.15837 2.23842-1.15837h42.770473l-2.996893 1.15837zm4.328846-2.31675 2.534409-1.44796h44.305918l-3.385379 1.44796zm4.606335-2.60633 2.848898-1.59276h45.952359l-3.810864 1.59276zm4.920824-2.75113 3.200386-1.73756h47.709796l-4.273347 1.73756zm-2.552908 0h-47.191815l2.145923-1.73756h48.264777zm-43.658441-2.89593 2.404914-2.02715h50.151709l-3.607371 2.02715zm3.773865-3.18552 2.682404-2.31674h52.186636l-4.032856 2.31674zm4.069855-3.47511 3.015392-2.46154h54.388058l-4.532339 2.46154zm4.402842-3.61991 3.385379-2.89593h56.774473l-5.087318 2.89593zm4.77283-4.0543 3.792364-3.18552h59.36438l-5.697796 3.18552zm5.179815-4.34389 4.273347-3.61991h62.194779l-6.419271 3.61991zm-2.034927 0h-60.511339l2.145923-3.61991h62.657262zm-57.68094-4.77828 2.404914-3.9095h65.746652l-4.809829 3.9095zm3.107889-5.06788 2.719403-4.63348h69.15053l-5.438806 4.63348zm3.403878-5.79185 3.07089-5.21267h72.924396l-6.16028 5.21267zm3.773865-6.37104 3.496375-5.79186h77.123746l-6.99275 5.79186zm4.180851-6.95023 3.995857-6.66063h81.804079l-7.991715 6.66063zm-1.627942 0h-78.085711v-6.66063h82.081568zm-78.085711-7.819v-7.67421h87.35388l-4.587836 7.67421zm0-8.83258v-8.97738h93.347666l-5.290811 8.97738zm0-10.13575v-10.28054h100.192422l-6.16028 10.28054zm-1.479947 0h-94.032142l-6.16028-10.28054h100.192422zm-217.5337312-23.45701h107.8141492l7.214743 12.0181h-100.5994075zm15.7984358 13.17647h99.9149314l6.16028 10.28054h-93.7731508zm13.6895111 11.43891h93.0701763l5.290811 8.97738h-87.7793652zm11.9690725 10.13575h87.0763898l4.587836 7.67421h-82.5070528zm-72.83189885 8.83258h81.36009425l7.9917146 6.66063h-77.364237zm14.05949785 7.819h76.6797618l6.99275 5.79186h-73.164887zm12.5795508 6.95023h72.480411l6.16028 5.21267h-69.4095207zm11.3030963 6.37104h68.7065457l5.438806 4.63348h-65.9871431zm10.2301346 5.79186h65.3026681l4.809828 3.9095h-62.8792544zm-54.88753972 5.06787h61.63979862l6.4192707 3.61991h-59.5123746zm11.32159562 4.77828h58.8093997l5.6977965 3.18552h-56.9039677zm10.3596301 4.34389h56.2194921l5.0873183 2.89593h-54.5360523zm9.545659 4.0543h53.8330774l4.5323382 2.46154h-52.3346309zm8.8056855 3.61991h51.6316561l4.0328559 2.31674h-50.2997036zm8.1397093 3.47511h49.5967283l3.607372 2.02715h-48.4127714zm-42.67797574 3.18552h47.09931784l4.2733474 1.73756h-46.0263562zm8.80568554 2.89593h45.3418806l3.8108639 1.59276h-44.3984143zm8.2137066 2.75113h43.6954395l3.3853791 1.44796h-42.8629692zm7.6772258 2.60634h42.1599943l2.996893 1.15837h-41.4200207zm7.196243 2.31674h40.7170458l2.6454056 1.15837h-40.0510696zm434.6419771 1.15837h-40.069569l2.645406-1.15837h40.717045zm6.770758-2.31674h-41.420021l2.996893-1.15837h42.159995zm7.196243-2.31675h-42.862969l3.385379-1.44796h43.69544zm7.677226-2.60633h-44.398414l3.810864-1.59276h45.34188zm13.560016-4.48869-5.346309 1.73756h-46.026357l4.273348-1.73756zm-47.469305-1.15837h-48.394272l3.607372-2.02715h49.596728zm7.56623-3.18552h-50.281204l4.032856-2.31674h51.631656zm8.139709-3.47511h-52.334631l4.532338-2.46154h53.833078zm8.805686-3.61991h-54.517553l5.087318-2.89593h56.219492zm9.527159-4.0543h-56.903967l5.697796-3.18552h58.8094zm18.924824-7.9638-8.546694 3.61991h-59.493876l6.419271-3.61991zm-62.120781-1.15837h-62.879254l4.809828-3.9095h65.302668zm9.305168-5.06788h-65.987144l5.438806-4.63348h68.706546zm10.230134-5.79185h-69.391021l6.16028-5.21267h72.480411zm11.303097-6.37104h-73.164887l6.99275-5.79186h76.661262zm24.567122-13.61086-11.987572 6.66063h-77.364237l7.991715-6.66063zm-82.007571-1.15837h-82.507053l4.587836-7.67421h87.07639zm10.563123-8.83258h-87.779365l5.290811-8.97738h93.070176zm11.969072-10.13575h-93.754651l6.16028-10.28054h99.914931zm28.100497-23.45701-14.429485 12.0181h-100.599407l7.214742-12.0181zm-109.442092 0-7.214742 12.0181h-100.876897v-12.0181z" fill="#e0209e" transform="matrix(1 0 0 -1 -99 1188)"/></svg>