<svg height="128" viewBox="0 0 320 128" width="320" xmlns="http://www.w3.org/2000/svg"><path d="m149.474662 14.9140271-8.879683-14.9140271h-.813971l-.665976.26063348 8.731688 14.65339362h-108.5171246l-17.7593658-14.9140271h-1.0174636l-.5364809.40542986 17.2968823 14.50859724h-37.3131674v1.1583711h38.7006178l14.4294847 12.0180995h-53.1301025v1.1583711h54.4990536l12.3020606 10.280543h-66.8011142v1.158371h68.1885647l10.5816221 8.9773756h-78.7701868v1.158371h80.1391379l9.1756723 7.6742082h-82.04456985l-7.27024035-4.0977376v1.4190045l4.71733152 2.6787331h-4.71733152v1.158371h6.80775687l11.98757183 6.6606335h-18.7953287v1.158371h20.8672547l10.5076248 5.7918552h-31.3748795v1.1583711h33.4283061l9.2311703 5.2126696h-42.6594764v1.1583711h44.7499018l8.1582086 4.6334842h-52.9081104v1.158371h54.9800364l7.2147424 3.9095023h-62.1947788v1.4334841l8.0472126 3.3447964h-8.0472126v1.158371h10.8036142l7.6032284 3.1855204h-18.4068426v1.1583715h21.1817435l6.7707582 2.895927h-27.9525017v1.158371h30.7089033l6.0307846 2.461539h-36.7396879v1.158371h39.5145888l5.3833077 2.316742h-44.8978965v1.158371h47.6542981l4.7913288 2.027149h-47.78379339l-4.66183351-1.60724v1.259729l.90646763.347511h-.90646763v1.158371h4.36584408l5.34630906 1.737557h-9.71215314v1.158371h13.1530302l4.7543303 1.59276h-17.9073605v1.158371h21.3667369l4.2178494 1.447964h-25.5845863v1.158371h29.0439627l3.7368666 1.158371h-32.7808293v1.158371h36.258705l3.3113818 1.158371h-39.44059142l-.12949538-.01448v.608145.564706h517.981501v-.564706-.608145l-.129496.01448h-39.422092l3.311382-1.158371h36.258705v-1.158371h-32.799329l3.736867-1.158371h29.043963v-1.158371h-25.603086l4.217849-1.447964h21.385237v-1.158371h-17.907361l4.75433-1.59276h13.153031v-1.158371h-9.712153l5.346309-1.737557h4.365844v-1.158371h-.906468l.906468-.347511v-1.259729l-4.661834 1.60724h-47.802293l4.791329-2.027149h47.672798v-1.158371h-44.897897l5.383308-2.316742h39.514589v-1.158371h-36.758188l6.030785-2.461539h30.708903v-1.158371h-27.952501l6.770758-2.895927h21.200243v-1.1583715h-18.406843l7.603229-3.1855204h10.803614v-1.158371h-8.047213l8.047213-3.3447964v-1.4334841h-62.194779l7.214742-3.9095023h54.980037v-1.158371h-52.908111l8.158209-4.6334842h44.749902v-1.1583711h-42.677976l9.23117-5.2126696h33.446806v-1.1583711h-31.35638l10.507624-5.7918552h20.848756v-1.158371h-18.77683l11.987572-6.6606335h6.807757v-1.158371h-4.717332l4.717332-2.6787331v-1.4190045l-7.27024 4.0977376h-82.04457l9.175672-7.6742082h80.120639v-1.158371h-78.770187l10.581622-8.9773756h68.188565v-1.158371h-66.801115l12.302061-10.280543h54.499054v-1.1583711h-53.111603l14.429484-12.0180995h38.682119v-1.1583711h-37.313168l17.296883-14.50859724-.536481-.40542986h-1.017464l-17.759366 14.9140271h-108.498625l8.731688-14.65339362-.665976-.26063348h-.813971l-8.879683 14.9140271h-108.776115v-14.9140271h-1.479947v14.9140271zm108.776115 1.1583711v12.0180995h-100.876897l-7.214743-12.0180995zm0 34.7511312v7.6742082h-82.766044l-4.587836-7.6742082zm-88.056855-1.158371-5.290811-8.9773756h93.347666v8.9773756zm88.056855 9.9909502v6.6606335h-78.085711l-3.995858-6.6606335zm0 21.1402715v4.6334842h-66.708618l-2.719403-4.6334842zm-70.130996-1.1583711-3.07089-5.2126696h73.201886v5.2126696zm70.130996 6.9502263v3.9095023h-63.619228l-2.404914-3.9095023zm0 5.0678733v3.6199095h-60.788829l-2.145924-3.6199095zm0 4.7782805v3.1855204h-58.198922l-1.905432-3.1855204zm46.229849 25.7737559h-44.749902v-1.447964h45.582372zm2.478911-1.447964h45.323381l-1.683439 1.447964h-44.472412zm-94.291132 0h45.582372v1.447964h-44.749902zm-.795472 1.447964h-44.472412l-1.683439-1.447964h45.323381zm46.377844-13.755656v2.316742h-51.576158l-1.350452-2.316742zm-53.611086-1.158371-1.516945-2.461539h55.128031v2.461539zm53.611086 4.633484v2.027149h-49.689226l-1.202457-2.027149zm0 3.18552v1.737557h-47.931788l-1.072962-1.737557zm0 2.895928v1.59276h-46.285347l-.943466-1.59276zm1.479947 1.59276v-1.59276h47.228813l-.943466 1.59276zm0-2.751131v-1.737557h48.98625l-1.072961 1.737557zm0-2.895928v-2.027149h50.891682l-1.202457 2.027149zm0-3.18552v-2.316742h52.92661l-1.350452 2.316742zm0-3.475113v-2.461539h55.128031l-1.516946 2.461539zm0-3.61991v-2.895927h57.495946l-1.683439 2.895927zm-1.479947 0h-55.812507l-1.701939-2.895927h57.514446zm-59.826864-4.0542985h-57.921431l-3.792365-3.1855204h59.826864zm.684476 1.1583715 1.701939 2.895927h-55.535016l-3.385379-2.895927zm2.386415 4.054298 1.516946 2.461539h-53.352095l-3.015392-2.461539zm2.201421 3.61991 1.350452 2.316742h-51.298668l-2.682404-2.316742zm2.034927 3.475113 1.202458 2.027149h-49.411736l-2.404914-2.027149zm1.886933 3.18552 1.072962 1.737557h-47.654298l-2.127424-1.737557zm1.757437 2.895928.943467 1.59276h-45.989358l-1.905432-1.59276zm-47.080818 1.59276h-45.545374l-2.848898-1.59276h46.48884zm1.38745 1.158371 1.68344 1.447964h-44.009928l-2.53441-1.447964zm3.070891 2.606335 1.498446 1.158371h-42.56698l-2.23842-1.158371zm2.034927 0h43.769437l.739973 1.158371h-43.010964zm45.415878 0h44.046927v1.158371h-43.306954zm45.526874 0h44.046927l-.739974 1.158371h-43.306953zm45.693368 0h43.787936l-1.498446 1.158371h-43.029464zm45.804364 0h43.325453l-2.23842 1.158371h-42.585479zm1.387451-1.158371 1.683439-1.447964h44.860898l-2.534409 1.447964zm3.07089-2.606335 1.905432-1.59276h46.507339l-2.848898 1.59276zm-2.034927 0h-46.007857l.943466-1.59276h46.969823zm-44.361416-2.751131 1.072962-1.737557h48.70876l-2.145923 1.737557zm1.757437-2.895928 1.202457-2.027149h50.614193l-2.404915 2.027149zm1.886933-3.18552 1.350452-2.316742h52.649119l-2.682404 2.316742zm2.034927-3.475113 1.516946-2.461539h54.850541l-3.015392 2.461539zm2.201421-3.61991 1.70194-2.895927h57.218456l-3.385379 2.895927zm2.386415-4.0542985 1.905432-3.1855204h59.826864l-3.792365 3.1855204zm-1.627942 0h-58.198921v-3.1855204h60.104353zm-58.198921-4.3438914v-3.6199095h62.916253l-2.145923 3.6199095zm0-4.7782805v-3.9095023h66.024142l-2.404914 3.9095023zm0-5.0678733v-4.6334842h69.42802l-2.719403 4.6334842zm0-5.7918553v-5.2126696h73.201886l-3.070891 5.2126696zm0-6.3710407v-5.7918552h77.401236l-3.496376 5.7918552zm-1.479947 0h-73.904861l-3.496375-5.7918552h77.401236zm-79.713653-6.9502262h-77.826721l-7.9917144-6.6606335h81.8040784zm.684475 1.158371 3.496375 5.7918552h-73.62737l-6.99275-5.7918552zm4.19935 6.9502263 3.070891 5.2126696h-69.853506l-6.16028-5.2126696zm3.755366 6.3710407 2.719403 4.6334842h-66.431127l-5.438806-4.6334842zm3.422378 5.7918552 2.404914 3.9095023h-63.341738l-4.809828-3.9095023zm3.08939 5.0678733 2.145923 3.6199095h-60.511339l-4.273347-3.6199095zm-60.400343 3.6199095h-60.0488557l-6.4192707-3.6199095h62.1947784zm1.38745 1.158371 3.792365 3.1855204h-57.4589482l-5.6977965-3.1855204zm5.179815 4.3438919 3.385379 2.895927h-55.0725329l-5.0873183-2.895927zm4.77283 4.054298 3.015392 2.461539h-52.8896111l-4.5323381-2.461539zm4.402842 3.61991 2.682405 2.316742h-50.836185l-4.0328557-2.316742zm4.069855 3.475113 2.404914 2.027149h-48.967751l-3.607371-2.027149zm3.773865 3.18552 2.145924 1.737557h-47.191815l-3.200386-1.737557zm-47.5988 1.737557h-46.6368341l-4.2733474-1.737557h47.7097965zm2.071926 1.158371 2.848899 1.59276h-44.9903936l-3.8108639-1.59276zm4.920825 2.751131 2.534409 1.447964h-43.454948l-3.3853791-1.447964zm4.606335 2.606335 2.23842 1.158371h-42.0119995l-2.9968929-1.158371zm4.328845 2.316742 1.97943 1.158371h-40.6615481l-2.6454055-1.158371zm2.552909 0h41.882504l1.313454 1.158371h-41.216528zm43.898932 0h42.344988l.665976 1.158371h-41.679011zm43.97293 0h42.622478v1.158371h-41.956502zm44.102425 0h42.622478l-.665977 1.158371h-41.956501zm44.25042 0h42.344987l-1.313453 1.158371h-41.679011zm44.361415 0h41.882504l-1.979429 1.158371h-41.216528zm44.435413 0h41.327524l-2.645405 1.158371h-40.661548zm2.071926-1.158371 2.23842-1.158371h42.770473l-2.996893 1.158371zm4.328846-2.316742 2.534409-1.447964h44.305918l-3.385379 1.447964zm4.606335-2.606335 2.848898-1.59276h45.952359l-3.810864 1.59276zm4.920824-2.751131 3.200386-1.737557h47.709796l-4.273347 1.737557zm-2.552908 0h-47.191815l2.145923-1.737557h48.264777zm-43.658441-2.895928 2.404914-2.027149h50.151709l-3.607371 2.027149zm3.773865-3.18552 2.682404-2.316742h52.186636l-4.032856 2.316742zm4.069855-3.475113 3.015392-2.461539h54.388058l-4.532339 2.461539zm4.402842-3.61991 3.385379-2.895927h56.774473l-5.087318 2.895927zm4.77283-4.0542985 3.792364-3.1855204h59.36438l-5.697796 3.1855204zm5.179815-4.3438914 4.273347-3.6199095h62.194779l-6.419271 3.6199095zm-2.034927 0h-60.511339l2.145923-3.6199095h62.657262zm-57.68094-4.7782805 2.404914-3.9095023h65.746652l-4.809829 3.9095023zm3.107889-5.0678733 2.719403-4.6334842h69.15053l-5.438806 4.6334842zm3.403878-5.7918553 3.07089-5.2126696h72.924396l-6.16028 5.2126696zm3.773865-6.3710407 3.496375-5.7918552h77.123746l-6.99275 5.7918552zm4.180851-6.9502262 3.995857-6.6606335h81.804079l-7.991715 6.6606335zm-1.627942 0h-78.085711v-6.6606335h82.081568zm-78.085711-7.8190045v-7.6742082h87.35388l-4.587836 7.6742082zm0-8.8325792v-8.9773756h93.347666l-5.290811 8.9773756zm0-10.1357466v-10.280543h100.192422l-6.16028 10.280543zm-1.479947 0h-94.032142l-6.16028-10.280543h100.192422zm-217.5337312-23.4570136h107.8141492l7.214743 12.0180995h-100.5994075zm15.7984358 13.1764706h99.9149314l6.16028 10.280543h-93.7731508zm13.6895111 11.438914h93.0701763l5.290811 8.9773756h-87.7793652zm11.9690725 10.1357466h87.0763898l4.587836 7.6742082h-82.5070528zm-72.83189885 8.8325792h81.36009425l7.9917146 6.6606335h-77.364237zm14.05949785 7.8190045h76.6797618l6.99275 5.7918552h-73.164887zm12.5795508 6.9502263h72.480411l6.16028 5.2126696h-69.4095207zm11.3030963 6.3710407h68.7065457l5.438806 4.6334842h-65.9871431zm10.2301346 5.7918552h65.3026681l4.809828 3.9095023h-62.8792544zm-54.88753972 5.0678733h61.63979862l6.4192707 3.6199095h-59.5123746zm11.32159562 4.7782805h58.8093997l5.6977965 3.1855204h-56.9039677zm10.3596301 4.3438919h56.2194921l5.0873183 2.895927h-54.5360523zm9.545659 4.054298h53.8330774l4.5323382 2.461539h-52.3346309zm8.8056855 3.61991h51.6316561l4.0328559 2.316742h-50.2997036zm8.1397093 3.475113h49.5967283l3.607372 2.027149h-48.4127714zm-42.67797574 3.18552h47.09931784l4.2733474 1.737557h-46.0263562zm8.80568554 2.895928h45.3418806l3.8108639 1.59276h-44.3984143zm8.2137066 2.751131h43.6954395l3.3853791 1.447964h-42.8629692zm7.6772258 2.606335h42.1599943l2.996893 1.158371h-41.4200207zm7.196243 2.316742h40.7170458l2.6454056 1.158371h-40.0510696zm434.6419771 1.158371h-40.069569l2.645406-1.158371h40.717045zm6.770758-2.316742h-41.420021l2.996893-1.158371h42.159995zm7.196243-2.316742h-42.862969l3.385379-1.447964h43.69544zm7.677226-2.606335h-44.398414l3.810864-1.59276h45.34188zm13.560016-4.488688-5.346309 1.737557h-46.026357l4.273348-1.737557zm-47.469305-1.158371h-48.394272l3.607372-2.027149h49.596728zm7.56623-3.18552h-50.281204l4.032856-2.316742h51.631656zm8.139709-3.475113h-52.334631l4.532338-2.461539h53.833078zm8.805686-3.61991h-54.517553l5.087318-2.895927h56.219492zm9.527159-4.0542985h-56.903967l5.697796-3.1855204h58.8094zm18.924824-7.9638009-8.546694 3.6199095h-59.493876l6.419271-3.6199095zm-62.120781-1.158371h-62.879254l4.809828-3.9095023h65.302668zm9.305168-5.0678733h-65.987144l5.438806-4.6334842h68.706546zm10.230134-5.7918553h-69.391021l6.16028-5.2126696h72.480411zm11.303097-6.3710407h-73.164887l6.99275-5.7918552h76.661262zm24.567122-13.6108597-11.987572 6.6606335h-77.364237l7.991715-6.6606335zm-82.007571-1.158371h-82.507053l4.587836-7.6742082h87.07639zm10.563123-8.8325792h-87.779365l5.290811-8.9773756h93.070176zm11.969072-10.1357466h-93.754651l6.16028-10.280543h99.914931zm28.100497-23.4570136-14.429485 12.0180995h-100.599407l7.214742-12.0180995zm-109.442092 0-7.214742 12.0180995h-100.876897v-12.0180995z" fill="#e0209e" transform="translate(-99)"/></svg>