<svg height="357" viewBox="0 0 1439 357" width="1439" xmlns="http://www.w3.org/2000/svg"><path d="m1025.42056 1455.46893 24.68483 41.53107h2.26278l1.85136-.72579-24.27342-40.80528h301.6178l49.36966 41.53107h2.82847l1.49138-1.129-48.084-40.40207h103.77915v-3.22572h-107.58473l-40.11285-33.46678h147.69758v-3.22572h-151.50316l-34.19878-28.62821h185.70194v-3.22571h-189.55894l-29.41609-24.99929h218.97503v-3.22571h-222.78061l-25.50766-21.37036h228.07757l20.2107 11.41096v-3.9515l-13.11381-7.45946h13.11381v-3.22572h-18.92504l-33.32452-18.54785h52.24956v-3.22572h-58.00935l-29.21039-16.12857h87.21974v-3.22571h-92.92811l-25.66194-14.51572h118.59005v-3.22571h-124.40127l-22.67919-12.90286h147.08046v-3.22571h-152.84025l-20.05643-10.88679h172.89668v-3.99182l-22.37063-9.31425h22.37063v-3.22571h-30.03321l-21.13639-8.87072h51.1696v-3.22571h-58.88361l-18.82218-8.06429h77.70579v-3.22571h-85.36838l-16.76511-6.85465h102.13349v-3.22571h-109.8475l-14.96518-6.45143h124.81268v-3.22571h-132.47527l-13.31952-5.645h132.88668l12.95954 4.47568v-3.50797l-2.51991-.96771h2.51991v-3.22572h-12.13671l-14.86233-4.83857h26.99904v-3.22571h-36.56441l-13.21667-4.43536h49.78108v-3.22571h-59.39788l-11.72529-4.03215h71.07174v-3.22571h-80.73997l-10.3882-3.22572h91.12817v-3.22571h-100.7964l-9.20538-3.22571h109.59037l.35999.04032v-1.6935-1.57254h-1439.89715v1.57254 1.6935l.35998714-.04032h109.59037186l-9.205386 3.22571h-100.744973v3.22571h91.1796007l-10.3882004 3.22572h-80.7914003v3.22571h71.1746009l-11.7252955 4.03215h-59.4493054v3.22571h49.7810792l-13.2166708 4.43536h-36.5644084v3.22571h26.9990357l-14.8623263 4.83857h-12.1367094v3.22572h2.51991l-2.51991.96771v3.50797l12.9595372-4.47568h132.8866828l-13.319525 5.645h-132.526695v3.22571h124.812685l-14.96518 6.45143h-109.847505v3.22571h102.184922l-16.7651156 6.85465h-85.4198064v3.22571h77.7057962l-18.8221849 8.06429h-58.8836113v3.22571h51.1696011l-21.136388 8.87072h-30.0332131v3.22571h22.3706296l-22.3706296 9.31425v3.99182h172.896682l-20.056426 10.88679h-152.840256v3.22571h147.080461l-22.67919 12.90286h-124.401271v3.22571h118.641477l-25.6619406 14.51572h-92.9795364v3.22571h87.1683154l-29.2103853 16.12857h-57.9579301v3.22572h52.1981358l-33.3245241 18.54785h-18.8736117v3.22572h13.1138174l-13.1138174 7.45946v3.9515l20.2107068-11.41096h228.0775682l-25.50766 21.37036h-222.780615v3.22571h218.975037l-29.416093 24.99929h-189.558944v3.22571h185.701939l-34.198778 28.62821h-151.503161v3.22572h147.646155l-40.112853 33.46678h-107.533302v3.22572h103.727724l-48.083997 40.40207 1.4913753 1.129h2.8284704l49.3696653-41.53107h301.617799l-24.273418 40.80528 1.851362.72579h2.262776l24.684833-41.53107h302.389201v41.53107h4.114138v-41.53107zm-302.389204-3.22572v-33.46678h280.429984l20.05643 33.46678zm0-96.77142v-21.37036h230.083211l12.753831 21.37036zm244.791257 3.22571 14.708047 24.99929h-259.499304v-24.99929zm-244.791257-27.82179v-18.54785h217.072247l11.108175 18.54785zm0-58.86928v-12.90286h185.444806l7.55973 12.90286zm194.958751 3.22571 8.536838 14.51572h-203.495589v-14.51572zm-194.958751-19.35428v-10.88679h176.856541l6.685475 10.88679zm0-14.1125v-10.08036h168.98825l5.965502 10.08036zm0-13.30607v-8.87072h161.788508l5.296953 8.87072zm-128.51541-71.77215h124.401271v4.03215h-126.715474zm-6.891183 4.03215h-125.9955l4.679833-4.03215h123.62987zm262.122067 0h-126.715474v-4.03215h124.401271zm2.21135-4.03215h123.62987l4.679833 4.03215h-125.9955zm-128.926824 38.30536v-6.45143h143.377737l3.754151 6.45143zm149.034677 3.22571 4.216993 6.85465h-153.25167v-6.85465zm-149.034677-12.90285v-5.645h138.13221l3.342737 5.645zm0-8.87072v-4.83857h133.24667l2.98275 4.83857zm0-8.06428v-4.43536h128.66969l2.622764 4.43536zm-4.114139-4.43536v4.43536h-131.292454l2.622764-4.43536zm0 7.66107v4.83857h-136.177993l2.98275-4.83857zm0 8.06429v5.645h-141.474947l3.342738-5.645zm0 8.87071v6.45143h-147.131888l3.754152-6.45143zm0 9.67714v6.85465h-153.251669l4.216992-6.85465zm0 10.08036v8.06429h-159.834291l4.679832-8.06429zm4.114139 0h155.154459l4.679833 8.06429h-159.834292zm166.31406 11.29h161.017104l10.54248 8.87072h-166.314057zm-1.902789-3.22571-4.73126-8.06429h154.383063l9.41109 8.06429zm-6.634049-11.29-4.216992-6.85465h148.314704l8.38256 6.85465zm-6.119781-10.08036-3.754152-6.45143h142.606335l7.45688 6.45143zm-5.656941-9.67714-3.342738-5.645h137.360812l6.68547 5.645zm-5.245527-8.87072-2.982751-4.83857h132.475269l5.965501 4.83857zm-4.88554-8.06428-2.622763-4.43536h127.898289l5.296954 4.43536zm130.88104-4.43536h126.612621l7.91972 4.43536h-129.235387zm-3.857005-3.22571-4.679833-4.03215h122.344199l7.04547 4.03215zm-8.536838-7.25786-4.165565-3.22572h118.384339l6.22264 3.22572zm-5.656941 0h-121.675654l-2.05707-3.22572h119.618586zm-126.252634 0h-122.447055v-3.22572h120.389986zm-126.561194 0h-122.447055l2.057069-3.22572h120.389986zm-127.024035 0h-121.675654l4.165565-3.22572h119.618586zm-127.332595 0h-120.441413l6.222635-3.22572h118.384344zm-3.857005 3.22571-4.679833 4.03215h-124.709832l7.045463-4.03215zm-8.536838 7.25786-5.296954 4.43536h-129.235384l7.919717-4.43536zm5.656941 0h127.898289l-2.622763 4.43536h-130.57248zm123.32131 7.66107-2.982751 4.83857h-135.406592l5.965501-4.83857zm-4.88554 8.06429-3.342738 5.645h-140.703546l6.685475-5.645zm-5.245527 8.87071-3.754152 6.45143h-146.360487l7.456877-6.45143zm-5.656941 9.67714-4.216992 6.85465h-152.480269l8.382558-6.85465zm-6.119781 10.08036-4.679833 8.06429h-159.114317l9.411092-8.06429zm-6.634049 11.29-5.296954 8.87072h-166.31406l10.542481-8.87072zm4.525553 0h161.788507v8.87072h-167.085461zm161.788507 12.09643v10.08036h-174.902325l5.965502-10.08036zm0 13.30607v10.88679h-183.542016l6.685475-10.88679zm0 14.1125v12.90286h-193.004535l7.55973-12.90286zm0 16.12857v14.51572h-203.495589l8.536838-14.51572zm0 17.74143v16.12857h-215.169458l9.719653-16.12857zm4.114139 0h205.398379l9.719653 16.12857h-215.118032zm221.5978 19.35429h216.300844l22.21635 18.54785h-227.409019zm-1.902789-3.22572-9.719653-16.12857h204.678406l19.4393 16.12857zm-11.673869-19.35428-8.536838-14.51572h194.18735l17.1251 14.51572zm-10.439627-17.74143-7.55973-12.90286h184.724829l15.11946 12.90286zm-9.513946-16.12857-6.685475-10.88679h176.08514l13.37095 10.88679zm-8.588265-14.1125-5.965501-10.08036h168.216851l11.87957 10.08036zm167.90829-10.08036h166.93118l17.84508 10.08036h-172.89668zm-3.85701-3.22571-10.54248-8.87072h159.73144l15.83944 8.87072zm-14.39948-12.09643-9.41109-8.06429h153.14881l14.14235 8.06429zm-13.2681-11.29-8.38256-6.85465h147.02904l12.59955 6.85465zm-12.23956-10.08036-7.45688-6.45143h141.32067l11.21103 6.45143zm-11.31388-9.67714-6.68548-5.645h136.07514l10.02821 5.645zm-10.49106-8.87072-5.965499-4.83857h131.189599l8.89683 4.83857zm132.32099-4.83857h129.6468l11.87958 4.83857h-132.62955zm-5.75979-3.22571-7.91972-4.43536h125.06982l10.59391 4.43536zm-13.67951-7.66107-7.04547-4.03215h120.8014l9.4111 4.03215zm-12.80526-7.25786-6.22264-3.22572h116.79012l8.33113 3.22572zm-12.03386-6.45143-5.50266-3.22571h113.03596l7.35403 3.22571zm-7.09689 0h-116.430124l-3.651299-3.22571h114.578763zm-122.035639 0h-117.715795l-1.851363-3.22571h115.864434zm-122.241348 0h-118.487197v-3.22571h116.635834zm-122.601336 0h-118.487197l1.851363-3.22571h116.635834zm-123.012749 0h-117.715796l3.651298-3.22571h115.864433zm-123.32131 0h-116.430128l5.502661-3.22571h114.578765zm-123.527017 0h-114.887326l7.354023-3.22571h113.035963zm-5.759794 3.22571-6.222635 3.22572h-118.950038l8.331131-3.22572zm-12.033856 6.45143-7.045463 4.03215h-123.16703l9.411093-4.03215zm-12.805257 7.25786-7.919717 4.43536h-127.74401l10.593908-4.43536zm-13.679512 7.66107-8.896825 4.83857h-132.629549l11.879576-4.83857zm7.09689 0h131.1896l-5.965501 4.83857h-134.172351zm121.367094 8.06429-6.685476 5.645h-139.366451l10.028213-5.645zm-10.491054 8.87071-7.456877 6.45143h-145.126245l11.211028-6.45143zm-11.313882 9.67714-8.382558 6.85465h-151.1946l12.59955-6.85465zm-12.239563 10.08036-9.411092 8.06429h-157.828649l14.142352-8.06429zm-13.268097 11.29-10.542481 8.87072h-165.028392l15.839435-8.87072zm-14.399486 12.09643-11.879576 10.08036h-172.896682l17.845077-10.08036zm5.656941 0h168.216849l-5.965501 10.08036h-174.130924zm160.348559 13.30607-6.685476 10.88679h-182.822042l13.370951-10.88679zm-8.639692 14.1125-7.55973 12.90286h-192.233134l15.11946-12.90286zm-9.462519 16.12857-8.536838 14.51572h-202.775615l17.125103-14.51572zm-10.491054 17.74143-9.719653 16.12857h-214.398057l19.439306-16.12857zm-11.622442 19.35429-11.108175 18.54785h-227.460447l22.216349-18.54785zm4.525553 0h217.072247v18.54785h-228.180422zm217.072247 21.77357v21.37036h-242.837041l12.75383-21.37036zm0 24.59607v24.99929h-259.499303l14.708046-24.99929zm0 28.225v28.62821h-278.527195l17.125102-28.62821zm4.114139 0h261.402093l17.125101 28.62821h-278.527194zm604.726974 65.32071h-299.71501l-20.05643-33.46678h279.65859zm-43.91843-36.6925h-277.7558l-17.125099-28.62821h260.682119zm-38.05579-31.85392h-258.727898l-14.708046-24.99929h244.019854zm-33.27309-28.225h-242.11707l-12.75383-21.37036h229.36324zm202.46705-24.59608h-226.17478l-22.21635-18.54785h215.06661zm-39.08432-21.77357h-213.16381l-19.43931-16.12857h203.39274zm-34.97018-19.35428h-201.48994l-17.12511-14.51572h192.90169zm-31.42173-17.74143h-190.99889l-15.11946-12.90286h183.43916zm-28.43899-16.12857h-181.53637l-13.37095-10.88679h174.79947zm152.58313-14.1125h-171.35388l-17.84508-10.08036h165.38838zm-31.47316-13.30607h-163.48559l-15.83944-8.87072h158.18864zm-28.79898-12.09643h-156.28584l-14.14236-8.06429h151.60602zm-26.53619-11.29h-149.6518l-12.59955-6.85465h145.48623zm-24.47913-10.08036h-143.53201l-11.21103-6.45143h139.77786zm-22.62776-9.67714h-137.87508l-10.02821-5.645h134.53234zm118.64148-8.87072h-130.93247l-11.87958-4.83857h127.94972zm-24.47913-8.06428h-126.04693l-10.5939-4.43536h123.42416zm-22.83347-7.66107h-121.46995l-9.41109-4.03215h119.15575zm-21.34209-7.25786h-117.20153l-8.33113-3.22572h115.14446zm-20.005-6.45143h-113.19025l-7.35402-3.22571h111.39031zm-1208.271137-3.22571h111.390307l-7.354023 3.22571h-113.24167zm-18.822185 6.45142h115.144459l-8.331131 3.22572h-117.2015285zm-20.0049999 6.45143h119.1557449l-9.411093 4.03215h-121.4699475zm-21.342095 7.25786h123.4241639l-10.593908 4.43536h-126.0469267zm-37.6957965 12.49964 14.8623263-4.83857h127.9497161l-11.879576 4.83857zm131.9610014 3.22572h134.532338l-10.028213 5.645h-137.823649zm-21.033535 8.87071h139.777866l-11.211029 6.45143h-143.48059zm-22.627763 9.67714h145.486233l-12.59955 6.85465h-149.6517984zm-24.4791256 10.08036h151.5545876l-14.142352 8.06429h-156.2344205zm-26.4847684 11.29h158.188636l-15.839434 8.87072h-163.48559zm-52.60954966 22.17679 23.75915146-10.08036h165.3883792l-17.845077 10.08036zm172.69097566 3.22571h174.799471l-13.370951 10.88679h-181.536374zm-25.867648 14.1125h183.439163l-15.11946 12.90286h-190.998893zm-28.438984 16.12857h192.901682l-17.125103 14.51572h-201.43852zm-31.4217352 17.74143h203.3927362l-19.439306 16.12857h-213.1638155zm-68.2947037 37.90214 33.3245241-18.54785h215.0666048l-22.216349 18.54785zm227.9747149 3.22572h229.363237l-12.75383 21.37036h-242.117067zm-29.364665 24.59607h244.019856l-14.708046 24.99929h-258.727903zm-33.273098 28.225h260.630692l-17.125103 28.62821h-277.704367zm-78.11721 65.32071 40.112853-33.46678h279.658584l-20.056427 33.46678zm304.240563 0 20.056427-33.46678h280.429984v33.46678z" fill="#e0209e" opacity=".598098" transform="translate(-1 -1140)"/></svg>