<svg height="50" viewBox="0 0 51 50" width="51" xmlns="http://www.w3.org/2000/svg" xmlns:xlink="http://www.w3.org/1999/xlink"><defs><path id="a" d="m20.4 0c11.2590471 0 20.4 8.96171856 20.4 20 0 11.0382814-9.1409529 20-20.4 20-11.25904707 0-20.4-8.9617186-20.4-20 0-11.03828144 9.14095293-20 20.4-20zm5.4543993 11.5800781c-2.7071438 0-4.9054018 2.1551564-4.9054018 4.8092189 0 .3791406.0407201.7482811.132281 1.0974999-4.081036-.1995313-7.6939876-2.1152345-10.1160893-5.02875-.4173234.7084375-.6615655 1.5365626-.6615655 2.4146094 0 1.66625.8650874 3.1429688 2.188139 4.0010157-.8040469-.0199219-1.5571734-.2394531-2.2186594-.5985937v.0598435c0 2.3347657 1.6893752 4.2703904 3.9385548 4.7194529-.4070437.1096875-.8446875.16961-1.2924515.16961-.3155625 0-.6208453-.0299219-.9261282-.0898437.6207657 1.9157031 2.4323014 3.302656 4.5797203 3.3424997-1.6792547 1.2871875-3.7960734 2.0554695-6.0961735 2.0554695-.3969235 0-.78364689-.0200014-1.17037032-.0698452 2.14741882 1.3768751 4.73240152 2.1750794 7.50058592 2.1750794 9.0272387 0 13.9631624-7.3335944 13.9631624-13.6892977 0-.2095313-.0000002-.4190625-.0102002-.6186719.9566485-.6784375 1.7912159-1.5265623 2.4527019-2.4943748-.8752078.3791407-1.8217361.6385938-2.8191049.7582813 1.0177688-.5986719 1.7912157-1.5365626 2.1576189-2.6639844-.9465281.54875-1.994738.9478124-3.1142677 1.1673437-.8956078-.9378907-2.1677394-1.5165625-3.5823519-1.5165625z"/><filter id="b" height="137.5%" width="136.8%" x="-18.4%" y="-18.8%"><feOffset dx="0" dy="0" in="SourceAlpha" result="shadowOffsetOuter1"/><feGaussianBlur in="shadowOffsetOuter1" result="shadowBlurOuter1" stdDeviation="2.5"/><feColorMatrix in="shadowBlurOuter1" type="matrix" values="0 0 0 0 0.138029418   0 0 0 0 0.746320199   0 0 0 0 0.609765126  0 0 0 1 0"/></filter></defs><g fill="none" fill-rule="evenodd" transform="translate(5 5)"><use fill="#000" filter="url(#b)" xlink:href="#a"/><use fill="#23be9b" fill-rule="evenodd" xlink:href="#a"/></g></svg>