<?xml version="1.0" encoding="UTF-8"?>
<svg width="25px" height="35px" viewBox="0 0 25 35" version="1.1" xmlns="http://www.w3.org/2000/svg" xmlns:xlink="http://www.w3.org/1999/xlink">
    <title>Combined Shape Copy</title>
    <g id="Web" stroke="none" stroke-width="1" fill="none" fill-rule="evenodd">
        <g id="M_EuroRust-'23_vs.2c" transform="translate(-101.000000, -3467.000000)" fill="#FFFFFF">
            <g id="Group-12-Copy-2" transform="translate(71.000000, 3459.000000)">
                <path d="M42.5,8 C49.4035594,8 55,13.5764797 55,20.4554161 C55,24.8404022 51.190525,32.1688386 43.5715751,42.4407256 C43.496039,42.5474222 43.4033417,42.6405624 43.2985645,42.7186958 C42.7092803,43.1581306 41.8753388,43.0366538 41.435904,42.4473696 C33.8114206,32.1725812 30,24.8415218 30,20.4554161 C30,13.5764797 35.5964406,8 42.5,8 Z M42.5,13.4554161 C38.6201685,13.4554161 35.4749437,16.5894229 35.4749437,20.4554161 C35.4749437,24.3214094 38.6201685,27.4554161 42.5,27.4554161 C46.3798315,27.4554161 49.5250563,24.3214094 49.5250563,20.4554161 C49.5250563,16.5894229 46.3798315,13.4554161 42.5,13.4554161 Z" id="Combined-Shape-Copy"></path>
            </g>
        </g>
    </g>
</svg>