<?xml version="1.0" encoding="UTF-8"?>
<svg width="42px" height="42px" viewBox="0 0 42 42" version="1.1" xmlns="http://www.w3.org/2000/svg" xmlns:xlink="http://www.w3.org/1999/xlink">
    <title>Group 36</title>
     <defs>
    <linearGradient id="holoGradient" gradientTransform="rotate(65)">
        <stop offset="0%" stop-color="#59DECB" /> 
        <stop offset="60%" stop-color="#3B63E7" />
        <stop offset="100%" stop-color="#DE59CC" />
    </linearGradient>

    </defs>
    <g id="Web" stroke="none" stroke-width="1" fill="none" fill-rule="evenodd">
        <g id="Group-36">
            <g id="Group-14-Copy-3" fill="url(#holoGradient)">
                <circle id="Oval" class="icon-oval" cx="21" cy="21" r="21"></circle>
            </g>
            <g id="Group-9" transform="translate(8, 11)">
                <path class="icon-inner" d="M25.38,0 C26.2747013,-1.53161812e-15 27,0.725298705 27,1.62 L27,18.38 C27,19.2747013 26.2747013,20 25.38,20 L1.62,20 C0.725298705,20 -1.67259951e-16,19.2747013 0,18.38 L0,1.62 C-1.09569308e-16,0.725298705 0.725298705,3.31613913e-16 1.62,0 L25.38,0 Z M7.33687302,12.0720132 C3.94124992,15.1427472 3.14227978,15.8652729 2.55715165,16.3944167 L2.42483351,16.5140748 C2.38126976,16.5534704 2.33788676,16.5927026 2.29359996,16.6327521 L2.20349991,16.7142314 C2.14220134,16.769665 2.07801058,16.8277141 2.00835677,16.8907035 C1.67655753,17.1907566 1.65082219,17.7029741 1.95087529,18.0347734 C2.25092839,18.3665726 2.76314592,18.392308 3.09494516,18.0922549 C3.9830312,17.2891398 3.9830312,17.2891398 8.42346141,13.2735646 C8.75526066,12.9735115 8.78099599,12.4612939 8.48094289,12.1294947 C8.1808898,11.7976954 7.66867226,11.7719601 7.33687302,12.0720132 Z M19.663127,12.0720132 C19.3313277,11.7719601 18.8191102,11.7976954 18.5190571,12.1294947 C18.219004,12.4612939 18.2447393,12.9735115 18.5765386,13.2735646 C23.0169688,17.2891398 23.0169688,17.2891398 23.9050548,18.0922549 C24.2368541,18.392308 24.7490716,18.3665726 25.0491247,18.0347734 C25.3491778,17.7029741 25.3234425,17.1907566 24.9916432,16.8907035 C24.9219894,16.8277141 24.8577987,16.769665 24.7965001,16.7142314 L24.7064,16.6327521 C24.6621132,16.5927026 24.6187302,16.5534704 24.5751665,16.5140748 L24.4428484,16.3944167 C23.8577202,15.8652729 23.0587501,15.1427472 19.663127,12.0720132 Z M24.0021603,1.90774512 C21.0939157,4.5377325 19.8563647,5.65687607 18.7189908,6.68542745 L18.2149807,7.14121448 C17.5381443,7.75329197 16.8147812,8.40744457 15.7180694,9.39922432 C14.3870466,10.6028965 13.8259137,11.1103409 13.5002873,11.4048118 C13.1752295,11.1113747 12.6143102,10.6041235 11.2819306,9.39922432 C10.1852188,8.40744457 9.46185566,7.75329197 8.78501929,7.14121448 L8.28100919,6.68542745 C7.14363526,5.65687607 5.90608433,4.5377325 2.99783965,1.90774512 C2.6660404,1.60769202 2.15382287,1.63342736 1.85376977,1.96522661 C1.55371668,2.29702585 1.57945201,2.80924338 1.91125126,3.10929648 C4.81949594,5.73928386 6.05704687,6.85842743 7.1944208,7.88697881 L7.44615988,8.1146318 C8.20026007,8.7965806 8.96154139,9.48502346 10.1953422,10.6007757 C11.993105,12.2265307 12.3863656,12.5821646 12.6918448,12.858416 L12.7641486,12.9238018 C12.8241208,12.978036 12.8847953,13.0329052 12.9567058,13.0979354 C12.9592483,13.1002347 12.9618014,13.1025148 12.964365,13.1047758 L12.8992243,13.0404539 C12.9348628,13.079863 12.9734944,13.1149544 13.0144612,13.145695 C13.0284793,13.1560889 13.0425886,13.1659827 13.0569206,13.1753711 C13.0702962,13.1842193 13.0839366,13.1925698 13.0977675,13.2004831 C13.1135824,13.2094888 13.1294765,13.2178951 13.1455677,13.2257324 C13.1618777,13.233667 13.1784676,13.2410457 13.1952465,13.2478433 C13.2121736,13.2547577 13.2295399,13.2611201 13.2470557,13.2668654 C13.2598699,13.2709918 13.272473,13.2747771 13.2851475,13.2782505 C13.3054054,13.2838903 13.3261481,13.2887095 13.3470086,13.2927007 C13.3674905,13.2965427 13.3878093,13.2996332 13.4082066,13.3019518 C13.4196114,13.303299 13.4313268,13.304372 13.4430542,13.3051905 C13.4620218,13.3064856 13.4808037,13.3071506 13.4995922,13.3071658 C13.5185255,13.3071742 13.5376436,13.3065091 13.5567172,13.3051726 C13.5686732,13.304372 13.5803886,13.303299 13.5920832,13.3019709 C13.6121907,13.2996332 13.6325095,13.2965427 13.6527021,13.2926825 C13.6738519,13.2887095 13.6945946,13.2838903 13.7151673,13.2782406 C13.727527,13.2747771 13.7401301,13.2709918 13.7526497,13.2668954 C13.7704601,13.2611201 13.7878264,13.2547577 13.8050099,13.2477769 C13.8215324,13.2410457 13.8381223,13.233667 13.8544917,13.2257088 C13.8705235,13.2178951 13.8864176,13.2094888 13.9020854,13.2005119 C13.9160634,13.1925698 13.9297038,13.1842193 13.9431331,13.1754328 C13.9574114,13.1659827 13.9715207,13.1560889 13.9853831,13.1456886 L14.0215695,13.117016 L14.035635,13.1047758 C14.0381986,13.1025148 14.0407517,13.1002347 14.0432942,13.0979354 C14.1152047,13.0329052 14.1758792,12.978036 14.2358514,12.9238018 L14.3081552,12.858416 C14.6136344,12.5821646 15.006895,12.2265307 16.8046578,10.6007757 C18.0384586,9.48502346 18.7997399,8.7965806 19.5538401,8.1146318 L19.8055792,7.88697881 C20.9429531,6.85842743 22.1805041,5.73928386 25.0887487,3.10929648 C25.420548,2.80924338 25.4462833,2.29702585 25.1462302,1.96522661 C24.8461771,1.63342736 24.3339596,1.60769202 24.0021603,1.90774512 Z" id="Combined-Shape" fill="#FFFFFF"></path>
                <g id="Group-8" transform="translate(2.4545, 2.5085)"></g>
            </g>
        </g>
    </g>
</svg>