<?xml version="1.0" encoding="UTF-8"?>
<svg width="210px" height="57px" viewBox="0 0 210 57" version="1.1" xmlns="http://www.w3.org/2000/svg" xmlns:xlink="http://www.w3.org/1999/xlink">
    <title>rustfest-logo copy</title>
    <g id="Webdesign" stroke="none" stroke-width="1" fill="none" fill-rule="evenodd">
        <g id="Holographic" transform="translate(-856, -1227)" fill="#FFFFFF">
            <g id="Group-10" transform="translate(666, 1184)">
                <g id="rustfest-logo-copy" transform="translate(190, 43)">
                    <path d="M189.5,13.4998 L189.5,13.5002 L189.5,13.4998 Z" id="Path"></path>
                    <g id="Group" transform="translate(66, 18)">
                        <path d="M8.50401645,0.287375169 L0,0.287375169 L0,17.4543829 C0,19.8061427 1.91073887,21.7126248 4.26774966,21.7126248 L5.55761284,21.7126248 L5.55761284,14.3258805 L7.88799865,14.3258805 L11.5896173,21.7126248 L17.4114246,21.7126248 L17.4114246,21.1855063 L13.1227487,12.9229342 C14.2971435,12.3280499 15.1820268,11.5604422 15.7610499,10.6138658 C16.386877,9.6063283 16.6912424,8.35028536 16.6912424,6.86111711 C16.6912424,4.78377588 15.9633997,3.14966168 14.4926736,1.99382253 C13.0319435,0.845813261 11.0255415,0.287375169 8.50401645,0.287375169 L8.50401645,0.287375169 Z M5.55761284,9.93033612 L5.55761284,4.6829196 L8.50401645,4.6829196 C9.40954581,4.6829196 10.0539636,4.92825578 10.4820184,5.38043124 L10.4836066,5.38220228 C10.9167996,5.83130172 11.1480164,6.46645397 11.1480164,7.32102924 C11.1480164,8.17560451 10.9167061,8.81084997 10.4836066,9.25994941 C10.0667623,9.69245696 9.42299842,9.93033612 8.50401645,9.93033612 L5.55761284,9.93033612 Z" id="Shape"></path>
                        <g transform="translate(19.1705, 0)" id="Path">
                            <path d="M5.58638649,0.287375169 L0,0.287375169 L0,14.3340833 L0,14.3372525 C0.0296144439,16.6937662 0.800057091,18.5756401 2.32982529,19.9523005 C3.85725797,21.3269101 5.93522035,22 8.53250984,22 C10.2523897,22 11.7555329,21.6978972 13.0344658,21.0842771 C14.3162014,20.4697249 15.3055294,19.5739496 15.9940418,18.3981629 L15.994976,18.3974172 C16.6834885,17.2128685 17.0226066,15.8217601 17.0226066,14.2335066 L17.0226066,0.287375169 L11.4649937,0.287375169 L11.4649937,14.2047039 C11.4649937,15.4732373 11.1996782,16.3297701 10.726034,16.8361954 C10.2495871,17.3451375 9.53398252,17.6189036 8.53250984,17.6189036 C7.54196742,17.6189036 6.83327603,17.3465357 6.36187387,16.8402035 C5.88682829,16.3298633 5.61478646,15.5415623 5.58638649,14.4314907 L5.58638649,0.287375169 Z"></path>
                            <path d="M55.1187393,0.287375169 L37.0884943,0.287375169 L37.0884943,4.6829196 L43.2673565,4.6829196 L43.2673565,17.4543829 C43.2673565,19.8061427 45.1778151,21.7126248 47.5348259,21.7126248 L48.8249693,21.7126248 L48.8249693,4.6829196 L55.1187393,4.6829196 L55.1187393,0.287375169 Z"></path>
                            <path d="M71.2936441,0.287375169 L56.7629482,0.287375169 L56.7629482,17.4543829 C56.7629482,19.8061427 58.6734068,21.7126248 61.0304176,21.7126248 L62.320561,21.7126248 L62.320561,13.37744 L70.4724739,13.37744 L70.4724739,8.9962503 L62.320561,8.9962503 L62.320561,4.6829196 L71.2936441,4.6829196 L71.2936441,0.287375169 Z"></path>
                            <path d="M87.8711933,0.287375169 L72.8939452,0.287375169 L72.8939452,17.4543829 C72.8939452,19.8061427 74.805338,21.7126248 77.1623488,21.7126248 L87.8422328,21.7126248 L87.8422328,17.3314352 L78.451558,17.3314352 L78.451558,12.8456607 L86.4026158,12.8456607 L86.4026158,8.5938505 L78.451558,8.5938505 L78.451558,4.6829196 L87.8711933,4.6829196 L87.8711933,0.287375169 Z"></path>
                            <path d="M124.829459,0.287375169 L106.799214,0.287375169 L106.799214,4.6829196 L112.978076,4.6829196 L112.978076,17.4543829 C112.978076,19.8061427 114.888535,21.7126248 117.245545,21.7126248 L118.535689,21.7126248 L118.535689,4.6829196 L124.829459,4.6829196 L124.829459,0.287375169 Z"></path>
                            <path d="M27.9771482,0 C26.4039393,0 24.9792696,0.253445697 23.7068762,0.765184159 C22.4344827,1.2673217 21.4339442,1.9819845 20.7202081,2.9152314 L20.7202081,2.91551104 C20.0130115,3.8426991 19.6598802,4.91688381 19.6598802,6.1281846 C19.6598802,8.58135998 21.1032341,10.4837407 23.8769023,11.8426906 C24.7251646,12.2614027 25.8125846,12.6917663 27.1335569,13.1344341 C28.4451872,13.5737462 29.3261468,13.9890094 29.808199,14.3719277 L29.8100674,14.3733259 C30.2706327,14.7324749 30.5060535,15.2307907 30.5060535,15.900525 C30.5060535,16.479097 30.293988,16.9096471 29.8726594,17.222749 C29.4503967,17.5346392 28.8515684,17.7051254 28.0490823,17.7051254 C26.768281,17.7051254 25.8994661,17.4452481 25.3809798,16.9805821 C24.8755724,16.5085523 24.5981121,15.7594939 24.5981121,14.6789708 L24.5981121,14.4285079 L19.0264861,14.4285079 L19.0264861,14.6789708 C19.0264861,16.1025172 19.3842884,17.3722624 20.1036298,18.4799105 L20.1054982,18.4821476 C20.8369843,19.5823387 21.9150622,20.4439049 23.322916,21.0728119 L23.3247845,21.0736509 C24.7429146,21.6927705 26.3189262,22 28.0490823,22 C30.4929746,22 32.4492095,21.4707375 33.8897607,20.3828505 C35.339654,19.2880658 36.0636664,17.7748486 36.0636664,15.8718154 C36.0636664,13.4783895 34.8697465,11.60593 32.5388936,10.2657159 C31.586934,9.717438 30.3780668,9.21278372 28.9178972,8.74951593 C27.472675,8.28168071 26.4945576,7.84190256 25.9536502,7.43754528 C25.4174139,7.02666311 25.1894668,6.60440897 25.1894668,6.17134214 C25.1894668,5.64180002 25.4071376,5.21059745 25.8677029,4.86188824 L25.8677029,4.86142217 C26.3394788,4.50255276 26.9952939,4.30932255 27.8622404,4.30932255 C28.7105027,4.30932255 29.3495021,4.53135553 29.8100674,4.94848296 L29.8119358,4.94997437 C30.2753038,5.36216152 30.5200667,5.94874989 30.5200667,6.74618569 L30.5200667,6.99664857 L36.0636664,6.99664857 L36.0636664,6.74618569 C36.0636664,5.42629195 35.7198773,4.24659032 35.027628,3.21556315 C34.3363129,2.17633326 33.3666033,1.38076172 32.1278414,0.826891055 C30.8993558,0.273672882 29.5148572,0 27.9771482,0 L27.9771482,0 Z"></path>
                            <path d="M104.530019,3.3546367 L104.739282,3.21612243 C105.430597,4.24705638 105.774386,5.42647838 105.774386,6.74618569 L105.774386,6.99664857 L100.23172,6.99664857 L100.23172,6.74618569 C100.23172,5.94874989 99.9869574,5.36216152 99.5235894,4.94997437 C99.0611557,4.53135553 98.4212221,4.30932255 97.5729598,4.30932255 C96.7060133,4.30932255 96.0501982,4.50255276 95.5793566,4.86142217 C95.1187912,5.21059745 94.9001862,5.64180002 94.9001862,6.17134214 C94.9001862,6.60440897 95.1281333,7.02666311 95.6653038,7.43754528 C96.2062112,7.84190256 97.1843286,8.28168071 98.6295509,8.74951593 C100.08972,9.21278372 101.297653,9.71734479 102.249613,10.2656227 C104.580466,11.6058368 105.774386,13.4783895 105.774386,15.8718154 C105.774386,17.7748486 105.050373,19.2880658 103.601414,20.3828505 C102.160863,21.4707375 100.203694,22 97.7598017,22 C96.0305798,22 94.4545682,21.6927705 93.0364381,21.0736509 C91.6257816,20.4439049 90.5486379,19.5823387 89.8162176,18.4821476 C89.0950078,17.3722624 88.7381398,16.1025172 88.7381398,14.6789708 L88.7381398,14.4285079 L94.3097657,14.4285079 L94.3097657,14.6789708 C94.3097657,15.7594007 94.5862918,16.5084591 95.0926334,16.9804889 C95.6101855,17.4452481 96.4799346,17.7051254 97.7598017,17.7051254 C98.5622878,17.7051254 99.1611161,17.5345459 99.5843131,17.2224694 C100.004707,16.9094607 100.216773,16.4790038 100.216773,15.900525 C100.216773,15.2307907 99.9813521,14.7324749 99.5207868,14.3733259 C99.0378005,13.9890094 98.1559066,13.5737462 96.8452106,13.1344341 C95.523304,12.6917663 94.4368182,12.2614027 93.5876217,11.8426906 C90.8148877,10.4837407 89.3715339,8.58135998 89.3715339,6.1281846 C89.3715339,4.91688381 89.7237309,3.8426991 90.4309275,2.91551104 L90.6009042,2.70374569 C91.3009971,1.87330716 92.2430783,1.22878178 93.4175956,0.765184159 C94.6909232,0.253445697 96.1155929,0 97.6878676,0 L98.0691195,0.00570491443 C99.4553856,0.0475534317 100.713305,0.319774394 101.838561,0.826891055 C103.077323,1.38066851 104.047032,2.17614684 104.738347,3.2151903 L104.530019,3.3546367 Z"></path>
                        </g>
                    </g>
                    <path d="M18.5827104,45 L19.64727,43.9354404 C20.199959,43.3827514 20.0773048,42.4855379 19.4596636,42.0686127 C17.6753668,40.864118 16.135882,39.3246332 14.9313873,37.5403364 C14.5144621,36.9226952 13.6172486,36.800041 13.0645596,37.35273 L12,38.4172896 C13.636913,41.1014814 15.8985186,43.363087 18.5827104,45 Z" id="Path"></path>
                    <path d="M8.83392407,42 L6.7623008,44.0716687 C5.74589973,45.0880134 5.74589973,46.7388178 6.7623008,47.7551625 L9.24483455,50.2377415 C10.2611798,51.2540862 11.911985,51.2540862 12.9284232,50.2377415 L15,48.1660727 C12.5776097,46.517129 10.4828687,44.4224821 8.83392407,42 L8.83392407,42 Z" id="Path"></path>
                    <path d="M12.4027345,18.6545615 L13.4143122,19.665459 C13.9391519,20.1898166 14.7907784,20.0732508 15.1866009,19.4869322 C16.3304023,17.7924835 17.7924084,16.3304121 19.4868906,15.1866333 C20.0734095,14.7907244 20.1898833,13.9387375 19.6650437,13.4139083 L18.6542205,12.4030108 C16.1049995,13.957505 13.9571652,16.105391 12.4027345,18.6545615 Z M15.1239785,8.87291422 L13.0238655,6.77278627 C11.9934257,5.74240458 10.3198804,5.74240458 9.28953491,6.77278627 L6.77280396,9.28949565 C5.74166622,10.3205752 5.7435713,11.9930499 6.77148361,13.027053 L6.77280396,13.0283734 L8.87161545,15.1258041 C10.5434914,12.6692449 12.6675593,10.5450305 15.1239785,8.87291422 Z" id="Shape"></path>
                    <g id="Group">
                        <path d="M38.1262721,12.6792295 L37.1240066,13.6821492 C36.6049328,14.2016902 36.7195869,15.0446361 37.2997721,15.4371885 C38.9794967,16.5738246 40.4262689,18.0205033 41.5628115,19.7003213 C41.9553639,20.2805066 42.7984033,20.3950672 43.3178508,19.8760869 L44.3208639,18.8737279 C42.7805557,16.3476934 40.6523066,14.2194443 38.1262721,12.6792295 L38.1262721,12.6792295 Z" id="Path"></path>
                        <path d="M47.8194492,15.3773852 L49.8989213,13.2992213 L49.9002295,13.2979131 C50.9186607,12.2734082 50.920623,10.6162967 49.8989213,9.59468852 L47.4054049,7.10109738 C46.3837033,6.0794518 44.7266852,6.08133934 43.7021803,7.09978918 L43.7008721,7.10109738 L41.6227082,9.1805882 C44.0573557,10.8375689 46.1625246,12.9427377 47.8194492,15.3773852 Z" id="Path"></path>
                        <polygon id="Path" points="25.7141016 5.76013033 31.2859077 5.76013033 31.2859077 10.3582456 25.7141016 10.3582456"></polygon>
                        <path d="M2.61797262,24.1181016 C1.17226574,24.1181016 0,25.2904328 0,26.7360836 L0,30.2640098 C0,31.7097541 1.17226574,32.8819918 2.61797262,32.8819918 L13.7050426,32.8819918 C14.223182,32.8819918 14.7502918,32.6831459 15.1463016,32.2871361 L17.4920852,29.9413525 C18.2867213,29.1467164 18.2867213,27.853377 17.4920852,27.058741 L15.1463016,24.7129574 C14.7502918,24.3169475 14.223182,24.1181016 13.7050426,24.1181016 L2.61797262,24.1181016 Z" id="Path"></path>
                        <path d="M43.3187852,37.1253148 L44.3203967,38.1269262 C42.780182,40.6527738 40.6520262,42.7808361 38.1260852,44.3209574 L37.1246607,43.3185984 C36.6051197,42.7984967 36.7206148,41.9547098 37.301641,41.5625311 C38.9805246,40.429259 40.4290721,38.9807115 41.5623443,37.3018279 C41.9547098,36.7207082 42.7988705,36.6053066 43.3187852,37.1253148 L43.3187852,37.1253148 Z" id="Path"></path>
                        <path d="M43.7008721,49.8989213 L41.6218672,47.8200098 C44.0562344,46.1633656 46.1612164,44.0587574 47.818141,41.624577 L49.8989213,43.7054508 C50.9198754,44.7263115 50.9198754,46.3844508 49.8989213,47.4053115 L47.4054049,49.8989213 C46.3837033,50.9205295 44.7266852,50.9186607 43.7021803,49.9002295 L43.7008721,49.8989213 Z" id="Path"></path>
                        <path d="M29.9413525,39.5079148 C29.1467164,38.7132787 27.853377,38.7132787 27.058741,39.5079148 L24.7129574,41.8536984 C24.3169475,42.2497082 24.1181016,42.776818 24.1181016,43.2949574 L24.1181016,54.382018 C24.1181016,55.8277623 25.2903393,57 26.7360836,57 L30.2640098,57 C31.7096607,57 32.8819918,55.8277623 32.8819918,54.382018 L32.8819918,43.2949574 C32.8819918,42.776818 32.6831459,42.2497082 32.2871361,41.8536984 L29.9413525,39.5079148 Z" id="Path"></path>
                        <path d="M43.2949574,24.1181016 C42.771118,24.1181016 42.2489607,24.3176951 41.8536984,24.7129574 L39.5079148,27.058741 C38.7132787,27.853377 38.7132787,29.1467164 39.5079148,29.9413525 L41.8536984,32.2871361 C42.2489607,32.6824918 42.771118,32.8819918 43.2949574,32.8819918 L54.382018,32.8819918 C55.8277623,32.8819918 57,31.7097541 57,30.2640098 L57,26.7360836 C57,25.2904328 55.8277623,24.1181016 54.382018,24.1181016 L43.2949574,24.1181016 Z" id="Path"></path>
                        <path d="M26.7360836,0 C25.2903393,0 24.1181016,1.17226574 24.1181016,2.61797262 L24.1181016,13.7050426 C24.1181016,14.228882 24.3176016,14.7510393 24.7129574,15.1463016 L27.058741,17.4920852 C27.853377,18.2867213 29.1467164,18.2867213 29.9413525,17.4920852 L32.2871361,15.1463016 C32.6823984,14.7510393 32.8819918,14.228882 32.8819918,13.7050426 L32.8819918,2.61797262 C32.8819918,1.17226574 31.7096607,0 30.2640098,0 L26.7360836,0 Z" id="Path"></path>
                    </g>
                    <path d="M22.4225069,8 C15.5035086,10.0980609 10.0480983,15.6865287 8,22.7742815 L9.36748311,22.7742815 C11.3338136,16.4273118 16.2266541,11.4151348 22.4225069,9.40082657 L22.4225069,8 Z M34.5776041,9.40085499 C40.7734569,11.4152296 45.6662049,16.4273118 47.6325169,22.7742815 L49,22.7742815 C46.9519202,15.6865287 41.4965099,10.0980609 34.5776041,8.00001895 L34.5776041,9.40085499 Z M49,35.2257469 L47.6325169,35.2257469 C45.6661124,41.5727167 40.7733644,46.5847989 34.5776041,48.599164 L34.5776041,50 C41.4965099,47.9019676 46.9519202,42.3134997 49,35.2257469 Z M8.0000185,35.2257469 C10.0480983,42.3134997 15.5035086,47.9019676 22.4225069,50 L22.4225069,48.599164 C16.2266541,46.5847989 11.3339061,41.5727167 9.36750161,35.2257469 L8.0000185,35.2257469 Z" id="Shape"></path>
                </g>
            </g>
        </g>
    </g>
</svg>