<?xml version="1.0" encoding="UTF-8"?>
<svg width="32.5269119px" height="32.5269119px" viewBox="0 0 32.5269119 32.5269119" version="1.1" xmlns="http://www.w3.org/2000/svg" xmlns:xlink="http://www.w3.org/1999/xlink">
    <title>Fill 1</title>
    <g id="Web" stroke="none" stroke-width="1" fill="none" fill-rule="evenodd">
        <g id="DT_Workshop-Overview" transform="translate(-700.236544, -246.236544)" fill="#FFFFFF">
            <g id="Group-11-Copy-4" transform="translate(674.000000, 232.000000)">
                <path d="M48.2762788,25.4299101 C48.2762788,24.8876347 48.73497,24.4491204 49.3009045,24.4491204 C49.8668389,24.4491204 50.3255301,24.8876347 50.3255301,25.4299101 C50.3255301,25.9709503 49.8668389,26.4094646 49.3009045,26.4094646 C48.73497,26.4094646 48.2762788,25.9709503 48.2762788,25.4299101 Z M45.5616022,25.4299101 C45.5616022,24.8876347 46.0202934,24.4491204 46.5862279,24.4491204 C47.1521623,24.4491204 47.6121456,24.8876347 47.6121456,25.4299101 C47.6121456,25.9709503 47.1521623,26.4094646 46.5862279,26.4094646 C46.0202934,26.4094646 45.5616022,25.9709503 45.5616022,25.4299101 Z M42.8469256,25.4299101 C42.8469256,24.8876347 43.3056168,24.4491204 43.8715513,24.4491204 C44.4374857,24.4491204 44.897469,24.8876347 44.897469,25.4299101 C44.897469,25.9709503 44.4374857,26.4094646 43.8715513,26.4094646 C43.3056168,26.4094646 42.8469256,25.9709503 42.8469256,25.4299101 Z M40.132249,25.4299101 C40.132249,24.8876347 40.5909402,24.4491204 41.1581668,24.4491204 C41.7241012,24.4491204 42.1827924,24.8876347 42.1827924,25.4299101 C42.1827924,25.9709503 41.7241012,26.4094646 41.1581668,26.4094646 C40.5909402,26.4094646 40.132249,25.9709503 40.132249,25.4299101 Z M37.4175724,25.4299101 C37.4175724,24.8876347 37.8762636,24.4491204 38.4434902,24.4491204 C39.0094246,24.4491204 39.4681158,24.8876347 39.4681158,25.4299101 C39.4681158,25.9709503 39.0094246,26.4094646 38.4434902,26.4094646 C37.8762636,26.4094646 37.4175724,25.9709503 37.4175724,25.4299101 Z M34.7028958,25.4299101 C34.7028958,24.8876347 35.1628791,24.4491204 35.7288136,24.4491204 C36.294748,24.4491204 36.7534392,24.8876347 36.7534392,25.4299101 C36.7534392,25.9709503 36.294748,26.4094646 35.7288136,26.4094646 C35.1628791,26.4094646 34.7028958,25.9709503 34.7028958,25.4299101 Z M46.6702136,16 C46.6702136,18.2024535 44.8031466,19.9873919 42.499354,19.9873919 C40.1955613,19.9873919 38.3284943,18.2024535 38.3284943,16 L35.7391503,16 C34.7778369,16 34,16.7448567 34,17.6626485 L34,43.3373515 C34,44.2563786 34.7778369,45 35.7391503,45 L38.3284943,45 C38.3284943,42.7987818 40.1955613,41.0126081 42.499354,41.0126081 C44.8031466,41.0126081 46.6702136,42.7987818 46.6702136,45 L49.2595576,45 C50.220871,45 51,44.2563786 51,43.3373515 L51,17.6626485 C51,16.7448567 50.220871,16 49.2595576,16 L46.6702136,16 Z" id="Fill-1" transform="translate(42.500000, 30.500000) rotate(-315.000000) translate(-42.500000, -30.500000) "></path>
            </g>
        </g>
    </g>
</svg>