<svg height="61" viewBox="0 0 226 61" width="226" xmlns="http://www.w3.org/2000/svg"><g fill="#fff" fill-rule="evenodd"><path d="m203.527 14.6866v.0004z" fill-rule="nonzero"/><g transform="translate(71 19)"><path d="m9.1029.3083h-9.1029v18.417c0 2.523 2.0453 4.5683 4.5683 4.5683h1.3807v-7.9246h2.4945l3.9623 7.9246h6.2318v-.5655l-4.5907-8.8642c1.2571-.6382 2.2043-1.4617 2.8241-2.4772.6699-1.0809.9957-2.4284.9957-4.026 0-2.2286-.7791-3.9817-2.3534-5.2217-1.5636-1.2316-3.7113-1.8307-6.4104-1.8307zm-3.1539 10.3451v-5.6295h3.1539c.9693 0 1.6591.2632 2.1173.7483l.0017.0019c.4637.4818.7112 1.1632.7112 2.08s-.2476 1.5983-.7112 2.0801c-.4462.464-1.1353.7192-2.119.7192z"/><g fill-rule="nonzero"><path d="m26.5004.3083h-5.9798v15.0695.0034c.0317 2.5281.8564 4.547 2.4939 6.0239 1.635 1.4747 3.8593 2.1968 6.6395 2.1968 1.841 0 3.45-.3241 4.819-.9824 1.372-.6593 2.431-1.6203 3.168-2.8817l.001-.0008c.737-1.2708 1.1-2.7632 1.1-4.4671v-14.9616h-5.949v14.9307c0 1.3609-.284 2.2798-.791 2.8231-.51.546-1.276.8397-2.348.8397-1.0603 0-1.8189-.2922-2.3235-.8354-.5085-.5475-.7997-1.3932-.8301-2.5841z"/><path d="m79.521.3083h-19.3v4.7156h6.614v13.7014c0 2.523 2.045 4.5683 4.568 4.5683h1.381v-18.2697h6.737z"/><path d="m96.835.3083h-15.554v18.417c0 2.523 2.045 4.5683 4.568 4.5683h1.381v-8.9421h8.726v-4.7002h-8.726v-4.6274h9.605z"/><path d="m114.58.3083h-16.032v18.417c0 2.523 2.046 4.5683 4.569 4.5683h11.432v-4.7002h-10.052v-4.8124h8.511v-4.5614h-8.511v-4.1957h10.083z"/><path d="m154.141.3083h-19.3v4.7156h6.614v13.7014c0 2.523 2.045 4.5683 4.568 4.5683h1.381v-18.2697h6.737z"/><path d="m50.468 0c-1.684 0-3.209.2719-4.571.8209-1.362.5387-2.433 1.3054-3.197 2.3066v.0003c-.757.9947-1.135 2.1471-1.135 3.4466 0 2.6318 1.545 4.6727 4.514 6.1306.908.4492 2.072.9109 3.486 1.3858 1.404.4713 2.347.9168 2.863 1.3276l.002.0015c.493.3853.745.9199.745 1.6384 0 .6207-.227 1.0826-.678 1.4185-.452.3346-1.093.5175-1.952.5175-1.371 0-2.301-.2788-2.856-.7773-.541-.5064-.838-1.31-.838-2.4692v-.2687h-5.964v.2687c0 1.5272.383 2.8894 1.153 4.0777l.002.0024c.783 1.1803 1.937 2.1046 3.444 2.7793l.002.0009c1.518.6642 3.205.9938 5.057.9938 2.616 0 4.71-.5678 6.252-1.7349 1.552-1.1745 2.327-2.7979 2.327-4.8395 0-2.5677-1.278-4.5765-3.773-6.0143-1.019-.5882-2.313-1.1296-3.876-1.6266-1.547-.5019-2.594-.9737-3.173-1.4075-.574-.4408-.818-.8938-.818-1.3584 0-.5681.233-1.0307.726-1.4048v-.0005c.505-.385 1.207-.5923 2.135-.5923.908 0 1.592.2382 2.085.6857l.002.0016c.496.4422.758 1.0715.758 1.927v.2687h5.934v-.2687c0-1.416-.368-2.6816-1.109-3.7877-.74-1.1149-1.778-1.9684-3.104-2.5626-1.315-.5935-2.797-.8871-4.443-.8871z"/><path d="m132.412 3.5989.224-.1486c.74 1.106 1.108 2.3713 1.108 3.7871v.2687h-5.933v-.2687c0-.8555-.262-1.4848-.758-1.927-.495-.4491-1.18-.6873-2.088-.6873-.928 0-1.63.2073-2.134.5923-.493.3746-.727.8372-.727 1.4053 0 .4646.244.9176.819 1.3584.579.4338 1.626.9056 3.173 1.4075 1.563.497 2.856 1.0383 3.875 1.6265 2.495 1.4378 3.773 3.4467 3.773 6.0144 0 2.0416-.775 3.665-2.326 4.8395-1.542 1.1671-3.637 1.7349-6.253 1.7349-1.851 0-3.538-.3296-5.056-.9938-1.51-.6756-2.663-1.5999-3.447-2.7802-.772-1.1907-1.154-2.5529-1.154-4.0801v-.2687h5.964v.2687c0 1.1591.296 1.9627.838 2.4691.554.4986 1.485.7774 2.855.7774.859 0 1.5-.183 1.953-.5178.45-.3358.677-.7976.677-1.4182 0-.7185-.252-1.2531-.745-1.6384-.517-.4123-1.461-.8578-2.864-1.3291-1.415-.4749-2.578-.9366-3.487-1.3858-2.968-1.4579-4.513-3.4988-4.513-6.1306 0-1.2995.377-2.4519 1.134-3.4466l.181947-.22718475c.749396-.89090578 1.757822-1.5823614 3.015053-2.07971525 1.363-.549 2.888-.8209 4.571-.8209l.408101.00612031c1.483892.04489566 2.830399.33693802 4.034899.88097969 1.326.5941 2.364 1.4475 3.104 2.5622z"/></g></g><path d="m20.1975 47.4306 1.0719-1.0719c.5565-.5565.433-1.4599-.1889-1.8797-1.7966-1.2128-3.3467-2.7629-4.5595-4.5595-.4198-.6219-1.3232-.7454-1.8797-.1889l-1.0719 1.0719c1.6482 2.7027 3.9254 4.9799 6.6281 6.6281z" fill-rule="nonzero"/><path d="m9.8263 44.5456-2.22685 2.2269c-1.09256 1.0925-1.09256 2.867 0 3.9595l2.66855 2.6686c1.0925 1.0925 2.867 1.0925 3.9596 0l2.2268-2.2269c-2.6039-1.7725-4.8556-4.0241-6.6281-6.6281z" fill-rule="nonzero"/><path d="m13.569 20.1982 1.0726 1.0719c.5565.556 1.4595.4324 1.8792-.1893 1.2128-1.7967 2.763-3.347 4.5597-4.5598.6219-.4198.7454-1.3232.1889-1.8797l-1.0718-1.0719c-2.703 1.6483-4.9804 3.9258-6.6286 6.6288zm2.8854-10.37192-2.2268-2.22686c-1.0926-1.09256-2.8671-1.09256-3.9596 0l-2.66855 2.66858c-1.09334 1.0933-1.09132 2.8667-.0014 3.9631l.0014.0014 2.22542 2.224c1.77273-2.6048 4.02493-4.8572 6.62953-6.63022z"/><g fill-rule="nonzero"><path d="m40.8018 13.569-1.0726 1.0733c-.5555.556-.4328 1.4581.1881 1.8782 1.7976 1.2164 3.3459 2.7646 4.5622 4.5623.4201.6209 1.3223.7435 1.8782.1881l1.0734-1.0727c-1.6484-2.7033-3.926-4.9809-6.6293-6.6292z"/><path d="m51.1752 16.4565 2.2254-2.224.0014-.0014c1.0899-1.0964 1.092-2.8698-.0014-3.9631l-2.6685-2.66858c-1.0934-1.09334-2.8667-1.09132-3.9631-.0014l-.0014.0014-2.224 2.22542c2.6055 1.77326 4.8584 4.02616 6.6316 6.63166z"/><path d="m27.5186 6.16435h5.96281v4.92079h-5.96281z"/><path d="m2.80169 25.8106c-1.54716 0-2.80169 1.2546-2.80169 2.8017v3.7755c0 1.5472 1.25453 2.8017 2.80169 2.8017h11.86511c.5545 0 1.1186-.2128 1.5424-.6366l2.5104-2.5104c.8504-.8504.8504-2.2345 0-3.0849l-2.5104-2.5104c-.4238-.4238-.9879-.6366-1.5424-.6366z"/><path d="m46.3587 39.7306 1.0719 1.0719c-1.6483 2.7031-3.9258 4.9805-6.629 6.6287l-1.0717-1.0727c-.556-.5566-.4324-1.4596.1894-1.8793 1.7967-1.2128 3.3469-2.763 4.5597-4.5597.4199-.6219 1.3233-.7454 1.8797-.1889z"/><path d="m46.7676 53.4006-2.2249-2.2248c2.6052-1.7729 4.8579-4.0252 6.6311-6.6302l2.2268 2.2269c1.0926 1.0925 1.0926 2.867 0 3.9595l-2.6685 2.6686c-1.0934 1.0933-2.8667 1.0913-3.9631.0014z"/><path d="m32.0425 42.2804c-.8504-.8504-2.2345-.8504-3.0849 0l-2.5104 2.5104c-.4238.4238-.6366.9879-.6366 1.5424v11.8651c0 1.5472 1.2545 2.8017 2.8017 2.8017h3.7755c1.5471 0 2.8017-1.2545 2.8017-2.8017v-11.8651c0-.5545-.2128-1.1186-.6366-1.5424z"/><path d="m46.3332 25.8106c-.5606 0-1.1194.2136-1.5424.6366l-2.5104 2.5104c-.8504.8504-.8504 2.2345 0 3.0849l2.5104 2.5104c.423.4231.9818.6366 1.5424.6366h11.8651c1.5472 0 2.8017-1.2545 2.8017-2.8017v-3.7755c0-1.5471-1.2545-2.8017-2.8017-2.8017z"/><path d="m28.6123 0c-1.5472 0-2.8017 1.25453-2.8017 2.80169v11.86511c0 .5606.2135 1.1194.6366 1.5424l2.5104 2.5104c.8504.8504 2.2345.8504 3.0849 0l2.5104-2.5104c.423-.423.6366-.9818.6366-1.5424v-11.86511c0-1.54716-1.2546-2.80169-2.8017-2.80169z"/></g><path d="m23.9296 8.33727c-7.4802 2.21423-13.3781 8.11213-15.59232 15.59233h1.4784c2.12582-6.6984 7.41552-11.9881 14.11392-14.11394zm13.141 1.47842c6.6984 2.12591 11.988 7.41551 14.1138 14.11391h1.4784c-2.2142-7.4802-8.1121-13.3781-15.5922-15.59231zm15.5922 27.25481h-1.4784c-2.1259 6.6984-7.4155 11.988-14.1138 14.1139v1.4784c7.4801-2.2142 13.378-8.1121 15.5922-15.5923zm-44.3255 0c2.2142 7.4802 8.1121 13.3781 15.5923 15.5923v-1.4784c-6.6984-2.1259-11.988-7.4155-14.1139-14.1139z"/></g></svg>