<svg fill="none" height="1091" viewBox="0 0 1091 1091" width="1091" xmlns="http://www.w3.org/2000/svg"><g fill="#ffd954"><path d="m545.321 1090.37c-1.766 0-3.511-.01-5.282-.03-145.616-1.37-281.982-59.37-383.979-163.31-101.994-103.941-157.41046-241.378-156.0349973-386.991 1.3725873-145.617 59.3703973-281.983 163.3099973-383.977 102.674-100.7547 238.06-156.062 381.708-156.062 1.767 0 3.512.0086313 5.282.0258784 145.617 1.3754616 281.983 59.3734216 383.98 163.3101216 101.995 103.94 157.415 241.376 156.035 386.992-1.38 145.613-59.37 281.979-163.311 383.976-102.673 100.756-238.061 156.066-381.708 156.066zm-.274-1085.60687c-142.404 0-276.592 54.81707-378.374 154.69987-103.0304 101.101-160.52106 236.276-161.88215 380.621-1.36396 144.342 53.56825 280.574 154.67115 383.609 101.103 103.027 236.28 160.517 380.624 161.877 1.742.02 3.49.03 5.234.03 142.402 0 276.591-54.82 378.373-154.699 103.027-101.103 160.517-236.278 161.877-380.622 1.37-144.344-53.56-280.577-154.666-383.608-101.103-103.0276-236.277-160.521-380.623-161.88208-1.745-.01581-3.492-.02579-5.234-.02579z"/><path d="m545.325 1045.08c-1.587 0-3.169-.01-4.759-.03-133.56-1.23-258.644-54.406-352.207-149.719-93.564-95.315-144.4128-221.36-143.1753-354.916 1.2375-133.56 54.4105-258.641 149.7253-352.207 94.18-92.4504 218.371-143.1958 350.159-143.1958 1.587 0 3.169.0072 4.757.0216 133.561 1.2375 258.642 54.4104 352.207 149.7252 93.563 95.312 144.408 221.36 143.178 354.917-1.24 133.56-54.415 258.641-149.73 352.207-94.173 92.449-218.364 143.197-350.155 143.197zm-.256-995.3032c-130.539 0-253.531 50.2552-346.822 141.8332-94.406 92.672-147.0715 216.563-148.2975 348.847-1.226 132.287 49.1386 257.132 141.8115 351.538 92.672 94.403 216.563 147.065 348.847 148.295 1.568.01 3.153.02 4.716.02 130.543 0 253.534-50.254 346.82-141.829 94.405-92.672 147.066-216.563 148.296-348.847 1.23-132.287-49.135-257.134-141.81-351.539-92.671-94.405-216.562-147.0708-348.846-148.2968-1.567-.0143-3.148-.0214-4.715-.0214z"/><path d="m545.335 999.79c-1.414 0-2.823-.007-4.238-.018-121.501-1.101-235.3-49.448-320.435-136.141-85.134-86.685-131.4149-201.342-130.3139-322.842 1.1009-121.499 49.4479-235.299 136.1379-320.435 86.694-85.13 201.462-131.3987 322.845-130.3136 121.499 1.1024 235.295 49.4506 320.435 136.1406 85.133 86.69 131.414 201.346 130.314 322.845-1.102 121.5-49.448 235.299-136.141 320.432-85.681 84.142-198.683 130.332-318.604 130.332zm-.236-905.0024c-118.672 0-230.486 45.7024-315.276 128.9704-85.783 84.242-133.6225 196.848-134.7119 317.074-1.0895 120.23 44.7059 233.683 128.9509 319.462 84.24 85.784 196.846 133.625 317.075 134.713 1.395.012 2.803.019 4.194.019 118.675 0 230.479-45.699 315.269-128.97 85.783-84.241 133.622-196.846 134.712-317.072 1.089-120.225-44.708-233.681-128.95-319.466-84.242-85.78-196.85-133.6207-317.074-134.7116-1.395-.0115-2.795-.0188-4.189-.0188z"/><path d="m545.322 954.508c-1.233 0-2.466-.004-3.701-.016-109.44-.966-211.956-44.489-288.657-122.555-76.706-78.065-118.417-181.331-117.457-290.773.966-109.439 44.488-211.953 122.553-288.657 77.183-75.835 179.005-117.472 287.061-117.472 1.243 0 2.469.005 3.711.016 109.44.963 211.955 44.485 288.66 122.553 76.707 78.068 118.417 181.332 117.454 290.771-.963 109.44-44.484 211.953-122.552 288.657-77.187 75.84-179.004 117.476-287.072 117.476zm-.199-814.707c-106.806 0-207.435 41.146-283.723 116.104-77.158 75.813-120.176 177.135-121.129 285.302-.951 108.17 40.28 210.232 116.09 287.39 75.812 77.159 177.135 120.176 285.302 121.131 1.215.011 2.445.016 3.659.016 106.816.004 207.439-41.145 283.729-116.106 77.161-75.812 120.177-177.135 121.128-285.302.954-108.167-40.273-210.231-116.086-287.389-75.813-77.16-177.138-120.177-285.304-121.128 0 0-2.448-.018-3.666-.018z"/><path d="m545.333 909.22c-1.064 0-2.117-.005-3.182-.015-97.379-.823-188.611-39.521-256.885-108.967-68.277-69.443-105.422-161.317-104.596-258.697.827-97.383 39.525-188.615 108.968-256.887 69.443-68.274 161.34-105.324 258.698-104.593 97.379.823 188.611 39.521 256.886 108.967 68.274 69.443 105.418 161.317 104.595 258.7-.827 97.38-39.525 188.612-108.968 256.885-68.686 67.527-159.322 104.605-255.516 104.607zm-.18-724.408c-94.945 0-184.385 36.588-252.176 103.239-68.536 67.381-106.727 157.422-107.543 253.531-.817 96.109 35.843 186.78 103.227 255.314 67.384 68.538 157.422 106.73 253.53 107.544 1.042.008 2.095.014 3.139.014 94.944.003 184.385-36.589 252.178-103.239 68.535-67.382 106.727-157.419 107.543-253.53.815-96.108-35.847-186.781-103.227-255.317-67.383-68.537-157.422-106.73-253.531-107.543 0 0-2.095-.013-3.14-.013z"/><path d="m545.329 863.934c-.883 0-1.767-.004-2.651-.011-85.32-.687-165.267-34.562-225.114-95.383-59.844-60.817-92.421-141.3-91.734-226.622.689-85.324 34.565-165.272 95.384-225.114 60.186-59.224 139.632-91.745 223.971-91.745.884 0 1.767.005 2.651.012 85.322.687 165.27 34.562 225.114 95.382 59.847 60.818 92.423 141.301 91.735 226.622-.688 85.325-34.565 165.273-95.383 225.115-60.188 59.222-139.634 91.743-223.973 91.744zm-.143-634.112c-83.087 0-161.34 32.033-220.631 90.379-59.913 58.952-93.282 137.705-93.961 221.755-.677 84.049 31.415 163.332 90.366 223.244 58.954 59.912 137.709 93.281 221.755 93.958.868.008 1.748.012 2.613.012 83.087.003 161.34-32.032 220.634-90.378 59.911-58.949 93.28-137.704 93.959-221.756.679-84.049-31.415-163.332-90.367-223.244s-137.706-93.281-221.755-93.958c0 0-1.748-.012-2.613-.012z"/><path d="m545.329 818.649c-.71 0-1.412-.003-2.124-.007-73.266-.553-141.928-29.603-193.342-81.797-51.414-52.195-79.423-121.287-78.873-194.553.552-73.26 29.602-141.927 81.795-193.342 51.691-50.913 119.958-78.88 192.431-78.88.71 0 1.413.003 2.124.008 73.263.552 141.927 29.602 193.341 81.794 51.413 52.199 79.426 121.292 78.874 194.552-.552 73.263-29.602 141.927-81.798 193.342-51.688 50.917-119.958 78.883-192.428 78.883zm-.112-543.814c-71.218 0-138.295 27.478-189.086 77.512-51.289 50.522-79.833 117.992-80.376 189.983s26.981 139.883 77.501 191.169c50.52 51.288 117.992 79.832 189.985 80.377.693.004 1.391.007 2.084.007 71.218 0 138.292-27.477 189.085-77.513 51.29-50.52 79.836-117.992 80.377-189.983.542-71.988-26.984-139.879-77.507-191.169-50.52-51.288-117.991-79.833-189.98-80.376-.69-.004-1.389-.007-2.083-.007z"/><path d="m545.336 773.361c-.534 0-1.063 0-1.601-.004-61.204-.414-118.585-24.636-161.57-68.21-42.984-43.57-66.43-101.273-66.013-162.476.414-61.202 24.636-118.583 68.21-161.57 43.189-42.608 100.271-66.018 160.877-66.018.534 0 1.063 0 1.601.004 61.201.414 118.583 24.636 161.57 68.21 42.984 43.57 66.43 101.274 66.013 162.478-.414 61.205-24.636 118.586-68.209 161.57-43.19 42.606-100.274 66.015-160.878 66.016zm-.097-453.514c-59.352 0-115.236 22.918-157.532 64.646-42.665 42.093-66.385 98.281-66.791 158.211-.406 59.931 22.55 116.434 64.641 159.099 42.092 42.665 98.279 66.386 158.211 66.791.519.004 1.05.004 1.568.004 59.352.005 115.236-22.917 157.532-64.645 42.665-42.092 66.385-98.279 66.789-158.211.407-59.931-22.549-116.433-64.64-159.099-42.094-42.665-98.282-66.386-158.212-66.791 0 0-1.048-.005-1.566-.005z"/><path d="m545.328 728.079c-.358 0-.704 0-1.064-.003-49.143-.279-95.24-19.679-129.795-54.625-34.554-34.946-53.433-81.257-53.155-130.404.278-49.146 19.676-95.24 54.622-129.795 34.694-34.303 80.594-53.159 129.336-53.159.358 0 .71 0 1.071.003 49.142.278 95.237 19.673 129.795 54.622 34.554 34.946 53.433 81.257 53.155 130.406-.279 49.146-19.679 95.243-54.624 129.798-34.694 34.301-80.596 53.155-129.341 53.157zm-.056-363.221c-47.484 0-92.19 18.364-125.986 51.782-34.042 33.659-52.939 78.56-53.208 126.436-.27 47.875 18.12 92.985 51.779 127.026 33.662 34.043 78.564 52.94 126.436 53.211.345.002.688.003 1.033.003 47.489 0 92.198-18.364 125.994-51.782 34.04-33.662 52.94-78.564 53.209-126.438.27-47.875-18.12-92.985-51.779-127.026-33.662-34.043-78.564-52.94-126.436-53.208 0-.003-.696-.004-1.042-.004z"/><path d="m545.328 682.792h-.53c-37.086-.14-71.899-14.714-98.026-41.037-26.125-26.324-40.437-61.243-40.296-98.33.136-37.087 14.711-71.901 41.035-98.026 26.193-25.997 60.908-40.296 97.793-40.296h.537c37.086.139 71.899 14.713 98.026 41.035 26.125 26.323 40.437 61.243 40.298 98.33-.139 37.086-14.713 71.899-41.035 98.026-26.2 25.998-60.913 40.298-97.802 40.298zm-.026-272.924c-35.619 0-69.139 13.807-94.438 38.916-25.418 25.23-39.492 58.847-39.625 94.661-.135 35.813 13.685 69.536 38.915 94.957 25.227 25.418 58.847 39.492 94.661 39.627h.509c35.627.002 69.145-13.807 94.447-38.919 25.418-25.229 39.49-58.847 39.625-94.661.135-35.813-13.686-69.536-38.915-94.957-25.23-25.418-58.848-39.49-94.661-39.625z"/><path d="m545.333 637.508c-51.666 0-93.699-42.033-93.699-93.698s42.033-93.698 93.699-93.698 93.7 42.033 93.7 93.698c-.001 51.665-42.034 93.698-93.7 93.698zm0-182.632c-49.038 0-88.933 39.894-88.933 88.934 0 49.038 39.895 88.932 88.933 88.932 49.037 0 88.934-39.894 88.934-88.932 0-49.04-39.897-88.934-88.934-88.934z"/><path d="m548.348 2.18481-10.639 1085.59519 4.765.05 10.639-1085.59849z"/><path d="m688.322 21.2619-290.469 1046.3381 4.592 1.28 290.47-1046.3432z"/><path d="m818.906 76.5056-551.466 935.2844 4.103 2.42 551.466-935.2852z"/><path d="m930.864 163.497-775.01 760.137 3.337 3.401 775.009-760.136z"/><path d="m1016.63 275.921-945.4991 533.768 2.3422 4.149 945.4969-533.768z"/><path d="m1070.47 407.095-1051.4458 271.358 1.1913 4.617 1051.4445-271.358z"/><path d="m2.33092 537.414-.04479 4.764 1085.59387 10.205.05-4.764z"/><path d="m22.5515 397.572-1.2768 4.592 1046.1253 290.904 1.28-4.592z"/><path d="m78.6989 267.138-2.4201 4.103 935.1812 551.684 2.42-4.102z"/><path d="m166.476 156.049-3.401 3.337 760.352 774.79 3.4-3.337z"/><path d="m280.219 71.2571-4.148 2.3431 533.985 945.3898 4.148-2.35z"/><path d="m411.807 18.8223-4.617 1.1905 271.142 1051.4472 4.616-1.19z"/></g></svg>