<svg fill="none" height="162" viewBox="0 0 544 162" width="544" xmlns="http://www.w3.org/2000/svg"><g fill="#ffd5e4"><path clip-rule="evenodd" d="m518.698 90.9385c3.557 0 6.89.6213 9.973 1.8926 3.068 1.2551 5.748 3.0118 8.014 5.2746 2.277 2.2483 4.039 4.9373 5.296 8.0353 1.271 3.107 1.892 6.466 1.892 10.049v10.436c0 3.605-.62 6.978-1.892 10.087-1.257 3.073-3.018 5.757-5.285 8.024-2.268 2.268-4.952 4.029-8.025 5.286l-.005.002-.005.002c-3.08 1.243-6.41 1.85-9.963 1.85h-13.406c-3.332 0-6.475-.534-9.41-1.622l-.584-.225-.018-.007c-2.88-1.179-5.419-2.799-7.594-4.866l-.43-.42c-2.264-2.263-4.034-4.941-5.316-8.007l-.004-.008-.003-.009c-1.272-3.109-1.893-6.482-1.893-10.087v-10.436c0-3.583.621-6.942 1.893-10.049l.001-.006.003-.004c1.282-3.094 3.055-5.779 5.329-8.0253 2.266-2.2628 4.946-4.0195 8.014-5.2746 3.106-1.2704 6.451-1.8926 10.012-1.8926zm-13.406 14.7025c-1.664 0-3.123.272-4.409.783l-.009.004-.01.003c-1.277.495-2.349 1.191-3.245 2.087l-.009.01-.173.173c-.805.83-1.455 1.841-1.942 3.062l-.089.238c-.431 1.203-.664 2.591-.664 4.189v10.436c0 1.694.263 3.17.749 4.456.516 1.271 1.221 2.341 2.11 3.235.899.879 1.98 1.584 3.272 2.108 1.289.488 2.753.75 4.419.75h13.33c1.675 0 3.128-.264 4.389-.753 1.318-.525 2.408-1.231 3.302-2.105.886-.892 1.577-1.958 2.067-3.226l.004-.009.004-.01c.509-1.282.783-2.754.783-4.446v-10.436c0-1.588-.241-2.965-.686-4.16l-.092-.236-.009-.022-.008-.022c-.464-1.217-1.101-2.223-1.901-3.05l-.162-.163-.019-.019-.019-.019c-.804-.822-1.784-1.481-2.973-1.968l-.241-.095-.021-.008-.022-.009c-1.256-.507-2.686-.778-4.32-.778z" fill-rule="evenodd"/><path d="m347.388 106.403h-39.686v7.616h35.23v14.778h-35.23v6.017c0 .769.172 1.091.283 1.226l.043.048c.092.092.392.325 1.311.325h38.049v14.702h-38.125c-1.546 0-3.164-.254-4.841-.726l-.336-.096c-1.806-.536-3.482-1.388-5.022-2.538l-.305-.234-.038-.03c-1.542-1.257-2.825-2.823-3.861-4.659l-.204-.371-.01-.018-.009-.019c-1.131-2.199-1.637-4.769-1.637-7.61v-35.7245c0-.99.185-1.9522.565-2.8653.36-.8638.858-1.6458 1.499-2.3244l.024-.0252.024-.024c.684-.6835 1.482-1.2131 2.374-1.585.924-.3848 1.9-.5654 2.903-.5654h46.999z"/><path d="m365.783 121.408c0 2.579.353 4.616.968 6.184.698 1.709 1.545 3.062 2.511 4.11.958 1.041 1.975 1.841 3.046 2.428l.215.115c1.302.673 2.49 1.151 3.569 1.454 1.197.328 2.182.524 2.973.609.989.076 1.531.105 1.724.105h15.005v-44.7128h14.702v52.0258c0 1.003-.18 1.98-.565 2.903-.372.893-.902 1.691-1.585 2.374l-.024.025-.025.023c-.679.641-1.461 1.139-2.325 1.499-.913.38-1.875.565-2.865.565h-22.318c-2.282 0-4.582-.247-6.896-.737-2.191-.464-4.319-1.157-6.382-2.077l-.412-.187-.017-.008-.017-.008c-2.051-.987-3.986-2.214-5.803-3.676l-.362-.295c-1.84-1.525-3.463-3.302-4.868-5.322l-.278-.407-.01-.014-.009-.015c-1.37-2.107-2.451-4.459-3.256-7.042l-.158-.52-.002-.007c-.835-2.867-1.238-6.004-1.238-9.392v-29.7078h14.702z"/><path clip-rule="evenodd" d="m462.216 91.7002c2.484 0 4.752.4546 6.7 1.4865.005.0025.01.0052.015.0076.004.0025.009.0046.014.0071 1.784.9261 3.288 2.1374 4.458 3.6527 1.131 1.4072 1.959 2.9594 2.456 4.6499.489 1.581.754 3.13.754 4.631v6.323c0 2.453-.302 4.721-.948 6.775-.623 1.984-1.487 3.784-2.607 5.376-1.072 1.536-2.329 2.87-3.772 3.989-1.381 1.071-2.843 1.967-4.385 2.681l-.01.004-.009.004c-1.114.505-2.25.91-3.407 1.216l21.55 18.612h-22.655l-20.642-17.862h-7.789v17.862h-14.703v-52.0255c0-.99.185-1.9522.566-2.8653.36-.8638.858-1.6458 1.499-2.3244l.023-.0252.025-.024c.683-.6835 1.481-1.2131 2.373-1.585.924-.3848 1.9-.5654 2.904-.5654zm-30.277 26.8508h23.844c.994-.088 1.851-.29 2.59-.583.787-.328 1.413-.739 1.91-1.22l.014-.014.015-.013c.499-.466.885-1.023 1.164-1.697.272-.684.435-1.526.435-2.566v-6.055h-29.972z" fill-rule="evenodd"/><path clip-rule="evenodd" d="m49.0414 91.7002c2.4837 0 4.7512.4546 6.6996 1.4865.0047.0025.01.0052.0147.0076.0045.0025.0095.0046.014.0071 1.784.9261 3.2882 2.1374 4.4584 3.6527 1.1309 1.4072 1.9584 2.9594 2.4557 4.6499.4889 1.581.7547 3.13.7547 4.631v6.323c0 2.453-.3027 4.721-.9481 6.775-.6236 1.984-1.4878 3.784-2.6074 5.376-1.072 1.536-2.329 2.87-3.7723 3.989-1.3811 1.071-2.843 1.967-4.3851 2.681l-.0094.004-.0088.004c-1.1144.505-2.2507.91-3.4072 1.216l21.5502 18.612h-22.6553l-20.6426-17.862h-7.7888v17.862h-14.70237v-52.0255c0-.99.18502-1.9522.56543-2.8653.35991-.8638.85798-1.6458 1.49883-2.3244l.02344-.0252.02461-.024c.68349-.6835 1.48122-1.2131 2.37363-1.585.9237-.3848 1.90023-.5654 2.90333-.5654zm-30.2777 26.8508h23.8441c.994-.088 1.8512-.29 2.5904-.583.7872-.328 1.4124-.739 1.9096-1.22l.0147-.014.0146-.013c.4991-.466.8854-1.023 1.1637-1.697.2722-.684.4353-1.526.4353-2.566v-6.055h-29.9724z" fill-rule="evenodd"/><path d="m82.1768 121.408c0 2.579.3525 4.616.9679 6.184.6977 1.709 1.5445 3.062 2.5102 4.11.9589 1.041 1.9758 1.841 3.0469 2.428l.215.115c1.3012.673 2.4894 1.151 3.5684 1.454 1.1968.328 2.1826.524 2.9736.609.989.076 1.5302.105 1.7232.105h15.005v-44.7128h14.703v52.0258c0 1.003-.181 1.98-.566 2.903-.372.893-.901 1.691-1.585 2.374l-.024.025-.025.023c-.679.641-1.461 1.139-2.324 1.499-.913.38-1.876.565-2.866.565h-22.318c-2.2821 0-4.5818-.247-6.8959-.737-2.1904-.464-4.3185-1.157-6.382-2.077l-.4119-.187-.017-.008-.0164-.008c-2.0513-.987-3.9862-2.214-5.8037-3.676l-.3615-.295c-1.8405-1.525-3.4632-3.302-4.8686-5.322l-.2777-.407-.01-.014-.0094-.015c-1.3693-2.107-2.4506-4.459-3.256-7.042l-.1576-.52-.0018-.007c-.8351-2.867-1.2381-6.004-1.2381-9.392v-29.7078h14.7024z"/><path d="m185.923 106.403h-36.106c-1.348 0-2.128.385-2.65.937-.552.61-.93 1.498-.93 2.909 0 1.437.378 2.305.9 2.875.515.517 1.307.895 2.68.895h22.88.028c1.254.03 2.549.208 3.88.52 1.366.295 2.704.758 4.012 1.382 1.366.639 2.652 1.448 3.855 2.419 1.263.992 2.362 2.183 3.3 3.555.934 1.329 1.663 2.819 2.203 4.451l.105.328c.567 1.821.832 3.82.832 5.969 0 2.152-.279 4.163-.871 6.007l.001.001c-.544 1.747-1.289 3.338-2.25 4.75-.949 1.394-2.075 2.599-3.379 3.6-1.225.94-2.51 1.722-3.854 2.336-1.326.605-2.689 1.056-4.088 1.347-1.331.282-2.626.431-3.879.431h-40.6v-14.702h40.6c1.414 0 2.182-.397 2.662-.912l.02-.021c.552-.578.936-1.434.936-2.837 0-.667-.102-1.222-.273-1.687-.171-.468-.407-.842-.701-1.15l-.02-.021-.02-.022c-.212-.233-.486-.44-.855-.61l-.164-.071-.014-.005-.013-.005c-.406-.168-.913-.275-1.558-.275h-22.775c-1.76 0-3.595-.288-5.492-.828l-.38-.112-.015-.004-.014-.005c-2.013-.634-3.884-1.615-5.608-2.923l-.342-.266-.008-.006-.007-.006c-1.751-1.412-3.197-3.203-4.357-5.324l-.228-.429-.005-.01-.006-.01c-1.253-2.476-1.82-5.383-1.82-8.625 0-3.241.567-6.141 1.826-8.598l.002-.005.003-.005c1.196-2.3073 2.715-4.2442 4.581-5.7502l.345-.2724c1.724-1.3328 3.601-2.3178 5.624-2.9315 2.038-.6423 4.011-.9867 5.901-.9867h36.106z"/><path d="m247.889 106.403h-21.824v44.712h-14.702v-44.712h-21.861v-14.7028h58.387z"/><path clip-rule="evenodd" d="m246.298 10c3.557 0 6.89.6214 9.972 1.8926 3.069 1.2551 5.749 3.0118 8.015 5.2746 2.277 2.2481 4.039 4.9372 5.296 8.0349 1.271 3.1074 1.892 6.4664 1.892 10.0495v10.4355c0 3.6059-.62 6.9779-1.892 10.0875-1.257 3.0728-3.018 5.7565-5.286 8.0244-2.267 2.2679-4.951 4.0281-8.024 5.2852l-.005.0023-.005.0018c-3.08 1.2431-6.41 1.8504-9.963 1.8504h-13.406c-3.332 0-6.475-.5338-9.41-1.6225l-.584-.225-.018-.007c-2.88-1.1785-5.419-2.7991-7.594-4.8656l-.43-.4196c-2.264-2.2639-4.034-4.9419-5.316-8.0074l-.004-.0082-.003-.0088c-1.272-3.1096-1.893-6.4816-1.893-10.0875v-10.4355c0-3.5831.621-6.9421 1.893-10.0495l.001-.0052.003-.0047c1.282-3.0935 3.055-5.7791 5.329-8.025 2.266-2.2628 4.946-4.0195 8.014-5.2746 3.105-1.2703 6.451-1.8926 10.012-1.8926zm-13.406 14.7023c-1.664 0-3.123.2727-4.409.7829l-.009.0041-.01.0035c-1.277.4943-2.349 1.1907-3.245 2.0865l-.009.01-.173.1734c-.805.8302-1.455 1.8404-1.942 3.0615l-.089.2379c-.431 1.2036-.664 2.591-.664 4.1895v10.4355c0 1.6947.263 3.1703.749 4.4561.516 1.2716 1.221 2.3409 2.11 3.2349.899.8794 1.98 1.5849 3.272 2.1088 1.289.488 2.753.7494 4.419.7494h13.33c1.675 0 3.128-.2641 4.389-.7523 1.318-.5258 2.408-1.2319 3.302-2.1059.886-.8919 1.577-1.9577 2.067-3.2256l.004-.0093.004-.0094c.509-1.2822.783-2.7539.783-4.4467v-10.4355c0-1.5878-.241-2.9646-.686-4.1596l-.092-.2367-.009-.0217-.008-.0217c-.464-1.2172-1.101-2.2231-1.901-3.0504l-.162-.1629-.019-.0193-.019-.0188c-.804-.8218-1.784-1.4814-2.973-1.9681l-.241-.0949-.021-.0082-.022-.0088c-1.256-.5066-2.686-.7782-4.32-.7782z" fill-rule="evenodd"/><path d="m74.9879 25.4641h-39.6856v7.616h35.2295v14.7785h-35.2295v6.017c0 .7692.1722 1.0908.2825 1.2264l.0427.0474c.0923.0922.392.3252 1.312.3252h38.0484v14.7023h-38.1246c-1.5463 0-3.1644-.2546-4.841-.7259l-.3364-.0967c-1.8061-.5362-3.4821-1.3881-5.0214-2.5377l-.3059-.2338-.0375-.0305c-1.5426-1.2569-2.8249-2.8227-3.8613-4.6587l-.2039-.3709-.0094-.0182-.01-.0188c-1.1309-2.1992-1.6365-4.7689-1.6365-7.6101v-35.7246c0-.9899.185-1.9522.5654-2.8653.3599-.8637.858-1.6458 1.4989-2.3244l.0234-.0252.0246-.024c.6835-.6835 1.4812-1.2131 2.3736-1.585.9237-.3848 1.9003-.5654 2.9034-.5654h46.9986z"/><path d="m93.3834 40.4693c0 2.5795.3525 4.6167.968 6.1846.6977 1.7085 1.5444 3.0618 2.5101 4.1098.959 1.0405 1.9758 1.8407 3.0469 2.4275l.2146.1149c1.302.6737 2.49 1.1511 3.569 1.4542 1.197.3286 2.182.5237 2.973.6094.989.0758 1.531.1049 1.724.1049h15.005v-44.7129h14.702v52.026c0 1.0031-.18 1.9796-.565 2.9033-.372.8924-.902 1.6901-1.585 2.3736l-.024.0247-.025.0234c-.679.6408-1.461 1.1389-2.325 1.4988-.913.3804-1.875.5654-2.865.5654h-22.318c-2.282 0-4.582-.2476-6.896-.7376-2.1907-.4639-4.3187-1.1571-6.3823-2.0772l-.4119-.1869-.017-.0076-.0164-.0082c-2.0513-.9868-3.9862-2.2139-5.8037-3.6756l-.3615-.2953c-1.8405-1.525-3.4631-3.302-4.8686-5.3215l-.2777-.4072-.01-.0147-.0093-.0146c-1.3694-2.1067-2.4507-4.4595-3.2561-7.0424l-.1576-.5197-.0018-.0065c-.8351-2.8673-1.2381-6.0048-1.2381-9.3926v-29.7076h14.7024z"/><path clip-rule="evenodd" d="m189.816 10.7617c2.484 0 4.752.4546 6.7 1.4865.005.0025.01.0052.015.0077.004.0024.009.0046.014.007 1.784.9261 3.288 2.1374 4.458 3.6527 1.131 1.4073 1.958 2.9594 2.456 4.6494.489 1.5818.754 3.1306.754 4.6319v6.3222c0 2.4537-.302 4.7217-.948 6.7752-.623 1.9843-1.487 3.7838-2.607 5.3766-1.072 1.5355-2.329 2.8698-3.772 3.9891-1.381 1.071-2.843 1.9667-4.385 2.6806l-.01.0041-.009.0041c-1.114.5047-2.25.91-3.407 1.2153l21.55 18.6128h-22.655l-20.642-17.8623h-7.789v17.8623h-14.703v-52.0259c0-.9899.185-1.9522.566-2.8653.36-.8637.858-1.6458 1.499-2.3244l.023-.0252.025-.024c.683-.6835 1.481-1.2131 2.373-1.585.924-.3848 1.9-.5654 2.904-.5654zm-30.277 26.8506h23.844c.994-.0882 1.851-.2897 2.59-.583.787-.3275 1.413-.7392 1.91-1.2193l.014-.0141.015-.0135c.499-.4657.885-1.0229 1.164-1.6969.272-.6837.435-1.5257.435-2.5664v-6.055h-29.972z" fill-rule="evenodd"/><path clip-rule="evenodd" d="m321.441 10.7617c2.484 0 4.752.4546 6.7 1.4865.005.0025.01.0052.015.0077.004.0024.009.0046.014.007 1.784.9261 3.288 2.1374 4.458 3.6527 1.131 1.4073 1.958 2.9594 2.456 4.6494.489 1.5818.754 3.1306.754 4.6319v6.3222c0 2.4537-.302 4.7217-.948 6.7752-.623 1.9843-1.487 3.7838-2.607 5.3766-1.072 1.5355-2.329 2.8698-3.772 3.9891-1.381 1.071-2.843 1.9667-4.385 2.6806l-.01.0041-.009.0041c-1.114.5047-2.25.91-3.407 1.2153l21.55 18.6128h-22.655l-20.642-17.8623h-7.789v17.8623h-14.703v-52.0259c0-.9899.185-1.9522.566-2.8653.36-.8637.858-1.6458 1.499-2.3244l.023-.0252.025-.024c.683-.6835 1.481-1.2131 2.373-1.585.924-.3848 1.9-.5654 2.904-.5654zm-30.277 26.8506h23.844c.994-.0882 1.851-.2897 2.59-.583.787-.3275 1.413-.7392 1.91-1.2193l.014-.0141.015-.0135c.499-.4657.885-1.0229 1.164-1.6969.272-.6837.435-1.5257.435-2.5664v-6.055h-29.972z" fill-rule="evenodd"/><path d="m354.577 40.4693c0 2.5795.352 4.6167.968 6.1846.697 1.7085 1.544 3.0618 2.51 4.1098.959 1.0405 1.976 1.8407 3.047 2.4275l.215.1149c1.301.6737 2.489 1.1511 3.568 1.4542 1.197.3286 2.183.5237 2.974.6094.989.0758 1.53.1049 1.723.1049h15.005v-44.7129h14.703v52.026c0 1.0031-.181 1.9796-.566 2.9033-.372.8924-.901 1.6901-1.585 2.3736l-.024.0247-.025.0234c-.679.6408-1.461 1.1389-2.324 1.4988-.913.3804-1.876.5654-2.866.5654h-22.318c-2.282 0-4.582-.2476-6.896-.7376-2.19-.4639-4.318-1.1571-6.382-2.0772l-.412-.1869-.017-.0076-.016-.0082c-2.052-.9868-3.986-2.2139-5.804-3.6756l-.361-.2953c-1.841-1.525-3.464-3.302-4.869-5.3215l-.278-.4072-.01-.0147-.009-.0146c-1.369-2.1067-2.451-4.4595-3.256-7.0424l-.158-.5197-.002-.0065c-.835-2.8673-1.238-6.0048-1.238-9.3926v-29.7076h14.703z"/><path d="m458.323 25.4641h-36.106c-1.348 0-2.128.3857-2.65.9375-.552.6095-.93 1.4976-.93 2.9086 0 1.4371.378 2.3053.9 2.8757.515.5162 1.306.8942 2.68.8942h22.88l.028.0006c1.254.0298 2.549.2083 3.88.5197 1.366.2948 2.704.7579 4.012 1.3816 1.366.6395 2.652 1.4487 3.855 2.4194 1.263.9925 2.362 2.1833 3.3 3.5548.934 1.3298 1.663 2.8198 2.203 4.4508l.105.3282c.567 1.8215.832 3.8204.832 5.9695 0 2.1518-.279 4.1624-.871 6.007l.001.0006c-.544 1.7475-1.289 3.3384-2.25 4.7502-.949 1.3939-2.075 2.5992-3.379 3.6-1.225.9404-2.51 1.7225-3.854 2.3361-1.326.605-2.689 1.0557-4.088 1.3471l-.001-.0006c-1.33.2825-2.625.4318-3.878.4318h-40.6v-14.7023h40.6c1.414 0 2.182-.3971 2.662-.9117l.02-.0211c.552-.578.936-1.434.936-2.8371 0-.6676-.102-1.2218-.273-1.6875-.171-.4681-.407-.8416-.701-1.1496l-.02-.0211-.02-.0217c-.212-.2334-.486-.4408-.855-.6105l-.164-.0704-.014-.0052-.013-.0053c-.406-.1679-.913-.2748-1.558-.2748h-22.775c-1.76 0-3.595-.2878-5.492-.8285l-.38-.1114-.015-.0046-.014-.0041c-2.013-.6343-3.884-1.6152-5.608-2.9239l-.342-.266-.008-.0058-.007-.0059c-1.751-1.4122-3.197-3.203-4.357-5.3238l-.228-.4289-.005-.01-.006-.0105c-1.253-2.4754-1.82-5.383-1.82-8.625 0-3.2406.567-6.141 1.826-8.5975l.002-.0053.003-.0047c1.196-2.3074 2.715-4.2444 4.581-5.7504l.345-.2724c1.724-1.3328 3.601-2.3178 5.624-2.9315 2.038-.6422 4.011-.9867 5.901-.9867h36.106z"/><path d="m520.289 25.4641h-21.824v44.7128h-14.702v-44.7128h-21.861v-14.7024h58.387z"/></g></svg>