<svg width="544" height="162" viewBox="0 0 544 162" fill="none" xmlns="http://www.w3.org/2000/svg">
<path fill-rule="evenodd" clip-rule="evenodd" d="M518.698 90.9385C522.255 90.9385 525.588 91.5598 528.671 92.8311C531.739 94.0862 534.419 95.8429 536.685 98.1057C538.962 100.354 540.724 103.043 541.981 106.141C543.252 109.248 543.873 112.607 543.873 116.19V126.626C543.873 130.231 543.253 133.604 541.981 136.713C540.724 139.786 538.963 142.47 536.696 144.737C534.428 147.005 531.744 148.766 528.671 150.023L528.666 150.025L528.661 150.027C525.581 151.27 522.251 151.877 518.698 151.877H505.292C501.96 151.877 498.817 151.343 495.882 150.255L495.298 150.03L495.28 150.023C492.4 148.844 489.861 147.224 487.686 145.157L487.256 144.737C484.992 142.474 483.222 139.796 481.94 136.73L481.936 136.722L481.933 136.713C480.661 133.604 480.04 130.231 480.04 126.626V116.19C480.04 112.607 480.661 109.248 481.933 106.141L481.934 106.135L481.937 106.131C483.219 103.037 484.992 100.352 487.266 98.1057C489.532 95.8429 492.212 94.0862 495.28 92.8311C498.386 91.5607 501.731 90.9385 505.292 90.9385H518.698ZM505.292 105.641C503.628 105.641 502.169 105.913 500.883 106.424L500.874 106.428L500.864 106.431C499.587 106.926 498.515 107.622 497.619 108.518L497.61 108.528L497.437 108.701C496.632 109.531 495.982 110.542 495.495 111.763L495.406 112.001C494.975 113.204 494.742 114.592 494.742 116.19V126.626C494.742 128.32 495.005 129.796 495.491 131.082C496.007 132.353 496.712 133.423 497.601 134.317C498.5 135.196 499.581 135.901 500.873 136.425C502.162 136.913 503.626 137.175 505.292 137.175H518.622C520.297 137.175 521.75 136.911 523.011 136.422C524.329 135.897 525.419 135.191 526.313 134.317C527.199 133.425 527.89 132.359 528.38 131.091L528.384 131.082L528.388 131.072C528.897 129.79 529.171 128.318 529.171 126.626V116.19C529.171 114.602 528.93 113.225 528.485 112.03L528.393 111.794L528.384 111.772L528.376 111.75C527.912 110.533 527.275 109.527 526.475 108.7L526.313 108.537L526.294 108.518L526.275 108.499C525.471 107.677 524.491 107.018 523.302 106.531L523.061 106.436L523.04 106.428L523.018 106.419C521.762 105.912 520.332 105.641 518.698 105.641H505.292Z" fill="#FFD5E4"/>
<path d="M347.388 106.403H307.702V114.019H342.932V128.797H307.702V134.814C307.702 135.583 307.874 135.905 307.985 136.04L308.028 136.088C308.12 136.18 308.42 136.413 309.339 136.413H347.388V151.115H309.263C307.717 151.115 306.099 150.861 304.422 150.389L304.086 150.293C302.28 149.757 300.604 148.905 299.064 147.755L298.759 147.521L298.721 147.491C297.179 146.234 295.896 144.668 294.86 142.832L294.656 142.461L294.646 142.443L294.637 142.424C293.506 140.225 293 137.655 293 134.814V99.0895C293 98.0995 293.185 97.1373 293.565 96.2242C293.925 95.3604 294.423 94.5784 295.064 93.8998L295.088 93.8746L295.112 93.8506C295.796 93.1671 296.594 92.6375 297.486 92.2656C298.41 91.8808 299.386 91.7002 300.389 91.7002H347.388V106.403Z" fill="#FFD5E4"/>
<path d="M365.783 121.408C365.783 123.987 366.136 126.024 366.751 127.592C367.449 129.301 368.296 130.654 369.262 131.702C370.22 132.743 371.237 133.543 372.308 134.13L372.523 134.245C373.825 134.918 375.013 135.396 376.092 135.699C377.289 136.027 378.274 136.223 379.065 136.308C380.054 136.384 380.596 136.413 380.789 136.413H395.794V91.7002H410.496V143.726C410.496 144.729 410.316 145.706 409.931 146.629C409.559 147.522 409.029 148.32 408.346 149.003L408.322 149.028L408.297 149.051C407.618 149.692 406.836 150.19 405.972 150.55C405.059 150.93 404.097 151.115 403.107 151.115H380.789C378.507 151.115 376.207 150.868 373.893 150.378C371.702 149.914 369.574 149.221 367.511 148.301L367.099 148.114L367.082 148.106L367.065 148.098C365.014 147.111 363.079 145.884 361.262 144.422L360.9 144.127C359.06 142.602 357.437 140.825 356.032 138.805L355.754 138.398L355.744 138.384L355.735 138.369C354.365 136.262 353.284 133.91 352.479 131.327L352.321 130.807L352.319 130.8C351.484 127.933 351.081 124.796 351.081 121.408V91.7002H365.783V121.408Z" fill="#FFD5E4"/>
<path fill-rule="evenodd" clip-rule="evenodd" d="M462.216 91.7002C464.7 91.7002 466.968 92.1548 468.916 93.1867C468.921 93.1892 468.926 93.1919 468.931 93.1943C468.935 93.1968 468.94 93.1989 468.945 93.2014C470.729 94.1275 472.233 95.3388 473.403 96.8541C474.534 98.2613 475.362 99.8135 475.859 101.504C476.348 103.085 476.613 104.634 476.613 106.135V112.458C476.613 114.911 476.311 117.179 475.665 119.233C475.042 121.217 474.178 123.017 473.058 124.609C471.986 126.145 470.729 127.479 469.286 128.598C467.905 129.669 466.443 130.565 464.901 131.279L464.891 131.283L464.882 131.287C463.768 131.792 462.632 132.197 461.475 132.503L483.025 151.115H460.37L439.728 133.253H431.939V151.115H417.236V99.0895C417.236 98.0995 417.421 97.1373 417.802 96.2242C418.162 95.3604 418.66 94.5784 419.301 93.8998L419.324 93.8746L419.349 93.8506C420.032 93.1671 420.83 92.6375 421.722 92.2656C422.646 91.8808 423.622 91.7002 424.626 91.7002H462.216ZM431.939 118.551H455.783C456.777 118.463 457.634 118.261 458.373 117.968C459.16 117.64 459.786 117.229 460.283 116.748L460.297 116.734L460.312 116.721C460.811 116.255 461.197 115.698 461.476 115.024C461.748 114.34 461.911 113.498 461.911 112.458V106.403H431.939V118.551Z" fill="#FFD5E4"/>
<path fill-rule="evenodd" clip-rule="evenodd" d="M49.0414 91.7002C51.5251 91.7002 53.7926 92.1548 55.741 93.1867C55.7457 93.1892 55.751 93.1919 55.7557 93.1943C55.7602 93.1968 55.7652 93.1989 55.7697 93.2014C57.5537 94.1275 59.0579 95.3388 60.2281 96.8541C61.359 98.2613 62.1865 99.8135 62.6838 101.504C63.1727 103.085 63.4385 104.634 63.4385 106.135V112.458C63.4385 114.911 63.1358 117.179 62.4904 119.233C61.8668 121.217 61.0026 123.017 59.883 124.609C58.811 126.145 57.554 127.479 56.1107 128.598C54.7296 129.669 53.2677 130.565 51.7256 131.279L51.7162 131.283L51.7074 131.287C50.593 131.792 49.4567 132.197 48.3002 132.503L69.8504 151.115H47.1951L26.5525 133.253H18.7637V151.115H4.06133V99.0895C4.06133 98.0995 4.24635 97.1373 4.62676 96.2242C4.98667 95.3604 5.48474 94.5784 6.12559 93.8998L6.14903 93.8746L6.17364 93.8506C6.85713 93.1671 7.65486 92.6375 8.54727 92.2656C9.47097 91.8808 10.4475 91.7002 11.4506 91.7002H49.0414ZM18.7637 118.551H42.6078C43.6018 118.463 44.459 118.261 45.1982 117.968C45.9854 117.64 46.6106 117.229 47.1078 116.748L47.1225 116.734L47.1371 116.721C47.6362 116.255 48.0225 115.698 48.3008 115.024C48.573 114.34 48.7361 113.498 48.7361 112.458V106.403H18.7637V118.551Z" fill="#FFD5E4"/>
<path d="M82.1768 121.408C82.1768 123.987 82.5293 126.024 83.1447 127.592C83.8424 129.301 84.6892 130.654 85.6549 131.702C86.6138 132.743 87.6307 133.543 88.7018 134.13L88.9168 134.245C90.218 134.918 91.4062 135.396 92.4852 135.699C93.682 136.027 94.6678 136.223 95.4588 136.308C96.4478 136.384 96.989 136.413 97.182 136.413H112.187V91.7002H126.89V143.726C126.89 144.729 126.709 145.706 126.324 146.629C125.952 147.522 125.423 148.32 124.739 149.003L124.715 149.028L124.69 149.051C124.011 149.692 123.229 150.19 122.366 150.55C121.453 150.93 120.49 151.115 119.5 151.115H97.182C94.8999 151.115 92.6002 150.868 90.2861 150.378C88.0957 149.914 85.9676 149.221 83.9041 148.301L83.4922 148.114L83.4752 148.106L83.4588 148.098C81.4075 147.111 79.4726 145.884 77.6551 144.422L77.2936 144.127C75.4531 142.602 73.8304 140.825 72.425 138.805L72.1473 138.398L72.1373 138.384L72.1279 138.369C70.7586 136.262 69.6773 133.91 68.8719 131.327L68.7143 130.807L68.7125 130.8C67.8774 127.933 67.4744 124.796 67.4744 121.408V91.7002H82.1768V121.408Z" fill="#FFD5E4"/>
<path d="M185.923 106.403H149.817C148.469 106.403 147.689 106.788 147.167 107.34C146.615 107.95 146.237 108.838 146.237 110.249C146.237 111.686 146.615 112.554 147.137 113.124C147.652 113.641 148.444 114.019 149.817 114.019H172.697L172.725 114.019C173.979 114.049 175.274 114.227 176.605 114.539C177.971 114.834 179.309 115.297 180.617 115.921C181.983 116.56 183.269 117.369 184.472 118.34C185.735 119.332 186.834 120.523 187.772 121.895C188.706 123.224 189.435 124.714 189.975 126.346L190.08 126.674C190.647 128.495 190.912 130.494 190.912 132.643C190.912 134.795 190.633 136.806 190.041 138.65L190.042 138.651C189.498 140.398 188.753 141.989 187.792 143.401C186.843 144.795 185.717 146 184.413 147.001C183.188 147.941 181.903 148.723 180.559 149.337C179.233 149.942 177.87 150.393 176.471 150.684L176.471 150.684C175.14 150.966 173.845 151.115 172.592 151.115H131.992V136.413H172.592C174.006 136.413 174.774 136.016 175.254 135.501L175.274 135.48C175.826 134.902 176.21 134.046 176.21 132.643C176.21 131.976 176.108 131.421 175.937 130.956C175.766 130.488 175.53 130.114 175.236 129.806L175.216 129.785L175.196 129.763C174.984 129.53 174.71 129.323 174.341 129.153L174.177 129.082L174.163 129.077L174.15 129.072C173.744 128.904 173.237 128.797 172.592 128.797H149.817C148.057 128.797 146.222 128.509 144.325 127.969L143.945 127.857L143.93 127.853L143.916 127.848C141.903 127.214 140.032 126.233 138.308 124.925L137.966 124.659L137.958 124.653L137.951 124.647C136.2 123.235 134.754 121.444 133.594 119.323L133.366 118.894L133.361 118.884L133.355 118.874C132.102 116.398 131.535 113.491 131.535 110.249C131.535 107.008 132.102 104.108 133.361 101.651L133.363 101.646L133.366 101.641C134.562 99.3337 136.081 97.3968 137.947 95.8908L138.292 95.6184C140.016 94.2856 141.893 93.3006 143.916 92.6869C145.954 92.0446 147.927 91.7002 149.817 91.7002H185.923V106.403Z" fill="#FFD5E4"/>
<path d="M247.889 106.403H226.065V151.115H211.363V106.403H189.502V91.7002H247.889V106.403Z" fill="#FFD5E4"/>
<path fill-rule="evenodd" clip-rule="evenodd" d="M246.298 10C249.855 10 253.188 10.6214 256.27 11.8926C259.339 13.1477 262.019 14.9044 264.285 17.1672C266.562 19.4153 268.324 22.1044 269.581 25.2021C270.852 28.3095 271.473 31.6685 271.473 35.2516V45.6871C271.473 49.293 270.853 52.665 269.581 55.7746C268.324 58.8474 266.563 61.5311 264.295 63.799C262.028 66.0669 259.344 67.8271 256.271 69.0842L256.266 69.0865L256.261 69.0883C253.181 70.3314 249.851 70.9387 246.298 70.9387H232.892C229.56 70.9387 226.417 70.4049 223.482 69.3162L222.898 69.0912L222.88 69.0842C220 67.9057 217.461 66.2851 215.286 64.2186L214.856 63.799C212.592 61.5351 210.822 58.8571 209.54 55.7916L209.536 55.7834L209.533 55.7746C208.261 52.665 207.64 49.293 207.64 45.6871V35.2516C207.64 31.6685 208.261 28.3095 209.533 25.2021L209.534 25.1969L209.537 25.1922C210.819 22.0987 212.592 19.4131 214.866 17.1672C217.132 14.9044 219.812 13.1477 222.88 11.8926C225.985 10.6223 229.331 10 232.892 10H246.298ZM232.892 24.7023C231.228 24.7023 229.769 24.975 228.483 25.4852L228.474 25.4893L228.464 25.4928C227.187 25.9871 226.115 26.6835 225.219 27.5793L225.21 27.5893L225.037 27.7627C224.232 28.5929 223.582 29.6031 223.095 30.8242L223.006 31.0621C222.575 32.2657 222.342 33.6531 222.342 35.2516V45.6871C222.342 47.3818 222.605 48.8574 223.091 50.1432C223.607 51.4148 224.312 52.4841 225.201 53.3781C226.1 54.2575 227.181 54.963 228.473 55.4869C229.762 55.9749 231.226 56.2363 232.892 56.2363H246.222C247.897 56.2363 249.35 55.9722 250.611 55.484C251.929 54.9582 253.019 54.2521 253.913 53.3781C254.799 52.4862 255.49 51.4204 255.98 50.1525L255.984 50.1432L255.988 50.1338C256.497 48.8516 256.771 47.3799 256.771 45.6871V35.2516C256.771 33.6638 256.53 32.287 256.085 31.092L255.993 30.8553L255.984 30.8336L255.976 30.8119C255.512 29.5947 254.875 28.5888 254.075 27.7615L253.913 27.5986L253.894 27.5793L253.875 27.5605C253.071 26.7387 252.091 26.0791 250.902 25.5924L250.661 25.4975L250.64 25.4893L250.618 25.4805C249.362 24.9739 247.932 24.7023 246.298 24.7023H232.892Z" fill="#FFD5E4"/>
<path d="M74.9879 25.4641H35.3023V33.0801H70.5318V47.8586H35.3023V53.8756C35.3023 54.6448 35.4745 54.9664 35.5848 55.102L35.6275 55.1494C35.7198 55.2416 36.0195 55.4746 36.9395 55.4746H74.9879V70.1769H36.8633C35.317 70.1769 33.6989 69.9223 32.0223 69.451L31.6859 69.3543C29.8798 68.8181 28.2038 67.9662 26.6645 66.8166L26.3586 66.5828L26.3211 66.5523C24.7785 65.2954 23.4962 63.7296 22.4598 61.8936L22.2559 61.5227L22.2465 61.5045L22.2365 61.4857C21.1056 59.2865 20.6 56.7168 20.6 53.8756V18.151C20.6 17.1611 20.785 16.1988 21.1654 15.2857C21.5253 14.422 22.0234 13.6399 22.6643 12.9613L22.6877 12.9361L22.7123 12.9121C23.3958 12.2286 24.1935 11.699 25.0859 11.3271C26.0096 10.9423 26.9862 10.7617 27.9893 10.7617H74.9879V25.4641Z" fill="#FFD5E4"/>
<path d="M93.3834 40.4693C93.3834 43.0488 93.7359 45.086 94.3514 46.6539C95.0491 48.3624 95.8958 49.7157 96.8615 50.7637C97.8205 51.8042 98.8373 52.6044 99.9084 53.1912L100.123 53.3061C101.425 53.9798 102.613 54.4572 103.692 54.7603C104.889 55.0889 105.874 55.284 106.665 55.3697C107.654 55.4455 108.196 55.4746 108.389 55.4746H123.394V10.7617H138.096V62.7877C138.096 63.7908 137.916 64.7673 137.531 65.691C137.159 66.5834 136.629 67.3811 135.946 68.0646L135.922 68.0893L135.897 68.1127C135.218 68.7535 134.436 69.2516 133.572 69.6115C132.659 69.9919 131.697 70.1769 130.707 70.1769H108.389C106.107 70.1769 103.807 69.9293 101.493 69.4393C99.3023 68.9754 97.1743 68.2822 95.1107 67.3621L94.6988 67.1752L94.6818 67.1676L94.6654 67.1594C92.6141 66.1726 90.6792 64.9455 88.8617 63.4838L88.5002 63.1885C86.6597 61.6635 85.0371 59.8865 83.6316 57.867L83.3539 57.4598L83.3439 57.4451L83.3346 57.4305C81.9652 55.3238 80.8839 52.971 80.0785 50.3881L79.9209 49.8684L79.9191 49.8619C79.084 46.9946 78.681 43.8571 78.681 40.4693V10.7617H93.3834V40.4693Z" fill="#FFD5E4"/>
<path fill-rule="evenodd" clip-rule="evenodd" d="M189.816 10.7617C192.3 10.7617 194.568 11.2163 196.516 12.2482C196.521 12.2507 196.526 12.2534 196.531 12.2559C196.535 12.2583 196.54 12.2605 196.545 12.2629C198.329 13.189 199.833 14.4003 201.003 15.9156C202.134 17.3229 202.961 18.875 203.459 20.565C203.948 22.1468 204.213 23.6956 204.213 25.1969V31.5191C204.213 33.9728 203.911 36.2408 203.265 38.2943C202.642 40.2786 201.778 42.0781 200.658 43.6709C199.586 45.2064 198.329 46.5407 196.886 47.66C195.505 48.731 194.043 49.6267 192.501 50.3406L192.491 50.3447L192.482 50.3488C191.368 50.8535 190.232 51.2588 189.075 51.5641L210.625 70.1769H187.97L167.328 52.3146H159.539V70.1769H144.836V18.151C144.836 17.1611 145.021 16.1988 145.402 15.2857C145.762 14.422 146.26 13.6399 146.901 12.9613L146.924 12.9361L146.949 12.9121C147.632 12.2286 148.43 11.699 149.322 11.3271C150.246 10.9423 151.222 10.7617 152.226 10.7617H189.816ZM159.539 37.6123H183.383C184.377 37.5241 185.234 37.3226 185.973 37.0293C186.76 36.7018 187.386 36.2901 187.883 35.81L187.897 35.7959L187.912 35.7824C188.411 35.3167 188.797 34.7595 189.076 34.0855C189.348 33.4018 189.511 32.5598 189.511 31.5191V25.4641H159.539V37.6123Z" fill="#FFD5E4"/>
<path fill-rule="evenodd" clip-rule="evenodd" d="M321.441 10.7617C323.925 10.7617 326.193 11.2163 328.141 12.2482C328.146 12.2507 328.151 12.2534 328.156 12.2559C328.16 12.2583 328.165 12.2605 328.17 12.2629C329.954 13.189 331.458 14.4003 332.628 15.9156C333.759 17.3229 334.586 18.875 335.084 20.565C335.573 22.1468 335.838 23.6956 335.838 25.1969V31.5191C335.838 33.9728 335.536 36.2408 334.89 38.2943C334.267 40.2786 333.403 42.0781 332.283 43.6709C331.211 45.2064 329.954 46.5407 328.511 47.66C327.13 48.731 325.668 49.6267 324.126 50.3406L324.116 50.3447L324.107 50.3488C322.993 50.8535 321.857 51.2588 320.7 51.5641L342.25 70.1769H319.595L298.953 52.3146H291.164V70.1769H276.461V18.151C276.461 17.1611 276.646 16.1988 277.027 15.2857C277.387 14.422 277.885 13.6399 278.526 12.9613L278.549 12.9361L278.574 12.9121C279.257 12.2286 280.055 11.699 280.947 11.3271C281.871 10.9423 282.847 10.7617 283.851 10.7617H321.441ZM291.164 37.6123H315.008C316.002 37.5241 316.859 37.3226 317.598 37.0293C318.385 36.7018 319.011 36.2901 319.508 35.81L319.522 35.7959L319.537 35.7824C320.036 35.3167 320.422 34.7595 320.701 34.0855C320.973 33.4018 321.136 32.5598 321.136 31.5191V25.4641H291.164V37.6123Z" fill="#FFD5E4"/>
<path d="M354.577 40.4693C354.577 43.0488 354.929 45.086 355.545 46.6539C356.242 48.3624 357.089 49.7157 358.055 50.7637C359.014 51.8042 360.031 52.6044 361.102 53.1912L361.317 53.3061C362.618 53.9798 363.806 54.4572 364.885 54.7603C366.082 55.0889 367.068 55.284 367.859 55.3697C368.848 55.4455 369.389 55.4746 369.582 55.4746H384.587V10.7617H399.29V62.7877C399.29 63.7908 399.109 64.7673 398.724 65.691C398.352 66.5834 397.823 67.3811 397.139 68.0646L397.115 68.0893L397.09 68.1127C396.411 68.7535 395.629 69.2516 394.766 69.6115C393.853 69.9919 392.89 70.1769 391.9 70.1769H369.582C367.3 70.1769 365 69.9293 362.686 69.4393C360.496 68.9754 358.368 68.2822 356.304 67.3621L355.892 67.1752L355.875 67.1676L355.859 67.1594C353.807 66.1726 351.873 64.9455 350.055 63.4838L349.694 63.1885C347.853 61.6635 346.23 59.8865 344.825 57.867L344.547 57.4598L344.537 57.4451L344.528 57.4305C343.159 55.3238 342.077 52.971 341.272 50.3881L341.114 49.8684L341.112 49.8619C340.277 46.9946 339.874 43.8571 339.874 40.4693V10.7617H354.577V40.4693Z" fill="#FFD5E4"/>
<path d="M458.323 25.4641H422.217C420.869 25.4641 420.089 25.8498 419.567 26.4016C419.015 27.0111 418.637 27.8992 418.637 29.3102C418.637 30.7473 419.015 31.6155 419.537 32.1859C420.052 32.7021 420.843 33.0801 422.217 33.0801H445.097L445.125 33.0807C446.379 33.1105 447.674 33.289 449.005 33.6004C450.371 33.8952 451.709 34.3583 453.017 34.982C454.383 35.6215 455.669 36.4307 456.872 37.4014C458.135 38.3939 459.234 39.5847 460.172 40.9562C461.106 42.286 461.835 43.776 462.375 45.407L462.48 45.7352C463.047 47.5567 463.312 49.5556 463.312 51.7047C463.312 53.8565 463.033 55.8671 462.441 57.7117L462.442 57.7123C461.898 59.4598 461.153 61.0507 460.192 62.4625C459.243 63.8564 458.117 65.0617 456.813 66.0625C455.588 67.0029 454.303 67.785 452.959 68.3986C451.633 69.0036 450.27 69.4543 448.871 69.7457L448.87 69.7451C447.54 70.0276 446.245 70.1769 444.992 70.1769H404.392V55.4746H444.992C446.406 55.4746 447.174 55.0775 447.654 54.5629L447.674 54.5418C448.226 53.9638 448.61 53.1078 448.61 51.7047C448.61 51.0371 448.508 50.4829 448.337 50.0172C448.166 49.5491 447.93 49.1756 447.636 48.8676L447.616 48.8465L447.596 48.8248C447.384 48.5914 447.11 48.384 446.741 48.2143L446.577 48.1439L446.563 48.1387L446.55 48.1334C446.144 47.9655 445.637 47.8586 444.992 47.8586H422.217C420.457 47.8586 418.622 47.5708 416.725 47.0301L416.345 46.9187L416.33 46.9141L416.316 46.91C414.303 46.2757 412.432 45.2948 410.708 43.9861L410.366 43.7201L410.358 43.7143L410.351 43.7084C408.6 42.2962 407.154 40.5054 405.994 38.3846L405.766 37.9557L405.761 37.9457L405.755 37.9352C404.502 35.4598 403.935 32.5522 403.935 29.3102C403.935 26.0696 404.502 23.1692 405.761 20.7127L405.763 20.7074L405.766 20.7027C406.962 18.3953 408.481 16.4583 410.347 14.9523L410.692 14.6799C412.416 13.3471 414.293 12.3621 416.316 11.7484C418.354 11.1062 420.327 10.7617 422.217 10.7617H458.323V25.4641Z" fill="#FFD5E4"/>
<path d="M520.289 25.4641H498.465V70.1769H483.763V25.4641H461.902V10.7617H520.289V25.4641Z" fill="#FFD5E4"/>
</svg>
