<svg width="1920" height="304" viewBox="0 0 1920 304" fill="none" xmlns="http://www.w3.org/2000/svg">
<g clip-path="url(#clip0_527_973)">
<path d="M684.878 167.537C552.911 162.083 480.263 144.294 338.498 121.658C196.733 99.0229 -1 105.601 -1 105.601V243.231C50.9952 184.354 214.678 108.987 338.498 128.537C512.835 156.063 744.52 222.586 944.09 183.59C1059.7 161 1340.94 50.5433 1572.62 66.601C1757.97 79.447 1881.77 203.47 1920 263.877L1919 167.537C1844.83 122.423 1646.03 34.4902 1444.16 43.6658C1191.83 55.1353 864 174.939 684.878 167.537Z" fill="white"/>
<path d="M684.878 158.537C552.911 153.083 480.263 135.294 338.498 112.658C196.733 90.0229 -1 96.6006 -1 96.6006V273.231C50.9952 214.354 214.678 138.987 338.498 158.537C512.835 186.063 744.52 252.586 944.09 213.59C1059.7 191 1340.94 80.5433 1572.62 96.6006C1757.97 109.447 1881.77 233.47 1920 293.877V130.537C1845.83 85.423 1646.03 25.4902 1444.16 34.6658C1191.83 46.1353 864 165.939 684.878 158.537Z" fill="#95C3F2"/>
<g filter="url(#filter0_f_527_973)">
<path d="M684.878 128.537C552.911 123.083 480.263 105.294 338.498 82.6582C196.733 60.0229 -3 66.6006 -3 66.6006L-1 243.231C50.9952 184.354 214.678 108.987 338.498 128.537C512.835 156.063 744.52 222.586 944.09 183.59C1059.7 161 1340.94 50.5433 1572.62 66.6006C1757.97 79.4465 1882.77 203.47 1921 263.877V128.537C1846.83 83.4233 1646.03 -4.50982 1444.16 4.66581C1191.83 16.1353 864 135.939 684.878 128.537Z" fill="white"/>
</g>
</g>
<defs>
<filter id="filter0_f_527_973" x="-7" y="0" width="1932" height="267.877" filterUnits="userSpaceOnUse" color-interpolation-filters="sRGB">
<feFlood flood-opacity="0" result="BackgroundImageFix"/>
<feBlend mode="normal" in="SourceGraphic" in2="BackgroundImageFix" result="shape"/>
<feGaussianBlur stdDeviation="2" result="effect1_foregroundBlur_527_973"/>
</filter>
<clipPath id="clip0_527_973">
<rect width="1920" height="304" fill="white"/>
</clipPath>
</defs>
</svg>
