<svg fill="none" height="304" viewBox="0 0 1920 304" width="1920" xmlns="http://www.w3.org/2000/svg" xmlns:xlink="http://www.w3.org/1999/xlink"><filter id="a" color-interpolation-filters="sRGB" filterUnits="userSpaceOnUse" height="267.877" width="1932" x="-7" y="0"><feFlood flood-opacity="0" result="BackgroundImageFix"/><feBlend in="SourceGraphic" in2="BackgroundImageFix" mode="normal" result="shape"/><feGaussianBlur result="effect1_foregroundBlur_522_432" stdDeviation="2"/></filter><clipPath id="b"><path d="m0 0h1920v304h-1920z"/></clipPath><g clip-path="url(#b)"><path d="m684.878 167.537c-131.967-5.454-204.615-23.243-346.38-45.879-141.765-22.6351-339.498-16.057-339.498-16.057v176.63c51.9952-58.877 215.678-134.244 339.498-114.694 174.337 27.526 406.022 94.049 605.592 55.053 115.61-22.59 396.85-133.0467 628.53-116.989 185.35 12.846 309.15 136.869 347.38 197.276l-1-135.34c-74.17-45.114-272.97-133.0468-474.84-123.8712-252.33 11.4695-580.16 131.2732-759.282 123.8712z" fill="#ffdde8"/><path d="m684.878 158.537c-131.967-5.454-204.615-23.243-346.38-45.879-141.765-22.635-339.498-16.0573-339.498-16.0573v176.6303c51.9952-58.877 215.678-134.244 339.498-114.694 174.337 27.526 406.022 94.049 605.592 55.053 115.61-22.59 396.85-133.0466 628.53-116.9893 185.35 12.8463 309.15 136.8693 347.38 197.2763v-163.34c-74.17-45.1139-273.97-105.0467-475.84-95.8711-252.33 11.4695-580.16 131.2731-759.282 123.8711z" fill="#ffe7ef"/><g filter="url(#a)"><path d="m684.878 128.537c-131.967-5.454-204.615-23.243-346.38-45.8788-141.765-22.6353-341.498-16.0576-341.498-16.0576l2 176.6304c51.9952-58.877 215.678-134.244 339.498-114.694 174.337 27.526 406.022 94.049 605.592 55.053 115.61-22.59 396.85-133.0467 628.53-116.9894 185.35 12.8459 310.15 136.8694 348.38 197.2764v-135.34c-74.17-45.1137-274.97-133.04682-476.84-123.87119-252.33 11.46949-580.16 131.27319-759.282 123.87119z" fill="#fff7fa"/></g></g></svg>