<svg width="1138" height="394" viewBox="0 0 1138 394" fill="none" xmlns="http://www.w3.org/2000/svg">
<path d="M320 88.4V260.8H295.7V182.5H205.1V260.8H180.8V88.4H205.1V161.7H295.7V88.4H320Z" fill="black"/>
<path d="M343.8 197.1C343.8 156.7 369.7 130.7 405.2 130.7C444.7 130.7 467 163.5 464.2 204H367.4C367.4 229.5 384.5 244.9 405.5 244.9C425.5 244.9 434.8 236.3 440.2 223.7H462.6C456.7 245.8 437.6 263.9 406 263.9C364.9 264 343.8 234.9 343.8 197.1ZM367.5 185.5H441.2C440.7 167.4 428.4 149.3 405 149.3C383.2 149.3 368.5 162.4 367.5 185.5Z" fill="black"/>
<path d="M508.6 260.9H487V88.4H508.6V260.9Z" fill="black"/>
<path d="M614.4 170.2C611.1 155 599.2 149 583.2 149C569.6 149 555.4 153.5 555.4 165.2C555.4 175.4 562.5 179.7 575.9 182.6L594 186.2C618.3 191 638.7 199.5 638.7 224.3C638.7 249.5 615.9 264 585.7 264C551.2 264 532.2 241.9 529.8 219.5H552.6C555.9 235.9 566.2 245.7 586.1 245.7C603.5 245.7 616.8 238.6 616.8 226.7C616.8 213.9 604.7 208.4 589.9 205.5L570.9 201.7C552.6 197.9 533.6 190 533.6 166.3C533.6 143.7 556.4 130.6 585.7 130.6C614.2 130.6 633 146.1 637.1 170.3H614.4V170.2Z" fill="black"/>
<path d="M684.1 88.4V114.6H662.5V88.4H684.1ZM684.1 132.9V260.9H662.5V132.9H684.1Z" fill="black"/>
<path d="M737.4 152.2C744.8 140.1 757.1 130.8 778.8 130.8C809.7 130.8 820.9 150.8 820.9 180V260.9H799.3V186.5C799.3 166.8 796 149.6 771.2 149.6C750.3 149.6 737.4 164.1 737.4 191.5V261H715.8V133H737.4V152.2Z" fill="black"/>
<path d="M935.5 132.9H957.1V243.7C957.1 269.9 952.3 280.6 945 288.7C935.7 299.4 919.8 305.6 900.8 305.6C871.8 305.6 852.3 292.3 848.2 266.4H871.3C874.2 277.8 881.1 286.6 901 286.6C912.7 286.6 921.5 283.3 927.2 277.1C932 272.1 935.5 266.2 935.5 248.8V236.7C927.7 250.3 915.3 258.8 894.8 258.8C864.6 258.8 842 236 842 194.8C842 153.9 864.6 130.8 894.8 130.8C915.3 130.8 927.6 139.6 935.5 153.2V132.9ZM900.3 149.3C877.2 149.3 865.6 165.7 865.6 194.7C865.6 224 877.3 240.4 900.3 240.4C919.6 240.4 936.5 227.3 936.5 194.7C936.5 162.4 919.6 149.3 900.3 149.3Z" fill="black"/>
</svg>
