<svg fill="none" height="112" viewBox="0 0 178 112" width="178" xmlns="http://www.w3.org/2000/svg" xmlns:xlink="http://www.w3.org/1999/xlink"><mask id="a" height="100" maskUnits="userSpaceOnUse" width="56" x="61" y="6"><path d="m116.923 6h-55.7497v100h55.7497z" fill="#fff"/></mask><mask id="b" height="100" maskUnits="userSpaceOnUse" width="56" x="61" y="6"><path d="m116.868 6h-55.6947v99.986h55.6947z" fill="#fff"/></mask><mask id="c" height="100" maskUnits="userSpaceOnUse" width="56" x="61" y="6"><path d="m116.868 6h-55.6947v99.986h55.6947z" fill="#fff"/></mask><mask id="d" height="100" maskUnits="userSpaceOnUse" width="56" x="61" y="6"><path d="m116.868 6h-55.6947v99.986h55.6947z" fill="#fff"/></mask><mask id="e" height="100" maskUnits="userSpaceOnUse" width="56" x="61" y="6"><path d="m116.868 6h-55.6947v99.986h55.6947z" fill="#fff"/></mask><g mask="url(#a)"><g fill="#fff"><path d="m116.799 6.04102h-18.528v75.19948h18.528z"/><path d="m79.7428 6.04102h-18.5282v75.19948h18.5282z"/><path d="m92.0949 31.1035h-6.1761v25.0619h6.1761z"/><path d="m71.3109 90.4434v12.3246h-1.7331v-5.5984h-6.4787v5.5984h-1.7331v-12.3246h1.7331v5.2269h6.4787v-5.2269z"/></g><g mask="url(#b)"><path d="m74.7084 97.3891h5.2682c-.0413-1.293-.9216-2.586-2.586-2.586-1.5681-.0138-2.6135.9216-2.6822 2.586zm-1.6919.8115c0-2.8886 1.8432-4.7455 4.3879-4.7455 2.8198 0 4.4291 2.3521 4.2228 5.2269h-6.9188c0 1.816 1.2242 2.93 2.7235 2.93 1.4305 0 2.0908-.605 2.4759-1.513h1.6094c-.4402 1.582-1.7744 2.875-4.0441 2.875-2.9573 0-4.4566-2.064-4.4566-4.7734z" fill="#fff"/></g><path d="m84.8047 90.4434h-1.5543v12.3246h1.5543z" fill="#fff"/><g mask="url(#c)"><path d="m92.3426 96.2886c-.2476-1.0867-1.0867-1.5131-2.2283-1.5131-.9767 0-1.9808.3301-1.9808 1.1554 0 .729.509 1.0317 1.4581 1.238l1.2929.2613c1.7194.3439 3.1912.9629 3.1912 2.7238 0 1.802-1.6368 2.847-3.7826 2.847-2.4622 0-3.824-1.582-3.989-3.1774h1.6368c.2476 1.1694.9767 1.8704 2.4072 1.8704 1.238 0 2.2008-.509 2.2008-1.361 0-.922-.8666-1.3072-1.9119-1.5135l-1.3618-.2751c-1.3067-.2751-2.6685-.8391-2.6685-2.5309 0-1.6232 1.6369-2.5447 3.7276-2.5447 2.0358 0 3.3838 1.1004 3.6727 2.8473z" fill="#fff"/></g><path d="m97.3357 102.768h-1.5543v-9.1472h1.5543zm0-10.4539h-1.5543v-1.8707h1.5543z" fill="#fff"/><g mask="url(#d)"><path d="m101.132 94.9957c.523-.8666 1.417-1.5406 2.957-1.5406 2.215 0 3.013 1.4305 3.013 3.5213v5.7906h-1.554v-5.3229c0-1.4168-.248-2.6273-2.009-2.6273-1.499 0-2.407 1.0317-2.407 2.9987v4.9655h-1.5404v-9.1471h1.5544v1.3618z" fill="#fff"/></g><g mask="url(#e)"><path d="m112.769 94.7893c-1.651 0-2.476 1.1692-2.476 3.2462 0 2.0905.839 3.2605 2.476 3.2605 1.375 0 2.586-.936 2.586-3.2605.014-2.3108-1.197-3.2462-2.586-3.2462zm2.531-1.1692h1.554v7.9089c0 1.871-.344 2.628-.866 3.205-.661.771-1.802 1.197-3.15 1.197-2.077 0-3.467-.963-3.769-2.806h1.65c.207.825.702 1.444 2.132 1.444.84 0 1.459-.247 1.871-.674.344-.371.592-.784.592-2.022v-.866c-.564.976-1.445 1.582-2.916 1.582-2.16 0-3.769-1.637-3.769-4.5672 0-2.9299 1.623-4.5667 3.769-4.5667 1.458 0 2.352.6327 2.916 1.6093v-1.4443z" fill="#fff"/></g></g></svg>