<svg clip-rule="evenodd" fill-rule="evenodd" height="727" stroke-linejoin="round" stroke-miterlimit="2" viewBox="0 0 405 727" width="405" xmlns="http://www.w3.org/2000/svg"><g transform="translate(-1 -.299988)"><path d="m270.4.3h134.7v546.7h-134.7z"/><path d="m1 .3h134.7v546.7h-134.7z"/><path d="m180.6 182.5h44.9v182.2h-44.9z"/><path d="m74.4 613.9v89.6h-12.6v-40.7h-47.1v40.7h-12.6v-89.6h12.6v38h47.1v-38z" fill-rule="nonzero"/><path d="m99.1 664.4h38.3c-.3-9.4-6.7-18.8-18.8-18.8-11.4-.1-19 6.7-19.5 18.8zm-12.3 5.9c0-21 13.4-34.5 31.9-34.5 20.5 0 32.2 17.1 30.7 38h-50.3c0 13.2 8.9 21.3 19.8 21.3 10.4 0 15.2-4.4 18-11h11.7c-3.2 11.5-12.9 20.9-29.4 20.9-21.5 0-32.4-15-32.4-34.7z" fill-rule="nonzero"/><path d="m161.2 613.9h11.3v89.6h-11.3z"/><g fill-rule="nonzero"><path d="m227.3 656.4c-1.8-7.9-7.9-11-16.2-11-7.1 0-14.4 2.4-14.4 8.4 0 5.3 3.7 7.5 10.6 9l9.4 1.9c12.5 2.5 23.2 7 23.2 19.8 0 13.1-11.9 20.7-27.5 20.7-17.9 0-27.8-11.5-29-23.1h11.9c1.8 8.5 7.1 13.6 17.5 13.6 9 0 16-3.7 16-9.9 0-6.7-6.3-9.5-13.9-11l-9.9-2c-9.5-2-19.4-6.1-19.4-18.4 0-11.8 11.9-18.5 27.1-18.5 14.8 0 24.6 8 26.7 20.7z"/><path d="m263.6 703.5h-11.3v-66.5h11.3zm0-76h-11.3v-13.6h11.3z"/><path d="m291.2 647c3.8-6.3 10.3-11.2 21.5-11.2 16.1 0 21.9 10.4 21.9 25.6v42.1h-11.3v-38.7c0-10.3-1.8-19.1-14.6-19.1-10.9 0-17.5 7.5-17.5 21.8v36.1h-11.2v-66.5h11.3v9.9z"/><path d="m375.8 645.5c-12 0-18 8.5-18 23.6 0 15.2 6.1 23.7 18 23.7 10 0 18.8-6.8 18.8-23.7.1-16.8-8.7-23.6-18.8-23.6zm18.4-8.5h11.3v57.5c0 13.6-2.5 19.1-6.3 23.3-4.8 5.6-13.1 8.7-22.9 8.7-15.1 0-25.2-7-27.4-20.4h12c1.5 6 5.1 10.5 15.5 10.5 6.1 0 10.6-1.8 13.6-4.9 2.5-2.7 4.3-5.7 4.3-14.7v-6.3c-4.1 7.1-10.5 11.5-21.2 11.5-15.7 0-27.4-11.9-27.4-33.2s11.8-33.2 27.4-33.2c10.6 0 17.1 4.6 21.2 11.7v-10.5z"/></g></g></svg>