<svg width="414" height="110" viewBox="0 0 414 110" fill="none" xmlns="http://www.w3.org/2000/svg">
<path d="M178.4 33.4V76.5999H170.9V42.7H170.8L157.4 76.5999H152.4L138.7 42.7H138.6V76.5999H131.7V33.4H142.5L154.9 65.4H155.1L168.2 33.4H178.4ZM184.6 36.7C184.6 35.5 185 34.5 185.9 33.7C186.8 32.9 187.8 32.5 189 32.5C190.3 32.5 191.4 32.9 192.2 33.7C193 34.5 193.5 35.5 193.5 36.7C193.5 37.9 193.1 38.9 192.2 39.7C191.3 40.5 190.3 40.9 189 40.9C187.7 40.9 186.7 40.5 185.9 39.7C185.1 38.8 184.6 37.8 184.6 36.7ZM192.7 45.6V76.5999H185.4V45.6H192.7ZM214.8 71.2999C215.9 71.2999 217.1 71.1 218.4 70.5C219.7 70 220.9 69.3 222 68.5V75.2999C220.8 75.9999 219.5 76.4999 218 76.7999C216.5 77.0999 214.9 77.2999 213.1 77.2999C208.5 77.2999 204.8 75.9 202 73C199.1 70.1 197.7 66.4 197.7 62C197.7 57 199.2 52.9 202.1 49.7C205 46.5 209.1 44.9 214.5 44.9C215.9 44.9 217.3 45.1 218.6 45.4C220 45.7 221.1 46.2 221.9 46.6V53.5999C220.8 52.7999 219.6 52.1 218.5 51.7C217.3 51.3 216.1 51 214.9 51C212 51 209.7 51.8999 207.9 53.7999C206.1 55.6999 205.3 58.2 205.3 61.4C205.3 64.5 206.2 67 207.9 68.7C209.6 70.4 211.9 71.2999 214.8 71.2999ZM242.7 45.1C243.3 45.1 243.8 45.1 244.3 45.2C244.8 45.3 245.2 45.4 245.5 45.5V52.9C245.1 52.6 244.6 52.2999 243.8 52.0999C243 51.8999 242.2 51.7 241.1 51.7C239.3 51.7 237.8 52.5 236.6 54C235.4 55.5 234.7 57.8 234.7 61V76.5999H227.4V45.6H234.7V50.5H234.8C235.5 48.8 236.5 47.5 237.8 46.5C239.2 45.6 240.8 45.1 242.7 45.1ZM245.9 61.5999C245.9 56.4999 247.4 52.4 250.2 49.4C253.1 46.4 257.1 44.9 262.2 44.9C267 44.9 270.8 46.3 273.5 49.2C276.2 52.1 277.6 56 277.6 60.9C277.6 65.9 276.1 69.9 273.3 72.9C270.4 75.9 266.5 77.4 261.5 77.4C256.7 77.4 252.9 76 250.1 73.2C247.3 70.3 245.9 66.3999 245.9 61.5999ZM253.5 61.2999C253.5 64.4999 254.2 67 255.7 68.7C257.2 70.4 259.3 71.2999 262 71.2999C264.6 71.2999 266.7 70.5 268.1 68.7C269.5 67 270.2 64.4999 270.2 61.0999C270.2 57.7999 269.5 55.3 268.1 53.5C266.7 51.8 264.6 50.9 262.1 50.9C259.4 50.9 257.4 51.7999 255.9 53.5999C254.2 55.4999 253.5 57.9999 253.5 61.2999ZM288.5 53.7999C288.5 54.7999 288.8 55.6999 289.5 56.2999C290.2 56.8999 291.6 57.6 293.9 58.5C296.8 59.7 298.9 61 300 62.4C301.2 63.9 301.8 65.6 301.8 67.7C301.8 70.6 300.7 72.9 298.4 74.7C296.2 76.5 293.1 77.2999 289.3 77.2999C288 77.2999 286.6 77.0999 285 76.7999C283.4 76.4999 282.1 76.0999 281 75.5999V68.4C282.3 69.3 283.8 70.0999 285.3 70.5999C286.8 71.0999 288.2 71.4 289.5 71.4C291.1 71.4 292.4 71.2 293.1 70.7C293.9 70.2 294.3 69.5 294.3 68.4C294.3 67.4 293.9 66.5999 293.1 65.7999C292.3 65.0999 290.7 64.3 288.5 63.4C285.8 62.3 283.9 60.9999 282.8 59.5999C281.7 58.1999 281.1 56.4 281.1 54.2C281.1 51.4 282.2 49.0999 284.4 47.2999C286.6 45.4999 289.5 44.6 293 44.6C294.1 44.6 295.3 44.7 296.6 45C297.9 45.3 299.1 45.6 300 45.9V53C299 52.4 297.9 51.7999 296.6 51.2999C295.3 50.7999 294 50.6 292.8 50.6C291.4 50.6 290.3 50.9 289.6 51.4C288.9 52.1 288.5 52.7999 288.5 53.7999ZM304.9 61.5999C304.9 56.4999 306.4 52.4 309.2 49.4C312.1 46.4 316.1 44.9 321.2 44.9C326 44.9 329.8 46.3 332.5 49.2C335.2 52.1 336.6 56 336.6 60.9C336.6 65.9 335.1 69.9 332.3 72.9C329.4 75.9 325.5 77.4 320.5 77.4C315.7 77.4 311.9 76 309.1 73.2C306.4 70.3 304.9 66.3999 304.9 61.5999ZM312.5 61.2999C312.5 64.4999 313.2 67 314.7 68.7C316.2 70.4 318.3 71.2999 321 71.2999C323.6 71.2999 325.7 70.5 327.1 68.7C328.5 67 329.2 64.4999 329.2 61.0999C329.2 57.7999 328.5 55.3 327.1 53.5C325.7 51.8 323.6 50.9 321.1 50.9C318.4 50.9 316.4 51.7999 314.9 53.5999C313.3 55.4999 312.5 57.9999 312.5 61.2999ZM360.9 51.5999H350V76.5999H342.6V51.5999H337.4V45.6H342.6V41.3C342.6 38.1 343.7 35.4 345.8 33.3C347.9 31.2 350.6 30.2 353.9 30.2C354.8 30.2 355.6 30.3 356.3 30.3C357 30.3 357.6 30.5 358.1 30.7V37C357.9 36.9 357.4 36.7 356.8 36.5C356.2 36.3 355.5 36.2 354.7 36.2C353.2 36.2 352 36.7 351.2 37.6C350.4 38.5 350 40 350 41.8V45.5H360.9V38.5L368.2 36.3V45.5H375.6V51.5H368.2V66C368.2 67.9 368.6 69.2 369.2 70C369.9 70.8 371 71.2 372.5 71.2C372.9 71.2 373.4 71.1 374 70.9C374.6 70.7 375.1 70.5 375.5 70.2V76.2C375 76.5 374.3 76.7 373.2 76.9C372.1 77.1 371.1 77.2 370 77.2C366.9 77.2 364.6 76.3999 363.1 74.7999C361.6 73.1999 360.8 70.7 360.8 67.4L360.9 51.5999Z" fill="#737373"/>
<path d="M72.2 19H38V53.2H72.2V19Z" fill="#F25022"/>
<path d="M110 19H75.8V53.2H110V19Z" fill="#7FBA00"/>
<path d="M72.2 56.8H38V91H72.2V56.8Z" fill="#00A4EF"/>
<path d="M110 56.8H75.8V91H110V56.8Z" fill="#FFB900"/>
</svg>
