<svg width="301" height="60" viewBox="0 0 301 60" fill="none" xmlns="http://www.w3.org/2000/svg">
<path d="M223.147 21.6859C223.147 23.0266 221.864 24.1174 220.285 24.1174H210.373C208.583 24.1174 207.512 22.8815 207.512 21.6859V8.02985H202.606V21.7146C202.606 23.54 203.427 25.2469 204.919 26.5192C206.386 27.77 208.335 28.4593 210.405 28.4593H220.286C224.569 28.4593 228.054 25.4333 228.054 21.7146V8.0282H223.148V21.6865L223.147 21.6859Z" fill="black"/>
<path d="M77.1761 26.5192C78.643 27.77 80.592 28.4593 82.6618 28.4593H92.5428C96.8263 28.4593 100.311 25.4333 100.311 21.7146V8.0282H95.4045V21.6848C95.4045 23.0255 94.1223 24.1163 92.545 24.1163H82.6325C80.8424 24.1163 79.773 22.8804 79.773 21.6848V8.0282H74.867V21.7129C74.8637 23.54 75.6865 25.2452 77.1772 26.5192H77.1761Z" fill="black"/>
<path d="M132.165 14.7112L148.387 28.4026L148.506 28.5029H152.535V8.03651L147.936 8.0332L147.933 21.9325L131.707 8.10821L131.622 8.03651H127.558V28.5029H132.161L132.165 14.7112Z" fill="black"/>
<path d="M176.47 43.6761H193.352V39.4279H176.472V35.862H196.793V31.6155H171.622L171.64 51.7769L171.642 52.078H196.768L196.795 47.5933H176.46L176.47 43.6761Z" fill="black"/>
<path d="M235.837 15.5521L242.314 23.0132H245.44L251.917 15.5521V28.4973H256.52V8.03638H252.718L243.893 18.1871L235.156 8.13951L235.066 8.03638H231.235V28.4973H235.837V15.5521Z" fill="black"/>
<path d="M214.193 41.7679L205.456 31.7186L205.367 31.6155H201.536V52.078H206.138V39.1312L212.615 46.5923H215.741L222.217 39.1312V52.078H226.819V31.6155H223.019L214.193 41.7679Z" fill="black"/>
<path d="M136.077 35.797H149.723V52.0252H154.743V35.797H168.39V31.5637H136.077V35.797Z" fill="black"/>
<path d="M171.765 28.4974H176.435L176.428 8.32931V8.0282L157.406 8.03647H157.176L154.346 12.433H171.765V28.4974Z" fill="black"/>
<path d="M62.8218 31.5637H52.0165C50.2009 31.5637 48.4841 32.2051 47.1815 33.371C45.8662 34.5484 45.1416 36.1053 45.1416 37.7592C45.1416 39.4131 45.8541 40.9369 47.0982 42.0807L47.2549 42.2207C48.4671 43.3066 50.2478 43.9546 52.0148 43.9546H62.8202C63.986 43.9546 64.9352 44.7841 64.9352 45.8032C64.9352 46.8224 63.9927 47.6783 62.7882 47.6783H52.0165C50.8506 47.6783 49.9015 46.8489 49.9015 45.8297V45.4067H45.1416V45.8297C45.1416 49.2457 48.2393 52.0252 52.0462 52.0252H62.8196C66.61 52.0252 69.6929 49.2457 69.6929 45.8297C69.6929 44.1758 68.9682 42.6123 67.6546 41.4283C66.3503 40.2541 64.6335 39.6061 62.8196 39.6061H52.0165C50.8506 39.6061 49.9015 38.7767 49.9015 37.7575C49.9015 36.7384 50.8842 35.9089 52.0484 35.9089H62.8218C63.9745 35.9089 64.917 36.7301 64.9688 37.7774L64.9887 38.1789H69.6967V37.7559C69.6951 34.3416 66.6106 31.5637 62.8218 31.5637Z" fill="black"/>
<path d="M125.391 31.5637H114.586C112.77 31.5637 111.054 32.2051 109.751 33.371C108.435 34.5484 107.711 36.1058 107.711 37.7592C107.711 39.4126 108.424 40.9369 109.668 42.0807L109.824 42.2207C111.037 43.3066 112.817 43.9546 114.584 43.9546H125.39C126.556 43.9546 127.505 44.7841 127.505 45.8032C127.505 46.8224 126.562 47.6783 125.358 47.6783H114.584C113.418 47.6783 112.469 46.8489 112.469 45.8297V45.4067H107.709V45.8297C107.709 49.2457 110.807 52.0252 114.614 52.0252H125.387C129.178 52.0252 132.261 49.2457 132.261 45.8297C132.261 44.1758 131.536 42.6123 130.222 41.4283C128.918 40.2541 127.201 39.6061 125.387 39.6061H114.582C113.416 39.6061 112.467 38.7767 112.467 37.7575C112.467 36.7384 113.45 35.9089 114.614 35.9089H125.387C126.54 35.9089 127.483 36.7301 127.534 37.7774L127.554 38.1789H132.262V37.7559C132.264 34.3416 129.181 31.5637 125.391 31.5637H125.391Z" fill="black"/>
<path d="M238.175 35.9102H249.612C250.849 35.9102 251.862 36.7313 251.916 37.7803L251.938 38.1801H256.882V37.7571C256.882 34.3412 253.622 31.5616 249.611 31.5616H238.141C236.224 31.5616 234.412 32.1997 233.037 33.3601C231.639 34.5375 230.871 36.0982 230.871 37.7566C230.871 39.4149 231.627 40.9425 232.95 42.0869L233.116 42.2269C234.397 43.3062 236.278 43.9526 238.143 43.9526H249.613C250.865 43.9526 251.883 44.782 251.883 45.8012C251.883 46.8203 250.87 47.6762 249.58 47.6762H238.143C236.891 47.6762 235.873 46.8468 235.873 45.8276V45.4046H230.874V45.8276C230.874 49.2436 234.149 52.0231 238.178 52.0231H249.614C253.623 52.0231 256.886 49.2436 256.886 45.8276C256.886 44.1688 256.116 42.602 254.721 41.4174C253.344 40.2482 251.53 39.6035 249.614 39.6035H238.144C236.892 39.6035 235.875 38.7741 235.875 37.7549C235.871 36.7556 236.926 35.9096 238.174 35.9096L238.175 35.9102Z" fill="black"/>
<path d="M88.5324 39.4131L78.5085 31.5637H70.9806L86.1544 43.4666V52.0252H90.9441V43.4296L106.121 31.5637H98.5536L88.5324 39.4131Z" fill="black"/>
<path d="M178.712 8.0282L178.707 28.1963V28.4974H183.376V12.433H200.794L197.965 8.03647L178.712 8.0282Z" fill="black"/>
<path d="M113.79 18.4865H119.288L125.35 8.09253H119.226L113.481 17.9438H107.983L101.921 28.3378H108.045L113.79 18.4865Z" fill="black"/>
<path d="M55.8223 28.4494H60.5453C62.4391 28.4494 64.3842 27.9283 66.0392 26.9808L69.1138 28.9877L71.6336 25.4934L69.325 23.9564C70.669 22.1277 71.2569 20.3993 71.2834 18.2192C71.3115 15.641 70.2692 13.1549 68.3489 11.2164C66.2808 9.12899 63.5095 7.97803 60.5469 7.97803H55.8504C49.9296 7.97803 45.1134 12.5698 45.1134 18.2137C45.1134 23.8577 49.9164 28.4494 55.8223 28.4494ZM51.4705 13.9452C52.6545 12.8609 54.25 12.24 55.8504 12.24H60.5453C62.1573 12.24 63.761 12.8676 64.9451 13.9601C66.171 15.0906 66.8455 16.6012 66.8455 18.2121C66.8455 19.4077 66.4043 20.6386 65.6582 21.5464L62.604 19.5561L59.8929 22.8584L61.4199 23.8593C60.8789 24.059 60.296 24.161 59.6778 24.161H55.9089C54.1535 24.161 52.5266 23.5114 51.3254 22.3323C50.1965 21.2232 49.5502 19.7325 49.5502 18.2435C49.5502 16.6028 50.2329 15.0774 51.4705 13.9452Z" fill="black"/>
</svg>
