<svg width="1728" height="1728" xmlns="http://www.w3.org/2000/svg" id="Layer_6" data-name="Layer 6" viewBox="0 0 1728 1728"><defs><style>.cls-2{stroke-width:24px;stroke:#000;stroke-miterlimit:10;fill:none}.cls-11,.cls-5,.cls-7,.cls-9{stroke-width:0}.cls-7{fill:#c52c27}.cls-9{fill:#8d8485}.cls-11{fill:#edc727}</style></defs><path d="M0 708.98h1728V1728H0z" style="fill:#b4aa8d;stroke-width:0"/><path d="M0 0h1728v708.98H0z" style="stroke-width:0;fill:#f2d139"/><path d="M1579.18 40.42h112v112h-112z" style="stroke-width:0;fill:#54b97c"/><path d="M1579.18 178.42h112v112h-112z" class="cls-7"/><path d="M1579.18 316.42h112v112h-112z" style="stroke-width:0;fill:#2f799e"/><path d="M42.96 183.91h99.64c8.46 0 12.56-3.82 12.56-10.1s-4.09-9.83-12.83-9.83H97.01c-31.94 0-57.88-21.84-57.88-60.33 0-44.23 30.3-60.33 60.88-60.33h146.6v50.5H115.58c-7.37 0-12.56 2.73-12.56 9.55s5.19 10.1 12.56 10.1h42.59c36.58 0 60.88 21.57 60.88 60.06 0 36.31-27.3 60.88-62.79 60.88H42.14zM310.5 93.55v19.93h104.83v50.5H310.5v20.2h104.83v50.23H246.62V43.32h197.65v50.23z" class="cls-7"/><path d="M607.51 183.91v50.5H444.26V43.32h63.88v140.59zm84.63-90.09v19.66h104.01v50.5H692.14v70.43h-63.88V43.32h928.23v50.5z" class="cls-7"/><path d="M244.57 362.84c0 62.79-53.78 96.91-93.91 96.91H36.82v-191.1h116.02c46.96 0 91.73 35.76 91.73 94.18Zm-64.42-.28c0-30.85-19.38-43.41-48.87-43.41H100.7v90.09h32.76c26.75 0 46.68-18.02 46.68-46.68Zm89.27-93.91h63.88v191.1h-63.88zm188.09 120.39h-30.03v70.71H363.6v-191.1h135.13c38.77 0 62.24 22.39 62.24 60.6 0 25.39-16.93 45.86-39.58 54.87l70.71 101.19h-69.34zm-30.03-49.95h59.24c6.01 0 10.37-4.1 10.37-10.37 0-6.82-4.37-9.83-10.37-9.83h-59.24zm228.5-20.21v19.93h104.83v50.5H655.98v20.2h104.83v50.23H592.1v-191.1h168.71v50.23H655.98Zm129.67 45.05c0-54.33 44.23-98.28 98.55-98.28 28.12 0 53.23 11.74 71.25 30.3l-44.5 45.04c-6.55-7.64-16.11-12.28-26.75-12.28-19.38 0-35.22 15.83-35.22 35.22s15.83 35.49 35.22 35.49c10.37 0 19.93-4.64 26.21-12.01l45.04 44.77c-18.02 18.56-43.41 30.3-71.25 30.3-54.33 0-98.55-43.95-98.55-98.55m240.52-44.77h-56.78v-50.5h177.45v50.5h-56.78v140.59h-63.88V319.16Zm209.38-.28v19.93h104.83v50.5h-104.83v20.2h104.83v50.23h-168.71v-191.1h168.71v50.23h-104.83Zm320.95 45.18c0 62.79-33.21 95.68-73.34 95.68h-113.84v-191.1h116.02c46.96 0 71.15 36.99 71.15 95.41Zm-43.86-1.5c0-30.85-19.38-43.41-48.87-43.41h-30.58v90.09h32.76c26.75 0 46.68-18.02 46.68-46.68ZM130.73 605.71H100.7v70.71H36.82v-191.1h135.13c38.77 0 62.24 22.39 62.24 60.6 0 25.39-16.93 45.86-39.58 54.87l45.86 75.62h-69.34l-40.4-70.71Zm-30.02-49.96h59.24c6.01 0 10.37-4.1 10.37-10.37 0-6.82-4.37-9.83-10.37-9.83h-59.24zm228.49-20.2v19.93h104.83v50.5H329.2v20.2h104.83v50.23H265.32v-191.1h168.71v50.23H329.2Zm130.5 90.36h99.64c8.46 0 12.56-3.82 12.56-10.1s-4.09-9.83-12.83-9.83h-45.32c-31.94 0-57.88-21.84-57.88-60.33 0-44.23 30.3-60.33 60.88-60.33h75.35v50.5h-59.79c-7.37 0-12.56 2.73-12.56 9.55s5.19 10.1 12.56 10.1h42.59c36.58 0 60.88 21.57 60.88 60.06 0 36.31-27.3 60.88-62.79 60.88H458.88zm267.53-90.36v19.93h104.83v50.5H727.23v20.2h104.83v50.23H663.35v-191.1h168.71v50.23H727.23Zm261.8 121.48h-68.79l-5.19 19.38h-66.34l55.69-191.1h100.46l55.69 191.1h-66.34l-5.19-19.38Zm-13.65-51.05-18.56-70.16h-4.37l-18.56 70.16h41.5Zm195.74-.27h-30.03v70.71h-63.88v-191.1h135.13c38.77 0 62.24 22.39 62.24 60.6 0 25.39-16.93 45.86-39.58 54.87l45.86 75.62h-69.34l-40.4-70.71Zm-30.03-49.96h59.24c6.01 0 10.37-4.1 10.37-10.37 0-6.82-4.37-9.83-10.37-9.83h-59.24zm155.07 24.84c0-54.33 44.23-98.28 98.55-98.28 28.12 0 53.23 11.74 71.25 30.3l-44.5 45.04c-6.55-7.64-16.11-12.28-26.75-12.28-19.38 0-35.22 15.83-35.22 35.22s15.83 35.49 35.22 35.49c10.37 0 19.93-4.64 26.21-12.01l45.04 44.77c-18.02 18.56-43.41 30.3-71.25 30.3-54.33 0-98.55-43.95-98.55-98.55m395.02-95.27v191.1h-63.88v-70.43h-76.71v70.43h-63.88v-191.1h63.88v70.16h76.71v-70.16z" class="cls-5"/><circle cx="276.21" cy="1089.13" r="219.38" class="cls-5"/><ellipse cx="1442.21" cy="1093.86" class="cls-5" rx="217.82" ry="213.39"/><path d="M52.06 1729.02v-384.93c3.31-.34 5.87-.82 8.42-.83 86.4-.04 172.8-.31 259.2.08 51.86.23 91.21 48.91 91.91 113.2.41 37.6.08 75.22.09 112.83v12.03h64.15v148.09" class="cls-5"/><circle cx="706.78" cy="983.38" r="109.57" class="cls-5"/><circle cx="585.39" cy="1473.74" r="109.57" class="cls-5"/><path d="M1237.76 1729.49V1581.4h64.15v-12.03c0-37.61-.33-75.22.09-112.83.71-64.3 40.05-112.98 91.91-113.2 86.4-.38 172.8-.11 259.2-.08 2.55 0 5.1.49 8.42.83v384.93" class="cls-5"/><path d="m276.21 882.61 430.57 4.05" class="cls-2"/><path d="M266.67 1011.62c43.38-5.52 82.97 24.57 88.45 67.3 5.64 43.92-26.52 82.45-69.14 87.68-43.31 5.31-82.98-24.86-88.3-67.52-5.37-42.99 25.33-81.9 68.98-87.46Z" class="cls-9"/><path d="M335.8 958.68c9.95 5.24 19.5 10.27 29.37 15.47-4.92 11.33-9.75 22.47-14.73 33.94-12.66-7.16-24.99-14.13-37.61-21.28 7.76-9.51 15.28-18.71 22.97-28.13m-24.68 234.48c13.25-6.36 25.98-12.47 39.09-18.76 3.6 11.56 7.08 22.72 10.7 34.35-9.79 5.08-19.56 10.15-29.58 15.34l-20.22-30.93Zm-143.68-80.58c-12.23-2.58-23.82-5.03-35.71-7.54.34-11.02.68-21.78 1.02-32.83 12.5-.78 24.66-1.53 37.32-2.32-.88 14.36-1.74 28.25-2.63 42.68Z" class="cls-11"/><path d="M304.27 1308.65c-121.23 15.52-235.1-67.63-250.94-190.92-16.03-124.81 75.53-234.56 197.95-248.6 121.74-13.96 233.71 71.26 248.44 192.97 14.53 120.09-72.09 230.9-195.45 246.55m94.32-51.26c-.43-1.26-.77-2.31-1.15-3.34-12.91-34.91-25.8-69.83-38.8-104.71-.9-2.41-.86-4.4.15-6.76 5.85-13.65 10.98-27.53 14.31-42.02 2-8.73 1.51-17.16-1.25-25.66-3.73-11.52-8.43-22.62-13.86-33.42-1.19-2.36-1.12-4.25-.16-6.62 14.52-35.77 28.95-71.57 43.4-107.36.5-1.23.94-2.49 1.5-3.97-13.98-7.5-27.81-14.92-41.67-22.35-.84.96-1.45 1.61-2.02 2.31-14.42 17.75-28.85 35.5-43.26 53.25-9.11 11.22-18.2 22.45-27.3 33.67-1.07 1.32-2.04 2.5-4.1 2.65-11.79.89-23.41 2.97-34.97 5.45-13.49 2.89-25.15 8.76-34.53 19.01-7.94 8.67-15.4 17.69-21.95 27.41-1.66 2.46-3.51 3.63-6.53 4.01-38.8 4.86-77.58 9.86-116.37 14.83-1.32.17-2.64.34-4.09.52l1.24 49.81c1.01.15 1.67.27 2.33.35 37.72 4.46 75.44 8.94 113.18 13.31 2.84.33 4.65 1.29 6.29 3.71 8.95 13.25 19.01 25.63 30.68 36.7 9.19 8.72 19.71 15.02 32.33 17.47 5.37 1.04 10.84 1.83 16.3 2.22 5.8.41 11.65.2 17.71.26 23.77 30.81 47.68 61.79 71.62 92.82 13.87-7.96 27.32-15.69 40.98-23.54Z" class="cls-11"/><path d="m792.22 1027.32-304.66 434.99m430.02-443.3L1222.24 1454" style="stroke-width:24px;stroke:#000;stroke-miterlimit:10;fill:#b4aa8d"/><circle cx="1008.1" cy="981.39" r="109.57" class="cls-5"/><circle cx="1129.49" cy="1471.75" r="109.57" class="cls-5"/><path d="M597.21 1565.98h533.58" style="stroke:#000;stroke-miterlimit:10;fill:#b4aa8d;stroke-width:32.54px"/><path d="m1004.02 885.67 435.58-.01" class="cls-2"/><path d="M1456.54 1013.47c-42.34-10.92-85.4 13.96-96.2 55.67-11.1 42.86 15.96 85.13 57.59 95.66 42.3 10.7 85.44-14.26 96.08-55.9 10.72-41.97-14.85-84.43-57.46-95.42Z" class="cls-9"/><path d="m1394.61 952.28-31.08 11.66c3.46 11.86 6.86 23.51 10.36 35.52 13.46-5.52 26.56-10.89 39.98-16.39-6.51-10.41-12.81-20.48-19.25-30.79Zm-4.95 235.72c-12.34-7.97-24.21-15.63-36.43-23.52-5.02 11.02-9.87 21.65-14.93 32.74 9.08 6.27 18.14 12.52 27.42 18.93 8-9.41 15.81-18.59 23.94-28.15m152.66-61.91c12.46-1.03 24.27-2 36.37-3 1.04-10.98 2.06-21.7 3.11-32.69-12.3-2.34-24.27-4.61-36.74-6.98-.92 14.36-1.82 28.25-2.75 42.68Z" class="cls-11"/><path d="M1219 1034.31c29.89-118.9 151.67-189.38 270.69-160.26 119.69 29.29 196.76 149.66 165.19 271.47-31.18 120.32-154.59 188.53-272.91 157.92-120.42-31.01-192.46-151.81-162.97-269.13m113.52 234.93c27.65-27.78 55.25-55.51 82.7-83.1 6.02.7 11.8 1.64 17.6 1.97 5.47.31 10.99.21 16.45-.15 12.83-.85 24.06-5.77 34.27-13.28 12.97-9.52 24.49-20.54 35.04-32.56 1.93-2.2 3.84-2.92 6.7-2.89 37.98.4 75.97.69 113.95 1 .67 0 1.34-.03 2.36-.05 2.48-16.32 4.94-32.55 7.48-49.26-1.42-.37-2.71-.7-3.99-1.03-37.86-9.79-75.71-19.62-113.59-29.31-2.95-.76-4.64-2.15-5.98-4.8-5.28-10.46-11.55-20.34-18.34-29.94-8.03-11.35-18.85-18.63-31.87-23.19-11.16-3.91-22.42-7.43-34.01-9.79-2.02-.41-2.84-1.71-3.73-3.15-7.62-12.28-15.23-24.56-22.86-36.83q-18.105-29.13-36.24-58.26c-.48-.76-1.01-1.5-1.72-2.55l-44.15 16.95c.37 1.54.65 2.84.99 4.12 9.84 37.33 19.67 74.66 29.59 111.96.66 2.47.49 4.35-.99 6.55-6.74 10.04-12.8 20.46-17.94 31.41-3.8 8.09-5.35 16.39-4.46 25.3 1.48 14.79 4.83 29.21 8.92 43.48.71 2.47.5 4.44-.7 6.72-17.27 32.97-34.44 66-51.63 99.02-.51.98-.97 1.98-1.56 3.17 12.56 9.5 24.94 18.85 37.7 28.49Z" class="cls-11"/></svg>