<?xml version="1.0" encoding="UTF-8"?>
<svg xmlns="http://www.w3.org/2000/svg" width="558" height="159" viewBox="0 0 558 159" fill="none">
  <path d="M122.601 84.4948C111.564 76.4669 93.985 72.0592 68.8579 72.0592C46.9655 72.0592 31.5643 69.4286 23.082 63.2453C16.9559 58.7803 14.2244 52.5667 14.2244 43.0982C14.2244 39.6531 15.4194 36.2366 17.7789 32.9447C20.2832 29.4491 24.1188 26.1184 28.8716 23.3129C33.9492 20.3155 39.9103 18.4541 46.5901 16.7862C53.6268 15.0292 61.1178 14.1389 68.8579 14.1389C76.598 14.1389 84.089 15.0292 91.1256 16.7862C97.8054 18.4541 103.767 20.3155 108.844 23.3129C113.599 26.1201 117.434 29.4508 119.939 32.9447C122.296 36.2366 123.493 39.6531 123.493 43.0982H137.125C137.125 36.7465 135.072 30.6608 131.021 25.006C127.371 19.9098 122.241 15.391 115.776 11.574C103.134 4.10988 86.4721 0 68.8579 0C51.2436 0 34.582 4.10988 21.941 11.574C15.4766 15.391 10.3468 19.9098 6.69639 25.006C2.64542 30.6591 0.592163 36.7465 0.592163 43.0982C0.592163 56.9745 5.32138 67.1684 15.0508 74.2605C26.0677 82.2918 43.6685 86.6996 68.8579 86.6996C90.6948 86.6996 106.077 89.3318 114.582 95.5168C120.743 99.9986 123.491 106.211 123.491 115.659C123.491 119.104 122.296 122.52 119.937 125.812C117.433 129.308 113.597 132.639 108.843 135.444C103.765 138.442 97.8037 140.303 91.1239 141.971C84.0873 143.728 76.5963 144.618 68.8562 144.618C61.1161 144.618 53.6251 143.728 46.5885 141.971C39.9086 140.303 33.9475 138.442 28.8699 135.444C24.1154 132.637 20.2799 129.306 17.7772 125.812C15.4194 122.52 14.2228 119.104 14.2228 115.659H0.592163C0.592163 122.01 2.64542 128.096 6.69639 133.751C10.3468 138.847 15.4766 143.366 21.941 147.183C34.582 154.645 51.2436 158.757 68.8579 158.757C86.4721 158.757 103.134 154.647 115.775 147.183C122.239 143.366 127.369 138.847 131.019 133.751C135.07 128.098 137.124 122.01 137.124 115.659C137.124 101.794 132.374 91.6004 122.601 84.4915V84.4948Z" fill="#101010"></path>
  <path d="M21.9427 110.905C34.5836 118.367 51.2453 122.479 68.8596 122.479C86.4738 122.479 103.135 118.369 115.776 110.905C115.977 110.787 116.172 110.666 116.371 110.546C115.467 105.248 113.119 102.779 110.623 100.965C109.916 100.452 109.13 99.962 108.269 99.4992C103.317 102.34 97.5563 104.594 91.1256 106.199C84.089 107.956 76.598 108.847 68.8579 108.847C61.1178 108.847 53.6268 107.956 46.5901 106.199C39.9103 104.531 33.9492 102.165 28.8716 99.1676C24.1171 96.3604 20.2815 93.0297 17.7789 89.5358C16.0067 87.0618 14.8909 84.5171 14.4466 81.9438C13.2769 81.2286 12.1543 80.483 11.0856 79.7038C7.48572 77.08 4.42771 74.0455 1.94193 70.6391C1.04489 73.4834 0.592163 76.4051 0.592163 79.3823C0.592163 85.7339 2.64542 91.8197 6.69639 97.4745C10.3468 102.571 15.4766 107.089 21.941 110.907L21.9427 110.905Z" fill="#101010"></path>
  <path d="M115.776 47.8541C103.137 40.3917 86.4735 36.2801 68.8592 36.2801C51.245 36.2801 34.5833 40.39 21.9424 47.8541C21.7404 47.9736 21.5435 48.0947 21.3432 48.2159C22.2386 53.5342 24.5712 55.9981 27.0486 57.8039C27.7588 58.3206 28.5498 58.8137 29.4182 59.2799C34.3763 56.4306 40.149 54.1704 46.5915 52.5614C53.6281 50.8044 61.1191 49.9141 68.8592 49.9141C76.5994 49.9141 84.0904 50.8044 91.127 52.5614C97.8068 54.2293 103.768 56.5956 108.846 59.593C113.6 62.4002 117.436 65.7309 119.94 69.2248C121.722 71.7122 122.838 74.2704 123.279 76.8588C124.422 77.559 125.517 78.2877 126.564 79.0501C130.189 81.6874 133.266 84.7336 135.767 88.1551C136.671 85.2991 137.127 82.369 137.127 79.3783C137.127 73.0267 135.073 66.9409 131.022 61.2861C127.372 56.19 122.242 51.6711 115.778 47.8541H115.776Z" fill="#101010"></path>
  <path d="M229.049 124.848C217.306 124.848 208.018 122.419 201.184 117.561C194.35 112.606 190.597 105.708 189.923 96.8668H203.494C204.168 102.502 206.622 106.68 210.857 109.4C215.092 112.12 221.301 113.481 229.482 113.481C244.208 113.481 251.572 108.72 251.572 99.1986C251.572 95.3123 250.417 92.349 248.107 90.3087C245.893 88.1712 242.091 86.6167 236.701 85.6452L217.787 82.1475C202.099 79.2328 194.254 71.6545 194.254 59.4127C194.254 51.543 197.19 45.325 203.061 40.7586C208.932 36.1922 216.969 33.909 227.172 33.909C237.663 33.909 246.037 36.2408 252.293 40.9043C258.646 45.5678 262.304 52.0774 263.266 60.4329H249.983C248.925 55.2836 246.518 51.4944 242.765 49.0655C239.011 46.5394 233.765 45.2764 227.028 45.2764C220.579 45.2764 215.622 46.4423 212.157 48.774C208.692 51.0086 206.959 54.312 206.959 58.6841C206.959 61.9874 208.066 64.6106 210.28 66.5538C212.59 68.3998 216.296 69.8085 221.397 70.7801L240.166 74.2778C248.443 75.8323 254.507 78.5527 258.357 82.439C262.207 86.3253 264.132 91.5717 264.132 98.1784C264.132 106.631 261.1 113.189 255.037 117.853C248.973 122.516 240.31 124.848 229.049 124.848Z" fill="#101010"></path>
  <path d="M275.486 158.076V50.2314H268.267V35.6578H283.283V48.774H289.346C292.234 43.9162 296.132 40.2242 301.041 37.6981C305.95 35.172 311.869 33.909 318.799 33.909C327.366 33.909 334.681 35.755 340.744 39.4469C346.808 43.0418 351.428 48.2397 354.605 55.0407C357.877 61.8417 359.513 69.9543 359.513 79.3785C359.513 88.8028 357.925 96.9154 354.749 103.716C351.573 110.517 347.001 115.764 341.033 119.456C335.162 123.051 328.136 124.848 319.954 124.848C312.928 124.848 306.768 123.439 301.474 120.622C296.276 117.707 292.33 113.578 289.635 108.234H289.058V158.076H275.486ZM316.922 113.189C326.066 113.189 333.189 110.226 338.29 104.299C343.391 98.3728 345.942 90.0658 345.942 79.3785C345.942 68.6912 343.391 60.3843 338.29 54.4577C333.189 48.5311 326.066 45.5678 316.922 45.5678C308.548 45.5678 301.811 47.9968 296.71 52.8546C291.608 57.7125 289.058 64.1734 289.058 72.2375V86.5196C289.058 94.5836 291.608 101.045 296.71 105.902C301.811 110.76 308.548 113.189 316.922 113.189Z" fill="#101010"></path>
  <path d="M372.213 123.099V35.6578H385.785V123.099H372.213ZM378.999 26.1996C376.593 26.1996 374.523 25.3738 372.791 23.7221C371.154 21.9733 370.336 19.8844 370.336 17.4555C370.336 15.0265 371.154 12.9862 372.791 11.3346C374.523 9.58575 376.593 8.71134 378.999 8.71134C381.405 8.71134 383.426 9.58575 385.063 11.3346C386.795 12.9862 387.661 15.0265 387.661 17.4555C387.661 19.8844 386.795 21.9733 385.063 23.7221C383.426 25.3738 381.405 26.1996 378.999 26.1996Z" fill="#101010"></path>
  <path d="M406.902 123.099V50.2314H399.683V35.6578H414.698V51.6887H420.762C423.265 46.5394 427.018 42.5074 432.023 39.5927C437.125 36.5808 443.006 35.0749 449.936 35.0749V46.7337H449.349C440.301 46.7337 433.226 49.4541 428.125 54.8949C423.024 60.3357 420.473 67.7197 420.473 77.0468V123.099H406.902Z" fill="#101010"></path>
  <path d="M481.118 124.702C471.493 124.702 463.89 122.273 458.307 117.416C452.724 112.461 449.933 106.097 449.933 98.3242C449.933 89.9687 452.628 83.5077 458.018 78.9413C463.505 74.3749 471.397 72.0917 481.696 72.0917H512.881V68.0111C512.881 53.0489 504.941 45.5678 489.059 45.5678C476.162 45.5678 468.413 50.5229 465.815 60.4329H451.954C453.302 52.0774 457.296 45.5678 463.938 40.9043C470.675 36.2408 479.193 33.909 489.492 33.909C501.235 33.909 510.234 36.7751 516.491 42.5074C522.747 48.1425 525.875 56.3037 525.875 66.991V108.526H532.516V123.099H517.501V109.983H511.438C508.454 114.452 504.315 118.047 499.021 120.767C493.727 123.391 487.76 124.702 481.118 124.702ZM482.851 113.335C488.337 113.335 493.342 112.169 497.866 109.837C502.486 107.506 506.144 104.396 508.839 100.51C511.534 96.5268 512.881 92.1547 512.881 87.394V82.5847H482.707C469.328 82.5847 462.638 87.6369 462.638 97.7412C462.638 102.502 464.419 106.291 467.98 109.109C471.638 111.926 476.595 113.335 482.851 113.335Z" fill="#101010"></path>
  <path d="M543.836 123.099V0.68126H557.408V123.099H543.836Z" fill="#101010"></path>
</svg>
