<?xml version="1.0" encoding="UTF-8" standalone="no"?>
<!DOCTYPE svg PUBLIC "-//W3C//DTD SVG 1.1//EN" "http://www.w3.org/Graphics/SVG/1.1/DTD/svg11.dtd">
<svg width="100%" height="100%" viewBox="0 0 237 73" version="1.1" xmlns="http://www.w3.org/2000/svg" xmlns:xlink="http://www.w3.org/1999/xlink" xml:space="preserve" xmlns:serif="http://www.serif.com/" style="fill-rule:evenodd;clip-rule:evenodd;stroke-linejoin:round;stroke-miterlimit:2;">
    <g transform="matrix(0.782241,0,0,0.782241,-190.509,-201.977)">
        <path d="M331.4,271.8L347.3,271.8L347.3,339.9L331.4,339.9L331.4,332.8C324.4,340.9 315.9,342 311,342C290,342 278,324.5 278,305.8C278,283.6 293.2,270 311.2,270C316.2,270 325,271.3 331.4,279.7L331.4,271.8ZM294.2,306.1C294.2,317.9 301.6,327.8 313.1,327.8C323.1,327.8 332.4,320.5 332.4,306.3C332.4,291.4 323.2,284.3 313.1,284.3C301.6,284.3 294.2,294 294.2,306.1ZM366,271.8L382,271.8L382,277.9C383.8,275.8 386.4,273.5 388.6,272.2C391.7,270.4 394.7,269.9 398.3,269.9C402.2,269.9 406.4,270.5 410.8,273.1L404.3,287.5C400.7,285.2 397.8,285.1 396.2,285.1C392.8,285.1 389.4,285.6 386.3,288.8C381.9,293.5 381.9,300 381.9,304.5L381.9,339.8L366,339.8L366,271.8ZM421,271.8L436.9,271.8L436.9,278.1C442.2,271.6 448.5,270 453.7,270C460.8,270 467.5,273.4 471.3,280C477,271.9 485.5,270 491.5,270C499.8,270 507,273.9 510.9,280.7C512.2,283 514.5,288 514.5,297.9L514.5,340L498.6,340L498.6,302.5C498.6,294.9 497.8,291.8 497.1,290.4C496.1,287.8 493.7,284.4 488,284.4C484.1,284.4 480.7,286.5 478.6,289.4C475.8,293.3 475.5,299.1 475.5,304.9L475.5,340L459.6,340L459.6,302.5C459.6,294.9 458.8,291.8 458.1,290.4C457.1,287.8 454.7,284.4 449,284.4C445.1,284.4 441.7,286.5 439.6,289.4C436.8,293.3 436.5,299.1 436.5,304.9L436.5,340L421,340L421,271.8Z" style="fill:white;fill-rule:nonzero;"/>
    </g>
</svg>
