<?xml version="1.0" encoding="UTF-8"?>
<svg width="154px" height="24px" viewBox="0 0 154 24" version="1.1" xmlns="http://www.w3.org/2000/svg" xmlns:xlink="http://www.w3.org/1999/xlink">
    <title>Group</title>
    <g id="Webdesign" stroke="none" stroke-width="1" fill="none" fill-rule="evenodd">
        <g id="Group" fill="#FFFFFF">
            <path d="M103.68,2.39600042 C103.68,1.07272616 104.752726,4.17637541e-07 106.076,4.17637541e-07 L125.283,4.17637541e-07 C126.606436,4.17637541e-07 127.679448,1.07256441 127.68,2.39600042 L127.68,24.0000004 L116.64,24.0000004 L116.64,16.8000004 L114.72,16.8000004 L114.72,24.0000004 L103.68,24.0000004 L103.68,2.39600042 Z M118.56,11.0400004 L118.56,9.12000042 L112.8,9.12000042 L112.8,11.0400004 L118.56,11.0400004 Z M0,2.39600042 C0,1.07272616 1.07272574,2.0865429e-07 2.396,2.0865429e-07 L21.603,2.0865429e-07 C22.238632,-0.000264871181 22.8483209,0.252052999 23.2978743,0.701418918 C23.7474278,1.15078484 24,1.76036841 24,2.39600042 L24,24.0000002 L12.96,24.0000002 L12.96,16.8000004 L11.04,16.8000004 L11.04,24.0000002 L0,24.0000002 L0,2.39600042 Z M14.88,11.0400004 L14.88,9.12000042 L9.12,9.12000042 L9.12,11.0400004 L14.88,11.0400004 L14.88,11.0400004 Z" id="Shape"></path>
            <path d="M25.92,2.39600042 C25.9205513,1.073345 26.9923449,0.00110389516 28.315,4.17637541e-07 L47.522,4.17637541e-07 C48.8452743,4.17637541e-07 49.918,1.07272616 49.918,2.39600042 L49.918,7.20000042 L38.88,7.20000042 L38.88,5.28000042 L36.96,5.28000042 L36.96,9.12000042 L47.524,9.12000042 C48.159632,9.12000036 48.7692156,9.37257262 49.2185815,9.82212609 C49.6679474,10.2716796 49.9202653,10.8813685 49.9200002,11.5170004 L49.9200002,21.6040004 C49.9200002,22.2396324 49.6674278,22.849216 49.2178743,23.2985819 C48.7683209,23.7479478 48.158632,24.0002657 47.523,24.0000004 L28.316,24.0000004 C26.9925639,24.0000004 25.9195521,22.9274364 25.919,21.6040004 L25.919,16.8000004 L36.959,16.8000004 L36.959,18.7200004 L38.879,18.7200004 L38.879,14.8800004 L28.316,14.8800004 C26.9921735,14.8800004 25.919,13.806827 25.919,12.4830004 L25.919,2.39600042 L25.92,2.39600042 Z M75.84,3.84000042 L64.8,3.84000042 L64.8,4.17637541e-07 L53.76,4.17637541e-07 L53.76,3.84000042 L51.84,3.84000042 L51.84,12.9600004 L53.76,12.9600004 L53.76,21.6030004 C53.7597347,22.2384591 54.0119153,22.8479965 54.461065,23.2975212 C54.9102146,23.7470459 55.5195413,23.9997353 56.155,24.0000004 L75.838,24.0000004 L75.838,14.8800004 L64.8,14.8800004 L64.8,12.9600004 L73.444,12.9600004 C74.767436,12.9594483 75.84,11.8864365 75.84,10.5630004 L75.84,3.84000042 Z" id="Shape" fill-rule="nonzero"></path>
            <path d="M101.76,2.39600042 C101.759448,1.07256441 100.686436,4.17637541e-07 99.363,4.17637541e-07 L77.76,4.17637541e-07 L77.76,24.0000004 L88.8,24.0000004 L88.8,16.8000004 L90.72,16.8000004 L90.72,24.0000004 L101.76,24.0000004 L101.76,14.8800004 L96.96,14.8800004 L96.96,12.9600004 L99.363,12.9600004 C100.686827,12.9600004 101.76,11.886827 101.76,10.5630004 L101.76,2.39600042 Z M92.64,9.12000042 L92.64,11.0400004 L86.88,11.0400004 L86.88,9.12000042 L92.64,9.12000042 Z" id="Shape"></path>
            <polygon id="Path" fill-rule="nonzero" points="140.64 14.8800004 153.6 14.8800004 153.6 24.0000004 129.6 24.0000004 129.6 4.17637541e-07 140.64 4.17637541e-07"></polygon>
        </g>
    </g>
</svg>