<svg viewBox="0 0 7452 1438" xmlns="http://www.w3.org/2000/svg"><path d="m2059.4 1057.2c-50.9 0-96.5-12.7-136.9-38.1s-72.3-59.9-95.6-103.5c-23.3-43.5-35-92.8-35-147.9s12.7-104.5 38.1-148.4 59.9-78.6 103.5-104c43.5-25.4 92.5-38.2 146.9-38.1 54.3 0 103.1 12.7 146.3 38.1s77.5 60.1 103 104c25.4 43.9 38.2 93.4 38.2 148.4h-40.9c0 55-11.7 104.3-35 147.9-23.3 43.5-55.2 78-95.6 103.5-40.5 25.4-86.1 38.1-137 38.1zm20.9-94c35.5 0 67.2-8.5 95.1-25.6s49.8-40.4 65.9-70c16-29.6 24-62.9 24.1-99.8 0-37.6-8-71.2-24.1-100.9-16-29.6-38-53-65.9-70-27.9-17.1-59.6-25.6-95.1-25.6-34.8 0-66.4 8.5-94.6 25.6s-50.5 40.4-66.9 70-24.6 63.3-24.6 100.9c0 36.9 8.2 70.2 24.6 99.8s38.7 52.9 66.9 70c28.3 17 59.8 25.6 94.6 25.6zm234.1 90.9c-15.3 0-28-5.1-38.1-15.2s-15.1-22.8-15.2-38.2v-159.8l19.9-110.8 86.8 37.6v233.1c0 15.3-5.1 28-15.1 38.2-10.2 10-22.9 15.1-38.3 15.1zm613.5-1.1c-6.7 0-13.5-1-19.9-3.1-6.3-2.1-12.2-6.6-17.8-13.6l-182.9-219.4-37.6-37.6-181.9-215.3c-9.1-11.1-13.9-23.1-14.6-36s2.8-23.8 10.4-32.9c7.7-9.1 19.2-13.6 34.5-13.6 16.7 0 30 5.9 39.7 17.8l178.7 213.2 27.2 25.1 196.5 235.2c10.4 12.5 15.5 24.9 15.1 37.1-.1 11.7-5 22.8-13.6 30.8-8.5 8.2-19.8 12.3-33.8 12.3zm-399.2 0c-13.9 0-24.9-4.4-32.9-13.1s-12-19.3-12-31.9c0-12.5 4.9-25.1 14.6-37.6l177.7-222.6 56.4 79.4-166.2 209c-10.4 11.3-23 16.8-37.6 16.8zm258.2-268.6-72.1-61.7 168.2-223.6c5.6-7 11.5-11.7 17.8-14.1 6.7-2.5 13.8-3.8 20.9-3.7 15.3 0 26.8 4.7 34.5 14.1s11.3 20.7 11 34-5.4 26.1-15.2 38.7zm528.8 272.8c-56.4 0-106.3-12.4-149.5-37.1s-77.2-58.9-101.9-102.4c-24.7-43.6-37.1-93.6-37.1-150 0-57.1 12.4-107.5 37.1-151s58.7-77.7 101.9-102.4 93-37.1 149.5-37.1c55.7 0 105.2 12.4 148.4 37.1s77.2 58.9 101.9 102.4 37.1 93.9 37.1 151c0 56.4-12.2 106.4-36.6 150-23.7 42.8-58.8 78.3-101.4 102.4-43.2 24.8-93 37.1-149.4 37.1zm0-94c36.2 0 68.3-8.4 96.1-25.1 27.9-16.7 49.6-39.7 65.3-69s23.5-63.1 23.5-101.4-7.8-72.3-23.5-101.9-37.5-52.8-65.3-69.5c-27.9-16.7-59.9-25.1-96.1-25.1s-68.3 8.4-96.2 25.1-49.8 39.9-65.9 69.5c-16 29.6-24 63.6-24 101.9s8 72.1 24 101.4 38 52.3 65.9 69 60 25.1 96.2 25.1zm705.5 94c-54.4 0-103.3-12.7-146.9-38.1s-78-60.1-103.5-104c-25.4-43.9-38.2-93.4-38.1-148.4 0-55 11.7-104.3 35-147.9 23.3-43.5 55.2-78 95.6-103.5s86.1-38.2 136.9-38.1c41.1 0 79.1 8.5 113.9 25.6s64.1 40.2 87.8 69.5v-282.2c0-16 5.1-28.9 15.2-38.7s22.8-14.6 38.1-14.6c16 0 28.9 4.9 38.7 14.6 9.8 9.8 14.7 22.6 14.6 38.7v476.6c0 55-12.7 104.5-38.2 148.4-25.4 43.9-59.8 78.6-103 104-43 25.4-91.8 38.1-146.1 38.1zm0-94c35.5 0 67.2-8.5 95.1-25.6s49.8-40.6 65.9-70.6c16-30 24-63.4 24-100.3 0-37.6-8-71.1-24-100.3-16-29.3-37.9-52.4-65.9-69.5-27.9-17.1-59.6-25.6-95.1-25.6-34.8 0-66.4 8.5-94.6 25.6-28 16.9-51.1 40.8-66.9 69.5-16.4 29.3-24.6 62.7-24.6 100.3 0 36.9 8.2 70.4 24.6 100.3s38.7 53.5 66.9 70.5c28.2 17.1 59.7 25.7 94.6 25.7zm734.7 94c-56.4 0-106.3-12.4-149.5-37.1s-77.2-58.9-101.9-102.4c-24.7-43.6-37.1-93.6-37.1-150 0-57.1 12.4-107.5 37.1-151s58.7-77.7 101.9-102.4 93-37.1 149.5-37.1c55.7 0 105.2 12.4 148.4 37.1s77.2 58.9 101.9 102.4 37.1 93.9 37.1 151c0 56.4-12.2 106.4-36.6 150-23.7 42.8-58.8 78.3-101.4 102.4-43.2 24.8-93 37.1-149.4 37.1zm0-94c36.2 0 68.3-8.4 96.1-25.1 27.9-16.7 49.6-39.7 65.3-69s23.5-63.1 23.5-101.4-7.8-72.3-23.5-101.9-37.5-52.8-65.3-69.5c-27.9-16.7-59.9-25.1-96.1-25.1s-68.3 8.4-96.1 25.1c-27.9 16.7-49.8 39.9-65.9 69.5-16 29.6-24 63.6-24 101.9s8 72.1 24 101.4 38 52.3 65.9 69 59.9 25.1 96.1 25.1zm422.2-371.1c-14.7 0-26.5-4.2-35.6-12.5-9-8.4-13.6-18.8-13.6-31.4 0-13.9 4.5-25.1 13.6-33.4 9.1-8.4 20.9-12.5 35.5-12.5h241.4c14.6 0 26.5 4.2 35.5 12.5 9.1 8.4 13.6 19.5 13.6 33.4 0 12.5-4.5 23-13.6 31.4s-20.9 12.5-35.5 12.5zm232 460.9c-34.8 0-66.2-8.9-94.1-26.6s-49.8-42-65.8-72.6c-16-30.7-24-65.2-24-103.5v-498.5c0-15.3 4.9-27.9 14.6-37.6s22.3-14.6 37.6-14.6 27.9 4.9 37.6 14.6 14.6 22.3 14.6 37.6v498.5c0 27.9 7.7 51.2 23 70s34.1 28.2 56.4 28.2h35.5c12.5 0 23.1 4.9 31.9 14.6 8.7 9.8 13.1 22.3 13.1 37.6s-5.8 27.9-17.2 37.6-26.3 14.6-44.4 14.6zm470.4 4.2c-54.4 0-103.3-12.7-146.9-38.1-43.1-24.9-78.7-60.8-103.5-104-25.4-43.9-38.1-93.4-38.1-148.4s11.7-104.3 35-147.9c23.3-43.5 55.2-78 95.6-103.5s86.1-38.2 136.9-38.1c41.1 0 79.1 8.5 113.9 25.6s64.1 40.2 87.8 69.5v-282.2c0-16 5-28.9 15.1-38.7s22.8-14.6 38.1-14.6c16 0 28.9 4.9 38.7 14.6 9.8 9.8 14.7 22.6 14.6 38.7v476.6c0 55-12.7 104.5-38.2 148.4-25.4 43.9-59.8 78.6-103 104-42.9 25.4-91.7 38.1-146 38.1zm0-94c35.5 0 67.2-8.5 95.1-25.6s49.8-40.6 65.8-70.6 24-63.4 24.1-100.3c0-37.6-8-71.1-24.1-100.3-16-29.3-38-52.4-65.8-69.5-27.9-17.1-59.6-25.6-95.1-25.6-34.8 0-66.4 8.5-94.6 25.6-28 16.9-51.1 40.8-66.9 69.5-16.4 29.3-24.6 62.7-24.6 100.3 0 36.9 8.2 70.4 24.6 100.3s38.7 53.5 66.9 70.5c28.2 17.1 59.7 25.7 94.6 25.7zm744.1 94c-57.8 0-109.2-12.4-154.2-37.1s-80.1-58.9-105.6-102.4c-25.4-43.6-38.2-93.6-38.1-150 0-57.1 12-107.5 36.1-151 24-43.5 57.3-77.7 99.8-102.4s91.3-37.1 146.3-37.1c54.3 0 101 12 140 36.1 39 24 68.8 57.1 89.4 99.3s30.8 90.8 30.8 145.8c0 13.3-4.5 24.2-13.6 32.9s-20.6 13-34.5 13.1h-421.2v-83.6h418.2l-42.9 29.3c-.7-34.9-7.7-66-20.9-93.5s-32-49.3-56.4-65.3-54-24-88.8-24c-39.7 0-73.7 8.7-101.9 26.1s-49.6 41.3-64.3 71.6-22 64.6-22 102.9 8.7 72.5 26.1 102.4c17.4 30 41.5 53.7 72.1 71.1s65.8 26.1 105.6 26.1c21.6 0 43.7-4 66.4-12s40.9-17.2 54.9-27.7c9.8-7.4 21.7-11.6 34-12 11.6-.5 23 3.4 31.9 11 11.8 10.5 18.1 22 18.8 34.5s-4.9 23.3-16.7 32.4c-23.7 18.8-53.1 34.2-88.3 46s-69 17.6-101 17.5zm552.9-5.2c-21.6 0-38.3-11.5-50.2-34.5l-221.6-467.2c-5.6-11.8-6.1-23.5-1.6-35s13.4-20.4 26.7-26.7c11.8-6.3 23.8-7.3 36-3.1s21.4 12.2 27.7 24l206.9 446.3h-50.1l204.8-446.3c5.9-11.6 16.3-20.2 28.7-24 12.9-4.2 26-3.1 39.2 3.1 12.5 5.6 20.9 14.3 25.1 26.1s3.5 23.7-2.1 35.5l-221.6 467.2c-10.3 23.1-26.3 34.6-47.9 34.6zm-6458.5-1051.5c33.9 0 67.3 2.4 100 6.9.5 16.2 4.4 30.6 11.6 43.3 7.5 13.4 18.6 24.6 32 32.2 13.6 7.8 29.2 11.7 46.9 11.7s33.4-3.9 46.9-11.7c12.8-7.3 23.5-17.8 30.9-30.6 263.9 106.3 450.1 364.8 450.1 666.7 0 301.5-185.8 559.7-449.1 666.3l-.3-.6c-7.5-13.4-18.6-24.6-32-32.2-13.6-7.8-29.1-11.6-46.6-11.6-17.7 0-33.4 3.9-46.9 11.6-13.4 7.6-24.5 18.7-32 32.2-7.5 13.3-11.4 28.6-11.6 45.9-32.7 4.5-66 6.9-99.9 6.9-32.1 0-63.7-2.1-94.7-6.2-.1-17.6-4-33.1-11.6-46.6-7.5-13.4-18.6-24.6-32-32.2-13.6-7.8-29.1-11.6-46.6-11.6-17.7 0-33.4 3.9-46.9 11.6-13.4 7.6-24.5 18.7-32 32.2-.4.7-.8 1.5-1.2 2.3-265.7-105.5-453.5-364.8-453.5-668 0-303.6 188.3-563.3 454.5-668.5l.1.1c7.5 13.4 18.6 24.6 32 32.2 13.6 7.8 29.2 11.7 46.9 11.7s33.4-3.9 47-11.7c13.4-7.6 24.4-18.7 31.8-32.2 7.2-12.9 11-27.5 11.4-44 31.1-4 62.7-6.1 94.8-6.1zm-185 1370c11.4 0 21.4 2.6 30.2 7.9 8.7 5.2 15.8 12.8 20.5 21.8 4.1 7.8 6.5 16.5 7.2 26.1-37-6.6-72.9-16-107.7-28 4.7-8.2 11.5-15 19.6-19.9 8.8-5.3 18.9-7.9 30.2-7.9zm375.5 0c11.4 0 21.5 2.6 30.2 7.9 7.6 4.5 13.9 10.9 18.5 18.4-34.5 12.2-70.2 21.8-106.9 28.6.8-9.2 3.2-17.6 7.3-25.1 4.8-9 11.9-16.6 20.7-21.8 8.7-5.4 18.8-8 30.2-8zm-262.2-134.5c-4.5-.1-8.8 1.6-12 4.8-6.3 6.7-6.3 17.1 0 23.8 3.1 3.3 7.5 5.1 12 4.9h153.9c4.3 0 8.5-1.8 11.5-4.9 4.8-4.7 6.2-11.9 3.7-18.1s-8.5-10.3-15.2-10.5zm-113.3-180.8c-17.7 0-33.4 3.9-46.9 11.7-13.4 7.6-24.5 18.7-32 32.2-7.8 13.7-11.6 29.5-11.6 47.4 0 17.7 3.9 33.4 11.6 47.1 7.5 13.4 18.6 24.6 32 32.2 13.6 7.8 29.2 11.7 46.9 11.7s33.4-3.9 47-11.7c13.4-7.6 24.4-18.7 31.8-32.2 7.7-13.7 11.5-29.4 11.5-47.1 0-17.9-3.9-33.7-11.6-47.4-7.5-13.4-18.6-24.6-32-32.2-13.6-7.8-29.2-11.7-46.7-11.7zm375.5 0c-17.7 0-33.4 3.9-46.9 11.7-13.4 7.6-24.5 18.7-32 32.2-7.8 13.7-11.7 29.5-11.7 47.4 0 17.7 3.9 33.4 11.7 47.1 7.5 13.4 18.6 24.6 32 32.2 13.6 7.8 29.2 11.7 46.9 11.7s33.4-3.9 46.9-11.7c13.4-7.6 24.4-18.7 31.8-32.2 7.7-13.7 11.5-29.4 11.5-47.1 0-17.9-3.9-33.7-11.7-47.4-7.5-13.4-18.6-24.6-32-32.2-13.5-7.8-29-11.7-46.5-11.7zm-628.1-21c-5.9-3.1-11.6-3.2-17.1-.2s-8.2 7.7-8.2 14c0 6.6 2.7 11.5 8.2 14.8l98.8 58.6-98.8 59.2c-5.4 3.4-8.1 8.1-8.2 14v.4c-.1 4.1 1.4 8 4.1 11 2.6 2.9 6.1 4.9 10 5.6 3.9.8 7.9 0 11.2-2.1l121.1-72.6c5.9-3.7 8.9-8.7 8.9-15.1 0-5.7-3-10.6-8.9-14.8zm898.2-.2c-5.5-2.9-11.2-2.9-17.1.2l-121.1 72.9c-5.9 4.2-8.9 9.1-8.9 14.8 0 6.3 2.9 11.4 8.9 15.1l121.1 72.5c3.3 2.1 7.3 2.9 11.2 2.1 3.9-.7 7.4-2.7 10-5.6 2.8-3 4.2-6.9 4.1-11 0-6.1-2.7-10.9-8.2-14.4l-98.8-59.2 98.7-58.6c5.4-3.2 8.1-8 8.2-14.4v-.4c.1-6.4-2.7-11-8.1-14zm-645.6 50.7c11.4 0 21.4 2.6 30.2 7.9 8.7 5.2 15.8 12.8 20.5 21.8 4.9 9.3 7.4 20 7.4 32s-2.5 22.6-7.4 31.8c-4.7 9-11.8 16.5-20.5 21.7-8.8 5.2-18.8 7.9-30.2 7.9s-21.4-2.6-30.2-7.9c-8.7-5.2-15.9-12.7-20.7-21.7-5-9.2-7.6-19.8-7.6-31.8s2.5-22.7 7.6-32c4.8-9 11.9-16.6 20.7-21.8s18.9-7.9 30.2-7.9zm375.5 0c11.4 0 21.5 2.6 30.2 7.9 8.7 5.2 15.8 12.8 20.5 21.8 4.9 9.3 7.4 20 7.4 32s-2.5 22.6-7.4 31.8c-4.7 9-11.8 16.5-20.5 21.7-8.8 5.2-18.8 7.9-30.2 7.9s-21.4-2.6-30.2-7.9c-8.7-5.2-15.9-12.7-20.7-21.7-5-9.2-7.6-19.8-7.5-31.8 0-12 2.5-22.7 7.5-32 4.8-9 11.9-16.6 20.7-21.8 8.7-5.2 18.8-7.9 30.2-7.9zm-534.6 29.6v14.1l-11.8-7zm694.1 0 11.8 7.1-11.8 7zm-421.7-164c-6.8-.1-13.1 3.9-15.7 10.2s-1.2 13.6 3.7 18.4c3.1 3.3 7.5 5 12 4.9h153.9c4.3 0 8.5-1.8 11.5-4.9 4.8-4.7 6.2-11.9 3.7-18.1s-8.5-10.3-15.2-10.5zm-113.3-180.8c-17.7 0-33.4 3.9-46.9 11.7-13.4 7.6-24.5 18.7-32 32.2-7.8 13.7-11.6 29.5-11.6 47.4 0 17.7 3.9 33.4 11.6 47.1 7.5 13.4 18.6 24.6 32 32.2 13.6 7.8 29.2 11.7 46.9 11.7s33.4-3.9 47-11.6c13.4-7.6 24.4-18.7 31.8-32.2 7.7-13.7 11.5-29.4 11.5-47.1 0-17.9-3.9-33.7-11.6-47.4-7.5-13.4-18.6-24.6-32-32.2-13.6-7.9-29.2-11.8-46.7-11.8zm375.5 0c-17.7 0-33.4 3.9-46.9 11.7-13.4 7.6-24.5 18.7-32 32.2-7.8 13.7-11.7 29.5-11.7 47.4 0 17.7 3.9 33.4 11.7 47.1 7.5 13.4 18.6 24.6 32 32.2 13.6 7.8 29.2 11.7 46.9 11.7s33.4-3.9 46.9-11.6c13.4-7.6 24.4-18.7 31.8-32.2 7.7-13.7 11.5-29.4 11.5-47.1 0-17.9-3.9-33.7-11.7-47.4-7.5-13.4-18.6-24.6-32-32.2-13.5-7.9-29-11.8-46.5-11.8zm-628.2-21.1c-5.9-3.1-11.6-3.1-17.1-.2-5.5 3-8.2 7.6-8.2 13.9 0 6.6 2.7 11.5 8.2 14.8l98.8 58.7-98.8 59.2c-5.4 3.4-8.1 8.1-8.2 14v.4c-.1 4.1 1.4 8 4.1 11 2.6 2.9 6.1 4.9 10 5.6 3.9.8 7.9 0 11.2-2.1l121.1-72.6c5.9-3.7 8.9-8.8 8.9-15.1 0-5.7-3-10.6-8.9-14.8zm898.3-.1c-5.5-2.9-11.2-2.9-17.1.2l-121.1 72.9c-5.9 4.2-8.9 9.1-8.9 14.8 0 6.3 2.9 11.4 8.9 15.1l121.1 72.5c3.3 2.1 7.3 2.9 11.2 2.1 3.9-.7 7.4-2.7 10-5.6 2.8-3 4.2-6.9 4.1-11 0-6.1-2.7-10.9-8.2-14.4l-98.8-59.2 98.7-58.6c5.4-3.2 8.1-8 8.2-14.4v-.4c.1-6.4-2.7-11-8.1-14zm-645.6 50.7c11.4 0 21.4 2.6 30.2 7.9 8.7 5.2 15.8 12.8 20.5 21.8 4.9 9.3 7.4 20 7.4 32s-2.5 22.6-7.4 31.8c-4.7 9-11.8 16.5-20.5 21.7-8.8 5.3-18.8 7.9-30.2 7.9s-21.4-2.6-30.2-7.9c-8.7-5.2-15.9-12.7-20.7-21.7-5-9.2-7.6-19.8-7.6-31.8s2.5-22.7 7.6-32c4.8-9 11.9-16.6 20.7-21.8 8.8-5.3 18.9-7.9 30.2-7.9zm375.5 0c11.4 0 21.5 2.6 30.2 7.9 8.7 5.2 15.8 12.8 20.5 21.8 4.9 9.3 7.4 20 7.4 32s-2.5 22.6-7.4 31.8c-4.7 9-11.8 16.5-20.5 21.7-8.8 5.3-18.8 7.9-30.2 7.9s-21.4-2.6-30.2-7.9c-8.7-5.2-15.9-12.7-20.7-21.7-5-9.2-7.6-19.8-7.5-31.8 0-12 2.5-22.7 7.5-32 4.8-9 11.9-16.6 20.7-21.8 8.7-5.3 18.8-7.9 30.2-7.9zm159.5 29.6 11.8 7.1-11.8 7zm-694.1 0v14.1l-11.8-7zm272.4-164c-6.8-.1-13 3.9-15.7 10.2-2.6 6.3-1.2 13.6 3.7 18.3 3.1 3.3 7.5 5.1 12 4.9h153.9c4.3 0 8.5-1.8 11.5-4.9 4.8-4.7 6.2-11.9 3.7-18.1s-8.5-10.3-15.2-10.5h-153.9zm-113.3-180.8c-17.7 0-33.4 3.9-46.9 11.6-13.4 7.6-24.5 18.7-32 32.2-7.8 13.7-11.6 29.5-11.6 47.4 0 17.7 3.9 33.4 11.6 47.1 7.5 13.4 18.6 24.6 32 32.2 13.6 7.8 29.2 11.7 46.9 11.7 17.7 0 33.4-3.9 47-11.6 13.4-7.6 24.4-18.7 31.8-32.2 7.7-13.7 11.5-29.4 11.5-47.1 0-17.9-3.9-33.7-11.6-47.4-7.5-13.4-18.6-24.6-32-32.2-13.6-7.9-29.2-11.7-46.7-11.7zm375.5 0c-17.7 0-33.4 3.9-46.9 11.6-13.4 7.6-24.5 18.7-32 32.2-7.8 13.7-11.7 29.5-11.7 47.4 0 17.7 3.9 33.4 11.7 47.1 7.5 13.4 18.6 24.6 32 32.2 13.6 7.8 29.2 11.6 46.9 11.6s33.4-3.9 46.9-11.6c13.4-7.6 24.4-18.7 31.8-32.2 7.7-13.7 11.5-29.4 11.5-47.1 0-17.9-3.9-33.7-11.7-47.4-7.5-13.4-18.6-24.6-32-32.2-13.5-7.7-29-11.6-46.5-11.6zm270.1-21.2c-5.5-2.9-11.2-2.9-17.1.2l-121.1 72.9c-5.9 4.2-8.9 9.1-8.9 14.8 0 6.3 2.9 11.4 8.9 15.1l121.1 72.5c3.3 2.2 7.3 2.9 11.2 2.2s7.4-2.7 10-5.6c2.8-3 4.2-6.9 4.1-11 0-6.1-2.7-10.9-8.2-14.4l-98.7-59.2 98.7-58.6c5.4-3.2 8.1-8 8.2-14.4v-.4c0-6.5-2.7-11.2-8.2-14.1zm-898.2.2c-5.9-3.1-11.6-3.1-17.1-.2-5.5 3-8.2 7.6-8.2 14 0 6.6 2.7 11.5 8.2 14.8l98.7 58.6-98.7 59.2c-5.4 3.4-8.1 8.1-8.2 14v.4c-.1 4.1 1.3 8 4.1 11 2.6 2.9 6.1 4.9 10 5.6 3.9.8 7.9 0 11.2-2.1l121.1-72.5c5.9-3.7 8.9-8.8 8.9-15.1 0-5.7-3-10.6-8.9-14.8zm252.6 50.5c11.4 0 21.4 2.6 30.2 7.9 8.7 5.2 15.8 12.8 20.5 21.8 4.9 9.3 7.4 20 7.4 32s-2.5 22.6-7.4 31.8c-4.7 9-11.8 16.5-20.5 21.7-8.8 5.2-18.8 7.9-30.2 7.9-11.4 0-21.4-2.6-30.2-7.9-8.7-5.2-15.9-12.7-20.7-21.7-5-9.2-7.6-19.8-7.6-31.8s2.5-22.7 7.6-32c4.8-9 11.9-16.6 20.7-21.8 8.8-5.3 18.9-7.9 30.2-7.9zm375.5 0c11.4 0 21.5 2.6 30.2 7.9 8.7 5.2 15.8 12.8 20.5 21.8 4.9 9.3 7.4 20 7.4 32s-2.5 22.6-7.4 31.8c-4.7 9-11.8 16.5-20.5 21.7-8.8 5.2-18.8 7.9-30.2 7.9s-21.4-2.6-30.2-7.9c-8.7-5.2-15.9-12.7-20.7-21.7-5-9.2-7.6-19.8-7.5-31.8 0-12 2.5-22.7 7.5-32 4.8-9 11.9-16.6 20.7-21.8 8.7-5.3 18.8-7.9 30.2-7.9zm159.5 29.5 11.9 7.1-11.9 7zm-694.1 0v14.2l-11.9-7.1zm272.4-163.9c-4.5-.1-8.8 1.6-12 4.8s-4.9 7.5-4.8 12c-.1 4.4 1.6 8.7 4.8 11.8 3.1 3.3 7.5 5 12 4.9h153.9c4.3 0 8.5-1.8 11.5-4.9 4.8-4.7 6.2-11.9 3.7-18.1s-8.5-10.3-15.2-10.5zm-113.3-180.8c-17.7 0-33.4 3.9-46.9 11.7-13.4 7.6-24.5 18.7-32 32.2-7.8 13.7-11.6 29.5-11.6 47.4 0 17.7 3.9 33.4 11.6 47.1 7.5 13.4 18.6 24.6 32 32.2 13.6 7.8 29.2 11.7 46.9 11.7s33.4-3.9 47-11.7c13.4-7.6 24.4-18.7 31.8-32.2 7.7-13.7 11.5-29.4 11.5-47.1 0-17.9-3.9-33.8-11.6-47.4-7.5-13.4-18.6-24.6-32-32.2-13.6-7.9-29.2-11.7-46.7-11.7zm375.5 0c-17.7 0-33.4 3.9-46.9 11.7-13.4 7.6-24.5 18.7-32 32.2-7.8 13.7-11.7 29.5-11.7 47.4 0 17.7 3.9 33.4 11.7 47.1 7.5 13.4 18.6 24.6 32 32.2 13.6 7.8 29.2 11.7 46.9 11.7s33.4-3.9 46.9-11.7c13.4-7.6 24.4-18.7 31.8-32.2 7.7-13.7 11.5-29.4 11.5-47.1 0-17.9-3.9-33.8-11.7-47.4-7.5-13.4-18.6-24.6-32-32.2-13.5-7.9-29-11.7-46.5-11.7zm-628.1-21.1c-5.9-3.1-11.6-3.2-17.1-.2s-8.2 7.7-8.2 14c0 6.6 2.7 11.5 8.2 14.8l98.8 58.6-98.8 59.2c-5.4 3.4-8.1 8.1-8.2 14v.4c-.1 4.1 1.4 8 4.1 11 2.6 2.9 6.1 4.9 10 5.6 3.9.8 7.9 0 11.2-2.1l121.1-72.6c5.9-3.7 8.9-8.8 8.9-15.1 0-5.7-3-10.6-8.9-14.8zm898.2-.1c-5.5-2.9-11.2-2.9-17.1.2l-121.1 72.9c-5.9 4.2-8.9 9.1-8.9 14.8 0 6.3 2.9 11.4 8.9 15.1l121.1 72.5c3.3 2.1 7.3 2.9 11.2 2.1 3.9-.7 7.4-2.7 10-5.6 2.8-3 4.2-6.9 4.1-11 0-6.1-2.7-10.9-8.2-14.4l-98.8-59.2 98.7-58.6c5.4-3.2 8.1-8 8.2-14.4v-.4c.1-6.4-2.7-11.1-8.1-14zm-645.6 50.7c11.4 0 21.4 2.6 30.2 7.9 8.7 5.2 15.8 12.8 20.5 21.8 4.9 9.3 7.4 20 7.4 32s-2.5 22.6-7.4 31.8c-4.7 9-11.8 16.5-20.5 21.7-8.8 5.2-18.8 7.9-30.2 7.9s-21.4-2.6-30.2-7.9c-8.7-5.2-15.9-12.7-20.7-21.7-5-9.2-7.6-19.8-7.6-31.8s2.5-22.7 7.6-32c4.8-9 11.9-16.6 20.7-21.8 8.8-5.3 18.9-7.9 30.2-7.9zm375.5 0c11.4 0 21.5 2.6 30.2 7.9 8.7 5.2 15.8 12.8 20.5 21.8 4.9 9.3 7.4 20 7.4 32s-2.5 22.6-7.4 31.8c-4.7 9-11.8 16.5-20.5 21.7-8.8 5.2-18.8 7.9-30.2 7.9s-21.4-2.6-30.2-7.9c-8.7-5.2-15.9-12.7-20.7-21.7-5-9.2-7.6-19.8-7.5-31.8 0-12 2.5-22.7 7.5-32 4.8-9 11.9-16.6 20.7-21.8 8.7-5.3 18.8-7.9 30.2-7.9zm-534.6 29.5v14.1l-11.8-7zm694.1 0 11.8 7.1-11.8 7zm-421.7-163.9c-6.8-.1-13 3.9-15.7 10.2-2.6 6.3-1.2 13.6 3.7 18.3 3.1 3.3 7.5 5.1 12 4.9h153.9c4.3 0 8.5-1.8 11.5-4.9 4.8-4.7 6.2-11.9 3.7-18.1s-8.5-10.3-15.2-10.5h-153.9zm-55.6-81.5c-.9 8.7-3.2 16.6-7 23.7-4.7 9-11.8 16.5-20.5 21.7-8.8 5.3-18.8 7.9-30.2 7.9-11.4 0-21.4-2.6-30.2-7.9-7.4-4.4-13.7-10.5-18.4-17.8 34.1-11.7 69.4-20.9 105.6-27.5zm259.9 1c36.1 6.7 71.3 16.2 105.3 28.1-4.5 6.6-10.4 12.1-17.2 16.2-8.8 5.3-18.8 7.9-30.2 7.9-11.4 0-21.4-2.6-30.2-7.9-8.7-5.2-15.9-12.7-20.7-21.7-3.7-6.8-6-14.3-7-22.5z" fill="#fff"/></svg>