<?xml version="1.0" encoding="UTF-8" standalone="no"?>
<!-- Created with Inkscape (http://www.inkscape.org/) -->

<svg
   version="1.1"
   id="svg2"
   width="542.02667"
   height="548.98669"
   viewBox="0 0 542.02667 548.98669"
   sodipodi:docname="Logo_BMW.eps"
   xmlns:inkscape="http://www.inkscape.org/namespaces/inkscape"
   xmlns:sodipodi="http://sodipodi.sourceforge.net/DTD/sodipodi-0.dtd"
   xmlns="http://www.w3.org/2000/svg"
   xmlns:svg="http://www.w3.org/2000/svg">
  <defs
     id="defs6" />
  <sodipodi:namedview
     id="namedview4"
     pagecolor="#ffffff"
     bordercolor="#000000"
     borderopacity="0.25"
     inkscape:showpageshadow="2"
     inkscape:pageopacity="0.0"
     inkscape:pagecheckerboard="0"
     inkscape:deskcolor="#d1d1d1" />
  <g
     id="g8"
     inkscape:groupmode="layer"
     inkscape:label="ink_ext_XXXXXX"
     transform="matrix(1.3333333,0,0,-1.3333333,0,548.98667)">
    <g
       id="g10"
       transform="scale(0.1)">
      <path
         d="m 3665.66,1920.82 c 0,-897.74 -727.7,-1625.441 -1625.44,-1625.441 -897.74,0 -1625.443,727.701 -1625.443,1625.441 0,897.74 727.703,1625.45 1625.443,1625.45 897.81,-0.78 1625.94,-727.64 1628.27,-1625.45 z M 2040.22,3667.11 C 1075.77,3668.67 292.656,2888.1 291.102,1923.65 289.547,959.199 1070.11,176.09 2034.57,174.531 2999.02,172.98 3782.13,953.539 3783.69,1918 v 2.82 c -0.78,963.04 -780.43,1743.96 -1743.47,1746.29"
         style="fill:#FFFFFF;fill-opacity:1;fill-rule:nonzero;stroke:none"
         id="path12" />
      <path
         d="m 2039.95,2957.57 v -56.25 c 541.2,-1.56 979.5,-439.86 981.06,-981.06 h 56.25 c 1.56,571.3 -460.28,1035.76 -1031.59,1037.31 h -5.72"
         style="fill:#FFFFFF;fill-opacity:1;fill-rule:nonzero;stroke:none"
         id="path14" />
      <path
         d="m 2040.78,947.43 c -541.2,1.55 -979.51,439.86 -981.06,981.06 h -56.26 c 1.56,-576.18 468.27,-1042.83 1044.46,-1044.451"
         style="fill:#FFFFFF;fill-opacity:1;fill-rule:nonzero;stroke:none"
         id="path16" />
      <path
         d="m 2881.92,2655.81 c 23.89,-31.6 49.61,-61.84 77.03,-90.46 l 353.36,222.61 c -25.3,26.29 -48.91,54.14 -70.67,83.39 l -220.5,-144.87 -13.43,-13.43 13.43,13.43 97.53,195.05 -70.67,70.67 -195.06,-96.82 -14.13,-14.13 14.13,14.13 146.29,222.62 c -28.27,20.49 -48.76,41.69 -83.39,70.67 l -222.61,-353.36 c 27.56,-21.2 62.19,-55.83 90.45,-76.32 l 209.9,108.83 14.13,7.07 -7.06,-14.14 -118.73,-204.94"
         style="fill:#FFFFFF;fill-opacity:1;fill-rule:nonzero;stroke:none"
         id="path18" />
      <path
         d="m 2081.92,3110.93 97.52,215.55 7.07,21.2 v -21.2 l 7.07,-291.88 c 34.98,-1.2 69.82,-5.93 103.89,-14.13 l -13.43,424.03 c -48.77,7.07 -97.53,7.07 -146.29,14.13 l -97.53,-237.45 -93.99,237.45 c -48.84,-1.2 -97.46,-5.86 -145.58,-14.13 l -14.14,-424.03 c 34.63,7.07 70.67,7.07 104.59,14.13 l 6.37,291.88 v 21.2 l 7.06,-21.2 97.53,-215.55 h 79.86"
         style="fill:#FFFFFF;fill-opacity:1;fill-rule:nonzero;stroke:none"
         id="path20" />
      <path
         d="m 1031.74,2726.48 c 0,0 110.95,118.72 152.65,160.42 14.13,13.43 28.27,27.56 34.63,27.56 13,7.07 28.69,7.07 41.7,0 12.93,-4.38 19.85,-18.44 15.47,-31.38 -0.35,-1.13 -0.78,-2.19 -1.34,-3.25 -7.07,-14.13 -20.5,-34.63 -27.56,-48.76 l -153.36,-159.72 z m -118.728,113.78 c 48.129,58.94 99.368,115.33 153.358,168.9 10.53,8.62 22.19,15.76 34.63,21.2 15.55,6.22 33.28,-1.34 39.5,-16.89 1.49,-3.6 2.19,-7.49 2.19,-11.37 3.82,-20.78 -4.02,-41.91 -20.49,-55.13 -35.34,-35.33 -153.356,-160.42 -153.356,-160.42 z m 390.108,-70.67 c 55.12,55.83 90.46,125.79 34.63,195.05 -32.65,33 -81.63,43.75 -125.09,27.56 h -7.07 v 7.07 c 8.91,39.01 -5.37,79.72 -36.75,104.59 -20.07,20.35 -49.4,28.41 -77.03,21.2 -55.83,-7.06 -90.46,-42.4 -201.412,-160.42 -35.335,-34.63 -83.394,-97.53 -111.664,-132.16 L 1078.38,2549.8 c 106.01,94.7 147.71,136.39 224.74,219.79"
         style="fill:#FFFFFF;fill-opacity:1;fill-rule:nonzero;stroke:none"
         id="path22" />
      <path
         d="M 2040.22,2957.57 V 1920.82 H 1003.47 c 1.2,572.09 464.67,1035.55 1036.75,1036.75"
         style="fill:#FFFFFF;fill-opacity:1;fill-rule:nonzero;stroke:none"
         id="path24" />
      <path
         d="M 3076.97,1920.82 C 3077.75,1349.02 2614.85,884.852 2043.05,884.07 h -2.83 v 1036.75 h 1036.75"
         style="fill:#FFFFFF;fill-opacity:1;fill-rule:nonzero;stroke:none"
         id="path26" />
    </g>
  </g>
</svg>
