<?xml version="1.0" encoding="UTF-8" standalone="no"?>
<!-- Created with Inkscape (http://www.inkscape.org/) -->

<svg
   version="1.1"
   id="svg2"
   width="566.93335"
   height="415.74667"
   viewBox="0 0 566.93335 415.74667"
   sodipodi:docname="BMW_Car-IT_Logo.eps"
   xmlns:inkscape="http://www.inkscape.org/namespaces/inkscape"
   xmlns:sodipodi="http://sodipodi.sourceforge.net/DTD/sodipodi-0.dtd"
   xmlns="http://www.w3.org/2000/svg"
   xmlns:svg="http://www.w3.org/2000/svg">
  <defs
     id="defs6" />
  <sodipodi:namedview
     id="namedview4"
     pagecolor="#ffffff"
     bordercolor="#000000"
     borderopacity="0.25"
     inkscape:showpageshadow="2"
     inkscape:pageopacity="0.0"
     inkscape:pagecheckerboard="0"
     inkscape:deskcolor="#d1d1d1" />
  <g
     id="g8"
     inkscape:groupmode="layer"
     inkscape:label="ink_ext_XXXXXX"
     transform="matrix(1.3333333,0,0,-1.3333333,0,415.74667)">
    <g
       id="g10"
       transform="scale(0.1)">
      <path
         d="m 463.551,960.922 h 196.121 c 23.848,0 43.996,-1.242 60.449,-3.703 16.442,-2.469 31.242,-7.617 44.399,-15.418 14.386,-9.051 25.695,-21.071 33.929,-36.082 8.219,-15.02 12.328,-32.367 12.328,-52.11 0,-14.398 -2.261,-27.449 -6.789,-39.16 -4.519,-11.719 -10.269,-23.957 -17.265,-36.711 -4.524,-6.988 -8.942,-14.09 -13.258,-21.269 -4.32,-7.199 -8.324,-13.68 -12.024,-19.43 7.395,-4.937 14.286,-10.168 20.657,-15.73 6.371,-5.539 12.433,-12.02 18.199,-19.418 6.164,-8.243 11.191,-18.512 15.109,-30.852 3.903,-12.328 5.856,-26.309 5.856,-41.937 0,-44.821 -13.985,-78.321 -41.946,-100.532 -13.152,-11.101 -29.593,-19.328 -49.332,-24.672 -19.738,-5.339 -44.617,-8.007 -74.629,-8.007 H 463.551 Z M 712.098,761.711 c 3.281,5.75 6.578,11.301 9.871,16.648 3.285,5.34 6.57,10.692 9.863,16.039 5.754,9.454 10.277,18.391 13.574,26.821 3.282,8.429 4.934,17.582 4.934,27.453 0,11.098 -1.961,20.359 -5.867,27.75 -3.903,7.41 -10.379,13.367 -19.426,17.887 -7.395,4.113 -16.867,6.793 -28.367,8.011 -11.52,1.239 -25.09,1.871 -40.703,1.871 H 522.758 V 761.711 Z M 655.977,552.629 c 20.136,0 36.488,1.43 49.023,4.312 12.535,2.868 22.918,7.411 31.152,13.579 16.438,12.332 24.672,31.859 24.672,58.582 0,13.98 -2.367,26.007 -7.097,36.089 -4.731,10.071 -12.434,18.809 -23.122,26.207 -7.82,5.344 -16.66,8.954 -26.523,10.793 -9.875,1.848 -21.391,2.778 -34.535,2.778 H 522.758 v -152.34 h 133.219"
         style="fill:#FFFFFF;fill-opacity:1;fill-rule:nonzero;stroke:none"
         id="path12" />
      <path
         d="m 911.926,495.891 v 465.031 h 82.644 l 133.84,-302.211 133.83,302.211 h 82.02 V 495.891 h -58.58 v 384.238 l -128.9,-291.731 h -57.36 L 970.516,880.129 V 495.891 h -58.59"
         style="fill:#FFFFFF;fill-opacity:1;fill-rule:nonzero;stroke:none"
         id="path14" />
      <path
         d="m 1510.17,495.891 -96.21,465.031 h 60.44 l 82.03,-395.34 91.29,325.027 h 67.22 l 91.89,-325.027 81.42,395.34 h 59.81 l -95.59,-465.031 h -82.03 l -89.43,317.007 -88.81,-317.007 h -82.03"
         style="fill:#FFFFFF;fill-opacity:1;fill-rule:nonzero;stroke:none"
         id="path16" />
      <path
         d="m 2477.84,503.898 c -21.79,-4.519 -44.09,-8.718 -66.91,-12.636 -22.83,-3.903 -46.98,-5.852 -72.47,-5.852 -23.03,0 -42.98,2.051 -59.83,6.16 -16.86,4.11 -31.45,9.762 -43.79,16.961 -12.33,7.18 -22.72,15.93 -31.14,26.207 -8.44,10.274 -15.73,21.594 -21.89,33.934 -9.06,17.668 -15.73,40.078 -20.05,67.219 -4.31,27.14 -6.47,56.531 -6.47,88.199 0,34.941 2.35,67.32 7.08,97.129 4.73,29.82 13.26,55.203 25.6,76.179 6.57,11.102 14.18,21.172 22.81,30.223 8.64,9.027 18.91,16.848 30.85,23.43 11.92,6.578 26,11.621 42.25,15.109 16.23,3.488 35.05,5.25 56.43,5.25 13.57,0 27.03,-0.93 40.4,-2.781 13.35,-1.848 25.99,-3.797 37.92,-5.859 12.74,-2.469 23.85,-4.829 33.31,-7.09 9.46,-2.27 18.09,-4.418 25.9,-6.481 v -59.207 c -11.93,3.289 -23.12,6.168 -33.6,8.637 -10.49,2.473 -22.31,4.93 -35.47,7.402 -10.7,2.059 -21.39,3.899 -32.07,5.551 -10.7,1.637 -21.39,2.469 -32.08,2.469 -28.78,0 -51.59,-4.219 -68.45,-12.641 -16.86,-8.449 -30.23,-22.519 -40.09,-42.262 -7.41,-14.789 -12.64,-34.128 -15.73,-57.957 -3.09,-23.859 -4.63,-49.351 -4.63,-76.48 0,-25.91 1.44,-49.762 4.32,-71.551 2.87,-21.789 7.6,-39.68 14.19,-53.648 9.45,-19.742 22.81,-34.141 40.08,-43.18 17.27,-9.051 40.71,-13.562 70.31,-13.562 21.38,0 43.59,2.16 66.62,6.472 23.02,4.317 45.22,8.727 66.6,13.258 v -58.602"
         style="fill:#FFFFFF;fill-opacity:1;fill-rule:nonzero;stroke:none"
         id="path18" />
      <path
         d="m 2767.1,495.891 v 49.949 c -4.94,-4.52 -10.29,-9.039 -16.04,-13.57 -5.77,-4.52 -12.14,-9.461 -19.12,-14.801 -13.57,-9.457 -26.31,-17.168 -38.24,-23.117 -11.93,-5.961 -25.7,-8.942 -41.32,-8.942 -23.04,0 -41.32,4.52 -54.9,13.57 -13.57,9.032 -24.46,21.168 -32.68,36.379 -7.82,13.571 -13.47,31.051 -16.96,52.422 -3.5,21.379 -5.25,44.41 -5.25,69.09 0,23.43 1.95,45.719 5.87,66.91 3.9,21.168 10.57,39.367 20.03,54.578 11.93,19.743 27.24,33.621 45.95,41.633 18.72,8.008 42.25,12.039 70.62,12.039 22.21,0 44.51,-3.402 66.93,-10.191 22.4,-6.781 46.76,-14.899 73.08,-24.36 V 495.891 Z m 0,262.73 c -11.93,4.527 -24.68,8.738 -38.25,12.649 -13.57,3.902 -27.35,5.859 -41.32,5.859 -17.27,0 -31.56,-2.57 -42.86,-7.707 -11.32,-5.152 -20.46,-13.891 -27.45,-26.223 -5.76,-10.699 -9.86,-23.117 -12.33,-37.308 -2.47,-14.18 -3.71,-30.532 -3.71,-49.02 0,-16.461 0.83,-32.391 2.47,-47.812 1.64,-15.418 4.52,-27.86 8.63,-37.317 4.53,-10.683 10.59,-18.492 18.2,-23.433 7.6,-4.938 17.58,-7.411 29.91,-7.411 9.87,0 20.05,2.782 30.54,8.344 10.48,5.547 20.66,12.227 30.53,20.039 8.22,6.168 16.23,12.539 24.05,19.117 7.81,6.571 15,12.731 21.59,18.5 v 151.723"
         style="fill:#FFFFFF;fill-opacity:1;fill-rule:nonzero;stroke:none"
         id="path20" />
      <path
         d="m 2918.2,495.891 v 325.64 h 57.97 v -39.472 c 6.99,5.339 13.78,10.07 20.36,14.191 6.56,4.102 13.97,8.219 22.2,12.332 9.45,4.52 20.34,8.527 32.69,12.027 12.33,3.493 25.69,6.262 40.08,8.332 v -58.589 c -11.93,-2.071 -23.03,-4.633 -33.3,-7.723 -10.28,-3.07 -20.56,-6.891 -30.83,-11.41 -9.88,-4.11 -19.13,-8.629 -27.77,-13.559 -8.63,-4.941 -16.44,-9.871 -23.43,-14.808 V 495.891 h -57.97"
         style="fill:#FFFFFF;fill-opacity:1;fill-rule:nonzero;stroke:none"
         id="path22" />
      <path
         d="m 3304.28,495.891 v 465.031 h 59.21 V 495.891 h -59.21"
         style="fill:#FFFFFF;fill-opacity:1;fill-rule:nonzero;stroke:none"
         id="path24" />
      <path
         d="m 3594.75,495.891 v 407.668 h -164.66 v 57.363 h 388.55 V 903.559 H 3653.96 V 495.891 h -59.21"
         style="fill:#FFFFFF;fill-opacity:1;fill-rule:nonzero;stroke:none"
         id="path26" />
      <path
         d="m 454.211,1976.51 h 269.785 c 86.16,0 138.359,14.79 176.66,46.98 40.024,32.21 59.188,82.69 59.188,144.47 0,40.9 -11.328,75.71 -27,98.34 -15.645,20.89 -32.188,35.68 -51.324,49.61 9.55,15.67 22.605,36.55 34.808,57.44 18.266,33.06 29.594,61.78 29.594,102.7 0,53.08 -23.508,99.21 -62.684,126.18 -34.804,23.51 -78.3,30.47 -145.32,30.47 H 454.211 Z m 105.301,99.21 v 184.49 h 172.32 c 40.02,0 64.398,-3.46 84.41,-15.67 26.102,-18.26 36.559,-42.64 36.559,-76.58 0,-30.46 -7.836,-53.07 -26.977,-68.74 -19.164,-16.54 -47.011,-23.5 -100.082,-23.5 z m 0,283.7 v 174.07 h 168.824 c 38.301,0 65.277,-1.75 82.691,-12.2 20.016,-11.31 27.848,-29.57 27.848,-55.7 0,-25.22 -8.711,-44.39 -20.883,-66.12 -7.836,-13.08 -16.547,-27.87 -24.379,-40.05 H 559.512"
         style="fill:#FFFFFF;fill-opacity:1;fill-rule:nonzero;stroke:none"
         id="path28" />
      <path
         d="m 1138.24,1976.51 v 498.67 l 154.03,-368.12 h 96.62 l 154.03,368.12 v -498.67 h 103.55 v 656.19 h -139.24 l -165.35,-395.99 -166.21,395.99 h -141.01 v -656.19 h 103.58"
         style="fill:#FFFFFF;fill-opacity:1;fill-rule:nonzero;stroke:none"
         id="path30" />
      <path
         d="m 1962.38,1976.51 108.79,409.89 108.77,-409.89 h 138.39 l 128.8,656.19 H 2340.96 L 2240,2113.15 2127.74,2533.47 h -112.26 l -112.29,-420.32 -100.93,519.55 h -107.91 l 128.8,-656.19 h 139.23"
         style="fill:#FFFFFF;fill-opacity:1;fill-rule:nonzero;stroke:none"
         id="path32" />
      <path
         d="m 921.547,1220.48 v 344.61 H 817.121 v -258.45 c -23.508,-2.62 -68.773,-7.84 -111.418,-7.84 -73.957,0 -116.601,18.27 -140.105,65.28 -19.137,38.28 -25.227,94.84 -25.227,171.45 0,76.57 6.965,135.74 26.106,174.91 24.347,51.35 61.781,71.37 137.484,71.37 23.504,0 49.633,-3.5 76.602,-8.71 40.898,-7.84 83.542,-17.42 119.218,-26.1 v 102.67 c -26.968,6.97 -64.398,15.68 -104.422,23.51 -32.211,6.09 -67.894,11.3 -101.828,11.3 -120.972,0 -176.664,-45.23 -213.218,-107.02 -34.809,-58.31 -46.985,-136.63 -46.985,-243.68 0,-102.7 13.047,-177.53 42.645,-228.89 35.683,-61.78 87.882,-106.17 214.09,-106.17 75.707,0 168.828,11.3 231.484,21.76"
         style="fill:#FFFFFF;fill-opacity:1;fill-rule:nonzero;stroke:none"
         id="path34" />
      <path
         d="m 1103.89,1213.52 v 239.32 h 154.03 l 141.01,-239.32 h 122.68 l -150.53,254.99 c 16.52,17.39 43.49,47.86 64.37,73.11 33.97,41.77 54.85,82.66 54.85,141.85 0,57.44 -20.88,110.51 -58.31,141.86 -41.77,35.65 -90.53,44.36 -170.57,44.36 H 998.59 v -656.17 z m 0,340.28 v 214.96 h 146.19 c 55.73,0 83.57,-4.37 102.71,-17.42 22.63,-15.67 30.46,-38.3 30.46,-68.74 0,-34.81 -14.79,-60.06 -33.93,-84.42 -11.33,-13.92 -26.13,-31.34 -38.3,-44.38 h -207.13"
         style="fill:#FFFFFF;fill-opacity:1;fill-rule:nonzero;stroke:none"
         id="path36" />
      <path
         d="m 1807.07,1884.5 c -128.8,0 -188.83,-41.77 -229.76,-111.39 -33.93,-57.46 -44.36,-145.34 -44.36,-233.25 0,-101.8 15.64,-187.09 49.6,-241.94 40.03,-64.37 96.59,-99.21 224.52,-99.21 111.39,0 170.58,30.47 216.71,97.49 39.15,55.7 56.54,144.45 56.54,243.66 0,94 -13.92,187.12 -56.54,248.03 -45.26,65.27 -104.45,96.61 -216.71,96.61 m 0,-100.95 c 59.19,0 105.3,-14.8 133.15,-63.53 25.25,-42.65 33.06,-109.67 33.06,-180.16 0,-73.08 -7.81,-147.07 -41.77,-190.58 -30.44,-39.15 -72.21,-49.61 -124.44,-49.61 -59.18,0 -108.79,9.59 -137.51,59.19 -22.6,40.89 -29.59,111.38 -29.59,181 0,70.49 6.11,139.26 28.72,180.16 28.72,52.19 79.2,63.53 138.38,63.53"
         style="fill:#FFFFFF;fill-opacity:1;fill-rule:nonzero;stroke:none"
         id="path38" />
      <path
         d="m 2147.58,1869.7 v -403.81 c 0,-93.12 10.46,-160.14 54.82,-207.12 43.52,-47.86 100.96,-60.04 189.74,-60.04 83.54,0 141.85,13.93 186.21,58.29 47.02,47.01 57.44,110.54 57.44,208.87 V 1869.7 H 2530.5 v -406.43 c 0,-68.74 -4.35,-109.64 -33.06,-136.61 -24.38,-21.76 -61.81,-27 -105.3,-27 -44.39,0 -82.7,5.24 -106.17,27.85 -28.73,27.85 -33.09,68.77 -33.09,135.76 v 406.43 h -105.3"
         style="fill:#FFFFFF;fill-opacity:1;fill-rule:nonzero;stroke:none"
         id="path40" />
      <path
         d="m 2817.79,1213.51 v 234.97 c 68.75,0 127.06,0 163.62,2.63 60.9,3.46 110.51,16.52 147.06,53.94 38.3,40.05 53.1,96.62 53.1,159.28 0,60.03 -16.55,115.72 -51.35,152.27 -36.56,37.43 -83.54,53.11 -155.78,53.11 h -261.95 v -656.2 z m 0,335.93 v 219.31 h 145.32 c 41.8,0 67.02,-4.34 85.31,-22.63 18.27,-18.27 26.1,-46.12 26.1,-81.79 0,-34.81 -4.36,-62.66 -21.75,-81.83 -17.4,-20.88 -42.65,-27.84 -81.82,-30.43 -40.02,-2.63 -94.85,-2.63 -153.16,-2.63"
         style="fill:#FFFFFF;fill-opacity:1;fill-rule:nonzero;stroke:none"
         id="path42" />
    </g>
  </g>
</svg>
