<?xml version="1.0" encoding="UTF-8" standalone="no"?>
<!DOCTYPE svg PUBLIC "-//W3C//DTD SVG 1.1//EN" "http://www.w3.org/Graphics/SVG/1.1/DTD/svg11.dtd">
<svg width="100%" height="100%" viewBox="0 0 211 48" version="1.1" xmlns="http://www.w3.org/2000/svg" xmlns:xlink="http://www.w3.org/1999/xlink" xml:space="preserve" xmlns:serif="http://www.serif.com/" style="fill-rule:evenodd;clip-rule:evenodd;stroke-linejoin:round;stroke-miterlimit:2;">
    <g transform="matrix(1,0,0,1,0,-0.641511)">
        <g id="Group">
            <path id="Fill-7" d="M7.765,20.571C7.765,20.571 9.429,20.571 9.429,22.235L9.429,28.337C9.429,28.337 9.429,30 7.765,30L1.663,30C1.663,30 0,30 0,28.337L0,22.235C0,22.235 0,20.571 1.663,20.571L7.765,20.571Z" style="fill:white;fill-rule:nonzero;"/>
            <path id="Fill-9" d="M26.623,30C26.623,30 28.286,30 28.286,31.628L28.286,46.372C28.286,46.372 28.286,48 26.623,48L20.52,48C20.52,48 18.857,48 18.857,46.372L18.857,31.628C18.857,31.628 18.857,30 20.52,30L26.623,30Z" style="fill:rgb(254,254,254);fill-rule:nonzero;"/>
            <g id="Group-13">
                <g id="Fill-11-Clipped">
                    <path id="Fill-11" d="M28.908,18.043L28.908,2.325C28.908,0.642 27.209,0.642 27.209,0.642L1.7,0.642C0,0.642 0,2.325 0,2.325L0,8.502C0,10.185 1.7,10.185 1.7,10.185L19.273,10.185L19.273,18.043C19.273,19.726 20.972,19.726 20.972,19.726L27.209,19.726C28.908,19.726 28.908,18.043 28.908,18.043Z" style="fill:rgb(254,254,254);fill-rule:nonzero;"/>
                </g>
            </g>
            <path id="Fill-14" d="M56.861,14.571L55.346,14.571C52.696,14.571 51.419,15.942 51.419,18.497L51.419,20.107L49.714,20.343L49.714,22.54L51.419,22.54L51.419,30.89L54.281,30.89L54.281,22.54L57.075,22.54L57.075,20.107L54.281,20.107L54.281,18.52C54.281,17.574 54.565,17.005 55.512,17.005L56.861,17.005L56.861,14.571ZM63.848,28.717C62.284,28.717 61.479,27.841 61.408,26.419L67.919,26.419C68.037,25.972 68.108,25.144 68.108,24.554C68.108,22.209 66.855,19.87 63.54,19.87C60.202,19.87 58.522,22.445 58.522,25.499C58.522,28.788 60.107,31.151 63.848,31.151C65.578,31.151 67.021,30.419 67.848,29.591L66.5,27.722C65.696,28.386 64.726,28.717 63.848,28.717ZM61.431,24.388C61.502,23.157 62.118,22.161 63.54,22.161C64.558,22.161 65.46,22.755 65.46,24.034C65.46,24.105 65.436,24.247 65.412,24.388L61.431,24.388ZM73.388,21.808L73.388,20.107L70.645,20.107L70.645,30.89L73.507,30.89L73.507,24.101C73.909,23.344 74.643,22.824 75.59,22.824C76.111,22.824 76.821,22.918 77.319,23.037L77.532,20.012C77.177,19.918 76.75,19.87 76.301,19.87C74.785,19.87 73.956,20.84 73.412,21.81L73.388,21.808ZM82.315,21.808L82.315,20.107L79.571,20.107L79.571,30.89L82.433,30.89L82.433,24.101C82.835,23.344 83.569,22.824 84.517,22.824C85.037,22.824 85.748,22.918 86.245,23.037L86.458,20.012C86.103,19.918 85.677,19.87 85.227,19.87C83.712,19.87 82.883,20.84 82.338,21.81L82.315,21.808ZM92.971,19.87C89.419,19.87 87.835,22.232 87.835,25.522C87.835,28.741 89.491,31.151 92.876,31.151C96.428,31.151 98.036,28.788 98.036,25.475C98.036,22.232 96.381,19.87 92.971,19.87ZM92.924,28.576C91.454,28.576 90.744,27.558 90.744,25.475C90.744,23.488 91.43,22.445 92.9,22.445C94.415,22.445 95.104,23.488 95.104,25.522C95.104,27.487 94.415,28.576 92.924,28.576ZM110.278,20.107L107.414,20.107L107.414,27.7C106.988,28.102 106.136,28.505 105.307,28.505C103.861,28.505 103.364,27.819 103.364,26.517L103.364,20.107L100.477,20.107L100.477,26.849C100.477,29.638 101.732,31.127 104.169,31.127C105.899,31.127 106.941,30.466 107.509,29.662L107.509,30.89L110.278,30.89L110.278,20.107ZM121.453,21.454C120.743,20.673 119.513,19.87 117.382,19.87C114.115,19.87 112.955,21.783 112.955,23.346C112.955,24.907 113.902,26.019 115.794,26.492L117.667,26.942C118.401,27.109 118.756,27.487 118.756,27.96C118.756,28.67 118.069,29.025 117.097,29.025C115.747,29.025 114.824,28.292 114.21,27.629L112.576,29.333C113.263,30.182 114.658,31.151 116.978,31.151C120.506,31.151 121.666,29.403 121.666,27.7C121.666,26.137 120.743,24.978 118.59,24.505L116.789,24.079C116.102,23.937 115.794,23.559 115.794,23.062C115.794,22.493 116.268,22.02 117.264,22.02C118.33,22.02 119.229,22.493 119.869,23.133L121.453,21.454ZM137.293,21.454C136.583,20.673 135.354,19.87 133.221,19.87C129.953,19.87 128.795,21.783 128.795,23.346C128.795,24.907 129.742,26.019 131.633,26.492L133.507,26.942C134.241,27.109 134.596,27.487 134.596,27.96C134.596,28.67 133.909,29.025 132.937,29.025C131.585,29.025 130.664,28.292 130.048,27.629L128.416,29.333C129.103,30.182 130.498,31.151 132.818,31.151C136.346,31.151 137.505,29.403 137.505,27.7C137.505,26.137 136.583,24.978 134.43,24.505L132.629,24.079C131.942,23.937 131.633,23.559 131.633,23.062C131.633,22.493 132.108,22.02 133.102,22.02C134.17,22.02 135.069,22.493 135.707,23.133L137.293,21.454ZM141.839,20.107L138.619,20.107L143.047,30.419L140.727,36L143.639,36L149.961,20.107L146.883,20.107L144.468,27.131L141.839,20.107ZM159.761,21.454C159.053,20.673 157.823,19.87 155.691,19.87C152.423,19.87 151.265,21.783 151.265,23.346C151.265,24.907 152.212,26.019 154.103,26.492L155.975,26.942C156.71,27.109 157.066,27.487 157.066,27.96C157.066,28.67 156.379,29.025 155.407,29.025C154.055,29.025 153.133,28.292 152.518,27.629L150.886,29.333C151.572,30.182 152.968,31.151 155.288,31.151C158.816,31.151 159.975,29.403 159.975,27.7C159.975,26.137 159.053,24.978 156.9,24.505L155.099,24.079C154.412,23.937 154.103,23.559 154.103,23.062C154.103,22.493 154.578,22.02 155.572,22.02C156.639,22.02 157.539,22.493 158.177,23.133L159.761,21.454ZM166.345,22.516L168.759,22.516L168.759,20.107L166.345,20.107L166.345,17.032L163.482,17.481L163.482,20.107L161.517,20.343L161.517,22.516L163.482,22.516L163.482,27.748C163.482,29.709 164.333,31.151 166.559,31.151C167.364,31.151 168.309,31.009 168.854,30.796L168.806,28.315C168.404,28.434 167.908,28.505 167.529,28.505C166.772,28.505 166.345,28.15 166.345,27.345L166.345,22.516ZM176.077,28.717C174.512,28.717 173.707,27.841 173.636,26.419L180.148,26.419C180.266,25.972 180.337,25.144 180.337,24.554C180.337,22.209 179.084,19.87 175.769,19.87C172.431,19.87 170.751,22.445 170.751,25.499C170.751,28.788 172.336,31.151 176.077,31.151C177.807,31.151 179.25,30.419 180.077,29.591L178.729,27.722C177.925,28.386 176.953,28.717 176.077,28.717ZM173.66,24.388C173.731,23.157 174.347,22.161 175.769,22.161C176.787,22.161 177.689,22.755 177.689,24.034C177.689,24.105 177.665,24.247 177.641,24.388L173.66,24.388ZM182.874,30.89L185.735,30.89L185.735,23.297C186.28,22.871 186.943,22.493 187.844,22.493C188.863,22.493 189.478,22.942 189.835,23.534L189.835,30.89L192.697,30.89L192.697,23.297C193.146,22.871 193.904,22.493 194.877,22.493C196.203,22.493 196.678,23.108 196.678,24.149L196.678,30.89L199.563,30.89L199.563,23.912C199.563,21.288 198.428,19.87 195.705,19.87C193.809,19.87 192.555,20.697 191.963,21.454C191.301,20.533 190.402,19.87 188.673,19.87C187.156,19.87 186.233,20.627 185.641,21.335L185.641,20.107L182.874,20.107L182.874,30.89ZM210.644,21.454C209.934,20.673 208.704,19.87 206.573,19.87C203.306,19.87 202.146,21.783 202.146,23.346C202.146,24.907 203.093,26.019 204.985,26.492L206.857,26.942C207.591,27.109 207.947,27.487 207.947,27.96C207.947,28.67 207.26,29.025 206.289,29.025C204.938,29.025 204.014,28.292 203.4,27.629L201.767,29.333C202.453,30.182 203.849,31.151 206.169,31.151C209.697,31.151 210.857,29.403 210.857,27.7C210.857,26.137 209.934,24.978 207.781,24.505L205.98,24.079C205.293,23.937 204.985,23.559 204.985,23.062C204.985,22.493 205.459,22.02 206.455,22.02C207.52,22.02 208.42,22.493 209.059,23.133L210.644,21.454Z" style="fill:rgb(254,254,254);fill-rule:nonzero;"/>
        </g>
    </g>
</svg>
