<?xml version="1.0" encoding="UTF-8"?><svg id="Layer_2" xmlns="http://www.w3.org/2000/svg" viewBox="0 0 257.66 88.01"><defs><style>.cls-1{fill:#fff;}</style></defs><g id="Layer_1-2"><path class="cls-1" d="m48.72,56.12v-3.19h-3.19v-3.19h-3.17v-9.56h3.17v-3.19h3.19v-3.19h25.52v3.19h-6.38v3.19h3.19v9.56h-3.19v3.19h-3.19v3.19h-15.94Zm22.33,25.5v-6.38h-3.19v-3.19h-19.14v-3.17h-3.19v-3.17h-3.17v-6.38h3.17v-3.19h3.19v6.38h3.19v3.19h19.14v3.17h3.19v3.17h3.19v6.38h-3.19v3.19h-3.19Zm-22.33,6.38v-3.19h-3.19v-3.19h-3.17v-6.38h3.17v-3.19h3.19v9.58h3.19v3.19h15.94v3.19h-19.14Zm12.77-35.08v-3.19h3.17v-9.56h-3.17v-3.19h-9.58v3.19h-3.19v9.56h3.19v3.19h9.58Zm6.37,31.89v-3.19h3.19v3.19h-3.19Z"/><path class="cls-1" d="m87,68.87v-3.17h-3.19v-3.19h-3.19v-6.38h-3.17v-9.56h3.17v-6.39h3.19v3.19h19.14v-3.19h-3.19v-3.19h-12.75v-3.19h15.94v3.19h3.19v3.19h3.19v6.39h-25.52v9.56h3.19v6.38h3.19v3.19h12.75v3.17h-15.94Zm-3.19-28.69v-3.19h3.19v3.19h-3.19Zm19.14,25.52v-3.19h3.19v3.19h-3.19Zm3.19-3.19v-3.19h3.19v3.19h-3.19Z"/><path class="cls-1" d="m114.13,68.87v-3.17h3.17v-25.52h-3.17v-3.19h3.17v-3.19h3.19v-3.19h3.19v6.38h3.19v3.19h-3.19v25.52h3.19v3.17h-12.75Zm23.9,0v-3.17h3.19v-25.52h-3.19v-3.19h-11.15v-3.19h14.35v3.19h3.19v3.19h3.19v25.52h3.19v3.17h-12.77Z"/><path class="cls-1" d="m158.79,68.87v-3.17h-3.17v-7.98h3.17v4.79h3.19v3.19h9.58v-3.19h3.19v-6.38h-3.19v-3.19h-6.38v-3.19h-6.38v-3.17h-3.17v-6.39h3.17v-3.19h3.19v6.38h3.19v3.19h6.38v3.17h6.37v3.19h3.19v9.58h-3.19v3.19h-3.17v3.17h-15.96Zm17.54-25.5v-3.19h-3.17v-3.19h-11.17v-3.19h14.35v3.19h3.19v6.38h-3.19Z"/><path class="cls-1" d="m197.05,75.24v-14.33h-3.19v-7.98h-3.19v-7.96h-3.17v-7.98h-4.77v-3.19h15.92v3.19h-4.79v7.98h3.19v7.96h3.19v7.98h3.19v7.96h-3.19v6.37h-3.19Zm-12.73,12.77v-6.38h9.54v3.19h-3.19v3.19h-6.35Zm9.54-6.38v-6.38h3.19v6.38h-3.19Zm9.58-20.71v-7.98h3.19v7.98h-3.19Zm6.37-15.94v-7.98h-4.77v-3.19h12.75v3.19h-4.79v7.98h-3.19Zm-3.17,7.96v-7.96h3.17v7.96h-3.17Z"/><path class="cls-1" d="m220.99,68.87v-3.17h3.17v-25.52h-3.17v-3.19h3.17v-3.19h3.19v-3.19h3.19v6.38h3.19v3.19h-3.19v25.52h3.19v3.17h-12.75Zm23.9,0v-3.17h3.19v-25.52h-3.19v-3.19h-11.15v-3.19h14.35v3.19h3.19v3.19h3.19v25.52h3.19v3.17h-12.77Z"/><rect class="cls-1" x="29.74" y="28.94" width="6.2" height="7.04" transform="translate(65.3 -.39) rotate(90)"/><rect class="cls-1" x="24.2" y="33.42" width="6.2" height="7.04" transform="translate(64.24 9.63) rotate(90)"/><rect class="cls-1" x="4.64" y="28.94" width="6.2" height="7.04" transform="translate(40.2 24.72) rotate(90)"/><rect class="cls-1" x="10.82" y="33.42" width="6.2" height="7.04" transform="translate(50.85 23.02) rotate(90)"/><rect class="cls-1" x="17.59" y="37.57" width="6.2" height="7.04" transform="translate(61.77 20.4) rotate(90)"/><rect class="cls-1" x="4.64" y="8.21" width="6.2" height="7.04" transform="translate(-3.99 19.47) rotate(-90)"/><rect class="cls-1" x="10.18" y="3.73" width="6.2" height="7.04" transform="translate(6.03 20.53) rotate(-90)"/><rect class="cls-1" x="29.74" y="8.21" width="6.2" height="7.04" transform="translate(21.12 44.57) rotate(-90)"/><rect class="cls-1" x="23.57" y="3.73" width="6.2" height="7.04" transform="translate(19.42 33.92) rotate(-90)"/><rect class="cls-1" x="16.8" y="-.42" width="6.2" height="7.04" transform="translate(16.8 23) rotate(-90)"/><rect class="cls-1" y="14.1" width="6.33" height="17.07"/><rect class="cls-1" x="34.17" y="14.1" width="6.33" height="17.07"/></g></svg>