<?xml version="1.0" encoding="UTF-8" standalone="no"?>
<!-- Created with Inkscape (http://www.inkscape.org/) -->

<svg
   version="1.1"
   width="210.68849"
   height="114.5577"
   id="svg2"
   sodipodi:docname="giga_logo_and_text_white.svg"
   inkscape:version="1.2.2 (b0a84865, 2022-12-01)"
   xmlns:inkscape="http://www.inkscape.org/namespaces/inkscape"
   xmlns:sodipodi="http://sodipodi.sourceforge.net/DTD/sodipodi-0.dtd"
   xmlns="http://www.w3.org/2000/svg"
   xmlns:svg="http://www.w3.org/2000/svg"
   xmlns:rdf="http://www.w3.org/1999/02/22-rdf-syntax-ns#"
   xmlns:cc="http://creativecommons.org/ns#"
   xmlns:dc="http://purl.org/dc/elements/1.1/">
  <sodipodi:namedview
     pagecolor="#000000"
     bordercolor="#666666"
     borderopacity="1"
     objecttolerance="10"
     gridtolerance="10"
     guidetolerance="10"
     inkscape:pageopacity="0"
     inkscape:pageshadow="2"
     inkscape:window-width="1387"
     inkscape:window-height="1205"
     id="namedview62"
     showgrid="false"
     inkscape:pagecheckerboard="false"
     inkscape:zoom="3.1492075"
     inkscape:cx="104.47073"
     inkscape:cy="55.728306"
     inkscape:window-x="0"
     inkscape:window-y="25"
     inkscape:window-maximized="0"
     inkscape:current-layer="layer1"
     inkscape:showpageshadow="2"
     inkscape:deskcolor="#000000" />
  <defs
     id="defs4">
    <clipPath
       id="clipPath3169">
      <path
         d="m 0,145 0,4668 3500,0 0,-4668 -3500,0 z"
         id="path3171" />
    </clipPath>
    <clipPath
       id="clipPath3133">
      <path
         d="m 1028.23,3190.84 0,1404.58 -763.718,0 0,-1404.58 763.718,0 z"
         id="path3135" />
    </clipPath>
    <clipPath
       id="clipPath3079">
      <path
         d="m 0,145 0,4668 3500,0 0,-4668 -3500,0 z"
         id="path3081" />
    </clipPath>
    <clipPath
       id="clipPath3069">
      <path
         d="m 3500,145.836 0,4461.434 -3500,0 0,-4461.434 3500,0 z"
         id="path3071" />
    </clipPath>
    <clipPath
       id="clipPath3055">
      <path
         d="m 0,145 0,4668 3500,0 0,-4668 -3500,0 z"
         id="path3057" />
    </clipPath>
    <clipPath
       id="clipPath3045">
      <path
         d="m 3500,145.836 0,4461.434 -3500,0 0,-4461.434 3500,0 z"
         id="path3047" />
    </clipPath>
    <clipPath
       id="clipPath3011">
      <path
         d="m 0,145.836 3500,0 0,4666.66 -3500,0 0,-4666.66 z"
         id="path3013" />
    </clipPath>
    <clipPath
       id="clipPath3001">
      <path
         d="m 3500,145.836 0,4461.434 -3500,0 0,-4461.434 3500,0 z"
         id="path3003" />
    </clipPath>
    <clipPath
       id="clipPath3133-7">
      <path
         d="m 1028.23,3190.84 0,1404.58 -763.718,0 0,-1404.58 763.718,0 z"
         id="path3135-4" />
    </clipPath>
  </defs>
  <metadata
     id="metadata7">
    <rdf:RDF>
      <cc:Work
         rdf:about="">
        <dc:format>image/svg+xml</dc:format>
        <dc:type
           rdf:resource="http://purl.org/dc/dcmitype/StillImage" />
      </cc:Work>
    </rdf:RDF>
  </metadata>
  <g
     transform="translate(-68.401993,-37.458723)"
     id="layer1">
    <path
       inkscape:connector-curvature="0"
       style="fill:#cccccc;fill-opacity:1;fill-rule:nonzero;stroke:none"
       id="path3087"
       d="m 94.680493,62.213973 -2.2425,-22.25745 16.058997,-2.4978" />
    <path
       inkscape:connector-curvature="0"
       style="fill:#e5e5e5;fill-opacity:1;fill-rule:nonzero;stroke:none"
       id="path3089"
       d="m 92.436493,39.956523 -10.11,9.87945 12.354,12.378" />
    <path
       inkscape:connector-curvature="0"
       style="fill:#ffffff;fill-opacity:1;fill-rule:nonzero;stroke:none"
       id="path3091"
       d="m 75.150493,42.645423 17.286,-2.6883 -10.1085,9.87885" />
    <path
       inkscape:connector-curvature="0"
       style="fill:#e6e6e6;fill-opacity:1;fill-rule:nonzero;stroke:none"
       id="path3093"
       d="m 93.762493,63.075273 -22.791,-1.54215 12.504,-8.7639" />
    <path
       inkscape:connector-curvature="0"
       style="fill:#cccccc;fill-opacity:1;fill-rule:nonzero;stroke:none"
       id="path3095"
       d="m 70.971493,61.533123 3.2625,-18.02235 9.2415,9.25965" />
    <path
       inkscape:connector-curvature="0"
       style="fill:#ffffff;fill-opacity:1;fill-rule:nonzero;stroke:none"
       id="path3097"
       d="m 70.971493,61.533123 6.972,9.4353 15.819,-7.89315" />
    <path
       inkscape:connector-curvature="0"
       style="fill:#e4e4e4;fill-opacity:1;fill-rule:nonzero;stroke:none"
       id="path3099"
       d="m 70.971493,61.533123 6.972,9.4353 -9.5415,4.7613" />
    <path
       inkscape:connector-curvature="0"
       style="fill:#cccccc;fill-opacity:1;fill-rule:nonzero;stroke:none"
       id="path3101"
       d="m 94.336993,64.196223 -13.794,6.88185 18.3795,22.24035" />
    <path
       inkscape:connector-curvature="0"
       style="fill:#e6e6e6;fill-opacity:1;fill-rule:nonzero;stroke:none"
       id="path3103"
       d="m 98.922493,93.317823 -18.279,-22.1238 -0.1005,-0.11595 -0.6195,11.83125" />
    <path
       inkscape:connector-curvature="0"
       style="fill:#cccccc;fill-opacity:1;fill-rule:nonzero;stroke:none"
       id="path3105"
       d="m 68.917993,76.879923 11.6265,-5.80185 -0.621,11.83125" />
    <path
       inkscape:connector-curvature="0"
       style="fill:#ffffff;fill-opacity:1;fill-rule:nonzero;stroke:none"
       id="path3107"
       d="m 97.513993,76.277673 8.584497,-9.91995 -10.508997,-2.29755" />
    <path
       inkscape:connector-curvature="0"
       style="fill:#e6e6e6;fill-opacity:1;fill-rule:nonzero;stroke:none"
       id="path3109"
       d="m 97.513993,76.277673 11.077497,8.97885 -2.493,-18.8988" />
    <path
       inkscape:connector-curvature="0"
       style="fill:#cccccc;fill-opacity:1;fill-rule:nonzero;stroke:none"
       id="path3111"
       d="m 97.513993,76.277673 11.077497,8.97885 -8.412,7.9506" />
    <path
       inkscape:connector-curvature="0"
       style="fill:#ffffff;fill-opacity:1;fill-rule:nonzero;stroke:none"
       id="path3113"
       d="m 106.09999,66.357723 18.2595,3.99195 -15.768,14.90685" />
    <path
       inkscape:connector-curvature="0"
       style="fill:#ffffff;fill-opacity:1;fill-rule:nonzero;stroke:none"
       id="path3115"
       d="m 101.13349,53.237373 4.9665,11.83065 -10.310997,-2.25285" />
    <path
       inkscape:connector-curvature="0"
       style="fill:#e6e6e6;fill-opacity:1;fill-rule:nonzero;stroke:none"
       id="path3117"
       d="m 101.13349,53.237373 4.9665,11.83065 14.808,-3.5349" />
    <path
       inkscape:connector-curvature="0"
       style="fill:#cccccc;fill-opacity:1;fill-rule:nonzero;stroke:none"
       id="path3119"
       d="m 106.09999,65.068623 18.4335,4.03005 -3.6255,-7.56615" />
    <path
       inkscape:connector-curvature="0"
       style="fill:#ffffff;fill-opacity:1;fill-rule:nonzero;stroke:none"
       id="path3121"
       d="m 101.13349,53.237373 19.7745,8.29575 -11.274,-23.5272" />
    <path
       inkscape:connector-curvature="0"
       style="fill:#ffffff;fill-opacity:1;fill-rule:nonzero;stroke:none"
       id="path3123"
       d="m 168.23749,70.312773 v 9.9996 h -21.618 c -2.5275,0.48345 -2.649,2.58105 -2.649,2.58105 v 23.979447 c 0,0 -0.24,2.82375 2.5995,3.2175 h 12.7095 v -9.2133 h -7.446 v -9.781647 h 17.2365 v 28.567947 h -22.3815 c -8.8965,0 -12.441,-4.3095 -12.441,-13.4151 V 83.171223 c 0,-8.61855 4.7265,-12.85845 13.971,-12.85845" />
    <path
       inkscape:connector-curvature="0"
       style="fill:#ffffff;fill-opacity:1;fill-rule:nonzero;stroke:none"
       id="path3125"
       d="m 231.30199,70.312773 v 9.9996 h -21.618 c -2.526,0.48345 -2.6505,2.58105 -2.6505,2.58105 v 23.979447 c 0,0 -0.2385,2.82375 2.601,3.2175 h 12.711 v -9.2133 h -7.449 v -9.781647 h 17.2395 v 28.567947 h -22.3815 c -8.898,0 -12.441,-4.3095 -12.441,-13.4151 V 83.171223 c 0,-8.61855 4.725,-12.85845 13.9695,-12.85845" />
    <path
       inkscape:connector-curvature="0"
       style="fill:#ffffff;fill-opacity:1;fill-rule:nonzero;stroke:none"
       id="path3127"
       d="M 269.47099,110.10027 V 96.478923 l -14.097,1.9044 c -3.429,0.47745 -6.285,1.906047 -6.285,6.094347 0,3.71655 2.0955,5.6226 4.7625,5.6226 z m -6.477,-39.810897 c 11.6205,0 16.0965,6.66615 16.0965,17.90445 v 31.525197 h -25.1445 c -8.952,0 -14.6655,-5.2377 -14.6655,-15.3339 0,-8.191497 5.6175,-12.858447 15.2385,-14.476197 l 15.045,-2.4768 c 0,-4.38225 -1.902,-7.2381 -6.2835,-7.2381 h -17.334 v -9.90465" />
    <g
       id="g922">
      <g
         style="fill:#5bffff;fill-opacity:1"
         transform="matrix(0,0.15,0.15,0,-410.22251,-2.2180772)"
         id="g3129">
        <g
           style="fill:#ffffff;fill-opacity:1"
           clip-path="url(#clipPath3133-7)"
           id="g3131">
          <path
             d="m 483.375,3923.24 h 65.9453 v 64.7578 H 483.375 Z"
             id="path3137"
             style="fill:#ffffff;fill-opacity:1;fill-rule:nonzero;stroke:none"
             inkscape:connector-curvature="0" />
          <path
             d="m 576.73,3923.23 h 236.184 v 64.7578 H 576.73 Z"
             id="path3139"
             style="fill:#ffffff;fill-opacity:1;fill-rule:nonzero;stroke:none"
             inkscape:connector-curvature="0" />
          <path
             d="m 266.609,3489.09 v -4.66 l 219.454,105.18 160.546,-169.85 h 5.532 l 0.23,0.01 -165.363,174.94"
             id="path3141"
             style="fill:#ffffff;fill-opacity:1;fill-rule:nonzero;stroke:none"
             inkscape:connector-curvature="0" />
          <path
             d="m 984.301,3635.65 c 1.199,0 1.801,-0.6 1.801,-1.8 v -3.22 c 0,-1.2 -0.602,-1.6 -1.801,-1.6 h -94.867 c -1.207,0 -1.817,0.4 -1.817,1.6 v 3.22 c 0,1.2 0.61,1.8 1.817,1.8 z m -117.133,0 c 1.199,0 1.797,-0.6 1.797,-1.8 v -3.22 c 0,-1.2 -0.598,-1.6 -1.797,-1.6 h -19.453 c -1.207,0 -1.817,0.4 -1.817,1.6 v 3.22 c 0,1.2 0.61,1.8 1.817,1.8"
             id="path3143"
             style="fill:#ffffff;fill-opacity:1;fill-rule:nonzero;stroke:none"
             inkscape:connector-curvature="0" />
          <path
             d="m 887.625,3676.37 c 0,1.2 0.602,1.59 1.809,1.59 l 9.214,0.42 c -4.808,5.8 -12.632,18.05 -12.632,35.5 0,18.85 9.632,27.27 23.066,27.27 h 75.219 c 1.199,0 1.801,-0.61 1.801,-1.81 v -3.21 c 0,-1.2 -0.602,-1.61 -1.801,-1.61 h -74.219 c -10.422,0 -18.047,-6.61 -18.047,-21.85 0,-17.65 8.832,-29.49 12.633,-34.1 h 79.633 c 1.199,0 1.801,-0.61 1.801,-1.8 v -3.21 c 0,-1.2 -0.602,-1.61 -1.801,-1.61 h -94.867 c -1.207,0 -1.809,0.41 -1.809,1.61"
             id="path3145"
             style="fill:#ffffff;fill-opacity:1;fill-rule:nonzero;stroke:none"
             inkscape:connector-curvature="0" />
          <path
             d="m 887.824,3779.86 h -19.449 c -13.641,0 -23.465,7.82 -23.465,34.3 v 0.8 c 0,1.2 0.598,1.61 1.797,1.61 h 2.211 c 1.199,0 1.797,-0.41 1.797,-1.61 v -0.8 c 0,-21.67 7.625,-27.68 18.262,-27.68 h 18.847 v 24.87 c 0,1.21 0.602,1.81 1.801,1.81 h 2.207 c 1.211,0 1.809,-0.6 1.809,-1.81 v -24.87 h 90.66 c 1.199,0 1.801,-0.4 1.801,-1.8 v -3.01 c 0,-1.21 -0.602,-1.81 -1.801,-1.81 h -90.66 v -13.65 c 0,-1.19 -0.598,-1.59 -1.809,-1.59 h -1.797 c -1.211,0 -1.808,0.4 -1.808,1.59 l -0.403,11.25"
             id="path3147"
             style="fill:#ffffff;fill-opacity:1;fill-rule:nonzero;stroke:none"
             inkscape:connector-curvature="0" />
          <path
             d="m 909.891,3895.99 c -10.434,0 -18.25,-6.42 -18.25,-28.07 0,-21.46 7.816,-27.88 18.25,-27.88 h 53.961 c 10.414,0 18.046,6.42 18.046,27.88 0,21.65 -7.632,28.07 -18.046,28.07 z m -0.407,-62.57 c -13.836,0 -23.468,8.22 -23.468,34.5 0,26.47 9.632,34.71 23.468,34.71 h 54.758 c 13.641,0 23.465,-8.24 23.465,-34.71 0,-26.28 -9.824,-34.5 -23.465,-34.5"
             id="path3149"
             style="fill:#ffffff;fill-opacity:1;fill-rule:nonzero;stroke:none"
             inkscape:connector-curvature="0" />
          <path
             d="m 906.477,3992.07 c -8.829,0 -15.243,-8.02 -15.243,-26.67 0,-18.65 6.414,-26.27 15.243,-26.27 h 7.414 c 7.632,0 12.242,7.21 13.851,12.42 l 9.625,31.89 c 2.61,8.63 8.426,16.45 17.649,16.45 h 12.035 c 11.633,0 20.656,-10.43 20.656,-34.29 0,-23.87 -9.023,-34.1 -20.656,-34.1 h -5.817 c -1,0 -1.609,0.6 -1.609,1.81 v 3 c 0,1.01 0.609,1.62 1.609,1.62 h 5.618 c 9.023,0 15.441,8.41 15.441,27.67 0,19.05 -6.418,27.88 -15.441,27.88 h -10.434 c -7.418,0 -11.434,-6.42 -13.441,-13.24 l -9.625,-31.9 c -2.012,-6.61 -8.418,-15.64 -18.442,-15.64 h -8.433 c -11.434,0 -20.454,9.23 -20.454,32.7 0,23.46 9.02,32.89 20.454,32.89 h 7.023 c 1,0 1.41,-0.4 1.41,-1.81 v -3 c 0,-1.01 -0.41,-1.41 -1.41,-1.41"
             id="path3151"
             style="fill:#ffffff;fill-opacity:1;fill-rule:nonzero;stroke:none"
             inkscape:connector-curvature="0" />
          <path
             d="m 968.051,4049.64 c 2.406,0.8 8.824,2.6 8.824,2.6 0,0 -5.609,1.21 -8.824,2.41 l -78.625,27.08 c -1.199,0.4 -1.801,1 -1.801,2 v 3.41 c 0,1.2 0.809,1.61 1.801,1.2 l 137.004,-46.92 c 0.99,-0.4 1.8,-1.01 1.8,-2.01 v -2.81 c 0,-1.2 -0.81,-1.61 -1.8,-1.2 l -40.52,13.43 -96.484,-33.09 c -0.992,-0.4 -1.801,0 -1.801,1.2 v 3.41 c 0,1.21 0.602,1.82 1.801,2.21"
             id="path3153"
             style="fill:#ffffff;fill-opacity:1;fill-rule:nonzero;stroke:none"
             inkscape:connector-curvature="0" />
          <path
             d="m 906.477,4166.17 c -8.829,0 -15.243,-8.02 -15.243,-26.67 0,-18.67 6.414,-26.27 15.243,-26.27 h 7.414 c 7.632,0 12.242,7.21 13.851,12.42 l 9.625,31.9 c 2.61,8.62 8.426,16.45 17.649,16.45 h 12.035 c 11.633,0 20.656,-10.43 20.656,-34.31 0,-23.87 -9.023,-34.09 -20.656,-34.09 h -5.817 c -1,0 -1.609,0.6 -1.609,1.8 v 3.01 c 0,1 0.609,1.61 1.609,1.61 h 5.618 c 9.023,0 15.441,8.42 15.441,27.67 0,19.06 -6.418,27.88 -15.441,27.88 h -10.434 c -7.418,0 -11.434,-6.41 -13.441,-13.24 l -9.625,-31.89 c -2.012,-6.62 -8.418,-15.64 -18.442,-15.64 h -8.433 c -11.434,0 -20.454,9.22 -20.454,32.7 0,23.46 9.02,32.89 20.454,32.89 h 7.023 c 1,0 1.41,-0.41 1.41,-1.81 v -3.01 c 0,-1 -0.41,-1.4 -1.41,-1.4"
             id="path3155"
             style="fill:#ffffff;fill-opacity:1;fill-rule:nonzero;stroke:none"
             inkscape:connector-curvature="0" />
          <path
             d="m 887.824,4238.57 c 0,1.2 0.602,1.81 1.801,1.81 h 2.207 c 1.211,0 1.809,-0.61 1.809,-1.81 v -25.07 h 68.402 c 10.625,0 18.242,5.82 18.242,27.48 v 2.81 c 0,1.21 0.399,1.81 1.805,1.81 h 2.211 c 1.199,0 1.801,-0.6 1.801,-1.81 v -3.41 c 0,-26.47 -9.426,-33.49 -23.461,-33.49 h -69 v -13.44 c 0,-1.2 -0.598,-1.8 -1.809,-1.8 h -1.797 c -1.211,0 -1.808,0.6 -1.808,1.8 l -0.403,11.03 v 2.41 h -22.265 c -1.2,0 -1.801,0.4 -1.801,1.6 v 3.21 c 0,1.2 0.601,1.8 1.801,1.8 h 22.265"
             id="path3157"
             style="fill:#ffffff;fill-opacity:1;fill-rule:nonzero;stroke:none"
             inkscape:connector-curvature="0" />
          <path
             d="m 930.941,4273.68 v 55.35 h -21.257 c -10.235,0 -18.051,-6.01 -18.051,-27.67 0,-21.66 7.816,-27.68 18.051,-27.68 z m 3.618,61.78 c 1.199,0 1.8,-0.6 1.8,-1.61 v -60.17 h 27.481 c 10.426,0 18.25,5.82 18.25,27.68 0,21.86 -7.824,27.67 -18.25,27.67 h -5.016 c -1.199,0 -1.801,0.6 -1.801,1.81 v 2.81 c 0,1.21 0.602,1.81 1.801,1.81 h 5.418 c 13.641,0 23.465,-7.83 23.465,-34.3 0,-26.28 -9.824,-34.1 -23.465,-34.1 h -54.758 c -13.836,0 -23.468,7.82 -23.468,34.3 0,26.27 9.632,34.1 23.468,34.1"
             id="path3159"
             style="fill:#ffffff;fill-opacity:1;fill-rule:nonzero;stroke:none"
             inkscape:connector-curvature="0" />
          <path
             d="m 887.625,4371.76 c 0,1.2 0.602,1.61 1.809,1.61 l 9.023,0.2 c -4.617,5.61 -12.441,17.04 -12.441,34.49 0,14.04 5.418,22.26 13.644,25.67 -4.219,4.83 -13.644,16.65 -13.644,35.71 0,18.85 9.632,27.27 23.066,27.27 h 75.219 c 1.199,0 1.801,-0.59 1.801,-1.8 v -3 c 0,-1.41 -0.602,-1.82 -1.801,-1.82 h -74.219 c -10.422,0 -18.047,-6.61 -18.047,-21.86 0,-18.45 9.422,-29.47 13.039,-33.49 1.602,0.4 3.41,0.6 5.008,0.6 h 74.219 c 1.199,0 1.801,-0.6 1.801,-1.81 v -3.21 c 0,-1.19 -0.602,-1.59 -1.801,-1.59 h -74.219 c -10.422,0 -18.047,-6.63 -18.047,-21.87 0,-17.45 8.832,-28.68 12.633,-32.9 h 79.633 c 1.199,0 1.801,-0.59 1.801,-1.79 v -3.22 c 0,-1.2 -0.602,-1.59 -1.801,-1.59 h -94.867 c -1.207,0 -1.809,0.39 -1.809,1.59"
             id="path3161"
             style="fill:#ffffff;fill-opacity:1;fill-rule:nonzero;stroke:none"
             inkscape:connector-curvature="0" />
          <path
             d="m 906.477,4587.38 c -8.829,0 -15.243,-8.01 -15.243,-26.67 0,-18.65 6.414,-26.28 15.243,-26.28 h 7.414 c 7.632,0 12.242,7.23 13.851,12.44 l 9.625,31.89 c 2.61,8.62 8.426,16.45 17.649,16.45 h 12.035 c 11.633,0 20.656,-10.43 20.656,-34.3 0,-23.88 -9.023,-34.09 -20.656,-34.09 h -5.817 c -1,0 -1.609,0.6 -1.609,1.8 v 3.01 c 0,1 0.609,1.6 1.609,1.6 h 5.618 c 9.023,0 15.441,8.43 15.441,27.68 0,19.05 -6.418,27.88 -15.441,27.88 h -10.434 c -7.418,0 -11.434,-6.42 -13.441,-13.25 l -9.625,-31.88 c -2.012,-6.63 -8.418,-15.64 -18.442,-15.64 h -8.433 c -11.434,0 -20.454,9.21 -20.454,32.69 0,23.46 9.02,32.89 20.454,32.89 h 7.023 c 1,0 1.41,-0.4 1.41,-1.81 v -3 c 0,-1.01 -0.41,-1.41 -1.41,-1.41"
             id="path3163"
             style="fill:#ffffff;fill-opacity:1;fill-rule:nonzero;stroke:none"
             inkscape:connector-curvature="0" />
        </g>
      </g>
    </g>
  </g>
</svg>
