<?xml version="1.0" encoding="UTF-8"?>
<svg width="172px" height="53px" viewBox="0 0 172 53" version="1.1" xmlns="http://www.w3.org/2000/svg" xmlns:xlink="http://www.w3.org/1999/xlink">
    <title>Group 12</title>
    <defs>
        <polygon id="path-1" points="0 53 172 53 172 0 0 0"></polygon>
    </defs>
    <g id="Web" stroke="none" stroke-width="1" fill="none" fill-rule="evenodd">
        <g id="DT_EuroRust-'23_vs.2c" transform="translate(-899.000000, -4128.000000)">
            <g id="Group-22" transform="translate(167.000000, 3775.000000)">
                <g id="Group-19" transform="translate(0.000000, 347.000000)">
                    <g id="Group-12" transform="translate(732.000000, 6.000000)">
                        <path d="M21.2233393,41.1168111 C9.689567,41.1168111 0.001198314,31.8889222 0.001198314,20.5587 C0.001198314,9.22258889 9.689567,0.000588888889 21.2233393,0.000588888889 C27.5983697,0.000588888889 32.1399798,2.45625556 35.5611663,5.6657 L31.5288397,9.62892222 C29.0782875,7.36758889 25.7649493,5.61858889 21.2233393,5.61858889 C12.8051834,5.61858889 6.22044797,12.2848111 6.22044797,20.5587 C6.22044797,28.8325889 12.8051834,35.4988111 21.2233393,35.4988111 C26.6816595,35.4988111 29.7912844,33.3434778 31.7804856,31.3883667 C33.4161842,29.7865889 34.4886752,27.4781444 34.896102,24.3217 L21.2233393,24.3217 L21.2233393,18.7037 L40.456279,18.7037 C40.6599923,19.7048111 40.761849,20.9061444 40.761849,22.2134778 C40.761849,26.4240333 39.5875013,31.6415889 35.8128122,35.3515889 C32.1399798,39.1087 27.4485805,41.1168111 21.2233393,41.1168111" id="Fill-1" fill="#FEFEFE"></path>
                        <path d="M65.3117079,27.878 C65.3117079,23.1138889 61.8186226,19.8573333 57.7743129,19.8573333 C53.7300031,19.8573333 50.2429094,23.1138889 50.2429094,27.878 C50.2429094,32.5891111 53.7300031,35.8986667 57.7743129,35.8986667 C61.8186226,35.8986667 65.3117079,32.5891111 65.3117079,27.878 M71.177455,27.878 C71.177455,35.4982222 65.1619187,41.1162222 57.7743129,41.1162222 C50.3926986,41.1162222 44.3771624,35.4982222 44.3771624,27.878 C44.3771624,20.2047778 50.3926986,14.6397778 57.7743129,14.6397778 C65.1619187,14.6397778 71.177455,20.2047778 71.177455,27.878" id="Fill-3" fill="#FEFEFE"></path>
                        <path d="M95.0838193,27.878 C95.0838193,23.1138889 91.5967255,19.8573333 87.5464242,19.8573333 C83.508106,19.8573333 80.0150207,23.1138889 80.0150207,27.878 C80.0150207,32.5891111 83.508106,35.8986667 87.5464242,35.8986667 C91.5967255,35.8986667 95.0838193,32.5891111 95.0838193,27.878 M100.949566,27.878 C100.949566,35.4982222 94.93403,41.1162222 87.5464242,41.1162222 C80.16481,41.1162222 74.1492737,35.4982222 74.1492737,27.878 C74.1492737,20.2047778 80.16481,14.6397778 87.5464242,14.6397778 C94.93403,14.6397778 100.949566,20.2047778 100.949566,27.878" id="Fill-5" fill="#FEFEFE"></path>
                        <path d="M124.882294,27.9292333 C124.882294,23.2652333 121.718745,19.8555667 117.69241,19.8555667 C113.606159,19.8555667 110.190964,23.2652333 110.190964,27.9292333 C110.190964,32.5402333 113.606159,35.9027889 117.69241,35.9027889 C121.718745,35.9027889 124.882294,32.5402333 124.882294,27.9292333 L124.882294,27.9292333 Z M130.088968,15.4447889 L130.088968,39.2123444 C130.088968,48.9879 124.223221,52.9982333 117.278991,52.9982333 C110.74818,52.9982333 106.823702,48.6875667 105.343784,45.1777889 L110.496534,43.0754556 C111.413244,45.2307889 113.660083,47.7865667 117.278991,47.7865667 C121.718745,47.7865667 124.474867,45.0776778 124.474867,40.0132333 L124.474867,38.1052333 L124.271153,38.1052333 C122.947016,39.7129 120.394608,41.1144556 117.183126,41.1144556 C110.448601,41.1144556 104.271293,35.3492333 104.271293,27.9292333 C104.271293,20.4562333 110.448601,14.6439 117.183126,14.6439 C120.394608,14.6439 122.947016,16.0454556 124.271153,17.6001222 L124.474867,17.6001222 L124.474867,15.4447889 L130.088968,15.4447889 Z" id="Fill-7" fill="#FEFEFE"></path>
                        <mask id="mask-2" fill="white">
                            <use xlink:href="#path-1"></use>
                        </mask>
                        <g id="Clip-10"></g>
                        <polygon id="Fill-9" fill="#FEFEFE" mask="url(#mask-2)" points="136.062563 40.3153333 141.976243 40.3153333 141.976243 1.40744444 136.062563 1.40744444"></polygon>
                        <path d="M153.022301,27.4775556 L165.059365,22.5662222 C164.394301,20.9055556 162.4051,19.7572222 160.056404,19.7572222 C157.054628,19.7572222 152.86652,22.366 153.022301,27.4775556 M167.156415,32.2416667 L171.745957,35.2508889 C170.26604,37.4062222 166.695064,41.1162222 160.517755,41.1162222 C152.86652,41.1162222 147.150563,35.298 147.150563,27.878 C147.150563,20.0045556 152.920444,14.6397778 159.858683,14.6397778 C166.844853,14.6397778 170.26604,20.1046667 171.386463,23.0667778 L171.997603,24.5684444 L153.992936,31.8883333 C155.370997,34.5442222 157.509987,35.8986667 160.517755,35.8986667 C163.531515,35.8986667 165.622573,34.45 167.156415,32.2416667" id="Fill-11" fill="#FEFEFE" mask="url(#mask-2)"></path>
                    </g>
                </g>
            </g>
        </g>
    </g>
</svg>