<svg width="406" height="727" viewBox="0 0 406 727" fill="none" xmlns="http://www.w3.org/2000/svg">
<g clip-path="url(#clip0_37_6)">
<path d="M405.1 0.299988H270.4V547H405.1V0.299988Z" fill="white"/>
<path d="M135.7 0.299988H1V547H135.7V0.299988Z" fill="white"/>
<path d="M225.5 182.5H180.6V364.7H225.5V182.5Z" fill="white"/>
<path d="M74.4 613.9V703.5H61.8V662.8H14.7V703.5H2.09998V613.9H14.7V651.9H61.8V613.9H74.4Z" fill="white"/>
<mask id="mask0_37_6" style="mask-type:luminance" maskUnits="userSpaceOnUse" x="0" y="0" width="406" height="727">
<path d="M405.6 0H0.699951V726.9H405.6V0Z" fill="white"/>
</mask>
<g mask="url(#mask0_37_6)">
<path d="M99.1 664.4H137.4C137.1 655 130.7 645.6 118.6 645.6C107.2 645.5 99.6 652.3 99.1 664.4ZM86.8 670.3C86.8 649.3 100.2 635.8 118.7 635.8C139.2 635.8 150.9 652.9 149.4 673.8H99.1C99.1 687 108 695.1 118.9 695.1C129.3 695.1 134.1 690.7 136.9 684.1H148.6C145.4 695.6 135.7 705 119.2 705C97.7 705 86.8 690 86.8 670.3Z" fill="white"/>
</g>
<path d="M172.5 613.9H161.2V703.5H172.5V613.9Z" fill="white"/>
<mask id="mask1_37_6" style="mask-type:luminance" maskUnits="userSpaceOnUse" x="0" y="0" width="406" height="727">
<path d="M405.6 0H0.699951V726.9H405.6V0Z" fill="white"/>
</mask>
<g mask="url(#mask1_37_6)">
<path d="M227.3 656.4C225.5 648.5 219.4 645.4 211.1 645.4C204 645.4 196.7 647.8 196.7 653.8C196.7 659.1 200.4 661.3 207.3 662.8L216.7 664.7C229.2 667.2 239.9 671.7 239.9 684.5C239.9 697.6 228 705.2 212.4 705.2C194.5 705.2 184.6 693.7 183.4 682.1H195.3C197.1 690.6 202.4 695.7 212.8 695.7C221.8 695.7 228.8 692 228.8 685.8C228.8 679.1 222.5 676.3 214.9 674.8L205 672.8C195.5 670.8 185.6 666.7 185.6 654.4C185.6 642.6 197.5 635.9 212.7 635.9C227.5 635.9 237.3 643.9 239.4 656.6L227.3 656.4Z" fill="white"/>
</g>
<path d="M263.6 703.5H252.3V637H263.6V703.5ZM263.6 627.5H252.3V613.9H263.6V627.5Z" fill="white"/>
<mask id="mask2_37_6" style="mask-type:luminance" maskUnits="userSpaceOnUse" x="0" y="0" width="406" height="727">
<path d="M405.6 0H0.699951V726.9H405.6V0Z" fill="white"/>
</mask>
<g mask="url(#mask2_37_6)">
<path d="M291.2 647C295 640.7 301.5 635.8 312.7 635.8C328.8 635.8 334.6 646.2 334.6 661.4V703.5H323.3V664.8C323.3 654.5 321.5 645.7 308.7 645.7C297.8 645.7 291.2 653.2 291.2 667.5V703.6H280V637.1H291.3V647H291.2Z" fill="white"/>
</g>
<mask id="mask3_37_6" style="mask-type:luminance" maskUnits="userSpaceOnUse" x="0" y="0" width="406" height="727">
<path d="M405.6 0H0.699951V726.9H405.6V0Z" fill="white"/>
</mask>
<g mask="url(#mask3_37_6)">
<path d="M375.8 645.5C363.8 645.5 357.8 654 357.8 669.1C357.8 684.3 363.9 692.8 375.8 692.8C385.8 692.8 394.6 686 394.6 669.1C394.7 652.3 385.9 645.5 375.8 645.5ZM394.2 637H405.5V694.5C405.5 708.1 403 713.6 399.2 717.8C394.4 723.4 386.1 726.5 376.3 726.5C361.2 726.5 351.1 719.5 348.9 706.1H360.9C362.4 712.1 366 716.6 376.4 716.6C382.5 716.6 387 714.8 390 711.7C392.5 709 394.3 706 394.3 697V690.7C390.2 697.8 383.8 702.2 373.1 702.2C357.4 702.2 345.7 690.3 345.7 669C345.7 647.7 357.5 635.8 373.1 635.8C383.7 635.8 390.2 640.4 394.3 647.5V637H394.2Z" fill="white"/>
</g>
</g>
<defs>
<clipPath id="clip0_37_6">
<rect width="405.3" height="727" fill="white" transform="translate(0.699951)"/>
</clipPath>
</defs>
</svg>
