<svg width="1422" height="373" viewBox="0 0 1422 373" fill="none" xmlns="http://www.w3.org/2000/svg">
<path d="M591.903 54.35C596.343 56.43 599.743 59.36 602.103 63.14C604.463 66.92 605.653 71.34 605.653 76.35C605.653 81.36 604.473 85.78 602.103 89.56C599.733 93.34 596.343 96.28 591.903 98.35C587.463 100.42 582.223 101.46 576.163 101.46H555.423V124.1H535.263V51.24H576.163C582.223 51.24 587.463 52.28 591.903 54.35ZM574.993 85.35C578.233 85.35 580.763 84.56 582.573 82.97C584.383 81.38 585.293 79.18 585.293 76.36C585.293 73.54 584.383 71.34 582.573 69.75C580.763 68.16 578.233 67.37 574.993 67.37H555.413V85.35H574.993Z" fill="white"/>
<path d="M631.833 120.95C625.293 117.78 620.213 113.32 616.603 107.57C612.993 101.82 611.183 95.19 611.183 87.68C611.183 80.17 612.993 73.53 616.603 67.79C620.213 62.04 625.293 57.58 631.833 54.41C638.373 51.23 645.923 49.65 654.473 49.65C663.023 49.65 670.573 51.24 677.113 54.41C683.653 57.58 688.733 62.04 692.343 67.79C695.953 73.54 697.763 80.17 697.763 87.68C697.763 95.19 695.953 101.83 692.343 107.57C688.733 113.32 683.653 117.78 677.113 120.95C670.573 124.12 663.023 125.71 654.473 125.71C645.923 125.71 638.373 124.12 631.833 120.95ZM634.333 98.31C636.193 101.32 638.853 103.64 642.303 105.26C645.753 106.88 649.813 107.69 654.473 107.69C659.133 107.69 663.193 106.88 666.643 105.26C670.093 103.64 672.743 101.32 674.613 98.31C676.473 95.3 677.403 91.75 677.403 87.67C677.403 83.59 676.473 80.04 674.613 77.03C672.753 74.02 670.093 71.7 666.643 70.08C663.193 68.46 659.133 67.65 654.473 67.65C649.813 67.65 645.753 68.46 642.303 70.08C638.853 71.7 636.203 74.02 634.333 77.03C632.473 80.04 631.543 83.59 631.543 87.67C631.543 91.75 632.473 95.3 634.333 98.31Z" fill="white"/>
<path d="M728.263 106.19H773.733V124.12H708.103V51.24H728.263V106.19Z" fill="white"/>
<path d="M782.333 51.24H802.393V97.1L838.293 51.24H859.623L834.793 81.89L860.593 124.11H837.713L822.073 97.59L800.553 124.11H782.333V51.24Z" fill="white"/>
<path d="M953.003 124.11H931.533L925.463 110.07H887.813L881.743 124.11H860.223L893.403 51.24H919.883L953.013 124.11H953.003ZM918.463 93.89L906.603 66.59L894.803 93.89H918.463Z" fill="white"/>
<path d="M1018.9 55.76C1025.42 58.77 1030.49 63.03 1034.08 68.54C1037.68 74.05 1039.47 80.43 1039.47 87.68C1039.47 94.93 1037.67 101.31 1034.08 106.82C1030.48 112.33 1025.42 116.58 1018.9 119.6C1012.37 122.61 1004.82 124.12 996.243 124.12H959.853V51.24H996.243C1004.82 51.24 1012.38 52.74 1018.9 55.76ZM997.743 106.19C1002.08 106.19 1005.86 105.44 1009.08 103.93C1012.3 102.43 1014.78 100.28 1016.51 97.49C1018.24 94.7 1019.11 91.44 1019.11 87.68C1019.11 83.92 1018.24 80.65 1016.51 77.87C1014.78 75.08 1012.3 72.94 1009.08 71.43C1005.86 69.93 1002.08 69.17 997.743 69.17H979.913V106.19H997.743Z" fill="white"/>
<path d="M1067.31 120.95C1060.77 117.78 1055.69 113.32 1052.08 107.57C1048.47 101.82 1046.66 95.19 1046.66 87.68C1046.66 80.17 1048.47 73.53 1052.08 67.79C1055.69 62.04 1060.77 57.58 1067.31 54.41C1073.85 51.23 1081.4 49.65 1089.95 49.65C1098.5 49.65 1106.05 51.24 1112.59 54.41C1119.13 57.58 1124.21 62.04 1127.82 67.79C1131.43 73.54 1133.24 80.17 1133.24 87.68C1133.24 95.19 1131.43 101.83 1127.82 107.57C1124.21 113.32 1119.13 117.78 1112.59 120.95C1106.05 124.12 1098.5 125.71 1089.95 125.71C1081.4 125.71 1073.85 124.12 1067.31 120.95ZM1069.81 98.31C1071.67 101.32 1074.33 103.64 1077.78 105.26C1081.23 106.88 1085.29 107.69 1089.95 107.69C1094.61 107.69 1098.67 106.88 1102.12 105.26C1105.57 103.64 1108.22 101.32 1110.09 98.31C1111.95 95.3 1112.88 91.75 1112.88 87.67C1112.88 83.59 1111.95 80.04 1110.09 77.03C1108.23 74.02 1105.57 71.7 1102.12 70.08C1098.67 68.46 1094.61 67.65 1089.95 67.65C1085.29 67.65 1081.23 68.46 1077.78 70.08C1074.33 71.7 1071.68 74.02 1069.81 77.03C1067.95 80.04 1067.02 83.59 1067.02 87.67C1067.02 91.75 1067.95 95.3 1069.81 98.31Z" fill="white"/>
<path d="M1211.4 51.24V69.17H1183.61V124.12H1163.45V69.17H1135.66V51.24H1211.4Z" fill="white"/>
<path d="M538.703 183.86L533.063 148.39H584.943C589.413 148.39 593.253 149.11 596.453 150.53C599.663 151.96 602.103 153.99 603.793 156.65C605.473 159.31 606.313 162.46 606.313 166.12C606.313 169.78 605.433 172.94 603.663 175.88C601.893 178.83 599.173 181.16 595.473 182.88C600.683 184.11 604.603 186.27 607.233 189.36C609.853 192.45 611.173 196.25 611.173 200.75C611.173 204.77 610.253 208.31 608.403 211.39C606.553 214.47 603.813 216.88 600.173 218.63C596.533 220.38 592.083 221.25 586.843 221.25H533.063L538.703 183.84V183.86ZM581.503 207.18C584.383 207.18 586.643 206.46 588.283 205.04C589.913 203.62 590.733 201.64 590.733 199.12C590.733 196.6 589.823 194.53 588.013 193.02C586.193 191.52 583.603 190.76 580.243 190.76H556.923L554.393 207.18H581.503ZM556.873 176.96H577.523C579.983 176.96 581.993 176.26 583.543 174.85C585.093 173.44 585.873 171.57 585.873 169.24C585.873 167.23 585.173 165.6 583.763 164.36C582.353 163.11 580.403 162.49 577.913 162.49H554.493L556.873 176.97V176.96Z" fill="white"/>
<path d="M641.213 203.35H686.683V221.28H621.053V148.41H641.213V203.36V203.35Z" fill="white"/>
<path d="M709.463 218.12C702.923 214.94 697.843 210.48 694.233 204.74C690.623 198.99 688.813 192.36 688.813 184.84C688.813 177.32 690.623 170.7 694.233 164.95C697.843 159.2 702.923 154.74 709.463 151.57C716.003 148.4 723.553 146.81 732.103 146.81C740.653 146.81 748.203 148.4 754.743 151.57C761.283 154.74 766.363 159.21 769.973 164.95C773.583 170.7 775.393 177.33 775.393 184.84C775.393 192.35 773.583 198.99 769.973 204.74C766.363 210.49 761.283 214.95 754.743 218.12C748.203 221.29 740.653 222.88 732.103 222.88C723.553 222.88 716.003 221.29 709.463 218.12ZM711.963 195.48C713.823 198.49 716.483 200.81 719.933 202.43C723.383 204.05 727.443 204.86 732.103 204.86C736.763 204.86 740.823 204.05 744.273 202.43C747.723 200.81 750.373 198.49 752.243 195.48C754.103 192.47 755.033 188.92 755.033 184.84C755.033 180.76 754.103 177.21 752.243 174.2C750.383 171.19 747.723 168.87 744.273 167.25C740.823 165.63 736.763 164.82 732.103 164.82C727.443 164.82 723.383 165.63 719.933 167.25C716.483 168.87 713.833 171.19 711.963 174.2C710.103 177.21 709.173 180.76 709.173 184.84C709.173 188.92 710.103 192.47 711.963 195.48Z" fill="white"/>
<path d="M860.113 207.6C856.423 212.44 851.543 216.2 845.493 218.87C839.433 221.54 832.583 222.88 824.943 222.88C816.553 222.88 809.153 221.29 802.743 218.12C796.333 214.94 791.363 210.48 787.853 204.74C784.343 198.99 782.583 192.36 782.583 184.84C782.583 177.32 784.343 170.7 787.853 164.95C791.363 159.2 796.333 154.74 802.743 151.57C809.153 148.4 816.553 146.81 824.943 146.81C832.583 146.81 839.433 148.14 845.493 150.81C851.543 153.48 856.423 157.24 860.113 162.08C863.803 166.92 866.003 172.53 866.723 178.91H846.463C845.493 174.31 843.143 170.71 839.423 168.12C835.693 165.53 830.853 164.24 824.893 164.24C820.393 164.24 816.503 165.07 813.213 166.74C809.923 168.41 807.403 170.79 805.633 173.88C803.863 176.97 802.983 180.62 802.983 184.83C802.983 189.04 803.863 192.69 805.633 195.79C807.393 198.88 809.923 201.26 813.213 202.93C816.503 204.6 820.393 205.43 824.893 205.43C830.913 205.43 835.783 204.18 839.493 201.66C843.203 199.15 845.523 195.51 846.463 190.76H866.723C866.013 197.14 863.813 202.75 860.113 207.59V207.6Z" fill="white"/>
<path d="M876.483 148.4H896.543V194.26L932.443 148.4H953.773L928.943 179.05L954.743 221.27H931.863L916.223 194.75L894.703 221.27H876.483V148.4Z" fill="white"/>
<path d="M1030.54 207.6C1026.85 212.44 1021.97 216.2 1015.92 218.87C1009.86 221.54 1003.01 222.88 995.373 222.88C986.983 222.88 979.583 221.29 973.173 218.12C966.763 214.94 961.793 210.48 958.283 204.74C954.773 198.99 953.013 192.36 953.013 184.84C953.013 177.32 954.773 170.7 958.283 164.95C961.793 159.2 966.763 154.74 973.173 151.57C979.583 148.4 986.983 146.81 995.373 146.81C1003.01 146.81 1009.86 148.14 1015.92 150.81C1021.97 153.48 1026.85 157.24 1030.54 162.08C1034.23 166.92 1036.43 172.53 1037.15 178.91H1016.89C1015.92 174.31 1013.57 170.71 1009.85 168.12C1006.12 165.53 1001.28 164.24 995.323 164.24C990.823 164.24 986.933 165.07 983.643 166.74C980.353 168.41 977.833 170.79 976.063 173.88C974.293 176.97 973.413 180.62 973.413 184.83C973.413 189.04 974.293 192.69 976.063 195.79C977.823 198.88 980.353 201.26 983.643 202.93C986.933 204.6 990.823 205.43 995.323 205.43C1001.34 205.43 1006.21 204.18 1009.92 201.66C1013.63 199.15 1015.95 195.51 1016.89 190.76H1037.15C1036.44 197.14 1034.24 202.75 1030.54 207.59V207.6Z" fill="white"/>
<path d="M1067.07 148.4V175.37H1104.33V148.4H1124.49V221.27H1104.33V193.14H1067.07V221.27H1046.91V148.4H1067.07Z" fill="white"/>
<path d="M1224.13 221.27H1202.66L1196.59 207.23H1158.94L1152.87 221.27H1131.35L1164.53 148.4H1191.01L1224.14 221.27H1224.13ZM1189.59 191.05L1177.73 163.75L1165.93 191.05H1189.59Z" fill="white"/>
<path d="M1251.14 148.4V221.27H1230.98V148.4H1251.14Z" fill="white"/>
<path d="M1264.69 148.4H1290.78L1326.05 198.44V148.4H1345.58V221.27H1320.22L1284.27 170.12V221.27H1264.69V148.4Z" fill="white"/>
<path d="M621.393 318.44H599.923L593.853 304.4H556.203L550.133 318.44H528.613L561.793 245.57H588.273L621.403 318.44H621.393ZM586.853 288.22L574.993 260.92L563.193 288.22H586.853Z" fill="white"/>
<path d="M698.243 304.76C694.553 309.61 689.673 313.36 683.623 316.03C677.563 318.7 670.713 320.04 663.073 320.04C654.683 320.04 647.283 318.45 640.873 315.28C634.463 312.11 629.493 307.65 625.983 301.9C622.473 296.15 620.713 289.52 620.713 282.01C620.713 274.5 622.473 267.86 625.983 262.12C629.493 256.37 634.463 251.91 640.873 248.74C647.283 245.56 654.683 243.98 663.073 243.98C670.713 243.98 677.563 245.31 683.623 247.99C689.673 250.66 694.553 254.42 698.243 259.26C701.933 264.11 704.133 269.71 704.853 276.09H684.593C683.623 271.49 681.273 267.9 677.553 265.31C673.823 262.72 668.983 261.42 663.023 261.42C658.523 261.42 654.633 262.26 651.343 263.92C648.053 265.59 645.533 267.97 643.763 271.06C641.993 274.15 641.113 277.8 641.113 282.02C641.113 286.24 641.993 289.88 643.763 292.98C645.523 296.07 648.053 298.45 651.343 300.12C654.633 301.79 658.523 302.63 663.023 302.63C669.043 302.63 673.913 301.37 677.623 298.86C681.333 296.35 683.653 292.71 684.593 287.95H704.853C704.143 294.33 701.943 299.94 698.243 304.78V304.76Z" fill="white"/>
<path d="M796.963 318.44H775.493L769.423 304.4H731.773L725.703 318.44H704.183L737.363 245.57H763.843L796.973 318.44H796.963ZM762.423 288.22L750.563 260.92L738.763 288.22H762.423Z" fill="white"/>
<path d="M862.863 250.08C869.383 253.09 874.453 257.35 878.043 262.86C881.643 268.37 883.433 274.75 883.433 282C883.433 289.25 881.633 295.63 878.043 301.14C874.443 306.65 869.383 310.9 862.863 313.92C856.333 316.93 848.783 318.44 840.203 318.44H803.813V245.57H840.203C848.783 245.57 856.343 247.07 862.863 250.09V250.08ZM841.703 300.51C846.043 300.51 849.823 299.76 853.043 298.25C856.263 296.75 858.743 294.6 860.473 291.81C862.203 289.02 863.073 285.76 863.073 282C863.073 278.24 862.203 274.97 860.473 272.19C858.743 269.4 856.263 267.26 853.043 265.75C849.823 264.25 846.043 263.49 841.703 263.49H823.873V300.51H841.703Z" fill="white"/>
<path d="M955.193 289.33H914.383L912.343 302.11H958.493V318.44H890.723L896.263 282L890.723 245.56H958.013V261.88H912.343L914.383 274.66H955.193V289.33Z" fill="white"/>
<path d="M1076.54 318.44H1057.4V263.16L1033.45 318.44H1013.09L989.193 263.4V318.44H970.003V245.57H1001.14L1023.34 298.86L1045.44 245.57H1076.53V318.44H1076.54Z" fill="white"/>
<path d="M1118.12 289.14L1083.97 245.56H1106.27L1128.13 273.45L1149.99 245.56H1172.29L1138.28 288.9V318.44H1118.12V289.15V289.14Z" fill="white"/>
<path d="M295.193 226.56V227.02C294.803 240.57 275.293 250.94 251.633 250.17C227.973 249.4 209.113 237.82 209.523 224.25L209.373 198.63L253.143 223.97L295.043 198.63L295.193 226.55V226.56Z" fill="white"/>
<path d="M252.283 229.53C249.313 229.53 246.343 228.73 243.693 227.14L169.673 182.56C166.393 180.59 164.433 177.12 164.433 173.3C164.433 169.47 166.383 166.01 169.673 164.03L243.693 119.45C248.993 116.26 255.573 116.26 260.873 119.45L334.893 164.03C338.173 166.01 340.133 169.47 340.133 173.3C340.133 177.13 338.173 180.59 334.893 182.56L260.873 227.14C258.223 228.73 255.253 229.53 252.283 229.53ZM249.423 217.63C251.193 218.7 253.383 218.69 255.153 217.63L328.773 173.29L255.153 128.95C253.383 127.88 251.193 127.89 249.423 128.95L175.803 173.29L249.423 217.63Z" fill="white"/>
<path d="M319.783 209.35C316.723 209.35 314.233 206.87 314.233 203.8V188.44L297.593 179.02C294.923 177.51 293.993 174.13 295.493 171.46C297.003 168.79 300.393 167.86 303.053 169.36L322.513 180.37C324.253 181.35 325.323 183.2 325.323 185.2V203.8C325.323 206.86 322.843 209.35 319.773 209.35H319.783Z" fill="white"/>
<path d="M319.783 232.58C324.201 232.58 327.783 228.998 327.783 224.58C327.783 220.162 324.201 216.58 319.783 216.58C315.365 216.58 311.783 220.162 311.783 224.58C311.783 228.998 315.365 232.58 319.783 232.58Z" fill="white"/>
<path d="M252.283 78.22C289.408 78.22 319.503 60.7099 319.503 39.11C319.503 17.5101 289.408 0 252.283 0C215.158 0 185.063 17.5101 185.063 39.11C185.063 60.7099 215.158 78.22 252.283 78.22Z" fill="white"/>
<path d="M252.283 372.82C289.408 372.82 319.503 355.31 319.503 333.71C319.503 312.11 289.408 294.6 252.283 294.6C215.158 294.6 185.063 312.11 185.063 333.71C185.063 355.31 215.158 372.82 252.283 372.82Z" fill="white"/>
<path d="M158.586 132.318C177.149 100.167 177.032 65.349 158.326 54.549C139.62 43.7491 109.408 61.0574 90.8458 93.2083C72.2836 125.359 72.4001 160.178 91.1061 170.977C109.812 181.777 140.024 164.469 158.586 132.318Z" fill="white"/>
<path d="M413.717 279.609C432.279 247.458 432.163 212.64 413.457 201.84C394.751 191.04 364.539 208.348 345.976 240.499C327.414 272.65 327.531 307.468 346.237 318.268C364.943 329.068 395.155 311.76 413.717 279.609Z" fill="white"/>
<path d="M158.33 318.273C177.036 307.473 177.152 272.654 158.59 240.504C140.027 208.353 109.816 191.044 91.1095 201.844C72.4035 212.644 72.287 247.463 90.8492 279.614C109.412 311.764 139.624 329.073 158.33 318.273Z" fill="white"/>
<path d="M413.459 170.972C432.165 160.172 432.282 125.354 413.719 93.203C395.157 61.0522 364.945 43.7438 346.239 54.5437C327.533 65.3437 327.416 100.162 345.979 132.313C364.541 164.464 394.753 181.772 413.459 170.972Z" fill="white"/>
</svg>
