<?xml version="1.0" encoding="UTF-8"?>
<svg width="166px" height="74px" viewBox="0 0 166 74" version="1.1" xmlns="http://www.w3.org/2000/svg" xmlns:xlink="http://www.w3.org/1999/xlink">
    <title>Group 24</title>
    <defs>
        <polygon id="path-1" points="0 0 11.6986404 0 11.6986404 18.3879539 0 18.3879539"></polygon>
        <polygon id="path-3" points="0 0 13.5526536 0 13.5526536 18.1376224 0 18.1376224"></polygon>
        <polygon id="path-5" points="0 0 55.5235472 0 55.5235472 33.0955789 0 33.0955789"></polygon>
    </defs>
    <g id="Web" stroke="none" stroke-width="1" fill="none" fill-rule="evenodd">
        <g id="DT_EuroRust-'23_vs.2d-Copy-2" transform="translate(-662.000000, -5384.000000)">
            <g id="Group-24" transform="translate(662.000000, 5384.000000)">
                <g id="Group-3" transform="translate(96.118793, 55.612046)">
                    <mask id="mask-2" fill="white">
                        <use xlink:href="#path-1"></use>
                    </mask>
                    <g id="Clip-2"></g>
                    <path d="M3.49668981,7.06175917 C3.49668981,8.19281407 3.68777468,9.08266418 4.07157763,9.73130949 C4.45374737,10.3815846 5.0776313,10.7059072 5.93832982,10.7059072 C6.47402074,10.7059072 6.92641826,10.6081215 7.29715557,10.41255 C7.66952609,10.2186084 7.96676922,9.93339999 8.19051817,9.55855471 L8.19051817,3.94402428 C7.96676922,3.55288138 7.66952609,3.24974562 7.29715557,3.03624679 C6.92641826,2.82111819 6.48218676,2.71355389 5.96282788,2.71355389 C5.10866218,2.71355389 4.48477824,3.0916587 4.08954287,3.84786832 C3.6943075,4.60407793 3.49668981,5.59171376 3.49668981,6.81077581 L3.49668981,7.06175917 Z M0,6.81077581 C0,4.77194343 0.445864698,3.12751347 1.33596089,1.87585618 C2.22605708,0.625828646 3.47219175,0 5.0776313,0 C5.80277389,0 6.44135666,0.161346448 6.99337962,0.484039343 C7.54376938,0.806732239 8.01413213,1.26795491 8.4061011,1.86444784 L8.65761452,0.239575029 L11.6986404,0.239575029 L11.6986404,12.7838539 C11.6986404,14.4885851 11.1613163,15.8494364 10.0883012,16.8647782 C9.013653,17.88012 7.53886976,18.3886058 5.66395155,18.3886058 C5.00903673,18.3886058 4.31492503,18.2989688 3.57998322,18.119695 C2.84667461,17.9404212 2.16726174,17.6943271 1.545011,17.3846723 L2.1917598,14.9351399 C2.75031557,15.1747149 3.30887135,15.3637673 3.86742712,15.5022971 C4.4259829,15.6424566 5.01720275,15.7109066 5.63945349,15.7109066 C6.49361919,15.7109066 7.13220196,15.4534042 7.5552018,14.9351399 C7.97820165,14.4168755 8.19051817,13.6965207 8.19051817,12.7724456 L8.19051817,11.9249693 C7.80671522,12.4106384 7.35595091,12.7805944 6.83659203,13.0348373 C6.31723316,13.2907099 5.72274689,13.4178314 5.05313324,13.4178314 C3.46402573,13.4178314 2.22605708,12.8343765 1.33596089,11.6674669 C0.445864698,10.5005572 0,8.96532131 0,7.06175917 L0,6.81077581 Z" id="Fill-1" fill="#FFFFFF" mask="url(#mask-2)"></path>
                </g>
                <path d="M111.033539,66.6882353 L112.709206,66.3296877 L112.709206,58.3128879 L110.853886,57.9543402 L110.853886,55.8519471 L115.965815,55.8519471 L116.122602,57.7392116 C116.424745,57.0710092 116.816714,56.5494853 117.295243,56.17464 C117.773772,55.7997947 118.329061,55.6123721 118.959478,55.6123721 C119.142397,55.6123721 119.336748,55.62704 119.539265,55.6547459 C119.743416,55.6824519 119.913269,55.7166769 120.048825,55.7557912 L119.678088,58.9338273 L118.240868,58.8979725 C117.729675,58.8979725 117.306675,58.997388 116.971869,59.1978487 C116.637062,59.3966797 116.380649,59.6786285 116.205896,60.045325 L116.205896,66.3296877 L117.881563,66.6882353 L117.881563,68.7792201 L111.033539,68.7792201 L111.033539,66.6882353 Z" id="Fill-4" fill="#FFFFFF"></path>
                <path d="M125.444768,62.4467795 C125.444768,63.6250975 125.652185,64.5719892 126.067018,65.2841953 C126.481852,65.9980311 127.153099,66.3533192 128.079126,66.3533192 C128.980654,66.3533192 129.642102,65.9947715 130.060202,65.2776762 C130.479936,64.5622107 130.688986,63.6169486 130.688986,62.4467795 L130.688986,62.1957961 C130.688986,61.0484436 130.476669,60.1129601 130.053669,59.387716 C129.63067,58.6641016 128.964322,58.3006647 128.054628,58.3006647 C127.144933,58.3006647 126.481852,58.6641016 126.067018,59.387716 C125.652185,60.1129601 125.444768,61.0484436 125.444768,62.1957961 L125.444768,62.4467795 Z M121.948078,62.1957961 C121.948078,60.2677875 122.488668,58.6885481 123.571483,57.4580777 C124.652664,56.2276073 126.147045,55.613187 128.054628,55.613187 C129.970376,55.613187 131.469657,56.2259775 132.550838,57.4531884 C133.632019,58.6787695 134.17261,60.2596387 134.17261,62.1957961 L134.17261,62.4467795 C134.17261,64.3910856 133.632019,65.9735846 132.550838,67.1959062 C131.469657,68.4182278 129.978542,69.0293886 128.079126,69.0293886 C126.155211,69.0293886 124.652664,68.4182278 123.571483,67.1959062 C122.488668,65.9735846 121.948078,64.3910856 121.948078,62.4467795 L121.948078,62.1957961 Z" id="Fill-6" fill="#FFFFFF"></path>
                <path d="M145.615001,67.1421241 C145.200167,67.7467658 144.687341,68.2128778 144.076522,68.5404599 C143.465704,68.8664124 142.769959,69.0293886 141.987655,69.0293886 C140.622296,69.0293886 139.552547,68.5942421 138.778409,67.7223194 C138.00427,66.8487669 137.617201,65.4928048 137.617201,63.6528034 L137.617201,58.3137028 L136.193047,57.9551551 L136.193047,55.8511322 L137.617201,55.8511322 L141.11389,55.8511322 L141.11389,63.6772498 C141.11389,64.6176226 141.270678,65.2923441 141.585886,65.7030441 C141.901095,66.1121144 142.369824,66.3174644 142.992075,66.3174644 C143.544098,66.3174644 144.020994,66.2278275 144.424395,66.0485537 C144.826163,65.8692799 145.15607,65.6134072 145.41085,65.2776762 L145.41085,58.3137028 L143.878905,57.9551551 L143.878905,55.8511322 L145.41085,55.8511322 L148.90754,55.8511322 L148.90754,66.3305025 L150.475416,66.6874204 L150.475416,68.7784052 L145.842016,68.7784052 L145.615001,67.1421241 Z" id="Fill-8" fill="#FFFFFF"></path>
                <g id="Group-12" transform="translate(152.447346, 55.612209)">
                    <mask id="mask-4" fill="white">
                        <use xlink:href="#path-3"></use>
                    </mask>
                    <g id="Clip-11"></g>
                    <path d="M10.0572704,6.81077581 C10.0572704,5.59171376 9.85311986,4.60407793 9.44645206,3.84786832 C9.03978426,3.0916587 8.41753353,2.71355389 7.57806666,2.71355389 C7.05217497,2.71355389 6.60304386,2.82111819 6.23230655,3.03461703 C5.85993603,3.24974562 5.56759251,3.55777066 5.35200958,3.95543261 L5.35200958,9.61885591 C5.56759251,9.98555238 5.85993603,10.2642417 6.23230655,10.4549239 C6.60304386,10.645606 7.06034099,10.741762 7.60256472,10.741762 C8.4485644,10.741762 9.06918193,10.4109203 9.46441731,9.74923687 C9.85965268,9.08918322 10.0572704,8.19281407 10.0572704,7.06175917 L10.0572704,6.81077581 Z M0,2.34196814 L0,0.239575029 L5.0759981,0.239575029 L5.24421811,1.74547521 C5.62802106,1.18809657 6.08531818,0.757839376 6.6210091,0.454703626 C7.15506682,0.151567875 7.77895075,0 8.4893945,0 C10.0932009,0 11.3377023,0.625828646 12.2245321,1.87585618 C13.1097287,3.12751347 13.5539602,4.77194343 13.5539602,6.81077581 L13.5539602,7.06175917 C13.5539602,8.97347012 13.1097287,10.5103358 12.2245321,11.6739859 C11.3377023,12.8360063 10.1013669,13.4178314 8.51225936,13.4178314 C7.83447969,13.4178314 7.23182741,13.2923397 6.70430251,13.0413563 C6.17841081,12.790373 5.7276465,12.4220467 5.35200958,11.9363776 L5.35200958,15.6750519 L7.04074254,16.0335995 L7.04074254,18.1376224 L0.179652442,18.1376224 L0.179652442,16.0335995 L1.8683854,15.6750519 L1.8683854,2.7005158 L0,2.34196814 Z" id="Fill-10" fill="#FFFFFF" mask="url(#mask-4)"></path>
                </g>
                <path d="M0.45076431,41.5928326 L4.66443069,40.6915741 L4.66443069,20.5411955 L0,19.6399371 L0,14.3546186 L12.8500492,14.3546186 L13.240385,19.0988561 C14.0030913,17.4185714 14.9862801,16.1066129 16.1899515,15.1662401 C17.3936228,14.2242376 18.7883791,13.7532364 20.372587,13.7532364 C20.8347837,13.7532364 21.3214785,13.7890912 21.8326714,13.8591709 C22.3438642,13.9292507 22.7701305,14.0139983 23.1114701,14.1150436 L22.1789106,22.1025076 L18.5678965,22.0128707 C17.2841982,22.0128707 16.2209823,22.2638541 15.3782491,22.7625613 C14.5355158,23.264528 13.8920334,23.9751043 13.4510683,24.8959199 L13.4510683,40.6915741 L17.6647347,41.5928326 L17.6647347,46.8488153 L0.45076431,46.8488153 L0.45076431,41.5928326 Z" id="Fill-13" fill="#FFFFFF"></path>
                <path d="M39.964829,20.5110449 C38.339791,20.5110449 37.0560927,21.1319843 36.1121008,22.3722333 C35.169742,23.614112 34.5883214,25.2455038 34.3678389,27.2680386 L34.4576651,27.4179767 L45.231912,27.4179767 L45.231912,26.6373207 C45.231912,24.7761324 44.7942133,23.2881596 43.9220824,22.1782916 C43.0499514,21.0667938 41.7303226,20.5110449 39.964829,20.5110449 M40.7471338,47.4787184 C36.0533054,47.4787184 32.3002026,45.9777075 29.4927249,42.9740559 C26.6819807,39.9704044 25.2790585,36.1567611 25.2790585,31.533126 L25.2790585,30.3319913 C25.2790585,25.5062658 26.6068534,21.5329058 29.2657095,18.4086518 C31.9245657,15.2860277 35.48985,13.7344941 39.964829,13.7538687 C44.3581479,13.7538687 47.7699111,15.0757883 50.1968522,17.7176327 C52.6237934,20.3611068 53.8388972,23.9351751 53.8388972,28.4398376 L53.8388972,33.2134107 L34.3972365,33.2134107 L34.336808,33.3943143 C34.496862,35.5374515 35.2138386,37.2992243 36.4893709,38.6796328 C37.76327,40.0616711 39.4928331,40.7526902 41.6796933,40.7526902 C43.6264725,40.7526902 45.2417112,40.5571188 46.5254096,40.1659759 C47.809108,39.7764627 49.2136634,39.1604126 50.739076,38.3194554 L53.1153878,43.7253763 C51.7712609,44.7863514 50.0318986,45.6778313 47.8940346,46.3981861 C45.7578037,47.118541 43.374959,47.4787184 40.7471338,47.4787184" id="Fill-15" fill="#FFFFFF"></path>
                <path d="M71.1128062,40.9922652 C72.4373347,40.9922652 73.641006,40.7070569 74.7238203,40.1366401 C75.8082678,39.5662234 76.651001,38.8507578 77.2520201,37.9886137 L77.2520201,33.0341369 L72.7672419,33.0341369 C70.9021229,33.0341369 69.4877682,33.4692834 68.5241778,34.3395763 C67.5622206,35.2114991 67.0804255,36.2578063 67.0804255,37.4784982 C67.0804255,38.5802173 67.4364639,39.4407317 68.1485409,40.0616711 C68.8606178,40.6826104 69.8487063,40.9922652 71.1128062,40.9922652 L71.1128062,40.9922652 Z M78.7268033,46.8480005 C78.4867223,46.3085492 78.2744058,45.7528003 78.0947534,45.1823836 C77.9134677,44.6103371 77.7730122,44.0350311 77.6733867,43.4548358 C76.6297694,44.6559704 75.3607698,45.6273086 73.8663882,46.3672206 C72.3720065,47.1087624 70.6620419,47.4787184 68.7348611,47.4787184 C65.5452137,47.4787184 63.0121142,46.6133147 61.137196,44.8808776 C59.2606446,43.1500703 58.3231855,40.7918045 58.3231855,37.8093399 C58.3231855,34.766574 59.5464553,32.4131975 61.9946281,30.75247 C64.4411678,29.0901126 68.0325834,28.258934 72.7672419,28.258934 L77.2520201,28.258934 L77.2520201,25.0760086 C77.2520201,23.5146965 76.8012558,22.3037833 75.898094,21.4416391 C74.9949321,20.5811247 73.6606045,20.1508675 71.8951109,20.1508675 C70.8923236,20.1508675 69.998961,20.2665806 69.2166563,20.4963771 C68.4343516,20.7261735 67.8023016,21.0016033 67.3205065,21.3226665 L66.748885,24.8054681 L60.1278759,24.8054681 L60.1589068,17.5986601 C61.7627132,16.516498 63.6049673,15.605461 65.6807696,14.865549 C67.7565719,14.1240073 70.0185595,13.7540513 72.4667323,13.7540513 C76.4991131,13.7540513 79.7753203,14.7400574 82.2920877,16.7120695 C84.8104883,18.6840816 86.0696886,21.4921617 86.0696886,25.1363098 L86.0696886,38.5590304 C86.0696886,39.0609972 86.0745882,39.5303686 86.0843875,39.9704044 C86.0941867,40.4120699 86.1301172,40.8325486 86.1905457,41.2318403 L88.8690003,41.5936475 L88.8690003,46.8480005 L78.7268033,46.8480005 Z" id="Fill-17" fill="#FFFFFF"></path>
                <polygon id="Fill-19" fill="#FFFFFF" points="90.914915 5.28531849 90.914915 0 104.397014 0 104.397014 40.6919001 108.640078 41.5931585 108.640078 46.8491413 91.3656793 46.8491413 91.3656793 41.5931585 95.6103766 40.6919001 95.6103766 6.18657693"></polygon>
                <g id="Group-23" transform="translate(110.476453, 13.753399)">
                    <mask id="mask-6" fill="white">
                        <use xlink:href="#path-5"></use>
                    </mask>
                    <g id="Clip-22"></g>
                    <path d="M0,5.8867007 L0,0.601382214 L12.8500492,0.601382214 L13.2109873,4.89580534 C14.2546047,3.33449325 15.5628011,2.1284693 17.138843,1.27773349 C18.7132517,0.42699767 20.5342742,0 22.6002773,0 C24.687512,0 26.472604,0.461222674 27.9571864,1.38203826 C29.4417689,2.30285385 30.5654133,3.69467068 31.3281195,5.55585899 C32.3309068,3.81527307 33.6358368,2.45279196 35.2412764,1.47167518 C36.8450827,0.492188154 38.7314334,0 40.8986951,0 C44.107941,0 46.6410404,1.10660847 48.4979934,3.3198254 C50.3533132,5.53141256 51.2809731,8.90013082 51.2809731,13.4243504 L51.2809731,26.9383377 L55.5240371,27.8395962 L55.5240371,33.0955789 L38.7020357,33.0955789 L38.7020357,27.8395962 L42.4927022,26.9383377 L42.4927022,13.3950147 C42.4927022,10.9324442 42.0925672,9.21956419 41.2890309,8.25963432 C40.4871277,7.29807468 39.2932556,6.81729486 37.7090477,6.81729486 C36.4645462,6.81729486 35.3866315,7.09272465 34.4736705,7.64358424 C33.5607094,8.19444383 32.8339337,8.96043202 32.2917099,9.9415488 C32.2917099,10.3212834 32.3015091,10.6472358 32.3211076,10.9161465 C32.340706,11.186687 32.3521385,11.4621168 32.3521385,11.7424359 L32.3521385,26.9383377 L35.902724,27.8395962 L35.902724,33.0955789 L20.0426798,33.0955789 L20.0426798,27.8395962 L23.5948985,26.9383377 L23.5948985,13.3950147 C23.5948985,10.9927454 23.1931303,9.29453325 22.3895939,8.30363789 C21.5876908,7.31274254 20.3840194,6.81729486 18.7785798,6.81729486 C17.5945069,6.81729486 16.5574224,7.04220203 15.6640598,7.49364613 C14.7706972,7.94346047 14.0341222,8.57906769 13.4527015,9.40046779 L13.4527015,26.9383377 L17.2450013,27.8395962 L17.2450013,33.0955789 L0.45076431,33.0955789 L0.45076431,27.8395962 L4.69546156,26.9383377 L4.69546156,6.78795914 L0,5.8867007 Z" id="Fill-21" fill="#FFFFFF" mask="url(#mask-6)"></path>
                </g>
            </g>
        </g>
    </g>
</svg>