<svg width="280" height="270" viewBox="0 0 280 270" fill="none" xmlns="http://www.w3.org/2000/svg">
<g clip-path="url(#clip0_36_2)">
<path d="M277.5 136.5L265.7 129.2C265.6 128.1 265.5 126.9 265.4 125.8L275.5 116.4C276.5 115.4 277 114 276.7 112.7C276.4 111.3 275.5 110.2 274.2 109.7L261.3 104.9C261 103.8 260.6 102.7 260.3 101.6L268.4 90.4C269.2 89.3 269.4 87.8 268.9 86.5C268.4 85.2 267.2 84.3 265.8 84.1L252.2 81.9C251.7 80.9 251.1 79.9 250.6 78.8L256.3 66.2C256.9 64.9 256.8 63.4 256 62.3C255.2 61.1 253.9 60.5 252.5 60.5L238.7 61C238 60.1 237.3 59.2 236.5 58.4L239.7 44.9C240 43.5 239.6 42.1 238.6 41.1C237.6 40.1 236.2 39.7 234.8 40L221.3 43.2C220.4 42.5 219.5 41.7 218.6 41L219.1 27.2C219.2 25.8 218.5 24.5 217.3 23.7C216.1 22.9 214.7 22.8 213.4 23.4L200.8 29.1C199.8 28.5 198.8 28 197.7 27.5L195.5 13.9C195.3 12.5 194.4 11.3 193.1 10.8C191.8 10.3 190.3 10.4 189.2 11.3L178 19.4C176.9 19 175.8 18.7 174.7 18.4L169.9 5.5C169.4 4.2 168.3 3.20001 166.9 2.90001C165.5 2.60001 164.1 3.10001 163.2 4.10001L153.8 14.2C152.7 14.1 151.5 14 150.4 13.9L143.1 2.10001C142.4 0.900006 141.1 0.200012 139.7 0.200012C138.3 0.200012 137 0.900006 136.3 2.10001L129 13.9C127.9 14 126.7 14.1 125.6 14.2L116.2 4.10001C115.2 3.10001 113.8 2.60001 112.5 2.90001C111.1 3.20001 110 4.1 109.5 5.5L104.7 18.4C103.6 18.7 102.5 19.1 101.4 19.4L90.2 11.3C89.1 10.5 87.6 10.3 86.3 10.8C85 11.3 84.1 12.5 83.9 13.9L81.7 27.5C80.7 28 79.7 28.6 78.6 29.1L66 23.4C64.7 22.8 63.2 22.9 62.1 23.7C60.9 24.5 60.3 25.8 60.3 27.2L60.8 41C59.9 41.7 59 42.4 58.1 43.2L44.6 40C43.2 39.7 41.8 40.1 40.8 41.1C39.8 42.1 39.4 43.5 39.7 44.9L42.9 58.4C42.2 59.3 41.4 60.2 40.7 61L26.9 60.5C25.5 60.5 24.2 61.1 23.4 62.3C22.6 63.5 22.5 64.9 23.1 66.2L28.8 78.8C28.2 79.8 27.7 80.8 27.2 81.9L13.6 84.1C12.2 84.3 11.1 85.2 10.5 86.5C10 87.8 10.1 89.3 11 90.4L19.1 101.6C18.7 102.7 18.4 103.8 18.1 104.9L5.20001 109.7C3.90001 110.2 2.90001 111.3 2.70001 112.7C2.40001 114.1 2.89999 115.5 3.89999 116.4L14 125.8C13.9 126.9 13.8 128.1 13.7 129.2L1.89999 136.5C0.699994 137.2 0 138.5 0 139.9C0 141.3 0.699994 142.6 1.89999 143.3L13.7 150.6C13.8 151.7 13.9 152.9 14 154L3.89999 163.4C2.89999 164.4 2.40001 165.8 2.70001 167.1C3.00001 168.5 3.90001 169.6 5.20001 170.1L18.1 174.9C18.4 176 18.8 177.1 19.1 178.2L11 189.4C10.2 190.5 10 192 10.5 193.3C11 194.6 12.2 195.5 13.6 195.7L23.9 197.4H125.9H144.2C145.1 197.4 145.8 197.2 145.8 196.4V169.1C145.8 168.2 145.2 168.1 144.2 168.1H121.7V149.3H143C145.4 149.3 155.9 150 159.3 163.4C160.4 167.5 162.7 180.9 164.2 185.2C165.3 188.6 168.8 194.4 173.2 197.5H255.6L265.9 195.8C267.3 195.6 268.5 194.7 269 193.4C269.5 192.1 269.4 190.6 268.5 189.5L260.4 178.3C260.7 177.2 261.1 176.1 261.4 175L274.3 170.2C275.6 169.7 276.6 168.6 276.8 167.2C277.1 165.8 276.6 164.4 275.6 163.5L265.5 154.1C265.6 153 265.7 151.8 265.8 150.7L277.6 143.4C278.8 142.7 279.5 141.4 279.5 140C279.4 138.5 278.7 137.2 277.5 136.5ZM133.3 27C136.6 23.8 141.9 23.9 145.1 27.3C148.3 30.6 148.1 35.9 144.8 39.1C141.5 42.3 136.2 42.2 133 38.8C129.8 35.4 129.9 30.2 133.3 27ZM32.3 111.6C30.4 107.4 32.3 102.5 36.5 100.6C40.7 98.7 45.6 100.6 47.5 104.8C49.4 109 47.5 113.9 43.3 115.8C39 117.7 34.1 115.8 32.3 111.6ZM73.2 167.1H41H37.1V128.3L37.7 128L48.2 123.4L55.6 120.1C59.4 118.4 61.2 113.9 59.5 110.1L55.8 101.8H73.2V167.1ZM148.3 121.7H121.4V102.4H150.8C152.6 102.4 163.4 104.5 163.4 112.5C163.4 119.2 155.1 121.7 148.3 121.7ZM241.8 146.6H241.5H231C229.9 146.6 229.5 147.3 229.5 148.3V153.1C229.5 164.4 223.1 166.9 217.5 167.5C212.2 168.1 206.2 165.3 205.5 162C202.3 144.3 197.1 140.5 188.8 134C199.1 127.5 209.8 117.8 209.8 104.9C209.8 91 200.3 82.2 193.7 77.9C184.6 71.9 174.5 70.7 171.7 70.7H63.2C77.9 54.3 97.9 42.6 120.4 38.4L133.2 51.8C136.1 54.8 140.9 54.9 143.9 52L158.2 38.3C188.2 43.9 213.6 62.6 228.3 88.2L218.5 110.3C216.8 114.1 218.5 118.6 222.4 120.3L241.3 128.7L241.8 128.9V146.6ZM245.7 112C243.8 116.2 238.9 118.1 234.7 116.2C230.5 114.3 228.6 109.4 230.5 105.2C232.4 101 237.3 99.1 241.5 101C245.7 102.9 247.6 107.8 245.7 112Z" fill="white"/>
<path d="M133.4 168.1V197.6H125.5H109.3V70.7H133.4V102.4H121.4V121.7H133.4V149.4H121.4V168.1H133.4ZM109.4 41.2C113 40.1 116.7 39.2 120.5 38.4L133.3 51.8C133.4 51.9 133.4 51.9 133.5 51.9V39.1C133.4 39 133.2 38.9 133.1 38.7C129.9 35.4 130.1 30.1 133.4 26.9C133.4 26.9 133.5 26.8 133.6 26.8V5.99999L128.9 13.6C127.8 13.7 126.6 13.8 125.5 13.9L116.1 3.8C115.1 2.8 113.7 2.3 112.4 2.6C111.2 2.8 110.2 3.7 109.6 4.8V41.2H109.4Z" fill="url(#paint0_linear_36_2)"/>
<path d="M73.2 197.6H37.1V167.1H41H73.2V197.6ZM42.6 58.2C41.9 59.1 41.1 60 40.4 60.8L37.1 60.7V100.4C38.6 99.9 40.2 99.8 41.7 100.1C41.7 100.1 41.7 100.1 41.8 100.1C42.3 100.2 42.7 100.3 43.2 100.5C43.3 100.5 43.4 100.6 43.4 100.6C43.8 100.8 44.1 101 44.5 101.2C44.7 101.3 44.8 101.4 44.9 101.5C45.2 101.7 45.4 101.9 45.7 102.1C45.9 102.3 46.1 102.5 46.3 102.8C46.4 103 46.6 103.1 46.7 103.3C47 103.7 47.3 104.2 47.5 104.7C49.4 108.9 47.5 113.8 43.3 115.7C42.8 115.9 42.3 116.1 41.7 116.2C41.3 116.3 40.9 116.3 40.5 116.4C40.4 116.4 40.3 116.4 40.2 116.4C39.2 116.4 38.1 116.3 37.2 115.9V128.1L37.8 127.8L48.3 123.2L55.7 119.9C58.1 118.8 59.7 116.7 60.1 114.3C60.3 113.3 60.3 112.3 60 111.4C59.9 110.9 59.7 110.4 59.5 109.9L55.8 101.6H73.2V70.6H63.2C64.7 68.9 66.2 67.4 67.8 65.8C67.9 65.7 68 65.6 68.2 65.4C69.8 63.8 71.5 62.3 73.2 60.8V26.5L65.6 23C64.3 22.4 62.8 22.5 61.7 23.3C60.8 23.9 60.2 24.8 60 25.8C59.9 26.1 59.9 26.5 59.9 26.8L60.1 33.7L60.3 40.6C59.4 41.3 58.5 42 57.6 42.8L44.1 39.6C43.8 39.5 43.4 39.5 43.1 39.5C42.1 39.5 41.1 39.9 40.3 40.7C40.1 40.9 39.8 41.2 39.7 41.5C39.4 42.1 39.2 42.8 39.1 43.4C39.1 43.7 39.1 44.1 39.2 44.4L42.6 58.2Z" fill="url(#paint1_linear_36_2)"/>
<path d="M85.3 11C85.5 10.9 85.7001 10.7 85.9001 10.6C87.2001 10.1 88.7 10.2 89.8 11.1L97.3 16.5V45.8C93.1 47.7 89.1 49.8 85.3 52.2V11ZM85.3 197.6H97.3V70.7H85.3V197.6Z" fill="url(#paint2_linear_36_2)"/>
<path d="M241.8 197.6H181.6V72.4C182.5 72.7 183.4 73 184.4 73.3C184.5 73.3 184.6 73.4 184.7 73.4C185.6 73.7 186.5 74.1 187.5 74.5C187.6 74.6 187.8 74.6 187.9 74.7C188.8 75.1 189.8 75.6 190.7 76.1C190.8 76.2 190.9 76.2 191 76.3C192 76.8 192.9 77.4 193.9 78C200.4 82.3 210 91.1 210 105C210 117.9 199.3 127.5 189 134.1C190 134.9 191 135.7 192 136.5C193.4 137.6 194.7 138.8 195.9 140C197.9 142 199.7 144.3 201.2 147.3C201.8 148.5 202.4 149.8 202.9 151.3C204 154.2 204.9 157.8 205.7 162.2C205.9 163 206.4 163.8 207.1 164.5C207.3 164.7 207.5 164.9 207.7 165C208.3 165.5 209.1 166 209.9 166.4C210.5 166.7 211.1 166.9 211.7 167.1C212.3 167.3 213 167.5 213.6 167.6C214.9 167.8 216.3 167.9 217.6 167.7C223.2 167.1 229.6 164.6 229.6 153.3V148.5C229.6 148.2 229.6 148 229.7 147.8C229.9 147.2 230.3 146.8 231.1 146.8H241.5H241.8V197.6ZM181.6 45.8C185.2 47.4 188.7 49.3 192 51.3C192.2 51.4 192.3 51.5 192.5 51.6C195.6 53.5 198.7 55.6 201.6 57.8C201.9 58 202.1 58.2 202.4 58.4C203.2 59 204 59.7 204.8 60.3C205.2 60.7 205.7 61 206.1 61.4C206.8 62 207.5 62.6 208.2 63.3C209.1 64.1 210 64.9 210.8 65.8C211.4 66.4 212.1 67.1 212.7 67.7C213.3 68.4 214 69 214.6 69.7C215.1 70.2 215.6 70.7 216 71.3C216.7 72.1 217.4 72.9 218.1 73.8C218.4 74.2 218.8 74.6 219.1 75C220.1 76.2 221 77.5 222 78.7C222.3 79.1 222.6 79.5 222.8 79.9C223.5 80.9 224.2 81.9 224.9 82.9C225.2 83.3 225.4 83.7 225.7 84.1C226.6 85.5 227.4 86.9 228.3 88.3L218.5 110.4C218.3 110.9 218.1 111.4 218 111.9C217.2 115.3 219 119 222.3 120.5L241.2 128.9L241.7 129.1V116.1C241.2 116.4 240.6 116.6 240.1 116.7C240.1 116.7 240.1 116.7 240 116.7C239.5 116.8 239 116.9 238.4 116.9C238.3 116.9 238.2 116.9 238.2 116.9C237.7 116.9 237.2 116.9 236.8 116.8C236.7 116.8 236.6 116.8 236.4 116.8C235.8 116.7 235.2 116.5 234.7 116.3C232.6 115.4 231.1 113.7 230.3 111.7C229.9 110.7 229.7 109.6 229.7 108.6C229.7 107.5 229.9 106.4 230.4 105.4C231.6 102.7 234 101 236.7 100.6C238.2 100.3 239.9 100.5 241.4 101.2C241.5 101.2 241.6 101.3 241.7 101.4V60.9L238.4 61C237.7 60.1 237 59.2 236.2 58.4L239.4 44.9C239.7 43.5 239.3 42.1 238.3 41.1C237.6 40.4 236.6 39.9 235.5 39.9C235.2 39.9 234.8 39.9 234.5 40L221 43.2C220.1 42.5 219.2 41.7 218.3 41L218.5 34.1L218.7 27.2C218.7 26.4 218.5 25.6 218.1 24.9C217.8 24.4 217.4 24 216.9 23.6C216.6 23.4 216.3 23.3 216 23.1C215 22.8 214 22.8 213 23.2L200.4 28.9C199.4 28.3 198.4 27.8 197.3 27.3L195.1 13.7C194.9 12.7 194.4 11.7 193.6 11.1C193.3 10.9 193 10.7 192.7 10.6C192.1 10.3 191.4 10.2 190.7 10.3C190 10.4 189.4 10.6 188.8 11L181.3 16.4V45.8H181.6Z" fill="url(#paint3_linear_36_2)"/>
<path d="M133.4 70.7H145.4V102.4H133.4V70.7ZM143.9 168.1H133.4V197.6H143.9C144.8 197.6 145.5 197.4 145.5 196.6V169.1C145.5 168.3 144.8 168.1 143.9 168.1ZM133.4 26.9C136.7 23.9 141.9 24 145 27.3C145.2 27.5 145.3 27.7 145.4 27.9V6.10001L142.8 1.90001C142.1 0.700009 140.8 0 139.4 0C138 0 136.7 0.700009 136 1.90001L133.4 6.10001V26.9ZM144.7 39C141.5 42 136.6 42 133.4 39.1V52C136.3 54.9 141 55 144 52.1L145.5 50.7V38.2C145.2 38.5 145 38.8 144.7 39ZM133.4 121.7V149.4H142.7C143.3 149.4 144.2 149.4 145.4 149.7V121.7H133.4Z" fill="url(#paint4_linear_36_2)"/>
<path d="M169.5 70.7V194.5C166.8 191.5 164.7 187.7 163.9 185.3C162.3 181 160 167.6 159 163.5C156.4 153.1 149.6 150.4 145.5 149.7V121.7H148.3C155.1 121.7 163.4 119.3 163.4 112.6C163.4 104.5 152.6 102.5 150.8 102.5H145.5V70.8H169.5V70.7ZM145.5 27.8C147.9 30.8 147.9 35.1 145.5 38.2V50.7L158.3 38.4C162.1 39.1 165.9 40 169.5 41.2V4.8C168.9 3.7 167.9 2.90001 166.7 2.70001C165.3 2.40001 163.9 2.9 163 3.9L153.6 14C152.5 13.9 151.3 13.8 150.2 13.7L145.5 6.1V27.8Z" fill="url(#paint5_linear_36_2)"/>
<path d="M109.36 269.157H121.397V221.015H133.429V208.978H109.36V221.015V269.157Z" fill="white"/>
<path d="M145.466 220.985H133.429V257.124H145.466V220.985Z" fill="white"/>
<path d="M73.221 269.157V257.124H49.1521V208.978H37.0862V257.124V269.157H49.1521H73.221Z" fill="white"/>
<path d="M97.3067 208.94H85.2701V245.08H97.3067V208.94Z" fill="white"/>
<path d="M97.3067 257.145H85.2701V269.182H97.3067V257.145Z" fill="white"/>
<path d="M169.539 257.124V208.978H157.502V257.124H145.465V269.157H157.502H169.539V257.124Z" fill="white"/>
<path d="M229.746 221.015V233.051H241.812V208.978H229.746H181.604V221.015H229.746Z" fill="white"/>
<path d="M229.784 233.056H193.645V245.092H229.784V233.056Z" fill="white"/>
<path d="M241.812 269.157V257.124H193.641V245.088H181.604V257.124V269.157H193.641H241.812Z" fill="white"/>
</g>
<defs>
<linearGradient id="paint0_linear_36_2" x1="121.392" y1="197.583" x2="121.392" y2="2.56131" gradientUnits="userSpaceOnUse">
<stop stop-color="white" stop-opacity="0.8"/>
<stop offset="0.8" stop-color="white" stop-opacity="0"/>
</linearGradient>
<linearGradient id="paint1_linear_36_2" x1="55.1508" y1="197.583" x2="55.1508" y2="22.8554" gradientUnits="userSpaceOnUse">
<stop stop-color="white" stop-opacity="0.8"/>
<stop offset="0.8" stop-color="white" stop-opacity="0"/>
</linearGradient>
<linearGradient id="paint2_linear_36_2" x1="91.2852" y1="197.583" x2="91.2852" y2="10.2938" gradientUnits="userSpaceOnUse">
<stop stop-color="white" stop-opacity="0.8"/>
<stop offset="0.8" stop-color="white" stop-opacity="0"/>
</linearGradient>
<linearGradient id="paint3_linear_36_2" x1="211.704" y1="197.583" x2="211.704" y2="10.2957" gradientUnits="userSpaceOnUse">
<stop stop-color="white" stop-opacity="0.8"/>
<stop offset="0.8" stop-color="white" stop-opacity="0"/>
</linearGradient>
<linearGradient id="paint4_linear_36_2" x1="139.444" y1="197.583" x2="139.444" y2="-0.0499936" gradientUnits="userSpaceOnUse">
<stop stop-color="white" stop-opacity="0.8"/>
<stop offset="0.8" stop-color="white" stop-opacity="0"/>
</linearGradient>
<linearGradient id="paint5_linear_36_2" x1="157.498" y1="194.527" x2="157.498" y2="2.56131" gradientUnits="userSpaceOnUse">
<stop stop-color="white" stop-opacity="0.8"/>
<stop offset="0.8" stop-color="white" stop-opacity="0"/>
</linearGradient>
<clipPath id="clip0_36_2">
<rect width="279.5" height="269.182" fill="white"/>
</clipPath>
</defs>
</svg>
