<?xml version="1.0" encoding="UTF-8"?>
<svg width="385px" height="128px" viewBox="0 0 385 128" version="1.1" xmlns="http://www.w3.org/2000/svg" xmlns:xlink="http://www.w3.org/1999/xlink">
    <title>Group 3@2x</title>
    <defs>
        <polygon id="path-1" points="0 0 385 0 385 128 0 128"></polygon>
    </defs>
    <g id="Web" stroke="none" stroke-width="1" fill="none" fill-rule="evenodd">
        <g id="DT_EuroRust-'23_vs.2d-Copy-2" transform="translate(-553.000000, -5106.000000)">
            <g id="Group-3" transform="translate(553.000000, 5106.000000)">
                <mask id="mask-2" fill="white">
                    <use xlink:href="#path-1"></use>
                </mask>
                <g id="Clip-2"></g>
                <path d="M384.879027,93.9483582 L376.716357,93.9483582 L376.716357,81.2101452 C376.716357,80.107589 376.472429,79.2502667 375.984573,78.7597987 C375.496716,78.2693306 374.887887,78.0240966 374.279058,78.0240966 C373.547274,78.0240966 372.817472,78.2693306 372.085688,78.8814188 C371.355886,79.4955008 370.747057,80.2292091 370.380174,81.2101452 L370.380174,93.9483582 L362.217503,93.9483582 L362.217503,71.2871391 L369.527416,71.2871391 L369.527416,74.5948078 C370.380174,73.3706314 371.476859,72.3896953 372.938445,71.7776071 C374.402014,71.1655189 376.107528,70.7986648 378.056971,70.7986648 C379.639529,70.7986648 380.85917,71.0438988 381.711927,71.655987 C382.564684,72.2680752 383.294486,72.8801634 383.782342,73.7374856 C384.270199,74.5948078 384.514127,75.45213 384.758055,76.4330661 C384.879027,77.4120084 385,78.2693306 385,79.0050327 L385,93.9483582 L384.879027,93.9483582 Z M342.967007,82.5579354 C342.967007,84.0273458 343.333891,85.2515222 344.063693,86.1088444 C344.795477,86.9661666 345.769207,87.4566347 346.988848,87.4566347 C348.206506,87.4566347 349.059263,86.9661666 349.91202,86.1088444 C350.643805,85.2515222 351.008705,84.0273458 351.008705,82.5579354 C351.008705,81.0865313 350.643805,79.8623549 349.91202,79.0050327 C349.180235,78.1477105 348.206506,77.6572425 346.988848,77.6572425 C345.769207,77.6572425 344.91645,78.1477105 344.063693,79.0050327 C343.333891,79.8623549 342.967007,81.0865313 342.967007,82.5579354 L342.967007,82.5579354 Z M346.988848,94.4388262 C344.91645,94.4388262 343.210936,94.0699783 341.626394,93.4578901 C340.043835,92.8458019 338.824195,91.9884797 337.729492,90.8859235 C336.632807,89.7833673 335.901022,88.5591909 335.413166,87.0897805 C334.92531,85.6183764 334.560409,84.148966 334.560409,82.6795556 C334.560409,81.0865313 334.804337,79.6171209 335.413166,78.2693306 C335.901022,76.7999202 336.75378,75.5757439 337.729492,74.4731877 C338.703222,73.3706314 340.043835,72.5133092 341.626394,71.901221 C343.210936,71.2871391 344.91645,70.9202849 346.988848,70.9202849 C348.93829,70.9202849 350.764777,71.2871391 352.349319,71.901221 C353.931877,72.5133092 355.151518,73.3706314 356.248204,74.4731877 C357.344889,75.5757439 358.07469,76.7999202 358.562547,78.2693306 C359.050403,79.7407348 359.415304,81.2101452 359.415304,82.6795556 C359.415304,84.2725799 359.171376,85.7419903 358.562547,87.0897805 C358.07469,88.5591909 357.221933,89.7833673 356.248204,90.8859235 C355.151518,91.9884797 353.931877,92.8458019 352.349319,93.4578901 C350.764777,94.0699783 348.93829,94.4388262 346.988848,94.4388262 L346.988848,94.4388262 Z M323.595539,93.9483582 L331.758209,93.9483582 L331.758209,71.2871391 L323.595539,71.2871391 L323.595539,93.9483582 Z M323.595539,69.3272606 L331.758209,69.3272606 L331.758209,62.468683 L323.595539,62.468683 L323.595539,69.3272606 Z M321.281196,92.7241818 C320.184511,93.2126561 318.96487,93.581504 317.626239,93.9483582 C316.285626,94.3152123 315.067968,94.4388262 313.727355,94.4388262 C312.751642,94.4388262 311.898885,94.3152123 311.169083,94.0699783 C310.316326,93.826738 309.584542,93.4578901 308.975713,92.9694158 C308.366884,92.4789478 307.879027,91.7432457 307.514127,90.8859235 C307.147243,90.0286013 307.02627,89.049659 307.02627,87.8234888 L307.02627,77.4120084 L304.224071,77.4120084 L304.224071,71.2871391 L307.02627,71.2871391 L307.02627,64.1833274 L315.188941,64.1833274 L315.188941,71.2871391 L319.575682,71.2871391 L319.575682,77.4120084 L315.188941,77.4120084 L315.188941,84.884668 C315.188941,85.6183764 315.309913,86.1088444 315.676797,86.4756986 C316.041698,86.7209326 316.406599,86.9661666 317.017411,86.9661666 C317.382311,86.9661666 317.870168,86.8445465 318.356041,86.7209326 C318.843897,86.5993125 319.331754,86.3540784 319.940583,86.2324583 L321.281196,92.7241818 Z M288.993432,88.5591909 C289.481289,88.5591909 289.969145,88.435577 290.457002,88.3139569 C290.942875,88.1923367 291.430731,87.9471027 291.795632,87.7018687 C292.162516,87.4566347 292.406444,87.2114006 292.527416,86.9661666 C292.771345,86.7209326 292.771345,86.3540784 292.771345,86.1088444 L292.771345,84.3942 C292.283488,84.2725799 291.795632,84.0273458 291.186803,83.9037319 C290.577974,83.7821118 290.090118,83.7821118 289.604244,83.7821118 C288.628532,83.7821118 287.775775,84.0273458 287.166946,84.5158201 C286.558117,85.0062882 286.191233,85.6183764 286.191233,86.3540784 C286.191233,86.9661666 286.435161,87.4566347 286.923017,87.9471027 C287.410874,88.435577 288.263631,88.5591909 288.993432,88.5591909 L288.993432,88.5591909 Z M286.558117,94.4388262 C285.461431,94.4388262 284.364746,94.1935922 283.389033,93.826738 C282.415304,93.4578901 281.562547,92.9694158 280.830762,92.2337138 C280.100961,91.6216256 279.613104,90.7643034 279.125248,89.9069812 C278.637392,89.049659 278.516419,88.0687228 278.516419,86.9661666 C278.516419,85.8636104 278.760347,84.7610541 279.248204,83.7821118 C279.734077,82.8011757 280.465861,82.0674674 281.318618,81.3317653 C282.171376,80.598057 283.145105,80.107589 284.364746,79.738741 C285.582404,79.3718869 286.802045,79.1266528 288.263631,79.1266528 C290.090118,79.1266528 291.551704,79.3718869 292.771345,79.9839751 L292.771345,79.2502667 C292.771345,78.1477105 292.406444,77.4120084 291.795632,76.9215404 C291.186803,76.4330661 290.213073,76.1878321 288.87246,76.1878321 C287.531846,76.1878321 286.435161,76.4330661 285.338476,76.7999202 C284.241791,77.1667744 283.145105,77.7808564 281.927447,78.6381786 L279.613104,73.4922515 C282.536276,71.5323731 285.947305,70.5534308 289.725217,70.5534308 C293.380174,70.5534308 296.061401,71.410753 298.010843,73.0037773 C299.960285,74.5948078 300.934015,77.0451543 300.934015,80.2292091 L300.934015,84.639434 C300.934015,85.3751361 301.054988,85.9872243 301.298916,86.2324583 C301.542844,86.4756986 301.909728,86.7209326 302.518557,86.7209326 L302.518557,93.581504 C301.909728,93.7031241 301.177943,93.826738 300.690087,93.9483582 C300.20223,94.0699783 299.593401,94.0699783 299.105545,94.0699783 C297.643959,94.0699783 296.547274,93.826738 295.817472,93.2126561 C295.085688,92.7241818 294.597831,91.8668596 294.355886,90.8859235 L294.232931,90.0286013 C293.259201,91.3763916 292.03956,92.3553339 290.698947,92.9694158 C289.360316,93.581504 288.140675,94.4388262 286.558117,94.4388262 Z M263.043835,87.4566347 C264.505421,87.4566347 265.846035,86.7209326 266.94272,85.1299021 L266.94272,81.0865313 C266.575836,80.107589 265.967007,79.2502667 265.235223,78.6381786 C264.505421,78.0240966 263.652664,77.6572425 262.799907,77.6572425 C262.191078,77.6572425 261.703222,77.7808564 261.094393,78.0240966 C260.606537,78.2693306 260.11868,78.6381786 259.75378,79.1266528 C259.388879,79.6171209 259.144951,80.107589 258.901022,80.7196771 C258.657094,81.3317653 258.536122,81.9438535 258.536122,82.6795556 C258.536122,84.148966 258.901022,85.2515222 259.75378,86.1088444 C260.606537,86.9661666 261.703222,87.4566347 263.043835,87.4566347 L263.043835,87.4566347 Z M260.850465,94.4388262 C259.265923,94.4388262 257.92531,94.1935922 256.586679,93.581504 C255.246066,92.9694158 254.149381,92.2337138 253.173668,91.1311575 C252.199938,90.0286013 251.468154,88.8044249 250.98228,87.3330208 C250.494424,85.8636104 250.12754,84.2725799 250.12754,82.5579354 C250.12754,80.8412973 250.371468,79.3718869 250.859325,77.9024765 C251.347181,76.4330661 252.076983,75.206896 252.92974,74.2279536 C253.78448,73.1253974 254.879182,72.3896953 256.098823,71.7776071 C257.316481,71.1655189 258.657094,70.9202849 260.11868,70.9202849 C261.580266,70.9202849 262.92088,71.2871391 264.140521,71.901221 C265.358179,72.5133092 266.331908,73.4922515 266.94272,74.7184217 L266.94272,62.468683 L275.105391,62.468683 L275.105391,84.884668 C275.105391,85.6183764 275.226363,86.2324583 275.470291,86.4756986 C275.714219,86.7209326 276.07912,86.9661666 276.687949,86.9661666 L276.687949,93.826738 C275.226363,94.0699783 274.129678,94.3152123 273.276921,94.3152123 C270.474721,94.3152123 268.892163,93.2126561 268.525279,91.1311575 L268.404306,90.2738353 C267.672522,91.6216256 266.575836,92.6005679 265.235223,93.33627 C263.773637,94.0699783 262.312051,94.4388262 260.850465,94.4388262 Z M247.448296,93.9483582 L239.285626,93.9483582 L239.285626,81.2101452 C239.285626,80.107589 239.041698,79.2502667 238.553841,78.7597987 C238.065985,78.2693306 237.457156,78.0240966 236.848327,78.0240966 C236.116543,78.0240966 235.386741,78.2693306 234.654957,78.8814188 C233.925155,79.4955008 233.314343,80.2292091 232.949442,81.2101452 L232.949442,93.9483582 L224.786772,93.9483582 L224.786772,71.2871391 L232.096685,71.2871391 L232.096685,74.5948078 C232.949442,73.3706314 234.046128,72.3896953 235.507714,71.7776071 C236.9693,71.1655189 238.676797,70.7986648 240.626239,70.7986648 C242.208798,70.7986648 243.428439,71.0438988 244.281196,71.655987 C245.133953,72.2680752 245.863755,72.8801634 246.351611,73.7374856 C246.839467,74.5948078 247.083396,75.45213 247.325341,76.4330661 C247.448296,77.4120084 247.569269,78.2693306 247.569269,79.0050327 L247.569269,93.9483582 L247.448296,93.9483582 Z M204.195663,94.4388262 C201.88132,94.4388262 200.175805,93.7031241 198.958148,92.3553339 C197.738507,91.0095374 197.129678,88.9260451 197.129678,86.2324583 L197.129678,71.2871391 L205.292348,71.2871391 L205.292348,84.3942 C205.292348,85.3751361 205.536276,86.2324583 205.901177,86.7209326 C206.268061,87.2114006 206.997862,87.5782548 207.729647,87.5782548 C208.338476,87.5782548 208.947305,87.4566347 209.679089,87.0897805 C210.287918,86.8445465 211.019703,86.1088444 211.628532,85.2515222 L211.628532,71.2871391 L219.791202,71.2871391 L219.791202,84.884668 C219.791202,85.6183764 219.912175,86.2324583 220.156103,86.4756986 C220.400031,86.7209326 220.766915,86.9661666 221.375744,86.9661666 L221.375744,93.826738 C219.912175,94.0699783 218.817472,94.3152123 217.964715,94.3152123 C215.162516,94.3152123 213.577974,93.2126561 213.213073,91.1311575 L213.090118,90.2738353 C211.993432,91.7432457 210.775775,92.7241818 209.314189,93.33627 C207.729647,94.0699783 206.145105,94.4388262 204.195663,94.4388262 Z M178.12311,82.5579354 C178.12311,84.0273458 178.488011,85.2515222 179.219796,86.1088444 C179.95158,86.9661666 180.92531,87.4566347 182.144951,87.4566347 C183.362608,87.4566347 184.215366,86.9661666 185.068123,86.1088444 C185.799907,85.2515222 186.164808,84.0273458 186.164808,82.5579354 C186.164808,81.0865313 185.799907,79.8623549 185.068123,79.0050327 C184.336338,78.1477105 183.362608,77.6572425 182.144951,77.6572425 C180.92531,77.6572425 180.072553,78.1477105 179.219796,79.0050327 C178.488011,79.8623549 178.12311,81.0865313 178.12311,82.5579354 L178.12311,82.5579354 Z M182.144951,94.4388262 C180.072553,94.4388262 178.367038,94.0699783 176.782497,93.4578901 C175.199938,92.8458019 173.980297,91.9884797 172.883612,90.8859235 C171.78891,89.7833673 171.057125,88.5591909 170.569269,87.0897805 C170.081412,85.6183764 169.716512,84.148966 169.716512,82.6795556 C169.716512,81.0865313 169.96044,79.6171209 170.569269,78.2693306 C171.057125,76.7999202 171.909882,75.5757439 172.883612,74.4731877 C173.859325,73.3706314 175.199938,72.5133092 176.782497,71.901221 C178.367038,71.2871391 180.072553,70.9202849 182.144951,70.9202849 C184.09241,70.9202849 185.92088,71.2871391 187.505421,71.901221 C189.08798,72.5133092 190.307621,73.3706314 191.404306,74.4731877 C192.500992,75.5757439 193.230793,76.7999202 193.718649,78.2693306 C194.206506,79.7407348 194.571406,81.2101452 194.571406,82.6795556 C194.571406,84.2725799 194.327478,85.7419903 193.718649,87.0897805 C193.230793,88.5591909 192.378036,89.7833673 191.404306,90.8859235 C190.307621,91.9884797 189.08798,92.8458019 187.505421,93.4578901 C185.92088,94.0699783 184.215366,94.4388262 182.144951,94.4388262 L182.144951,94.4388262 Z M148.639529,93.9483582 L148.639529,63.3260052 L169.595539,63.3260052 L169.595539,70.6750509 L157.046128,70.6750509 L157.046128,75.8209779 L167.279213,75.8209779 L167.279213,82.6795556 L157.046128,82.6795556 L157.046128,94.0699783 L148.639529,94.0699783 L148.639529,93.9483582 Z M241.112113,54.8744032 C240.015427,55.3648713 238.79777,55.7317254 237.457156,56.0985796 C236.116543,56.4674275 234.898885,56.5890476 233.558271,56.5890476 C232.584542,56.5890476 231.731785,56.4674275 231,56.2221935 C230.147243,55.9769595 229.415458,55.6101053 228.806629,55.1196373 C228.1978,54.6291692 227.709944,53.8954609 227.345043,53.0381387 C226.980143,52.1808165 226.857187,51.1998804 226.857187,49.975704 L226.857187,39.5642236 L224.054988,39.5642236 L224.054988,33.4393543 L226.857187,33.4393543 L226.857187,26.3355426 L235.019857,26.3355426 L235.019857,33.4393543 L239.406599,33.4393543 L239.406599,39.5642236 L235.019857,39.5642236 L235.019857,47.0348895 C235.019857,47.7705915 235.142813,48.2610596 235.507714,48.6279138 C235.874598,48.8731478 236.239498,49.1183818 236.848327,49.1183818 C237.213228,49.1183818 237.701084,48.9947679 238.188941,48.8731478 C238.676797,48.7495339 239.16267,48.5042999 239.771499,48.3826797 L241.112113,54.8744032 Z M213.334046,56.5890476 C211.384603,56.5890476 209.435161,56.2221935 207.485719,55.6101053 C205.536276,54.9980171 203.951735,54.017081 202.734077,52.7929047 L205.536276,47.8922117 C206.997862,48.8731478 208.338476,49.6068561 209.556134,50.0973241 C210.896747,50.5877922 211.993432,50.8330262 213.090118,50.8330262 C214.186803,50.8330262 214.795632,50.4641783 214.795632,49.73047 C214.795632,49.3636158 214.551704,48.9947679 214.186803,48.7495339 C213.698947,48.5042999 212.84619,48.1374457 211.628532,47.7705915 C210.04399,47.2801235 208.703377,46.9132693 207.608674,46.4228013 C206.511989,45.9323332 205.659232,45.4438589 205.04842,44.9533909 C204.318618,44.4629228 203.951735,43.8508347 203.586834,43.2387465 C203.342906,42.6266583 203.098978,41.8909562 203.098978,41.033634 C203.098978,39.9310778 203.342906,38.8285215 203.830762,37.8495792 C204.318618,36.8686431 204.927447,36.0113209 205.780204,35.2756188 C206.632962,34.5419105 207.608674,34.0514424 208.703377,33.5609744 C209.800062,33.0725001 211.019703,32.9488862 212.358333,32.9488862 C214.06583,32.9488862 215.648389,33.1941202 217.109975,33.5609744 C218.573544,34.0514424 220.156103,34.9087647 221.619672,36.1349348 L218.573544,41.033634 C217.109975,40.0526979 216.015273,39.4406097 215.03956,39.0737556 C214.06583,38.7069014 213.213073,38.4616674 212.358333,38.4616674 C211.87246,38.4616674 211.505576,38.5832875 211.140675,38.7069014 C210.775775,38.9521354 210.652819,39.1953757 210.652819,39.5642236 C210.652819,40.0526979 210.896747,40.2979319 211.384603,40.6667799 C211.87246,40.9100201 212.725217,41.278868 214.06583,41.6457222 C215.648389,42.1361902 217.109975,42.5030444 218.20666,42.9935125 C219.303346,43.4839805 220.156103,43.9724548 220.887887,44.5865367 C221.619672,45.1986249 221.984573,45.8107131 222.349473,46.4228013 C222.593401,47.1585034 222.83733,47.8922117 222.83733,48.8731478 C222.83733,50.0973241 222.593401,51.0782602 222.228501,52.0572026 C221.861617,53.0381387 221.131815,53.771847 220.400031,54.3839352 C219.547274,54.9980171 218.573544,55.6101053 217.476859,55.8553393 C216.136245,56.3438136 214.795632,56.5890476 213.334046,56.5890476 L213.334046,56.5890476 Z M183.483581,56.5890476 C181.169238,56.5890476 179.463724,55.8553393 178.246066,54.5075491 C177.026425,53.1597588 176.417596,51.0782602 176.417596,48.3826797 L176.417596,33.4393543 L184.580266,33.4393543 L184.580266,46.5464152 C184.580266,47.5253575 184.824195,48.3826797 185.189095,48.8731478 C185.676952,49.3636158 186.285781,49.73047 187.017565,49.73047 C187.626394,49.73047 188.235223,49.6068561 188.967007,49.2400019 C189.575836,48.9947679 190.307621,48.2610596 190.91645,47.4037374 L190.91645,33.4393543 L199.07912,33.4393543 L199.07912,47.0348895 C199.07912,47.7705915 199.200093,48.3826797 199.444021,48.6279138 C199.687949,48.8731478 200.054833,49.1183818 200.663662,49.1183818 L200.663662,55.9769595 C199.200093,56.2221935 198.105391,56.4674275 197.252633,56.4674275 C194.450434,56.4674275 192.865892,55.3648713 192.500992,53.2813789 L192.378036,52.4240567 C191.281351,53.8954609 190.063693,54.8744032 188.602107,55.4864914 C187.138538,56.2221935 185.433023,56.5890476 183.483581,56.5890476 L183.483581,56.5890476 Z M157.046128,39.3189896 L162.285626,39.3189896 C162.771499,39.3189896 163.259356,39.0737556 163.747212,38.4616674 C164.235068,37.8495792 164.356041,37.1138771 164.356041,36.0113209 C164.356041,34.9087647 164.112113,34.1750563 163.624256,33.5609744 C163.138383,32.9488862 162.650527,32.7036522 162.041698,32.7036522 L156.923172,32.7036522 L156.923172,39.3189896 L157.046128,39.3189896 Z M148.639529,56.0985796 L148.639529,25.4782204 L162.650527,25.4782204 C164.112113,25.4782204 165.452726,25.8450745 166.79334,26.4571627 C168.010998,27.0692509 169.107683,27.9265731 170.081412,28.9075092 C171.057125,29.8864515 171.665954,30.9890078 172.15381,32.336798 C172.641667,33.5609744 172.883612,34.9087647 172.883612,36.2565549 C172.883612,38.0928195 172.518711,39.6858437 171.665954,41.278868 C170.93417,42.8698986 169.839467,44.0960687 168.498854,45.075011 L174.95601,56.3438136 L165.573699,56.3438136 L160.213228,46.9132693 L157.046128,46.9132693 L157.046128,56.3438136 L148.639529,56.3438136 L148.639529,56.0985796 Z M108.676952,53.526613 C106.606537,53.526613 104.899039,51.8119686 104.899039,49.73047 C104.899039,47.6469776 106.606537,45.9323332 108.676952,45.9323332 L108.797924,45.9323332 C110.870322,45.9323332 112.452881,47.6469776 112.452881,49.73047 C112.452881,51.8119686 110.747367,53.526613 108.676952,53.526613 L108.676952,53.526613 Z M59.6989466,15.06674 C59.6989466,12.9832476 61.4044608,11.2686032 63.4748757,11.2686032 L63.5978314,11.2686032 C65.6682463,11.2686032 67.252788,12.9832476 67.252788,15.06674 C67.252788,17.1482385 65.5472738,18.862883 63.4748757,18.862883 C61.4044608,18.862883 59.6989466,17.1482385 59.6989466,15.06674 L59.6989466,15.06674 Z M99.1736678,76.6783001 C96.736369,76.9215404 94.0571252,75.697364 93.6902413,74.1043397 C92.2286553,66.0215857 89.9143122,64.3069413 86.1363999,61.2445066 C90.7670693,58.3036921 95.6396837,53.8954609 95.6396837,47.8922117 C95.6396837,41.5241021 91.2549257,37.4807313 88.3297705,35.5208528 C84.1869575,32.8272661 79.5582713,32.2151779 78.3406135,32.2151779 L28.8747521,32.2151779 C35.6968089,24.4972843 44.835192,19.353351 54.9473047,17.3934726 L60.7956319,23.5183419 C62.1362454,24.8641384 64.3276328,24.9877523 65.6682463,23.6399621 L72.2483581,17.3934726 C85.7714992,19.9654392 97.3451979,28.295421 104.169238,40.2979319 L99.6615242,50.4641783 C98.9297396,52.1808165 99.6615242,54.2623151 101.367038,55.1196373 L110.017565,58.9157802 C110.261493,61.6113608 110.261493,64.3069413 110.138538,67.000528 L105.386896,67.000528 C104.899039,67.000528 104.657094,67.369376 104.657094,67.7362301 L104.657094,69.9413426 C104.657094,75.206896 101.731939,76.4330661 99.1736678,76.6783001 L99.1736678,76.6783001 Z M53.1188348,55.6101053 L53.1188348,46.7896554 L68.8373297,46.7896554 C69.6900868,46.7896554 74.5627012,47.7705915 74.5627012,51.4451144 C74.5627012,54.5075491 70.7867721,55.6101053 67.7406444,55.6101053 L53.1188348,55.6101053 Z M14.4968707,49.485236 C14.4968707,47.4037374 16.2023849,45.6870992 18.274783,45.6870992 L18.3957555,45.6870992 C20.4681536,45.6870992 22.0507121,47.4037374 22.0507121,49.485236 C22.0507121,51.5667345 20.3451979,53.2813789 18.274783,53.2813789 C16.2023849,53.2813789 14.4968707,51.5667345 14.4968707,49.485236 L14.4968707,49.485236 Z M17.2990702,58.5489261 L25.4637237,54.8744032 C27.1692379,54.1406949 28.021995,52.0572026 27.1692379,50.3425582 L25.5846962,46.5464152 L32.164808,46.5464152 L32.164808,76.4330661 L18.7626394,76.4330661 C17.1780977,70.6750509 16.6902413,64.5521753 17.2990702,58.5489261 L17.2990702,58.5489261 Z M39.230793,103.135662 C39.230793,105.217161 37.5252788,106.931805 35.4528807,106.931805 C33.3824658,106.931805 31.6769516,105.217161 31.6769516,103.135662 C31.6769516,101.05217 33.3824658,99.3375254 35.4528807,99.3375254 L35.5758364,99.3375254 C37.5252788,99.4611393 39.230793,101.05217 39.230793,103.135662 L39.230793,103.135662 Z M95.274783,103.380896 C95.274783,105.462395 93.5692688,107.177039 91.4988539,107.177039 C89.4264558,107.177039 87.7209416,105.462395 87.7209416,103.380896 C87.7209416,101.297404 89.4264558,99.5827595 91.4988539,99.5827595 L91.6198264,99.5827595 C93.6902413,99.5827595 95.274783,101.297404 95.274783,103.380896 L95.274783,103.380896 Z M88.9385994,94.6840603 C87.1121127,94.3152123 85.2836428,95.4177686 84.7977696,97.377647 L82.8483272,106.319717 C70.4198882,111.954118 56.2879182,111.832498 43.9824349,106.198097 L42.0329925,97.2560269 C41.6680918,95.4177686 39.8396219,94.1935922 37.8901795,94.5604464 L30.0924099,96.2750908 C28.6308239,94.8056804 27.2902104,93.2126561 26.0725526,91.4980117 L64.2066603,91.4980117 C64.571561,91.4980117 64.9384449,91.3763916 64.9384449,91.0095374 L64.9384449,77.4120084 C64.9384449,77.0451543 64.6945167,76.9215404 64.2066603,76.9215404 L52.9978623,76.9215404 L52.9978623,68.3483183 L65.0594174,68.3483183 C66.1561027,68.3483183 70.9077446,68.7151725 72.4922863,74.8400418 C72.9781595,76.6783001 74.0748448,82.9247896 74.6836737,84.884668 C75.4154583,87.0897805 78.3406135,91.4980117 81.384758,91.4980117 L101.002138,91.4980117 C99.6615242,93.2126561 98.1999382,94.9273005 96.736369,96.5203248 L88.9385994,94.6840603 Z M126.465861,62.468683 L120.982435,59.0393941 C120.982435,58.5489261 120.861462,58.058458 120.861462,57.5699838 L125.490149,53.1597588 C125.978005,52.6692908 126.098978,52.0572026 125.978005,51.4451144 C125.855049,50.8330262 125.369176,50.3425582 124.88132,50.0973241 L118.91202,47.8922117 L118.545136,46.4228013 L122.323048,41.1552541 C122.687949,40.6667799 122.808922,39.9310778 122.566977,39.4406097 C122.323048,38.8285215 121.835192,38.4616674 121.226363,38.3380535 L114.89018,37.3591112 C114.646251,36.8686431 114.402323,36.5017889 114.160378,36.0113209 L116.839622,30.1316856 C117.08355,29.5195974 117.08355,28.9075092 116.718649,28.295421 C116.351766,27.6813391 115.742937,27.4380988 115.134108,27.4380988 L108.676952,27.6813391 C108.433023,27.3144849 108.068123,26.9476308 107.824195,26.5807766 L109.285781,20.3322934 C109.408736,19.7202052 109.285781,19.108117 108.797924,18.6176489 C108.312051,18.1271809 107.701239,18.0055608 107.09241,18.1271809 L100.879182,19.598585 C100.514281,19.353351 100.147397,18.9864969 99.7824967,18.7412628 L100.026425,12.2495393 C100.026425,11.6354574 99.7824967,11.0233692 99.1736678,10.656515 C98.6858114,10.2896609 97.95601,10.2896609 97.3451979,10.5348949 L91.3758982,13.3520956 C91.0109975,13.1068615 90.5231411,12.8616275 90.0352847,12.6163935 L89.0615551,6.2462901 C88.9385994,5.63420192 88.5736987,5.14373387 87.9648698,4.89849984 C87.3560409,4.65525959 86.747212,4.77687971 86.1363999,5.14373387 L80.8988848,8.94187063 L79.4353156,8.57501647 L77.4878564,2.45014712 C77.2439282,1.83805894 76.7560718,1.34759088 76.0242872,1.22397698 C75.4154583,1.10235686 74.8066294,1.34759088 74.318773,1.71444504 L69.934015,6.369904 C69.4461586,6.369904 68.9583022,6.2462901 68.4704458,6.2462901 L65.0594174,0.735502703 C64.9384449,0.366654777 64.3276328,-0.000199377258 63.5978314,-0.000199377258 C62.8660468,-0.000199377258 62.3801736,0.366654777 62.0132897,0.85712283 L58.6022613,6.369904 C58.1144049,6.369904 57.6285317,6.49152413 57.1406753,6.49152413 L52.7539341,1.83805894 C52.2660777,1.34759088 51.6572488,1.22397698 51.0484199,1.34759088 C50.439591,1.46921101 49.9517346,1.95967906 49.7078064,2.45014712 L47.5144358,8.45140257 C47.1495351,8.57501647 46.6616787,8.6966366 46.296778,8.81825673 L41.1802354,5.02211374 C40.692379,4.65525959 39.9605944,4.53164569 39.4747212,4.77687971 C38.8639091,5.02211374 38.4990084,5.5125818 38.3780359,6.12466998 L37.4023231,12.4927796 C36.9164499,12.7380136 36.549566,12.9832476 36.0617096,13.2284817 L30.2153656,10.5348949 C29.6045535,10.2896609 28.9957246,10.2896609 28.3868957,10.656515 C27.8990393,11.0233692 27.5341386,11.6354574 27.5341386,12.2495393 L27.7780668,18.7412628 C27.4131661,18.9864969 27.0462822,19.353351 26.6813815,19.598585 L20.4681536,18.1271809 C19.8593247,18.0055608 19.2485126,18.1271809 18.7626394,18.6176489 C18.274783,19.108117 18.1518273,19.7202052 18.274783,20.3322934 L19.736369,26.5807766 C19.3714683,26.9476308 19.1275401,27.3144849 18.8836119,27.6813391 L12.4264558,27.4380988 C11.8176269,27.4380988 11.208798,27.6813391 10.8419141,28.295421 C10.4770134,28.7838953 10.4770134,29.5195974 10.7209416,30.1316856 L13.4001854,36.0113209 C13.1582404,36.378175 12.9143122,36.8686431 12.670384,37.3591112 L6.33420043,38.3380535 C5.72537152,38.4616674 5.23751513,38.8285215 4.99358694,39.4406097 C4.7516419,40.0526979 4.87261442,40.6667799 5.23751513,41.1552541 L8.77149921,46.5464152 L8.4065985,48.0158256 L2.43531563,50.0973241 C1.82648672,50.3425582 1.46158601,50.8330262 1.33863033,51.4451144 C1.21765782,52.0572026 1.46158601,52.6692908 1.82648672,53.1597588 L6.4571561,57.5699838 C6.4571561,58.058458 6.33420043,58.5489261 6.33420043,59.0393941 L0.852757102,62.468683 C0.364900713,62.713917 0,63.3260052 0,63.9380934 C0,64.5521753 0.364900713,65.1642635 0.852757102,65.5311176 L6.33420043,68.9604065 C6.33420043,69.4508745 6.4571561,69.9413426 6.4571561,70.4298169 L1.82648672,74.8400418 C1.33863033,75.3305099 1.21765782,75.942598 1.33863033,76.5546862 C1.33863033,77.1667744 1.82648672,77.6572425 2.43531563,77.9024765 L8.4065985,80.107589 L8.77149921,81.5769993 L4.99358694,86.8445465 C4.62868622,87.3330208 4.5077137,88.0687228 4.7516419,88.5591909 C4.99358694,89.049659 5.48144333,89.5381332 6.09027223,89.6617471 L12.4264558,90.6406895 C12.670384,91.1311575 12.9143122,91.4980117 13.1582404,91.9884797 L10.4770134,97.8681151 C10.2330852,98.4802032 10.2330852,99.0922914 10.5979859,99.7043796 C10.9648698,100.194848 11.5736987,100.563696 12.1825276,100.563696 L18.6396837,100.318462 C18.8836119,100.685316 19.2485126,101.05217 19.4924408,101.421018 L18.0308548,107.667507 C17.9098823,108.279595 18.0308548,108.891684 18.5187112,109.382152 C19.0065676,109.87262 19.6153965,109.99424 20.2242254,109.87262 L26.4374533,108.401216 C26.802354,108.64645 27.1692379,109.015298 27.5341386,109.258538 L27.2902104,115.752255 C27.2902104,116.364343 27.5341386,116.976431 28.1429675,117.343286 C28.7517964,117.71014 29.3626085,117.71014 29.9714374,117.466899 L35.8197646,114.771319 C36.1846653,115.016553 36.6725217,115.261787 37.1583949,115.507021 L38.1341077,121.875131 C38.2550802,122.487219 38.6219641,122.977687 39.230793,123.222921 C39.8396219,123.468155 40.4484508,123.346535 40.9363072,122.977687 L46.1758055,119.181544 L47.6373915,119.548398 L49.8307621,125.549654 C50.0746903,126.163735 50.5605635,126.53059 51.1693924,126.65221 C51.7802045,126.775824 52.3890334,126.53059 52.8768898,126.163735 L57.2616478,121.508276 C57.7495042,121.508276 58.2373606,121.629897 58.7232338,121.629897 L62.1362454,127.142678 C62.5011461,127.633146 63.109975,128 63.7188039,128 C64.3276328,128 64.9384449,127.633146 65.3033456,127.142678 L68.714374,121.629897 C69.2022304,121.629897 69.6900868,121.508276 70.17596,121.508276 L74.5627012,126.163735 C75.0505576,126.65221 75.6593865,126.775824 76.2682154,126.65221 C76.8770443,126.53059 77.3649007,126.040122 77.6088289,125.549654 L79.8021995,119.548398 L81.2637855,119.181544 L86.3803281,122.977687 C86.8681845,123.346535 87.5999691,123.468155 88.208798,123.222921 C88.8176269,122.977687 89.1825276,122.487219 89.3054833,121.875131 L90.2792129,115.507021 C90.7670693,115.261787 91.13197,115.016553 91.6198264,114.771319 L97.4681536,117.466899 C98.0769825,117.71014 98.6858114,117.71014 99.2946403,117.343286 C99.7824967,116.976431 100.147397,116.364343 100.147397,115.752255 L99.9054524,109.258538 C100.270353,109.015298 100.635254,108.64645 101.002138,108.401216 L107.215366,109.87262 C107.824195,109.99424 108.433023,109.87262 108.92088,109.382152 C109.408736,108.891684 109.529709,108.279595 109.408736,107.667507 L107.945167,101.421018 C108.189095,101.05217 108.555979,100.685316 108.797924,100.318462 L115.25508,100.563696 C115.865892,100.563696 116.474721,100.318462 116.839622,99.7043796 C117.204523,99.2159053 117.204523,98.4802032 116.962578,97.8681151 L114.037422,91.8668596 C114.281351,91.4980117 114.525279,91.0095374 114.769207,90.5190693 L121.103407,89.5381332 C121.714219,89.4165131 122.200093,89.049659 122.444021,88.435577 C122.687949,87.8234888 122.566977,87.2114006 122.200093,86.7209326 L118.424164,81.4553792 L118.789064,79.9839751 L124.758364,77.7808564 C125.369176,77.5356223 125.734077,77.0451543 125.855049,76.4330661 C125.978005,75.8209779 125.734077,75.206896 125.369176,74.7184217 L120.738507,70.3081967 C120.738507,69.8177287 120.861462,69.3272606 120.861462,68.8387864 L126.342906,65.4094975 C126.830762,65.0406496 127.195663,64.4285614 127.195663,63.8164732 C127.195663,63.2043851 126.951735,62.713917 126.465861,62.468683 L126.465861,62.468683 Z" id="Fill-1" fill="#FFFFFF" mask="url(#mask-2)"></path>
            </g>
        </g>
    </g>
</svg>