<svg fill="none" height="60" viewBox="0 0 302 60" width="302" xmlns="http://www.w3.org/2000/svg"><path d="m115.26 10.3505h9.11v39.0181h-9.11v-4.0679c-4.01 4.6409-8.88 5.2711-11.688 5.2711-12.032 0-18.9074-10.0267-18.9074-20.7409 0-12.7196 8.7089-20.51176 19.0224-20.51176 2.864 0 7.906.74486 11.573 5.55766zm-21.2563 19.7096c0 6.7608 4.2399 12.4331 10.8293 12.4331 5.729 0 11.058-4.1826 11.058-12.3185 0-8.537-5.272-12.605-11.058-12.605-6.5894-.0573-10.8293 5.5003-10.8293 12.4904zm41.1953-19.7096h9.11v3.495c1.031-1.2032 2.521-2.521 3.782-3.2659 1.776-1.03128 3.495-1.31776 5.557-1.31776 2.235 0 4.641.34377 7.162 1.83346l-3.724 8.2505c-2.063-1.3178-3.724-1.3751-4.641-1.3751-1.948 0-3.896.2865-5.672 2.12-2.521 2.6929-2.521 6.4171-2.521 8.9954v20.2252h-9.11zm31.398 0h9.11v3.6096c3.037-3.7242 6.646-4.64096 9.626-4.64096 4.068 0 7.906 1.94806 10.084 5.72956 3.265-4.641 8.136-5.72956 11.573-5.72956 4.756 0 8.881 2.23456 11.116 6.13056.744 1.3178 2.062 4.1826 2.062 9.8549v24.1213h-9.11v-21.4858c0-4.3544-.458-6.1306-.859-6.9327-.573-1.4897-1.948-3.4377-5.214-3.4377-2.235 0-4.183 1.2032-5.386 2.8647-1.604 2.2346-1.776 5.5577-1.776 8.8808v20.1107h-9.11v-21.4858c0-4.3544-.458-6.1306-.859-6.9327-.573-1.4897-1.948-3.4377-5.214-3.4377-2.235 0-4.183 1.2032-5.386 2.8647-1.604 2.2346-1.776 5.5577-1.776 8.8808v20.1107h-8.881z" fill="#000"/></svg>