<svg width="302" height="61" viewBox="0 0 302 61" fill="none" xmlns="http://www.w3.org/2000/svg">
<path fill-rule="evenodd" clip-rule="evenodd" d="M195.267 15.0442C195.267 12.8458 197.049 11.0636 199.247 11.0636H231.157C233.356 11.0636 235.138 12.8455 235.139 15.0442V50.9363H216.798V38.9745H213.608V50.9363H195.267V15.0442ZM219.988 29.4051V26.2152H210.418V29.4051H219.988ZM23.0164 15.0442C23.0164 12.8458 24.7985 11.0636 26.997 11.0636H58.9068C59.9628 11.0632 60.9757 11.4824 61.7226 12.2289C62.4695 12.9755 62.8891 13.9882 62.8891 15.0442V50.9363H44.5476V38.9745H41.3578V50.9363H23.0164V15.0442ZM47.7374 29.4051V26.2152H38.168V29.4051H47.7374Z" fill="black"/>
<path d="M66.0788 15.0442C66.0797 12.8468 67.8604 11.0654 70.0578 11.0636H101.968C104.166 11.0636 105.948 12.8458 105.948 15.0442V23.0254H87.6101V19.8356H84.4203V26.2152H101.971C103.027 26.2152 104.04 26.6349 104.786 27.3817C105.533 28.1286 105.952 29.1415 105.952 30.1975V46.9557C105.952 48.0117 105.532 49.0245 104.785 49.771C104.038 50.5176 103.025 50.9368 101.969 50.9363H70.0594C67.8607 50.9363 66.0781 49.1544 66.0771 46.9557V38.9745H84.4186V42.1643H87.6084V35.7847H70.0594C67.8601 35.7847 66.0771 34.0018 66.0771 31.8024L66.0788 15.0442ZM149.014 17.4432H130.673V11.0636H112.331V17.4432H109.141V32.5949H112.331V46.954C112.331 48.0098 112.75 49.0224 113.496 49.7693C114.242 50.5161 115.254 50.9359 116.31 50.9363H149.011V35.7847H130.673V32.5949H145.033C147.232 32.594 149.014 30.8113 149.014 28.6126V17.4432Z" fill="black"/>
<path fill-rule="evenodd" clip-rule="evenodd" d="M192.077 15.0442C192.076 12.8455 190.293 11.0636 188.094 11.0636H152.204V50.9363H170.545V38.9745H173.735V50.9363H192.077V35.7847H184.102V32.5949H188.094C190.294 32.5949 192.077 30.8119 192.077 28.6126V15.0442ZM176.925 26.2152V29.4051H167.356V26.2152H176.925Z" fill="black"/>
<path d="M256.671 35.7847H278.202V50.9363H238.329V11.0636H256.671V35.7847Z" fill="black"/>
</svg>
