<svg fill="none" height="61" viewBox="0 0 302 61" width="302" xmlns="http://www.w3.org/2000/svg"><g fill="#000"><path clip-rule="evenodd" d="m195.267 15.0442c0-2.1984 1.782-3.9806 3.98-3.9806h31.91c2.199 0 3.981 1.7819 3.982 3.9806v35.8921h-18.341v-11.9618h-3.19v11.9618h-18.341zm24.721 14.3609v-3.1899h-9.57v3.1899zm-196.9716-14.3609c0-2.1984 1.7821-3.9806 3.9806-3.9806h31.9098c1.056-.0004 2.0689.4188 2.8158 1.1653.7469.7466 1.1665 1.7593 1.1665 2.8153v35.8921h-18.3415v-11.9618h-3.1898v11.9618h-18.3414zm24.721 14.3609v-3.1899h-9.5694v3.1899z" fill-rule="evenodd"/><path d="m66.0788 15.0442c.0009-2.1974 1.7816-3.9788 3.979-3.9806h31.9102c2.198 0 3.98 1.7822 3.98 3.9806v7.9812h-18.3379v-3.1898h-3.1898v6.3796h17.5507c1.056 0 2.069.4197 2.815 1.1665.747.7469 1.166 1.7598 1.166 2.8158v16.7582c0 1.056-.42 2.0688-1.167 2.8153-.747.7466-1.76 1.1658-2.816 1.1653h-31.9096c-2.1987 0-3.9813-1.7819-3.9823-3.9806v-7.9812h18.3415v3.1898h3.1898v-6.3796h-17.549c-2.1993 0-3.9823-1.7829-3.9823-3.9823zm82.9352 2.399h-18.341v-6.3796h-18.342v6.3796h-3.19v15.1517h3.19v14.3591c0 1.0558.419 2.0684 1.165 2.8153.746.7468 1.758 1.1666 2.814 1.167h32.701v-15.1516h-18.338v-3.1898h14.36c2.199-.0009 3.981-1.7836 3.981-3.9823z"/><path clip-rule="evenodd" d="m192.077 15.0442c-.001-2.1987-1.784-3.9806-3.983-3.9806h-35.89v39.8727h18.341v-11.9618h3.19v11.9618h18.342v-15.1516h-7.975v-3.1898h3.992c2.2 0 3.983-1.783 3.983-3.9823zm-15.152 11.171v3.1899h-9.569v-3.1899z" fill-rule="evenodd"/><path d="m256.671 35.7847h21.531v15.1516h-39.873v-39.8727h18.342z"/></g></svg>