<svg fill="none" height="60" viewBox="0 0 301 60" width="301" xmlns="http://www.w3.org/2000/svg" xmlns:xlink="http://www.w3.org/1999/xlink"><linearGradient id="a" gradientUnits="userSpaceOnUse" x1="239.425" x2="239.425" y1="13.6489" y2="45.2979"><stop offset="0" stop-color="#ff8c4a"/><stop offset="1" stop-color="#ff6661"/></linearGradient><mask id="b" height="42" maskUnits="userSpaceOnUse" width="260" x="21" y="9"><path d="m281 9h-260v41.4856h260z" fill="#fff"/></mask><g mask="url(#b)"><g fill="#434c5b"><path d="m29.7078 16.7857-.0006 2.2496c-.0057 2.1609-.0754 3.8032-.2092 4.9267-.1397 1.1734-.5483 2.2561-1.2259 3.248-.6775.9919-1.7846 1.83-3.3213 2.5145 1.8021.7126 3.0454 1.7848 3.73 3.2168.6845 1.4319 1.0268 3.4191 1.0268 5.9617v4.0023c0 1.0758.0803 1.893.241 2.4518.1606.5588.5029.9815 1.0268 1.2678.5238.2865 1.3585.4295 2.5041.4295h.8172v3.3949h-1.844c-2.2911 0-3.964-.6497-5.0188-1.949-1.0547-1.2991-1.5821-3.5273-1.5821-6.6845v-3.1223c0-2.4868-.3387-4.282-1.0163-5.3855-.6776-1.1036-1.9174-1.7114-3.7195-1.8232v-3.5204c1.4389-.0838 2.4936-.454 3.1642-1.1106s1.1001-1.4949 1.2887-2.5147c.1826-.9869.2767-2.2486.2826-3.785l.0003-2.2081.001-.2975c.0148-2.2587.1995-4.0105.5543-5.2556.3702-1.2992 1.0862-2.2562 2.1479-2.87088 1.0618-.61469 2.6055-.92202 4.6311-.92202h1.1106v3.3738h-.461c-1.1176 0-1.9698.1013-2.5565.3038-.5867.2026-.9954.6112-1.2259 1.2259-.2241.5976-.3392 1.5583-.3455 2.8822z"/><path d="m54.4039 24.0074v-1.2276h2.9721v6.4288h-2.9721c-.1291-1.2383-.6246-2.1833-1.486-2.8348-.8615-.6514-1.8577-.9772-2.9883-.9772-.9692 0-1.8388.2584-2.6086.7753-.77.5168-1.3649 1.2169-1.785 2.0999-.42.883-.63 1.8468-.63 2.8913 0 1.7769.4739 3.228 1.4215 4.3533.9477 1.1253 2.1967 1.688 3.7474 1.688 2.4015 0 4.0974-1.1145 5.0883-3.3437l2.7783 1.3245c-1.5615 3.3815-4.2321 5.072-8.0119 5.072-1.6908 0-3.1928-.3984-4.5066-1.1952-1.3138-.797-2.3287-1.8899-3.0449-3.2792-.7162-1.389-1.0741-2.929-1.0741-4.6197 0-1.6584.3633-3.166 1.0902-4.5228.7269-1.3569 1.7258-2.4148 2.9964-3.174 1.2707-.7591 2.6868-1.1387 4.2482-1.1387 1.8522 0 3.4406.5598 4.7651 1.6798zm23.9583 7.285c0 1.6476-.3931 3.1552-1.1793 4.5228-.7861 1.3676-1.8576 2.4498-3.2144 3.2468-1.3569.7968-2.859 1.1952-4.5066 1.1952-1.7014 0-3.236-.3984-4.6036-1.1952-1.3676-.797-2.431-1.8792-3.1903-3.2468-.7591-1.3676-1.1387-2.8752-1.1387-4.5228 0-1.7229.3796-3.2629 1.1387-4.6198.7593-1.3568 1.8173-2.4203 3.1742-3.1902 1.3568-.7698 2.8966-1.1548 4.6197-1.1548 1.6691 0 3.1821.4064 4.5389 1.2195 1.3569.8131 2.423 1.9033 3.1984 3.2709.7753 1.3676 1.163 2.8591 1.163 4.4744zm-8.9003 5.7182c.9907 0 1.9007-.2586 2.7298-.7754.8292-.5169 1.4753-1.2115 1.9384-2.0837.463-.8723.6945-1.8254.6945-2.8591 0-1.0123-.2315-1.9545-.6945-2.8268-.4631-.8722-1.1092-1.5748-1.9384-2.1079-.8291-.533-1.7499-.7996-2.7621-.7996-.9907 0-1.9007.261-2.7299.7834-.8291.5223-1.4808 1.2249-1.9544 2.108-.4739.883-.7108 1.8306-.7108 2.8429s.2369 1.9598.7108 2.8428c.4736.8832 1.1306 1.5831 1.9705 2.1.8401.5168 1.7553.7754 2.7461.7754zm32.7291-.2262v2.9721h-6.3804v-2.4875c-1.7014 1.8522-3.7312 2.7783-6.0896 2.7783-1.6369 0-3.0825-.385-4.337-1.155-1.2546-.77-2.2292-1.8172-2.9237-3.1417-.6945-1.3246-1.042-2.7891-1.042-4.3937 0-1.6367.3689-3.1443 1.1066-4.5228.7376-1.3783 1.7579-2.4739 3.061-3.287 1.303-.8131 2.7137-1.2195 4.232-1.2195 1.0985 0 2.1403.2206 3.1256.6621.9854.4415 1.941 1.1362 2.8671 2.0838v-6.7196h-3.279v-2.9398h6.5903v21.3703zm-11.84.2907c1.0337 0 1.9652-.2746 2.7943-.8238.8294-.5491 1.4808-1.2814 1.9547-2.1967.4737-.9154.7106-1.8953.7106-2.94 0-1.0552-.2369-2.019-.7106-2.8913-.4739-.8722-1.1308-1.5614-1.9708-2.0676-.8399-.5061-1.7876-.7591-2.8428-.7591-1.023 0-1.9357.2718-2.738.8158-.8022.5437-1.4349 1.2653-1.898 2.1644-.4629.8992-.6945 1.8602-.6945 2.8832 0 1.0985.2369 2.0891.7108 2.9721.4737.8832 1.1199 1.5777 1.9384 2.0838.8182.5062 1.7336.7592 2.7459.7592zm24.33-13.5684v-.7269h2.907v5.6374h-2.907v-1.0338c-.97-1.3892-2.294-2.0837-3.974-2.0837-.883 0-1.605.1938-2.164.5815-.56.3877-.84.8884-.84 1.5022 0 .5492.212.98.638 1.2922.425.3124 1.381.5868 2.867.8238l2.245.4361c3.349.6139 5.024 2.256 5.024 4.9266 0 1.5616-.606 2.816-1.818 3.7637-1.211.9476-2.818 1.4215-4.821 1.4215-.797 0-1.581-.1157-2.351-.3473-.769-.2316-1.413-.5196-1.93-.8642v.9207h-2.972v-5.8151h2.972v.5815c.162.8184.617 1.4754 1.365 1.9707.749.4954 1.618.743 2.609.743 1.088 0 1.944-.1911 2.568-.5735.625-.3821.937-.9502.937-1.7041 0-.5491-.248-.9609-.743-1.2356l-.071-.0376c-.516-.2626-1.489-.5328-2.917-.8104l-1.729-.3715c-1.712-.3446-2.966-.9369-3.763-1.7769-.797-.8399-1.196-1.9114-1.196-3.2145 0-1.0552.294-1.9571.881-2.7055.587-.7485 1.338-1.311 2.253-1.688.915-.3769 1.858-.5654 2.827-.5654 1.626 0 2.993.3177 4.103.9531zm26.671 7.8502c0 1.5831-.366 3.0637-1.098 4.4422-.732 1.3783-1.731 2.4659-2.996 3.2629-1.266.7968-2.668 1.1952-4.208 1.1952-2.272 0-4.259-.8723-5.961-2.6166v6.7517h3.312v2.9722h-9.724v-2.9722h3.069v-18.6243h-2.843v-2.9882h6.186v2.7137c.84-.9908 1.766-1.7284 2.779-2.213 1.012-.4846 2.094-.7269 3.247-.7269 1.604 0 3.031.3957 4.28 1.1873 1.249.7915 2.221 1.8603 2.916 3.2064.694 1.346 1.041 2.816 1.041 4.4096zm-8.35 5.8475c.926 0 1.76-.2693 2.503-.8077s1.325-1.2707 1.745-2.1968.63-1.906.63-2.9399c0-1.0445-.232-2.0056-.695-2.8832-.463-.8777-1.098-1.5776-1.906-2.0999s-1.718-.7834-2.73-.7834c-1.055 0-2.003.2774-2.843.8319s-1.491 1.2894-1.954 2.2048-.695 1.9223-.695 3.0206c0 1.7661.557 3.1498 1.672 4.1514 1.115 1.0014 2.539 1.5022 4.273 1.5022zm29.32-5.0882h-14.23c.204 1.626.834 2.9102 1.89 3.8524 1.055.9424 2.347 1.4134 3.876 1.4134 1.12 0 2.159-.2316 3.118-.6945.958-.4632 1.761-1.1738 2.407-2.1323l2.939 1.3245c-.926 1.4431-2.14 2.5333-3.642 3.2711-1.502.7377-3.136 1.1064-4.902 1.1064-1.831 0-3.457-.3823-4.879-1.1468-1.421-.7646-2.528-1.8307-3.319-3.1983-.792-1.3676-1.187-2.9076-1.187-4.6197 0-1.7015.39-3.2359 1.171-4.6037.78-1.3676 1.849-2.4364 3.206-3.2063 1.357-.7698 2.854-1.1548 4.491-1.1548 1.787 0 3.346.3957 4.676 1.1871 1.33.7915 2.377 1.9223 3.142 3.3922.764 1.4699 1.179 3.2064 1.243 5.2093zm-8.997-7.0104c-1.26 0-2.363.4228-3.311 1.268-.948.8453-1.556 1.9626-1.825 3.3518h10.628c-.312-1.3892-.974-2.5065-1.987-3.3518-1.012-.8452-2.18-1.268-3.505-1.268zm29.983 7.0104h-14.23c.204 1.626.834 2.9102 1.89 3.8524 1.055.9424 2.347 1.4134 3.876 1.4134 1.12 0 2.159-.2316 3.118-.6945.958-.4632 1.76-1.1738 2.407-2.1323l2.939 1.3245c-.926 1.4431-2.14 2.5333-3.642 3.2711-1.502.7377-3.136 1.1064-4.902 1.1064-1.831 0-3.457-.3823-4.879-1.1468-1.421-.7646-2.528-1.8307-3.319-3.1983-.792-1.3676-1.187-2.9076-1.187-4.6197 0-1.7015.39-3.2359 1.171-4.6037.78-1.3676 1.849-2.4364 3.206-3.2063 1.357-.7698 2.854-1.1548 4.491-1.1548 1.787 0 3.346.3957 4.676 1.1871 1.33.7915 2.377 1.9223 3.142 3.3922.764 1.4699 1.179 3.2064 1.243 5.2093zm-8.997-7.0104c-1.26 0-2.363.4228-3.311 1.268-.948.8453-1.556 1.9626-1.825 3.3518h10.628c-.312-1.3892-.974-2.5065-1.987-3.3518-1.012-.8452-2.18-1.268-3.505-1.268zm29.757-9.6917v21.3703h3.07v2.9721h-6.38v-2.4875c-1.703 1.8522-3.732 2.7783-6.091 2.7783-1.637 0-3.082-.385-4.337-1.155-1.254-.77-2.229-1.8172-2.923-3.1417-.695-1.3246-1.042-2.7891-1.042-4.3937 0-1.6367.369-3.1443 1.106-4.5228.738-1.3783 1.758-2.4739 3.061-3.287s2.714-1.2195 4.232-1.2195c1.099 0 2.14.2206 3.126.6621.985.4415 1.941 1.1362 2.868 2.0838v-6.7196h-3.28v-2.9398zm-8.835 9.9825c-1.023 0-1.936.2718-2.738.8158-.803.5437-1.435 1.2653-1.898 2.1644-.463.8992-.695 1.8602-.695 2.8832 0 1.0985.237 2.0891.711 2.9721.474.8832 1.12 1.5777 1.938 2.0838.819.5062 1.734.7592 2.746.7592 1.034 0 1.966-.2746 2.795-.8238.829-.5491 1.48-1.2814 1.954-2.1967.474-.9154.712-1.8953.712-2.94 0-1.0552-.238-2.019-.712-2.8913-.474-.8722-1.13-1.5614-1.97-2.0676-.84-.5061-1.788-.7591-2.843-.7591z"/><path d="m276.168 18.1965v2.2031c0 1.6065.092 2.9197.274 3.9395.181 1.0198.617 1.8581 1.309 2.5147s1.736 1.0268 3.133 1.1106v3.5204c-1.803.1118-3.038.7196-3.709 1.8232-.671 1.1035-1.007 2.8987-1.007 5.3855v3.1223c0 3.1572-.516 5.3854-1.55 6.6845-1.034 1.2993-2.766 1.949-5.196 1.949h-1.719v-3.3949h.817c1.147 0 1.983-.143 2.514-.4295.532-.2863.875-.709 1.029-1.2678.148-.5395.223-1.3199.229-2.3413v-4.1128c0-2.5426.346-4.5298 1.038-5.9617.691-1.432 1.939-2.5042 3.74-3.2168-1.551-.6845-2.661-1.5226-3.332-2.5145-.67-.9919-1.078-2.0746-1.225-3.248l-.019-.1529c-.134-1.1696-.202-2.858-.202-5.065v-1.844c0-1.3831-.111-2.3819-.335-2.9966-.223-.6147-.608-1.0233-1.153-1.2259-.544-.2025-1.418-.3038-2.618-.3038h-.483v-3.3738h.985c2.123 0 3.713.30733 4.768.92202 1.055.61468 1.77 1.57168 2.147 2.87088.37 1.2721.558 3.0733.565 5.4036z"/></g><path clip-rule="evenodd" d="m226.979 41.2774c1.434.3217 2.448.0946 2.604.1218l.007.0016c2.385 1.3025 4.12 2.4112 5.794 3.1196-.065.0061-.133.0126-.199.019-1.362.216-2.342.3734-2.94.4715-6.128 1.0062-9.137-.7496-8.477-3.451.264-1.0897 1.754-.6099 3.211-.2825zm20.584-26.2295c3.88 2.8929 4.996 4.3955 7.06 6.7038 5.064 0 7.893 3.8191 6.986 9.5148-.578 3.6232-7.762 2.3493-9.465 0-1.137 1.0388-3.932 3.3409-8.384 6.9066-.056.043-.117.0909-.183.1436-1.3 1.044-6.317.7101-6.797.3537 1.005-1.6671 1.729-2.9696 2.173-3.9071.665-1.4064 1.13-2.816 1.13-5.1516 0-2.3357-1.3-4.3196-4.05-4.268-.242.0045-.513.1908-.513.5569 0 .366.271.557.513.557 1.455 0 2.476 1.8259 2.478 3.1541 0 1.3281-.209 2.4057-.831 4.0247-.537 1.3983-2.7 4.8713-3.264 5.2175-.239.1466-.3.4728-.161.7088.045.0771.09.1177.143.1552.034.0228.063.038.097.0533.039.0176.088.036.147.0558.121.041.284.0876.474.1345.489.1209 1.087.2289 1.757.3067 1.847.2138 3.918.1698 6.123-.2264l.086-.0154c.66-.1209 1.618-.1305 2.566-.0059 1.109.1463 2.119.4599 2.886.9291.674.4115 1.139.9251 1.375 1.5466l.022.0678c.1.331.15.6867.15 1.0668 0 2.0425-4.317.8192-9.308.5989-.314-.0138-.694-.0149-1.141-.0032-2.036-.1032-3.714-.7042-5.96-1.8356l.042-.0073s-.174-.0732-.447-.2003c-.666-.343-1.383-.7299-2.173-1.1618l-.005.0015c-.746-.4691-1.402-.9948-1.569-1.4658-.434-1.2272-.221-1.2272 1.338-3.0408-2.659.3289-2.725.5213-5.758.5213-3.031 0-8.027-.1569-8.027-3.1519 0-1.9965 1.346-2.7731 4.041-2.3296-.656-3.6314.47-6.8995 3.382-9.8045 7.623-7.6097 17.915 2.8759 24.97 2.8759 3.209 0-5.658-5.079-9.344-6.5181-3.685-1.4391 2.116-7.0313 7.441-3.0616zm8.882 10.4695c-.58 0-1.05.5103-1.05 1.1399s.47 1.1402 1.05 1.1402c.579 0 1.049-.5106 1.049-1.1402s-.47-1.1399-1.049-1.1399z" fill="url(#a)" fill-rule="evenodd"/></g></svg>