<svg fill="none" height="60" viewBox="0 0 301 60" width="301" xmlns="http://www.w3.org/2000/svg"><g fill="#000"><path d="m84.8533 44.2579c-1.952 0-3.7887-.3755-5.5095-1.1266-1.721-.751-3.2237-1.7742-4.508-3.0693-1.2586-1.2948-2.2604-2.7972-3.005-4.5065-.745-1.7352-1.1174-3.587-1.1174-5.5553 0-1.9686.3724-3.8074 1.1174-5.5168.7446-1.7353 1.7464-3.2505 3.005-4.5455 1.2843-1.295 2.787-2.318 4.508-3.0691 1.7208-.7511 3.5575-1.1267 5.5095-1.1267 1.4127 0 2.7613.1813 4.0456.5439 1.3099.3626 2.5044.8806 3.5831 1.554 1.1046.6475 2.0935 1.4375 2.9669 2.3699.8733.9065 1.6052 1.9295 2.1961 3.0691l-5.3939 2.9526c-.7706-1.3986-1.7724-2.4993-3.0054-3.3022-1.2073-.803-2.6713-1.2044-4.3924-1.2044-1.1302 0-2.1832.2202-3.1593.6605-.9503.4403-1.7852 1.0489-2.5042 1.8259-.7193.7511-1.2846 1.6317-1.6955 2.6418-.4109.9842-.6165 2.033-.6165 3.147 0 1.1136.2056 2.1753.6165 3.1856.4109.9841.9762 1.8647 1.6955 2.6418.719.7511 1.5539 1.3468 2.5042 1.7869.9761.4404 2.0291.6606 3.1593.6606 1.7211 0 3.1851-.4016 4.3924-1.2043 1.233-.803 2.2348-1.9038 3.0054-3.3022l5.3939 2.9525c-.5909 1.1395-1.3228 2.1756-2.1961 3.1081-.8734.9063-1.8623 1.6964-2.9669 2.3697-1.0787.6474-2.2732 1.1526-3.5831 1.5152-1.2843.3626-2.6329.5438-4.0456.5438z"/><path d="m100.813 25.4728h5.999v2.8178c.318-.8266.901-1.5404 1.748-2.1415.874-.6012 1.868-.9017 2.98-.9017.291 0 .596.0125.914.0375.318.0251.662.0877 1.033.1879v5.7482c-.45-.1502-.887-.2629-1.311-.3381-.424-.075-.874-.1128-1.351-.1128-1.298 0-2.291.4259-2.98 1.2775-.688.8515-1.033 1.9537-1.033 3.3061v8.9042h-5.999z"/><path d="m121.985 44.2579c-1.197 0-2.32-.2549-3.37-.7649-1.026-.5097-1.917-1.1895-2.674-2.0394-.757-.8741-1.355-1.8815-1.795-3.0226-.439-1.1656-.659-2.3917-.659-3.6784s.22-2.5008.659-3.6419c.44-1.1653 1.038-2.1729 1.795-3.0227.757-.874 1.648-1.566 2.674-2.0758 1.05-.5099 2.173-.7648 3.37-.7648.61 0 1.172.0728 1.685.2185.537.1214 1.013.2913 1.428.5098.44.2186.806.4613 1.099.7284.318.2671.574.522.769.7648v-1.8209h5.531v18.2092h-5.531v-1.8209c-.195.2427-.451.4978-.769.7648-.293.267-.659.5098-1.099.7283-.415.2185-.891.3886-1.428.51-.513.1456-1.075.2185-1.685.2185zm1.245-4.9894c1.245 0 2.247-.4249 3.004-1.2746.781-.8499 1.172-1.9302 1.172-3.2413 0-1.311-.391-2.3915-1.172-3.2412-.757-.8499-1.759-1.2748-3.004-1.2748s-2.259.4249-3.04 1.2748c-.757.8497-1.136 1.9302-1.136 3.2412 0 1.3111.379 2.3914 1.136 3.2413.781.8497 1.795 1.2746 3.04 1.2746z"/><path d="m147.331 44.2579c-.611 0-1.184-.075-1.722-.2248-.513-.1249-.989-.2999-1.428-.5248-.415-.2248-.782-.4746-1.099-.7493-.318-.2747-.562-.5372-.733-.787v1.8736h-5.531v-28.1035h5.531v11.2414c.171-.2498.415-.5121.733-.7868.317-.2748.684-.5246 1.099-.7495.439-.2248.915-.3997 1.428-.5246.538-.1499 1.111-.2248 1.722-.2248 1.197 0 2.308.2623 3.333.7869 1.05.5246 1.954 1.2366 2.711 2.1359.757.8743 1.355 1.911 1.795 3.1101.439 1.174.659 2.4232.659 3.7471s-.22 2.5855-.659 3.7848c-.44 1.174-1.038 2.2105-1.795 3.1099-.757.8745-1.661 1.574-2.711 2.0984-1.025.5248-2.136.787-3.333.787zm-1.246-5.1336c1.246 0 2.247-.4372 3.004-1.3114.782-.8745 1.172-1.986 1.172-3.3351 0-1.3489-.39-2.4606-1.172-3.3348-.757-.8745-1.758-1.3117-3.004-1.3117-1.245 0-2.258.4372-3.04 1.3117-.757.8742-1.135 1.9859-1.135 3.3348 0 1.3491.378 2.4606 1.135 3.3351.782.8742 1.795 1.3114 3.04 1.3114z"/><path d="m177.689 44.2579-12.807-16.652v16.652h-5.885v-26.9315h5.071l12.77 16.6519v-16.6519h5.922v26.9315z"/><path d="m195.806 44.2579c-1.362 0-2.649-.2185-3.862-.6556-1.188-.437-2.228-1.0682-3.119-1.8938-.891-.8255-1.596-1.821-2.116-2.9863-.52-1.1896-.78-2.5128-.78-3.9696 0-1.3597.235-2.61.706-3.7511.495-1.1654 1.176-2.173 2.042-3.0227.891-.8498 1.93-1.5175 3.119-2.0031 1.188-.4855 2.488-.7283 3.898-.7283 1.213 0 2.377.1942 3.491.5827 1.138.3642 2.128.9226 2.97 1.6752.842.7284 1.51 1.651 2.005 2.7679.52 1.0924.78 2.3793.78 3.8604 0 .2427-.013.5218-.037.8375 0 .2915-.025.6556-.075 1.0926h-13.478c.173 1.0925.706 1.9058 1.597 2.44.891.51 1.869.7648 2.933.7648 1.089 0 2.017-.2064 2.785-.6192.792-.4368 1.361-.9226 1.708-1.4566l4.158 3.0592c-.866 1.2138-2.054 2.1851-3.564 2.9134-1.485.7285-3.206 1.0926-5.161 1.0926zm3.564-11.7997c-.247-.9712-.742-1.6632-1.485-2.0758-.743-.437-1.522-.6555-2.339-.6555-.421 0-.842.0484-1.262.1456-.421.0971-.817.2548-1.189.4734-.371.2185-.705.4978-1.002.8377-.273.34-.47.7649-.594 1.2746z"/><path d="m220.204 44.2579c-.61 0-1.184-.075-1.721-.2248-.513-.1249-.989-.2999-1.429-.5248-.415-.2248-.781-.4746-1.099-.7493-.317-.2747-.561-.5372-.732-.787v1.8736h-5.531v-28.1035h5.531v11.2414c.171-.2498.415-.5121.732-.7868.318-.2748.684-.5246 1.099-.7495.44-.2248.916-.3997 1.429-.5246.537-.1499 1.111-.2248 1.721-.2248 1.197 0 2.308.2623 3.334.7869 1.05.5246 1.953 1.2366 2.71 2.1359.757.8743 1.356 1.911 1.795 3.1101.44 1.174.659 2.4232.659 3.7471s-.219 2.5855-.659 3.7848c-.439 1.174-1.038 2.2105-1.795 3.1099-.757.8745-1.66 1.574-2.71 2.0984-1.026.5248-2.137.787-3.334.787zm-1.245-5.1336c1.245 0 2.247-.4372 3.004-1.3114.781-.8745 1.172-1.986 1.172-3.3351 0-1.3489-.391-2.4606-1.172-3.3348-.757-.8745-1.759-1.3117-3.004-1.3117s-2.259.4372-3.04 1.3117c-.757.8742-1.136 1.9859-1.136 3.3348 0 1.3491.379 2.4606 1.136 3.3351.781.8742 1.795 1.3114 3.04 1.3114z"/><path d="m239.467 44.2579c-2.492 0-4.381-.7689-5.667-2.3066-1.286-1.5376-1.929-3.5715-1.929-6.1013v-10.6026h6.069v9.6354c0 1.3642.228 2.4182.683 3.1622.482.7442 1.286 1.1161 2.412 1.1161 1.152 0 2.063-.3843 2.733-1.1533.696-.7689 1.045-2.0088 1.045-3.7202v-9.0402h6.069v18.6012h-6.069v-1.8973c-.483.6447-1.166 1.1904-2.05 1.6369s-1.983.6697-3.296.6697z"/><path d="m255.634 15.7421h6.337v28.5158h-6.337z"/><path d="m273.637 44.2579c-1.197 0-2.32-.2549-3.371-.7649-1.023-.5097-1.915-1.1895-2.673-2.0394-.755-.8741-1.355-1.8815-1.793-3.0226-.442-1.1656-.661-2.3917-.661-3.6784s.219-2.5008.661-3.6419c.438-1.1653 1.038-2.1729 1.793-3.0227.758-.874 1.65-1.566 2.673-2.0758 1.051-.5099 2.174-.7648 3.371-.7648.611 0 1.172.0728 1.686.2185.536.1214 1.014.2913 1.428.5098.439.2186.807.4613 1.099.7284.317.2671.573.522.768.7648v-1.8209h5.532v18.2092h-5.532v-1.8209c-.195.2427-.451.4978-.768.7648-.292.267-.66.5098-1.099.7283-.414.2185-.892.3886-1.428.51-.514.1456-1.075.2185-1.686.2185zm1.245-4.9894c1.245 0 2.247-.4249 3.005-1.2746.78-.8499 1.172-1.9302 1.172-3.2413 0-1.311-.392-2.3915-1.172-3.2412-.758-.8499-1.76-1.2748-3.005-1.2748s-2.259.4249-3.039 1.2748c-.758.8497-1.135 1.9302-1.135 3.2412 0 1.3111.377 2.3914 1.135 3.2413.78.8497 1.794 1.2746 3.039 1.2746z"/><path clip-rule="evenodd" d="m33.6252 17.4034c-6.6305 8.9819-6.5921 20.4574.0857 25.6313 1.755 1.3598 3.7939 2.149 5.9665 2.4105-6.1633 5.1431-13.263 6.7391-18.0568 3.3893-6.5744-4.594-6.3223-16.7508.563-27.1527 5.7494-8.686 14.306-13.40186 20.8005-12.04662-3.4304 1.55882-6.7233 4.19772-9.3589 7.76822zm8.7124 11.4711c-3.0969 3.0066-6.6361 5.0053-9.6241 5.6703 1.7643 6.4795 8.5466 6.9774 8.5466 6.9774s4.0363-.9534 7.0841-7.9894c2.5098-5.7938 2.2909-11.7806-.2387-14.8273-.2104 2.9447-2.2756 6.7782-5.7679 10.169z" fill-rule="evenodd"/></g></svg>