<svg fill="none" height="106" viewBox="0 0 343 106" width="343" xmlns="http://www.w3.org/2000/svg"><path clip-rule="evenodd" d="m37.7986 65.3214c-1.5488-.869-1.5488-3.0985 0-3.968l14.2975-8.0264-14.2975-8.0263c-1.5488-.8695-1.5488-3.099 0-3.968l30.0113-16.8481c1.3838-.7768 3.0719-.7768 4.4553 0l30.0118 16.8481c1.549.869 1.549 3.0985 0 3.968l-14.2976 8.0263 14.2976 8.0264c1.549.8695 1.549 3.099 0 3.968l-30.0118 16.848c-1.3834.7769-3.0715.7769-4.4553 0zm32.8135-37.892 28.2998 15.8873-11.307 6.3471c-1.6909-8.1522-8.9138-14.2786-17.5674-14.2786-8.6535 0-15.876 6.1264-17.5673 14.2786l-11.3065-6.3471 28.2997-15.8873c.3565-.2001.7917-.2001 1.1487 0zm-.5746 11.3335c7.3754 0 13.4704 5.4821 14.4325 12.5941l-12.2048-6.8516c-1.3834-.7765-3.0715-.7765-4.4553 0l-12.2043 6.8516c.9616-7.112 7.0566-12.5941 14.4319-12.5941zm-2.2276 23.3854-12.2043-6.8512c.9616 7.1119 7.0566 12.5941 14.4319 12.5941 7.3754 0 13.4704-5.4822 14.4325-12.5941l-12.2048 6.8512c-1.3834.7768-3.0715.7768-4.4553 0zm2.2276 9.1201c-8.6535 0-15.876-6.1259-17.5673-14.2782l-11.3065 6.3472 28.2997 15.8868c.3565.2005.7917.2005 1.1487 0l28.2998-15.8868-11.307-6.3472c-1.6909 8.1523-8.9138 14.2782-17.5674 14.2782zm11.0422-17.9414-10.4676 5.8765c-.357.2001-.7922.2001-1.1487 0l-10.468-5.8765 10.468-5.8764c.3565-.2001.7917-.2001 1.1487 0zm57.2113 20.571c-3.993 0-7.487-.8407-10.482-2.5221-2.995-1.734-5.334-4.151-7.015-7.2508-1.629-3.1529-2.443-6.7523-2.443-10.7981 0-4.0983.788-7.6977 2.364-10.798 1.629-3.0999 3.889-5.4907 6.778-7.1722 2.89-1.734 6.201-2.6008 9.931-2.6008 3.678 0 6.936.7621 9.773 2.2857 2.838 1.5236 5.071 3.7306 6.7 6.6205s2.496 6.2789 2.601 10.1673c0 .9108-.057 1.8536-.158 2.7586h-31.211v.5516c.052 2.5748.604 4.8604 1.655 6.857 1.103 1.944 2.601 3.4681 4.493 4.5714 1.891 1.0511 4.072 1.5762 6.542 1.5762 2.889 0 5.332-.709 7.329-2.1279 2.049-1.4714 3.416-3.4941 4.099-6.0688h6.541c-.525 2.6799-1.602 5.0968-3.231 7.2512-1.577 2.1018-3.599 3.7567-6.069 4.9652-2.417 1.1559-5.149 1.734-8.197 1.734zm-.788-35.4674c-1.997 0-3.862.4469-5.596 1.3402-1.734.8929-3.179 2.1805-4.335 3.8619-1.156 1.6289-1.839 3.4942-2.049 5.596h24.276c-.316-3.4155-1.603-6.0689-3.862-7.9608-2.207-1.8914-5.019-2.8373-8.434-2.8373zm79.721 35.4674c-3.993 0-7.487-.8407-10.483-2.5221-2.994-1.734-5.332-4.151-7.014-7.2508-1.629-3.1529-2.443-6.7523-2.443-10.7981 0-4.0983.788-7.6977 2.364-10.798 1.629-3.0999 3.888-5.4907 6.778-7.1722 2.89-1.734 6.201-2.6008 9.931-2.6008 3.678 0 6.936.7621 9.774 2.2857 2.837 1.5236 5.07 3.7306 6.699 6.6205s2.496 6.2789 2.601 10.1673c0 .9108-.057 1.8536-.158 2.7586h-31.211v.5516c.053 2.5748.604 4.8604 1.655 6.857 1.104 1.944 2.601 3.4681 4.493 4.5714 1.891 1.0511 4.072 1.5762 6.541 1.5762 2.89 0 5.334-.709 7.33-2.1279 2.05-1.4714 3.416-3.4941 4.099-6.0688h6.542c-.526 2.6799-1.603 5.0968-3.232 7.2512-1.576 2.1018-3.599 3.7567-6.069 4.9652-2.417 1.1559-5.149 1.734-8.197 1.734zm-.788-35.4674c-1.997 0-3.862.4469-5.596 1.3402-1.734.8929-3.179 2.1805-4.335 3.8619-1.156 1.6289-1.839 3.4942-2.049 5.596h24.275c-.315-3.4155-1.602-6.0689-3.862-7.9608-2.207-1.8914-5.018-2.8373-8.433-2.8373zm59.605-5.2016.877 5.4696c1.197-1.5124 2.691-2.8104 4.483-3.8934 2.311-1.3663 5.228-2.0492 8.748-2.0492 4.887 0 8.801 1.4711 11.744 4.4136 2.995 2.9425 4.492 7.5664 4.492 13.8718v22.3837h-6.463v-21.9895c0-4.1514-.945-7.3038-2.837-9.4582-1.839-2.2066-4.519-3.3103-8.039-3.3103-2.522 0-4.703.6042-6.542 1.8127-1.787 1.1563-3.179 2.8378-4.178 5.0443-.945 2.207-1.418 4.8078-1.418 7.8029v20.0981h-6.463v-40.1961zm-37.467-.0005v5.9111h11.349v28.3739h-11.349v5.9111h27.141v-5.9111h-9.329v-29.0892c0-2.8696-2.327-5.1958-5.196-5.1958zm-72.062.0005h-7.725l14.266 19.5464-15.29 20.6497h7.172l11.823-16.1571 11.822 16.1571h7.724l-15.369-20.6497 14.344-19.5464h-7.172l-10.876 14.8964z" fill="#000" fill-rule="evenodd"/></svg>