<svg fill="none" height="61" viewBox="0 0 302 61" width="302" xmlns="http://www.w3.org/2000/svg" xmlns:xlink="http://www.w3.org/1999/xlink"><mask id="a" height="23" maskUnits="userSpaceOnUse" width="34" x="27" y="3"><path d="m27 3.53613h33.9898v22.43907h-33.9898z" fill="#fff"/></mask><path d="m36.1304 26.9689s1.9555 0 1.9555 1.9555v7.1749s0 1.9555-1.9555 1.9555h-7.1749s-1.9555 0-1.9555-1.9555v-7.1749s0-1.9555 1.9555-1.9555z" fill="#000"/><path d="m58.3018 38.0548s1.9555 0 1.9555 1.9144v17.3352s0 1.9145-1.9555 1.9145h-7.1749s-1.9555 0-1.9555-1.9145v-17.3352s0-1.9144 1.9555-1.9144z" fill="#000"/><g mask="url(#a)"><path d="m60.9898 12.7775v-7.26288c0-1.97898-1.9985-1.97898-1.9985-1.97898h-7.3323-22.6605c-1.9985 0-1.9985 1.97898-1.9985 1.97898v7.26288c0 1.9789 1.9985 1.9789 1.9985 1.9789h20.662v9.2399c0 1.979 1.9985 1.979 1.9985 1.979h7.3323c1.9985 0 1.9985-1.979 1.9985-1.979z" fill="#000"/></g><path d="m93.8566 19.9142h-1.7817c-3.116 0-4.6173 1.6112-4.6173 4.6151v1.8933l-2.0045.2781v2.5828h2.0045v9.8182h3.3645v-9.8182h3.2851v-2.8609h-3.2851v-1.8655c0-1.1126.3341-1.7821 1.4477-1.7821h1.5868zm8.2144 16.6326c-1.839 0-2.7857-1.0311-2.8692-2.7019h7.6562c.139-.5265.222-1.4999.222-2.1933 0-2.7575-1.473-5.5071-5.371-5.5071-3.925 0-5.8996 3.0277-5.8996 6.6177 0 3.8681 1.8632 6.6455 6.2616 6.6455 2.034 0 3.731-.8603 4.703-1.8338l-1.585-2.1972c-.944.7807-2.086 1.1701-3.118 1.1701zm-2.8414-5.0899c.0835-1.4483.8074-2.6185 2.4794-2.6185 1.197 0 2.257.6974 2.257 2.2013 0 .0834-.028.2503-.055.4172zm14.0594-3.0337v-2.0006h-3.226v12.6791h3.365v-7.9825c.473-.8901 1.336-1.502 2.45-1.502.612 0 1.447.1113 2.032.2503l.25-3.5561c-.417-.1113-.918-.1669-1.447-.1669-1.782 0-2.756 1.1403-3.397 2.2807zm10.495 0v-2.0006h-3.225v12.6791h3.364v-7.9825c.473-.8901 1.336-1.502 2.45-1.502.612 0 1.448.1113 2.032.2503l.251-3.5561c-.418-.1113-.919-.1669-1.448-.1669-1.782 0-2.756 1.1403-3.396 2.2807zm12.53-2.2787c-4.176 0-6.039 2.7774-6.039 6.6455 0 3.7846 1.946 6.6177 5.927 6.6177 4.176 0 6.067-2.7774 6.067-6.6733 0-3.8125-1.946-6.5899-5.955-6.5899zm-.056 10.2354c-1.728 0-2.563-1.1959-2.563-3.6455 0-2.3364.807-3.5622 2.535-3.5622 1.782 0 2.591 1.2258 2.591 3.6178 0 2.3105-.809 3.5899-2.563 3.5899zm20.404-9.9573h-3.366v8.9282c-.501.4729-1.504.9457-2.478.9457-1.7 0-2.285-.8066-2.285-2.3364v-7.5375h-3.394v7.9269c0 3.2801 1.475 5.0304 4.341 5.0304 2.034 0 3.259-.7768 3.927-1.7225v1.4443h3.255zm13.14 1.5834c-.835-.9178-2.28-1.8615-4.786-1.8615-3.842 0-5.206 2.2489-5.206 4.0866 0 1.8357 1.114 3.143 3.339 3.6992l2.201.5285c.863.1967 1.281.6417 1.281 1.198 0 .8344-.808 1.2516-1.951 1.2516-1.587 0-2.673-.8622-3.394-1.641l-1.921 2.0026c.807.9993 2.448 2.1377 5.176 2.1377 4.148 0 5.512-2.0543 5.512-4.0569 0-1.8377-1.086-3.2005-3.617-3.7568l-2.118-.5007c-.807-.1668-1.169-.6119-1.169-1.196 0-.6695.557-1.2257 1.728-1.2257 1.253 0 2.311.5562 3.062 1.3092zm18.625 0c-.835-.9178-2.281-1.8615-4.788-1.8615-3.842 0-5.204 2.2489-5.204 4.0866 0 1.8357 1.113 3.143 3.336 3.6992l2.204.5285c.863.1967 1.28.6417 1.28 1.198 0 .8344-.807 1.2516-1.95 1.2516-1.589 0-2.673-.8622-3.397-1.641l-1.919 2.0026c.808.9993 2.448 2.1377 5.176 2.1377 4.148 0 5.511-2.0543 5.511-4.0569 0-1.8377-1.084-3.2005-3.616-3.7568l-2.117-.5007c-.808-.1668-1.172-.6119-1.172-1.196 0-.6695.559-1.2257 1.728-1.2257 1.255 0 2.313.5562 3.063 1.3092zm5.345-1.5834h-3.786l5.206 12.1248-2.728 6.5621h3.424l7.433-18.6869h-3.619l-2.84 8.2587zm21.073 1.5834c-.834-.9178-2.279-1.8615-4.787-1.8615-3.842 0-5.204 2.2489-5.204 4.0866 0 1.8357 1.114 3.143 3.337 3.6992l2.201.5285c.865.1967 1.283.6417 1.283 1.198 0 .8344-.808 1.2516-1.951 1.2516-1.589 0-2.673-.8622-3.396-1.641l-1.919 2.0026c.807.9993 2.448 2.1377 5.176 2.1377 4.148 0 5.51-2.0543 5.51-4.0569 0-1.8377-1.084-3.2005-3.615-3.7568l-2.118-.5007c-.807-.1668-1.171-.6119-1.171-1.196 0-.6695.559-1.2257 1.728-1.2257 1.255 0 2.313.5562 3.062 1.3092zm7.741 1.2496h2.837v-2.833h-2.837v-3.6158l-3.367.5285v3.0873l-2.31.2781v2.5549h2.31v6.1509c0 2.3065 1.001 4.0012 3.617 4.0012.947 0 2.059-.1669 2.699-.4172l-.056-2.9165c-.473.1391-1.056.2225-1.501.2225-.891 0-1.392-.4172-1.392-1.3629zm11.442 7.2912c-1.84 0-2.786-1.0311-2.87-2.7019h7.656c.139-.5265.223-1.4999.223-2.1933 0-2.7575-1.474-5.5071-5.371-5.5071-3.925 0-5.9 3.0277-5.9 6.6177 0 3.8681 1.863 6.6455 6.262 6.6455 2.034 0 3.73-.8603 4.703-1.8338l-1.585-2.1972c-.945.7807-2.088 1.1701-3.118 1.1701zm-2.842-5.0899c.084-1.4483.808-2.6185 2.48-2.6185 1.197 0 2.257.6974 2.257 2.2013 0 .0834-.028.2503-.056.4172zm10.834 7.6448h3.364v-8.9282c.641-.5007 1.42-.9457 2.48-.9457 1.197 0 1.921.5285 2.34 1.2238v8.6501h3.365v-8.9282c.529-.5007 1.42-.9457 2.563-.9457 1.559 0 2.118.7232 2.118 1.947v7.9269h3.392v-8.205c0-3.0854-1.334-4.7522-4.535-4.7522-2.229 0-3.705.9715-4.401 1.8615-.777-1.0827-1.835-1.8615-3.868-1.8615-1.783 0-2.869.89-3.565 1.7224v-1.4443h-3.253zm32.651-11.0957c-.835-.9178-2.281-1.8615-4.786-1.8615-3.842 0-5.206 2.2489-5.206 4.0866 0 1.8357 1.114 3.143 3.339 3.6992l2.201.5285c.863.1967 1.281.6417 1.281 1.198 0 .8344-.808 1.2516-1.949 1.2516-1.589 0-2.675-.8622-3.397-1.641l-1.92 2.0026c.807.9993 2.447 2.1377 5.176 2.1377 4.148 0 5.512-2.0543 5.512-4.0569 0-1.8377-1.086-3.2005-3.617-3.7568l-2.118-.5007c-.807-.1668-1.169-.6119-1.169-1.196 0-.6695.557-1.2257 1.728-1.2257 1.253 0 2.31.5562 3.062 1.3092z" fill="#000"/></svg>