<svg fill="none" height="227" viewBox="0 0 605 227" width="605" xmlns="http://www.w3.org/2000/svg"><path d="m83.6719 70.547 66.5251 101.374c.628.963 3.346 1.925 3.242 1.139l-9.829-70.908c-.602-4.3598-.115-8.8168 1.41-12.8991s4.031-7.6381 7.253-10.291l24.473-20.079c.527-.4455 4.551-8.9363-4.364-8.2913l-76.0697.5559c-15.6196.1839-20.43 7.5779-12.6404 19.3995z" fill="#282a29"/><g fill="#c2380e"><path d="m494.97 156.246c2.222 0 4.343-.051 6.363-.152 2.019-.101 3.635-.252 4.847-.454v-17.118c-.909-.202-2.272-.404-4.09-.606s-3.484-.303-4.999-.303c-2.121 0-4.141.152-6.059.455-1.818.202-3.434.656-4.848 1.363s-2.524 1.667-3.332 2.878c-.808 1.212-1.212 2.727-1.212 4.545 0 3.535 1.161 6.009 3.484 7.423 2.424 1.312 5.706 1.969 9.846 1.969zm-1.818-66.0468c6.666 0 12.22.7574 16.664 2.2723 4.443 1.5148 7.978 3.6861 10.603 6.5137 2.727 2.8278 4.646 6.2618 5.757 10.3008 1.111 4.04 1.666 8.534 1.666 13.482v46.96c-3.232.707-7.726 1.515-13.482 2.424-5.756 1.009-12.724 1.514-20.905 1.514-5.15 0-9.846-.454-14.088-1.363-4.14-.909-7.725-2.373-10.755-4.393-3.029-2.121-5.352-4.847-6.968-8.18s-2.424-7.423-2.424-12.27c0-4.646.909-8.584 2.727-11.816 1.919-3.231 4.443-5.807 7.574-7.725 3.131-1.919 6.716-3.283 10.755-4.091 4.04-.908 8.231-1.363 12.573-1.363 2.929 0 5.504.152 7.726.455 2.323.202 4.191.505 5.605.908v-2.12c0-3.838-1.161-6.918-3.484-9.241-2.323-2.322-6.362-3.484-12.119-3.484-3.837 0-7.624.303-11.361.909-3.737.505-6.968 1.262-9.695 2.272l-2.878-18.1777c1.313-.404 2.929-.8079 4.847-1.2119 2.02-.5049 4.191-.9089 6.514-1.2118 2.323-.404 4.747-.707 7.271-.9089 2.626-.303 5.252-.4545 7.877-.4545z"/><path d="m454.115 112.315c-2.02-.505-4.393-1.009-7.12-1.514-2.727-.606-5.655-.909-8.786-.909-1.414 0-3.13.151-5.15.454-1.919.202-3.383.455-4.393.758v60.896h-22.571v-75.4388c4.039-1.4139 8.786-2.7267 14.239-3.9386 5.555-1.3129 11.715-1.9693 18.481-1.9693 1.212 0 2.676.101 4.393.303 1.717.101 3.434.3029 5.151.6059 1.716.202 3.433.505 5.15.9089 1.717.303 3.181.7069 4.393 1.2119z"/><path d="m340.028 72.4754 22.571-3.6356v23.4799h27.115v18.7843h-27.115v28.024c0 4.747.808 8.534 2.424 11.361 1.716 2.828 5.099 4.242 10.149 4.242 2.424 0 4.898-.202 7.423-.606 2.625-.505 4.999-1.162 7.119-1.969l3.181 17.572c-2.726 1.11-5.756 2.07-9.089 2.878-3.332.808-7.422 1.212-12.27 1.212-6.16 0-11.26-.808-15.299-2.424-4.04-1.717-7.272-4.04-9.695-6.968-2.424-3.03-4.141-6.666-5.151-10.907-.909-4.242-1.363-8.938-1.363-14.088z"/><path d="m326.666 173.515c-6.564-.101-11.916-.808-16.057-2.121-4.039-1.313-7.271-3.13-9.695-5.453-2.322-2.424-3.938-5.302-4.847-8.635-.808-3.433-1.212-7.271-1.212-11.512v-87.7092l22.571-3.6356v86.7998c0 2.02.151 3.838.454 5.453.303 1.616.859 2.98 1.667 4.09.909 1.111 2.171 2.02 3.787 2.727s3.787 1.162 6.514 1.364z"/><path d="m224.142 54.4492c4.242 0 7.726.3535 10.452 1.0604 2.828.7069 5.201 1.4643 7.12 2.2722l-3.938 17.7236c-1.616-.7069-3.434-1.2119-5.454-1.5149-1.919-.3029-3.888-.4544-5.908-.4544-2.726 0-5.049.4039-6.968 1.2119-1.818.7069-3.282 1.7168-4.393 3.0296-1.01 1.3129-1.767 2.8782-2.272 4.696-.404 1.8178-.606 3.7871-.606 5.9078v3.9386h27.873v18.784h-27.873v60.896h-22.571v-83.9215c0-10.3009 2.878-18.481 8.635-24.5403 5.857-6.0593 14.491-9.089 25.903-9.089zm51.504 117.5508h-22.571v-79.68h22.571zm2.121-102.7054c0 4.1405-1.363 7.4226-4.09 9.8464-2.626 2.3227-5.756 3.4841-9.392 3.4841-3.635 0-6.817-1.1614-9.543-3.4841-2.626-2.4238-3.939-5.7059-3.939-9.8464 0-4.1406 1.313-7.3722 3.939-9.695 2.726-2.4237 5.908-3.6356 9.543-3.6356 3.636 0 6.766 1.2119 9.392 3.6356 2.727 2.3228 4.09 5.5544 4.09 9.695z"/></g></svg>