<svg fill="none" height="60" viewBox="0 0 302 60" width="302" xmlns="http://www.w3.org/2000/svg" xmlns:xlink="http://www.w3.org/1999/xlink"><mask id="a" height="60" maskUnits="userSpaceOnUse" width="232" x="35" y="0"><path d="m266.714 0h-231.4284v60h231.4284z" fill="#fff"/></mask><g fill="#000" mask="url(#a)"><path d="m66.9019 53.1377v-7.1147c0-.1444-.1198-.2529-.2518-.2529h-2.9852c-.144 0-.2518-.1204-.2518-.2528v-2.9974c0-.1447-.12-.2529-.2518-.2529h-20.4658c-.1438 0-.2517-.1204-.2517-.2529v-2.9734c0-.1446-.1199-.2528-.2518-.2528h-2.9853c-.1439 0-.2518-.1205-.2518-.2529v-2.9734c0-.1447-.1199-.2529-.2518-.2529h-2.9733c-.1439 0-.2518-.1204-.2518-.2528v-6.5008c0-.1445.1199-.2529.2518-.2529h2.9613c.1439 0 .2518-.1204.2518-.2528v-3.5994c0-.1444.1199-.2529.2518-.2529h4.1363c.1439 0 .2518.1205.2518.2529v7.1147c0 .1444.1198.2529.2517.2529h1.8224c.1439 0 .2518.1204.2518.2526v2.9977c0 .1444.1199.2528.2518.2528h20.4416c.144 0 .2518.1204.2518.2529v2.9734c0 .1444.12.2529.2517.2529h2.9855c.1438 0 .2518.1204.2518.2528v2.9734c0 .1445.1197.2529.2517.2529h2.9853c.1437 0 .2517.1204.2517.2529v6.5007c0 .1445-.1197.2529-.2517.2529h-2.9853c-.144 0-.2517.1202-.2517.2526v3.5996c0 .1444-.12.2529-.2518.2529h-2.9855c-.1437 0-.2517-.1205-.2517-.2529z"/><path d="m70.1384 53.5832h-2.9853c-.2397 0-.4435-.1927-.4435-.4453v-7.1149s-.036-.0723-.072-.0723h-2.9855c-.2397 0-.4435-.1926-.4435-.4452v-2.9977s-.036-.0722-.0718-.0722h-20.4418c-.2398 0-.4436-.1926-.4436-.4455v-2.9734s-.036-.0722-.0719-.0722h-2.9853c-.2398 0-.4437-.1927-.4437-.4455v-2.9735s-.0359-.0722-.0719-.0722h-2.9494c-.2397 0-.4436-.1926-.4436-.4455v-6.5008c0-.2408.1919-.4455.4436-.4455h2.9614s.0719-.036.0719-.0722v-3.5996c0-.2406.1919-.4452.4436-.4452h4.1363c.2398 0 .4436.1926.4436.4452v7.115s.036.0722.072.0722h1.8223c.2398 0 .4436.1926.4436.4453v2.9976s.036.0722.072.0722h20.4417c.2398 0 .4435.1927.4435.4455v2.9735s.036.0722.072.0722h2.9853c.2397 0 .4435.1926.4435.4455v2.9734s.036.0722.072.0722h2.9855c.2397 0 .4435.1927.4435.4455v6.5008c0 .2409-.1918.4455-.4435.4455h-2.9855s-.072.036-.072.0722v3.5996c0 .2406-.1918.4453-.4435.4453zm-34.4092-25.1484s-.0719.036-.0719.0722v6.5008s.036.0722.0719.0722h2.9614c.2398 0 .4436.1927.4436.4455v2.9735s.036.0722.0719.0722h2.9854c.2397 0 .4436.1926.4436.4455v2.9734s.0359.0722.0719.0722h20.4416c.2398 0 .4438.1927.4438.4455v2.9977s.0357.0722.0717.0722h2.9855c.2398 0 .4435.1926.4435.4453v7.1149s.036.0722.072.0722h2.9853s.072-.0362.072-.0722v-3.5996c0-.2408.1917-.4455.4435-.4455h2.9855s.0717-.036.0717-.0722v-6.5008s-.036-.0722-.0717-.0722h-2.9855c-.2398 0-.4435-.1926-.4435-.4455v-2.9734s-.036-.0722-.072-.0722h-2.9853c-.2397 0-.4435-.1927-.4435-.4455v-2.9735s-.036-.0722-.072-.0722h-20.4537c-.2398 0-.4436-.1926-.4436-.4455v-2.9976s-.036-.0722-.072-.0722h-1.8223c-.2398 0-.4436-.1927-.4436-.4453v-7.115s-.036-.0722-.072-.0722h-4.1363s-.0719.0362-.0719.0722v3.5996c0 .2409-.1918.4455-.4436.4455z"/><path d="m43.2226 59.0247v-2.9974c0-.1444-.1199-.2529-.2518-.2529h-2.9853c-.1439 0-.2518-.1204-.2518-.2528v-2.9977c0-.1444-.1199-.2526-.2517-.2526h-2.9734c-.1439 0-.2518-.1204-.2518-.2529v-6.5007c0-.1445.1199-.2529.2518-.2529h2.9614c.1438 0 .2517-.1204.2517-.2529v-2.9976c0-.1444.1199-.2526.2518-.2526h2.9853c.1439 0 .2518.1204.2518.2526v10.0161c0 .1445.1199.2529.2518.2529h2.9853c.1439 0 .2518.1204.2518.2529v2.9974c0 .1446.1199.2528.2517.2528h16.9529c.1438 0 .2518.1205.2518.2529v2.9976c0 .1445-.12.2527-.2518.2527h-20.4177c-.1439 0-.2518-.1202-.2518-.2527z"/><path d="m63.9269 59.4585h-20.4416c-.2398 0-.4436-.1926-.4436-.4454v-2.9977s-.036-.0722-.0719-.0722h-2.9854c-.2397 0-.4435-.1927-.4435-.4455v-2.9974s-.036-.0723-.072-.0723h-2.9613c-.2398 0-.4436-.1926-.4436-.4455v-6.5007c0-.2409.1918-.4455.4436-.4455h2.9613s.072-.036.072-.0723v-2.9976c0-.2406.1918-.4453.4435-.4453h2.9854c.2398 0 .4436.1927.4436.4453v10.0161s.0359.0723.0719.0723h2.9853c.2398 0 .4436.1926.4436.4455v2.9974s.036.0722.072.0722h16.9527c.2398 0 .4436.1926.4436.4455v2.9977c0 .2406-.1918.4454-.4436.4454zm-27.4193-14.037s-.072.036-.072.0723v6.5007s.036.0723.072.0723h2.9613c.2398 0 .4436.1926.4436.4455v2.9976s.036.0722.0719.0722h2.9854c.2398 0 .4436.1927.4436.4453v2.9977s.0359.0722.0719.0722h20.4416s.072-.036.072-.0722v-2.9977s-.036-.0722-.072-.0722h-16.9527c-.2398 0-.4436-.1927-.4436-.4453v-2.9976s-.036-.0723-.072-.0723h-2.9853c-.2398 0-.4436-.1926-.4436-.4455v-10.0161s-.036-.0722-.0719-.0722h-2.9853s-.072.0362-.072.0722v2.9976c0 .2409-.1918.4455-.4436.4455z"/><path d="m70.5949.180542h-27.4435c-.1439 0-.2518.120385-.2518.252809v2.997589c0 .14447-.1199.25281-.2518.25281h-2.9853c-.1438 0-.2517.12039-.2517.25282v2.99757c0 .14448-.1199.25282-.2518.25282h-2.9853c-.1439 0-.2518.12038-.2518.25281v9.99193c0 .1445.1199.2529.2518.2529h2.9613c.1439 0 .2518.1203.2518.2528v2.9976c0 .1444.1199.2528.2517.2528h2.9854c.1438 0 .2518.1204.2518.2528v2.9977c0 .1444.1198.2526.2517.2526h16.9529c.1438 0 .2518-.1202.2518-.2526v-2.9977c0-.1445.1198-.2528.2518-.2528h2.9852c.144 0 .2518-.1204.2518-.2528v-2.9976c0-.1445.12-.2528.2517-.2528h2.9855c.1438 0 .2515-.1204.2515-.2529v-9.96786c0-.14445-.1197-.2528-.2515-.2528h-2.9855c-.1437 0-.2517-.12038-.2517-.25281v-2.9976c0-.14445.12-.25279.2517-.25279h6.4743c.1437 0 .2517-.12039.2517-.25282v-3.009631c0-.144462-.12-.252808-.2517-.252808zm-10.2388 17.275258c0 .1445-.12.2528-.2518.2528h-2.9614c-.1438 0-.2518.1204-.2518.2528v2.9976c0 .1445-.1198.2529-.2518.2529h-9.9751c-.1438 0-.2517-.1204-.2517-.2529v-2.9976c0-.1444-.1199-.2528-.2518-.2528h-2.9853c-.1439 0-.2518-.1204-.2518-.2528v-9.99196c0-.14445.1199-.2528.2518-.2528h2.9853c.1439 0 .2518-.12038.2518-.25281v-2.9976c0-.14445.1199-.25279.2517-.25279h9.9751c.1438 0 .2518.12038.2518.25279v2.9976c0 .14447.12.25281.2518.25281h2.9614c.1438 0 .2518.12039.2518.2528z"/><path d="m60.1036 24.9317h-16.9528c-.2397 0-.4436-.1926-.4436-.4453v-2.9976s-.0359-.0723-.0719-.0723h-2.9853c-.2398 0-.4436-.1926-.4436-.4454v-2.9976s-.036-.0722-.072-.0722h-2.9613c-.2398 0-.4436-.1926-.4436-.4454v-9.99201c0-.24077.1918-.44543.4436-.44543h2.9613s.072-.03611.072-.07224v-2.99758c0-.24077.1918-.44543.4436-.44543h2.9853s.0719-.03611.0719-.07224v-2.985545c0-.24077.2039-.445425.4436-.445425h27.4433c.2398 0 .4438.192616.4438.445425v2.997585c0 .24078-.192.44544-.4438.44544h-6.474s-.072.03611-.072.07221v2.9976s.036.07224.072.07224h2.9853c.2397 0 .4435.19262.4435.44541v9.99199c0 .2408-.1918.4454-.4435.4454h-2.9853s-.072.0361-.072.0723v2.9975c0 .2408-.1917.4455-.4435.4455h-2.9855s-.0717.0362-.0717.0722v2.9976c0 .2407-.192.4453-.4438.4453zm-23.9305-17.54004s-.0719.0361-.0719.07223v9.99201s.0359.0722.0719.0722h2.9613c.2398 0 .4436.1926.4436.4454v2.9976s.036.0722.072.0722h2.9853c.2398 0 .4436.1926.4436.4455v2.9976s.036.0722.0719.0722h16.9528s.072-.0362.072-.0722v-2.9976c0-.2408.1918-.4455.4435-.4455h2.9855s.0718-.0361.0718-.0722v-2.9976c0-.2408.192-.4454.4437-.4454h2.9853s.072-.0361.072-.0722v-9.99201s-.036-.07223-.072-.07223h-2.9853c-.2397 0-.4437-.19262-.4437-.44544v-2.99758c0-.24077.192-.44543.4437-.44543h6.474s.072-.03611.072-.07224v-2.985545s-.036-.072231-.072-.072231h-27.4433s-.0719.036115-.0719.072231v2.997585c0 .24078-.1918.44544-.4436.44544h-2.9853s-.072.03611-.072.07221v2.9976c0 .24078-.1918.44544-.4436.44544h-2.9613zm20.4537 14.02484h-9.9751c-.2398 0-.4436-.1926-.4436-.4454v-2.9976s-.036-.0722-.0719-.0722h-2.9854c-.2397 0-.4436-.1926-.4436-.4454v-9.99201c0-.24077.1919-.44543.4436-.44543h2.9854s.0719-.03611.0719-.07224v-2.99758c0-.24077.1918-.44543.4436-.44543h9.9751c.2398 0 .4436.19262.4436.44543v2.99758s.036.07224.072.07224h2.9612c.2398 0 .4438.19262.4438.44543v9.99201c0 .2407-.192.4454-.4438.4454h-2.9612s-.072.0361-.072.0722v2.9976c0 .2408-.1918.4454-.4436.4454zm-13.476-14.02484s-.0719.0361-.0719.07223v9.99201s.036.0722.0719.0722h2.9854c.2398 0 .4436.1926.4436.4454v2.9976s.0359.0722.0719.0722h9.9751s.0719-.0361.0719-.0722v-2.9976c0-.2408.1919-.4454.4437-.4454h2.9612s.072-.0361.072-.0722v-9.99201s-.036-.07223-.072-.07223h-2.9612c-.2398 0-.4437-.19262-.4437-.44544v-2.99758s-.036-.07223-.0719-.07223h-9.9751s-.0719.0361-.0719.07223v2.99758c0 .24077-.1919.44544-.4436.44544z"/><path d="m67.1074 52.7889h-2.9972c-.1391 0-.2518.1132-.2518.2527v3.0096c0 .1397.1127.2529.2518.2529h2.9972c.1391 0 .2518-.1132.2518-.2529v-3.0096c0-.1395-.1127-.2527-.2518-.2527z"/><path d="m67.095 56.4847h-2.9852c-.2398 0-.4438-.1927-.4438-.4453v-2.9976c0-.2409.192-.4455.4438-.4455h2.9852c.2398 0 .4436.1926.4436.4455v2.9976c0 .2406-.1918.4453-.4436.4453zm-2.9852-3.5032s-.072.0363-.072.0723v2.9976s.036.0722.072.0722h2.9852s.072-.0362.072-.0722v-2.9976s-.036-.0723-.072-.0723z"/><path d="m83.688 38.7639c-.2876 0-.5156-.2286-.5156-.5175v-2.4559c0-.2889-.2278-.5177-.5153-.5177h-2.4699c-.2878 0-.5156-.2287-.5156-.5175v-2.48c0-.289-.2278-.5177-.5155-.5177h-2.4697c-.2878 0-.5156-.2288-.5156-.5177v-5.9951c0-.289-.2277-.5177-.5155-.5177h-2.4459c-.2878 0-.5156-.2288-.5156-.5177v-9.4863c0-.289.2278-.5177.5156-.5177h2.4459c.2878 0 .5155-.2287.5155-.5176v-5.99521c0-.28895.2278-.51767.5156-.51767h2.4697c.2877 0 .5155.22872.5155.51767v2.47991c0 .2889.2278.5177.5156.5177h19.9378c.288 0 .516-.2288.516-.5177v-2.47991c0-.28895-.228-.51767-.516-.51767h-2.4694c-.2878 0-.5156-.22873-.5156-.51765v-2.47993c0-.28892-.2278-.51767-.5156-.51767h-12.9364c-.2876 0-.5156-.22873-.5156-.51765v-2.443821c0-.288925.228-.517657.5156-.517657h16.437c.288 0 .516.228732.516.517657v2.479921c0 .28895.228.51767.515.51767h2.47c.288 0 .516.22873.516.51765v2.47993c0 .28895.228.51767.515.51767h2.47c.288 0 .516.22873.516.51765v5.99521c0 .2889-.228.5176-.516.5176h-26.9278c-.2878 0-.5156.2288-.5156.5177v9.4864c0 .2889.2278.5175.5156.5175h2.4699c.2875 0 .5153.2289.5153.5177v5.9953c0 .2889.2278.5175.5156.5175h2.4698c.2878 0 .5156.2289.5156.5177v2.48c0 .2888.2278.5177.5156.5177h12.936c.288 0 .516.2286.516.5177v2.4557c0 .2891-.228.5177-.516.5177h-16.437zm-3.4888-31.55286c-.2878 0-.5156-.22872-.5156-.51767v-2.47993c0-.28892.2278-.51765.5156-.51765h2.4699c.2875 0 .5153.22873.5153.51765v2.47993c0 .28895-.2278.51767-.5153.51767zm20.9568 28.07396c-.287 0-.515-.2289-.515-.5177v-2.48c0-.289.228-.5177.515-.5177h2.47c.288 0 .516.2287.516.5177v2.48c0 .2888-.228.5177-.516.5177zm3.501-3.5154c-.287 0-.515-.2286-.515-.5177v-2.4799c0-.2889.228-.5175.515-.5175h2.47c.288 0 .516.2286.516.5175v2.4799c0 .2891-.228.5177-.516.5177z"/><path d="m100.125 38.9567h-16.4372c-.3838 0-.6953-.3131-.6953-.6983v-2.4558c0-.1806-.144-.337-.3358-.337h-2.4699c-.3836 0-.6953-.3131-.6953-.6984v-2.4799c0-.1807-.1438-.3371-.3356-.3371h-2.4699c-.3835 0-.6953-.3131-.6953-.6981v-5.9953c0-.1807-.1438-.3371-.3358-.3371h-2.4457c-.3837 0-.6955-.3131-.6955-.6981v-9.4865c0-.3852.3118-.6982.6955-.6982h2.4457c.18 0 .3358-.1444.3358-.3371v-5.99514c0-.38524.3118-.69825.6953-.69825h2.4699c.3836 0 .6953.31301.6953.69825v2.47994c0 .1806.1438.3371.3356.3371h19.9382c.18 0 .336-.1445.336-.3371v-2.47994c0-.18057-.144-.33709-.336-.33709h-2.4698c-.3836 0-.6954-.31301-.6954-.69823v-2.47993c0-.18057-.1438-.33709-.3356-.33709h-12.9364c-.3838 0-.6953-.31298-.6953-.69823v-2.455855c0-.385234.3115-.698235.6953-.698235h16.4372c.384 0 .695.313001.695.698235v2.479945c0 .18058.144.33707.336.33707h2.47c.384 0 .695.31301.695.69823v2.47995c0 .18056.144.33707.336.33707h2.47c.383 0 .695.31301.695.69823v5.99517c0 .3852-.312.6983-.695.6983h-26.9282c-.1798 0-.3356.1444-.3356.337v9.4864c0 .1806.1438.337.3356.337h2.4699c.3835 0 .6953.3131.6953.6984v5.9951c0 .1806.1438.337.3358.337h2.4697c.3837 0 .6953.3131.6953.6984v2.4799c0 .1805.144.3371.3358.3371h12.9364c.384 0 .695.3129.695.6981v2.456c0 .385-.311.6981-.695.6981zm-26.9038-24.5466c-.18 0-.3357.1445-.3357.3371v9.4864c0 .1806.1437.337.3357.337h2.4457c.3838 0 .6953.3131.6953.6982v5.9953c0 .1806.144.337.3358.337h2.4699c.3836 0 .6953.3131.6953.6982v2.4799c0 .1807.1438.3371.3356.3371h2.4699c.3835 0 .6953.3131.6953.6983v2.456c0 .1804.1438.337.3358.337h16.4372c.18 0 .336-.1446.336-.337v-2.456c0-.1806-.144-.337-.336-.337h-12.9364c-.3836 0-.6954-.3131-.6954-.6984v-2.4799c0-.1804-.1437-.3371-.3357-.3371h-2.4697c-.3838 0-.6953-.3128-.6953-.6981v-5.9953c0-.1804-.144-.3371-.3358-.3371h-2.4699c-.3836 0-.6953-.3128-.6953-.6981v-9.4864c0-.3852.3117-.6982.6953-.6982h26.9282c.18 0 .335-.1445.335-.3371v-5.99521c0-.18058-.143-.33708-.335-.33708h-2.47c-.384 0-.695-.313-.695-.69822v-2.47995c0-.18058-.144-.33708-.336-.33708h-2.47c-.384 0-.695-.313-.695-.69822v-2.467905c0-.180579-.144-.33708-.336-.33708h-16.4372c-.18 0-.3358.144463-.3358.33708v2.479945c0 .18058.144.33707.3358.33707h12.9364c.3836 0 .6954.31301.6954.69823v2.47995c0 .18056.1438.33707.3356.33707h2.4698c.384 0 .695.31301.695.69823v2.47997c0 .3852-.311.6982-.695.6982h-19.9382c-.3836 0-.6953-.313-.6953-.6982v-2.47997c0-.18058-.1438-.33707-.3356-.33707h-2.4699c-.1798 0-.3358.14445-.3358.33707v5.99517c0 .3852-.3115.6983-.6953.6983h-2.4457zm30.4048 21.0555h-2.47c-.384 0-.695-.3131-.695-.6984v-2.4799c0-.3853.311-.6982.695-.6982h2.47c.384 0 .695.3129.695.6982v2.4799c0 .3853-.311.6984-.695.6984zm-2.47-3.5154c-.18 0-.336.1444-.336.3371v2.4799c0 .1807.144.3371.336.3371h2.47c.18 0 .336-.1444.336-.3371v-2.4799c0-.1807-.144-.3371-.336-.3371zm5.971 0h-2.47c-.384 0-.695-.3131-.695-.6981v-2.48c0-.3852.311-.6983.695-.6983h2.47c.383 0 .695.3131.695.6983v2.48c0 .385-.312.6981-.695.6981zm-2.47-3.5151c-.18 0-.336.1444-.336.337v2.48c0 .1804.144.337.336.337h2.47c.18 0 .335-.1444.335-.337v-2.48c0-.1806-.143-.337-.335-.337zm-21.9883-21.04344h-2.4699c-.3836 0-.6953-.31301-.6953-.69823v-2.47995c0-.38522.3117-.69823.6953-.69823h2.4699c.3835 0 .6953.31301.6953.69823v2.47995c0 .38522-.3118.69823-.6953.69823zm-2.4699-3.51525c-.1798 0-.3356.14445-.3356.33707v2.47995c0 .18056.1438.33707.3356.33707h2.4699c.1798 0 .3358-.14447.3358-.33707v-2.47995c0-.18058-.144-.33707-.3358-.33707z"/><path d="m122.003.180542c.288 0 .516.228732.516.517658v2.47992c0 .28895.228.51768.515.51768h2.47c.288 0 .516.22872.516.51765v2.47992c0 .28895-.228.51768-.516.51768h-2.47c-.287 0-.515.22872-.515.51765v27.0386c0 .2888.228.5177.515.5177h2.47c.288 0 .516.2286.516.5175v2.4559c0 .2889-.228.5177-.516.5177h-12.493c-.287 0-.515-.2288-.515-.5177v-2.4559c0-.2889.228-.5175.515-.5175h2.446c.288 0 .516-.2289.516-.5177v-27.05065c0-.28892-.228-.51765-.516-.51765h-2.446c-.287 0-.515-.22873-.515-.51765v-2.47995c0-.28892.228-.51765.515-.51765h2.446c.288 0 .516-.22873.516-.51765v-2.4679c0-.288926.227-.517658.515-.517658h2.014 1.031zm16.737 38.583358c-.288 0-.515-.2286-.515-.5175v-2.4559c0-.2889.227-.5177.515-.5177h2.47c.288 0 .515-.2287.515-.5175v-27.03865c0-.28892-.227-.51765-.515-.51765h-2.47c-.288 0-.515-.22873-.515-.51765v-2.47995c0-.28892-.228-.51765-.516-.51765h-11.186c-.288 0-.515-.22873-.515-.51765v-2.4679c0-.288926.227-.517658.515-.517658h14.687c.288 0 .515.228732.515.517658v2.47992c0 .28895.228.51768.516.51768h2.47c.288 0 .515.22872.515.51765v2.47992c0 .28895.228.51768.516.51768h2.014c.288 0 .516.22872.516.51765v27.0386c0 .2888.227.5177.515.5177h2.47c.288 0 .515.2286.515.5175v2.4559c0 .2889-.227.5177-.515.5177h-12.505z"/><path d="m151.256 38.9567h-12.505c-.383 0-.695-.3131-.695-.6983v-2.4558c0-.3852.312-.6983.695-.6983h2.47c.18 0 .336-.1444.336-.3371v-27.05051c0-.18058-.144-.33708-.336-.33708h-2.47c-.383 0-.695-.313-.695-.69822v-2.47995c0-.18058-.144-.33708-.335-.33708h-11.186c-.384 0-.696-.313-.696-.69822v-2.467905c0-.385234.312-.698235.696-.698235h14.686c.384 0 .696.313001.696.698235v2.479945c0 .18058.144.33707.335.33707h2.47c.384 0 .696.31301.696.69823v2.47995c0 .18056.143.33707.335.33707h2.015c.383 0 .695.31301.695.69823v27.03847c0 .1807.144.3371.335.3371h2.47c.384 0 .696.3131.696.6983v2.4558c0 .3852-.312.6983-.696.6983zm-12.517-3.4911c-.179 0-.335.1444-.335.337v2.4558c0 .1806.144.337.335.337h12.505c.18 0 .336-.1444.336-.337v-2.4558c0-.1806-.144-.337-.336-.337h-2.469c-.384 0-.696-.3131-.696-.6984v-27.05051c0-.18058-.144-.33708-.335-.33708h-2.015c-.383 0-.695-.313-.695-.69822v-2.47995c0-.18058-.144-.33708-.336-.33708h-2.47c-.383 0-.695-.313-.695-.69822v-2.467905c0-.180579-.144-.33708-.336-.33708h-14.686c-.18 0-.336.144463-.336.33708v2.479945c0 .18058.144.33707.336.33707h11.186c.383 0 .695.31301.695.69823v2.47995c0 .18056.144.33707.336.33707h2.469c.384 0 .696.31301.696.69823v27.03847c0 .3853-.312.6984-.696.6984h-2.469zm-13.248 3.4911h-12.492c-.384 0-.696-.3131-.696-.6983v-2.4558c0-.3852.312-.6983.696-.6983h2.445c.18 0 .336-.1444.336-.3371v-27.05051c0-.18058-.144-.33708-.336-.33708h-2.445c-.384 0-.696-.313-.696-.69822v-2.47995c0-.38523.312-.69823.696-.69823h2.445c.18 0 .336-.14445.336-.33707v-2.467905c0-.385234.312-.698235.696-.698235h5.515c.383 0 .695.313001.695.698235v2.479945c0 .18058.144.33707.336.33707h2.469c.384 0 .696.31301.696.69823v2.47995c0 .38522-.312.69823-.696.69823h-2.469c-.18 0-.336.14445-.336.33707v27.03847c0 .1807.144.3371.336.3371h2.469c.384 0 .696.3131.696.6983v2.4558c0 .3852-.312.6983-.696.6983zm-12.48-3.4911c-.18 0-.336.1444-.336.337v2.4558c0 .1806.144.337.336.337h12.492c.18 0 .336-.1444.336-.337v-2.4558c0-.1806-.144-.337-.336-.337h-2.469c-.384 0-.696-.3131-.696-.6984v-27.05051c0-.38523.312-.69823.696-.69823h2.469c.18 0 .336-.14445.336-.33707v-2.47995c0-.18058-.144-.33708-.336-.33708h-2.469c-.384 0-.696-.313-.696-.69822v-2.467905c0-.180579-.144-.33708-.335-.33708h-5.515c-.18 0-.336.156501-.336.33708v2.479945c0 .38522-.312.69823-.696.69823h-2.445c-.18 0-.336.14445-.336.33707v2.47995c0 .18056.144.33707.336.33707h2.445c.384 0 .696.31301.696.69823v27.03847c0 .3853-.312.6984-.696.6984z"/><path d="m236.767.180542c.288 0 .516.228732.516.517658v2.47992c0 .28895.228.51768.515.51768h2.47c.288 0 .516.22872.516.51765v2.47992c0 .28895-.228.51768-.516.51768h-2.47c-.287 0-.515.22872-.515.51765v27.0386c0 .2888.228.5177.515.5177h2.47c.288 0 .516.2286.516.5175v2.4559c0 .2889-.228.5177-.516.5177h-12.493c-.287 0-.515-.2288-.515-.5177v-2.4559c0-.2889.228-.5175.515-.5175h2.446c.288 0 .516-.2289.516-.5177v-27.05065c0-.28892-.228-.51765-.516-.51765h-2.446c-.287 0-.515-.22873-.515-.51765v-2.47995c0-.28892.228-.51765.515-.51765h2.446c.288 0 .516-.22873.516-.51765v-2.4679c0-.288926.227-.517658.515-.517658h2.014 1.032zm16.749 38.583358c-.287 0-.516-.2286-.516-.5175v-2.4559c0-.2889.229-.5177.516-.5177h2.469c.289 0 .516-.2287.516-.5175v-27.03865c0-.28892-.227-.51765-.516-.51765h-2.469c-.287 0-.516-.22873-.516-.51765v-2.47995c0-.28892-.227-.51765-.514-.51765h-11.187c-.288 0-.515-.22873-.515-.51765v-2.4679c0-.288926.227-.517658.515-.517658h14.686c.289 0 .516.228732.516.517658v2.47992c0 .28895.228.51768.517.51768h2.468c.288 0 .517.22872.517.51765v2.47992c0 .28895.227.51768.514.51768h2.014c.29 0 .517.22872.517.51765v27.0386c0 .2888.227.5177.516.5177h2.469c.287 0 .516.2286.516.5175v2.4559c0 .2889-.229.5177-.516.5177h-12.504z"/><path d="m266.02 38.9567h-12.504c-.383 0-.696-.3131-.696-.6983v-2.4558c0-.3852.313-.6983.696-.6983h2.469c.18 0 .336-.1444.336-.3371v-27.05051c0-.18058-.143-.33708-.336-.33708h-2.469c-.383 0-.696-.313-.696-.69822v-2.47995c0-.18058-.144-.33708-.334-.33708h-11.187c-.384 0-.696-.313-.696-.69822v-2.467905c0-.385234.312-.698235.696-.698235h14.686c.383 0 .696.313001.696.698235v2.479945c0 .18058.144.33707.337.33707h2.468c.384 0 .697.31301.697.69823v2.47995c0 .18056.143.33707.334.33707h2.014c.384 0 .697.31301.697.69823v27.03847c0 .1807.143.3371.334.3371h2.471c.383 0 .696.3131.696.6983v2.4558c0 .3852-.313.6983-.696.6983zm-12.504-3.4911c-.18 0-.336.1444-.336.337v2.4558c0 .1806.143.337.336.337h12.504c.18 0 .336-.1444.336-.337v-2.4558c0-.1806-.143-.337-.336-.337h-2.469c-.383 0-.696-.3131-.696-.6984v-27.05051c0-.18058-.144-.33708-.334-.33708h-2.015c-.383 0-.696-.313-.696-.69822v-2.47995c0-.18058-.144-.33708-.334-.33708h-2.471c-.384 0-.697-.313-.697-.69822v-2.467905c0-.180579-.143-.33708-.334-.33708h-14.687c-.18 0-.336.144463-.336.33708v2.479945c0 .18058.144.33707.336.33707h11.186c.383 0 .696.31301.696.69823v2.47995c0 .18056.144.33707.334.33707h2.471c.384 0 .694.31301.694.69823v27.03847c0 .3853-.31.6984-.694.6984h-2.471zm-13.248 3.4911h-12.493c-.384 0-.695-.3131-.695-.6983v-2.4558c0-.3852.311-.6983.695-.6983h2.446c.18 0 .335-.1444.335-.3371v-27.05051c0-.18058-.143-.33708-.335-.33708h-2.446c-.384 0-.695-.313-.695-.69822v-2.47995c0-.38523.311-.69823.695-.69823h2.446c.18 0 .335-.14445.335-.33707v-2.467905c0-.385234.312-.698235.696-.698235h5.515c.384 0 .695.313001.695.698235v2.479945c0 .18058.144.33707.336.33707h2.47c.383 0 .695.31301.695.69823v2.47995c0 .38522-.312.69823-.695.69823h-2.47c-.18 0-.336.14445-.336.33707v27.03847c0 .1807.144.3371.336.3371h2.47c.383 0 .695.3131.695.6983v2.4558c0 .3852-.312.6983-.695.6983zm-12.493-3.4911c-.18 0-.336.1444-.336.337v2.4558c0 .1806.144.337.336.337h12.493c.18 0 .335-.1444.335-.337v-2.4558c0-.1806-.143-.337-.335-.337h-2.47c-.384 0-.695-.3131-.695-.6984v-27.05051c0-.38523.311-.69823.695-.69823h2.47c.18 0 .335-.14445.335-.33707v-2.47995c0-.18058-.143-.33708-.335-.33708h-2.47c-.384 0-.695-.313-.695-.69822v-2.467905c0-.180579-.144-.33708-.336-.33708h-5.515c-.18 0-.336.156501-.336.33708v2.479945c0 .38522-.312.69823-.695.69823h-2.446c-.18 0-.336.14445-.336.33707v2.47995c0 .18056.144.33707.336.33707h2.446c.383 0 .695.31301.695.69823v27.03847c0 .3853-.312.6984-.695.6984z"/><path d="m160.215 38.7639c-.288 0-.516-.2286-.516-.5175v-2.4559c0-.2889-.227-.5177-.515-.5177h-2.446c-.288 0-.516-.2287-.516-.5175v-7.7529c0-.2888.228-.5177.516-.5177h2.446c.288 0 .515.2289.515.5177v4.2375c0 .2889.228.5177.516.5177h2.47c.287 0 .515.2287.515.5177v2.48c0 .2888.228.5175.516.5175h9.459c.288 0 .516-.2287.516-.5175v-2.48c0-.289.228-.5177.515-.5177h2.47c.288 0 .516-.2288.516-.5177v-5.9951c0-.289-.228-.5177-.516-.5177h-2.47c-.287 0-.515-.2288-.515-.5177v-2.4799c0-.2889-.228-.5176-.516-.5176h-5.97c-.288 0-.516-.2288-.516-.5177v-2.4799c0-.289-.228-.5177-.515-.5177h-5.971c-.288 0-.516-.2287-.516-.5177v-2.4558c0-.289-.227-.5177-.515-.5177h-2.446c-.288 0-.516-.2287-.516-.5176v-5.99521c0-.28895.228-.51767.516-.51767h2.446c.288 0 .515-.22873.515-.51765v-2.47993c0-.28892.228-.51767.516-.51767h2.47c.287 0 .515.22875.515.51767v5.99516c0 .2889.228.5177.516.5177h2.47c.287 0 .515.2287.515.5176v2.48c0 .2889.228.5176.516.5176h5.97c.288 0 .516.2287.516.5177v2.4558c0 .289.228.5177.515.5177h5.947c.288 0 .516.2287.516.5177v2.4799c0 .2889.227.5177.515.5177h2.47c.288 0 .515.2287.515.5176v9.4984c0 .2889-.227.5177-.515.5177h-2.47c-.288 0-.515.2287-.515.5175v2.48c0 .289-.228.5177-.516.5177h-2.446c-.287 0-.515.2288-.515.5177v2.4559c0 .2889-.228.5175-.516.5175h-16.461zm19.219-28.0496c-.288 0-.516-.2288-.516-.5177v-2.47995c0-.28892-.228-.51765-.515-.51765h-2.446c-.288 0-.516-.22873-.516-.51765v-2.47995c0-.28892-.227-.51765-.515-.51765h-11.21c-.288 0-.516-.22873-.516-.51765v-2.467901c0-.288925.228-.517657.516-.517657h14.687c.287 0 .515.228732.515.517657v2.479921c0 .28895.228.51767.516.51767h2.47c.287 0 .515.22873.515.51765v5.99516c0 .289-.228.5177-.515.5177h-2.47z"/><path d="m176.676 38.9567h-16.461c-.384 0-.695-.3131-.695-.6983v-2.4558c0-.1806-.144-.337-.336-.337h-2.446c-.384 0-.695-.3131-.695-.6984v-7.7528c0-.3851.311-.6982.695-.6982h2.446c.384 0 .695.3131.695.6982v4.2377c0 .1804.144.337.336.337h2.47c.383 0 .695.3129.695.6982v2.4799c0 .1807.144.3371.336.3371h9.459c.18 0 .336-.1444.336-.3371v-2.4799c0-.3853.312-.6982.695-.6982h2.47c.18 0 .336-.1444.336-.337v-5.9953c0-.1807-.144-.3371-.336-.3371h-2.47c-.383 0-.695-.3131-.695-.6981v-2.48c0-.1806-.144-.3371-.336-.3371h-5.97c-.384 0-.696-.313-.696-.6982v-2.48c0-.1806-.144-.3371-.335-.3371h-5.971c-.384 0-.695-.3129-.695-.6982v-2.4559c0-.1805-.144-.337-.336-.337h-2.446c-.384 0-.695-.313-.695-.6983v-5.99514c0-.38524.311-.69825.695-.69825h2.446c.18 0 .336-.14445.336-.33707v-2.47993c0-.38524.311-.69825.695-.69825h2.47c.383 0 .695.31301.695.69825v5.99519c0 .1806.144.3371.336.3371h2.47c.383 0 .695.313.695.6982v2.4799c0 .1806.144.3371.336.3371h5.97c.384 0 .696.313.696.6982v2.4559c0 .1806.143.3371.335.3371h5.947c.384 0 .695.313.695.6982v2.48c0 .1805.144.337.336.337h2.47c.383 0 .695.313.695.6983v9.4985c0 .385-.312.6981-.695.6981h-2.47c-.18 0-.336.1444-.336.3371v2.4799c0 .3853-.311.6982-.695.6982h-2.446c-.18 0-.336.1446-.336.337v2.456c0 .3852-.311.6983-.695.6983zm-19.938-12.2794c-.18 0-.336.1446-.336.3371v7.7528c0 .1807.144.3371.336.3371h2.446c.384 0 .695.3131.695.6983v2.4558c0 .1806.144.337.336.337h16.461c.18 0 .336-.1444.336-.337v-2.4558c0-.3852.312-.6983.695-.6983h2.446c.18 0 .336-.1444.336-.3371v-2.4799c0-.3853.311-.6982.695-.6982h2.47c.18 0 .336-.1444.336-.337v-9.4985c0-.1806-.144-.3371-.336-.3371h-2.47c-.384 0-.695-.313-.695-.6982v-2.4799c0-.1806-.144-.3371-.336-.3371h-5.947c-.383 0-.695-.313-.695-.6983v-2.4558c0-.1806-.144-.3371-.336-.3371h-5.97c-.384 0-.696-.313-.696-.6982v-2.48c0-.1805-.144-.337-.335-.337h-2.47c-.384 0-.696-.313-.696-.6983v-5.98312c0-.18058-.143-.33707-.335-.33707h-2.47c-.18 0-.336.14445-.336.33707v2.47995c0 .38522-.311.69823-.695.69823h-2.446c-.18 0-.336.14445-.336.33707v5.99517c0 .1806.144.3371.336.3371h2.446c.384 0 .695.313.695.6982v2.4559c0 .1806.144.3371.336.3371h5.971c.383 0 .695.313.695.6982v2.4799c0 .1806.144.3371.336.3371h5.97c.384 0 .696.313.696.6982v2.48c0 .1806.143.337.335.337h2.47c.384 0 .695.3131.695.6984v5.9951c0 .3853-.311.6981-.695.6981h-2.47c-.18 0-.335.1447-.335.3373v2.4799c0 .3851-.312.6982-.696.6982h-9.459c-.384 0-.696-.3131-.696-.6982v-2.4799c0-.1806-.143-.3373-.335-.3373h-2.47c-.384 0-.695-.3128-.695-.6981v-4.2375c0-.1807-.144-.3371-.336-.3371h-2.446zm25.165-15.7824h-2.469c-.384 0-.696-.313-.696-.6983v-2.47991c0-.18058-.144-.33708-.335-.33708h-2.446c-.384 0-.696-.313-.696-.69822v-2.47995c0-.18058-.143-.33708-.335-.33708h-11.21c-.384 0-.696-.313-.696-.69822v-2.467905c0-.385234.312-.698235.696-.698235h14.687c.383 0 .695.313001.695.698235v2.479945c0 .18058.144.33707.336.33707h2.469c.384 0 .696.31301.696.69823v5.99522c0 .3852-.312.6982-.696.6982zm-18.187-10.533745c-.18 0-.336.144463-.336.33708v2.479945c0 .18058.144.33707.336.33707h11.21c.383 0 .695.31301.695.69823v2.47995c0 .18056.144.33707.336.33707h2.446c.383 0 .695.31301.695.69823v2.47997c0 .1805.144.337.336.337h2.469c.18 0 .336-.1444.336-.337v-5.99522c0-.18058-.144-.33707-.336-.33707h-2.469c-.384 0-.696-.31301-.696-.69823v-2.479945c0-.180579-.144-.33708-.335-.33708z"/><path d="m201.622 45.2649v-14.7593c0-.2769-.228-.5055-.504-.5055h-2.493c-.276 0-.504-.2289-.504-.5058v-7.7768c0-.2769-.228-.5056-.504-.5056h-2.505c-.276 0-.504-.2288-.504-.5057v-7.7528c0-.2769-.228-.5056-.503-.5056h-2.482c-.276 0-.504-.2287-.504-.5056v-7.75284c0-.27688-.228-.50561-.503-.50561h-4.233c-.275 0-.503-.22873-.503-.50563v-2.491959c0-.276887.228-.505619.503-.505619h16.45c.275 0 .503.228732.503.505619v2.516049c0 .27688-.228.50563-.503.50563h-4.244c-.276 0-.504.22873-.504.5056v7.77686c0 .2769.228.5057.504.5057h2.493c.276 0 .504.2287.504.5056v7.7528c0 .2769.228.5056.504.5056h2.505c.276 0 .504.2286.504.5057v7.7769c0 .2768.228.5055.503.5055h2.494c.276 0 .504.2288.504.5057v7.7528c0 .2769-.228.5055-.504.5055h-2.494c-.275 0-.503.2289-.503.5057v5.9951c0 .2769-.228.5057-.504.5057h-2.505c-.276 0-.504-.2288-.504-.5057zm-15.31 14.0488v-6.0193c0-.2768.227-.5055.503-.5055h10.814c.276 0 .504.2287.504.5055v2.5162c0 .2768-.228.5057-.504.5057h-2.505c-.276 0-.504.2286-.504.5055v2.5161c0 .2769-.228.5055-.503.5055h-7.314c-.276 0-.503-.2286-.503-.5055zm11.809-7.0183v-6.0193c0-.277.228-.5057.504-.5057h2.493c.276 0 .504.2287.504.5057v6.0193c0 .2769-.228.5055-.504.5055h-2.493c-.276 0-.504-.2286-.504-.5055zm10.491-22.7891v-7.7768c0-.2769.227-.5056.503-.5056h2.506c.276 0 .504.2287.504.5056v7.7768c0 .2769-.228.5058-.504.5058h-2.506c-.276 0-.503-.2289-.503-.5058zm6.977-17.528v-7.78894c0-.27688-.227-.50561-.503-.50561h-4.232c-.276 0-.504-.22873-.504-.50563v-2.491959c0-.276887.228-.505619.504-.505619h12.972c.276 0 .504.228732.504.505619v2.516049c0 .27688-.228.50563-.504.50563h-4.244c-.276 0-.504.22873-.504.5056v7.77686c0 .2769-.227.5057-.503.5057h-2.506c-.276 0-.504-.2288-.504-.5057zm-3.476 8.752v-7.7528c0-.2769.227-.5056.503-.5056h2.482c.276 0 .503.2287.503.5056v7.7528c0 .2769-.227.5056-.503.5056h-2.482c-.276 0-.503-.2287-.503-.5056z"/><path d="m194.13 60h-7.313c-.372 0-.683-.3009-.683-.6861v-6.0193c0-.3733.299-.6862.683-.6862h10.814c.372 0 .684.3009.684.6862v2.5159c0 .3733-.3.6864-.684.6864h-2.506c-.179 0-.311.1444-.311.3128v2.5162c0 .373-.3.6861-.684.6861zm-7.313-7.0185c-.18 0-.312.1444-.312.3131v6.0193c0 .1804.144.3128.312.3128h7.313c.18 0 .312-.1444.312-.3128v-2.5162c0-.3731.3-.6861.683-.6861h2.506c.18 0 .312-.1445.312-.3131v-2.5159c0-.1807-.144-.3131-.312-.3131h-10.814zm14.303 0h-2.494c-.371 0-.683-.3009-.683-.6861v-6.0193c0-.3733.3-.6862.683-.6862h2.494c.372 0 .683.3009.683.6862v6.0193c0 .373-.299.6861-.683.6861zm-2.494-7.0305c-.18 0-.311.1444-.311.3131v6.0193c0 .1804.143.3128.311.3128h2.494c.18 0 .312-.1444.312-.3128v-6.0193c0-.1807-.144-.3131-.312-.3131zm5.995 0h-2.506c-.372 0-.683-.3009-.683-.6861v-14.7592c0-.1806-.144-.3131-.312-.3131h-2.494c-.371 0-.683-.301-.683-.6861v-7.7771c0-.1804-.144-.3129-.312-.3129h-2.506c-.371 0-.683-.3009-.683-.6862v-7.7528c0-.1806-.144-.313-.312-.313h-2.481c-.372 0-.684-.3009-.684-.6862v-7.78889c0-.18057-.144-.313-.311-.313h-4.233c-.371 0-.683-.30097-.683-.68621v-2.504004c0-.373195.3-.686196.683-.686196h16.45c.371 0 .683.300962.683.686196v2.516044c0 .3732-.3.68621-.683.68621h-4.245c-.18 0-.311.14445-.311.31299v7.77686c0 .1806.143.313.311.313h2.494c.372 0 .683.301.683.6862v7.7528c0 .1806.144.313.312.313h2.506c.372 0 .683.301.683.6861v7.7771c0 .1804.144.3129.312.3129h2.494c.371 0 .683.301.683.6863v7.7527c0 .3732-.3.6863-.683.6863h-2.494c-.18 0-.312.1444-.312.3129v6.0073c0 .3732-.299.6861-.683.6861zm-18.2-45.589845c-.18 0-.311.144463-.311.313003v2.516042c0 .18058.143.31301.311.31301h4.233c.371 0 .683.30096.683.6862v7.77689c0 .1806.144.313.312.313h2.481c.372 0 .684.301.684.6862v7.7528c0 .1806.144.313.311.313h2.506c.372 0 .684.301.684.6861v7.7769c0 .1806.143.3131.311.3131h2.494c.372 0 .683.301.683.6861v14.7594c0 .1804.144.3128.312.3128h2.506c.18 0 .312-.1444.312-.3128v-6.0073c0-.3733.299-.6862.683-.6862h2.494c.18 0 .312-.1444.312-.313v-7.7529c0-.1804-.144-.3129-.312-.3129h-2.494c-.372 0-.683-.301-.683-.6863v-7.7769c0-.1804-.144-.3129-.312-.3129h-2.506c-.372 0-.683-.301-.683-.6862v-7.7528c0-.1806-.144-.313-.312-.313h-2.494c-.371 0-.683-.301-.683-.6862v-7.77689c0-.3732.3-.6862.683-.6862h4.245c.179 0 .311-.14445.311-.31301v-2.504004c0-.180578-.144-.313002-.311-.313002h-16.45zm25.19 29.831445h-2.506c-.372 0-.683-.301-.683-.6861v-7.7771c0-.3731.299-.6861.683-.6861h2.506c.371 0 .683.301.683.6861v7.7771c0 .3731-.3.6861-.683.6861zm-2.494-8.7761c-.18 0-.312.1445-.312.3129v7.7771c0 .1804.144.3129.312.3129h2.506c.179 0 .311-.1445.311-.3129v-7.7771c0-.1804-.144-.3129-.311-.3129zm5.971 0h-2.482c-.372 0-.684-.3009-.684-.6862v-7.7528c0-.3732.3-.6862.684-.6862h2.482c.371 0 .683.301.683.6862v7.7528c0 .3732-.3.6862-.683.6862zm-2.482-8.764c-.18 0-.312.1444-.312.313v7.7528c0 .1806.144.313.312.313h2.482c.179 0 .311-.1445.311-.313v-7.7528c0-.1806-.144-.313-.311-.313zm5.982 0h-2.505c-.372 0-.684-.301-.684-.6862v-7.77689c0-.18057-.144-.313-.311-.313h-4.233c-.371 0-.683-.30097-.683-.68621v-2.504004c0-.373195.3-.686196.683-.686196h12.973c.371 0 .683.300962.683.686196v2.516044c0 .3732-.3.68621-.683.68621h-4.244c-.18 0-.312.14445-.312.31299v7.77686c0 .3732-.3.6862-.684.6862zm-7.733-12.291345c-.179 0-.311.144463-.311.313003v2.516042c0 .18058.144.31301.311.31301h4.233c.371 0 .683.30096.683.6862v7.77689c0 .1806.144.313.312.313h2.505c.18 0 .312-.1445.312-.313v-7.77689c0-.3732.3-.6862.684-.6862h4.244c.18 0 .312-.14445.312-.31301v-2.504004c0-.180578-.144-.313002-.312-.313002h-12.973z"/></g></svg>