<svg width="302" height="60" viewBox="0 0 302 60" fill="none" xmlns="http://www.w3.org/2000/svg">
<mask id="mask0_2549_39745" style="mask-type:luminance" maskUnits="userSpaceOnUse" x="35" y="0" width="232" height="60">
<path d="M266.714 0H35.2856V60H266.714V0Z" fill="white"/>
</mask>
<g mask="url(#mask0_2549_39745)">
<path d="M66.9019 53.1377V46.023C66.9019 45.8786 66.7821 45.7701 66.6501 45.7701H63.6649C63.5209 45.7701 63.4131 45.6497 63.4131 45.5173V42.5199C63.4131 42.3752 63.2931 42.267 63.1613 42.267H42.6955C42.5517 42.267 42.4438 42.1466 42.4438 42.0141V39.0407C42.4438 38.8961 42.3239 38.7879 42.192 38.7879H39.2067C39.0628 38.7879 38.9549 38.6674 38.9549 38.535V35.5616C38.9549 35.4169 38.835 35.3087 38.7031 35.3087H35.7298C35.5859 35.3087 35.478 35.1883 35.478 35.0559V28.5551C35.478 28.4106 35.5979 28.3022 35.7298 28.3022H38.6911C38.835 28.3022 38.9429 28.1818 38.9429 28.0494V24.45C38.9429 24.3056 39.0628 24.1971 39.1947 24.1971H43.331C43.4749 24.1971 43.5828 24.3176 43.5828 24.45V31.5647C43.5828 31.7091 43.7026 31.8176 43.8345 31.8176H45.6569C45.8008 31.8176 45.9087 31.938 45.9087 32.0702V35.0679C45.9087 35.2123 46.0286 35.3207 46.1605 35.3207H66.6021C66.7461 35.3207 66.8539 35.4411 66.8539 35.5736V38.547C66.8539 38.6914 66.9739 38.7999 67.1056 38.7999H70.0911C70.2349 38.7999 70.3429 38.9203 70.3429 39.0527V42.0261C70.3429 42.1706 70.4626 42.279 70.5946 42.279H73.5799C73.7236 42.279 73.8316 42.3994 73.8316 42.5319V49.0326C73.8316 49.1771 73.7119 49.2855 73.5799 49.2855H70.5946C70.4506 49.2855 70.3429 49.4057 70.3429 49.5381V53.1377C70.3429 53.2821 70.2229 53.3906 70.0911 53.3906H67.1056C66.9619 53.3906 66.8539 53.2701 66.8539 53.1377H66.9019Z" fill="black"/>
<path d="M70.1384 53.5832H67.1531C66.9134 53.5832 66.7096 53.3905 66.7096 53.1379V46.023C66.7096 46.023 66.6736 45.9507 66.6376 45.9507H63.6521C63.4124 45.9507 63.2086 45.7581 63.2086 45.5055V42.5078C63.2086 42.5078 63.1726 42.4356 63.1368 42.4356H42.695C42.4552 42.4356 42.2514 42.243 42.2514 41.9901V39.0167C42.2514 39.0167 42.2154 38.9445 42.1795 38.9445H39.1942C38.9544 38.9445 38.7505 38.7518 38.7505 38.499V35.5255C38.7505 35.5255 38.7146 35.4533 38.6786 35.4533H35.7292C35.4895 35.4533 35.2856 35.2607 35.2856 35.0078V28.507C35.2856 28.2662 35.4775 28.0615 35.7292 28.0615H38.6906C38.6906 28.0615 38.7625 28.0255 38.7625 27.9893V24.3897C38.7625 24.1491 38.9544 23.9445 39.2061 23.9445H43.3424C43.5822 23.9445 43.786 24.1371 43.786 24.3897V31.5047C43.786 31.5047 43.822 31.5769 43.858 31.5769H45.6803C45.9201 31.5769 46.1239 31.7695 46.1239 32.0222V35.0198C46.1239 35.0198 46.1599 35.092 46.1959 35.092H66.6376C66.8774 35.092 67.0811 35.2847 67.0811 35.5375V38.511C67.0811 38.511 67.1171 38.5832 67.1531 38.5832H70.1384C70.3781 38.5832 70.5819 38.7758 70.5819 39.0287V42.0021C70.5819 42.0021 70.6179 42.0743 70.6539 42.0743H73.6394C73.8791 42.0743 74.0829 42.267 74.0829 42.5198V49.0206C74.0829 49.2615 73.8911 49.4661 73.6394 49.4661H70.6539C70.6539 49.4661 70.5819 49.5021 70.5819 49.5383V53.1379C70.5819 53.3785 70.3901 53.5832 70.1384 53.5832ZM35.7292 28.4348C35.7292 28.4348 35.6573 28.4708 35.6573 28.507V35.0078C35.6573 35.0078 35.6933 35.08 35.7292 35.08H38.6906C38.9304 35.08 39.1342 35.2727 39.1342 35.5255V38.499C39.1342 38.499 39.1702 38.5712 39.2061 38.5712H42.1915C42.4312 38.5712 42.6351 38.7638 42.6351 39.0167V41.9901C42.6351 41.9901 42.671 42.0623 42.707 42.0623H63.1486C63.3884 42.0623 63.5924 42.255 63.5924 42.5078V45.5055C63.5924 45.5055 63.6281 45.5777 63.6641 45.5777H66.6496C66.8894 45.5777 67.0931 45.7703 67.0931 46.023V53.1379C67.0931 53.1379 67.1291 53.2101 67.1651 53.2101H70.1504C70.1504 53.2101 70.2224 53.1739 70.2224 53.1379V49.5383C70.2224 49.2975 70.4141 49.0928 70.6659 49.0928H73.6514C73.6514 49.0928 73.7231 49.0568 73.7231 49.0206V42.5198C73.7231 42.5198 73.6871 42.4476 73.6514 42.4476H70.6659C70.4261 42.4476 70.2224 42.255 70.2224 42.0021V39.0287C70.2224 39.0287 70.1864 38.9565 70.1504 38.9565H67.1651C66.9254 38.9565 66.7216 38.7638 66.7216 38.511V35.5375C66.7216 35.5375 66.6856 35.4653 66.6496 35.4653H46.1959C45.9561 35.4653 45.7523 35.2727 45.7523 35.0198V32.0222C45.7523 32.0222 45.7163 31.95 45.6803 31.95H43.858C43.6182 31.95 43.4144 31.7573 43.4144 31.5047V24.3897C43.4144 24.3897 43.3784 24.3175 43.3424 24.3175H39.2061C39.2061 24.3175 39.1342 24.3537 39.1342 24.3897V27.9893C39.1342 28.2302 38.9424 28.4348 38.6906 28.4348H35.7292Z" fill="black"/>
<path d="M43.2226 59.0247V56.0273C43.2226 55.8829 43.1027 55.7744 42.9708 55.7744H39.9855C39.8416 55.7744 39.7337 55.654 39.7337 55.5216V52.5239C39.7337 52.3795 39.6138 52.2713 39.482 52.2713H36.5086C36.3647 52.2713 36.2568 52.1509 36.2568 52.0184V45.5177C36.2568 45.3732 36.3767 45.2648 36.5086 45.2648H39.47C39.6138 45.2648 39.7217 45.1444 39.7217 45.0119V42.0143C39.7217 41.8699 39.8416 41.7617 39.9735 41.7617H42.9588C43.1027 41.7617 43.2106 41.8821 43.2106 42.0143V52.0304C43.2106 52.1749 43.3305 52.2833 43.4624 52.2833H46.4477C46.5916 52.2833 46.6995 52.4037 46.6995 52.5362V55.5336C46.6995 55.6782 46.8194 55.7864 46.9512 55.7864H63.9041C64.0479 55.7864 64.1559 55.9069 64.1559 56.0393V59.0369C64.1559 59.1814 64.0359 59.2896 63.9041 59.2896H43.4864C43.3425 59.2896 43.2346 59.1694 43.2346 59.0369L43.2226 59.0247Z" fill="black"/>
<path d="M63.9269 59.4585H43.4853C43.2455 59.4585 43.0417 59.2659 43.0417 59.0131V56.0154C43.0417 56.0154 43.0057 55.9432 42.9698 55.9432H39.9844C39.7447 55.9432 39.5409 55.7505 39.5409 55.4977V52.5003C39.5409 52.5003 39.5049 52.428 39.4689 52.428H36.5076C36.2678 52.428 36.064 52.2354 36.064 51.9825V45.4818C36.064 45.2409 36.2558 45.0363 36.5076 45.0363H39.4689C39.4689 45.0363 39.5409 45.0003 39.5409 44.964V41.9664C39.5409 41.7258 39.7327 41.5211 39.9844 41.5211H42.9698C43.2096 41.5211 43.4134 41.7138 43.4134 41.9664V51.9825C43.4134 51.9825 43.4493 52.0548 43.4853 52.0548H46.4706C46.7104 52.0548 46.9142 52.2474 46.9142 52.5003V55.4977C46.9142 55.4977 46.9502 55.5699 46.9862 55.5699H63.9389C64.1787 55.5699 64.3825 55.7625 64.3825 56.0154V59.0131C64.3825 59.2537 64.1907 59.4585 63.9389 59.4585H63.9269ZM36.5076 45.4215C36.5076 45.4215 36.4356 45.4575 36.4356 45.4938V51.9945C36.4356 51.9945 36.4716 52.0668 36.5076 52.0668H39.4689C39.7087 52.0668 39.9125 52.2594 39.9125 52.5123V55.5099C39.9125 55.5099 39.9485 55.5821 39.9844 55.5821H42.9698C43.2096 55.5821 43.4134 55.7748 43.4134 56.0274V59.0251C43.4134 59.0251 43.4493 59.0973 43.4853 59.0973H63.9269C63.9269 59.0973 63.9989 59.0613 63.9989 59.0251V56.0274C63.9989 56.0274 63.9629 55.9552 63.9269 55.9552H46.9742C46.7344 55.9552 46.5306 55.7625 46.5306 55.5099V52.5123C46.5306 52.5123 46.4946 52.44 46.4586 52.44H43.4733C43.2335 52.44 43.0297 52.2474 43.0297 51.9945V41.9784C43.0297 41.9784 42.9937 41.9062 42.9578 41.9062H39.9725C39.9725 41.9062 39.9005 41.9424 39.9005 41.9784V44.976C39.9005 45.2169 39.7087 45.4215 39.4569 45.4215H36.5076Z" fill="black"/>
<path d="M70.5949 0.180542H43.1514C43.0075 0.180542 42.8996 0.300927 42.8996 0.433351V3.43094C42.8996 3.57541 42.7797 3.68375 42.6478 3.68375H39.6625C39.5187 3.68375 39.4108 3.80414 39.4108 3.93657V6.93414C39.4108 7.07862 39.2909 7.18696 39.159 7.18696H36.1737C36.0298 7.18696 35.9219 7.30734 35.9219 7.43977V17.4317C35.9219 17.5762 36.0418 17.6846 36.1737 17.6846H39.135C39.2789 17.6846 39.3868 17.8049 39.3868 17.9374V20.935C39.3868 21.0794 39.5067 21.1878 39.6385 21.1878H42.6239C42.7677 21.1878 42.8757 21.3082 42.8757 21.4406V24.4383C42.8757 24.5827 42.9955 24.6909 43.1274 24.6909H60.0803C60.2241 24.6909 60.3321 24.5707 60.3321 24.4383V21.4406C60.3321 21.2961 60.4519 21.1878 60.5839 21.1878H63.5691C63.7131 21.1878 63.8209 21.0674 63.8209 20.935V17.9374C63.8209 17.7929 63.9409 17.6846 64.0726 17.6846H67.0581C67.2019 17.6846 67.3096 17.5642 67.3096 17.4317V7.46384C67.3096 7.31939 67.1899 7.21104 67.0581 7.21104H64.0726C63.9289 7.21104 63.8209 7.09066 63.8209 6.95823V3.96063C63.8209 3.81618 63.9409 3.70784 64.0726 3.70784H70.5469C70.6906 3.70784 70.7986 3.58745 70.7986 3.45502V0.445389C70.7986 0.300927 70.6786 0.192581 70.5469 0.192581L70.5949 0.180542ZM60.3561 17.4558C60.3561 17.6003 60.2361 17.7086 60.1043 17.7086H57.1429C56.9991 17.7086 56.8911 17.829 56.8911 17.9614V20.959C56.8911 21.1035 56.7713 21.2119 56.6393 21.2119H46.6642C46.5204 21.2119 46.4125 21.0915 46.4125 20.959V17.9614C46.4125 17.817 46.2926 17.7086 46.1607 17.7086H43.1754C43.0315 17.7086 42.9236 17.5882 42.9236 17.4558V7.46384C42.9236 7.31939 43.0435 7.21104 43.1754 7.21104H46.1607C46.3046 7.21104 46.4125 7.09066 46.4125 6.95823V3.96063C46.4125 3.81618 46.5324 3.70784 46.6642 3.70784H56.6393C56.7831 3.70784 56.8911 3.82822 56.8911 3.96063V6.95823C56.8911 7.1027 57.0111 7.21104 57.1429 7.21104H60.1043C60.2481 7.21104 60.3561 7.33143 60.3561 7.46384V17.4558Z" fill="black"/>
<path d="M60.1036 24.9317H43.1508C42.9111 24.9317 42.7072 24.7391 42.7072 24.4864V21.4888C42.7072 21.4888 42.6713 21.4165 42.6353 21.4165H39.65C39.4102 21.4165 39.2064 21.2239 39.2064 20.9711V17.9735C39.2064 17.9735 39.1704 17.9013 39.1344 17.9013H36.1731C35.9333 17.9013 35.7295 17.7087 35.7295 17.4559V7.46389C35.7295 7.22312 35.9213 7.01846 36.1731 7.01846H39.1344C39.1344 7.01846 39.2064 6.98235 39.2064 6.94622V3.94864C39.2064 3.70787 39.3982 3.50321 39.65 3.50321H42.6353C42.6353 3.50321 42.7072 3.4671 42.7072 3.43097V0.445425C42.7072 0.204655 42.9111 0 43.1508 0H70.5941C70.8339 0 71.0379 0.192616 71.0379 0.445425V3.44301C71.0379 3.68379 70.8459 3.88845 70.5941 3.88845H64.1201C64.1201 3.88845 64.0481 3.92456 64.0481 3.96066V6.95826C64.0481 6.95826 64.0841 7.0305 64.1201 7.0305H67.1054C67.3451 7.0305 67.5489 7.22312 67.5489 7.47591V17.4679C67.5489 17.7087 67.3571 17.9133 67.1054 17.9133H64.1201C64.1201 17.9133 64.0481 17.9494 64.0481 17.9856V20.9831C64.0481 21.2239 63.8564 21.4286 63.6046 21.4286H60.6191C60.6191 21.4286 60.5474 21.4648 60.5474 21.5008V24.4984C60.5474 24.7391 60.3554 24.9437 60.1036 24.9437V24.9317ZM36.1731 7.39166C36.1731 7.39166 36.1012 7.42776 36.1012 7.46389V17.4559C36.1012 17.4559 36.1371 17.5281 36.1731 17.5281H39.1344C39.3742 17.5281 39.578 17.7207 39.578 17.9735V20.9711C39.578 20.9711 39.614 21.0433 39.65 21.0433H42.6353C42.8751 21.0433 43.0789 21.2359 43.0789 21.4888V24.4864C43.0789 24.4864 43.1149 24.5586 43.1508 24.5586H60.1036C60.1036 24.5586 60.1756 24.5224 60.1756 24.4864V21.4888C60.1756 21.248 60.3674 21.0433 60.6191 21.0433H63.6046C63.6046 21.0433 63.6764 21.0072 63.6764 20.9711V17.9735C63.6764 17.7327 63.8684 17.5281 64.1201 17.5281H67.1054C67.1054 17.5281 67.1774 17.492 67.1774 17.4559V7.46389C67.1774 7.46389 67.1414 7.39166 67.1054 7.39166H64.1201C63.8804 7.39166 63.6764 7.19904 63.6764 6.94622V3.94864C63.6764 3.70787 63.8684 3.50321 64.1201 3.50321H70.5941C70.5941 3.50321 70.6661 3.4671 70.6661 3.43097V0.445425C70.6661 0.445425 70.6301 0.373194 70.5941 0.373194H43.1508C43.1508 0.373194 43.0789 0.409309 43.0789 0.445425V3.44301C43.0789 3.68379 42.8871 3.88845 42.6353 3.88845H39.65C39.65 3.88845 39.578 3.92456 39.578 3.96066V6.95826C39.578 7.19904 39.3862 7.4037 39.1344 7.4037H36.1731V7.39166ZM56.6268 21.4165H46.6517C46.4119 21.4165 46.2081 21.2239 46.2081 20.9711V17.9735C46.2081 17.9735 46.1721 17.9013 46.1362 17.9013H43.1508C42.9111 17.9013 42.7072 17.7087 42.7072 17.4559V7.46389C42.7072 7.22312 42.8991 7.01846 43.1508 7.01846H46.1362C46.1362 7.01846 46.2081 6.98235 46.2081 6.94622V3.94864C46.2081 3.70787 46.3999 3.50321 46.6517 3.50321H56.6268C56.8666 3.50321 57.0704 3.69583 57.0704 3.94864V6.94622C57.0704 6.94622 57.1064 7.01846 57.1424 7.01846H60.1036C60.3434 7.01846 60.5474 7.21108 60.5474 7.46389V17.4559C60.5474 17.6966 60.3554 17.9013 60.1036 17.9013H57.1424C57.1424 17.9013 57.0704 17.9374 57.0704 17.9735V20.9711C57.0704 21.2119 56.8786 21.4165 56.6268 21.4165ZM43.1508 7.39166C43.1508 7.39166 43.0789 7.42776 43.0789 7.46389V17.4559C43.0789 17.4559 43.1149 17.5281 43.1508 17.5281H46.1362C46.376 17.5281 46.5798 17.7207 46.5798 17.9735V20.9711C46.5798 20.9711 46.6157 21.0433 46.6517 21.0433H56.6268C56.6268 21.0433 56.6987 21.0072 56.6987 20.9711V17.9735C56.6987 17.7327 56.8906 17.5281 57.1424 17.5281H60.1036C60.1036 17.5281 60.1756 17.492 60.1756 17.4559V7.46389C60.1756 7.46389 60.1396 7.39166 60.1036 7.39166H57.1424C56.9026 7.39166 56.6987 7.19904 56.6987 6.94622V3.94864C56.6987 3.94864 56.6627 3.87641 56.6268 3.87641H46.6517C46.6517 3.87641 46.5798 3.91251 46.5798 3.94864V6.94622C46.5798 7.18699 46.3879 7.39166 46.1362 7.39166H43.1508Z" fill="black"/>
<path d="M67.1074 52.7889H64.1102C63.9711 52.7889 63.8584 52.9021 63.8584 53.0416V56.0512C63.8584 56.1909 63.9711 56.3041 64.1102 56.3041H67.1074C67.2465 56.3041 67.3592 56.1909 67.3592 56.0512V53.0416C67.3592 52.9021 67.2465 52.7889 67.1074 52.7889Z" fill="black"/>
<path d="M67.095 56.4847H64.1098C63.87 56.4847 63.666 56.292 63.666 56.0394V53.0418C63.666 52.8009 63.858 52.5963 64.1098 52.5963H67.095C67.3348 52.5963 67.5386 52.7889 67.5386 53.0418V56.0394C67.5386 56.28 67.3468 56.4847 67.095 56.4847ZM64.1098 52.9815C64.1098 52.9815 64.0378 53.0178 64.0378 53.0538V56.0514C64.0378 56.0514 64.0738 56.1236 64.1098 56.1236H67.095C67.095 56.1236 67.167 56.0874 67.167 56.0514V53.0538C67.167 53.0538 67.131 52.9815 67.095 52.9815H64.1098Z" fill="black"/>
<path d="M83.688 38.7639C83.4004 38.7639 83.1724 38.5353 83.1724 38.2464V35.7905C83.1724 35.5016 82.9446 35.2728 82.6571 35.2728H80.1872C79.8994 35.2728 79.6716 35.0441 79.6716 34.7553V32.2753C79.6716 31.9863 79.4438 31.7576 79.1561 31.7576H76.6864C76.3986 31.7576 76.1708 31.5288 76.1708 31.2399V25.2448C76.1708 24.9558 75.9431 24.7271 75.6553 24.7271H73.2094C72.9216 24.7271 72.6938 24.4983 72.6938 24.2094V14.7231C72.6938 14.4341 72.9216 14.2054 73.2094 14.2054H75.6553C75.9431 14.2054 76.1708 13.9767 76.1708 13.6878V7.69259C76.1708 7.40364 76.3986 7.17492 76.6864 7.17492H79.1561C79.4438 7.17492 79.6716 7.40364 79.6716 7.69259V10.1725C79.6716 10.4614 79.8994 10.6902 80.1872 10.6902H100.125C100.413 10.6902 100.641 10.4614 100.641 10.1725V7.69259C100.641 7.40364 100.413 7.17492 100.125 7.17492H97.6556C97.3678 7.17492 97.14 6.94619 97.14 6.65727V4.17734C97.14 3.88842 96.9122 3.65967 96.6244 3.65967H83.688C83.4004 3.65967 83.1724 3.43094 83.1724 3.14202V0.698199C83.1724 0.409274 83.4004 0.180542 83.688 0.180542H100.125C100.413 0.180542 100.641 0.409274 100.641 0.698199V3.17812C100.641 3.46707 100.869 3.69579 101.156 3.69579H103.626C103.914 3.69579 104.142 3.92452 104.142 4.21344V6.69337C104.142 6.98232 104.37 7.21104 104.657 7.21104H107.127C107.415 7.21104 107.643 7.43977 107.643 7.72869V13.7239C107.643 14.0128 107.415 14.2415 107.127 14.2415H80.1992C79.9114 14.2415 79.6836 14.4703 79.6836 14.7592V24.2456C79.6836 24.5345 79.9114 24.7631 80.1992 24.7631H82.6691C82.9566 24.7631 83.1844 24.992 83.1844 25.2808V31.2761C83.1844 31.565 83.4122 31.7936 83.7 31.7936H86.1698C86.4576 31.7936 86.6854 32.0225 86.6854 32.3113V34.7913C86.6854 35.0801 86.9132 35.309 87.201 35.309H100.137C100.425 35.309 100.653 35.5376 100.653 35.8267V38.2824C100.653 38.5715 100.425 38.8001 100.137 38.8001H83.7L83.688 38.7639ZM80.1992 7.21104C79.9114 7.21104 79.6836 6.98232 79.6836 6.69337V4.21344C79.6836 3.92452 79.9114 3.69579 80.1992 3.69579H82.6691C82.9566 3.69579 83.1844 3.92452 83.1844 4.21344V6.69337C83.1844 6.98232 82.9566 7.21104 82.6691 7.21104H80.1992ZM101.156 35.285C100.869 35.285 100.641 35.0561 100.641 34.7673V32.2873C100.641 31.9983 100.869 31.7696 101.156 31.7696H103.626C103.914 31.7696 104.142 31.9983 104.142 32.2873V34.7673C104.142 35.0561 103.914 35.285 103.626 35.285H101.156ZM104.657 31.7696C104.37 31.7696 104.142 31.541 104.142 31.2519V28.772C104.142 28.4831 104.37 28.2545 104.657 28.2545H107.127C107.415 28.2545 107.643 28.4831 107.643 28.772V31.2519C107.643 31.541 107.415 31.7696 107.127 31.7696H104.657Z" fill="black"/>
<path d="M100.125 38.9567H83.6878C83.304 38.9567 82.9925 38.6436 82.9925 38.2584V35.8026C82.9925 35.622 82.8485 35.4656 82.6567 35.4656H80.1868C79.8032 35.4656 79.4915 35.1525 79.4915 34.7672V32.2873C79.4915 32.1066 79.3477 31.9502 79.1559 31.9502H76.686C76.3025 31.9502 75.9907 31.6371 75.9907 31.2521V25.2568C75.9907 25.0761 75.8469 24.9197 75.6549 24.9197H73.2092C72.8255 24.9197 72.5137 24.6066 72.5137 24.2216V14.7351C72.5137 14.3499 72.8255 14.0369 73.2092 14.0369H75.6549C75.8349 14.0369 75.9907 13.8925 75.9907 13.6998V7.70466C75.9907 7.31942 76.3025 7.00641 76.686 7.00641H79.1559C79.5395 7.00641 79.8512 7.31942 79.8512 7.70466V10.1846C79.8512 10.3652 79.995 10.5217 80.1868 10.5217H100.125C100.305 10.5217 100.461 10.3772 100.461 10.1846V7.70466C100.461 7.52409 100.317 7.36757 100.125 7.36757H97.6552C97.2716 7.36757 96.9598 7.05456 96.9598 6.66934V4.18941C96.9598 4.00884 96.816 3.85232 96.6242 3.85232H83.6878C83.304 3.85232 82.9925 3.53934 82.9925 3.15409V0.698235C82.9925 0.313001 83.304 0 83.6878 0H100.125C100.509 0 100.82 0.313001 100.82 0.698235V3.17818C100.82 3.35876 100.964 3.51525 101.156 3.51525H103.626C104.01 3.51525 104.321 3.82826 104.321 4.21348V6.69343C104.321 6.87399 104.465 7.0305 104.657 7.0305H107.127C107.51 7.0305 107.822 7.34351 107.822 7.72873V13.7239C107.822 14.1091 107.51 14.4222 107.127 14.4222H80.1988C80.019 14.4222 79.8632 14.5666 79.8632 14.7592V24.2456C79.8632 24.4262 80.007 24.5826 80.1988 24.5826H82.6687C83.0522 24.5826 83.364 24.8957 83.364 25.281V31.2761C83.364 31.4567 83.5078 31.6131 83.6998 31.6131H86.1695C86.5532 31.6131 86.8648 31.9262 86.8648 32.3115V34.7914C86.8648 34.9719 87.0088 35.1285 87.2006 35.1285H100.137C100.521 35.1285 100.832 35.4414 100.832 35.8266V38.2826C100.832 38.6676 100.521 38.9807 100.137 38.9807L100.125 38.9567ZM73.2212 14.4101C73.0412 14.4101 72.8855 14.5546 72.8855 14.7472V24.2336C72.8855 24.4142 73.0292 24.5706 73.2212 24.5706H75.6669C76.0507 24.5706 76.3622 24.8837 76.3622 25.2688V31.2641C76.3622 31.4447 76.5062 31.6011 76.698 31.6011H79.1679C79.5515 31.6011 79.8632 31.9142 79.8632 32.2993V34.7792C79.8632 34.9599 80.007 35.1163 80.1988 35.1163H82.6687C83.0522 35.1163 83.364 35.4294 83.364 35.8146V38.2706C83.364 38.451 83.5078 38.6076 83.6998 38.6076H100.137C100.317 38.6076 100.473 38.463 100.473 38.2706V35.8146C100.473 35.634 100.329 35.4776 100.137 35.4776H87.2006C86.817 35.4776 86.5052 35.1645 86.5052 34.7792V32.2993C86.5052 32.1189 86.3615 31.9622 86.1695 31.9622H83.6998C83.316 31.9622 83.0045 31.6494 83.0045 31.2641V25.2688C83.0045 25.0884 82.8605 24.9317 82.6687 24.9317H80.1988C79.8152 24.9317 79.5035 24.6189 79.5035 24.2336V14.7472C79.5035 14.362 79.8152 14.049 80.1988 14.049H107.127C107.307 14.049 107.462 13.9045 107.462 13.7119V7.71669C107.462 7.53611 107.319 7.37961 107.127 7.37961H104.657C104.273 7.37961 103.962 7.06661 103.962 6.68139V4.20144C103.962 4.02086 103.818 3.86436 103.626 3.86436H101.156C100.772 3.86436 100.461 3.55136 100.461 3.16614V0.698235C100.461 0.517656 100.317 0.361155 100.125 0.361155H83.6878C83.5078 0.361155 83.352 0.505618 83.352 0.698235V3.17818C83.352 3.35876 83.496 3.51525 83.6878 3.51525H96.6242C97.0078 3.51525 97.3196 3.82826 97.3196 4.21348V6.69343C97.3196 6.87399 97.4634 7.0305 97.6552 7.0305H100.125C100.509 7.0305 100.82 7.34351 100.82 7.72873V10.2087C100.82 10.5939 100.509 10.9069 100.125 10.9069H80.1868C79.8032 10.9069 79.4915 10.5939 79.4915 10.2087V7.72873C79.4915 7.54815 79.3477 7.39166 79.1559 7.39166H76.686C76.5062 7.39166 76.3502 7.53611 76.3502 7.72873V13.7239C76.3502 14.1091 76.0387 14.4222 75.6549 14.4222H73.2092L73.2212 14.4101ZM103.626 35.4656H101.156C100.772 35.4656 100.461 35.1525 100.461 34.7672V32.2873C100.461 31.902 100.772 31.5891 101.156 31.5891H103.626C104.01 31.5891 104.321 31.902 104.321 32.2873V34.7672C104.321 35.1525 104.01 35.4656 103.626 35.4656ZM101.156 31.9502C100.976 31.9502 100.82 32.0946 100.82 32.2873V34.7672C100.82 34.9479 100.964 35.1043 101.156 35.1043H103.626C103.806 35.1043 103.962 34.9599 103.962 34.7672V32.2873C103.962 32.1066 103.818 31.9502 103.626 31.9502H101.156ZM107.127 31.9502H104.657C104.273 31.9502 103.962 31.6371 103.962 31.2521V28.7721C103.962 28.3869 104.273 28.0738 104.657 28.0738H107.127C107.51 28.0738 107.822 28.3869 107.822 28.7721V31.2521C107.822 31.6371 107.51 31.9502 107.127 31.9502ZM104.657 28.4351C104.477 28.4351 104.321 28.5795 104.321 28.7721V31.2521C104.321 31.4325 104.465 31.5891 104.657 31.5891H107.127C107.307 31.5891 107.462 31.4447 107.462 31.2521V28.7721C107.462 28.5915 107.319 28.4351 107.127 28.4351H104.657ZM82.6687 7.39166H80.1988C79.8152 7.39166 79.5035 7.07865 79.5035 6.69343V4.21348C79.5035 3.82826 79.8152 3.51525 80.1988 3.51525H82.6687C83.0522 3.51525 83.364 3.82826 83.364 4.21348V6.69343C83.364 7.07865 83.0522 7.39166 82.6687 7.39166ZM80.1988 3.87641C80.019 3.87641 79.8632 4.02086 79.8632 4.21348V6.69343C79.8632 6.87399 80.007 7.0305 80.1988 7.0305H82.6687C82.8485 7.0305 83.0045 6.88603 83.0045 6.69343V4.21348C83.0045 4.0329 82.8605 3.87641 82.6687 3.87641H80.1988Z" fill="black"/>
<path d="M122.003 0.180542C122.291 0.180542 122.519 0.409274 122.519 0.6982V3.17812C122.519 3.46707 122.747 3.6958 123.034 3.6958H125.504C125.792 3.6958 126.02 3.92452 126.02 4.21345V6.69337C126.02 6.98232 125.792 7.21105 125.504 7.21105H123.034C122.747 7.21105 122.519 7.43977 122.519 7.7287V34.7673C122.519 35.0561 122.747 35.285 123.034 35.285H125.504C125.792 35.285 126.02 35.5136 126.02 35.8025V38.2584C126.02 38.5473 125.792 38.7761 125.504 38.7761H113.011C112.724 38.7761 112.496 38.5473 112.496 38.2584V35.8025C112.496 35.5136 112.724 35.285 113.011 35.285H115.457C115.745 35.285 115.973 35.0561 115.973 34.7673V7.71665C115.973 7.42773 115.745 7.199 115.457 7.199H113.011C112.724 7.199 112.496 6.97027 112.496 6.68135V4.2014C112.496 3.91248 112.724 3.68375 113.011 3.68375H115.457C115.745 3.68375 115.973 3.45502 115.973 3.1661V0.6982C115.973 0.409274 116.2 0.180542 116.488 0.180542H118.502C118.79 0.180542 119.246 0.180542 119.533 0.180542H122.003ZM138.74 38.7639C138.452 38.7639 138.225 38.5353 138.225 38.2464V35.7905C138.225 35.5016 138.452 35.2728 138.74 35.2728H141.21C141.498 35.2728 141.725 35.0441 141.725 34.7553V7.71665C141.725 7.42773 141.498 7.199 141.21 7.199H138.74C138.452 7.199 138.225 6.97027 138.225 6.68135V4.2014C138.225 3.91248 137.997 3.68375 137.709 3.68375H126.523C126.235 3.68375 126.008 3.45502 126.008 3.1661V0.6982C126.008 0.409274 126.235 0.180542 126.523 0.180542H141.21C141.498 0.180542 141.725 0.409274 141.725 0.6982V3.17812C141.725 3.46707 141.953 3.6958 142.241 3.6958H144.711C144.999 3.6958 145.226 3.92452 145.226 4.21345V6.69337C145.226 6.98232 145.454 7.21105 145.742 7.21105H147.756C148.044 7.21105 148.272 7.43977 148.272 7.7287V34.7673C148.272 35.0561 148.499 35.285 148.787 35.285H151.257C151.545 35.285 151.772 35.5136 151.772 35.8025V38.2584C151.772 38.5473 151.545 38.7761 151.257 38.7761H138.752L138.74 38.7639Z" fill="black"/>
<path d="M151.256 38.9567H138.751C138.368 38.9567 138.056 38.6436 138.056 38.2584V35.8026C138.056 35.4174 138.368 35.1043 138.751 35.1043H141.221C141.401 35.1043 141.557 34.9599 141.557 34.7672V7.71669C141.557 7.53611 141.413 7.37961 141.221 7.37961H138.751C138.368 7.37961 138.056 7.06661 138.056 6.68139V4.20144C138.056 4.02086 137.912 3.86436 137.721 3.86436H126.535C126.151 3.86436 125.839 3.55136 125.839 3.16614V0.698235C125.839 0.313001 126.151 0 126.535 0H141.221C141.605 0 141.917 0.313001 141.917 0.698235V3.17818C141.917 3.35876 142.061 3.51525 142.252 3.51525H144.722C145.106 3.51525 145.418 3.82826 145.418 4.21348V6.69343C145.418 6.87399 145.561 7.0305 145.753 7.0305H147.768C148.151 7.0305 148.463 7.34351 148.463 7.72873V34.7672C148.463 34.9479 148.607 35.1043 148.798 35.1043H151.268C151.652 35.1043 151.964 35.4174 151.964 35.8026V38.2584C151.964 38.6436 151.652 38.9567 151.268 38.9567H151.256ZM138.739 35.4656C138.56 35.4656 138.404 35.61 138.404 35.8026V38.2584C138.404 38.439 138.548 38.5954 138.739 38.5954H151.244C151.424 38.5954 151.58 38.451 151.58 38.2584V35.8026C151.58 35.622 151.436 35.4656 151.244 35.4656H148.775C148.391 35.4656 148.079 35.1525 148.079 34.7672V7.71669C148.079 7.53611 147.935 7.37961 147.744 7.37961H145.729C145.346 7.37961 145.034 7.06661 145.034 6.68139V4.20144C145.034 4.02086 144.89 3.86436 144.698 3.86436H142.228C141.845 3.86436 141.533 3.55136 141.533 3.16614V0.698235C141.533 0.517656 141.389 0.361155 141.197 0.361155H126.511C126.331 0.361155 126.175 0.505618 126.175 0.698235V3.17818C126.175 3.35876 126.319 3.51525 126.511 3.51525H137.697C138.08 3.51525 138.392 3.82826 138.392 4.21348V6.69343C138.392 6.87399 138.536 7.0305 138.728 7.0305H141.197C141.581 7.0305 141.893 7.34351 141.893 7.72873V34.7672C141.893 35.1525 141.581 35.4656 141.197 35.4656H138.728H138.739ZM125.491 38.9567H112.999C112.615 38.9567 112.303 38.6436 112.303 38.2584V35.8026C112.303 35.4174 112.615 35.1043 112.999 35.1043H115.444C115.624 35.1043 115.78 34.9599 115.78 34.7672V7.71669C115.78 7.53611 115.636 7.37961 115.444 7.37961H112.999C112.615 7.37961 112.303 7.06661 112.303 6.68139V4.20144C112.303 3.81621 112.615 3.50321 112.999 3.50321H115.444C115.624 3.50321 115.78 3.35876 115.78 3.16614V0.698235C115.78 0.313001 116.092 0 116.476 0H121.991C122.374 0 122.686 0.313001 122.686 0.698235V3.17818C122.686 3.35876 122.83 3.51525 123.022 3.51525H125.491C125.875 3.51525 126.187 3.82826 126.187 4.21348V6.69343C126.187 7.07865 125.875 7.39166 125.491 7.39166H123.022C122.842 7.39166 122.686 7.53611 122.686 7.72873V34.7672C122.686 34.9479 122.83 35.1043 123.022 35.1043H125.491C125.875 35.1043 126.187 35.4174 126.187 35.8026V38.2584C126.187 38.6436 125.875 38.9567 125.491 38.9567ZM113.011 35.4656C112.831 35.4656 112.675 35.61 112.675 35.8026V38.2584C112.675 38.439 112.819 38.5954 113.011 38.5954H125.503C125.683 38.5954 125.839 38.451 125.839 38.2584V35.8026C125.839 35.622 125.695 35.4656 125.503 35.4656H123.034C122.65 35.4656 122.338 35.1525 122.338 34.7672V7.71669C122.338 7.33146 122.65 7.01846 123.034 7.01846H125.503C125.683 7.01846 125.839 6.87401 125.839 6.68139V4.20144C125.839 4.02086 125.695 3.86436 125.503 3.86436H123.034C122.65 3.86436 122.338 3.55136 122.338 3.16614V0.698235C122.338 0.517656 122.194 0.361155 122.003 0.361155H116.488C116.308 0.361155 116.152 0.517656 116.152 0.698235V3.17818C116.152 3.5634 115.84 3.87641 115.456 3.87641H113.011C112.831 3.87641 112.675 4.02086 112.675 4.21348V6.69343C112.675 6.87399 112.819 7.0305 113.011 7.0305H115.456C115.84 7.0305 116.152 7.34351 116.152 7.72873V34.7672C116.152 35.1525 115.84 35.4656 115.456 35.4656H113.011Z" fill="black"/>
<path d="M236.767 0.180542C237.055 0.180542 237.283 0.409274 237.283 0.6982V3.17812C237.283 3.46707 237.511 3.6958 237.798 3.6958H240.268C240.556 3.6958 240.784 3.92452 240.784 4.21345V6.69337C240.784 6.98232 240.556 7.21105 240.268 7.21105H237.798C237.511 7.21105 237.283 7.43977 237.283 7.7287V34.7673C237.283 35.0561 237.511 35.285 237.798 35.285H240.268C240.556 35.285 240.784 35.5136 240.784 35.8025V38.2584C240.784 38.5473 240.556 38.7761 240.268 38.7761H227.775C227.488 38.7761 227.26 38.5473 227.26 38.2584V35.8025C227.26 35.5136 227.488 35.285 227.775 35.285H230.221C230.509 35.285 230.737 35.0561 230.737 34.7673V7.71665C230.737 7.42773 230.509 7.199 230.221 7.199H227.775C227.488 7.199 227.26 6.97027 227.26 6.68135V4.2014C227.26 3.91248 227.488 3.68375 227.775 3.68375H230.221C230.509 3.68375 230.737 3.45502 230.737 3.1661V0.6982C230.737 0.409274 230.964 0.180542 231.252 0.180542H233.266C233.554 0.180542 234.01 0.180542 234.298 0.180542H236.767ZM253.516 38.7639C253.229 38.7639 253 38.5353 253 38.2464V35.7905C253 35.5016 253.229 35.2728 253.516 35.2728H255.985C256.274 35.2728 256.501 35.0441 256.501 34.7553V7.71665C256.501 7.42773 256.274 7.199 255.985 7.199H253.516C253.229 7.199 253 6.97027 253 6.68135V4.2014C253 3.91248 252.773 3.68375 252.486 3.68375H241.299C241.011 3.68375 240.784 3.45502 240.784 3.1661V0.6982C240.784 0.409274 241.011 0.180542 241.299 0.180542H255.985C256.274 0.180542 256.501 0.409274 256.501 0.6982V3.17812C256.501 3.46707 256.729 3.6958 257.018 3.6958H259.486C259.774 3.6958 260.003 3.92452 260.003 4.21345V6.69337C260.003 6.98232 260.23 7.21105 260.517 7.21105H262.531C262.821 7.21105 263.048 7.43977 263.048 7.7287V34.7673C263.048 35.0561 263.275 35.285 263.564 35.285H266.033C266.32 35.285 266.549 35.5136 266.549 35.8025V38.2584C266.549 38.5473 266.32 38.7761 266.033 38.7761H253.529L253.516 38.7639Z" fill="black"/>
<path d="M266.02 38.9567H253.516C253.133 38.9567 252.82 38.6436 252.82 38.2584V35.8026C252.82 35.4174 253.133 35.1043 253.516 35.1043H255.985C256.165 35.1043 256.321 34.9599 256.321 34.7672V7.71669C256.321 7.53611 256.178 7.37961 255.985 7.37961H253.516C253.133 7.37961 252.82 7.06661 252.82 6.68139V4.20144C252.82 4.02086 252.676 3.86436 252.486 3.86436H241.299C240.915 3.86436 240.603 3.55136 240.603 3.16614V0.698235C240.603 0.313001 240.915 0 241.299 0H255.985C256.368 0 256.681 0.313001 256.681 0.698235V3.17818C256.681 3.35876 256.825 3.51525 257.018 3.51525H259.486C259.87 3.51525 260.183 3.82826 260.183 4.21348V6.69343C260.183 6.87399 260.326 7.0305 260.517 7.0305H262.531C262.915 7.0305 263.228 7.34351 263.228 7.72873V34.7672C263.228 34.9479 263.371 35.1043 263.562 35.1043H266.033C266.416 35.1043 266.729 35.4174 266.729 35.8026V38.2584C266.729 38.6436 266.416 38.9567 266.033 38.9567H266.02ZM253.516 35.4656C253.336 35.4656 253.18 35.61 253.18 35.8026V38.2584C253.18 38.439 253.323 38.5954 253.516 38.5954H266.02C266.2 38.5954 266.356 38.451 266.356 38.2584V35.8026C266.356 35.622 266.213 35.4656 266.02 35.4656H263.551C263.168 35.4656 262.855 35.1525 262.855 34.7672V7.71669C262.855 7.53611 262.711 7.37961 262.521 7.37961H260.506C260.123 7.37961 259.81 7.06661 259.81 6.68139V4.20144C259.81 4.02086 259.666 3.86436 259.476 3.86436H257.005C256.621 3.86436 256.308 3.55136 256.308 3.16614V0.698235C256.308 0.517656 256.165 0.361155 255.974 0.361155H241.287C241.107 0.361155 240.951 0.505618 240.951 0.698235V3.17818C240.951 3.35876 241.095 3.51525 241.287 3.51525H252.473C252.856 3.51525 253.169 3.82826 253.169 4.21348V6.69343C253.169 6.87399 253.313 7.0305 253.503 7.0305H255.974C256.358 7.0305 256.668 7.34351 256.668 7.72873V34.7672C256.668 35.1525 256.358 35.4656 255.974 35.4656H253.503H253.516ZM240.268 38.9567H227.775C227.391 38.9567 227.08 38.6436 227.08 38.2584V35.8026C227.08 35.4174 227.391 35.1043 227.775 35.1043H230.221C230.401 35.1043 230.556 34.9599 230.556 34.7672V7.71669C230.556 7.53611 230.413 7.37961 230.221 7.37961H227.775C227.391 7.37961 227.08 7.06661 227.08 6.68139V4.20144C227.08 3.81621 227.391 3.50321 227.775 3.50321H230.221C230.401 3.50321 230.556 3.35876 230.556 3.16614V0.698235C230.556 0.313001 230.868 0 231.252 0H236.767C237.151 0 237.462 0.313001 237.462 0.698235V3.17818C237.462 3.35876 237.606 3.51525 237.798 3.51525H240.268C240.651 3.51525 240.963 3.82826 240.963 4.21348V6.69343C240.963 7.07865 240.651 7.39166 240.268 7.39166H237.798C237.618 7.39166 237.462 7.53611 237.462 7.72873V34.7672C237.462 34.9479 237.606 35.1043 237.798 35.1043H240.268C240.651 35.1043 240.963 35.4174 240.963 35.8026V38.2584C240.963 38.6436 240.651 38.9567 240.268 38.9567ZM227.775 35.4656C227.595 35.4656 227.439 35.61 227.439 35.8026V38.2584C227.439 38.439 227.583 38.5954 227.775 38.5954H240.268C240.448 38.5954 240.603 38.451 240.603 38.2584V35.8026C240.603 35.622 240.46 35.4656 240.268 35.4656H237.798C237.414 35.4656 237.103 35.1525 237.103 34.7672V7.71669C237.103 7.33146 237.414 7.01846 237.798 7.01846H240.268C240.448 7.01846 240.603 6.87401 240.603 6.68139V4.20144C240.603 4.02086 240.46 3.86436 240.268 3.86436H237.798C237.414 3.86436 237.103 3.55136 237.103 3.16614V0.698235C237.103 0.517656 236.959 0.361155 236.767 0.361155H231.252C231.072 0.361155 230.916 0.517656 230.916 0.698235V3.17818C230.916 3.5634 230.604 3.87641 230.221 3.87641H227.775C227.595 3.87641 227.439 4.02086 227.439 4.21348V6.69343C227.439 6.87399 227.583 7.0305 227.775 7.0305H230.221C230.604 7.0305 230.916 7.34351 230.916 7.72873V34.7672C230.916 35.1525 230.604 35.4656 230.221 35.4656H227.775Z" fill="black"/>
<path d="M160.215 38.7639C159.927 38.7639 159.699 38.5353 159.699 38.2464V35.7905C159.699 35.5016 159.472 35.2728 159.184 35.2728H156.738C156.45 35.2728 156.222 35.0441 156.222 34.7553V27.0024C156.222 26.7136 156.45 26.4847 156.738 26.4847H159.184C159.472 26.4847 159.699 26.7136 159.699 27.0024V31.2399C159.699 31.5288 159.927 31.7576 160.215 31.7576H162.685C162.972 31.7576 163.2 31.9863 163.2 32.2753V34.7553C163.2 35.0441 163.428 35.2728 163.716 35.2728H173.175C173.463 35.2728 173.691 35.0441 173.691 34.7553V32.2753C173.691 31.9863 173.919 31.7576 174.206 31.7576H176.676C176.964 31.7576 177.192 31.5288 177.192 31.2399V25.2448C177.192 24.9558 176.964 24.7271 176.676 24.7271H174.206C173.919 24.7271 173.691 24.4983 173.691 24.2094V21.7295C173.691 21.4406 173.463 21.2119 173.175 21.2119H167.205C166.917 21.2119 166.689 20.9831 166.689 20.6942V18.2143C166.689 17.9253 166.461 17.6966 166.174 17.6966H160.203C159.915 17.6966 159.687 17.4679 159.687 17.1789V14.7231C159.687 14.4341 159.46 14.2054 159.172 14.2054H156.726C156.438 14.2054 156.21 13.9767 156.21 13.6878V7.69259C156.21 7.40364 156.438 7.17492 156.726 7.17492H159.172C159.46 7.17492 159.687 6.94619 159.687 6.65727V4.17734C159.687 3.88842 159.915 3.65967 160.203 3.65967H162.673C162.96 3.65967 163.188 3.88842 163.188 4.17734V10.1725C163.188 10.4614 163.416 10.6902 163.704 10.6902H166.174C166.461 10.6902 166.689 10.9189 166.689 11.2078V13.6878C166.689 13.9767 166.917 14.2054 167.205 14.2054H173.175C173.463 14.2054 173.691 14.4341 173.691 14.7231V17.1789C173.691 17.4679 173.919 17.6966 174.206 17.6966H180.153C180.441 17.6966 180.669 17.9253 180.669 18.2143V20.6942C180.669 20.9831 180.896 21.2119 181.184 21.2119H183.654C183.942 21.2119 184.169 21.4406 184.169 21.7295V31.2279C184.169 31.5168 183.942 31.7456 183.654 31.7456H181.184C180.896 31.7456 180.669 31.9743 180.669 32.2631V34.7431C180.669 35.0321 180.441 35.2608 180.153 35.2608H177.707C177.42 35.2608 177.192 35.4896 177.192 35.7785V38.2344C177.192 38.5233 176.964 38.7519 176.676 38.7519H160.215V38.7639ZM179.434 10.7143C179.146 10.7143 178.918 10.4855 178.918 10.1966V7.71665C178.918 7.42773 178.69 7.199 178.403 7.199H175.957C175.669 7.199 175.441 6.97027 175.441 6.68135V4.2014C175.441 3.91248 175.214 3.68375 174.926 3.68375H163.716C163.428 3.68375 163.2 3.45502 163.2 3.1661V0.698199C163.2 0.409274 163.428 0.180542 163.716 0.180542H178.403C178.69 0.180542 178.918 0.409274 178.918 0.698199V3.17812C178.918 3.46707 179.146 3.69579 179.434 3.69579H181.904C182.191 3.69579 182.419 3.92452 182.419 4.21344V10.2086C182.419 10.4976 182.191 10.7263 181.904 10.7263H179.434V10.7143Z" fill="black"/>
<path d="M176.676 38.9567H160.215C159.831 38.9567 159.52 38.6436 159.52 38.2584V35.8026C159.52 35.622 159.376 35.4656 159.184 35.4656H156.738C156.354 35.4656 156.043 35.1525 156.043 34.7672V27.0144C156.043 26.6293 156.354 26.3162 156.738 26.3162H159.184C159.568 26.3162 159.879 26.6293 159.879 27.0144V31.2521C159.879 31.4325 160.023 31.5891 160.215 31.5891H162.685C163.068 31.5891 163.38 31.902 163.38 32.2873V34.7672C163.38 34.9479 163.524 35.1043 163.716 35.1043H173.175C173.355 35.1043 173.511 34.9599 173.511 34.7672V32.2873C173.511 31.902 173.823 31.5891 174.206 31.5891H176.676C176.856 31.5891 177.012 31.4447 177.012 31.2521V25.2568C177.012 25.0761 176.868 24.9197 176.676 24.9197H174.206C173.823 24.9197 173.511 24.6066 173.511 24.2216V21.7416C173.511 21.561 173.367 21.4045 173.175 21.4045H167.205C166.821 21.4045 166.509 21.0915 166.509 20.7063V18.2263C166.509 18.0457 166.365 17.8892 166.174 17.8892H160.203C159.819 17.8892 159.508 17.5763 159.508 17.191V14.7351C159.508 14.5546 159.364 14.3981 159.172 14.3981H156.726C156.342 14.3981 156.031 14.0851 156.031 13.6998V7.70466C156.031 7.31942 156.342 7.00641 156.726 7.00641H159.172C159.352 7.00641 159.508 6.86196 159.508 6.66934V4.18941C159.508 3.80417 159.819 3.49116 160.203 3.49116H162.673C163.056 3.49116 163.368 3.80417 163.368 4.18941V10.1846C163.368 10.3652 163.512 10.5217 163.704 10.5217H166.174C166.557 10.5217 166.869 10.8347 166.869 11.2199V13.6998C166.869 13.8804 167.013 14.0369 167.205 14.0369H173.175C173.559 14.0369 173.871 14.3499 173.871 14.7351V17.191C173.871 17.3716 174.014 17.5281 174.206 17.5281H180.153C180.537 17.5281 180.848 17.8411 180.848 18.2263V20.7063C180.848 20.8868 180.992 21.0433 181.184 21.0433H183.654C184.037 21.0433 184.349 21.3563 184.349 21.7416V31.2401C184.349 31.6251 184.037 31.9382 183.654 31.9382H181.184C181.004 31.9382 180.848 32.0826 180.848 32.2753V34.7552C180.848 35.1405 180.537 35.4534 180.153 35.4534H177.707C177.527 35.4534 177.371 35.598 177.371 35.7904V38.2464C177.371 38.6316 177.06 38.9447 176.676 38.9447V38.9567ZM156.738 26.6773C156.558 26.6773 156.402 26.8219 156.402 27.0144V34.7672C156.402 34.9479 156.546 35.1043 156.738 35.1043H159.184C159.568 35.1043 159.879 35.4174 159.879 35.8026V38.2584C159.879 38.439 160.023 38.5954 160.215 38.5954H176.676C176.856 38.5954 177.012 38.451 177.012 38.2584V35.8026C177.012 35.4174 177.324 35.1043 177.707 35.1043H180.153C180.333 35.1043 180.489 34.9599 180.489 34.7672V32.2873C180.489 31.902 180.8 31.5891 181.184 31.5891H183.654C183.834 31.5891 183.99 31.4447 183.99 31.2521V21.7536C183.99 21.573 183.846 21.4165 183.654 21.4165H181.184C180.8 21.4165 180.489 21.1035 180.489 20.7183V18.2384C180.489 18.0578 180.345 17.9013 180.153 17.9013H174.206C173.823 17.9013 173.511 17.5883 173.511 17.203V14.7472C173.511 14.5666 173.367 14.4101 173.175 14.4101H167.205C166.821 14.4101 166.509 14.0971 166.509 13.7119V11.2319C166.509 11.0514 166.365 10.8949 166.174 10.8949H163.704C163.32 10.8949 163.008 10.5819 163.008 10.1966V4.21348C163.008 4.0329 162.865 3.87641 162.673 3.87641H160.203C160.023 3.87641 159.867 4.02086 159.867 4.21348V6.69343C159.867 7.07865 159.556 7.39166 159.172 7.39166H156.726C156.546 7.39166 156.39 7.53611 156.39 7.72873V13.7239C156.39 13.9045 156.534 14.061 156.726 14.061H159.172C159.556 14.061 159.867 14.374 159.867 14.7592V17.2151C159.867 17.3957 160.011 17.5522 160.203 17.5522H166.174C166.557 17.5522 166.869 17.8652 166.869 18.2504V20.7303C166.869 20.9109 167.013 21.0674 167.205 21.0674H173.175C173.559 21.0674 173.871 21.3804 173.871 21.7656V24.2456C173.871 24.4262 174.014 24.5826 174.206 24.5826H176.676C177.06 24.5826 177.371 24.8957 177.371 25.281V31.2761C177.371 31.6614 177.06 31.9742 176.676 31.9742H174.206C174.026 31.9742 173.871 32.1189 173.871 32.3115V34.7914C173.871 35.1765 173.559 35.4896 173.175 35.4896H163.716C163.332 35.4896 163.02 35.1765 163.02 34.7914V32.3115C163.02 32.1309 162.877 31.9742 162.685 31.9742H160.215C159.831 31.9742 159.52 31.6614 159.52 31.2761V27.0386C159.52 26.8579 159.376 26.7015 159.184 26.7015H156.738V26.6773ZM181.903 10.8949H179.434C179.05 10.8949 178.738 10.5819 178.738 10.1966V7.71669C178.738 7.53611 178.594 7.37961 178.403 7.37961H175.957C175.573 7.37961 175.261 7.06661 175.261 6.68139V4.20144C175.261 4.02086 175.118 3.86436 174.926 3.86436H163.716C163.332 3.86436 163.02 3.55136 163.02 3.16614V0.698235C163.02 0.313001 163.332 0 163.716 0H178.403C178.786 0 179.098 0.313001 179.098 0.698235V3.17818C179.098 3.35876 179.242 3.51525 179.434 3.51525H181.903C182.287 3.51525 182.599 3.82826 182.599 4.21348V10.2087C182.599 10.5939 182.287 10.9069 181.903 10.9069V10.8949ZM163.716 0.361155C163.536 0.361155 163.38 0.505618 163.38 0.698235V3.17818C163.38 3.35876 163.524 3.51525 163.716 3.51525H174.926C175.309 3.51525 175.621 3.82826 175.621 4.21348V6.69343C175.621 6.87399 175.765 7.0305 175.957 7.0305H178.403C178.786 7.0305 179.098 7.34351 179.098 7.72873V10.2087C179.098 10.3892 179.242 10.5457 179.434 10.5457H181.903C182.083 10.5457 182.239 10.4013 182.239 10.2087V4.21348C182.239 4.0329 182.095 3.87641 181.903 3.87641H179.434C179.05 3.87641 178.738 3.5634 178.738 3.17818V0.698235C178.738 0.517656 178.594 0.361155 178.403 0.361155H163.716Z" fill="black"/>
<path d="M201.622 45.2649V30.5056C201.622 30.2287 201.394 30.0001 201.118 30.0001H198.625C198.349 30.0001 198.121 29.7712 198.121 29.4943V21.7175C198.121 21.4406 197.893 21.2119 197.617 21.2119H195.112C194.836 21.2119 194.608 20.9831 194.608 20.7062V12.9534C194.608 12.6765 194.38 12.4478 194.105 12.4478H191.623C191.347 12.4478 191.119 12.2191 191.119 11.9422V4.18936C191.119 3.91248 190.891 3.68375 190.616 3.68375H186.383C186.108 3.68375 185.88 3.45502 185.88 3.17812V0.686161C185.88 0.409274 186.108 0.180542 186.383 0.180542H202.833C203.108 0.180542 203.336 0.409274 203.336 0.686161V3.20221C203.336 3.47909 203.108 3.70784 202.833 3.70784H198.589C198.313 3.70784 198.085 3.93657 198.085 4.21344V11.9903C198.085 12.2672 198.313 12.496 198.589 12.496H201.082C201.358 12.496 201.586 12.7247 201.586 13.0016V20.7544C201.586 21.0313 201.814 21.26 202.09 21.26H204.595C204.871 21.26 205.099 21.4886 205.099 21.7657V29.5426C205.099 29.8194 205.327 30.0481 205.602 30.0481H208.096C208.372 30.0481 208.6 30.2769 208.6 30.5538V38.3066C208.6 38.5835 208.372 38.8121 208.096 38.8121H205.602C205.327 38.8121 205.099 39.041 205.099 39.3178V45.3129C205.099 45.5898 204.871 45.8186 204.595 45.8186H202.09C201.814 45.8186 201.586 45.5898 201.586 45.3129L201.622 45.2649ZM186.312 59.3137V53.2944C186.312 53.0176 186.539 52.7889 186.815 52.7889H197.629C197.905 52.7889 198.133 53.0176 198.133 53.2944V55.8106C198.133 56.0874 197.905 56.3163 197.629 56.3163H195.124C194.848 56.3163 194.62 56.5449 194.62 56.8218V59.3379C194.62 59.6148 194.392 59.8434 194.117 59.8434H186.803C186.527 59.8434 186.3 59.6148 186.3 59.3379L186.312 59.3137ZM198.121 52.2954V46.2761C198.121 45.9991 198.349 45.7704 198.625 45.7704H201.118C201.394 45.7704 201.622 45.9991 201.622 46.2761V52.2954C201.622 52.5723 201.394 52.8009 201.118 52.8009H198.625C198.349 52.8009 198.121 52.5723 198.121 52.2954ZM208.612 29.5063V21.7295C208.612 21.4526 208.839 21.2239 209.115 21.2239H211.621C211.897 21.2239 212.125 21.4526 212.125 21.7295V29.5063C212.125 29.7832 211.897 30.0121 211.621 30.0121H209.115C208.839 30.0121 208.612 29.7832 208.612 29.5063ZM215.589 11.9783V4.18936C215.589 3.91248 215.362 3.68375 215.086 3.68375H210.854C210.578 3.68375 210.35 3.45502 210.35 3.17812V0.686161C210.35 0.409274 210.578 0.180542 210.854 0.180542H223.826C224.102 0.180542 224.33 0.409274 224.33 0.686161V3.20221C224.33 3.47909 224.102 3.70784 223.826 3.70784H219.582C219.306 3.70784 219.078 3.93657 219.078 4.21344V11.9903C219.078 12.2672 218.851 12.496 218.575 12.496H216.069C215.793 12.496 215.565 12.2672 215.565 11.9903L215.589 11.9783ZM212.113 20.7303V12.9775C212.113 12.7006 212.34 12.4719 212.616 12.4719H215.098C215.374 12.4719 215.601 12.7006 215.601 12.9775V20.7303C215.601 21.0072 215.374 21.2359 215.098 21.2359H212.616C212.34 21.2359 212.113 21.0072 212.113 20.7303Z" fill="black"/>
<path d="M194.13 60H186.817C186.445 60 186.134 59.6991 186.134 59.3139V53.2946C186.134 52.9213 186.433 52.6084 186.817 52.6084H197.631C198.003 52.6084 198.315 52.9093 198.315 53.2946V55.8105C198.315 56.1838 198.015 56.4969 197.631 56.4969H195.125C194.946 56.4969 194.814 56.6413 194.814 56.8097V59.3259C194.814 59.6989 194.514 60.012 194.13 60.012V60ZM186.817 52.9815C186.637 52.9815 186.505 53.1259 186.505 53.2946V59.3139C186.505 59.4943 186.649 59.6267 186.817 59.6267H194.13C194.31 59.6267 194.442 59.4823 194.442 59.3139V56.7977C194.442 56.4246 194.742 56.1116 195.125 56.1116H197.631C197.811 56.1116 197.943 55.9671 197.943 55.7985V53.2826C197.943 53.1019 197.799 52.9695 197.631 52.9695H186.817V52.9815ZM201.12 52.9815H198.626C198.255 52.9815 197.943 52.6806 197.943 52.2954V46.2761C197.943 45.9028 198.243 45.5899 198.626 45.5899H201.12C201.492 45.5899 201.803 45.8908 201.803 46.2761V52.2954C201.803 52.6684 201.504 52.9815 201.12 52.9815ZM198.626 45.951C198.446 45.951 198.315 46.0954 198.315 46.2641V52.2834C198.315 52.4638 198.458 52.5962 198.626 52.5962H201.12C201.3 52.5962 201.432 52.4518 201.432 52.2834V46.2641C201.432 46.0834 201.288 45.951 201.12 45.951H198.626ZM204.621 45.951H202.115C201.743 45.951 201.432 45.6501 201.432 45.2649V30.5057C201.432 30.3251 201.288 30.1926 201.12 30.1926H198.626C198.255 30.1926 197.943 29.8916 197.943 29.5065V21.7294C197.943 21.549 197.799 21.4165 197.631 21.4165H195.125C194.754 21.4165 194.442 21.1156 194.442 20.7303V12.9775C194.442 12.7969 194.298 12.6645 194.13 12.6645H191.649C191.277 12.6645 190.965 12.3636 190.965 11.9783V4.18941C190.965 4.00884 190.821 3.87641 190.654 3.87641H186.421C186.05 3.87641 185.738 3.57544 185.738 3.1902V0.686196C185.738 0.313001 186.038 0 186.421 0H202.871C203.242 0 203.554 0.300962 203.554 0.686196V3.20224C203.554 3.57544 203.254 3.88845 202.871 3.88845H198.626C198.446 3.88845 198.315 4.0329 198.315 4.20144V11.9783C198.315 12.1589 198.458 12.2913 198.626 12.2913H201.12C201.492 12.2913 201.803 12.5923 201.803 12.9775V20.7303C201.803 20.9109 201.947 21.0433 202.115 21.0433H204.621C204.993 21.0433 205.304 21.3443 205.304 21.7294V29.5065C205.304 29.6869 205.448 29.8194 205.616 29.8194H208.11C208.481 29.8194 208.793 30.1204 208.793 30.5057V38.2584C208.793 38.6316 208.493 38.9447 208.11 38.9447H205.616C205.436 38.9447 205.304 39.0891 205.304 39.2576V45.2649C205.304 45.6381 205.005 45.951 204.621 45.951ZM186.421 0.361155C186.241 0.361155 186.11 0.505618 186.11 0.674158V3.1902C186.11 3.37078 186.253 3.50321 186.421 3.50321H190.654C191.025 3.50321 191.337 3.80417 191.337 4.18941V11.9663C191.337 12.1469 191.481 12.2793 191.649 12.2793H194.13C194.502 12.2793 194.814 12.5803 194.814 12.9655V20.7183C194.814 20.8989 194.958 21.0313 195.125 21.0313H197.631C198.003 21.0313 198.315 21.3323 198.315 21.7174V29.4943C198.315 29.6749 198.458 29.8074 198.626 29.8074H201.12C201.492 29.8074 201.803 30.1084 201.803 30.4935V45.2529C201.803 45.4333 201.947 45.5657 202.115 45.5657H204.621C204.801 45.5657 204.933 45.4213 204.933 45.2529V39.2456C204.933 38.8723 205.232 38.5594 205.616 38.5594H208.11C208.29 38.5594 208.422 38.415 208.422 38.2464V30.4935C208.422 30.3131 208.278 30.1806 208.11 30.1806H205.616C205.244 30.1806 204.933 29.8796 204.933 29.4943V21.7174C204.933 21.537 204.789 21.4045 204.621 21.4045H202.115C201.743 21.4045 201.432 21.1035 201.432 20.7183V12.9655C201.432 12.7849 201.288 12.6525 201.12 12.6525H198.626C198.255 12.6525 197.943 12.3515 197.943 11.9663V4.18941C197.943 3.81621 198.243 3.50321 198.626 3.50321H202.871C203.05 3.50321 203.182 3.35876 203.182 3.1902V0.686196C203.182 0.505618 203.038 0.373194 202.871 0.373194H186.421V0.361155ZM211.611 30.1926H209.105C208.733 30.1926 208.422 29.8916 208.422 29.5065V21.7294C208.422 21.3563 208.721 21.0433 209.105 21.0433H211.611C211.982 21.0433 212.294 21.3443 212.294 21.7294V29.5065C212.294 29.8796 211.994 30.1926 211.611 30.1926ZM209.117 21.4165C208.937 21.4165 208.805 21.561 208.805 21.7294V29.5065C208.805 29.6869 208.949 29.8194 209.117 29.8194H211.623C211.802 29.8194 211.934 29.6749 211.934 29.5065V21.7294C211.934 21.549 211.79 21.4165 211.623 21.4165H209.117ZM215.088 21.4165H212.606C212.234 21.4165 211.922 21.1156 211.922 20.7303V12.9775C211.922 12.6043 212.222 12.2913 212.606 12.2913H215.088C215.459 12.2913 215.771 12.5923 215.771 12.9775V20.7303C215.771 21.1035 215.471 21.4165 215.088 21.4165ZM212.606 12.6525C212.426 12.6525 212.294 12.7969 212.294 12.9655V20.7183C212.294 20.8989 212.438 21.0313 212.606 21.0313H215.088C215.267 21.0313 215.399 20.8868 215.399 20.7183V12.9655C215.399 12.7849 215.255 12.6525 215.088 12.6525H212.606ZM218.588 12.6525H216.083C215.711 12.6525 215.399 12.3515 215.399 11.9663V4.18941C215.399 4.00884 215.255 3.87641 215.088 3.87641H210.855C210.484 3.87641 210.172 3.57544 210.172 3.1902V0.686196C210.172 0.313001 210.472 0 210.855 0H223.828C224.199 0 224.511 0.300962 224.511 0.686196V3.20224C224.511 3.57544 224.211 3.88845 223.828 3.88845H219.584C219.404 3.88845 219.272 4.0329 219.272 4.20144V11.9783C219.272 12.3515 218.972 12.6645 218.588 12.6645V12.6525ZM210.855 0.361155C210.676 0.361155 210.544 0.505618 210.544 0.674158V3.1902C210.544 3.37078 210.688 3.50321 210.855 3.50321H215.088C215.459 3.50321 215.771 3.80417 215.771 4.18941V11.9663C215.771 12.1469 215.915 12.2793 216.083 12.2793H218.588C218.768 12.2793 218.9 12.1348 218.9 11.9663V4.18941C218.9 3.81621 219.2 3.50321 219.584 3.50321H223.828C224.008 3.50321 224.14 3.35876 224.14 3.1902V0.686196C224.14 0.505618 223.996 0.373194 223.828 0.373194H210.855V0.361155Z" fill="black"/>
</g>
</svg>
