<svg fill="none" height="60" viewBox="0 0 302 60" width="302" xmlns="http://www.w3.org/2000/svg"><path d="m140.328 30.4656c0 6.6626-5.212 11.5722-11.609 11.5722-6.396 0-11.609-4.9096-11.609-11.5722 0-6.7096 5.213-11.5722 11.609-11.5722 6.397 0 11.609 4.8626 11.609 11.5722zm-5.082 0c0-4.1635-3.021-7.0122-6.527-7.0122s-6.527 2.8487-6.527 7.0122c0 4.1217 3.021 7.0122 6.527 7.0122s6.527-2.8957 6.527-7.0122z" fill="#ea4335"/><path d="m165.372 30.4656c0 6.6626-5.212 11.5722-11.609 11.5722s-11.609-4.9096-11.609-11.5722c0-6.7043 5.212-11.5722 11.609-11.5722s11.609 4.8626 11.609 11.5722zm-5.082 0c0-4.1635-3.021-7.0122-6.527-7.0122s-6.527 2.8487-6.527 7.0122c0 4.1217 3.021 7.0122 6.527 7.0122s6.527-2.8957 6.527-7.0122z" fill="#fbbc05"/><path d="m189.373 19.5926v20.7756c0 8.5461-5.04 12.0365-10.998 12.0365-5.609 0-8.985-3.7513-10.258-6.8191l4.425-1.8417c.787 1.8834 2.718 4.1061 5.827 4.1061 3.814 0 6.178-2.3531 6.178-6.7827v-1.6643h-.178c-1.137 1.4035-3.328 2.6296-6.094 2.6296-5.786 0-11.087-5.04-11.087-11.5253 0-6.5321 5.301-11.6139 11.087-11.6139 2.76 0 4.952 1.2261 6.094 2.5879h.178v-1.8835h4.826zm-4.466 10.9147c0-4.0747-2.719-7.0539-6.178-7.0539-3.506 0-6.443 2.9792-6.443 7.0539 0 4.0331 2.937 6.9705 6.443 6.9705 3.459 0 6.178-2.9374 6.178-6.9705z" fill="#4285f4"/><path d="m197.328 7.41528v33.91302h-4.957v-33.91302z" fill="#34a853"/><path d="m216.643 34.2744 3.944 2.6296c-1.273 1.8834-4.341 5.1287-9.642 5.1287-6.574 0-11.483-5.0818-11.483-11.5722 0-6.8818 4.951-11.5722 10.915-11.5722 6.005 0 8.942 4.7791 9.902 7.3617l.527 1.3148-15.469 6.407c1.184 2.3217 3.026 3.5061 5.608 3.5061 2.588 0 4.383-1.2731 5.698-3.2035zm-12.141-4.1635 10.341-4.2939c-.569-1.4452-2.28-2.4522-4.294-2.4522-2.583 0-6.178 2.28-6.047 6.7461z" fill="#ea4335"/><path d="m98.3493 27.4552v-4.9096h16.5447c.161.8557.245 1.8679.245 2.9635 0 3.6835-1.007 8.2383-4.252 11.4835-3.157 3.287-7.19 5.04-12.5324 5.04-9.9026 0-18.2296-8.0661-18.2296-17.9687s8.327-17.96869 18.2296-17.96869c5.4784 0 9.3804 2.14957 12.3134 4.95129l-3.465 3.4644c-2.102-1.9722-4.951-3.5061-8.8537-3.5061-7.2313 0-12.8869 5.8278-12.8869 13.0591s5.6556 13.0591 12.8869 13.0591c4.6907 0 7.3617-1.8834 9.0727-3.5947 1.388-1.3879 2.301-3.3705 2.661-6.0783z" fill="#4285f4"/></svg>