<svg fill="none" height="61" viewBox="0 0 302 61" width="302" xmlns="http://www.w3.org/2000/svg"><g fill="#000"><path d="m106.08 23.8637c-.458-1.6066-1.306-2.8617-2.544-3.7655-1.227-.9148-2.773-1.3723-4.6357-1.3723-2.6219 0-4.7474.9707-6.3762 2.912-1.6178 1.9302-2.4268 4.6803-2.4268 8.2506 0 3.5815.7979 6.3484 2.3934 8.3008 1.5954 1.9525 3.7542 2.9287 6.4765 2.9287 2.4098 0 4.3008-.6248 5.6738-1.8743 1.383-1.2608 2.097-2.9511 2.142-5.0709h-7.3639v-5.4558h14.3419v4.3178c0 3.0012-.635 5.5896-1.907 7.7653-1.272 2.1644-3.024 3.8268-5.255 4.9872-2.221 1.1603-4.776 1.7405-7.6652 1.7405-3.2132 0-6.036-.7085-8.4681-2.1254-2.4323-1.4281-4.329-3.4531-5.6902-6.075-1.35-2.6332-2.025-5.7572-2.025-9.372 0-3.7042.7085-6.8727 2.1254-9.5057 1.417-2.6331 3.336-4.6469 5.757-6.0415 2.4212-1.3947 5.1379-2.092 8.1502-2.092 2.5889 0 4.9319.4909 7.0289 1.4728 2.098.9818 3.816 2.3429 5.155 4.0834 1.338 1.7294 2.164 3.7265 2.476 5.9913z"/><path d="m117.186 47.0591v-25.7058h6.911v4.4852h.268c.469-1.5955 1.255-2.8005 2.36-3.6149 1.104-.8256 2.376-1.2384 3.816-1.2384.792 0 1.539.0836 2.242.251v6.326c-.335-.1115-.798-.2009-1.389-.2677-.591-.0782-1.132-.1172-1.623-.1172-1.573 0-2.879.4965-3.916 1.4894-1.027.9818-1.54 2.265-1.54 3.8492v14.5432z"/><path d="m141.178 47.5445c-2.454 0-4.49-.6415-6.108-1.9247-1.618-1.283-2.427-3.1964-2.427-5.7402 0-1.9189.452-3.4252 1.356-4.5186.903-1.0934 2.086-1.891 3.548-2.3932 1.472-.5132 3.057-.8478 4.753-1.0042 2.231-.2231 3.826-.4573 4.786-.7028.959-.2455 1.439-.7809 1.439-1.6066v-.1004c0-1.0599-.335-1.88-1.004-2.4602-.658-.5801-1.595-.8702-2.812-.8702-1.283 0-2.304.279-3.062.8368-.759.5579-1.261 1.2662-1.506 2.1254l-6.594-.5356c.491-2.3429 1.707-4.2005 3.648-5.5729 1.953-1.3723 4.469-2.0584 7.548-2.0584 1.908 0 3.693.3012 5.355.9037 1.663.6025 3.002 1.5452 4.017 2.8283 1.026 1.2719 1.54 2.9288 1.54 4.9705v17.338h-6.762v-3.5648h-.2c-.625 1.1938-1.562 2.1702-2.812 2.9287-1.239.7476-2.806 1.1214-4.703 1.1214zm2.042-4.9202c1.562 0 2.845-.4519 3.849-1.3556 1.004-.9149 1.506-2.0474 1.506-3.3974v-2.7278c-.279.1896-.714.3569-1.305.5019-.58.1451-1.205.2734-1.875.3851-.658.1003-1.249.1897-1.773.2677-1.25.1786-2.26.53-3.03 1.0543-.758.5245-1.137 1.2886-1.137 2.2928 0 .9819.351 1.7238 1.054 2.2258.714.5021 1.618.7532 2.711.7532z"/><path d="m173.124 21.3534v5.3553h-5.105v20.3504h-7.129v-20.3504h-3.632v-5.3553h3.632v-1.8577c0-2.8004.798-4.8868 2.393-6.2591 1.607-1.3723 3.621-2.0584 6.042-2.0584 1.093 0 2.092.0836 2.995.251.915.1674 1.596.318 2.042.4519l-1.255 5.3553c-.279-.0892-.625-.1729-1.038-.251s-.831-.1172-1.255-.1172c-1.049 0-1.779.2455-2.192.7364-.402.4797-.603 1.1548-.603 2.025v1.7238z"/><path d="m175.728 47.0592v-34.2744h7.129v12.8863h.218c.323-.7028.781-1.4113 1.372-2.1254.592-.714 1.373-1.3109 2.343-1.7907.971-.4909 2.17-.7363 3.598-.7363 1.886 0 3.615.4909 5.188 1.4727 1.573.9707 2.834 2.4378 3.783 4.4015.959 1.9524 1.439 4.4014 1.439 7.3469 0 2.8674-.463 5.2883-1.389 7.2631-.926 1.9636-2.176 3.4532-3.749 4.4685-1.573 1.004-3.336 1.5061-5.288 1.5061-1.384 0-2.561-.2287-3.532-.6861-.959-.4575-1.746-1.032-2.359-1.7237-.603-.7031-1.071-1.4115-1.406-2.1255h-.318v4.117zm6.979-12.8529c0 2.2872.468 4.128 1.406 5.5228.948 1.3834 2.281 2.0752 3.999 2.0752 1.752 0 3.091-.7031 4.017-2.1087.926-1.417 1.389-3.2467 1.389-5.4893 0-2.2314-.463-4.0389-1.389-5.4224-.915-1.3945-2.254-2.0919-4.017-2.0919-1.729 0-3.062.6806-3.999 2.0417-.938 1.35-1.406 3.1742-1.406 5.4726z"/><path d="m210.999 47.5445c-2.454 0-4.49-.6415-6.108-1.9247-1.618-1.283-2.427-3.1964-2.427-5.7402 0-1.9189.452-3.4252 1.356-4.5186s2.086-1.891 3.548-2.3932c1.472-.5132 3.057-.8478 4.752-1.0042 2.231-.2231 3.828-.4573 4.788-.7028.959-.2455 1.439-.7809 1.439-1.6066v-.1004c0-1.0599-.335-1.88-1.005-2.4602-.658-.5801-1.595-.8702-2.812-.8702-1.283 0-2.303.279-3.063.8368-.758.5579-1.26 1.2662-1.505 2.1254l-6.594-.5356c.491-2.3429 1.707-4.2005 3.648-5.5729 1.953-1.3723 4.468-2.0584 7.548-2.0584 1.907 0 3.693.3012 5.356.9037s3 1.5452 4.016 2.8283c1.027 1.2719 1.539 2.9288 1.539 4.9705v17.338h-6.761v-3.5648h-.2c-.626 1.1938-1.563 2.1702-2.812 2.9287-1.238.7476-2.805 1.1214-4.703 1.1214zm2.043-4.9202c1.561 0 2.844-.4519 3.849-1.3556 1.003-.9149 1.505-2.0474 1.505-3.3974v-2.7278c-.279.1896-.713.3569-1.306.5019-.579.1451-1.204.2734-1.873.3851-.659.1003-1.25.1897-1.774.2677-1.25.1786-2.26.53-3.029 1.0543-.759.5245-1.138 1.2886-1.138 2.2928 0 .9819.351 1.7238 1.054 2.2258.714.5021 1.617.7532 2.712.7532z"/><path d="m250.509 28.6835-6.526.4016c-.178-.8255-.63-1.5339-1.356-2.1254-.724-.5913-1.706-.8869-2.944-.8869-1.104 0-2.043.2343-2.813.7029-.758.4573-1.132 1.071-1.121 1.8408-.011.6137.23 1.1325.721 1.5566.502.4238 1.349.7641 2.543 1.0207l4.652.9373c4.943 1.0153 7.42 3.336 7.431 6.9619 0 1.6847-.496 3.1631-1.49 4.4349-.982 1.2719-2.33 2.265-4.05 2.9789-1.717.7031-3.687 1.0545-5.907 1.0545-3.403 0-6.114-.7085-8.133-2.1255-2.02-1.428-3.198-3.3695-3.533-5.8239l7.014-.3682c.222 1.0488.735 1.8408 1.539 2.3764.814.5356 1.858.8033 3.13.8033 1.249 0 2.254-.2455 3.012-.7363.769-.491 1.161-1.1158 1.172-1.8745-.034-1.2719-1.133-2.1253-3.298-2.5604l-4.451-.887c-4.976-.9931-7.454-3.4419-7.431-7.347-.011-2.4769.976-4.4293 2.963-5.8574 1.996-1.4281 4.641-2.1421 7.931-2.1421 3.247 0 5.802.6861 7.666 2.0584 1.874 1.3724 2.967 3.2411 3.279 5.6064z"/><path d="m265.414 47.5613c-2.632 0-4.903-.5356-6.81-1.6066-1.91-1.0823-3.375-2.6108-4.403-4.5856-1.027-1.986-1.538-4.3346-1.538-7.0456 0-2.6443.511-4.965 1.538-6.9622 1.028-1.997 2.472-3.5534 4.335-4.6691 1.874-1.1157 4.073-1.6735 6.594-1.6735 2.265 0 4.306.4797 6.125 1.4392 1.83.9595 3.281 2.4099 4.351 4.3513 1.071 1.9302 1.607 4.3511 1.607 7.2631v1.9582h-17.505v.0166c0 1.919.523 3.4308 1.573 4.5355 1.047 1.1045 2.466 1.6568 4.251 1.6568 1.193 0 2.226-.2511 3.095-.7532.871-.502 1.484-1.2439 1.842-2.2258l6.593.4352c-.502 2.3875-1.774 4.2954-3.815 5.7235-2.043 1.428-4.654 2.1422-7.833 2.1422zm-5.706-15.9491h10.794c-.011-1.5285-.502-2.7891-1.473-3.7822-.97-.993-2.231-1.4894-3.783-1.4894-1.584 0-2.884.5132-3.898 1.5396-1.016 1.0264-1.563 2.2705-1.64 3.732z"/><g clip-rule="evenodd" fill-rule="evenodd"><path d="m47.1086 8.41072c.4404.88051.0835 1.95118-.7971 2.39148l-17.6072 8.8036 16.8325 8.4162 16.8291-8.4145-6.4307-3.2084-9.6132 4.8013c-.8806.4399-1.9512.0826-2.391-.7981-.4401-.8807-.0826-1.9513.7982-2.3912l10.4091-5.1989c.5012-.2504 1.091-.2505 1.5921-.0004l10.4205 5.199c.6044.3015.9863.9188.9867 1.5942.0004.6755-.3812 1.293-.9854 1.5951l-20.7957 10.3978c-.2634.1317-.5437.1921-.8191.1885-.2758.0038-.5565-.0566-.8203-.1883l-20.7957-10.398c-.6039-.3019-.9854-.9192-.9854-1.5943 0-.6752.3815-1.2924.9854-1.5943l20.7957-10.39794c.8807-.44026 1.9513-.08336 2.3915.79716z"/><path d="m23.152 39.5973c.4402-.8806 1.5109-1.2375 2.3914-.7972l19.9986 9.9994 19.9987-9.9994c.8806-.4403 1.9512-.0834 2.3916.7972.4402.8805.0834 1.9511-.7973 2.3915l-20.7957 10.3978c-.5019.251-1.0926.251-1.5943 0l-20.7959-10.3978c-.8805-.4404-1.2374-1.511-.7971-2.3915z"/><path d="m23.152 29.1985c.4402-.8804 1.5109-1.2373 2.3914-.7971l19.9986 9.9993 19.9987-9.9993c.8806-.4402 1.9512-.0833 2.3916.7971.4402.8806.0834 1.9513-.7973 2.3915l-20.7957 10.398c-.5019.2508-1.0926.2508-1.5943 0l-20.7959-10.398c-.8805-.4402-1.2374-1.5109-.7971-2.3915z"/></g></g></svg>