<svg fill="none" height="394" viewBox="0 0 1138 394" width="1138" xmlns="http://www.w3.org/2000/svg"><g fill="#000"><path d="m320 88.4v172.4h-24.3v-78.3h-90.6v78.3h-24.3v-172.4h24.3v73.3h90.6v-73.3z"/><path d="m343.8 197.1c0-40.4 25.9-66.4 61.4-66.4 39.5 0 61.8 32.8 59 73.3h-96.8c0 25.5 17.1 40.9 38.1 40.9 20 0 29.3-8.6 34.7-21.2h22.4c-5.9 22.1-25 40.2-56.6 40.2-41.1.1-62.2-29-62.2-66.8zm23.7-11.6h73.7c-.5-18.1-12.8-36.2-36.2-36.2-21.8 0-36.5 13.1-37.5 36.2z"/><path d="m508.6 260.9h-21.6v-172.5h21.6z"/><path d="m614.4 170.2c-3.3-15.2-15.2-21.2-31.2-21.2-13.6 0-27.8 4.5-27.8 16.2 0 10.2 7.1 14.5 20.5 17.4l18.1 3.6c24.3 4.8 44.7 13.3 44.7 38.1 0 25.2-22.8 39.7-53 39.7-34.5 0-53.5-22.1-55.9-44.5h22.8c3.3 16.4 13.6 26.2 33.5 26.2 17.4 0 30.7-7.1 30.7-19 0-12.8-12.1-18.3-26.9-21.2l-19-3.8c-18.3-3.8-37.3-11.7-37.3-35.4 0-22.6 22.8-35.7 52.1-35.7 28.5 0 47.3 15.5 51.4 39.7h-22.7z"/><path d="m684.1 88.4v26.2h-21.6v-26.2zm0 44.5v128h-21.6v-128z"/><path d="m737.4 152.2c7.4-12.1 19.7-21.4 41.4-21.4 30.9 0 42.1 20 42.1 49.2v80.9h-21.6v-74.4c0-19.7-3.3-36.9-28.1-36.9-20.9 0-33.8 14.5-33.8 41.9v69.5h-21.6v-128h21.6z"/><path d="m935.5 132.9h21.6v110.8c0 26.2-4.8 36.9-12.1 45-9.3 10.7-25.2 16.9-44.2 16.9-29 0-48.5-13.3-52.6-39.2h23.1c2.9 11.4 9.8 20.2 29.7 20.2 11.7 0 20.5-3.3 26.2-9.5 4.8-5 8.3-10.9 8.3-28.3v-12.1c-7.8 13.6-20.2 22.1-40.7 22.1-30.2 0-52.8-22.8-52.8-64 0-40.9 22.6-64 52.8-64 20.5 0 32.8 8.8 40.7 22.4zm-35.2 16.4c-23.1 0-34.7 16.4-34.7 45.4 0 29.3 11.7 45.7 34.7 45.7 19.3 0 36.2-13.1 36.2-45.7 0-32.3-16.9-45.4-36.2-45.4z"/></g></svg>