<svg fill="none" height="106" viewBox="0 0 343 106" width="343" xmlns="http://www.w3.org/2000/svg"><g clip-rule="evenodd" fill-rule="evenodd"><path d="m62.25 30.7402v21.89l21.74-21.89" fill="#a1d1ff"/><path d="m106.24 30.7402v21.89l21.82-21.89" fill="#a1d1ff"/><path d="m83.9902 30.7402v21.89h.07l22.1798-21.89" fill="#a1d1ff"/><path d="m106.24 52.63v-21.89l-22.25 21.89v-43.63l-21.74 21.74v-21.74l-22.25 22.25v43.63l22.25-22.25v21.89l21.74-21.89v43.78l22.25-22.39v-21.38zm-43.99-21.89h21.74l-21.74 21.89" fill="#0080bf"/><g fill="#053964"><path d="m303.9 62.8599h-3.64v3.64c0 2.43-3.29 4.33-5.38 4.33h-1.04c-2.26 0-5.38-1.91-5.38-4.33v-27.24c0-2.25 3.3-3.99 5.38-3.99h1.04c2.09 0 5.38 1.74 5.38 3.99v3.64h3.64v-3.64c0-4.51-5.03-7.63-9.02-7.63h-1.04c-4.17 0-9.02 3.82-9.02 7.63v27.24c0 4.51 5.03 7.98 9.02 7.98h1.04c4.16 0 9.02-3.99 9.02-7.98"/><path d="m261.21 31.7998v43.03h17.35v-3.82h-13.53v-15.79h12.49v-3.82h-12.49v-15.79h13.53v-3.81"/><path d="m232.23 31.7998v3.81h9.9v39.22h3.82v-39.22h10.06v-3.81"/><path d="m197.42 52.9604h-9.72v3.3h5.9v13.88c-.17 1.56-2.25 1.56-6.59 1.56-5.21-.35-7.11-1.74-7.29-3.99v-28.63c1.56-6.94 14.58-5.9 13.88 3.82h3.82c1.21-14.75-19.79-15.1-21.52-4.34v29.67c.7 5.03 5.03 6.77 11.28 6.77 5.03 0 9.89-.69 10.24-4.17"/><path d="m223.27 31.7998v19.6h-13.88v-19.6h-3.82v43.03h3.82v-19.61h13.88l-.17 19.61h3.82l.17-43.03"/><path d="m163.57 31.7998v43.03h3.82v-43.03"/><path d="m150.9 31.7998v19.6h-13.7v-19.6h-3.82v43.03h3.82v-19.61h13.7v19.61h3.82v-43.03"/></g></g></svg>