<svg fill="none" height="60" viewBox="0 0 301 60" width="301" xmlns="http://www.w3.org/2000/svg" xmlns:xlink="http://www.w3.org/1999/xlink"><linearGradient id="a" gradientUnits="userSpaceOnUse" x1="32.2936" x2="81.5219" y1="54.7781" y2="6.23522"><stop offset="0" stop-color="#ff9419"/><stop offset=".43" stop-color="#ff021d"/><stop offset=".99" stop-color="#e600ff"/></linearGradient><mask id="b" height="57" maskUnits="userSpaceOnUse" width="261" x="20" y="2"><path d="m280.376 2.3761h-260v55.8389h260z" fill="#fff"/></mask><g mask="url(#b)"><path d="m100.54 37.138c0 .6742-.142 1.2695-.427 1.7931-.2746.5148-.6941.9373-1.2073 1.2146-.5232.2853-1.111.4288-1.785.4288h-3.3416v4.8646h4.0477c1.524 0 2.8892-.3411 4.1032-1.0241 1.192-.6627 2.18-1.6399 2.857-2.8252.69-1.1978 1.04-2.5471 1.04-4.0549v-15.9918h-5.287zm14.231-1.4529h11.071v-4.4678h-11.071v-5.071h12.237v-4.6032h-17.388v23.888h17.729v-4.6032h-12.578zm14.238-9.4041h7.078v19.143h5.287v-19.143h7.046v-4.7379h-19.419v4.7458zm37.475 7.1742c-.424-.2222-.871-.3952-1.334-.5156.35-.0983.69-.2285 1.016-.3889.873-.4527 1.564-1.0871 2.055-1.9048.493-.8177.747-1.7533.747-2.8172 0-1.2146-.333-2.3017-.992-3.262-.659-.9524-1.587-1.6983-2.778-2.2379-1.191-.5315-2.555-.8017-4.079-.8017h-10.611v23.8881h10.818c1.602 0 3.031-.2773 4.293-.8408 1.253-.5635 2.23-1.3413 2.929-2.3494.689-1.0002 1.039-2.1431 1.039-3.4286 0-1.1826-.27-2.2378-.818-3.1742-.536-.9273-1.326-1.6819-2.278-2.175zm-10.841-7.9042h4.69c.651 0 1.222.1195 1.723.349.478.212.884.5597 1.166 1.0002.278.428.42.9365.42 1.5158 0 .5795-.142 1.127-.42 1.5788-.278.4527-.667.7938-1.166 1.0401-.501.2462-1.072.365-1.723.365h-4.69v-5.8577.008zm8.079 14.4521c-.302.4518-.73.8017-1.277 1.0471-.556.2463-1.184.3651-1.905.3651h-4.897v-6.1262h4.897c.706 0 1.333.1346 1.888.396.548.2622.985.6272 1.286 1.1038.301.4758.461 1.0154.461 1.6266 0 .6113-.152 1.1349-.453 1.5876zm23.587-4.2303c1.325-.6352 2.348-1.5318 3.079-2.6826.73-1.1508 1.095-2.4841 1.095-4.0079s-.357-2.8093-1.071-3.9521c-.715-1.1429-1.73-2.0243-3.04-2.6507-1.31-.6272-2.826-.9364-4.556-.9364h-10.459v23.888h5.293v-8.698h3.445l4.848 8.698h6.04l-5.46-9.3403c.27-.0957.539-.1992.793-.318zm-1.715-4.8806c-.293.5028-.734.9042-1.261 1.1508-.549.2694-1.191.4041-1.929.4041h-4.762v-6.6108h4.762c.738 0 1.38.1355 1.929.3969.526.2461.965.6442 1.261 1.1428.294.4925.445 1.0799.445 1.7454 0 .667-.151 1.2543-.445 1.7548zm16.413-9.3491-8.532 23.888h5.373l1.691-5.2695h8.857l1.809 5.2695h5.269l-8.738-23.888zm-.27 14.6186 2.746-8.4287.325-1.5317.325 1.5317 2.938 8.4287zm16.491 9.2694h5.46v-23.888h-5.46zm24.722-7.7305-10.277-16.1575h-5.151v23.888h4.826v-16.1583l10.221 16.1583h5.207v-23.888h-4.826zm25.127-2.6738c-.516-.9922-1.247-1.825-2.175-2.5-.928-.6743-2-1.119-3.206-1.3493l-4.063-.8328c-.635-.1514-1.143-.4128-1.516-.7938-.374-.3809-.565-.8575-.565-1.421 0-.5156.136-.9603.413-1.3412.271-.381.659-.6743 1.151-.8887.493-.2143 1.064-.3171 1.715-.3171s1.238.1107 1.738.3331c.499.2223.888.5316 1.166.9364.279.4049.421.8567.421 1.3732h5.294c-.032-1.3892-.421-2.6196-1.151-3.6828-.73-1.0711-1.754-1.9047-3.055-2.508-1.302-.6033-2.794-.9046-4.461-.9046s-3.143.3092-4.436.9365c-1.294.6272-2.31 1.4919-3.032 2.6029-.722 1.1117-1.087 2.3733-1.087 3.7934 0 1.1509.23 2.1909.698 3.1114.46.9195 1.139 1.7124 1.976 2.3096.857.6112 1.842 1.0392 2.969 1.2775l4.301.8886c.706.1674 1.262.4766 1.675.9213.412.4439.611.9914.611 1.6577 0 .5324-.151 1.0169-.452 1.4369-.302.4208-.723.746-1.263.9763-.539.2303-1.174.3411-1.904.3411s-1.421-.1268-2.016-.381c-.595-.2534-1.056-.6184-1.381-1.095-.333-.4678-.492-1.0161-.492-1.6266h-5.293c.023 1.4919.42 2.8013 1.206 3.9442.777 1.1349 1.849 2.0243 3.214 2.6586 1.365.6352 2.928.9524 4.691.9524 1.761 0 3.348-.3252 4.714-.9763 1.373-.6503 2.436-1.5477 3.206-2.6905s1.151-2.4363 1.151-3.8812c0-1.1819-.262-2.269-.778-3.2691z" fill="#000"/><path d="m47.8264 7.7096-13.2933 13.2933c-1.8678 1.8688-2.917 4.403-2.9169 7.0452v23.7653c0 2.1996 1.7852 3.9848 3.9848 3.9848h23.7654c2.6459 0 5.1722-1.052 7.0451-2.9169l13.2933-13.2933c1.8649-1.8649 2.9169-4.3992 2.9169-7.0451v-23.76537c0-2.19961-1.7852-3.98481-3.9848-3.98481h-23.7654c-2.6459 0-5.1722 1.05199-7.0451 2.91688z" fill="url(#a)"/><path d="m69.8704 17.5439h-31.8785v31.8785h31.8785z" fill="#000"/><path d="m55.5249 42.2498h-13.5483v3.1878h13.5483z" fill="#fff"/></g></svg>