<svg fill="none" height="60" viewBox="0 0 301 60" width="301" xmlns="http://www.w3.org/2000/svg"><g fill="#171717"><path d="m142.978 44.6931v-25.3268c0-3.1073 2.568-5.6353 5.724-5.6353h13.982v6.816h-10.172c-.813 0-1.474.6524-1.474 1.4542v22.6917h-8.06z"/><path d="m69.1755 44.7057c-1.3697 0-2.6682-.518-3.656-1.4586l-15.8918-15.284c-1.469-1.4127-1.4899-3.7569-.0462-5.1954l15.6417-15.58981c.9957-.97883 2.3157-1.51779 3.7171-1.51779l5.4179.0051-.0436 7.9318-3.5854-.0117c-.5436 0-1.0707.2199-1.4468.6031l-11.106 10.8628 11.459 11.1393c.3716.373.8918.5882 1.4251.5882l3.253-.0113v7.9319z"/><path d="m47.0035 5.65045h-8.2359v39.06325h8.2359z"/><path d="m92.4104 45.3703c-3.3728 0-6.3036-.6574-8.711-1.9537-2.4027-1.2934-4.2822-3.1676-5.5862-5.5706-1.307-2.4067-1.9696-5.3115-1.9696-8.634 0-3.378.6626-6.3065 1.9695-8.7044 1.3041-2.3928 3.2164-4.2525 5.6839-5.5271 2.4739-1.2785 5.5069-1.9269 9.0146-1.9269 5.4563 0 9.4774 1.5298 11.9524 4.5472 2.452 2.9922 3.513 7.1609 3.152 12.3888h-23.7079l.008.1894c.0636 1.4972.3729 2.8957.9193 4.1565.622 1.436 1.5493 2.5963 2.756 3.4485 1.2091.8556 2.7294 1.2894 4.519 1.2894 1.9214 0 3.5765-.4763 4.9195-1.4158 1.3058-.9131 2.1301-2.089 2.45-3.4946h8.0431c-.432 3.3943-2.005 6.1279-4.675 8.1251-2.734 2.0454-6.3471 3.0822-10.7376 3.0822zm.3439-26.2175c-2.893 0-5.0676.9067-6.4634 2.695-.5572.7136-1.0085 1.5668-1.3415 2.5362l-.0825.2406h14.8501l-.0175-.1976c-.138-1.5699-.8611-2.8571-2.1494-3.8261-1.279-.9608-2.8926-1.4481-4.7958-1.4481z"/><path d="m108.804 55.4171v-6.54h6.6c1.171 0 2.232-.6825 2.703-1.7389l2.31-5.1399-12.046-28.2673h8.257l4.825 11.5153 3.062 8.4802 3.096-8.4881 4.907-11.5074h8.2l-15.988 37.3641c-1.123 2.6256-3.709 4.322-6.587 4.322z"/><path d="m179.485 45.3703c-3.335 0-6.241-.6573-8.639-1.9534-2.393-1.2931-4.253-3.167-5.528-5.5692-1.279-2.4072-1.928-5.3126-1.928-8.6354 0-3.3784.649-6.2978 1.927-8.6771 1.276-2.3737 3.136-4.2336 5.529-5.5279 2.398-1.2961 5.304-1.9535 8.639-1.9535 5.007 0 8.974 1.4441 11.792 4.2919 2.817 2.8496 4.246 6.8422 4.246 11.8666 0 3.3215-.644 6.2271-1.914 8.6357-1.266 2.4023-3.117 4.276-5.499 5.5692-2.389 1.296-5.291 1.9531-8.625 1.9531zm0-25.9633c-2.511 0-4.501.8819-5.916 2.6214-1.406 1.7278-2.119 4.1446-2.119 7.1839 0 3.0019.713 5.4091 2.118 7.1547 1.414 1.7586 3.405 2.6504 5.917 2.6504 2.473 0 4.45-.8916 5.874-2.6498 1.415-1.7466 2.132-4.154 2.132-7.1553 0-3.0385-.717-5.4558-2.133-7.1845-1.425-1.7391-3.401-2.6208-5.873-2.6208z"/><path d="m214.189 45.3703c-3.297 0-6.179-.6571-8.567-1.9533-2.383-1.2928-4.229-3.1663-5.485-5.5684-1.261-2.4069-1.9-5.3126-1.9-8.6363 0-3.3959.677-6.3382 2.012-8.7454 1.332-2.4027 3.221-4.2582 5.614-5.515 2.399-1.2595 5.268-1.8981 8.527-1.8981 2.806 0 5.331.4978 7.504 1.4796 2.167.9794 3.916 2.374 5.201 4.1457 1.247 1.7227 1.96 3.7906 2.117 6.1463h-8.078c-.327-1.7502-1.064-3.0901-2.189-3.982-1.155-.9159-2.688-1.3801-4.555-1.3801-1.575 0-2.991.3843-4.21 1.1424-1.219.7588-2.182 1.8718-2.862 3.3079-.677 1.4283-1.021 3.211-1.021 5.2985 0 3.0981.758 5.5404 2.252 7.2589 1.499 1.7271 3.397 2.6027 5.64 2.6027 1.225 0 2.335-.2241 3.301-.6658.967-.4424 1.794-1.0864 2.459-1.9143.634-.789 1.087-1.6966 1.347-2.6973l8.079.0001c-.268 2.2983-1.068 4.3221-2.377 6.0146-1.351 1.7462-3.14 3.1234-5.317 4.0935-2.185.9728-4.705 1.4658-7.492 1.4658z"/><path d="m240.68 4.49329h-8.003v40.19981h8.003z"/><path d="m258.081 44.7079c-1.138 0-2.217-.4288-3.039-1.2073l-11.859-11.513c-1.446-1.4033-1.475-3.7143-.065-5.1532l11.599-11.8373c.829-.8153 1.93-1.2648 3.099-1.2648l4.987.004v7.5478l-3.698.0009c-.286 0-.557.1086-.763.3055l-7.447 7.5081 7.835 7.7912c.206.1936.474.2996.756.2996l3.317-.0099v7.5235z"/></g></svg>