<svg fill="none" height="60" viewBox="0 0 301 60" width="301" xmlns="http://www.w3.org/2000/svg" xmlns:xlink="http://www.w3.org/1999/xlink"><clipPath id="a"><path d="m0 .011108h301v59.9779h-301z"/></clipPath><g clip-path="url(#a)"><g clip-rule="evenodd" fill-rule="evenodd"><path d="m.947876 29.9999c0 16.5614 13.444224 29.9818 29.981824 29.9818s29.9818-13.4204 29.9818-29.9818-13.4204-29.9818336-29.9818-29.9818336-29.981824 13.4204336-29.981824 29.9818336z" fill="#192e45"/><path d="m6.63501 23.0041-1.68945 3.4265 2.28432-3.1885c0 .0238-.14277 4.5924-.14277 4.5924l.64247-3.4502c1.71325 3.2599 5.49662 8.2807 10.80302 12.0165.4045.2855.928.7852 1.0945.9756 0 0 5.0684 2.5699 12.8732-3.3789.0714-.0476.1665-.0952.2379-.1428l.119.0714 1.7132 1.1422c-.5948-.1666-1.737-.4522-1.737-.4522-3.7596 4.3308-9.875 5.0446-13.1587 2.8555-.1428-.0952-.9518.2379-1.0946.7138-.0951.2618 0 .5473.119.7615.6663 1.2373 1.6657 1.1183 1.1898 2.5698-.3332.7853-.8091 1.5467-1.3326 2.2606-1.0945 1.4753-2.8078 2.784-2.6412 3.5692 7.7572 9.5656 25.2466 8.2331 31.9092-.3093-.0952-1.2374-2.0464-1.8322-3.4027-4.8542.3807.119.9518.2855.9518.2617s-1.618-2.6412-1.6894-2.903l1.0469.0714s-1.3801-1.7132-1.4277-1.8798l1.404-.1904s-1.7609-2.0225-1.7847-2.1891l1.7847.2855-1.9512-2.3557h.928l-1.0946-1.5942-8.8756-3.4979c-3.4027-2.1178-6.4247-4.7115-8.709-6.7102l-4.5924-2.2368c-4.4021-.3331-8.5187-.2141-11.04096.2856l1.61806-2.7603-2.3557 2.8079c-.14277-.0476-.30934-.0952-.30934-.0952l.16656-3.5693-.78523 3.3313z" fill="#d2943b"/><path d="m7.70574 19.2446c-1.16596-.5472-2.52228.238-2.76023 1.3088-.28554 1.0232.42831 2.2843 1.68945 2.4509 1.18975-.7377 2.21294-2.6413 1.07078-3.7597z" fill="#ffcd86"/><path d="m25.0284 16.6509c-.3569-.9756-.2617-2.2367.238-3.4265.7138-1.6418 2.0702-2.7364 3.3551-2.7364.2618 0 .4997.0476.7377.1428.7376-.66629 1.5942-1.21358 2.546-1.5943 5.2349-2.09397 12.9208 1.6419 14.8958 6.7816.9518 2.4985.6662 5.2111-.1428 7.7096-.6663 2.0464-3.0934 4.997-2.1892 7.2099-.3569-.0952-7.8048-2.6174-9.9463-3.7596-3.3551-2.094-6.3533-4.6638-8.6138-6.6388l-.0714-.0714-7.6144-3.6169c-.0952-.0476-.1904-.0952-.2618-.1427 1.047.0475 5.2111.5472 7.0671.1427z" fill="#ffd524"/></g><path d="m29.7894 15.1627c.7162-1.6375.5061-3.3107-.4691-3.7373-.9753-.4265-2.3465.5552-3.0626 2.1927-.7162 1.6375-.5062 3.3107.4691 3.7372.9753.4266 2.3465-.5551 3.0626-2.1926z" fill="#fff"/><g fill="#192e45"><path d="m29.5259 10.9879c-1.2611-.5473-2.9506.5235-3.7834 2.4033s-.4521 3.831.809 4.4021c1.2612.5473 2.9506-.5235 3.7834-2.4033.8329-1.8799.4521-3.8311-.809-4.4021zm.119 4.1165c-.6663 1.4991-1.9274 2.4033-2.8078 2.0226-.9042-.4045-1.0946-1.9274-.4283-3.4503.6662-1.4991 1.9274-2.4033 2.8316-2.0226.8804.4045 1.0707 1.9512.4045 3.4503z"/><path d="m71.6193 18.031c0-.2142.1427-.3569.3569-.3569h4.2355c.2856 0 .4759.0952.5711.3569l6.1391 13.8725h.1428l6.0202-13.8725c.0951-.238.2855-.3569.571-.3569h4.1642c.2141 0 .3569.1427.3569.3569v23.6047c0 .2142-.1428.357-.3569.357h-4.0452c-.2141 0-.3569-.1428-.3569-.357v-13.6821h-.1428l-4.4973 10.2556c-.1427.3332-.3569.4759-.6662.4759h-2.4509c-.3093 0-.5235-.1427-.6663-.4759l-4.4972-10.2556h-.1428v13.6821c0 .2142-.1428.357-.3569.357h-4.0214c-.2142 0-.3569-.1428-.3569-.357z"/><path d="m99.4833 33.0457v-15.0147c0-.2142.1427-.3569.3569-.3569h4.5208c.214 0 .357.1427.357.3569v15.1575c0 2.8792 1.618 4.521 4.069 4.521 2.427 0 4.022-1.6418 4.022-4.521v-15.1575c0-.2142.142-.3569.356-.3569h4.522c.214 0 .356.1427.356.3569v15.0147c0 6.0202-3.854 9.3277-9.28 9.3277-5.425 0-9.2797-3.2837-9.2797-9.3277z"/><path d="m123.326 18.031c0-.2142.143-.3569.357-.3569h4.521c.214 0 .357.1427.357.3569v19.0599c0 .1427.071.2141.214.2141h10.708c.214 0 .357.1428.357.3569v3.95c0 .2142-.143.357-.357.357h-15.8c-.214 0-.357-.1428-.357-.357z"/><path d="m143.695 18.031c0-.2142.142-.3569.357-.3569h4.521c.214 0 .357.1427.357.3569v19.0599c0 .1427.071.2141.214.2141h10.708c.214 0 .356.1428.356.3569v3.95c0 .2142-.142.357-.356.357h-15.8c-.215 0-.357-.1428-.357-.357z"/><path d="m167.728 41.9452c-.238 0-.381-.1428-.452-.3569l-7.71-23.5572c-.071-.2617.071-.3807.309-.3807h4.64c.238 0 .405.0952.476.3569l4.854 15.9427h.096l4.711-15.9427c.071-.2379.214-.3569.452-.3569h4.593c.214 0 .357.1428.285.3807l-7.709 23.5572c-.072.2141-.215.3569-.429.3569z"/><path d="m188.548 18.031c.072-.2142.214-.3569.476-.3569h4.497c.238 0 .381.1427.453.3569l8.209 23.6047c.071.2142 0 .357-.238.357h-4.64c-.238 0-.405-.119-.476-.357l-1.38-4.2355h-8.495l-1.356 4.2355c-.072.238-.214.357-.476.357h-4.664c-.238 0-.309-.1428-.238-.357zm5.473 14.8481-2.736-8.5424h-.095l-2.737 8.5186z"/><path d="m205.728 18.031c0-.2142.143-.3569.357-.3569h9.019c4.235 0 7.21 1.8084 8.376 5.4491.428 1.3563.642 2.7126.642 6.6864 0 3.9737-.214 5.3063-.642 6.6864-1.166 3.6406-4.141 5.4491-8.376 5.4491h-9.019c-.214 0-.357-.1428-.357-.357zm5.449 19.274h2.737c2.427 0 3.879-.7138 4.497-2.665.238-.7139.405-1.6419.405-4.7828 0-3.141-.143-4.069-.405-4.7829-.595-1.9512-2.07-2.665-4.497-2.665h-2.737c-.142 0-.214.0714-.214.2142v14.515c0 .0475.072.1665.214.1665z"/><path d="m243.301 41.9452c-.262 0-.405-.1428-.476-.3569l-7.71-23.5572c-.071-.2617.072-.3807.31-.3807h4.64c.238 0 .404.0952.476.3569l4.854 15.9427h.095l4.711-15.9427c.072-.2379.215-.3569.453-.3569h4.592c.214 0 .357.1428.286.3807l-7.71 23.5572c-.071.2141-.214.3569-.428.3569z"/><path d="m259.363 41.945c-.215 0-.357-.1427-.357-.3569v-23.6047c0-.2142.142-.3569.357-.3569h9.422c5.283 0 8.448 3.1647 8.448 7.8285 0 4.5687-3.213 7.8048-8.448 7.8048h-4.307c-.142 0-.214.0714-.214.2142v8.1141c0 .2142-.142.3569-.357.3569zm12.635-16.4424c0-1.9512-1.309-3.2837-3.522-3.2837h-3.998c-.142 0-.214.0714-.214.2142v6.0915c0 .1428.072.2142.214.2142h3.998c2.189.0238 3.522-1.2612 3.522-3.2362z"/><path d="m281.325 18.031c0-.2142.143-.3569.357-.3569h4.283c.238 0 .476.0952.595.3569l8.567 15.3002h.19v-15.3002c0-.2142.143-.3569.357-.3569h4.021c.214 0 .357.1427.357.3569v23.6047c0 .2142-.143.357-.357.357h-4.235c-.286 0-.476-.119-.595-.357l-8.59-15.2526h-.191v15.2526c0 .2142-.142.357-.356.357h-4.022c-.214 0-.357-.1428-.357-.357z"/></g></g></svg>