<svg fill="none" height="60" viewBox="0 0 302 60" width="302" xmlns="http://www.w3.org/2000/svg"><g fill="#231f20"><path d="m102.01 15.3218c-8.7378 0-14.5793 5.0742-14.5793 14.9505v7.0297c.8663-.4208 1.8069-.6436 2.8217-.6436 1.0149 0 1.9802.2475 2.8466.6683v-7.0544c0-6.3862 3.5148-9.6782 8.911-9.6782 5.396 0 8.911 3.292 8.911 9.6782v15.3713h5.668v-15.3713c0-9.9258-5.866-14.9505-14.579-14.9505z"/><path d="m119.683 30.8663c0-8.9604 6.584-15.5445 15.891-15.5445s15.792 6.5841 15.792 15.5445v2.104h-25.718c.842 5.2723 4.778 8.1931 9.926 8.1931 3.837 0 6.51-1.1882 8.243-3.7624h6.287c-2.277 5.495-7.649 9.0346-14.53 9.0346-9.331-.0247-15.891-6.5841-15.891-15.5693zm25.693-2.9703c-1.138-4.7277-5.025-7.3019-9.802-7.3019s-8.614 2.6237-9.752 7.3019z"/><path d="m154.411 30.8663c0-8.9604 6.584-15.5445 15.891-15.5445s15.891 6.5841 15.891 15.5445-6.584 15.5446-15.891 15.5446-15.891-6.5594-15.891-15.5446zm26.04 0c0-5.9901-4.06-10.2722-10.174-10.2722-6.113 0-10.173 4.3069-10.173 10.2722 0 5.9654 4.06 10.2723 10.173 10.2723 6.114 0 10.174-4.2822 10.174-10.2723z"/><path d="m218.668 51.5099h.669c3.638 0 5.025-1.6089 5.025-5.7921v-29.4059h5.668v29.0346c0 7.302-2.871 11.0644-10.173 11.0644h-1.189z"/><path d="m215.822 48.4901h-5.669v-7.0049h-14.405c-2.872 0-5.372-1.4109-6.51-3.6634-1.065-2.1287-.768-4.6287.767-6.7327l12.946-16.9802c1.856-2.5 5-3.5148 7.97-2.5247s4.901 3.6386 4.901 6.7574v18.094h4.257v5.0496h-4.257zm-21.04-14.3069c-.173.2227-.272.5198-.272.8416 0 .792.643 1.4356 1.436 1.4356h14.232v-18.2426c0-.9406-.693-1.2871-.99-1.3861-.124-.0248-.297-.0743-.52-.0743-.346 0-.767.1238-1.138.5941z"/></g><path d="m73.9904 31.1386c-.7426.3713-1.4356.9901-1.9307 1.8069-.495.8169-.693 1.6832-.6188 2.5495.0743 1.5595.9406 2.9951 2.3515 3.7872 1.3119.7426 2.797.5693 4.2079.2475 1.7327-.4455 3.2178-.6188 4.7772.3218h.0743c2.6733 1.5594 2.6733 5.4703 0 7.0297 0 0 0 0-.0743 0-1.5594.9406-3.0445.7426-4.7772.3218-1.3614-.3713-2.8465-.5693-4.2079.2475-1.4357.8168-2.2277 2.302-2.3515 3.7871-.0742.8664.1238 1.7327.6188 2.5495.4951.8169 1.1139 1.4357 1.9307 1.807 1.3614.693 3.0446.693 4.4555-.1238 1.3118-.7426 1.9307-2.1782 2.3019-3.5396.4951-1.7327 1.0644-3.1188 2.6733-3.9852 1.5594-.9405 3.0446-.7425 4.7772-.3217 1.3614.3712 2.8466.5693 4.208-.2476 1.4356-.8168 2.2277-2.3019 2.3514-3.7871 0-.1238 0-.198 0-.3218 0-.1237 0-.198 0-.3218-.0742-1.5594-.9406-2.995-2.3514-3.7871-1.3119-.7426-2.7971-.5693-4.208-.2475-1.7326.4455-3.2178.6188-4.7772-.3218s-2.1782-2.2525-2.6733-3.9851c-.3712-1.3614-.9901-2.7476-2.3019-3.5396-1.4357-.5941-3.0941-.5941-4.4555.0742z" fill="#014063"/><path d="m227.208 4.25745c-2.673 0-4.852 2.17821-4.852 4.85148s2.179 4.85147 4.852 4.85147 4.851-2.1782 4.851-4.85147-2.178-4.85148-4.851-4.85148z" fill="#014063"/></svg>