<svg fill="none" height="60" viewBox="0 0 301 60" width="301" xmlns="http://www.w3.org/2000/svg"><g fill="#d30000"><path d="m151.8 15.6673v-6.86725h-28.8v41.40005h28.8v-6.8673h-21.878v-10.3991h20.768v-6.8673h-20.768v-10.3991z"/><path d="m173.4 50.2001v-41.40005h6.963v34.53275h20.037v6.8673z"/><path d="m205.8 50.2001v-41.40005h6.914v34.53275h20.086v6.8673z"/><path d="m159 8.80005h7.2v41.40005h-7.2z"/><path d="m35.3114 18.7095c-2.7121 2.7913-4.3658 6.6037-4.3658 10.8245 0 4.2209 1.6537 8.0333 4.3658 10.8245 2.7121 2.7913 6.4164 4.4932 10.5176 4.4932s7.8055-1.7019 10.5176-4.4932c2.6459-2.8593 4.2996-6.6036 4.2996-10.8245 0-4.2208-1.6537-8.0332-4.3658-10.8245-2.7121-2.7912-6.4164-4.4932-10.5176-4.4932s-7.7393 1.702-10.4514 4.4932zm-11.3114 10.8245c0-12.3903 9.79-22.46592 21.829-22.46592s21.829 10.07562 21.829 22.46592c0 12.3904-9.79 22.466-21.829 22.466-12.1052-.0681-21.829-10.0756-21.829-22.466zm65.2223-3.8124v-10.8245h14.0897c2.91 0 5.226 2.3828 5.226 5.3782 0 2.9955-2.316 5.3783-5.226 5.3783h-14.0897zm17.5297 6.6717c5.027-1.5658 8.731-6.3313 8.731-12.0499 0-6.944-5.49-12.59453-12.237-12.59453h-21.0354v43.09383h7.0117v-17.9728h9.7238l10.5179 17.9728h8.136zm-29.5025-20.0832c0 2.9274-2.3152 5.3102-5.1596 5.3102s-5.1596-2.3828-5.1596-5.3102c0-2.92735 2.3152-5.3101 5.1596-5.3101 2.9105.06808 5.1596 2.38275 5.1596 5.3101z"/><path d="m265.2 8.80005h-8.724l-11.042 15.36965-11.11-15.36965h-8.724l16.222 22.49855v18.9015h7.156v-18.8361z"/><path d="m273.3 15.3077c-2.077 0-3.808-1.6731-3.808-3.8077 0-2.07692 1.673-3.80769 3.808-3.80769 2.077 0 3.807 1.67307 3.807 3.80769 0 2.0769-1.673 3.8077-3.807 3.8077zm0-8.3077c-2.481 0-4.5 2.01923-4.5 4.5 0 2.4808 2.019 4.5 4.5 4.5s4.5-2.0192 4.5-4.5c0-2.48077-2.019-4.5-4.5-4.5z"/><path d="m272.204 9.94226h1.788c.346 0 .577.23074.577.57694 0 .3461-.231.5769-.577.5769h-1.788zm3.115.57694c0-.75002-.577-1.32694-1.327-1.32694h-2.538v4.61534h.75v-1.9038h1.269l.923 1.9038h.865l-.923-1.9615c.577-.1731.981-.6923.981-1.3269z"/></g></svg>