<svg fill="none" height="60" viewBox="0 0 302 60" width="302" xmlns="http://www.w3.org/2000/svg"><g fill="#3373ba"><path d="m148.631 8.06035c.007 1.57337-.453 3.11345-1.322 4.42505-.869 1.3117-2.108 2.3359-3.559 2.9429-1.452.6069-3.051.7694-4.595.4668s-2.963-1.0567-4.078-2.1667c-1.115-1.1101-1.876-2.5261-2.185-4.06874-.31-1.54263-.155-3.14243.446-4.59672.6-1.4543 1.619-2.69763 2.927-3.5725 1.307-.874871 2.845-1.341897 4.419-1.341913 1.043-.010145 2.078.18731 3.045.580879.966.393574 1.845.975394 2.584 1.711634.74.73623 1.326 1.61218 1.724 2.57688.398.96471.6 1.9989.594 3.04243zm-14.01-.02547c0 3.56622 2.548 6.26632 6.078 6.26632 3.531 0 6.052-2.695 6.052-6.26632 0-3.57127-2.598-6.21534-6.052-6.21534s-6.068 2.66444-6.068 6.21534z"/><path d="m162.142 4.83551c0 2.59821-1.88 4.4781-4.896 4.4781h-3.566v6.39879h-1.809v-15.283674h5.38c3.011-.025473 4.891 1.828944 4.891 4.406784zm-8.467-2.8071v5.63966h3.525c2.038 0 3.057-1.18193 3.057-2.83256 0-1.65064-1.044-2.82748-3.057-2.82748z"/><path d="m174.97 2.02841h-7.999v4.68698h6.114v1.62007h-6.114v5.75684h8.284v1.6201h-10.097v-15.283674h9.812z"/><path d="m190.488.403249v15.563851h-.647l-9.746-11.75823v11.50343h-1.809v-15.563779h.652l9.741 11.783679v-11.528951z"/><path d="m142.981 24.5361-1.319 1.0189c-.378-.5875-.896-1.0714-1.508-1.4077-.613-.3363-1.299-.5144-1.997-.518-1.417 0-2.716.7183-2.716 2.2263 0 1.3959 1.07 1.9053 2.461 2.5778l1.691.8101c2.227 1.0698 3.566 2.2059 3.566 4.2692 0 2.5473-2.114 4.2692-4.941 4.2692-1.149.0035-2.277-.3003-3.269-.8799s-1.81-1.4138-2.371-2.4163l1.345-1.0189c.932 1.4163 2.298 2.6237 4.269 2.6237 1.809 0 3.088-1.0189 3.088-2.5472 0-1.4163-1.045-1.9716-2.548-2.69l-1.717-.8151c-1.788-.8559-3.454-1.9461-3.454-4.1011 0-2.4403 2.13-3.9941 4.616-3.9941.954-.0075 1.895.2263 2.735.6797.84.4533 1.552 1.1115 2.069 1.9134z"/><path d="m161.587 29.8497c.006 1.5727-.455 3.1119-1.324 4.4226-.869 1.3108-2.108 2.3342-3.559 2.9407s-3.049.7689-4.593.4665c-1.543-.3024-2.962-1.0559-4.077-2.1651s-1.876-2.5243-2.186-4.0661c-.31-1.5419-.156-3.1411.443-4.5952.599-1.4542 1.616-2.6979 2.922-3.5738s2.843-1.3445 4.416-1.3465c1.045-.0115 2.081.1851 3.049.5784.968.3932 1.848.9753 2.589 1.7122s1.327 1.614 1.726 2.5799c.398.966.6 2.0016.594 3.0464zm-14.01-.0255c0 3.5662 2.547 6.2663 6.077 6.2663 3.531 0 6.053-2.6899 6.053-6.2663 0-3.5763-2.599-6.2153-6.053-6.2153s-6.077 2.6695-6.077 6.2153z"/><path d="m176.758 31.429c0 4.0757-2.598 6.3325-6.057 6.3325-3.46 0-6.114-2.2518-6.114-6.3325v-9.2364h1.809v9.3485c0 3.0873 1.9 4.5494 4.289 4.5494 2.39 0 4.249-1.4621 4.249-4.5494v-9.3485h1.809z"/><path d="m190.631 37.5068-4.759-6.4038h-3.27v6.4038h-1.809v-15.3142h5.38c3.016 0 4.896 1.8595 4.896 4.4323.027.9668-.276 1.9141-.86 2.6856-.583.7714-1.412 1.321-2.35 1.5581l4.87 6.6229zm-8.029-8.0494h3.505c2.037 0 3.082-1.1615 3.082-2.8071 0-1.6455-1.065-2.8325-3.082-2.8325h-3.505z"/><path d="m208.186 25.2341-1.345 1.0647c-.537-.8323-1.276-1.5152-2.148-1.9855s-1.849-.7126-2.839-.7044c-.817-.0101-1.627.1454-2.381.4571-.755.3117-1.439.7731-2.01 1.3564s-1.019 1.2763-1.315 2.0373c-.296.7609-.435 1.5739-.408 2.39-.027.8161.112 1.6291.408 2.3901.296.7609.744 1.4539 1.315 2.0372s1.255 1.0447 2.01 1.3564c.754.3117 1.564.4672 2.381.4571.991.0091 1.968-.2327 2.84-.7031.872-.4703 1.611-1.1538 2.147-1.9868l1.345 1.0648c-.695 1.0407-1.641 1.8886-2.752 2.4649-1.111.5764-2.35.8623-3.601.8312-1.039 0-2.067-.2046-3.027-.6022s-1.832-.9804-2.567-1.7151-1.318-1.6069-1.715-2.5668c-.398-.9599-.602-1.9887-.602-3.0277s.204-2.0678.602-3.0277c.397-.9599.98-1.8321 1.715-2.5668s1.607-1.3175 2.567-1.7151 1.988-.6022 3.027-.6022c1.251-.0254 2.487.263 3.597.8388s2.057 1.4207 2.756 2.4574z"/><path d="m221.269 23.8178h-7.998v4.687h6.113v1.6251h-6.113v5.7517h8.278v1.6252h-10.092v-15.3142h9.812z"/><path d="m143.445 46.7942-2.665 2.0378c-.698-1.0189-1.37-1.6201-2.547-1.6201-.79 0-1.365.2751-1.365.9731 0 .5807.367.8559 1.319 1.2532l1.763.7438c2.547 1.0648 3.923 2.3639 3.923 4.6157 0 3.016-2.461 4.7787-5.604 4.7787-2.807 0-5.013-1.3705-6.114-3.4338l2.695-2.0378c.739 1.0189 1.692 1.9716 3.409 1.9716 1.064 0 1.574-.3719 1.574-1.1157s-.484-.9476-1.529-1.4112l-1.574-.6979c-2.435-1.0648-3.877-2.4607-3.877-4.6157 0-2.7358 2.252-4.5239 5.36-4.5239 2.659-.0051 4.35 1.3194 5.232 3.0822z"/><path d="m156.782 47.5838h-6.623v2.1092h4.733v3.342h-4.733v2.6644h6.914v3.5968h-10.903v-15.2837h10.612z"/><path d="m173.696 47.8131-3.056 2.0378c-.927-1.5742-2.181-2.5014-3.989-2.5014-2.436 0-4.178 1.7168-4.178 4.2896 0 2.5727 1.742 4.2437 4.178 4.2437 1.808 0 3.056-.9272 3.989-2.5065l3.056 2.0684c-.672 1.272-1.686 2.3307-2.929 3.0563-1.242.7256-2.663 1.0893-4.101 1.0499-4.616 0-8.258-3.4133-8.258-7.9373s3.642-7.9322 8.283-7.9322c1.437-.0334 2.855.3359 4.093 1.066 1.238.7302 2.247 1.7921 2.912 3.0657z"/><path d="m189.423 52.8006c0 4.1062-2.899 6.7758-6.776 6.7758s-6.77-2.6696-6.77-6.7758v-8.8135h3.989v9.1141c-.016.3756.044.7506.176 1.1024.133.3519.336.6732.596.9447.26.2714.572.4875.918.6351s.718.2236 1.094.2236.748-.076 1.094-.2236.658-.3637.918-.6351c.26-.2715.463-.5928.595-.9447.133-.3518.193-.7268.177-1.1024v-9.1141h3.989z"/><path d="m201.482 59.2962-3.434-4.7583h-1.645v4.7532h-4.01v-15.2837h6.007c3.362 0 5.915 2.0379 5.915 5.2627.02.8757-.193 1.741-.618 2.5073-.424.7662-1.044 1.406-1.797 1.8536l4.04 5.6855zm-5.095-8.2328h2.038c.477 0 .935-.1895 1.272-.5267.337-.3373.527-.7947.527-1.2717 0-.4769-.19-.9344-.527-1.2716-.337-.3373-.795-.5268-1.272-.5268h-2.038z"/><path d="m212.084 59.2962h-3.989v-15.2837h3.989z"/><path d="m227.597 47.5838h-4.585v11.7175h-3.989v-11.7175h-4.585v-3.5967h13.159z"/><path d="m238.295 53.4272v5.869h-3.994v-5.8231l-5.258-9.486h4.407l2.853 5.3339 2.853-5.3339h4.387z"/></g><path d="m98.9439 22.7887-9.3689-5.4104c-.3872-.2236-.8265-.3413-1.2736-.3413s-.8864.1177-1.2736.3413l-9.3689 5.4104c-.3865.2231-.7076.5439-.9311.9301-.2235.3863-.3416.8245-.3425 1.2707v10.8208c0 .4472.1177.8864.3412 1.2736.2236.3872.5452.7088.9324.9324l9.3689 5.4104c.3872.2235.8265.3412 1.2736.3412s.8864-.1177 1.2736-.3412l9.3689-5.4104c.3901-.2217.7147-.5424.941-.9297.2261-.3874.3461-.8276.3481-1.2763v-10.8208c-.003-.4477-.123-.887-.3494-1.2733-.2263-.3864-.5504-.7063-.9397-.9275z" fill="#f89624"/><path d="m115.593.1689h-54.5882c-.6756 0-1.3235.268372-1.8012.746078-.4777.477702-.7461 1.125612-.7461 1.801192v54.58803c0 .6756.2684 1.3235.7461 1.8012s1.1256.7461 1.8012.7461h22.9254v-7.5807c0-.4471-.1177-.8864-.3413-1.2736-.2235-.3872-.5451-.7088-.9323-.9323l-12.9452-7.4585c-.3873-.2235-.7088-.5451-.9324-.9323s-.3413-.8265-.3413-1.2736v-19.9961c0-.4471.1177-.8864.3413-1.2736s.5451-.7087.9324-.9323l17.3214-9.99551c.3872-.22357.8265-.34127 1.2736-.34127.4472 0 .8864.1177 1.2737.34127l17.3219 9.99551c.384.2255.702.5479.923.935.221.387.336.8253.335 1.2709v19.9961c0 .4471-.118.8864-.341 1.2736-.224.3872-.546.7088-.933.9323l-13.159 7.596c-.3872.2236-.7087.5451-.9323.9323-.2236.3873-.3413.8265-.3413 1.2736v7.4432h23.1396c.675 0 1.323-.2684 1.801-.7461s.746-1.1256.746-1.8012v-54.58803c0-.67558-.268-1.32349-.746-1.801192-.478-.477706-1.126-.746078-1.801-.746078z" fill="#f89624"/></svg>