<svg width="1084" height="330" viewBox="0 0 1084 330" fill="none" xmlns="http://www.w3.org/2000/svg">
<path d="M184.024 268.605H162.172L157.045 282.421H151.631L170.783 232.583H173.202C174.772 232.583 175.909 233.533 176.622 235.434L187.588 264.198H187.66V264.342L194.564 282.429H189.15L184.024 268.612V268.605ZM163.806 264.191H182.389L173.13 239.416H173.058L163.799 264.191H163.806Z" fill="black"/>
<path d="M219.131 280.959C216.805 279.606 214.998 277.683 213.716 275.192C212.435 272.701 211.794 269.842 211.794 266.61V232.575H217.064V266.754C217.064 270.217 217.993 273.01 219.844 275.12C221.694 277.23 224.142 278.288 227.18 278.288H234.87C237.908 278.288 240.349 277.23 242.207 275.12C244.057 273.01 244.986 270.217 244.986 266.754V232.575H250.256V266.61C250.256 269.835 249.616 272.701 248.334 275.192C247.052 277.683 245.245 279.606 242.92 280.959C240.594 282.313 237.908 282.99 234.877 282.99H227.188C224.149 282.99 221.464 282.313 219.145 280.959H219.131Z" fill="black"/>
<path d="M285.702 237.133H269.898V232.575H306.776V237.133H290.972V282.414H285.702V237.133Z" fill="black"/>
<path d="M330.983 280.78C328.463 279.311 326.505 277.223 325.108 274.516C323.704 271.809 323.005 268.677 323.005 265.12V249.885C323.005 246.328 323.704 243.189 325.108 240.489C326.505 237.781 328.463 235.693 330.983 234.225C333.496 232.756 336.419 232.021 339.738 232.021H347.284C350.603 232.021 353.526 232.756 356.039 234.225C358.552 235.693 360.51 237.781 361.914 240.489C363.311 243.196 364.017 246.328 364.017 249.885V265.12C364.017 268.677 363.318 271.801 361.914 274.48C360.517 277.165 358.545 279.253 356.003 280.744C353.461 282.241 350.56 282.983 347.284 282.983H339.666C336.39 282.983 333.496 282.249 330.983 280.773V280.78ZM347.147 278.289C350.61 278.289 353.411 277.079 355.549 274.66C357.688 272.241 358.753 269.058 358.753 265.12V249.885C358.753 245.946 357.688 242.764 355.549 240.345C353.411 237.925 350.61 236.716 347.147 236.716H339.882C336.419 236.716 333.618 237.925 331.48 240.345C329.341 242.764 328.276 245.946 328.276 249.885V265.12C328.276 269.058 329.334 272.241 331.444 274.66C333.553 277.079 336.347 278.289 339.81 278.289H347.147Z" fill="black"/>
<path d="M386.092 232.575H391.146L408.944 265.681L426.246 232.575H431.3V282.414H426.102V242.396L411.716 269.734C411.191 270.685 410.744 271.333 410.363 271.693C409.981 272.053 409.556 272.226 409.081 272.226H407.512L391.276 242.396V282.414H386.077V232.575H386.092Z" fill="black"/>
<path d="M461.353 280.78C458.833 279.311 456.874 277.223 455.477 274.516C454.073 271.809 453.375 268.677 453.375 265.12V249.885C453.375 246.328 454.073 243.189 455.477 240.489C456.874 237.781 458.833 235.693 461.353 234.225C463.865 232.756 466.789 232.021 470.108 232.021H477.653C480.973 232.021 483.896 232.756 486.409 234.225C488.921 235.693 490.88 237.781 492.284 240.489C493.681 243.196 494.386 246.328 494.386 249.885V265.12C494.386 268.677 493.688 271.801 492.284 274.48C490.887 277.165 488.914 279.253 486.373 280.744C483.831 282.241 480.929 282.983 477.653 282.983H470.036C466.76 282.983 463.865 282.249 461.353 280.773V280.78ZM477.517 278.289C480.98 278.289 483.781 277.079 485.919 274.66C488.057 272.241 489.123 269.058 489.123 265.12V249.885C489.123 245.946 488.057 242.764 485.919 240.345C483.781 237.925 480.98 236.716 477.517 236.716H470.252C466.789 236.716 463.988 237.925 461.849 240.345C459.711 242.764 458.645 245.946 458.645 249.885V265.12C458.645 269.058 459.704 272.241 461.813 274.66C463.923 277.079 466.717 278.289 470.18 278.289H477.517Z" fill="black"/>
<path d="M526.427 237.133H510.623V232.575H547.501V237.133H531.697V282.414H526.427V237.133Z" fill="black"/>
<path d="M568.15 232.575H573.421V282.414H568.15V232.575Z" fill="black"/>
<path d="M612.049 281.637C611.452 281.118 610.948 280.283 610.516 279.145L593.502 232.583H598.916L614.44 276.085H614.512L630.107 232.583H635.521L617.01 282.421H614.303C613.403 282.421 612.654 282.162 612.064 281.637H612.049Z" fill="black"/>
<path d="M656.085 281.168C655.278 280.34 654.875 279.188 654.875 277.712V232.568H688.341V237.126H660.145V254.644H686.202V259.201H660.145V277.856H688.341V282.414H659.505C658.036 282.414 656.891 281.996 656.085 281.168Z" fill="black"/>
<path d="M644.11 46.0674H688.455V66.033H669.634V179.267H688.455V199.233H644.11V46.0674Z" fill="black"/>
<path d="M695.411 123.468C695.411 96.9575 715.866 78.1367 743.852 78.1367C771.839 78.1367 792.128 96.9575 792.128 123.468C792.128 149.978 771.839 168.799 743.852 168.799C715.866 168.799 695.411 149.978 695.411 123.468ZM766.266 123.468C766.266 108.247 756.611 99.0887 743.845 99.0887C731.079 99.0887 721.266 108.254 721.266 123.468C721.266 138.682 731.087 147.847 743.845 147.847C756.603 147.847 766.266 138.682 766.266 123.468Z" fill="#5A81FA"/>
<path d="M800.625 159.309L809.135 140.985C816.99 146.061 828.935 149.496 839.735 149.496C851.514 149.496 855.935 146.385 855.935 141.475C855.935 127.075 802.749 141.799 802.749 106.62C802.749 89.93 817.804 78.1436 843.493 78.1436C855.604 78.1436 869.024 80.9228 877.369 85.8332L868.859 103.999C860.183 99.0884 851.514 97.454 843.493 97.454C832.038 97.454 827.128 101.054 827.128 105.633C827.128 120.688 880.314 106.123 880.314 140.812C880.314 157.178 865.093 168.792 838.749 168.792C823.859 168.792 808.804 164.702 800.625 159.302V159.309Z" fill="#5A81FA"/>
<path d="M887.269 199.233V179.267H905.924V66.033H887.269V46.0674H931.448V199.233H887.269Z" fill="black"/>
<path d="M217.396 84.127C179.135 84.127 151.631 108.326 151.631 142.656C151.631 176.985 179.135 201.393 217.396 201.393C255.656 201.393 283.16 176.993 283.16 142.656C283.16 108.319 255.865 84.127 217.396 84.127ZM217.396 167.165C203.917 167.165 192.988 156.235 192.988 142.757C192.988 129.278 203.917 118.349 217.396 118.349C230.874 118.349 241.804 129.278 241.804 142.757C241.804 156.235 230.874 167.165 217.396 167.165Z" fill="black"/>
<path d="M428.175 118.385V199.32H474.91V118.32L428.175 118.385Z" fill="black"/>
<path d="M474.91 103.783V86.1934H428.175V116.268L474.91 103.783Z" fill="black"/>
<path d="M571.023 46.0889L571.124 90.1745H571.095V130.682C573.14 134.274 574.321 138.429 574.321 142.864C574.321 156.465 563.291 167.495 549.69 167.495C536.089 167.495 525.059 156.465 525.059 142.864C525.059 129.263 536.089 118.233 549.69 118.233C555.968 118.233 561.692 120.58 566.041 124.446L555.644 85.4513C551.619 84.4361 547.177 83.6945 542.015 83.6945C512.171 83.6945 486.913 106.029 486.913 142.756C486.913 179.483 512.163 202.026 542.015 202.026C556.206 202.026 565.263 199.607 573.32 195.266V199.312H618.191V46.0889H571.023Z" fill="black"/>
<path d="M337.549 97.1374L329.168 86.1934H278.502L319.751 140.049L337.549 97.1374Z" fill="black"/>
<path d="M374.572 145.471L356.766 188.376L365.147 199.32H415.813L374.572 145.471Z" fill="black"/>
<path d="M415.813 86.1934H365.147L278.502 199.32H329.168L415.813 86.1934Z" fill="#5A81FA"/>
</svg>
