<svg fill="none" height="59" viewBox="0 0 301 59" width="301" xmlns="http://www.w3.org/2000/svg" xmlns:xlink="http://www.w3.org/1999/xlink"><clipPath id="a"><path d="m0 0h301v59h-301z"/></clipPath><g clip-path="url(#a)"><g fill="#000"><path d="m61.3411 55.6032h-5.4417l-1.2768 3.4406h-1.3482l4.7694-12.411h.6024c.3909 0 .6741.2366.8516.71l2.7309 7.163h.0179v.0358l1.7193 4.5042h-1.3483l-1.2765-3.4408zm-5.0348-1.0992h4.6277l-2.3058-6.1696h-.0179l-2.3057 6.1696z"/><path d="m70.0839 58.6798c-.5792-.337-1.0292-.8159-1.3484-1.4362-.319-.6203-.4787-1.3323-.4787-2.1371v-8.4756h1.3124v8.5114c0 .8624.2313 1.5579.6923 2.0834.4607.5254 1.0703.7889 1.8269.7889h1.915c.7565 0 1.3644-.2635 1.8271-.7889.4607-.5255.692-1.221.692-2.0834v-8.5114h1.3124v8.4756c0 .8031-.1594 1.5168-.4786 2.1371-.3193.6203-.7693 1.0992-1.3483 1.4362-.5792.3371-1.2481.5057-2.0029.5057h-1.9148c-.7567 0-1.4254-.1686-2.0029-.5057z"/><path d="m86.6617 47.7659h-3.9356v-1.135h9.1836v1.135h-3.9357v11.2762h-1.3123z"/><path d="m97.9379 58.6352c-.6275-.3658-1.1151-.8858-1.463-1.5599-.3497-.6741-.5237-1.4541-.5237-2.3399v-3.7939c0-.8858.174-1.6675.5237-2.3398.3479-.6744.8355-1.1944 1.463-1.5599.6258-.3658 1.3537-.5489 2.1801-.5489h1.879c.827 0 1.555.1831 2.181.5489.625.3655 1.113.8855 1.463 1.5599.347.6741.523 1.454.523 2.3398v3.7939c0 .8858-.174 1.6638-.523 2.3309-.348.6687-.839 1.1886-1.472 1.5599-.633.3728-1.356.5576-2.172.5576h-1.897c-.8156 0-1.5363-.1828-2.1621-.5503zm4.0251-.6203c.863 0 1.56-.3013 2.092-.9037.533-.6024.798-1.3951.798-2.3758v-3.7939c0-.9809-.265-1.7733-.798-2.3757-.532-.6026-1.229-.9037-2.092-.9037h-1.809c-.8624 0-1.5599.3011-2.0923.9037-.5327.6024-.7979 1.3948-.7979 2.3757v3.7939c0 .9807.2635 1.7734.7889 2.3758.5252.6024 1.221.9037 2.0833.9037z"/><path d="m111.661 46.6309h1.259l4.432 8.2442 4.309-8.2442h1.258v12.4112h-1.294v-9.9656l-3.582 6.8079c-.131.2369-.243.3982-.337.4879-.096.0896-.201.1327-.32.1327h-.39l-4.044-7.4285v9.9656h-1.294v-12.4112z"/><path d="m130.404 58.6352c-.628-.3658-1.116-.8858-1.464-1.5599-.349-.6741-.523-1.4541-.523-2.3399v-3.7939c0-.8858.174-1.6675.523-2.3398.348-.6744.836-1.1944 1.464-1.5599.625-.3658 1.353-.5489 2.18-.5489h1.879c.827 0 1.555.1831 2.18.5489.626.3655 1.114.8855 1.463 1.5599.348.6741.524 1.454.524 2.3398v3.7939c0 .8858-.174 1.6638-.524 2.3309-.348.6687-.839 1.1886-1.472 1.5599-.633.3728-1.355.5576-2.171.5576h-1.897c-.816 0-1.537-.1828-2.162-.5503zm4.025-.6203c.862 0 1.56-.3013 2.092-.9037.533-.6024.798-1.3951.798-2.3758v-3.7939c0-.9809-.265-1.7733-.798-2.3757-.532-.6026-1.23-.9037-2.092-.9037h-1.809c-.863 0-1.56.3011-2.093.9037-.532.6024-.798 1.3948-.798 2.3757v3.7939c0 .9807.264 1.7734.789 2.3758.526.6024 1.222.9037 2.084.9037z"/><path d="m146.609 47.7659h-3.936v-1.135h9.184v1.135h-3.936v11.2762h-1.312z"/><path d="m156.999 46.6309h1.313v12.4112h-1.313z"/><path d="m167.931 58.8486c-.149-.1293-.274-.3372-.382-.6206l-4.237-11.5952h1.348l3.866 10.8332h.018l3.884-10.8332h1.348l-4.61 12.411h-.674c-.224 0-.411-.0645-.558-.1952z"/><path d="m178.897 58.7318c-.201-.2062-.301-.493-.301-.8606v-11.242h8.334v1.135h-7.022v4.3625h6.489v1.1348h-6.489v4.6456h7.022v1.135h-7.181c-.366 0-.651-.1041-.852-.3103z"/><path d="m175.915.185547h11.043v4.971963h-4.687v28.19829h4.687v4.972h-11.043z"/></g><path d="m188.69 19.4603c0-6.6018 5.094-11.28867 12.064-11.28867 6.969 0 12.022 4.68687 12.022 11.28867 0 6.6017-5.053 11.2886-12.022 11.2886-6.97 0-12.064-4.6869-12.064-11.2886zm17.645 0c0-3.7904-2.404-6.0711-5.583-6.0711s-5.623 2.2824-5.623 6.0711 2.446 6.071 5.623 6.071 5.583-2.2823 5.583-6.071z" fill="#5a81fa"/><path d="m214.892 28.3857 2.119-4.5632c1.956 1.2641 4.931 2.1195 7.62 2.1195 2.933 0 4.034-.7747 4.034-1.9975 0-3.5859-13.244.0807-13.244-8.6798 0-4.1562 3.749-7.09136 10.146-7.09136 3.016 0 6.358.69209 8.436 1.91496l-2.119 4.5237c-2.161-1.2229-4.32-1.6299-6.317-1.6299-2.853 0-4.075.8965-4.075 2.0368 0 3.7491 13.244.122 13.244 8.7605 0 4.0756-3.79 6.9678-10.351 6.9678-3.708 0-7.457-1.0185-9.493-2.3633z" fill="#5a81fa"/><path d="m236.468 38.3278v-4.972h4.645v-28.19829h-4.645v-4.971963h11.002v38.142253z" fill="#000"/><path d="m69.6516 9.66333c-9.528 0-16.3772 6.02617-16.3772 14.57527 0 8.5488 6.8492 14.6271 16.3772 14.6271 9.5278 0 16.377-6.0763 16.377-14.6271s-6.7972-14.57527-16.377-14.57527zm0 20.67867c-3.3566 0-6.0782-2.7219-6.0782-6.0783 0-3.3566 2.7216-6.0782 6.0782-6.0782 3.3564 0 6.0783 2.7216 6.0783 6.0782 0 3.3564-2.7219 6.0783-6.0783 6.0783z" fill="#000"/><path d="m122.142 18.1944v20.155h11.638v-20.1712z" fill="#000"/><path d="m133.78 14.5583v-4.3803h-11.638v7.4893z" fill="#000"/><path d="m157.714.190674.025 10.978526h-.007v10.0874c.509.8945.803 1.9292.803 3.0336 0 3.387-2.746 6.1338-6.133 6.1338s-6.134-2.7468-6.134-6.1338 2.747-6.1337 6.134-6.1337c1.563 0 2.989.5844 4.072 1.5472l-2.59-9.71075c-1.002-.25281-2.108-.43749-3.394-.43749-7.432 0-13.721 5.56184-13.721 14.70784s6.287 14.7598 13.721 14.7598c3.534 0 5.79-.6024 7.796-1.6834v1.0076h11.174v-38.156626z" fill="#000"/><path d="m99.5729 12.9033-2.0871-2.7253h-12.6171l10.272 13.4114z" fill="#000"/><path d="m108.793 24.9395-4.435 10.6844 2.087 2.7254h12.618z" fill="#000"/><path d="m119.063 10.178h-12.617l-21.5773 28.1715h12.6171z" fill="#5a81fa"/></g></svg>