<svg fill="none" height="60" viewBox="0 0 302 60" width="302" xmlns="http://www.w3.org/2000/svg"><path d="m80.9935 29.3712v15.1441h-7.8341v-37.96509c3.1441-1.59825 6.6288-2.38428 10.1398-2.27947 9.3275 0 12.9432 5.47598 12.9694 12.65506 0 9.5633-6.4978 13.1266-15.2489 12.4454zm-.1048-19.3625c-.0524 0 0 13.7555 0 13.7555 6.5502.6812 7.5458-3.0655 7.5458-6.8908 0-3.8254-1.048-8.51533-7.5458-6.8647z" fill="#313458"/><path d="m130.985 32.2795c.472 4.5851 2.437 6.7074 6.105 6.7074 2.279.0786 4.533-.4716 6.524-1.5982l1.677 5.2401c-2.751 1.6769-5.948 2.4629-9.171 2.2795-8.174 0-12.576-6.0524-12.576-16.1921 0-10.1398 4.271-16.0612 11.633-16.0612 7.363 0 11.66 6.7075 11.083 17.6332l-15.249 1.9389zm4.114-14.0437c-2.725 0-4.586 3.7991-4.586 9.2751l8.411-1.048c0-5.2402-1.101-8.2271-3.825-8.2271z" fill="#313458"/><path d="m162.766 19.1004c-1.598-.8122-3.484-.8646-5.109-.1048v25.5721h-7.441v-29.3188c2.83-1.6769 6.891-2.5939 13.939-2.2795l-1.389 6.1572z" fill="#313458"/><g fill="#ef9158"><path d="m166.33 44.5415v-31.048h7.493v31.048z"/><path d="m189.282 44.9607c-7.625 0-11.476-6.8908-11.476-16.0611s3.746-16.0612 11.476-16.0612c7.729 0 11.318 6.8909 11.318 16.0612s-3.589 16.0611-11.318 16.0611zm0-26.6725c-3.302 0-3.878 4.7162-3.878 10.3756 0 5.6593.629 10.2445 3.878 10.2445s3.904-4.5852 3.904-10.1921c0-5.607-.577-10.428-3.904-10.428z"/><path d="m213.439 44.9345c-5.057 0-7.808-3.4585-7.808-8.9345v-16.9258h-2.777v-5.6069h2.777v-6.73367l7.441-2.35808v9.17035h4.114v5.5283h-4.114v16.0612c0 2.8821.996 3.8515 2.542 3.8515.524 0 1.048-.1048 1.545-.262v5.345c-1.152.6026-2.41.917-3.72.8908z"/><path d="m169.972 8.41049c-2.28 0-4.14-1.83407-4.166-4.08734 0-2.27948 1.834-4.139739 4.113-4.139739 2.28 0 4.14 1.834059 4.166 4.087339 0 2.27947-1.834 4.13974-4.113 4.13974z"/></g><g fill="#313458"><path d="m104.548 32.2795c.472 4.5851 2.437 6.7074 6.105 6.7074 2.279.0786 4.533-.4716 6.524-1.5982l1.677 5.2401c-2.751 1.6769-5.948 2.4629-9.171 2.2795-8.174 0-12.5759-6.0524-12.5759-16.1921 0-10.1398 4.2709-16.0612 11.6329-16.0612 7.363 0 11.66 6.7075 11.083 17.6332l-15.249 1.9389zm4.114-14.0437c-2.725 0-4.586 3.7991-4.586 9.2751l8.411-1.048c0-5.2402-1.101-8.2271-3.825-8.2271z"/><path d="m225.753 44.9607c-2.279 0-4.139-1.8341-4.166-4.0873 0-2.2795 1.834-4.1398 4.114-4.1398 2.279 0 4.14 1.8341 4.166 4.0874 0 2.2794-1.834 4.1397-4.114 4.1397z"/><path d="m114.242 51.1965c.707 0 1.284.262 1.729.7598.42.4978.655 1.2577.655 2.2795s-.104 1.2314-.288 1.7031c-.21.4454-.472.8122-.838 1.048-.367.2358-.786.3406-1.258.3406s-.576-.0524-.812-.131-.419-.1834-.577-.3144c-.157-.131-.288-.2882-.419-.4192h-.078c0 .131.026.2882.052.4978v.4978 2.4105h-1.074v-8.5415h.891l.157.8384h.052c.105-.1834.236-.3406.419-.4716.158-.1572.367-.262.603-.3406s.498-.131.812-.131zm-.236.8908c-.367 0-.681.0786-.917.2096-.236.1572-.393.3669-.498.6551-.104.2882-.157.655-.157 1.1004v.1834c0 .4716.053.8646.157 1.2052.105.3145.262.5765.498.7337s.55.262.943.262.629-.0786.839-.262c.236-.1834.393-.4454.498-.7599.104-.3406.157-.7074.157-1.1528 0-.6812-.131-1.2052-.367-1.572-.236-.3931-.629-.5765-1.153-.5765z"/><path d="m120.426 51.1965c.524 0 .969.1048 1.336.3406.367.2096.655.524.838.9432.21.3931.289.8647.289 1.4149v.6026h-4.009c0 .6288.183 1.1267.498 1.4673.314.3406.76.4978 1.336.4978s.707-.0262.996-.1048c.288-.0786.602-.1834.917-.3144v.917c-.289.131-.603.2358-.891.2882s-.655.1048-1.074.1048c-.42 0-1.075-.1048-1.494-.3406s-.76-.5764-.996-1.0218c-.235-.4454-.366-.9957-.366-1.6507s.104-1.2052.314-1.6768c.21-.4717.524-.8123.917-1.0743s.865-.3668 1.389-.3668zm0 .8384c-.446 0-.786.131-1.048.4192-.262.2883-.419.6813-.472 1.2315h2.908c0-.3144-.052-.6026-.157-.8646-.105-.2358-.262-.4455-.445-.5765-.21-.131-.472-.2096-.786-.2096z"/><path d="m126.688 51.1965c.524 0 .97.1048 1.336.3406.367.2096.655.524.839.9432.209.3931.288.8647.288 1.4149v.6026h-4.009c0 .6288.184 1.1267.498 1.4673s.76.4978 1.336.4978c.577 0 .708-.0262.996-.1048s.603-.1834.917-.3144v.917c-.288.131-.603.2358-.891.2882s-.655.1048-1.074.1048-1.074-.1048-1.494-.3406c-.419-.2358-.759-.5764-.995-1.0218s-.367-.9957-.367-1.6507.105-1.2052.314-1.6768c.21-.4717.524-.8123.917-1.0743s.865-.3668 1.389-.3668zm0 .8384c-.445 0-.786.131-1.048.4192-.262.2883-.419.6813-.472 1.2315h2.909c0-.3144-.053-.6026-.157-.8646-.105-.2358-.262-.4455-.446-.5765-.21-.131-.472-.2096-.786-.2096z"/><path d="m133.474 51.1965h.34c.131 0 .236.0262.315.0524l-.105.9956c-.079 0-.183-.0262-.288-.0524-.105 0-.21 0-.315 0-.235 0-.445.0524-.655.131-.209.0786-.393.2097-.55.3669s-.288.3668-.367.6026c-.078.2358-.131.4978-.131.8122v3.1179h-1.074v-5.9214h.865l.131 1.0742h.052c.131-.2096.262-.4192.446-.6026.183-.1834.366-.3144.602-.4192s.472-.1572.76-.1572z"/><path d="m134.731 54.7336v-.9432h2.725v.9432z"/><path d="m140.836 56.4629c.157 0 .314 0 .472-.0524.157-.0262.288-.0524.419-.1048v.8384c-.131.0524-.288.1048-.498.131s-.419.0524-.629.0524c-.314 0-.602-.0524-.864-.1572s-.472-.2882-.629-.5764-.236-.6288-.236-1.1266v-3.3276h-.812v-.4978l.864-.393.393-1.2838h.655v1.3362h1.703v.8384h-1.703v3.3276c0 .3406.079.5764.236.7336s.367.2358.629.2358z"/><path d="m148.068 54.262c0 .4978-.053.917-.184 1.3101-.131.393-.314.7074-.55.9694s-.524.4716-.865.6026c-.34.131-.733.2096-1.152.2096-.42 0-.76-.0786-1.101-.2096-.34-.131-.629-.3406-.865-.6026-.235-.262-.419-.5764-.55-.9694-.131-.3931-.209-.8123-.209-1.3101s.104-1.2052.34-1.6507c.21-.4454.551-.8122.944-1.048.419-.2358.917-.3668 1.467-.3668s1.022.131 1.441.3668.733.5764.969 1.048c.236.4455.341.9957.341 1.6507zm-4.402 0c0 .4454.052.8384.183 1.179.105.3145.289.5765.524.7599.236.1834.551.262.944.262s.681-.0786.917-.262c.235-.1834.419-.4192.524-.7599.104-.3144.183-.7074.183-1.179s-.052-.8384-.183-1.1528c-.105-.3144-.289-.5765-.524-.7337-.236-.1572-.551-.262-.944-.262-.576 0-.969.1834-1.231.5765-.262.3668-.393.917-.393 1.5982z"/><path d="m149.037 54.7336v-.9432h2.725v.9432z"/><path d="m156.007 51.1965c.707 0 1.283.262 1.729.7598.419.4978.655 1.2577.655 2.2795s-.105 1.2314-.288 1.7031c-.21.4454-.472.8122-.839 1.048s-.786.3406-1.257.3406c-.472 0-.577-.0524-.813-.131-.235-.0786-.419-.1834-.576-.3144s-.288-.2882-.419-.4192h-.079c0 .131.026.2882.053.4978v.4978 2.4105h-1.075v-8.5415h.891l.157.8384h.053c.105-.1834.236-.3406.419-.4716.157-.1572.367-.262.603-.3406.235-.0786.497-.131.812-.131zm-.262.8908c-.367 0-.682.0786-.917.2096-.236.1572-.393.3669-.498.6551s-.157.655-.157 1.1004v.1834c0 .4716.052.8646.157 1.2052.105.3145.262.5765.498.7337.235.1572.55.262.943.262s.602-.0786.838-.262.393-.4454.498-.7599c.105-.3144.157-.7074.157-1.1528 0-.6812-.131-1.2052-.367-1.572-.235-.3931-.628-.5765-1.152-.5765z"/><path d="m162.19 51.1965c.524 0 .97.1048 1.337.3406.366.2096.655.524.838.9432.183.3931.288.8647.288 1.4149v.6026h-4.009c0 .6288.184 1.1267.498 1.4673.315.3406.76.4978 1.336.4978.577 0 .708-.0262.996-.1048s.603-.1834.917-.3144v.917c-.288.131-.602.2358-.891.2882-.288.0524-.655.1048-1.074.1048s-1.074-.1048-1.493-.3406c-.42-.2358-.76-.5764-.996-1.0218s-.367-.9957-.367-1.6507.105-1.2052.315-1.6768c.209-.4717.524-.8123.917-1.0743s.864-.3668 1.388-.3668zm0 .8384c-.445 0-.786.131-1.048.4192-.262.2883-.419.6813-.471 1.2315h2.908c0-.3144-.052-.6026-.157-.8646-.105-.2358-.262-.4455-.446-.5765-.209-.131-.471-.2096-.786-.2096z"/><path d="m168.426 51.1965c.524 0 .969.1048 1.336.3406.367.2096.655.524.838.9432.184.3931.289.8647.289 1.4149v.6026h-4.009c0 .6288.183 1.1267.498 1.4673.314.3406.76.4978 1.336.4978s.707-.0262.996-.1048c.288-.0786.602-.1834.917-.3144v.917c-.289.131-.603.2358-.891.2882s-.655.1048-1.074.1048c-.42 0-1.075-.1048-1.494-.3406s-.76-.5764-.996-1.0218c-.235-.4454-.366-.9957-.366-1.6507s.104-1.2052.314-1.6768c.21-.4717.524-.8123.917-1.0743s.865-.3668 1.389-.3668zm0 .8384c-.446 0-.786.131-1.048.4192-.262.2883-.42.6813-.472 1.2315h2.908c0-.3144-.052-.6026-.157-.8646-.105-.2358-.262-.4455-.445-.5765-.21-.131-.472-.2096-.786-.2096z"/><path d="m175.212 51.1965h.34c.131 0 .236.0262.315.0524l-.105.9956c-.079 0-.184-.0262-.288-.0524-.105 0-.21 0-.315 0-.236 0-.445.0524-.655.131-.209.0786-.393.2097-.55.3669s-.288.3668-.367.6026-.131.4978-.131.8122v3.1179h-1.074v-5.9214h.864l.131 1.0742h.053c.131-.2096.262-.4192.445-.6026.184-.1834.367-.3144.603-.4192s.472-.1572.76-.1572z"/><path d="m186.373 51.1965c.655 0 1.153.1834 1.494.524.34.3406.498.8909.498 1.6507v3.8777h-1.075v-3.7205c0-.4716-.104-.8122-.288-1.0481-.183-.2358-.471-.3406-.864-.3406-.524 0-.917.1572-1.153.4979-.236.3144-.367.786-.367 1.4148v3.2227h-1.074v-3.7205c0-.3144-.053-.5764-.131-.786-.079-.2097-.21-.3669-.393-.4717-.158-.1048-.393-.1572-.629-.1572-.367 0-.655.0786-.891.2358-.21.1572-.367.3931-.472.7075-.104.3144-.157.6812-.157 1.1528v3.0393h-1.074v-5.9214h.865l.157.8122h.052c.131-.2096.262-.3668.446-.4978.183-.131.393-.2358.602-.3144.21-.0786.446-.1048.708-.1048.445 0 .812.0786 1.126.2358.315.1572.524.393.682.7336h.078c.184-.3406.446-.5764.786-.7336.341-.1572.708-.2358 1.074-.2358z"/><path d="m192.478 51.1965c.524 0 .97.1048 1.336.3406.367.2096.655.524.839.9432.183.3931.288.8647.288 1.4149v.6026h-4.009c0 .6288.184 1.1267.498 1.4673s.76.4978 1.336.4978c.577 0 .708-.0262.996-.1048s.603-.1834.917-.3144v.917c-.288.131-.603.2358-.891.2882s-.655.1048-1.074.1048-1.074-.1048-1.494-.3406c-.419-.2358-.759-.5764-.995-1.0218s-.367-.9957-.367-1.6507.105-1.2052.314-1.6768c.21-.4717.524-.8123.917-1.0743s.865-.3668 1.389-.3668zm0 .8384c-.445 0-.786.131-1.048.4192-.262.2883-.419.6813-.472 1.2315h2.909c0-.3144-.053-.6026-.157-.8646-.105-.2358-.262-.4455-.446-.5765-.209-.131-.471-.2096-.786-.2096z"/><path d="m198.714 51.1965c.524 0 .969.1048 1.336.3406.367.2096.655.524.838.9432.184.3931.289.8647.289 1.4149v.6026h-4.009c0 .6288.183 1.1267.498 1.4673.314.3406.76.4978 1.336.4978s.707-.0262.996-.1048c.288-.0786.602-.1834.917-.3144v.917c-.289.131-.603.2358-.891.2882s-.655.1048-1.074.1048c-.42 0-1.075-.1048-1.494-.3406s-.76-.5764-.996-1.0218c-.235-.4454-.366-.9957-.366-1.6507s.104-1.2052.314-1.6768c.21-.4717.524-.8123.917-1.0743s.865-.3668 1.389-.3668zm0 .8384c-.446 0-.786.131-1.048.4192-.262.2883-.42.6813-.472 1.2315h2.908c0-.3144-.052-.6026-.157-.8646-.105-.2358-.262-.4455-.445-.5765-.21-.131-.472-.2096-.786-.2096z"/><path d="m204.714 56.4629c.157 0 .314 0 .472-.0524.157-.0262.288-.0524.419-.1048v.8384c-.131.0524-.288.1048-.498.131s-.419.0524-.629.0524c-.314 0-.602-.0524-.865-.1572-.262-.1048-.471-.2882-.628-.5764-.158-.262-.236-.6288-.236-1.1266v-3.3276h-.812v-.4978l.864-.393.393-1.2838h.655v1.3362h1.703v.8384h-1.703v3.3276c0 .3406.079.5764.236.7336s.367.2358.629.2358z"/><path d="m210.688 55.5721c0 .393-.105.7074-.288.9694-.184.262-.472.4716-.813.6026-.367.131-.786.2096-1.284.2096-.497 0-.759-.0262-1.074-.1048-.288-.0524-.576-.1572-.812-.262v-.9432c.262.131.55.2358.917.3406s.681.1572.996.1572c.314 0 .786-.0786.995-.2096.21-.1572.315-.3406.315-.6026s-.053-.2882-.131-.3931c-.079-.1048-.236-.2358-.42-.3406-.209-.1048-.497-.2358-.89-.393-.367-.1572-.708-.2882-.97-.4454s-.471-.3144-.602-.524-.21-.4716-.21-.8122c0-.5241.21-.8909.603-1.1791.419-.262.943-.393 1.624-.393s.707.0262 1.022.1048c.314.0786.629.1834.917.2882l-.341.8384c-.262-.1048-.524-.2096-.786-.2882s-.55-.1048-.838-.1048-.655.0524-.839.1834c-.183.131-.288.2882-.288.4979 0 .2096.053.2882.131.393.079.1048.236.2096.446.3144.209.1048.497.2096.864.3668.367.131.681.2882.944.4192.262.1572.471.3144.602.524s.21.4716.21.8123z"/><path d="m215.063 57.2227v-7.8341h1.101v7.8341z"/><path d="m223.316 54.262c0 .4978-.052.917-.183 1.3101-.131.393-.314.7074-.55.9694s-.524.4716-.865.6026-.734.2096-1.153.2096-.76-.0786-1.1-.2096c-.341-.131-.629-.3406-.865-.6026s-.419-.5764-.55-.9694c-.131-.3931-.21-.8123-.21-1.3101s.105-1.2052.341-1.6507c.21-.4454.55-.8122.943-1.048.419-.2358.917-.3668 1.467-.3668.551 0 1.022.131 1.441.3668.42.2358.734.5764.97 1.048.236.4455.341.9957.341 1.6507zm-4.401 0c0 .4454.052.8384.183 1.179.105.3145.288.5765.524.7599s.55.262.943.262.681-.0786.917-.262.419-.4192.524-.7599c.105-.3144.184-.7074.184-1.179s-.053-.8384-.184-1.1528c-.105-.3144-.288-.5765-.524-.7337-.236-.1834-.55-.262-.943-.262-.576 0-.969.1834-1.231.5765-.262.3668-.393.917-.393 1.5982z"/><path d="m227.509 57.2227h-1.1v-6.8908h-2.385v-.9433h5.869v.9433h-2.384z"/></g></svg>