<svg width="302" height="60" viewBox="0 0 302 60" fill="none" xmlns="http://www.w3.org/2000/svg">
<path d="M80.9935 29.3712V44.5153H73.1594V6.55021C76.3035 4.95196 79.7882 4.16593 83.2992 4.27074C92.6267 4.27074 96.2424 9.74672 96.2686 16.9258C96.2686 26.4891 89.7708 30.0524 81.0197 29.3712H80.9935ZM80.8887 10.0087C80.8363 10.0087 80.8887 23.7642 80.8887 23.7642C87.4389 24.4454 88.4345 20.6987 88.4345 16.8734C88.4345 13.048 87.3865 8.35807 80.8887 10.0087Z" fill="#313458"/>
<path d="M130.985 32.2795C131.457 36.8646 133.422 38.9869 137.09 38.9869C139.369 39.0655 141.623 38.5153 143.614 37.3887L145.291 42.6288C142.54 44.3057 139.343 45.0917 136.12 44.9083C127.946 44.9083 123.544 38.8559 123.544 28.7162C123.544 18.5764 127.815 12.655 135.177 12.655C142.54 12.655 146.837 19.3625 146.26 30.2882L131.011 32.2271L130.985 32.2795ZM135.099 18.2358C132.374 18.2358 130.513 22.0349 130.513 27.5109L138.924 26.4629C138.924 21.2227 137.823 18.2358 135.099 18.2358Z" fill="#313458"/>
<path d="M162.766 19.1004C161.168 18.2882 159.282 18.2358 157.657 18.9956V44.5677H150.216V15.2489C153.046 13.572 157.107 12.655 164.155 12.9694L162.766 19.1266V19.1004Z" fill="#313458"/>
<path d="M166.33 44.5415V13.4935H173.823V44.5415H166.33Z" fill="#EF9158"/>
<path d="M189.282 44.9607C181.657 44.9607 177.806 38.0699 177.806 28.8996C177.806 19.7293 181.552 12.8384 189.282 12.8384C197.011 12.8384 200.6 19.7293 200.6 28.8996C200.6 38.0699 197.011 44.9607 189.282 44.9607ZM189.282 18.2882C185.98 18.2882 185.404 23.0044 185.404 28.6638C185.404 34.3231 186.033 38.9083 189.282 38.9083C192.531 38.9083 193.186 34.3231 193.186 28.7162C193.186 23.1092 192.609 18.2882 189.282 18.2882Z" fill="#EF9158"/>
<path d="M213.439 44.9345C208.382 44.9345 205.631 41.476 205.631 36V19.0742H202.854V13.4673H205.631V6.73363L213.072 4.37555V13.5459H217.186V19.0742H213.072V35.1354C213.072 38.0175 214.068 38.9869 215.614 38.9869C216.138 38.9869 216.662 38.8821 217.159 38.7249V44.0699C216.007 44.6725 214.749 44.9869 213.439 44.9607V44.9345Z" fill="#EF9158"/>
<path d="M169.972 8.41049C167.692 8.41049 165.832 6.57642 165.806 4.32315C165.806 2.04367 167.64 0.183411 169.919 0.183411C172.199 0.183411 174.059 2.01747 174.085 4.27075C174.085 6.55022 172.251 8.41049 169.972 8.41049Z" fill="#EF9158"/>
<path d="M104.548 32.2795C105.02 36.8646 106.985 38.9869 110.653 38.9869C112.932 39.0655 115.186 38.5153 117.177 37.3887L118.854 42.6288C116.103 44.3057 112.906 45.0917 109.683 44.9083C101.509 44.9083 97.1071 38.8559 97.1071 28.7162C97.1071 18.5764 101.378 12.655 108.74 12.655C116.103 12.655 120.4 19.3625 119.823 30.2882L104.574 32.2271L104.548 32.2795ZM108.662 18.2358C105.937 18.2358 104.076 22.0349 104.076 27.5109L112.487 26.4629C112.487 21.2227 111.386 18.2358 108.662 18.2358Z" fill="#313458"/>
<path d="M225.753 44.9607C223.474 44.9607 221.614 43.1266 221.587 40.8734C221.587 38.5939 223.421 36.7336 225.701 36.7336C227.98 36.7336 229.841 38.5677 229.867 40.821C229.867 43.1004 228.033 44.9607 225.753 44.9607Z" fill="#313458"/>
<path d="M114.242 51.1965C114.949 51.1965 115.526 51.4585 115.971 51.9563C116.391 52.4541 116.626 53.214 116.626 54.2358C116.626 55.2576 116.522 55.4672 116.338 55.9389C116.128 56.3843 115.866 56.7511 115.5 56.9869C115.133 57.2227 114.714 57.3275 114.242 57.3275C113.77 57.3275 113.666 57.2751 113.43 57.1965C113.194 57.1179 113.011 57.0131 112.853 56.8821C112.696 56.7511 112.565 56.5939 112.434 56.4629H112.356C112.356 56.5939 112.382 56.7511 112.408 56.9607C112.408 57.1441 112.408 57.3013 112.408 57.4585V59.869H111.334V51.3275H112.225L112.382 52.1659H112.434C112.539 51.9825 112.67 51.8253 112.853 51.6943C113.011 51.5371 113.22 51.4323 113.456 51.3537C113.692 51.2751 113.954 51.2227 114.268 51.2227L114.242 51.1965ZM114.006 52.0873C113.639 52.0873 113.325 52.1659 113.089 52.2969C112.853 52.4541 112.696 52.6638 112.591 52.952C112.487 53.2402 112.434 53.607 112.434 54.0524V54.2358C112.434 54.7074 112.487 55.1004 112.591 55.441C112.696 55.7555 112.853 56.0175 113.089 56.1747C113.325 56.3319 113.639 56.4367 114.032 56.4367C114.425 56.4367 114.661 56.3581 114.871 56.1747C115.107 55.9913 115.264 55.7293 115.369 55.4148C115.473 55.0742 115.526 54.7074 115.526 54.262C115.526 53.5808 115.395 53.0568 115.159 52.69C114.923 52.2969 114.53 52.1135 114.006 52.1135V52.0873Z" fill="#313458"/>
<path d="M120.426 51.1965C120.95 51.1965 121.395 51.3013 121.762 51.5371C122.129 51.7467 122.417 52.0611 122.6 52.4803C122.81 52.8734 122.889 53.345 122.889 53.8952V54.4978H118.88C118.88 55.1266 119.063 55.6245 119.378 55.9651C119.692 56.3057 120.138 56.4629 120.714 56.4629C121.29 56.4629 121.421 56.4367 121.71 56.3581C121.998 56.2795 122.312 56.1747 122.627 56.0437V56.9607C122.338 57.0917 122.024 57.1965 121.736 57.2489C121.448 57.3013 121.081 57.3537 120.662 57.3537C120.242 57.3537 119.587 57.2489 119.168 57.0131C118.749 56.7773 118.408 56.4367 118.172 55.9913C117.937 55.5459 117.806 54.9956 117.806 54.3406C117.806 53.6856 117.91 53.1354 118.12 52.6638C118.33 52.1921 118.644 51.8515 119.037 51.5895C119.43 51.3275 119.902 51.2227 120.426 51.2227V51.1965ZM120.426 52.0349C119.98 52.0349 119.64 52.1659 119.378 52.4541C119.116 52.7424 118.959 53.1354 118.906 53.6856H121.814C121.814 53.3712 121.762 53.083 121.657 52.821C121.552 52.5852 121.395 52.3755 121.212 52.2445C121.002 52.1135 120.74 52.0349 120.426 52.0349Z" fill="#313458"/>
<path d="M126.688 51.1965C127.212 51.1965 127.658 51.3013 128.024 51.5371C128.391 51.7467 128.679 52.0611 128.863 52.4803C129.072 52.8734 129.151 53.345 129.151 53.8952V54.4978H125.142C125.142 55.1266 125.326 55.6245 125.64 55.9651C125.954 56.3057 126.4 56.4629 126.976 56.4629C127.553 56.4629 127.684 56.4367 127.972 56.3581C128.26 56.2795 128.575 56.1747 128.889 56.0437V56.9607C128.601 57.0917 128.286 57.1965 127.998 57.2489C127.71 57.3013 127.343 57.3537 126.924 57.3537C126.505 57.3537 125.85 57.2489 125.43 57.0131C125.011 56.7773 124.671 56.4367 124.435 55.9913C124.199 55.5459 124.068 54.9956 124.068 54.3406C124.068 53.6856 124.173 53.1354 124.382 52.6638C124.592 52.1921 124.906 51.8515 125.299 51.5895C125.692 51.3275 126.164 51.2227 126.688 51.2227V51.1965ZM126.688 52.0349C126.243 52.0349 125.902 52.1659 125.64 52.4541C125.378 52.7424 125.221 53.1354 125.168 53.6856H128.077C128.077 53.3712 128.024 53.083 127.92 52.821C127.815 52.5852 127.658 52.3755 127.474 52.2445C127.264 52.1135 127.002 52.0349 126.688 52.0349Z" fill="#313458"/>
<path d="M133.474 51.1965C133.579 51.1965 133.71 51.1965 133.814 51.1965C133.945 51.1965 134.05 51.2227 134.129 51.2489L134.024 52.2445C133.945 52.2445 133.841 52.2183 133.736 52.1921C133.631 52.1921 133.526 52.1921 133.421 52.1921C133.186 52.1921 132.976 52.2445 132.766 52.3231C132.557 52.4017 132.373 52.5328 132.216 52.69C132.059 52.8472 131.928 53.0568 131.849 53.2926C131.771 53.5284 131.718 53.7904 131.718 54.1048V57.2227H130.644V51.3013H131.509L131.64 52.3755H131.692C131.823 52.1659 131.954 51.9563 132.138 51.7729C132.321 51.5895 132.504 51.4585 132.74 51.3537C132.976 51.2489 133.212 51.1965 133.5 51.1965H133.474Z" fill="#313458"/>
<path d="M134.731 54.7336V53.7904H137.456V54.7336H134.731Z" fill="#313458"/>
<path d="M140.836 56.4629C140.993 56.4629 141.15 56.4629 141.308 56.4105C141.465 56.3843 141.596 56.3581 141.727 56.3057V57.1441C141.596 57.1965 141.439 57.2489 141.229 57.2751C141.019 57.3013 140.81 57.3275 140.6 57.3275C140.286 57.3275 139.998 57.2751 139.736 57.1703C139.474 57.0655 139.264 56.8821 139.107 56.5939C138.95 56.3057 138.871 55.9651 138.871 55.4673V52.1397H138.059V51.6419L138.923 51.2489L139.316 49.9651H139.971V51.3013H141.674V52.1397H139.971V55.4673C139.971 55.8079 140.05 56.0437 140.207 56.2009C140.364 56.3581 140.574 56.4367 140.836 56.4367V56.4629Z" fill="#313458"/>
<path d="M148.068 54.262C148.068 54.7598 148.015 55.179 147.884 55.5721C147.753 55.9651 147.57 56.2795 147.334 56.5415C147.098 56.8035 146.81 57.0131 146.469 57.1441C146.129 57.2751 145.736 57.3537 145.317 57.3537C144.897 57.3537 144.557 57.2751 144.216 57.1441C143.876 57.0131 143.587 56.8035 143.351 56.5415C143.116 56.2795 142.932 55.9651 142.801 55.5721C142.67 55.179 142.592 54.7598 142.592 54.262C142.592 53.7642 142.696 53.0568 142.932 52.6113C143.142 52.1659 143.483 51.7991 143.876 51.5633C144.295 51.3275 144.793 51.1965 145.343 51.1965C145.893 51.1965 146.365 51.3275 146.784 51.5633C147.203 51.7991 147.517 52.1397 147.753 52.6113C147.989 53.0568 148.094 53.607 148.094 54.262H148.068ZM143.666 54.262C143.666 54.7074 143.718 55.1004 143.849 55.441C143.954 55.7555 144.138 56.0175 144.373 56.2009C144.609 56.3843 144.924 56.4629 145.317 56.4629C145.71 56.4629 145.998 56.3843 146.234 56.2009C146.469 56.0175 146.653 55.7817 146.758 55.441C146.862 55.1266 146.941 54.7336 146.941 54.262C146.941 53.7904 146.889 53.4236 146.758 53.1092C146.653 52.7948 146.469 52.5327 146.234 52.3755C145.998 52.2183 145.683 52.1135 145.29 52.1135C144.714 52.1135 144.321 52.2969 144.059 52.69C143.797 53.0568 143.666 53.607 143.666 54.2882V54.262Z" fill="#313458"/>
<path d="M149.037 54.7336V53.7904H151.762V54.7336H149.037Z" fill="#313458"/>
<path d="M156.007 51.1965C156.714 51.1965 157.29 51.4585 157.736 51.9563C158.155 52.4541 158.391 53.214 158.391 54.2358C158.391 55.2576 158.286 55.4672 158.103 55.9389C157.893 56.3843 157.631 56.7511 157.264 56.9869C156.897 57.2227 156.478 57.3275 156.007 57.3275C155.535 57.3275 155.43 57.2751 155.194 57.1965C154.959 57.1179 154.775 57.0131 154.618 56.8821C154.461 56.7511 154.33 56.5939 154.199 56.4629H154.12C154.12 56.5939 154.146 56.7511 154.173 56.9607C154.173 57.1441 154.173 57.3013 154.173 57.4585V59.869H153.098V51.3275H153.989L154.146 52.1659H154.199C154.304 51.9825 154.435 51.8253 154.618 51.6943C154.775 51.5371 154.985 51.4323 155.221 51.3537C155.456 51.2751 155.718 51.2227 156.033 51.2227L156.007 51.1965ZM155.745 52.0873C155.378 52.0873 155.063 52.1659 154.828 52.2969C154.592 52.4541 154.435 52.6638 154.33 52.952C154.225 53.2402 154.173 53.607 154.173 54.0524V54.2358C154.173 54.7074 154.225 55.1004 154.33 55.441C154.435 55.7555 154.592 56.0175 154.828 56.1747C155.063 56.3319 155.378 56.4367 155.771 56.4367C156.164 56.4367 156.373 56.3581 156.609 56.1747C156.845 55.9913 157.002 55.7293 157.107 55.4148C157.212 55.1004 157.264 54.7074 157.264 54.262C157.264 53.5808 157.133 53.0568 156.897 52.69C156.662 52.2969 156.269 52.1135 155.745 52.1135V52.0873Z" fill="#313458"/>
<path d="M162.19 51.1965C162.714 51.1965 163.16 51.3013 163.527 51.5371C163.893 51.7467 164.182 52.0611 164.365 52.4803C164.548 52.8734 164.653 53.345 164.653 53.8952V54.4978H160.644C160.644 55.1266 160.828 55.6245 161.142 55.9651C161.457 56.3057 161.902 56.4629 162.478 56.4629C163.055 56.4629 163.186 56.4367 163.474 56.3581C163.762 56.2795 164.077 56.1747 164.391 56.0437V56.9607C164.103 57.0917 163.789 57.1965 163.5 57.2489C163.212 57.3013 162.845 57.3537 162.426 57.3537C162.007 57.3537 161.352 57.2489 160.933 57.0131C160.513 56.7773 160.173 56.4367 159.937 55.9913C159.701 55.5459 159.57 54.9956 159.57 54.3406C159.57 53.6856 159.675 53.1354 159.885 52.6638C160.094 52.1921 160.409 51.8515 160.802 51.5895C161.195 51.3275 161.666 51.2227 162.19 51.2227V51.1965ZM162.19 52.0349C161.745 52.0349 161.404 52.1659 161.142 52.4541C160.88 52.7424 160.723 53.1354 160.671 53.6856H163.579C163.579 53.3712 163.527 53.083 163.422 52.821C163.317 52.5852 163.16 52.3755 162.976 52.2445C162.767 52.1135 162.505 52.0349 162.19 52.0349Z" fill="#313458"/>
<path d="M168.426 51.1965C168.95 51.1965 169.395 51.3013 169.762 51.5371C170.129 51.7467 170.417 52.0611 170.6 52.4803C170.784 52.8734 170.889 53.345 170.889 53.8952V54.4978H166.88C166.88 55.1266 167.063 55.6245 167.378 55.9651C167.692 56.3057 168.138 56.4629 168.714 56.4629C169.29 56.4629 169.421 56.4367 169.71 56.3581C169.998 56.2795 170.312 56.1747 170.627 56.0437V56.9607C170.338 57.0917 170.024 57.1965 169.736 57.2489C169.448 57.3013 169.081 57.3537 168.662 57.3537C168.242 57.3537 167.587 57.2489 167.168 57.0131C166.749 56.7773 166.408 56.4367 166.172 55.9913C165.937 55.5459 165.806 54.9956 165.806 54.3406C165.806 53.6856 165.91 53.1354 166.12 52.6638C166.33 52.1921 166.644 51.8515 167.037 51.5895C167.43 51.3275 167.902 51.2227 168.426 51.2227V51.1965ZM168.426 52.0349C167.98 52.0349 167.64 52.1659 167.378 52.4541C167.116 52.7424 166.958 53.1354 166.906 53.6856H169.814C169.814 53.3712 169.762 53.083 169.657 52.821C169.552 52.5852 169.395 52.3755 169.212 52.2445C169.002 52.1135 168.74 52.0349 168.426 52.0349Z" fill="#313458"/>
<path d="M175.212 51.1965C175.316 51.1965 175.447 51.1965 175.552 51.1965C175.683 51.1965 175.788 51.2227 175.867 51.2489L175.762 52.2445C175.683 52.2445 175.578 52.2183 175.474 52.1921C175.369 52.1921 175.264 52.1921 175.159 52.1921C174.923 52.1921 174.714 52.2445 174.504 52.3231C174.295 52.4017 174.111 52.5328 173.954 52.69C173.797 52.8472 173.666 53.0568 173.587 53.2926C173.508 53.5284 173.456 53.7904 173.456 54.1048V57.2227H172.382V51.3013H173.246L173.377 52.3755H173.43C173.561 52.1659 173.692 51.9563 173.875 51.7729C174.059 51.5895 174.242 51.4585 174.478 51.3537C174.714 51.2489 174.95 51.1965 175.238 51.1965H175.212Z" fill="#313458"/>
<path d="M186.373 51.1965C187.028 51.1965 187.526 51.3799 187.867 51.7205C188.207 52.0611 188.365 52.6114 188.365 53.3712V57.2489H187.29V53.5284C187.29 53.0568 187.186 52.7162 187.002 52.4803C186.819 52.2445 186.531 52.1397 186.138 52.1397C185.614 52.1397 185.221 52.2969 184.985 52.6376C184.749 52.952 184.618 53.4236 184.618 54.0524V57.2751H183.544V53.5546C183.544 53.2402 183.491 52.9782 183.413 52.7686C183.334 52.5589 183.203 52.4017 183.02 52.2969C182.862 52.1921 182.627 52.1397 182.391 52.1397C182.024 52.1397 181.736 52.2183 181.5 52.3755C181.29 52.5327 181.133 52.7686 181.028 53.083C180.924 53.3974 180.871 53.7642 180.871 54.2358V57.2751H179.797V51.3537H180.662L180.819 52.1659H180.871C181.002 51.9563 181.133 51.7991 181.317 51.6681C181.5 51.5371 181.71 51.4323 181.919 51.3537C182.129 51.2751 182.365 51.2489 182.627 51.2489C183.072 51.2489 183.439 51.3275 183.753 51.4847C184.068 51.6419 184.277 51.8777 184.435 52.2183H184.513C184.697 51.8777 184.959 51.6419 185.299 51.4847C185.64 51.3275 186.007 51.2489 186.373 51.2489V51.1965Z" fill="#313458"/>
<path d="M192.478 51.1965C193.002 51.1965 193.448 51.3013 193.814 51.5371C194.181 51.7467 194.469 52.0611 194.653 52.4803C194.836 52.8734 194.941 53.345 194.941 53.8952V54.4978H190.932C190.932 55.1266 191.116 55.6245 191.43 55.9651C191.744 56.3057 192.19 56.4629 192.766 56.4629C193.343 56.4629 193.474 56.4367 193.762 56.3581C194.05 56.2795 194.365 56.1747 194.679 56.0437V56.9607C194.391 57.0917 194.076 57.1965 193.788 57.2489C193.5 57.3013 193.133 57.3537 192.714 57.3537C192.295 57.3537 191.64 57.2489 191.22 57.0131C190.801 56.7773 190.461 56.4367 190.225 55.9913C189.989 55.5459 189.858 54.9956 189.858 54.3406C189.858 53.6856 189.963 53.1354 190.172 52.6638C190.382 52.1921 190.696 51.8515 191.089 51.5895C191.482 51.3275 191.954 51.2227 192.478 51.2227V51.1965ZM192.478 52.0349C192.033 52.0349 191.692 52.1659 191.43 52.4541C191.168 52.7424 191.011 53.1354 190.958 53.6856H193.867C193.867 53.3712 193.814 53.083 193.71 52.821C193.605 52.5852 193.448 52.3755 193.264 52.2445C193.055 52.1135 192.793 52.0349 192.478 52.0349Z" fill="#313458"/>
<path d="M198.714 51.1965C199.238 51.1965 199.683 51.3013 200.05 51.5371C200.417 51.7467 200.705 52.0611 200.888 52.4803C201.072 52.8734 201.177 53.345 201.177 53.8952V54.4978H197.168C197.168 55.1266 197.351 55.6245 197.666 55.9651C197.98 56.3057 198.426 56.4629 199.002 56.4629C199.578 56.4629 199.709 56.4367 199.998 56.3581C200.286 56.2795 200.6 56.1747 200.915 56.0437V56.9607C200.626 57.0917 200.312 57.1965 200.024 57.2489C199.736 57.3013 199.369 57.3537 198.95 57.3537C198.53 57.3537 197.875 57.2489 197.456 57.0131C197.037 56.7773 196.696 56.4367 196.46 55.9913C196.225 55.5459 196.094 54.9956 196.094 54.3406C196.094 53.6856 196.198 53.1354 196.408 52.6638C196.618 52.1921 196.932 51.8515 197.325 51.5895C197.718 51.3275 198.19 51.2227 198.714 51.2227V51.1965ZM198.714 52.0349C198.268 52.0349 197.928 52.1659 197.666 52.4541C197.404 52.7424 197.246 53.1354 197.194 53.6856H200.102C200.102 53.3712 200.05 53.083 199.945 52.821C199.84 52.5852 199.683 52.3755 199.5 52.2445C199.29 52.1135 199.028 52.0349 198.714 52.0349Z" fill="#313458"/>
<path d="M204.714 56.4629C204.871 56.4629 205.028 56.4629 205.186 56.4105C205.343 56.3843 205.474 56.3581 205.605 56.3057V57.1441C205.474 57.1965 205.317 57.2489 205.107 57.2751C204.897 57.3013 204.688 57.3275 204.478 57.3275C204.164 57.3275 203.876 57.2751 203.613 57.1703C203.351 57.0655 203.142 56.8821 202.985 56.5939C202.827 56.3319 202.749 55.9651 202.749 55.4673V52.1397H201.937V51.6419L202.801 51.2489L203.194 49.9651H203.849V51.3013H205.552V52.1397H203.849V55.4673C203.849 55.8079 203.928 56.0437 204.085 56.2009C204.242 56.3581 204.452 56.4367 204.714 56.4367V56.4629Z" fill="#313458"/>
<path d="M210.688 55.5721C210.688 55.9651 210.583 56.2795 210.4 56.5415C210.216 56.8035 209.928 57.0131 209.587 57.1441C209.22 57.2751 208.801 57.3537 208.303 57.3537C207.806 57.3537 207.544 57.3275 207.229 57.2489C206.941 57.1965 206.653 57.0917 206.417 56.9869V56.0437C206.679 56.1747 206.967 56.2795 207.334 56.3843C207.701 56.4891 208.015 56.5415 208.33 56.5415C208.644 56.5415 209.116 56.4629 209.325 56.3319C209.535 56.1747 209.64 55.9913 209.64 55.7293C209.64 55.4673 209.587 55.4411 209.509 55.3362C209.43 55.2314 209.273 55.1004 209.089 54.9956C208.88 54.8908 208.592 54.7598 208.199 54.6026C207.832 54.4454 207.491 54.3144 207.229 54.1572C206.967 54 206.758 53.8428 206.627 53.6332C206.496 53.4236 206.417 53.1616 206.417 52.821C206.417 52.2969 206.627 51.9301 207.02 51.6419C207.439 51.3799 207.963 51.2489 208.644 51.2489C209.325 51.2489 209.351 51.2751 209.666 51.3537C209.98 51.4323 210.295 51.5371 210.583 51.6419L210.242 52.4803C209.98 52.3755 209.718 52.2707 209.456 52.1921C209.194 52.1135 208.906 52.0873 208.618 52.0873C208.33 52.0873 207.963 52.1397 207.779 52.2707C207.596 52.4017 207.491 52.5589 207.491 52.7686C207.491 52.9782 207.544 53.0568 207.622 53.1616C207.701 53.2664 207.858 53.3712 208.068 53.476C208.277 53.5808 208.565 53.6856 208.932 53.8428C209.299 53.9738 209.613 54.131 209.876 54.262C210.138 54.4192 210.347 54.5764 210.478 54.786C210.609 54.9956 210.688 55.2576 210.688 55.5983V55.5721Z" fill="#313458"/>
<path d="M215.063 57.2227V49.3886H216.164V57.2227H215.063Z" fill="#313458"/>
<path d="M223.316 54.262C223.316 54.7598 223.264 55.179 223.133 55.5721C223.002 55.9651 222.819 56.2795 222.583 56.5415C222.347 56.8035 222.059 57.0131 221.718 57.1441C221.377 57.2751 220.984 57.3537 220.565 57.3537C220.146 57.3537 219.805 57.2751 219.465 57.1441C219.124 57.0131 218.836 56.8035 218.6 56.5415C218.364 56.2795 218.181 55.9651 218.05 55.5721C217.919 55.179 217.84 54.7598 217.84 54.262C217.84 53.7642 217.945 53.0568 218.181 52.6113C218.391 52.1659 218.731 51.7991 219.124 51.5633C219.543 51.3275 220.041 51.1965 220.591 51.1965C221.142 51.1965 221.613 51.3275 222.032 51.5633C222.452 51.7991 222.766 52.1397 223.002 52.6113C223.238 53.0568 223.343 53.607 223.343 54.262H223.316ZM218.915 54.262C218.915 54.7074 218.967 55.1004 219.098 55.441C219.203 55.7555 219.386 56.0175 219.622 56.2009C219.858 56.3843 220.172 56.4629 220.565 56.4629C220.958 56.4629 221.246 56.3843 221.482 56.2009C221.718 56.0175 221.901 55.7817 222.006 55.441C222.111 55.1266 222.19 54.7336 222.19 54.262C222.19 53.7904 222.137 53.4236 222.006 53.1092C221.901 52.7948 221.718 52.5327 221.482 52.3755C221.246 52.1921 220.932 52.1135 220.539 52.1135C219.963 52.1135 219.57 52.2969 219.308 52.69C219.046 53.0568 218.915 53.607 218.915 54.2882V54.262Z" fill="#313458"/>
<path d="M227.509 57.2227H226.409V50.3319H224.024V49.3886H229.893V50.3319H227.509V57.2227Z" fill="#313458"/>
</svg>
