<svg fill="none" height="59" viewBox="0 0 301 59" width="301" xmlns="http://www.w3.org/2000/svg"><g fill="#000"><path d="m27.4123 29.9649c-.1087-.0002-.2153-.0292-.3093-.0838-.0939-.0548-.1717-.1332-.2257-.2276-.0539-.0944-.082-.2012-.0814-.31.0006-.1087.0298-.2153.0847-.309l10.0767-17.5016c.0408-.0704.095-.1321.1596-.1816s.1383-.0857.217-.1067c.0785-.021.1605-.0263.2412-.0156s.1584.0372.2289.078c.0704.0407.1321.095.1816.1596s.0857.1383.1067.2169.0263.1606.0155.2413c-.0106.0807-.037.1584-.0778.2289l-10.082 17.4949c-.0531.0956-.1308.1752-.2249.2309-.0942.0555-.2014.085-.3108.0854z"/><path d="m30.3889 29.9652c-.1085-.0007-.215-.0299-.3087-.0847s-.1713-.1332-.2252-.2274c-.0538-.0943-.0819-.201-.0816-.3095.0004-.1084.0293-.215.0838-.3089l8.5467-14.8963c.0818-.1422.2168-.2462.3751-.2889.1585-.0428.3274-.0208.4696.061.1423.0817.2462.2167.289.3751.0427.1584.0207.3273-.061.4696l-8.5507 14.8936c-.0535.0956-.1314.1752-.2257.2309-.0944.0556-.2018.0851-.3113.0855z"/><path d="m33.4804 29.9653c-.1089.0001-.2158-.0288-.3097-.0838-.0703-.0408-.132-.0952-.1813-.1598-.0494-.0647-.0855-.1385-.1064-.217-.0208-.0787-.026-.1606-.0152-.2413.0108-.0805.0374-.1583.0783-.2286l7.074-12.1675c.0388-.0739.0922-.1393.1571-.192.0647-.0528.1396-.0919.2198-.115.0805-.0231.1646-.0297.2474-.0195.0829.0103.163.0372.2353.0793.0721.042.1351.0981.1851.1651s.0859.1434.1056.2246c.0196.0812.0226.1656.0089.248-.0139.0824-.0442.1612-.0892.2316l-7.074 12.1622c-.0537.0949-.1316.1738-.2256.2288-.0941.0552-.2011.0845-.3101.0849z"/><path d="m36.627 29.9646c-.1072.0004-.2127-.0275-.3057-.0811-.0708-.0407-.1328-.095-.1826-.1599-.0497-.0647-.0862-.1387-.1072-.2177s-.0261-.1612-.0151-.2422c.0109-.0809.0377-.159.0789-.2295l5.3966-9.4626c.0383-.0743.091-.1402.1554-.1935.0643-.0534.1389-.0932.2189-.1171.0801-.0238.1643-.0311.2474-.0216.083.0096.1633.0358.2359.0772s.1361.097.1866.1636c.0506.0666.0872.1427.1075.2238.0204.0811.0241.1654.0109.248-.0131.0826-.0428.1616-.0873.2324l-5.3965 9.4625c-.0539.0969-.1327.1775-.2284.2333-.0956.056-.2046.0851-.3153.0844z"/><path d="m21.4276 40.3323c-.1591-.0073-.3093-.0757-.4193-.191-.11-.1152-.1714-.2683-.1714-.4277s.0614-.3125.1714-.4277c.11-.1153.2602-.1836.4193-.191l19.813-.0226c.1593.0074.3093.0757.4194.191.11.1152.1713.2683.1713.4277s-.0613.3125-.1713.4277c-.1101.1153-.2601.1837-.4194.191l-19.8116.0226z"/><path d="m22.9599 37.7844c-.1592-.0074-.3094-.0757-.4194-.191-.11-.1152-.1714-.2685-.1714-.4277 0-.1594.0614-.3125.1714-.4277.11-.1153.2602-.1837.4194-.191l16.7917-.0519c.1591.0073.3093.0758.4194.191.1099.1153.1713.2684.1713.4278 0 .1592-.0614.3125-.1713.4277-.1101.1152-.2603.1836-.4194.191z"/><path d="m38.206 35.0556-13.6907-.0372c-.0837.0039-.1673-.0093-.2457-.0385-.0785-.0294-.1501-.0743-.2107-.1322s-.1088-.1274-.1418-.2044c-.0329-.0769-.0499-.1599-.0499-.2436 0-.0838.017-.1667.0499-.2437.033-.0769.0812-.1464.1418-.2043s.1322-.1028.2107-.1322c.0784-.0293.162-.0424.2457-.0386l13.6907.0372c.1591.0075.3093.0758.4194.1911.11.1152.1713.2685.1713.4277 0 .1594-.0613.3125-.1713.4277-.1101.1153-.2603.1837-.4194.191z"/><path d="m26.1259 32.3908c-.1592-.0073-.3093-.0758-.4194-.191-.11-.1153-.1713-.2684-.1713-.4278 0-.1592.0613-.3125.1713-.4277.1101-.1152.2602-.1836.4194-.191l10.5126-.0625c.1591.0075.3093.0758.4194.191.1099.1153.1713.2685.1713.4278s-.0614.3125-.1713.4277c-.1101.1152-.2603.1837-.4194.191z"/><path d="m53.3085 40.3236c-.1094 0-.2169-.0291-.3114-.0843-.0947-.055-.173-.1342-.2269-.2294l-9.8707-17.3447c-.0729-.142-.0882-.3066-.0428-.4597.0456-.153.1484-.2825.2871-.3616.1387-.079.3026-.1014.4574-.0626.1549.0389.2887.136.3737.2712l9.8706 17.35c.0811.1425.1022.3111.0589.4692-.0435.158-.1478.2924-.2902.3735-.0933.0525-.1987.0795-.3057.0784z"/><path d="m50.333 40.2699c-.1094.0003-.2168-.0286-.3114-.0835-.0945-.0549-.1728-.1338-.2269-.2288l-8.3833-14.7156c-.0445-.0707-.0741-.1498-.0873-.2323-.0131-.0826-.0094-.167.0109-.2481.0204-.081.0569-.1572.1075-.2238.0506-.0665.1141-.1222.1867-.1636.0725-.0414.1528-.0676.2359-.0772.0831-.0095.1672-.0022.2474.0217.08.0238.1545.0636.2189.117.0643.0534.1171.1192.1554.1935l8.3845 14.7156c.0811.1426.1023.3116.0589.4699-.0433.1581-.1476.2928-.2901.3741-.0935.0537-.1994.0818-.3071.0811z"/><path d="m47.1606 40.3091c-.1101.0004-.2181-.0288-.313-.0845-.0949-.0556-.1732-.1356-.2266-.2318l-6.759-12.0758c-.075-.1429-.0913-.3094-.0453-.4641.0459-.1548.1504-.2854.2912-.3642.1409-.0789.3069-.0996.4628-.0579.1559.0418.2894.1428.3719.2814l6.7577 12.0758c.0529.0941.0802.2004.0793.3085-.0009.1079-.0302.2139-.0848.3071-.0545.0931-.1326.1704-.2264.2239-.0937.0537-.1999.0818-.3078.0816z"/><path d="m44.0823 40.2315c-.1095.0003-.217-.0287-.3117-.0838-.0946-.0552-.1728-.1344-.2266-.2299l-5.2543-9.2711c-.0721-.1421-.0867-.3065-.0407-.4591.046-.1525.1491-.2814.2876-.36.1387-.0785.3023-.1007.4568-.0618.1545.039.2881.1359.3729.2708l5.2543 9.2711c.0402.0708.0661.1485.0761.2292.0099.0807.004.1626-.0178.2409-.0217.0782-.0588.1515-.1089.2154-.0501.0641-.1124.1175-.1833.1573-.0924.0535-.1975.0816-.3044.081z"/><path d="m76.5905 11.918h-12.3044v28.0819h3.5171v-10.8236h8.7873c4.611 0 8.3633-3.8706 8.3633-8.6292 0-4.7585-3.7523-8.6291-8.3633-8.6291zm0 13.6282h-8.7873v-9.9982h8.7873c2.6717 0 4.8449 2.2424 4.8449 4.9991 0 2.7568-2.1732 4.9991-4.8449 4.9991z"/><path d="m94.9786 19.1074c-5.7036 0-10.3438 4.7851-10.3438 10.6722 0 5.887 4.6402 10.6708 10.3438 10.6708 5.7034 0 10.3414-4.7851 10.3414-10.6695s-4.643-10.6735-10.3414-10.6735zm6.8224 10.6735c0 3.8826-3.0568 7.0448-6.8224 7.0448s-6.8254-3.1582-6.8254-7.0448 3.0571-7.0448 6.8254-7.0448 6.8184 3.1622 6.8184 7.0448z"/><path d="m111.357 11.918h-3.517v28.0833h3.517z"/><path d="m131.148 19.5567v2.2224c-1.86-1.713-4.295-2.6664-6.823-2.6717-5.702 0-10.343 4.7851-10.343 10.6722 0 5.887 4.641 10.6708 10.343 10.6708 2.528-.0053 4.963-.9586 6.823-2.6717v2.2224h3.518v-20.4444zm0 10.2229c0 3.8826-3.057 7.0447-6.823 7.0447s-6.826-3.1581-6.826-7.0447 3.058-7.0448 6.826-7.0448 6.823 3.1622 6.823 7.0448z"/><path d="m148.857 19.1575c-1.424.1375-2.804.5722-4.05 1.276s-2.33 1.661-3.183 2.8099v-3.6858h-3.519v20.4457h3.519v-9.4839c0-4.1205 3.254-7.5485 7.252-7.6521h.157v-3.7218z"/><path d="m172.372 24.5566-8.241-2.3248c-1.624-.5875-1.994-2.0616-1.799-3.2446.331-2.0031 2.344-4.0261 6.097-4.0261 2.214 0 3.87.5809 4.918 1.728 1.157 1.2614 1.361 2.976 1.395 3.6553l.01.1914 3.475-.7019-.013-.1502c-.142-1.4993-.654-3.6632-2.279-5.4497-1.744-1.9286-4.271-2.9029-7.509-2.9029-5.806 0-8.988 3.5396-9.57 7.0447-.54 3.2712 1.152 6.2087 4.221 7.3106l8.395 2.3726c2.659.6912 4.202 2.5135 3.946 4.6522-.266 2.1985-2.428 4.4169-6.665 4.4169-2.58 0-4.519-.6858-5.757-2.0376-.797-.868-1.316-2.0111-1.54-3.3961l-.027-.1688-3.447.6991.027.1608c.35 2.0576 1.159 3.7962 2.403 5.168 1.929 2.1267 4.736 3.2073 8.345 3.2073 6.349 0 9.715-3.9397 10.155-7.6003.404-3.3283-1.463-7.2854-6.54-8.6039z"/><path d="m184.315 11.9238c-1.254 0-2.274 1.0528-2.274 2.3474s1.02 2.3474 2.274 2.3474c1.255 0 2.276-1.0528 2.276-2.3474s-1.021-2.3474-2.276-2.3474z"/><path d="m186.075 19.5576h-3.518v20.4444h3.518z"/><path d="m206.394 19.5567v2.2224c-1.86-1.713-4.295-2.6664-6.823-2.6717-5.702 0-10.342 4.7851-10.342 10.6709 0 5.8856 4.64 10.6721 10.342 10.6721 2.528-.0057 4.963-.9596 6.823-2.673v5.3619c.001.1176-.02.2341-.063.3434-.044.1092-.107.2088-.19.2931-.082.0842-.179.1516-.287.1982s-.225.0715-.341.0732h-12.422v3.63h12.422c2.425 0 4.399-2.035 4.399-4.5379v-23.5826zm0 10.2216c0 3.8839-3.057 7.0447-6.823 7.0447s-6.824-3.1582-6.824-7.0447c0-3.8866 3.057-7.0448 6.824-7.0448s6.823 3.1635 6.823 7.0448z"/><path d="m223.003 19.1074c-1.3.0065-2.581.3177-3.739.9086-1.157.591-2.161 1.4452-2.929 2.4942v-2.9535h-3.519v20.4431h3.519v-11.2437c0-3.2592 2.569-5.911 5.729-5.911 3.159 0 5.728 2.6584 5.728 5.911v11.2437h3.623v-12.2153c-.003-4.7852-3.775-8.6771-8.412-8.6771z"/><path d="m250.951 19.5567v2.2224c-1.86-1.7133-4.295-2.6667-6.824-2.6717-5.703 0-10.343 4.7851-10.343 10.6722 0 5.887 4.64 10.6708 10.343 10.6708 2.529-.0051 4.964-.9584 6.824-2.6717v2.2224h3.517v-20.4444zm0 10.2229c0 3.8826-3.057 7.0447-6.824 7.0447s-6.826-3.1581-6.826-7.0447 3.057-7.0448 6.826-7.0448c3.768 0 6.824 3.1622 6.824 7.0448z"/><path d="m261.328 11.918h-3.518v28.0833h3.518z"/><path d="m275.11 27.7901-5.792-1.595c-.992-.3509-1.008-1.1817-.931-1.6442.196-1.1631 1.447-2.3354 3.799-2.3354 1.417 0 2.462.3456 3.105 1.0275.532.5689.733 1.2999.798 1.813l.045.323 3.48-.4719-.041-.3283c-.197-1.4953-.766-2.7621-1.697-3.7616-1.329-1.4329-3.245-2.16-5.684-2.16-4.408 0-6.83 2.6584-7.277 5.2969-.425 2.5254.922 4.7851 3.362 5.6477l5.947 1.6349c1.604.4094 2.547 1.4382 2.4 2.6225-.159 1.284-1.518 2.58-4.196 2.58-1.68 0-2.924-.4174-3.696-1.2415-.491-.521-.811-1.2148-.951-2.0642l-.107-.65-3.467.6832.11.6247c.266 1.522.88 2.8126 1.833 3.8361 1.462 1.5764 3.589 2.3753 6.278 2.3753 4.805 0 7.357-2.9561 7.696-5.7023.31-2.5294-1.119-5.5228-5.014-6.5104z"/></g></svg>