<svg width="302" height="60" viewBox="0 0 302 60" fill="none" xmlns="http://www.w3.org/2000/svg">
<path d="M84.4341 36.4616V36.5356C84.3713 38.7163 81.2314 40.3852 77.4237 40.2613C73.616 40.1373 70.5807 38.2737 70.6467 36.0898L70.6226 30.4023H84.4099L84.4341 36.46V36.4616Z" fill="black"/>
<path d="M76.606 35.7889L64.6936 28.6144C64.1464 28.2844 64.1464 27.491 64.6936 27.1611L76.606 19.9866C77.1725 19.6454 77.8823 19.6454 78.4504 19.9866L90.3628 27.1611C90.91 27.491 90.91 28.2844 90.3628 28.6144L78.4504 35.7889C77.8839 36.13 77.1741 36.13 76.606 35.7889Z" fill="#FF2670"/>
<path d="M88.3913 33.6918C87.8989 33.6918 87.4981 33.2927 87.4981 32.7986V30.3267L84.8202 28.8106C84.3905 28.5676 84.2408 28.0237 84.4822 27.594C84.7252 27.1643 85.2708 27.0146 85.6989 27.256L88.8307 29.0279C89.1107 29.1856 89.2829 29.4834 89.2829 29.8052V32.7986C89.2829 33.2911 88.8838 33.6918 88.3897 33.6918H88.3913Z" fill="black"/>
<path d="M88.3915 37.4303C89.1025 37.4303 89.679 36.8539 89.679 36.1428C89.679 35.4318 89.1025 34.8553 88.3915 34.8553C87.6804 34.8553 87.104 35.4318 87.104 36.1428C87.104 36.8539 87.6804 37.4303 88.3915 37.4303Z" fill="#FF2670"/>
<path d="M77.5281 12.5884C83.5027 12.5884 88.3461 9.77038 88.3461 6.29419C88.3461 2.81801 83.5027 0 77.5281 0C71.5534 0 66.71 2.81801 66.71 6.29419C66.71 9.77038 71.5534 12.5884 77.5281 12.5884Z" fill="#FF2670"/>
<path d="M77.5281 60C83.5027 60 88.3461 57.182 88.3461 53.7058C88.3461 50.2296 83.5027 47.4116 77.5281 47.4116C71.5534 47.4116 66.71 50.2296 66.71 53.7058C66.71 57.182 71.5534 60 77.5281 60Z" fill="#FF2670"/>
<path d="M62.4488 21.2947C65.4362 16.1205 65.4174 10.517 62.407 8.77888C59.3965 7.04078 54.5343 9.82631 51.547 15.0005C48.5597 20.1747 48.5784 25.7783 51.5889 27.5164C54.5993 29.2545 59.4615 26.4689 62.4488 21.2947Z" fill="#FF2670"/>
<path d="M103.508 44.9991C106.496 39.8248 106.477 34.2213 103.467 32.4832C100.456 30.7451 95.5939 33.5307 92.6066 38.7049C89.6192 43.8791 89.638 49.4826 92.6484 51.2207C95.6589 52.9588 100.521 50.1733 103.508 44.9991Z" fill="#FF2670"/>
<path d="M62.4077 51.2214C65.4182 49.4833 65.4369 43.8797 62.4496 38.7055C59.4622 33.5313 54.6001 30.7458 51.5896 32.4839C48.5791 34.222 48.5604 39.8255 51.5477 44.9997C54.535 50.1739 59.3972 52.9595 62.4077 51.2214Z" fill="#FF2670"/>
<path d="M103.467 27.5154C106.477 25.7773 106.496 20.1738 103.509 14.9996C100.522 9.82539 95.6594 7.03986 92.6489 8.77795C89.6385 10.516 89.6197 16.1196 92.607 21.2938C95.5944 26.468 100.457 29.2535 103.467 27.5154Z" fill="#FF2670"/>
<path d="M132.227 8.74685C132.941 9.08159 133.488 9.55313 133.868 10.1615C134.248 10.7698 134.44 11.4811 134.44 12.2874C134.44 13.0937 134.25 13.8051 133.868 14.4134C133.487 15.0217 132.941 15.4949 132.227 15.828C131.512 16.1611 130.669 16.3285 129.694 16.3285H126.356V19.9721H123.111V8.24634H129.694C130.669 8.24634 131.512 8.41371 132.227 8.74685ZM129.505 13.7342C130.027 13.7342 130.434 13.6071 130.725 13.3512C131.016 13.0953 131.163 12.7413 131.163 12.2874C131.163 11.8336 131.016 11.4795 130.725 11.2236C130.434 10.9678 130.027 10.8406 129.505 10.8406H126.354V13.7342H129.505Z" fill="black"/>
<path d="M138.653 19.4652C137.6 18.955 136.783 18.2372 136.202 17.3119C135.621 16.3865 135.33 15.3195 135.33 14.1109C135.33 12.9022 135.621 11.8336 136.202 10.9098C136.783 9.98447 137.6 9.2667 138.653 8.75653C139.705 8.24476 140.92 7.99048 142.296 7.99048C143.672 7.99048 144.888 8.24637 145.94 8.75653C146.993 9.2667 147.81 9.98447 148.391 10.9098C148.972 11.8352 149.263 12.9022 149.263 14.1109C149.263 15.3195 148.972 16.3881 148.391 17.3119C147.81 18.2372 146.993 18.955 145.94 19.4652C144.888 19.9753 143.672 20.2312 142.296 20.2312C140.92 20.2312 139.705 19.9753 138.653 19.4652ZM139.057 15.8232C139.356 16.3076 139.784 16.681 140.34 16.9417C140.895 17.2024 141.548 17.3328 142.298 17.3328C143.048 17.3328 143.701 17.2024 144.257 16.9417C144.812 16.681 145.238 16.3076 145.539 15.8232C145.839 15.3388 145.988 14.7675 145.988 14.1109C145.988 13.4542 145.839 12.8829 145.539 12.3985C145.24 11.9141 144.812 11.5407 144.257 11.28C143.701 11.0193 143.048 10.8889 142.298 10.8889C141.548 10.8889 140.895 11.0193 140.34 11.28C139.784 11.5407 139.358 11.9141 139.057 12.3985C138.758 12.8829 138.608 13.4542 138.608 14.1109C138.608 14.7675 138.758 15.3388 139.057 15.8232Z" fill="black"/>
<path d="M154.174 17.0897H161.491V19.9753H150.929V8.24634H154.174V17.0897Z" fill="black"/>
<path d="M162.875 8.24634H166.104V15.6268L171.881 8.24634H175.314L171.318 13.179L175.47 19.9737H171.788L169.271 15.7057L165.807 19.9737H162.875V8.24634Z" fill="black"/>
<path d="M190.341 19.9737H186.885L185.908 17.7142H179.849L178.872 19.9737H175.409L180.749 8.24634H185.01L190.342 19.9737H190.341ZM184.782 15.1102L182.873 10.7167L180.974 15.1102H184.782Z" fill="black"/>
<path d="M200.946 8.97377C201.996 9.45818 202.812 10.1438 203.389 11.0305C203.969 11.9173 204.257 12.944 204.257 14.1108C204.257 15.2776 203.967 16.3044 203.389 17.1911C202.81 18.0779 201.996 18.7619 200.946 19.2479C199.895 19.7323 198.68 19.9753 197.3 19.9753H191.443V8.24634H197.3C198.68 8.24634 199.897 8.48774 200.946 8.97377ZM197.541 17.0897C198.239 17.0897 198.848 16.969 199.366 16.726C199.884 16.4846 200.283 16.1386 200.562 15.6896C200.84 15.2406 200.98 14.7159 200.98 14.1108C200.98 13.5057 200.84 12.9795 200.562 12.5321C200.283 12.083 199.884 11.7386 199.366 11.4956C198.848 11.2542 198.239 11.1319 197.541 11.1319H194.671V17.0897H197.541Z" fill="black"/>
<path d="M208.737 19.4652C207.685 18.955 206.867 18.2372 206.286 17.3119C205.705 16.3865 205.414 15.3195 205.414 14.1109C205.414 12.9022 205.705 11.8336 206.286 10.9098C206.867 9.98447 207.685 9.2667 208.737 8.75653C209.79 8.24476 211.005 7.99048 212.381 7.99048C213.757 7.99048 214.972 8.24637 216.024 8.75653C217.077 9.2667 217.894 9.98447 218.475 10.9098C219.056 11.8352 219.348 12.9022 219.348 14.1109C219.348 15.3195 219.056 16.3881 218.475 17.3119C217.894 18.2372 217.077 18.955 216.024 19.4652C214.972 19.9753 213.757 20.2312 212.381 20.2312C211.005 20.2312 209.79 19.9753 208.737 19.4652ZM209.139 15.8232C209.439 16.3076 209.867 16.681 210.422 16.9417C210.977 17.2024 211.631 17.3328 212.381 17.3328C213.131 17.3328 213.784 17.2024 214.339 16.9417C214.895 16.681 215.321 16.3076 215.622 15.8232C215.921 15.3388 216.071 14.7675 216.071 14.1109C216.071 13.4542 215.921 12.8829 215.622 12.3985C215.323 11.9141 214.895 11.5407 214.339 11.28C213.784 11.0193 213.131 10.8889 212.381 10.8889C211.631 10.8889 210.977 11.0193 210.422 11.28C209.867 11.5407 209.44 11.9141 209.139 12.3985C208.84 12.8829 208.69 13.4542 208.69 14.1109C208.69 14.7675 208.84 15.3388 209.139 15.8232Z" fill="black"/>
<path d="M231.926 8.24634V11.1319H227.454V19.9753H224.209V11.1319H219.737V8.24634H231.926Z" fill="black"/>
<path d="M123.667 29.5896L122.759 23.8812H131.108C131.828 23.8812 132.446 23.9971 132.961 24.2256C133.477 24.4558 133.87 24.7825 134.142 25.2106C134.412 25.6386 134.548 26.1456 134.548 26.7346C134.548 27.3236 134.406 27.8322 134.121 28.3053C133.836 28.7801 133.398 29.1551 132.803 29.4319C133.641 29.6298 134.272 29.9775 134.696 30.4748C135.117 30.972 135.33 31.5836 135.33 32.3078C135.33 32.9548 135.182 33.5245 134.884 34.0202C134.586 34.5158 134.145 34.9037 133.559 35.1853C132.974 35.467 132.257 35.607 131.414 35.607H122.759L123.667 29.5864V29.5896ZM130.555 33.3442C131.018 33.3442 131.382 33.2284 131.646 32.9998C131.908 32.7713 132.04 32.4527 132.04 32.0471C132.04 31.6415 131.894 31.3084 131.602 31.0654C131.31 30.824 130.893 30.7017 130.352 30.7017H126.599L126.192 33.3442H130.555ZM126.589 28.4808H129.913C130.309 28.4808 130.632 28.3681 130.881 28.1412C131.131 27.9143 131.256 27.6133 131.256 27.2383C131.256 26.9149 131.144 26.6525 130.917 26.453C130.69 26.2518 130.376 26.152 129.975 26.152H126.206L126.589 28.4824V28.4808Z" fill="black"/>
<path d="M140.162 32.7262H147.48V35.6118H136.918V23.8844H140.162V32.7278V32.7262Z" fill="black"/>
<path d="M151.148 35.1033C150.096 34.5915 149.278 33.8737 148.697 32.95C148.116 32.0246 147.825 30.9576 147.825 29.7473C147.825 28.5371 148.116 27.4717 148.697 26.5463C149.278 25.6209 150.096 24.9032 151.148 24.393C152.201 23.8828 153.416 23.627 154.792 23.627C156.168 23.627 157.383 23.8828 158.435 24.393C159.488 24.9032 160.305 25.6226 160.886 26.5463C161.467 27.4717 161.759 28.5387 161.759 29.7473C161.759 30.956 161.467 32.0246 160.886 32.95C160.305 33.8753 159.488 34.5931 158.435 35.1033C157.383 35.6134 156.168 35.8693 154.792 35.8693C153.416 35.8693 152.201 35.6134 151.148 35.1033ZM151.55 31.4597C151.85 31.9441 152.278 32.3175 152.833 32.5782C153.388 32.8389 154.042 32.9693 154.792 32.9693C155.542 32.9693 156.195 32.8389 156.75 32.5782C157.305 32.3175 157.732 31.9441 158.033 31.4597C158.332 30.9753 158.482 30.4039 158.482 29.7473C158.482 29.0907 158.332 28.5194 158.033 28.035C157.734 27.5506 157.305 27.1772 156.75 26.9165C156.195 26.6558 155.542 26.5254 154.792 26.5254C154.042 26.5254 153.388 26.6558 152.833 26.9165C152.278 27.1772 151.851 27.5506 151.55 28.035C151.251 28.5194 151.101 29.0907 151.101 29.7473C151.101 30.4039 151.251 30.9753 151.55 31.4597Z" fill="black"/>
<path d="M175.393 33.4102C174.799 34.1892 174.014 34.7943 173.04 35.224C172.065 35.6537 170.962 35.8693 169.733 35.8693C168.383 35.8693 167.192 35.6134 166.16 35.1033C165.128 34.5915 164.329 33.8737 163.764 32.95C163.199 32.0246 162.916 30.9576 162.916 29.7473C162.916 28.5371 163.199 27.4717 163.764 26.5463C164.329 25.6209 165.128 24.9032 166.16 24.393C167.192 23.8828 168.383 23.627 169.733 23.627C170.962 23.627 172.065 23.841 173.04 24.2707C174.014 24.7004 174.799 25.3055 175.393 26.0844C175.987 26.8634 176.341 27.7662 176.457 28.793H173.196C173.04 28.0527 172.662 27.4733 172.063 27.0565C171.463 26.6397 170.684 26.4321 169.725 26.4321C169.001 26.4321 168.374 26.5656 167.845 26.8344C167.316 27.1032 166.91 27.4862 166.625 27.9835C166.34 28.4808 166.199 29.0682 166.199 29.7457C166.199 30.4233 166.34 31.0107 166.625 31.5096C166.908 32.0069 167.316 32.3899 167.845 32.6587C168.374 32.9274 169.001 33.061 169.725 33.061C170.694 33.061 171.477 32.8598 172.074 32.4543C172.671 32.0503 173.045 31.4645 173.196 30.7001H176.457C176.342 31.7268 175.988 32.6297 175.393 33.4086V33.4102Z" fill="black"/>
<path d="M178.027 23.8828H181.256V31.2633L187.033 23.8828H190.466L186.47 28.8155L190.622 35.6102H186.94L184.423 31.3422L180.96 35.6102H178.027V23.8828Z" fill="black"/>
<path d="M202.82 33.4102C202.226 34.1892 201.44 34.7943 200.467 35.224C199.491 35.6537 198.389 35.8693 197.16 35.8693C195.809 35.8693 194.618 35.6134 193.587 35.1033C192.555 34.5915 191.755 33.8737 191.19 32.95C190.626 32.0246 190.342 30.9576 190.342 29.7473C190.342 28.5371 190.626 27.4717 191.19 26.5463C191.755 25.6209 192.555 24.9032 193.587 24.393C194.618 23.8828 195.809 23.627 197.16 23.627C198.389 23.627 199.491 23.841 200.467 24.2707C201.44 24.7004 202.226 25.3055 202.82 26.0844C203.413 26.8634 203.768 27.7662 203.883 28.793H200.623C200.467 28.0527 200.089 27.4733 199.49 27.0565C198.89 26.6397 198.111 26.4321 197.151 26.4321C196.427 26.4321 195.801 26.5656 195.272 26.8344C194.742 27.1032 194.337 27.4862 194.052 27.9835C193.767 28.4808 193.625 29.0682 193.625 29.7457C193.625 30.4233 193.767 31.0107 194.052 31.5096C194.335 32.0069 194.742 32.3899 195.272 32.6587C195.801 32.9274 196.427 33.061 197.151 33.061C198.12 33.061 198.904 32.8598 199.501 32.4543C200.098 32.0503 200.472 31.4645 200.623 30.7001H203.883C203.769 31.7268 203.415 32.6297 202.82 33.4086V33.4102Z" fill="black"/>
<path d="M208.699 23.8828V28.2232H214.695V23.8828H217.939V35.6102H214.695V31.0831H208.699V35.6102H205.454V23.8828H208.699Z" fill="black"/>
<path d="M233.975 35.6102H230.52L229.543 33.3507H223.484L222.507 35.6102H219.043L224.383 23.8828H228.645L233.977 35.6102H233.975ZM228.416 30.7467L226.508 26.3532L224.609 30.7467H228.416Z" fill="black"/>
<path d="M238.322 23.8828V35.6102H235.077V23.8828H238.322Z" fill="black"/>
<path d="M240.503 23.8828H244.702L250.378 31.936V23.8828H253.521V35.6102H249.439L243.654 27.3783V35.6102H240.503V23.8828Z" fill="black"/>
<path d="M136.973 51.2482H133.518L132.541 48.9887H126.481L125.505 51.2482H122.041L127.381 39.5209H131.643L136.974 51.2482H136.973ZM131.414 46.3848L129.505 41.9912L127.606 46.3848H131.414Z" fill="black"/>
<path d="M149.341 49.0467C148.747 49.8272 147.961 50.4307 146.988 50.8604C146.012 51.2901 144.91 51.5058 143.681 51.5058C142.33 51.5058 141.139 51.2499 140.108 50.7397C139.076 50.2296 138.276 49.5118 137.711 48.5864C137.147 47.661 136.863 46.594 136.863 45.3854C136.863 44.1768 137.147 43.1082 137.711 42.1844C138.276 41.259 139.076 40.5412 140.108 40.0311C141.139 39.5193 142.33 39.265 143.681 39.265C144.91 39.265 146.012 39.4791 146.988 39.9104C147.961 40.3401 148.747 40.9452 149.341 41.7241C149.934 42.5046 150.289 43.4059 150.404 44.4327H147.144C146.988 43.6924 146.61 43.1146 146.011 42.6978C145.411 42.2809 144.632 42.0717 143.672 42.0717C142.948 42.0717 142.322 42.2069 141.793 42.4741C141.263 42.7428 140.858 43.1259 140.573 43.6232C140.288 44.1204 140.146 44.7079 140.146 45.387C140.146 46.0662 140.288 46.652 140.573 47.1509C140.856 47.6482 141.263 48.0312 141.793 48.2999C142.322 48.5687 142.948 48.7039 143.672 48.7039C144.641 48.7039 145.425 48.5011 146.022 48.0972C146.619 47.6932 146.993 47.1074 147.144 46.3414H150.404C150.29 47.3681 149.936 48.271 149.341 49.0499V49.0467Z" fill="black"/>
<path d="M165.228 51.2482H161.773L160.796 48.9887H154.737L153.76 51.2482H150.297L155.636 39.5209H159.898L165.23 51.2482H165.228ZM159.67 46.3848L157.761 41.9912L155.862 46.3848H159.67Z" fill="black"/>
<path d="M175.834 40.2467C176.883 40.7311 177.699 41.4167 178.277 42.3034C178.856 43.1902 179.144 44.217 179.144 45.3838C179.144 46.5505 178.855 47.5773 178.277 48.4641C177.697 49.3508 176.883 50.0348 175.834 50.5208C174.783 51.0052 173.568 51.2482 172.187 51.2482H166.331V39.5209H172.187C173.568 39.5209 174.785 39.7623 175.834 40.2483V40.2467ZM172.428 48.3627C173.127 48.3627 173.735 48.242 174.253 47.999C174.772 47.7576 175.171 47.4115 175.449 46.9625C175.728 46.5135 175.868 45.9889 175.868 45.3838C175.868 44.7786 175.728 44.2524 175.449 43.805C175.171 43.356 174.772 43.0116 174.253 42.7686C173.735 42.5271 173.127 42.4048 172.428 42.4048H169.559V48.3627H172.428Z" fill="black"/>
<path d="M190.693 46.5634H184.125L183.797 48.6202H191.224V51.2483H180.318L181.209 45.3838L180.318 39.5193H191.147V42.1458H183.797L184.125 44.2025H190.693V46.5634Z" fill="black"/>
<path d="M210.222 51.2482H207.142V42.3517L203.288 51.2482H200.011L196.165 42.3904V51.2482H193.076V39.5209H198.088L201.661 48.0971L205.217 39.5209H210.221V51.2482H210.222Z" fill="black"/>
<path d="M216.916 46.5329L211.42 39.5193H215.009L218.527 44.0078L222.045 39.5193H225.634L220.16 46.4942V51.2483H216.916V46.5345V46.5329Z" fill="black"/>
</svg>
