<svg fill="none" height="60" viewBox="0 0 302 60" width="302" xmlns="http://www.w3.org/2000/svg"><path d="m84.4341 36.4616v.074c-.0628 2.1807-3.2027 3.8496-7.0104 3.7257-3.8077-.124-6.843-1.9876-6.777-4.1715l-.0241-5.6875h13.7873l.0242 6.0577z" fill="#000"/><path d="m76.606 35.7889-11.9124-7.1745c-.5472-.33-.5472-1.1234 0-1.4533l11.9124-7.1745c.5665-.3412 1.2763-.3412 1.8444 0l11.9124 7.1745c.5472.3299.5472 1.1233 0 1.4533l-11.9124 7.1745c-.5665.3411-1.2763.3411-1.8444 0z" fill="#ff2670"/><path d="m88.3913 33.6918c-.4924 0-.8932-.3991-.8932-.8932v-2.4719l-2.6779-1.5161c-.4297-.243-.5794-.7869-.338-1.2166.243-.4297.7886-.5794 1.2167-.338l3.1318 1.7719c.28.1577.4522.4555.4522.7773v2.9934c0 .4925-.3991.8932-.8932.8932z" fill="#000"/><path d="m88.3915 37.4303c.711 0 1.2875-.5764 1.2875-1.2875 0-.711-.5765-1.2875-1.2875-1.2875-.7111 0-1.2875.5765-1.2875 1.2875 0 .7111.5764 1.2875 1.2875 1.2875z" fill="#ff2670"/><path d="m77.5281 12.5884c5.9746 0 10.818-2.81802 10.818-6.29421 0-3.47618-4.8434-6.29419-10.818-6.29419-5.9747 0-10.8181 2.81801-10.8181 6.29419 0 3.47619 4.8434 6.29421 10.8181 6.29421z" fill="#ff2670"/><path d="m77.5281 60c5.9746 0 10.818-2.818 10.818-6.2942s-4.8434-6.2942-10.818-6.2942c-5.9747 0-10.8181 2.818-10.8181 6.2942s4.8434 6.2942 10.8181 6.2942z" fill="#ff2670"/><path d="m62.4488 21.2947c2.9874-5.1742 2.9686-10.7777-.0418-12.51582-3.0105-1.7381-7.8727 1.04743-10.86 6.22162-2.9873 5.1742-2.9686 10.7778.0419 12.5159 3.0104 1.7381 7.8726-1.0475 10.8599-6.2217z" fill="#ff2670"/><path d="m103.508 44.9991c2.988-5.1743 2.969-10.7778-.041-12.5159-3.011-1.7381-7.8731 1.0475-10.8604 6.2217-2.9874 5.1742-2.9686 10.7777.0418 12.5158 3.0105 1.7381 7.8726-1.0474 10.8596-6.2216z" fill="#ff2670"/><path d="m62.4077 51.2214c3.0105-1.7381 3.0292-7.3417.0419-12.5159-2.9874-5.1742-7.8495-7.9597-10.86-6.2216s-3.0292 7.3416-.0419 12.5158 7.8495 7.9598 10.86 6.2217z" fill="#ff2670"/><path d="m103.467 27.5154c3.01-1.7381 3.029-7.3416.042-12.5158-2.987-5.17421-7.8496-7.95974-10.8601-6.22165-3.0104 1.73805-3.0292 7.34165-.0419 12.51585 2.9874 5.1742 7.85 7.9597 10.86 6.2216z" fill="#ff2670"/><g fill="#000"><path d="m132.227 8.74685c.714.33474 1.261.80628 1.641 1.41465.38.6083.572 1.3196.572 2.1259s-.19 1.5177-.572 2.126c-.381.6083-.927 1.0815-1.641 1.4146-.715.3331-1.558.5005-2.533.5005h-3.338v3.6436h-3.245v-11.72576h6.583c.975 0 1.818.16737 2.533.50051zm-2.722 4.98735c.522 0 .929-.1271 1.22-.383s.438-.6099.438-1.0638c0-.4538-.147-.8079-.438-1.0638-.291-.2558-.698-.383-1.22-.383h-3.151v2.8936z"/><path d="m138.653 19.4652c-1.053-.5102-1.87-1.228-2.451-2.1533-.581-.9254-.872-1.9924-.872-3.201 0-1.2087.291-2.2773.872-3.2011.581-.92533 1.398-1.6431 2.451-2.15327 1.052-.51177 2.267-.76605 3.643-.76605s2.592.25589 3.644.76605c1.053.51017 1.87 1.22794 2.451 2.15327.581.9254.872 1.9924.872 3.2011 0 1.2086-.291 2.2772-.872 3.201-.581.9253-1.398 1.6431-2.451 2.1533-1.052.5101-2.268.766-3.644.766s-2.591-.2559-3.643-.766zm.404-3.642c.299.4844.727.8578 1.283 1.1185.555.2607 1.208.3911 1.958.3911s1.403-.1304 1.959-.3911c.555-.2607.981-.6341 1.282-1.1185.3-.4844.449-1.0557.449-1.7123 0-.6567-.149-1.228-.449-1.7124-.299-.4844-.727-.8578-1.282-1.1185-.556-.2607-1.209-.3911-1.959-.3911s-1.403.1304-1.958.3911c-.556.2607-.982.6341-1.283 1.1185-.299.4844-.449 1.0557-.449 1.7124 0 .6566.15 1.2279.449 1.7123z"/><path d="m154.174 17.0897h7.317v2.8856h-10.562v-11.72896h3.245z"/><path d="m162.875 8.24634h3.229v7.38046l5.777-7.38046h3.433l-3.996 4.93266 4.152 6.7947h-3.682l-2.517-4.268-3.464 4.268h-2.932z"/><path d="m190.341 19.9737h-3.456l-.977-2.2595h-6.059l-.977 2.2595h-3.463l5.34-11.72736h4.261l5.332 11.72736zm-5.559-4.8635-1.909-4.3935-1.899 4.3935z"/><path d="m200.946 8.97377c1.05.48441 1.866 1.17003 2.443 2.05673.58.8868.868 1.9135.868 3.0803s-.29 2.1936-.868 3.0803c-.579.8868-1.393 1.5708-2.443 2.0568-1.051.4844-2.266.7274-3.646.7274h-5.857v-11.72896h5.857c1.38 0 2.597.2414 3.646.72743zm-3.405 8.11593c.698 0 1.307-.1207 1.825-.3637.518-.2414.917-.5874 1.196-1.0364.278-.449.418-.9737.418-1.5788s-.14-1.1313-.418-1.5787c-.279-.4491-.678-.7935-1.196-1.0365-.518-.2414-1.127-.3637-1.825-.3637h-2.87v5.9578z"/><path d="m208.737 19.4652c-1.052-.5102-1.87-1.228-2.451-2.1533-.581-.9254-.872-1.9924-.872-3.201 0-1.2087.291-2.2773.872-3.2011.581-.92533 1.399-1.6431 2.451-2.15327 1.053-.51177 2.268-.76605 3.644-.76605s2.591.25589 3.643.76605c1.053.51017 1.87 1.22794 2.451 2.15327.581.9254.873 1.9924.873 3.2011 0 1.2086-.292 2.2772-.873 3.201-.581.9253-1.398 1.6431-2.451 2.1533-1.052.5101-2.267.766-3.643.766s-2.591-.2559-3.644-.766zm.402-3.642c.3.4844.728.8578 1.283 1.1185s1.209.3911 1.959.3911 1.403-.1304 1.958-.3911c.556-.2607.982-.6341 1.283-1.1185.299-.4844.449-1.0557.449-1.7123 0-.6567-.15-1.228-.449-1.7124s-.727-.8578-1.283-1.1185c-.555-.2607-1.208-.3911-1.958-.3911s-1.404.1304-1.959.3911-.982.6341-1.283 1.1185c-.299.4844-.449 1.0557-.449 1.7124 0 .6566.15 1.2279.449 1.7123z"/><path d="m231.926 8.24634v2.88556h-4.472v8.8434h-3.245v-8.8434h-4.472v-2.88556z"/><path d="m123.667 29.5896-.908-5.7084h8.349c.72 0 1.338.1159 1.853.3444.516.2302.909.5569 1.181.985.27.428.406.935.406 1.524s-.142 1.0976-.427 1.5707c-.285.4748-.723.8498-1.318 1.1266.838.1979 1.469.5456 1.893 1.0429.421.4972.634 1.1088.634 1.833 0 .647-.148 1.2167-.446 1.7124-.298.4956-.739.8835-1.325 1.1651-.585.2817-1.302.4217-2.145.4217h-8.655l.908-6.0206zm6.888 3.7546c.463 0 .827-.1158 1.091-.3444.262-.2285.394-.5471.394-.9527s-.146-.7387-.438-.9817c-.292-.2414-.709-.3637-1.25-.3637h-3.753l-.407 2.6425zm-3.966-4.8634h3.324c.396 0 .719-.1127.968-.3396.25-.2269.375-.5279.375-.9029 0-.3234-.112-.5858-.339-.7853-.227-.2012-.541-.301-.942-.301h-3.769l.383 2.3304z"/><path d="m140.162 32.7262h7.318v2.8856h-10.562v-11.7274h3.244v8.8434z"/><path d="m151.148 35.1033c-1.052-.5118-1.87-1.2296-2.451-2.1533-.581-.9254-.872-1.9924-.872-3.2027 0-1.2102.291-2.2756.872-3.201s1.399-1.6431 2.451-2.1533c1.053-.5102 2.268-.766 3.644-.766s2.591.2558 3.643.766c1.053.5102 1.87 1.2296 2.451 2.1533.581.9254.873 1.9924.873 3.201 0 1.2087-.292 2.2773-.873 3.2027-.581.9253-1.398 1.6431-2.451 2.1533-1.052.5101-2.267.766-3.643.766s-2.591-.2559-3.644-.766zm.402-3.6436c.3.4844.728.8578 1.283 1.1185s1.209.3911 1.959.3911 1.403-.1304 1.958-.3911.982-.6341 1.283-1.1185c.299-.4844.449-1.0558.449-1.7124s-.15-1.2279-.449-1.7123-.728-.8578-1.283-1.1185-1.208-.3911-1.958-.3911-1.404.1304-1.959.3911-.982.6341-1.283 1.1185c-.299.4844-.449 1.0557-.449 1.7123s.15 1.228.449 1.7124z"/><path d="m175.393 33.4102c-.594.779-1.379 1.3841-2.353 1.8138-.975.4297-2.078.6453-3.307.6453-1.35 0-2.541-.2559-3.573-.766-1.032-.5118-1.831-1.2296-2.396-2.1533-.565-.9254-.848-1.9924-.848-3.2027 0-1.2102.283-2.2756.848-3.201s1.364-1.6431 2.396-2.1533 2.223-.766 3.573-.766c1.229 0 2.332.214 3.307.6437.974.4297 1.759 1.0348 2.353 1.8137.594.779.948 1.6818 1.064 2.7086h-3.261c-.156-.7403-.534-1.3197-1.133-1.7365-.6-.4168-1.379-.6244-2.338-.6244-.724 0-1.351.1335-1.88.4023s-.935.6518-1.22 1.1491-.426 1.0847-.426 1.7622c0 .6776.141 1.265.426 1.7639.283.4973.691.8803 1.22 1.1491.529.2687 1.156.4023 1.88.4023.969 0 1.752-.2012 2.349-.6067.597-.404.971-.9898 1.122-1.7542h3.261c-.115 1.0267-.469 1.9296-1.064 2.7085z"/><path d="m178.027 23.8828h3.229v7.3805l5.777-7.3805h3.433l-3.996 4.9327 4.152 6.7947h-3.682l-2.517-4.268-3.463 4.268h-2.933z"/><path d="m202.82 33.4102c-.594.779-1.38 1.3841-2.353 1.8138-.976.4297-2.078.6453-3.307.6453-1.351 0-2.542-.2559-3.573-.766-1.032-.5118-1.832-1.2296-2.397-2.1533-.564-.9254-.848-1.9924-.848-3.2027 0-1.2102.284-2.2756.848-3.201.565-.9254 1.365-1.6431 2.397-2.1533 1.031-.5102 2.222-.766 3.573-.766 1.229 0 2.331.214 3.307.6437.973.4297 1.759 1.0348 2.353 1.8137.593.779.948 1.6818 1.063 2.7086h-3.26c-.156-.7403-.534-1.3197-1.133-1.7365-.6-.4168-1.379-.6244-2.339-.6244-.724 0-1.35.1335-1.879.4023-.53.2688-.935.6518-1.22 1.1491s-.427 1.0847-.427 1.7622c0 .6776.142 1.265.427 1.7639.283.4973.69.8803 1.22 1.1491.529.2687 1.155.4023 1.879.4023.969 0 1.753-.2012 2.35-.6067.597-.404.971-.9898 1.122-1.7542h3.26c-.114 1.0267-.468 1.9296-1.063 2.7085z"/><path d="m208.699 23.8828v4.3404h5.996v-4.3404h3.244v11.7274h-3.244v-4.5271h-5.996v4.5271h-3.245v-11.7274z"/><path d="m233.975 35.6102h-3.455l-.977-2.2595h-6.059l-.977 2.2595h-3.464l5.34-11.7274h4.262l5.332 11.7274zm-5.559-4.8635-1.908-4.3935-1.899 4.3935z"/><path d="m238.322 23.8828v11.7274h-3.245v-11.7274z"/><path d="m240.503 23.8828h4.199l5.676 8.0532v-8.0532h3.143v11.7274h-4.082l-5.785-8.2319v8.2319h-3.151z"/><path d="m136.973 51.2482h-3.455l-.977-2.2595h-6.06l-.976 2.2595h-3.464l5.34-11.7273h4.262l5.331 11.7273zm-5.559-4.8634-1.909-4.3936-1.899 4.3936z"/><path d="m149.341 49.0467c-.594.7805-1.38 1.384-2.353 1.8137-.976.4297-2.078.6454-3.307.6454-1.351 0-2.542-.2559-3.573-.7661-1.032-.5101-1.832-1.2279-2.397-2.1533-.564-.9254-.848-1.9924-.848-3.201s.284-2.2772.848-3.201c.565-.9254 1.365-1.6432 2.397-2.1533 1.031-.5118 2.222-.7661 3.573-.7661 1.229 0 2.331.2141 3.307.6454.973.4297 1.759 1.0348 2.353 1.8137.593.7805.948 1.6818 1.063 2.7086h-3.26c-.156-.7403-.534-1.3181-1.133-1.7349-.6-.4169-1.379-.6261-2.339-.6261-.724 0-1.35.1352-1.879.4024-.53.2687-.935.6518-1.22 1.1491-.285.4972-.427 1.0847-.427 1.7638 0 .6792.142 1.265.427 1.7639.283.4973.69.8803 1.22 1.149.529.2688 1.155.404 1.879.404.969 0 1.753-.2028 2.35-.6067.597-.404.971-.9898 1.122-1.7558h3.26c-.114 1.0267-.468 1.9296-1.063 2.7085z"/><path d="m165.228 51.2482h-3.455l-.977-2.2595h-6.059l-.977 2.2595h-3.463l5.339-11.7273h4.262l5.332 11.7273zm-5.558-4.8634-1.909-4.3936-1.899 4.3936z"/><path d="m175.834 40.2467c1.049.4844 1.865 1.17 2.443 2.0567.579.8868.867 1.9136.867 3.0804 0 1.1667-.289 2.1935-.867 3.0803-.58.8867-1.394 1.5707-2.443 2.0567-1.051.4844-2.266.7274-3.647.7274h-5.856v-11.7273h5.856c1.381 0 2.598.2414 3.647.7274zm-3.406 8.116c.699 0 1.307-.1207 1.825-.3637.519-.2414.918-.5875 1.196-1.0365.279-.449.419-.9736.419-1.5787 0-.6052-.14-1.1314-.419-1.5788-.278-.449-.677-.7934-1.196-1.0364-.518-.2415-1.126-.3638-1.825-.3638h-2.869v5.9579z"/><path d="m190.693 46.5634h-6.568l-.328 2.0568h7.427v2.6281h-10.906l.891-5.8645-.891-5.8645h10.829v2.6265h-7.35l.328 2.0567h6.568z"/><path d="m210.222 51.2482h-3.08v-8.8965l-3.854 8.8965h-3.277l-3.846-8.8578v8.8578h-3.089v-11.7273h5.012l3.573 8.5762 3.556-8.5762h5.004v11.7273z"/><path d="m216.916 46.5329-5.496-7.0136h3.589l3.518 4.4885 3.518-4.4885h3.589l-5.474 6.9749v4.7541h-3.244v-4.7138z"/></g></svg>