<svg clip-rule="evenodd" fill-rule="evenodd" height="1449" stroke-linejoin="round" stroke-miterlimit="2" viewBox="0 0 2000 1449" width="2000" xmlns="http://www.w3.org/2000/svg"><g fill-rule="nonzero"><path d="m0 0h347c3.742 7.484 5.894 12.538 7.099 20.416.342 2.046.685 4.093 1.028 6.139.174 1.069.348 2.139.527 3.241.947 5.731 1.996 11.443 3.03 17.159 1.305 7.244 2.579 14.489 3.733 21.758 2.672 27.529 2.672 27.529 16.368 49.759 5.229 2.752 10.494 4.122 16.309 5.033 3.95.673 7.344 2.106 10.996 3.694 2.279.84 4.561 1.67 6.848 2.489.615.222 1.23.444 1.864.673 74.187 26.794 154.588 37.772 233.198 29.639 1.201-.124 2.401-.247 3.638-.375 55.191-5.931 108.496-20.56 159.362-42.625 2.333-1.002 4.666-2.001 7-3 .108-.984.217-1.967.328-2.981 1.027-9.326 2.057-18.651 3.089-27.977.53-4.793 1.059-9.586 1.587-14.379.51-4.636 1.023-9.272 1.537-13.908.194-1.758.388-3.516.581-5.274 3.662-33.352 3.662-33.352 8.878-42.481.322-.586.643-1.173.974-1.777 2.228-3.302 3.932-4.977 7.889-5.866 3.75-.243 7.468-.257 11.222-.199 1.457-.003 2.914-.009 4.371-.018 4-.016 7.999.012 12 .048 4.314.03 8.629.02 12.944.014 7.475-.003 14.949.019 22.423.058 10.807.057 21.614.075 32.421.084 17.533.015 35.066.062 52.599.128 17.037.064 34.067.114 51.097.143 1.05.002 2.1.004 3.18.006 5.27.009 10.53.018 15.8.027 43.69.072 87.39.196 131.08.352 1.28 2.497 2.55 4.998 3.81 7.5.54 1.044.54 1.044 1.08 2.109 4 7.926 7.8 15.452 5.61 24.461-2.1 6.294-5.43 11.112-11.38 14.305-4.1 1.586-7.62 1.82-12.01 1.778-.98-.009-.98-.009-1.98-.018-7.03-.092-14.04-.528-21.06-.959-3.49-.187-6.98-.358-10.48-.528-3.61-.179-7.21-.38-10.82-.623-3.53-.238-7.07-.42-10.61-.564-1.98-.095-3.95-.248-5.92-.402-5.35-.181-8.79-.15-13.15 3.135-3.05 3.372-5.67 6.517-6.5 11.075.21 2.26.73 4.148 1.46 6.297.45 1.655.9 3.311 1.35 4.966.26.878.52 1.757.79 2.662 1.47 5.084 2.61 10.247 3.83 15.396.53 2.208 1.06 4.416 1.6 6.623.4 1.659.4 1.659.81 3.351.55 2.262 1.1 4.524 1.66 6.785.82 3.327 1.63 6.659 2.43 9.991.25.994.5 1.988.75 3.012 2.11 8.874 3.83 18.73-1 26.964-2.95 3.905-6.72 6.847-11.27 8.684-9.61 1.082-18.59-.69-27.83-3.147-2.19-.58-4.39-1.135-6.59-1.683-6.24-1.56-12.47-3.153-18.69-4.787-3.84-1.004-7.68-1.972-11.53-2.917-1.45-.365-2.9-.744-4.35-1.137-7.8-2.386-7.8-2.386-15.59-1.274-2.04 1.516-3.68 3.097-5.42 4.945-.72.496-1.44.992-2.18 1.503-2.2 1.461-2.2 1.461-2.2 4.815.04 1.391.1 2.781.17 4.17.04 1.139.04 1.139.08 2.3.06 1.646.12 3.292.2 4.938.12 2.607.21 5.213.3 7.822.25 7.286.55 14.57.86 21.854.18 4.315.34 8.631.49 12.947.09 2.413.21 4.824.33 7.236.36 8.839.46 17.349-5.76 24.338-4.509 4.273-9.182 6.076-15.352 6.515-12.952-.505-26.713-9.396-38.25-14.813-1.781-.834-3.561-1.667-5.342-2.5-.874-.409-1.747-.818-2.647-1.239-1.741-.811-3.487-1.614-5.235-2.411-4.027-1.837-7.966-3.719-11.829-5.882-.688-.361-1.375-.723-2.084-1.095-1.823-.96-3.619-1.972-5.411-2.989-4.689-1.337-9.082.683-13.249 2.767-3.867 2.336-5.804 4.499-7.107 8.993-.768 3.608-1.236 7.223-1.671 10.883-.236 1.586-.478 3.171-.725 4.756-.635 4.154-1.194 8.315-1.737 12.483-.671 5.05-1.425 10.087-2.171 15.127-.58 3.923-1.146 7.846-1.67 11.778-2.54 18.724-2.54 18.724-10.771 25.294-5.135 3.551-10.931 4.319-17.039 3.41-5.584-2.005-10.037-4.898-14.812-8.375-.731-.524-1.462-1.048-2.215-1.587-2.329-1.673-4.651-3.355-6.973-5.038-1.539-1.11-3.078-2.219-4.617-3.328-3.03-2.184-6.057-4.372-9.082-6.563-6.741-4.879-6.741-4.879-13.525-9.696-2.581-1.817-5.091-3.668-7.546-5.655-4.312-3.602-4.312-3.602-9.597-4.774-2.298.511-4.419 1.224-6.633 2.016-1.348.244-2.703.456-4.062.625-.97.124-1.939.248-2.938.375-.236.838-.236.838-.478 1.694-2.198 7.573-4.859 14.954-7.6 22.345-.242.654-.485 1.308-.734 1.981-1.281 3.454-2.567 6.906-3.856 10.357-1.057 2.832-2.104 5.668-3.142 8.507-1.265 3.46-2.548 6.914-3.842 10.363-.486 1.303-.966 2.608-1.44 3.916-2.952 8.13-6.068 16.469-13.931 21.004-5.535 2.49-11.439 2.793-17.266 1.212-8.686-3.358-14.086-10.57-19.996-17.445-2.215-2.498-4.584-4.814-6.965-7.153-2.456-2.5-4.713-5.158-7-7.812-1.688-1.899-3.438-3.689-5.25-5.469-2.413-2.37-4.673-4.807-6.875-7.375-.88-.984-.88-.984-1.777-1.988-1.848-2.137-1.848-2.137-3.727-4.68-3.705-4.651-3.705-4.651-9.087-6.75-4.748-.111-9.36.507-14.034 1.293-.274.729-.547 1.457-.829 2.208-1.12 2.67-2.391 5.002-3.901 7.468-.823 1.348-.823 1.348-1.662 2.723-.593.962-1.185 1.923-1.795 2.914-.615 1.003-1.23 2.007-1.864 3.041-6.341 10.33-12.742 20.623-19.207 30.875-1.206 1.918-2.402 3.843-3.589 5.772-.604.972-1.207 1.943-1.829 2.944-.536.872-1.073 1.743-1.626 2.641-3.248 4.617-7.299 8.614-12.698 10.414-7.733.645-14.666.877-21-4-5.331-5.992-9.299-13.172-13.437-20-1.41-2.311-2.823-4.62-4.235-6.93-.357-.584-.714-1.169-1.082-1.772-3.769-6.167-7.597-12.297-11.433-18.423-.611-.976-1.222-1.952-1.852-2.957-1.137-1.816-2.28-3.628-3.429-5.436-.981-1.589-1.92-3.204-2.804-4.848-2.108-3.832-3.197-5.369-7.224-7.38-4.913-1.11-9.94-1.847-14.388.917-3.983 3.438-7.18 7.546-10.403 11.684-2.695 3.374-5.671 6.461-8.65 9.583-1.158 1.238-2.314 2.477-3.469 3.718-2.515 2.693-5.037 5.38-7.563 8.063-.662.704-1.325 1.409-2.008 2.135-1.261 1.34-2.523 2.679-3.786 4.017-3.048 3.239-6.002 6.521-8.878 9.914-4.413 5.065-9.25 8.013-15.941 9.156-5.982.285-10.532-1.014-15.418-4.441-4.893-4.614-7.481-9.635-9.781-15.871-.331-.86-.661-1.72-1.001-2.606-.712-1.86-1.418-3.722-2.117-5.587-1.128-3.009-2.275-6.01-3.425-9.011-2.009-5.252-3.995-10.512-5.97-15.777-1.228-3.268-2.463-6.533-3.698-9.798-.785-2.087-1.568-4.173-2.352-6.26-.368-.972-.737-1.944-1.117-2.945-.502-1.344-.502-1.344-1.014-2.716-.443-1.178-.443-1.178-.895-2.381-.63-2.048-.63-2.048-.63-5.048-1.63-.208-3.261-.416-4.891-.624-2.109-.376-2.109-.376-4.149-1.077-3.411-1.114-5.841-1.735-9.259-.404-2.433 1.496-4.684 3.117-6.951 4.855-.832.603-1.664 1.207-2.521 1.828-2.435 1.777-4.836 3.59-7.229 5.422-.604.461-1.208.922-1.83 1.396-2.585 1.982-5.152 3.983-7.713 5.995-5.054 3.887-10.373 7.409-15.66 10.968-4.449 3.001-8.791 6.087-13.04 9.365-5.848 4.247-11.733 5.267-18.757 4.276-6.383-2.069-11.193-5.84-14.547-11.705-1.584-3.592-2.269-6.772-2.895-10.646-.118-.709-.235-1.419-.356-2.15-.383-2.326-.752-4.655-1.12-6.983-.264-1.624-.529-3.247-.794-4.87-.695-4.259-1.377-8.52-2.057-12.781-.558-3.487-1.125-6.972-1.693-10.458-.675-4.151-1.348-8.302-2.018-12.454-.129-.794-.257-1.588-.389-2.406-.361-2.237-.72-4.476-1.077-6.714-.204-1.274-.408-2.549-.619-3.862-.435-2.971-.435-2.971-.435-4.971-.846-.247-1.691-.495-2.562-.75-2.776-1.009-4.54-1.919-6.938-3.5-3.286-2.115-3.286-2.115-6.231-1.08-3.741 1.522-7.411 3.148-11.07 4.857-.746.345-1.492.691-2.26 1.046-1.594.738-3.188 1.477-4.781 2.217-4.157 1.931-8.319 3.85-12.482 5.769-.827.381-1.653.761-2.505 1.154-7.236 3.329-14.503 6.584-21.796 9.787-1.023.45-2.045.9-3.099 1.363-7.992 3.494-14.713 5.779-23.401 3.137-5.437-2.284-9.307-6.929-11.951-12.107-1.212-3.795-1.203-7.375-1.151-11.315.006-.86.011-1.719.016-2.605.096-7.863.548-15.702 1-23.551.208-3.9.412-7.799.615-11.699.149-2.673.31-5.34.496-8.011.27-3.907.456-7.816.639-11.728.095-1.186.191-2.373.289-3.595.247-6.516.247-6.516-3.024-11.936-3.107-2.522-6.224-4.663-9.804-6.453-2.098.375-4.178.845-6.247 1.355-.641.156-1.282.312-1.943.473-1.396.34-2.792.683-4.187 1.029-2.22.55-4.442 1.089-6.666 1.626-6.323 1.527-12.643 3.067-18.958 4.626-3.863.953-7.731 1.89-11.6 2.817-1.464.354-2.926.714-4.387 1.08-23.329 5.845-23.329 5.845-32.012 1.432-6.107-4.962-10.15-9.417-11-17.438.454-7.713 2.384-15.002 4.313-22.455.977-3.802 1.912-7.613 2.853-11.424 1.193-4.826 2.398-9.647 3.657-14.456 1.022-3.911 1.996-7.831 2.94-11.761.366-1.487.749-2.971 1.15-4.449 2.474-8.295 2.474-8.295.501-16.355-2.013-2.262-4.09-4.169-6.414-6.1-.33-.66-.66-1.32-1-2-.771.025-1.541.05-2.335.076-7.325.238-14.649.473-21.973.706-3.764.12-7.528.241-11.292.364-3.644.118-7.288.235-10.932.35-1.378.044-2.757.088-4.135.134-31.347 1.031-31.347 1.031-37.298-4.435-6.69-7.251-7.035-11.664-7.035-22.195 3.3-7.59 6.6-15.18 10-23zm241.895 53.391c-7.829 10.615-10.927 21.527-9.895 34.609 2.619 12.272 8.956 21.58 19 29 10.457 6.478 21.007 8.504 33 5.75 11.127-3.04 20.199-8.804 26.875-18.5 5.746-10.327 7.906-21.797 5.465-33.383-3.104-10.506-9.23-19.651-18.34-25.867-19.056-10.19-41.248-8.48-56.105 8.391zm637.73 3.422c-3.569 4.722-5.874 9.549-7.625 15.187-.191.611-.382 1.222-.578 1.852-2.455 12.502.116 24.397 7.141 34.898 6.65 8.535 15.708 15.12 26.437 17.25 12.974 1.445 24.085-.548 34.871-8.246 8.847-7.289 15.065-16.641 16.906-28.063 1.037-12.532-2.116-24.084-10.129-33.886-7.597-8.317-16.9-14.309-28.371-15.043-15.793-.407-28.103 3.63-38.652 16.051z" transform="translate(406 1087)"/><path d="m0 0c7.229 5.508 11.898 13.214 16.563 20.875.953 1.545.953 1.545 1.925 3.121 1.699 2.757 3.391 5.518 5.081 8.281 1.798 2.935 3.605 5.864 5.411 8.793 3.332 5.405 6.657 10.813 9.974 16.227 1.52 2.459 3.072 4.894 4.632 7.328 2.039 3.375 2.039 3.375 2.039 5.375 10.014 1.887 10.014 1.887 19.441-.469 1.728-2.085 3.131-4.233 4.559-6.531 1.133-1.2 2.3-2.368 3.5-3.5 2.454-2.411 4.754-4.894 7-7.5s4.546-5.089 7-7.5c2.434-2.391 4.714-4.85 6.938-7.437 3.037-3.528 6.264-6.793 9.589-10.047 1.965-2.008 3.745-4.103 5.536-6.266 4.034-4.7 9.059-8.301 15.417-8.953 6.301-.134 11.704.469 16.706 4.593 6.119 6.449 8.705 14.228 11.685 22.415.572 1.531 1.145 3.062 1.719 4.592 1.497 4.001 2.972 8.011 4.443 12.022 1.209 3.284 2.434 6.563 3.66 9.842 1.46 3.908 2.914 7.819 4.366 11.731.416 1.12.416 1.12.84 2.263.779 2.102 1.553 4.206 2.325 6.311.441 1.197.882 2.394 1.336 3.628.94 2.806.94 2.806.94 4.806 1.541.314 3.083.626 4.625.938.859.174 1.717.348 2.602.527.915.176 1.83.353 2.773.535 1.458.408 1.458.408 2.945.824 4.143.239 6.204-1.487 9.305-3.949 1.234-.93 2.468-1.86 3.703-2.789.653-.501 1.306-1.001 1.979-1.517 3.638-2.76 7.359-5.406 11.068-8.069 1.539-1.112 3.078-2.224 4.617-3.336 6.111-4.412 12.227-8.815 18.383-13.164.69-.488 1.379-.977 2.09-1.48 2.173-1.535 4.353-3.06 6.535-4.582.676-.478 1.351-.956 2.047-1.448.637-.442 1.274-.883 1.93-1.338.56-.392 1.12-.784 1.697-1.187 5.026-2.851 11.289-2.595 16.818-1.574 5.946 1.804 9.61 5.421 12.883 10.609 2.852 8.108 3.807 16.797 4.926 25.278.591 4.393 1.252 8.776 1.898 13.161.559 3.828 1.095 7.656 1.585 11.494.48 3.751 1.022 7.489 1.606 11.226.209 1.412.396 2.827.559 4.245.739 6.324 1.45 10.974 6.516 15.133 4.983 2.927 8.985 4.838 14.833 3.699 2.578-.961 4.971-1.87 7.369-3.194.656-.353 1.311-.706 1.986-1.07.671-.362 1.343-.724 2.035-1.097 1.415-.711 2.834-1.416 4.256-2.116 2.97-1.466 5.925-2.958 8.872-4.468 6.79-3.448 13.737-6.555 20.681-9.678 2.16-.974 4.314-1.96 6.467-2.949 1.321-.605 2.641-1.209 3.962-1.812 1.151-.528 2.303-1.056 3.489-1.6 6.908-2.923 13.658-3.464 20.71-.627 5.94 2.96 9.423 7.412 11.67 13.657 1.211 5.679.683 11.567.433 17.337-.105 2.486-.183 4.971-.254 7.458-.243 8.038-.585 16.061-1.114 24.085-.226 3.531-.409 7.064-.588 10.598-.097 1.688-.215 3.376-.356 5.061-.542 6.556-.947 12.4 2.108 18.437 2.824 3.095 5.252 4.937 9.351 5.742 7.985-.009 15.742-2.523 23.375-4.625 2.083-.534 4.168-1.062 6.254-1.586 4.122-1.042 8.236-2.11 12.346-3.203 5.843-1.547 11.701-3.023 17.576-4.445.841-.209 1.682-.417 2.549-.632 8.421-2.02 17.637-3.864 25.525.679 4.625 3.508 7.487 7.322 9.375 12.812 1.109 8.826-.878 17.232-3.024 25.74-.559 2.217-1.1 4.437-1.637 6.66-1.334 5.506-2.697 11.004-4.059 16.503-1.158 4.676-2.304 9.354-3.435 14.036-.533 2.186-1.082 4.367-1.632 6.548-.325 1.335-.648 2.671-.971 4.007-.289 1.163-.578 2.326-.875 3.524-.406 3.303-.162 4.267 1.633 6.982.405.773.809 1.547 1.226 2.344 2.443 3.85 4.227 6.291 8.787 7.367 3.766.139 7.46-.011 11.214-.27 1.393-.061 2.787-.119 4.181-.173 3.664-.152 7.322-.358 10.983-.577 3.685-.212 7.371-.375 11.058-.541 5.439-.246 10.875-.525 16.311-.824 24.43-1.206 24.43-1.206 32.119 5.252 4.802 5.138 6.704 11.069 6.5 18.137-1.205 7.266-5.222 13.992-8.484 20.505-.542 1.082-1.083 2.164-1.642 3.279-.413.825-.827 1.651-1.253 2.501-26.669.281-53.337.492-80.007.622-12.384.062-24.767.146-37.15.283-10.796.12-21.591.197-32.387.224-5.715.016-11.428.052-17.143.14-5.384.082-10.765.106-16.15.088-1.971.004-3.942.027-5.912.073-15.638.349-15.638.349-20.763-4.014-2.854-2.881-5.144-6.112-7.488-9.416-1.618-1.724-3.263-3.424-4.949-5.082-.786-.787-1.572-1.574-2.381-2.385-.778-.774-1.556-1.548-2.357-2.345-.79-.794-1.58-1.587-2.393-2.405-4.811-4.803-9.762-9.358-14.92-13.783-1.157-1.022-2.312-2.045-3.465-3.07-8.528-7.526-17.347-14.547-26.452-21.361-1.982-1.493-3.947-3.005-5.907-4.526-24.852-19.164-52.193-34.952-80.176-49.043-1.021-.521-2.043-1.041-3.095-1.578-38.476-19.535-79.727-32.997-121.78-42.422-.963-.22-1.926-.44-2.918-.667-.891-.192-1.782-.385-2.699-.583-.777-.17-1.554-.34-2.355-.516-3.362-.366-5.317.124-8.009 2.19-.628.601-1.255 1.202-1.902 1.822-.703.668-1.406 1.336-2.131 2.024-.738.715-1.476 1.43-2.236 2.168-.76.726-1.521 1.452-2.304 2.2-4.895 4.69-9.701 9.459-14.462 14.284-1.915 1.886-3.875 3.649-5.921 5.391-3.759 3.209-7.215 6.675-10.688 10.187-3.39 3.428-6.752 6.823-10.437 9.938-3.9 3.296-7.423 6.926-11 10.562-5.054 5.104-10.064 9.997-16.063 14-.593.406-1.186.812-1.797 1.23-8.436 4.993-20.143 5.917-29.547 3.622-14.873-4.769-24.223-15.394-34.23-26.954-3.154-3.637-6.484-7.035-9.926-10.398-3.43-3.388-6.823-6.752-9.938-10.437-3.871-4.571-8.177-8.703-12.431-12.912-3.153-3.133-6.228-6.282-9.131-9.651-.523-.596-1.047-1.191-1.586-1.805-1.414-1.695-1.414-1.695-2.703-3.578-1.495-1.95-2.535-2.961-4.711-4.117-9.874.264-19.992 3.478-29.563 5.875-1.155.288-1.155.288-2.333.582-54.367 13.667-106.868 36.375-154.104 66.543-.616.392-1.231.785-1.866 1.189-3.428 2.2-6.79 4.485-10.134 6.811-.614.424-1.229.849-1.862 1.286-14.564 10.072-28.734 20.605-42.154 32.167-2.825 2.411-5.704 4.733-8.609 7.047-4.937 4.01-9.374 8.401-13.816 12.938-2.164 2.166-4.359 4.198-6.684 6.187-6.724 5.761-12.804 12.126-18.563 18.844-.743.867-1.504 1.723-2.312 2.531-2.655.098-5.285.13-7.941.12-1.263.002-1.263.002-2.552.003-2.843.002-5.687-.004-8.531-.009-2.029-.001-4.059-.001-6.089 0-5.528 0-11.057-.006-16.586-.013-5.771-.006-11.542-.006-17.313-.008-10.936-.003-21.872-.011-32.809-.021-12.447-.011-24.894-.017-37.341-.022-25.613-.01-51.225-.028-76.838-.05-1.701-3.589-3.354-7.198-5-10.812-.715-1.508-.715-1.508-1.445-3.045-3.331-7.399-5.326-14.5-2.817-22.493 2.104-5.006 5.667-8.798 10.262-11.65 10.816-4.236 23.718-1.867 35.086-1.211 3.561.18 7.122.346 10.683.511 3.686.174 7.37.367 11.053.6 3.607.227 7.213.402 10.824.544 2.019.093 4.034.238 6.049.384 7.015.302 7.015.302 12.932-3.024 2.523-3.106 4.585-6.229 6.373-9.804-.369-2.124-.834-4.231-1.339-6.326-.155-.649-.309-1.299-.468-1.967-.337-1.413-.677-2.825-1.02-4.237-.544-2.24-1.08-4.482-1.613-6.724-1.138-4.772-2.286-9.54-3.435-14.308-1.325-5.503-2.645-11.008-3.956-16.514-.526-2.197-1.058-4.392-1.591-6.588-5.192-21.611-5.192-21.611-.578-30.336 4.2-4.747 8.268-8.695 14.794-9.228 8.774-.171 16.569 1.123 25.035 3.375 2.192.58 4.388 1.135 6.588 1.683 6.241 1.56 12.473 3.153 18.696 4.787 3.834 1.004 7.676 1.972 11.525 2.917 1.454.365 2.904.744 4.351 1.137 7.801 2.386 7.801 2.386 15.587 1.274 2.041-1.516 3.685-3.097 5.424-4.945.723-.45 1.445-.9 2.189-1.363 2.062-1.52 2.062-1.52 2.216-4.154-.067-1.508-.067-1.508-.134-3.046-.041-1.143-.081-2.286-.123-3.463-.064-1.241-.129-2.481-.195-3.759-.076-1.965-.153-3.929-.229-5.894-.113-2.765-.245-5.528-.376-8.292-.16-3.421-.301-6.843-.442-10.265-.041-.998-.041-.998-.083-2.016-.082-1.99-.163-3.981-.245-5.971-.053-1.298-.106-2.595-.161-3.933-.586-14.577-.586-14.577-.683-21.278-.035-1.948-.035-1.948-.071-3.935.482-5.198 1.841-9.8 5.169-13.873 5.844-4.818 10.822-7.393 18.538-7.114 2.927.396 5.168 1.235 7.88 2.403 1.056.454 2.112.909 3.2 1.377 6.074 2.696 12.123 5.445 18.16 8.223 2.306 1.059 4.615 2.114 6.924 3.167 6.837 3.121 13.661 6.261 20.431 9.526 1.005.478 2.01.956 3.045 1.448 1.814.865 3.62 1.746 5.417 2.644 4.747 2.264 4.747 2.264 9.913 1.943 3.252-1.668 3.252-1.668 6.41-3.5 3.25-1.875 3.25-1.875 5.25-1.875.226-1.489.226-1.489.456-3.009 1.401-9.243 2.821-18.483 4.26-27.72.701-4.501 1.397-9.002 2.076-13.506.621-4.108 1.258-8.213 1.907-12.316.24-1.535.474-3.07.701-4.607 2.833-19.07 2.833-19.07 9.698-24.502 6.128-4.051 11.615-5.189 18.902-4.34 9.479 2.786 17.793 10.454 25.621 16.246 3.772 2.781 7.576 5.516 11.379 8.254 4.68 3.37 9.349 6.752 13.992 10.172.817.599 1.635 1.197 2.477 1.814 1.569 1.15 3.134 2.305 4.695 3.465 1.06.775 1.06.775 2.141 1.565.928.685.928.685 1.874 1.383 2.902 1.754 4.943 2.302 8.258 1.542.846-.29 1.692-.58 2.563-.878 3.366-1.145 5.351-1.563 9-1.563.119-.694.237-1.388.359-2.103.711-3.215 1.746-6.158 2.894-9.244.228-.616.456-1.231.69-1.865.751-2.023 1.507-4.044 2.264-6.065.527-1.414 1.054-2.827 1.581-4.24 1.105-2.959 2.212-5.917 3.322-8.874 1.416-3.778 2.822-7.559 4.226-11.342 1.085-2.919 2.177-5.836 3.271-8.753.521-1.392 1.04-2.786 1.556-4.18.725-1.955 1.459-3.906 2.196-5.857.414-1.109.829-2.217 1.256-3.359 3.101-6.98 7.072-11.602 13.635-15.43 7.303-1.826 13.603-1.215 20.203 2.464 4.657 3.378 8.255 7.728 11.984 12.063 2.852 3.257 5.841 6.387 8.813 9.535 1.279 1.362 2.558 2.724 3.836 4.086 1.967 2.093 3.935 4.186 5.903 6.278 1.318 1.4 2.634 2.802 3.949 4.204 1.281 1.36 2.567 2.715 3.86 4.063 2.726 2.862 5.323 5.666 7.581 8.916 3.061 4.205 5.12 6.283 10.195 7.703 4.702.419 8.479-.363 12.426-3 5.546-5.955 9.215-13.403 13.067-20.507 3.229-5.835 6.78-11.46 10.308-17.118 1.341-2.172 2.681-4.346 4.02-6.52.62-1.006 1.241-2.012 1.881-3.049 1.507-2.453 2.999-4.915 4.486-7.38 7.795-12.768 17.159-19.005 32.613-14.426zm-45.188 141.75c-8.799 10.651-10.328 22.943-9.187 36.25 1.559 7.483 5.007 13.303 10 19 .478.594.956 1.189 1.449 1.801 6.667 7.573 17.235 12.543 27.207 13.437 13.067.341 23.605-3.482 33.344-12.238 8.232-8.372 12.449-19.004 13.25-30.625-.225-11.807-4.965-21.877-12.75-30.562-9.287-8.856-20.982-12.341-33.543-12.086-11.89.821-21.646 6.479-29.77 15.023z" transform="translate(1012.38 1)"/><path d="m0 0c105.934 0 105.934 0 122.688 4.188.867.213 1.734.427 2.628.647 12.911 3.347 24.408 8.503 34.684 17.165 1.073.888 1.073.888 2.168 1.793 11.337 10.285 18.139 26.631 18.973 41.765.678 20.418-.396 38.613-14.516 54.63-1.533 1.612-3.075 3.216-4.625 4.812-.603.677-1.207 1.354-1.828 2.051-6.048 6.561-13.545 11.399-21.172 15.949h-2c1.432 2.337 2.871 4.669 4.313 7 .384.629.769 1.258 1.166 1.906 3.459 5.578 7.161 10.973 10.891 16.371 5.795 8.393 11.491 16.854 17.191 25.313 1.87 2.775 3.741 5.55 5.613 8.324 5.805 8.61 11.595 17.229 17.346 25.875 4.302 6.469 8.669 12.884 13.156 19.227 3.324 4.768 3.324 4.768 3.324 6.984-8.699.654-17.39 1.149-26.109 1.451-4.052.145-8.086.341-12.129.661-25.891 2-25.891 2-33.811-4.686-5.617-6.389-9.111-14.245-12.434-21.996-1.942-4.392-4.321-8.373-6.876-12.426-.749-1.257-1.492-2.516-2.232-3.778-9.895-16.844-9.895-16.844-20.211-33.43-2.283-3.569-4.373-7.005-5.995-10.925-1.684-4.177-1.684-4.177-6.203-8.871-7.26-.33-14.52-.66-22-1v95h-62zm62 49v62c27.771.913 27.771.913 50.75-11.625 5.816-7.728 7.307-16.951 6.25-26.375-.65-3.213-1.604-6.037-3-9-.441-.94-.441-.94-.891-1.898-3.538-6.047-9.761-8.695-16.109-11.102-12.019-3.012-12.019-3.012-37-2z" transform="translate(622 434)"/><path d="m0 0h61v270h-47c-1.815-3.754-3.63-7.507-5.5-11.375-.574-1.183-1.149-2.365-1.74-3.583-.447-.929-.894-1.858-1.354-2.815-.691-1.43-.691-1.43-1.396-2.889-1.01-2.338-1.01-2.338-1.01-4.338h-3c-.262.737-.523 1.475-.793 2.234-4.663 10.685-16.895 18.842-27.395 23.204-18.578 5.903-39.125 4.659-56.5-4.125-5.816-3.365-10.568-7.585-15.312-12.313-.7-.677-1.4-1.354-2.121-2.051-21.407-22.158-23.387-57.084-23.09-86.066.665-29.205 6.843-57.02 28.211-77.883.656-.677 1.312-1.354 1.988-2.051 12.78-12.342 29.996-15.468 47.107-15.371 17.942.495 31.224 6.639 43.905 19.422 1.059 1.21 2.109 2.428 3.151 3.653.535.627 1.07 1.255 1.622 1.902.607.715.607.715 1.227 1.445-.143-1.137-.286-2.274-.433-3.446-2.071-18.248-1.801-36.497-1.704-54.832.024-5.154.033-10.308.045-15.462.019-7.754.057-15.507.092-23.26zm-53 130c-12.556 20.335-13.06 45.02-8.406 67.922 2.554 9.79 7.91 18.435 16.406 24.078 7.746 4.123 16.918 4.164 25.324 2.238 8.758-2.725 13.676-6.057 18.172-14.121 5.206-10.788 6.156-21.914 6.025-33.696-.021-2.288 0-4.574.026-6.862.028-14.699-1.606-31.363-12.324-42.387-7.16-6.033-16.338-7.821-25.524-7.52-7.566.975-14.885 4.333-19.699 10.348z" transform="translate(995 716)"/><path d="m0 0h61c.049 8.211.098 16.423.148 24.883.04 5.887.081 11.775.124 17.663.056 7.612.108 15.225.15 22.837.037 6.679.083 13.357.136 20.036.019 2.539.034 5.079.045 7.618-.939 26.669-.939 26.669 8.776 50.713 6.427 5.884 13.975 6.82 22.305 6.598 8.239-.864 15.945-3.863 21.316-10.348 8.61-12.637 10.117-29.796 10.205-44.639.01-1.035.02-2.07.03-3.136.032-3.398.057-6.796.081-10.194.021-2.365.042-4.73.063-7.095.055-6.208.105-12.415.153-18.623.059-7.457.126-14.915.191-22.372.097-11.314.186-22.627.277-33.941h61v196h-46c-4.535-11.337-4.535-11.337-6.25-17-.335-1.093-.67-2.186-1.016-3.312-.734-2.688-.734-2.688-.734-4.688h-3c-.267.581-.534 1.163-.809 1.762-6.999 13.149-20.801 20.005-34.418 24.242-21.486 5.518-45.851 3.911-65.214-7.387-14.577-9.213-22.374-21.712-26.309-38.429-3.06-16.394-2.386-33.151-2.351-49.758.006-3.575.006-7.151.008-10.726.003-6.746.011-13.492.021-20.239.013-9.133.019-18.266.024-27.4.01-14.355.03-28.71.048-43.065z" transform="translate(409 790)"/><path d="m0 0c1.001.005 2.001.01 3.032.015 19.153.3 37.222 5.99 51.105 19.645 13.931 16.32 15.786 36.732 15.727 57.272-.001 1.341-.001 2.683 0 4.024 0 3.611-.006 7.222-.013 10.833-.006 3.785-.006 7.57-.008 11.355-.003 7.153-.011 14.307-.021 21.461-.013 9.676-.019 19.353-.024 29.029-.01 15.226-.03 30.452-.048 45.679h-61c-.037-8.657-.075-17.313-.113-26.231-.034-6.201-.07-12.402-.109-18.603-.05-8.02-.095-16.041-.124-24.062-.024-6.353-.057-12.706-.103-19.059-.023-3.359-.041-6.718-.049-10.077-.009-3.765-.037-7.529-.07-11.293.002-1.095.003-2.189.005-3.316-.139-11.585-1.737-23.122-9.847-31.883-5.965-5.503-12.793-5.887-20.531-5.723-8.192.66-15.253 3.298-21.059 9.247-12.58 17.396-11.454 42.102-11.512 62.484-.017 2.281-.035 4.561-.054 6.842-.047 5.931-.077 11.862-.104 17.794-.035 7.155-.092 14.309-.145 21.464-.078 10.805-.129 21.61-.185 32.416h-61v-196h47c3.875 12.437 3.875 12.437 5.085 16.364.32 1.013.64 2.026.97 3.069.487 1.563.487 1.563.984 3.158.713 2.561.713 2.561 2.961 3.409.238-.725.477-1.449.723-2.196 5.105-11.211 18.255-18.478 29.277-22.617 9.592-3.378 19.126-4.559 29.25-4.5z" transform="translate(761.25 786.688)"/><path d="m0 0h61c.037 8.584.075 17.168.113 26.012.034 6.149.07 12.299.109 18.448.05 7.954.095 15.908.124 23.863.024 6.3.057 12.6.103 18.901.023 3.331.041 6.662.049 9.993.009 3.733.037 7.466.07 11.2-.002 1.084-.003 2.169-.005 3.287.139 11.494 1.908 23.191 9.437 32.296 7.271 5.917 16.068 5.682 25 5 7.696-1.755 14.143-4.661 18.551-11.355 10.489-18.87 9.598-41.341 9.765-62.254.021-2.18.042-4.36.063-6.54.055-5.702.105-11.403.153-17.104.06-6.86.126-13.72.191-20.58.097-10.389.186-20.778.277-31.167h61v195h-47c-7-22-7-22-7-25-3.537 1.179-4.068 2.155-6.187 5.125-11.208 14.695-26.8 20.203-44.403 23.336-2.146.287-4.247.45-6.41.539-.896.04-1.792.08-2.715.121-20.988.469-40.605-5.024-56.035-19.687-14.27-15.435-16.594-35.535-16.477-55.691.001-1.362 0-2.724-.001-4.085-.001-3.648.011-7.296.025-10.944.013-3.83.014-7.66.016-11.491.006-7.231.023-14.463.043-21.694.027-9.787.037-19.575.049-29.362.019-15.389.059-30.778.095-46.167z" transform="translate(854 493)"/><path d="m0 0c1.372 1.167 2.728 2.353 4.063 3.563.612.52 1.224 1.041 1.855 1.578 10.684 9.716 15.122 23.484 17.145 37.422.084 2.061.122 4.125.12 6.188.002 1.83.002 1.83.004 3.696-.004 1.339-.007 2.677-.011 4.015v4.259c.001 3.843-.005 7.685-.012 11.528-.006 4.02-.007 8.039-.008 12.059-.003 7.607-.011 15.215-.021 22.822-.012 8.662-.017 17.325-.022 25.988-.011 17.815-.029 35.63-.05 53.445h-60.001c-.056-12.751-.056-12.751-.113-25.758-.034-6.093-.07-12.187-.109-18.28-.049-7.879-.095-15.758-.124-23.637-.023-6.241-.057-12.483-.102-18.724-.024-3.299-.041-6.598-.049-9.898.912-26.059.912-26.059-10.253-48.516-8.188-5.512-16.298-6.535-26.031-4.648-7.6 2.083-13.991 5.586-18.219 12.461-8.689 17.457-8.459 36.907-8.511 55.945-.017 2.351-.035 4.701-.055 7.052-.047 6.125-.077 12.251-.103 18.376-.035 7.383-.092 14.765-.145 22.148-.078 11.159-.129 22.319-.186 33.479h-61v-196.001h46c2.198 5.127 4.057 9.967 5.688 15.251.225.706.45 1.412.682 2.14.927 2.976 1.63 5.473 1.63 8.61 3.269-3.14 3.269-3.14 6.211-6.575 9.925-12.901 26.737-20.107 42.487-22.198 20.329-2.005 42.367-.495 59.24 12.21z" transform="translate(1976.94 799.438)"/><path d="m0 0c1.193-.009 1.193-.009 2.41-.017 1.672-.01 3.344-.016 5.016-.02 2.508-.01 5.015-.041 7.523-.072 22.76-.15 44.239 5.202 61.324 21.097 13.294 14.275 16.395 32.651 16.29 51.407-.001 1.391 0 2.782.001 4.173 0 3.741-.011 7.481-.025 11.222-.013 3.923-.014 7.845-.016 11.768-.007 7.412-.023 14.824-.043 22.236-.022 8.445-.033 16.89-.043 25.336-.021 17.357-.058 34.715-.101 52.073h-43c-5.445-12.375-5.445-12.375-11-25-3.33 3.305-3.33 3.305-6.563 6.703-14.387 15.482-32.64 21.273-53.256 22.222-17.15.5-33.691-2.718-47.181-13.925-.708-.572-1.415-1.145-2.145-1.734-11.591-10.372-15.658-26.096-16.668-41.078-.858-17.31 2.409-32.631 13.485-46.243 17.447-19.161 46.894-22.572 71.328-23.945 11.66-.509 23.332-.757 35-1-.4-2.691-.819-5.376-1.25-8.062-.164-1.129-.164-1.129-.332-2.28-.992-6.032-2.635-11.472-7.637-15.4-1.129-.561-1.129-.561-2.281-1.133-.753-.389-1.506-.778-2.281-1.18-17.52-7.464-40.315.931-56.844 7.368-3.725 1.504-3.725 1.504-7.44 3.032-1.935.655-1.935.655-4.935.655-2.267-5.032-4.527-10.068-6.781-15.106-.767-1.713-1.537-3.425-2.308-5.136-1.109-2.463-2.212-4.928-3.313-7.395-.345-.761-.69-1.523-1.045-2.308-1.632-3.67-2.994-7.04-3.553-11.055 20.462-11.314 44.314-17.068 67.664-17.203zm-17.621 120.063c-5.69 6.165-7.921 11.757-8.043 20.14.574 5.609 1.743 10.079 6 14 6.888 4.908 14.926 5.71 23.156 4.559 9.658-2.134 17.77-6.604 23.844-14.559 5.827-10.806 5.13-22.119 5-34-26.687-.726-26.687-.726-49.957 9.86z" transform="translate(1181.66 786.797)"/><path d="m0 0c18.488 16.752 28.614 40.458 30.371 65.148 1.276 30.936-1.252 62.963-23 87-.665.758-1.33 1.516-2.016 2.297-16.951 18.208-41.458 25.636-65.713 26.68-26.646.615-52.297-5.589-72.271-23.977-.619-.527-1.237-1.054-1.875-1.597-17.414-15.761-25.709-41.682-27.125-64.403-1.363-30.152 2.152-60.92 22.668-84.511 34.947-37.289 100.147-39.054 138.961-6.637zm-90.629 36.148c-11.953 18.005-11.649 46.155-7.75 66.75.535 2.097 1.112 4.183 1.75 6.25.255.909.511 1.818.774 2.754 2.592 7.791 7.67 14.123 14.437 18.762 8.435 4.088 19.483 4.084 28.34 1.414 6.588-3.003 10.945-6.601 14.449-12.93.375-.654.75-1.309 1.137-1.984 5.956-11.78 6.415-25.465 6.301-38.391-.003-.719-.006-1.438-.009-2.18-.086-15.087-.864-30.843-11.398-42.652-6.87-6.713-13.549-8.852-23.031-9.168-10.576.353-17.997 3.222-25 11.375z" transform="translate(339.629 808.852)"/><path d="m0 0c20.012 18.684 28.694 44.293 29.917 71.113.984 29.469-4.161 58.893-24.104 81.7-18.528 19.691-43.265 27.083-69.665 27.964-27.069.471-52.571-7.43-72.336-26.402-21.41-21.527-26.308-50.415-26.246-79.639.158-25.367 6.162-49.502 23.246-68.923.667-.762 1.333-1.524 2.02-2.309 34.341-36.762 99.996-33.423 137.168-3.504zm-90.188 33.813c-12.117 14.968-12.188 39.066-10.484 57.298 1.317 12.373 3.716 27.1 13.695 35.58 9.201 6.343 17.872 7.148 28.789 6.122 7.202-1.521 12.7-5.025 17-11 11.915-19.755 11.934-47.827 6.903-69.758-2.681-9.632-6.266-18.298-15.281-23.657-13.346-6.112-30.023-5.688-40.622 5.415z" transform="translate(1745.19 809.188)"/><path d="m0 0h148v50h-88v56h81v50h-81v98h-60z" transform="translate(0 732)"/><path d="m0 0c1.113 3.338.977 3.735-.292 6.813-.307.757-.615 1.515-.932 2.295-.342.813-.685 1.625-1.038 2.462-.52 1.256-.52 1.256-1.051 2.536-.738 1.769-1.481 3.536-2.228 5.301-1.142 2.707-2.257 5.425-3.371 8.144-.719 1.715-1.44 3.43-2.162 5.144-.499 1.225-.499 1.225-1.008 2.475-.323.751-.646 1.502-.979 2.276-.279.664-.557 1.327-.844 2.011-1.095 1.543-1.095 1.543-2.987 2.344-3.67.347-6.861-1.505-10.171-2.926-6.594-2.7-13.165-4.955-20.062-6.75-.768-.203-1.537-.405-2.328-.614-11.036-2.785-23.598-4.486-34.547-.511-2.672 1.503-2.672 1.503-4 4-.75 3.457-.75 3.457 0 7 3.387 3.983 6.828 6.226 11.5 8.5.667.326 1.333.652 2.02.989 6.6 3.184 13.31 6.126 20.006 9.1 44.86 19.928 44.86 19.928 53.849 40.286 5.963 16.649 4.998 36.717-2.156 52.895-2.269 4.152-5.097 7.691-8.219 11.23-.597.691-1.194 1.382-1.809 2.094-14.961 16.174-38.17 19.981-59.191 20.906-24.987.867-51.876-.564-75-11-1-1-1-1-1.12-2.98.002-.869.004-1.737.006-2.632.001-.981.001-1.961.001-2.972.005-1.067.01-2.133.015-3.232.002-1.087.003-2.173.005-3.292.005-3.485.018-6.97.03-10.454.006-2.357.01-4.713.014-7.069.011-5.79.028-11.579.049-17.369 4.603 1.526 9.203 3.052 13.77 4.684 11.931 4.179 23.757 7.253 36.23 9.316 1.151.193 2.302.387 3.488.586 11.862 1.399 25.486 2.332 35.637-4.773 1.981-2.972 2.466-5.085 2.539-8.653-1.665-5.416-5.9-8.693-10.725-11.277-.661-.333-1.321-.665-2.002-1.008-.714-.371-1.429-.741-2.165-1.123-7.744-3.914-15.755-7.222-23.745-10.594-13.451-5.683-26.027-11.325-37.027-21.158-.633-.517-1.266-1.034-1.918-1.566-8.625-7.597-13.346-19.722-14.299-31.002-.748-16.764.757-31.636 12.264-44.768 10.639-10.461 24.575-15.701 38.953-18.664 1.024-.224 2.047-.449 3.102-.68 30.354-5.498 66.381-.661 93.898 13.68z" transform="translate(1228 504)"/><path d="m0 0h40v40h51v46h-51c.062 15.979.062 15.979.16 31.957.048 6.52.093 13.04.111 19.56.015 5.259.05 10.517.097 15.775.015 2.003.023 4.006.024 6.009.002 2.813.029 5.625.062 8.437-.005.822-.01 1.645-.015 2.492.101 5.637 1.326 10.088 4.561 14.77 7.196 5.846 15.023 5.847 24 5 5.321-.881 10.556-2.171 15.775-3.519 3.044-.658 6.142-1.041 9.225-1.481v45c-27.913 9.304-59.461 15.945-87.48 2.84-11.535-6.009-19.232-15.378-23.61-27.705-4.288-14.773-4.322-29.966-4.203-45.209.006-2.148.01-4.295.013-6.443.011-5.585.041-11.169.074-16.753.031-5.726.044-11.452.06-17.177.031-11.185.084-22.369.146-33.553h-25c-2.471-18.98-2.471-18.98 0-26 6.818-7.958 17.973-13.6 27.785-16.951 2.642-.941 2.642-.941 3.61-4.608.343-1.206.343-1.206.693-2.437 1.15-3.787 2.587-7.426 4.049-11.102.254-.644.508-1.288.77-1.952.925-2.338 1.853-4.675 2.78-7.012 3.125-7.89 3.125-7.89 6.313-15.938z" transform="translate(1352 750)"/><path d="m0 0h39v41h52v45h-52c.091 15.421.091 15.421.209 30.842.054 6.294.105 12.587.137 18.881.027 5.077.067 10.154.117 15.231.017 1.932.028 3.865.035 5.797.009 2.717.037 5.433.07 8.149-.002.791-.003 1.581-.005 2.396.095 5.692 1.42 10.403 3.437 15.704l1 3c8.959 5.641 20.579 5.213 30.613 3.137 2.898-.663 5.773-1.398 8.645-2.164 3.742-.973 3.742-.973 9.742-1.973v45c-15.179 5.838-15.179 5.838-22 7.25-.763.163-1.527.325-2.313.493-6.546 1.338-13.005 2.056-19.687 2.257-1.07.052-2.14.103-3.242.156-17.208.477-35.762-1.978-49.258-13.468-12.837-12.628-17.476-28.858-17.712-46.487-.027-5.228-.009-10.457.017-15.685.003-2.27.006-4.54.008-6.81.008-5.937.027-11.875.05-17.813.02-6.074.029-12.148.039-18.221.022-11.891.057-23.781.098-35.672h-25c-1.99-23.057-1.99-23.057 1.475-28.182 3.835-3.478 8.293-5.483 12.966-7.601 10.817-5.144 16.244-10.143 20.317-21.551.224-.633.448-1.265.679-1.916.478-1.26.959-2.52 1.444-3.777.903-2.352 1.78-4.707 2.64-7.076 2.03-5.35 4.278-10.615 6.479-15.897z" transform="translate(1298 452)"/><path d="m1482 790h60v196h-60z"/><path d="m0 0c5.951 5.72 6.793 13.099 7.059 20.988-.11 8.087-1.774 15.278-7.438 21.282-7.372 5.973-15.853 6.668-24.937 6.718-.9.021-1.8.042-2.727.063-8.938.051-17.441-1.626-24.453-7.488-5.592-6.018-6.043-13.096-6.133-20.95-.01-.752-.021-1.503-.031-2.278.095-6.061 1.232-11.63 4.941-16.55 14.5-11.828 38.467-13.063 53.719-1.785z" transform="translate(1538.19 720.262)"/></g></svg>