<svg fill="none" height="60" viewBox="0 0 301 60" width="301" xmlns="http://www.w3.org/2000/svg"><path d="m73.4941 8.36759c-.4507-.74787-1.0869-1.36655-1.8471-1.79604-.7602-.42948-1.6186-.65517-2.4917-.65517s-1.7314.22569-2.4916.65517c-.7602.42949-1.3965 1.04817-1.8471 1.79604l-7.1372 12.22441c5.4525 2.7222 10.0981 6.8233 13.4756 11.8962 3.3774 5.0728 5.3692 10.9409 5.7775 17.0215h-5.0112c-.4076-5.2123-2.1691-10.2277-5.1103-14.5501-2.9412-4.3223-6.9601-7.8018-11.659-10.094l-6.6057 11.4218c2.6416 1.1847 4.9429 3.0145 6.6923 5.3212 1.7495 2.3067 2.8909 5.0162 3.3193 7.8794h-11.5085c-.1364-.0097-.2684-.0531-.3839-.1265s-.2109-.1744-.2776-.2938c-.0667-.1195-.1027-.2537-.1046-.3905s.0303-.2719.0936-.3932l3.189-5.4234c-1.0804-.9015-2.3152-1.5997-3.6445-2.0609l-3.1565 5.4234c-.3286.5636-.5419 1.1869-.6275 1.8337-.0857.6468-.042 1.3041.1286 1.9339.1705.6297.4645 1.2193.8649 1.7344.4003.5152.899.9457 1.4672 1.2664.7485.4218 1.5922.6458 2.4513.6508h15.7605c.2927-3.6119-.3523-7.2382-1.8726-10.5277-1.5202-3.2895-3.8642-6.1306-6.8049-8.2482l2.5057-4.3387c3.7111 2.5489 6.6935 6.0215 8.6528 10.0751 1.9592 4.0535 2.8276 8.5479 2.5194 13.0395h13.3525c.3109-6.8042-1.1693-13.5709-4.2929-19.6238-3.1235-6.053-7.7809-11.1801-13.5068-14.8691l5.0655-8.6775c.1128-.1891.2959-.326.5092-.3809.2133-.0548.4396-.0232.6297.088.5749.3146 22.0082 37.7145 22.4096 38.1484.0707.1267.1067.2699.1043.4151-.0024.1451-.0431.2871-.118.4114-.0748.1244-.1812.2268-.3083.2969s-.2705.1054-.4156.1023h-5.1631c.0651 1.3811.0651 2.7587 0 4.1326h5.1848c.6584.0043 1.3111-.122 1.9203-.3716.6092-.2497 1.1629-.6176 1.6289-1.0827.4661-.465.8353-1.0179 1.0862-1.6266.251-.6087.3787-1.2611.3758-1.9195.0007-.8696-.2315-1.7235-.6725-2.4731zm103.3919 28.22351-16.01-20.6741h-3.991v27.7137h4.045v-21.2381l16.466 21.2381h3.536v-27.7137h-4.046zm-40.318-5.1414h14.351v-3.6012h-14.361v-8.3412h16.194v-3.6012h-20.316v27.7246h20.522v-3.6012h-16.4zm-16.877-3.5144c-5.586-1.345-7.148-2.408-7.148-4.9895 0-2.3213 2.05-3.8941 5.109-3.8941 2.785.0816 5.472 1.0507 7.668 2.766l2.17-3.0697c-2.781-2.1797-6.23-3.3295-9.763-3.254-5.488 0-9.317 3.254-9.317 7.8856 0 4.9896 3.254 6.7142 9.176 8.1569 5.272 1.2148 6.888 2.3429 6.888 4.8702s-2.169 4.0893-5.521 4.0893c-3.337-.0153-6.547-1.2764-9.003-3.5361l-2.44 2.9178c3.145 2.7022 7.156 4.1843 11.302 4.176 5.944 0 9.762-3.1998 9.762-8.146-.032-4.1868-2.505-6.4321-8.883-7.9724zm134.62-12.0183-8.341 13.0162-8.287-13.0162h-4.838l10.945 16.7584v10.9661h4.165v-11.0963l11.02-16.6282zm-70.103 3.753h9.079v23.9715h4.165v-23.9715h9.079v-3.753h-22.312zm41.587 13.1464c4.187-1.1606 6.508-4.0893 6.508-8.2762 0-5.3258-3.894-8.6774-10.175-8.6774h-12.322v27.757h4.122v-9.9574h6.996l7.029 9.9791h4.816l-7.593-10.6516zm-11.878-2.7117v-10.5215h7.778c4.056 0 6.377 1.9199 6.377 5.2499s-2.483 5.2716-6.334 5.2716z" fill="#362d59"/></svg>