<svg fill="none" height="60" viewBox="0 0 300 60" width="300" xmlns="http://www.w3.org/2000/svg" xmlns:xlink="http://www.w3.org/1999/xlink"><linearGradient id="a" gradientUnits="userSpaceOnUse" x1="24.5869" x2="60.2476" y1="49.0044" y2="8.97457"><stop offset=".08" stop-color="#9945ff"/><stop offset=".3" stop-color="#8752f3"/><stop offset=".5" stop-color="#5497d5"/><stop offset=".6" stop-color="#43b4ca"/><stop offset=".72" stop-color="#28e0b9"/><stop offset=".97" stop-color="#19fb9b"/></linearGradient><mask id="b" height="40" maskUnits="userSpaceOnUse" width="260" x="20" y="9"><path d="m280 9.23438h-260v38.84212h260z" fill="#fff"/></mask><mask id="c" height="40" maskUnits="userSpaceOnUse" width="260" x="20" y="9"><path d="m280 9.23438h-260v38.84212h260z" fill="#fff"/></mask><g mask="url(#b)"><g mask="url(#c)"><path d="m63.9629 39.8603-7.1392 7.6767c-.1554.1679-.3432.3023-.5518.3951-.2087.0928-.4341.142-.6623.1444h-33.843c-.1613-.0011-.3188-.0492-.4534-.1383-.1346-.0894-.2405-.216-.3048-.3645-.0643-.1487-.0842-.3127-.0574-.4726.0269-.1597.0993-.3081.2086-.4272l7.1393-7.6875c.1553-.1679.343-.3024.5517-.3952.2088-.0927.4341-.1419.6623-.1443h33.843c.1633-.0009.3234.0464.4603.1364.1366.0897.2441.2179.309.3685.0646.1509.0838.3172.055.4789-.029.1614-.1045.3109-.2173.4296zm-7.1392-15.4829c-.1547-.1687-.3423-.3037-.5512-.3965-.2088-.0928-.4345-.1415-.6629-.143h-33.843c-.1613-.0003-.3192.0467-.4542.1352-.1351.0886-.2414.2149-.3059.3634s-.0844.3126-.0572.4723.1003.3079.2103.4264l7.1393 7.6983c.1547.1687.3423.3036.5511.3964.2089.0928.4345.1415.6629.143h33.843c.1614.0005.3191-.0466.4543-.1353.1349-.0884.2413-.2147.3057-.3631.0647-.1485.0845-.3127.0572-.4724-.0271-.1597-.1001-.3079-.2102-.4264zm-35.0571-5.5242h33.843c.2282-.0025.4536-.0516.6623-.1443.2086-.0928.3964-.2272.5518-.3952l7.1392-7.6767c.1092-.1191.1818-.2676.2087-.4273.0268-.1598.0069-.32389-.0576-.47246-.0643-.14856-.1702-.27517-.3047-.36444-.1345-.08928-.292-.13736-.4534-.13842h-33.843c-.2282.00246-.4535.05156-.6623.14431-.2087.09274-.3964.2272-.5517.39516l-7.1393 7.67675c-.1093.1191-.1817.2676-.2086.4273-.0268.1597-.0069.3239.0574.4724.0643.1486.1702.2752.3048.3645.1346.0892.2921.1373.4534.1384z" fill="url(#a)"/><g fill="#000"><path d="m105 25.634h-18.0928v-6.0421h22.8038v-6.0421h-22.8468c-1.5843 0-3.1037.632-4.2241 1.757-1.1201 1.1251-1.7495 2.6509-1.7495 4.242v6.1284c0 .7878.1545 1.5679.4547 2.2957s.7402 1.3891 1.2948 1.9462c1.1204 1.125 2.6398 1.757 4.2241 1.757h18.0928v6.0421h-23.6366v6.0421h23.6796c1.584 0 3.103-.632 4.224-1.7569 1.12-1.1252 1.749-2.651 1.749-4.242v-6.1284c0-.7879-.154-1.5679-.454-2.2957-.301-.7279-.741-1.3892-1.295-1.9462-.555-.5571-1.213-.999-1.938-1.3004-.725-.3015-1.502-.4567-2.286-.4567z"/><path d="m140.013 13.5498h-18.141c-1.584 0-3.104.632-4.224 1.757-1.12 1.1251-1.75 2.6509-1.75 4.242v18.2126c0 1.591.63 3.1168 1.75 4.242 1.12 1.1249 2.64 1.7569 4.224 1.7569h18.141c.784 0 1.561-.1551 2.285-.4568.724-.3015 1.383-.7434 1.937-1.3006.554-.5571.994-1.2185 1.293-1.9462.3-.7278.454-1.5077.453-2.2953v-18.2126c.001-.7876-.153-1.5675-.453-2.2953-.299-.7278-.739-1.3892-1.293-1.9463-.554-.5572-1.213-.9991-1.937-1.3007-.724-.3015-1.501-.4567-2.285-.4567zm-.048 24.1684h-18.05v-18.1263h18.05z"/><path d="m203.58 13.5498h-17.728c-.784 0-1.561.1552-2.286.4566-.724.3015-1.383.7434-1.938 1.3004-.554.5571-.994 1.2184-1.294 1.9463-.301.7278-.455 1.5078-.455 2.2957v24.2115h6.016v-9.9263h17.62v9.9263h6.017v-24.2115c0-1.5873-.627-3.1099-1.742-4.2343-1.116-1.1244-2.63-1.759-4.21-1.7647zm-.043 14.2421h-17.62v-8.2h17.62z"/><path d="m274.027 13.5498h-17.727c-1.58.0057-3.094.6403-4.21 1.7647-1.115 1.1244-1.742 2.647-1.742 4.2343v24.2115h6.016v-9.9263h17.62v9.9263h6.017v-24.2115c0-.7879-.155-1.5679-.454-2.2957-.301-.7279-.741-1.3892-1.296-1.9463-.554-.557-1.214-.9989-1.938-1.3004-.724-.3014-1.502-.4566-2.286-.4566zm-.043 14.2421h-17.62v-8.2h17.62z"/><path d="m238.975 37.7182h-2.406l-8.596-21.6544c-.298-.7462-.814-1.3851-1.478-1.8334-.665-.4483-1.449-.6854-2.25-.6805h-5.372c-1.056 0-2.068.4212-2.815 1.1708-.746.7497-1.165 1.7665-1.165 2.8267v26.2129h6.016v-24.1683h2.407l8.627 21.6544c.296.7447.809 1.3826 1.471 1.8307.662.4485 1.442.6865 2.242.6832h5.372c.522 0 1.04-.1033 1.523-.3042.481-.2009.922-.4953 1.291-.8664.37-.3714.662-.812.862-1.2969.2-.4851.303-1.0049.303-1.53v-26.2129h-6.017z"/><path d="m157.354 13.5498h-6.016v24.2116c0 1.591.629 3.1168 1.749 4.242 1.121 1.1249 2.64 1.7569 4.224 1.7569h18.093v-6.0421h-18.05z"/></g></g></g></svg>