<svg fill="none" height="60" viewBox="0 0 301 60" width="301" xmlns="http://www.w3.org/2000/svg"><g fill="#b69133"><path d="m118.61 32.7056 7.61-17.2295 7.605 17.2172 5.611-15.2438h5.537l-10.711 26.9691-8.042-18.2307-8.038 18.2348-10.712-26.9691h5.537z"/><path d="m146.757 17.4536h5.001v25.0039h-5.001z"/><path d="m174.443 17.4536h5.002v26.2564l-18.042-16.3644v15.1119h-5.001v-26.2563l18.041 16.3602z"/><path d="m190.412 23.5961c-.829.8326-1.478 1.8263-1.908 2.9196s-.632 2.2632-.593 3.4374c-.039 1.1749.162 2.3453.593 3.4394.43 1.094 1.079 2.0883 1.908 2.9218.776.8043 1.709 1.4411 2.741 1.8712 1.031.4301 2.14.6443 3.258.6296 1.62.0213 3.221-.3535 4.664-1.0918 1.339-.6773 2.496-1.6663 3.374-2.884v5.9369c-2.096 1.8375-4.775 2.7548-8.038 2.7521-4.024 0-7.32-1.2676-9.888-3.8027s-3.855-5.7926-3.86-9.7725c0-3.9744 1.286-7.2305 3.86-9.7684 2.574-2.5378 5.87-3.8068 9.888-3.8068 3.263 0 5.942.9174 8.038 2.7521v5.9286c-.881-1.2074-2.038-2.1864-3.374-2.8551-1.441-.744-3.043-1.1244-4.664-1.1082-1.118-.0155-2.227.1984-3.259.6285-1.031.4302-1.964 1.0674-2.74 1.8723z"/><path d="m213.916 31.7415v6.25h11.252v4.466h-16.253v-25.0039h16.253v4.4619h-11.252v5.5372h10.539v4.2888z"/><path d="m247.675 17.4536h4.997v26.2564l-18.037-16.3644v15.1119h-5.001v-26.2563l18.041 16.3602z"/><path d="m255.173 21.9155v-4.4619h17.864v4.4619h-6.431v20.542h-5.006v-20.542z"/><path d="m89.5023 19.089c-.6637-1.4162-1.5638-2.7091-2.6614-3.8233 0 0-.0454-.0371-.0618-.0577 2.0098-.0277 3.9517-.7316 5.5124-1.9981-.182-.0333-.3674-.0444-.552-.033-3.1889.5521-6.0811-.1359-8.7755-1.648-.7539-.4119-1.5038-.8239-2.2536-1.2648 1.7661-.84359 3.1271-2.35117 3.7862-4.19406-.8002.89038-1.8278 1.54605-2.9724 1.89663-1.1446.35057-2.3631.38283-3.5247.0933-.445-.1236-.8734-.29664-1.3266-.38316-.2198-.04254-.4441-.05639-.6675-.0412-.9591-.47613-2.0319-.67585-3.0982-.57679-.9031.02513-1.8057-.06486-2.6861-.26779-.1678-.05882-.3509-.0568-.5174.00571-.1664.06251-.3056.18152-.3932.33624-.094.15631-.2138.2956-.3543.41199.0264.09832.0826.18609.1607.25132.1924.16243.4411.24238.6922.22248 1.9775-.28428 2.1382.67566 3.2259.46967-.4038.2443-.8519.40646-1.3185.47716-.4667.0707-.9426.04856-1.4007-.06517-.7106-.19398-1.3358-.62042-1.7757-1.21126-.1618.01343-.3248-.00049-.482-.0412-.7225-.25098-1.4309-.54118-2.1218-.8693-.1256-.06768-.2467-.14337-.3625-.2266-1.1124-.64683-1.4667-.72099-2.2495.32959.0064.01816.0162.03493.0288.04944.0919.07043.1989.1186.3126.14076.1136.02216.2309.0177.3425-.01304.228-.06188.4654-.08142.7004-.05768.1524.03296.309.14832.3007.30488-.0074.05893-.0304.11481-.0666.16189s-.0843.08364-.1394.1059c-.1122.03956-.2325.05088-.3502.03296-.4626-.0706-.8932-.27875-1.2359-.59739-.0371.04944-.0742.09888-.1113.15656-.4404.68509-.6458 1.49498-.585 2.30716-.031.7154.1282 1.4262.4614 2.06-.1595-.7278-.1268-1.4846.0948-2.19596.0605-.195.142-.38287.2431-.56031.0904.00654.178.03464.2555.08194.0774.04731.1423.11244.1894.18998.1631.26691.2394.57782.2184.8899.0318.51545.0937 1.02855.1854 1.53675.0262.5017.1996.9846.4985 1.3884-.1051-.6069-.0482-1.2307.1648-1.8086.0645-.218.2126-.4017.412-.5109.2188-.0703.4555-.06.6674.0288.5515.3288 1.1666.5367 1.8045.6098 1.1989.1236 2.0229 1.4502 3.7409 1.1577.0907 0 .0536 1.1948-1.1124 1.339-.4713.0193-.9418-.0549-1.3843-.2184-.5875-.16-1.2139-.0892-1.7509.1978-.4101.2452-.8368.4614-1.2772.6468-.4976.1866-1.044.1982-1.5491.0329-.1391-.1876-.2373-.4024-.2884-.6303-.0693-.328-.0465-.6688.0659-.9847-.176.1521-.3144.3427-.4044.5572-.0901.2144-.1293.4467-.1147.6788.0056.0731-.0033.1466-.0261.2162-.0229.0696-.0593.1341-.1072.1896-.0478.0555-.1062.101-.1717.1339s-.1369.0525-.21.0577c-.173 0-.2595-.033-.412-.0412-.0871-.0215-.1634-.0743-.2142-.1483-.0653-.1016-.11-.215-.1318-.3337-.0021-.4652.0789-.927.2389-1.3637-.2729.3158-.4615.6957-.5479 1.1041-.0797.3903-.0584.7944.0618 1.1742l.0618.4697c-.0482.0607-.0817.1316-.0982.2073-.0164.0757-.0152.1542.0034.2294.136.3131 0 .1112 1.1083.2101.663.1028 1.3317.1647 2.0023.1854.6218-.0517 1.2264-.2312 1.7756-.5274.3501-.2146.7481-.3387 1.1581-.361s.8191.0579 1.1903.2333c.7086.3585 1.3925.7622 2.06 1.1783.5447.3498 1.1541.5866 1.7921.6963.5915.1398 1.2113.0996 1.7799-.1154.6775-.3117 1.3232-.6883 1.9281-1.1247-.0343.0843-.0728.1668-.1154.2472-.3393.5429-.806.9947-1.3596 1.3164-.5535.3216-1.1772.5033-1.8168.5293 1.0534 1.3966 1.7965 3.0021 2.1794 4.7091.1831 1.0398.1831 2.1037 0 3.1435-.102.5643-.2396 1.1216-.412 1.6686l-.2596.7539c.0742-.1277-5.7061 10.8478-5.7061 10.8478l-3.6585-5.9863-9.7189-16.2572-13.3898 22.2476s-5.0386-7.7537-6.6042-11.7789c-.3683-1.1098-.4934-2.2859-.3667-3.4483.824-4.5979 3.1229-3.9263 3.399-7.2182-.412 1.2566-2.7522.5397-3.984 2.1795 2.1012-3.7698 5.8421-2.781 7.1687-6.9421-1.5079 1.442-3.0364.824-4.4125.9558 3.5761-1.2689 5.8503-6.11808 8.7343-4.41243-.3173-1.34309-4.6349-3.15174-8.1575.92287 1.3967-1.40078.7746-2.90867 2.6203-3.64202-5.5537.58503-4.3465 3.04463-6.0192 4.52368.103-1.51201-.169-3.15174-1.1454-3.70794.1854 2.78096-1.4914 2.70268-1.9157 7.26344.2884.5068-1.3019-2.1012-2.8716-1.9652 2.1876 3.2341-.5315 6.7196-1.0177 11.4534-.0997.6683-.1176 1.3462-.0535 2.0188.0946.6577.2661 1.3021.5109 1.9199.1776.4396.3883.8652.6303 1.273-.0577.1195-.1195.2307-.173.3543-.5416 1.1927-.7549 2.5083-.618 3.811.0659.6886.2469 1.3612.5356 1.9899.3306.6714.8012 1.2643 1.3801 1.7386 1.0836.8734 2.0188 1.3925 2.8263 2.06.8056.6628 1.5364 1.4115 2.1795 2.233.6779.8731 1.2893 1.7958 1.8292 2.7603l1.1989 2.2907c.0824.1813.1731.3543.2554.5356l3.7286 7.2305 9.8878-16.8423 3.7945-6.5466 3.7944 6.5466 9.9126 16.8423 9.2987-17.0689c.088.6866.0588 1.3832-.0865 2.06 1.4955-1.5615 2.3154-3.4525 2.7727-5.6485.2968 1.0675.2968 2.1956 0 3.263.4944-.3048 1.4131-2.1382 1.7139-3.3659.2968-1.2529.3832-2.5463.2554-3.8275.5876 1.2118.8999 2.5385.9146 3.8851 1.0759-2.3634 1.4368-4.9899 1.0383-7.5559.8693.5768 1.3843 1.8045 1.3389 3.2712.571-.9685.8805-2.0688.8982-3.1929.0329-1.1101-.2002-2.212-.6798-3.2136 1.0015.3014 1.8778.9203 2.4967 1.7633 0-1.4625-1.3843-3.9675-3.5802-6.4353 1.2127.2453 2.3774.6864 3.4483 1.306zm-58.1817 12.8377c.0568.408.1577.8086.3008 1.1948l.0618.1648.9723 1.8869c.012.0144.023.0295.033.0454-.3337-.169-.6551-.3379-.9229-.4986-.3591-.2061-.6697-.4871-.9105-.8239-.25-.3963-.4454-.8245-.5809-1.2731-.2799-.9369-.3139-1.9301-.0989-2.884.2457-.6803.5361-1.3437.8693-1.9858.4453-.7985.8402-1.6241 1.1824-2.4719.1853-.409.2811-.8529.2811-1.3019s-.0958-.8929-.2811-1.3019c.263.3964.44.8436.5195 1.3127.0794.4691.0597.9496-.058 1.4106-.2011.9136-.4598 1.8135-.7746 2.6944-.2975.8507-.5046 1.7303-.618 2.6244-.0366.402-.0283.8069.0247 1.2071z"/></g></svg>