<svg fill="none" height="60" viewBox="0 0 302 60" width="302" xmlns="http://www.w3.org/2000/svg"><path d="m172.614 35.7037h-14.658v3.1763h5.428v13.5675h3.838v-13.5675h5.392zm9.917-.5287c-4.997 0-9.034 3.9693-9.034 8.8687 0 4.8956 4.037 8.8669 9.034 8.8669s9.034-3.9713 9.034-8.8688c0-4.8956-4.069-8.8668-9.034-8.8668zm4.401 11.5481c-.3.736-.782 1.3834-1.401 1.8812-.62.4977-1.356.8292-2.139.9632-.296.0389-.594.0614-.893.0675-.3 0-.596-.0338-.894-.0675-.783-.134-1.519-.4655-2.139-.9632-.619-.4978-1.102-1.1452-1.401-1.8812-.347-.8514-.528-1.7617-.531-2.6813 0-.9581.167-1.8525.531-2.6812.299-.736.782-1.3835 1.401-1.8812.62-.4977 1.356-.8292 2.139-.9632.297-.0386.595-.0605.894-.0656.297 0 .595.0319.893.0656.783.1338 1.52.4655 2.139.9636.62.4981 1.102 1.1461 1.401 1.8827.332.8268.53 1.7531.53 2.6812 0 .9263-.198 1.8525-.53 2.6794zm4.738-11.0513h4.5l4.236 7.1813 4.201-7.1813h4.534l-6.817 10.5225v6.2213h-3.837v-6.2213zm26.571-.4968c-4.997 0-9.034 3.9693-9.034 8.8687 0 4.8956 4.037 8.8669 9.034 8.8669 4.996 0 9.033-3.9713 9.033-8.8688.034-4.8956-4.037-8.8668-9.033-8.8668zm4.434 11.5481c-.3.736-.782 1.3834-1.401 1.8812-.62.4977-1.356.8292-2.139.9632-.3.0675-.596.0675-.894.0675-.299 0-.595-.0338-.893-.0675-.784-.1337-1.52-.4651-2.14-.9628-.62-.4978-1.102-1.1454-1.402-1.8816-.346-.8516-.526-1.7619-.529-2.6813 0-.9581.199-1.8525.529-2.6812.305-.7327.789-1.3772 1.408-1.8741.619-.497 1.353-.8306 2.134-.9703.298-.0337.594-.0656.893-.0656.298 0 .596.0319.894.0656 1.62.2644 2.944 1.3894 3.54 2.8463.33.8268.529 1.7531.529 2.6812-.007.9184-.186 1.8274-.529 2.6794zm30.699-11.0513h-4.764l-6.915 16.71h4.267l1.39-3.6731h7.247l1.389 3.6731h4.269zm-4.897 10.125 2.516-6.6187 2.514 6.6187zm-5.719-10.0931h-14.659v3.1763h5.428v13.5675h3.839v-13.5675h5.392zm-110.914 4.7644c-1.62 0-2.912.5962-3.637 1.6556l-.233.33v-7.5112h-3.474v17.505h3.474v-1.8544l.231.3656c.694 1.0913 2.019 1.7194 3.607 1.7194 1.62 0 3.111-.5944 4.169-1.7194 1.059-1.125 1.621-2.6812 1.621-4.4006 0-1.7213-.562-3.2775-1.621-4.4025-1.058-1.0913-2.513-1.6875-4.137-1.6875zm-.892 9.1331c-.827 0-1.588-.2981-2.151-.8269-.3-.2844-.538-.6285-.697-1.0102-.16-.3817-.238-.7925-.229-1.206 0-1.7869 1.29-3.0788 3.075-3.0788 1.789 0 3.013 1.2244 3.013 3.0788.032 1.8525-1.159 3.0431-3.011 3.0431zm17.072-8.9006-2.449 7.3781-.099.3319-.132-.3319-2.615-7.3781h-3.805l4.733 11.3812.032.0338-.032.0337-.3.7275c-.43.9938-1.191 1.4888-2.316 1.4888-.37.0039-.739-.0518-1.091-.165l-.398 2.8125c.662.2644 1.392.3637 2.219.3637 2.415 0 3.838-1.0593 4.762-3.54l5.098-13.17zm-10.778-34.77564-4.897 15.94684-4.798-15.94872h-5.89l7.478 22.33502h5.559l4.699-14.9888 4.832 14.9888h5.559l7.078-22.33314h-5.525l-4.6 15.81754-5.03-15.81754zm47.846 0 8.736 22.33314h5.426l8.67-22.33314h-5.493l-5.725 16.11564-5.724-16.11564zm36.109-.43125c-6.519 0-11.25 4.89749-11.25 11.64749 0 6.8156 4.864 11.58 11.846 11.58 3.574 0 6.782-.9262 9.1-2.6137l-1.324-4.1682c-1.952 1.455-4.566 2.2819-7.213 2.2819-4.071 0-6.585-2.1506-6.949-5.9231v-.0994h16.511v-.7594c0-7.1475-4.301-11.94559-10.721-11.94559zm-5.625 9.09939.034-.0994c.694-3.0112 2.844-4.86374 5.625-4.86374 2.747 0 4.83 1.95004 5.261 4.89754v.0975zm35.006-9.16689c-3.375 0-6.187 1.5225-7.741 4.13625l-.165.26437v-3.90187h-5.361v22.33124h5.361v-11.91c0-3.7387 2.182-6.0562 5.69-6.0562 3.21 0 4.733 1.8862 4.733 5.925v12.0431h5.358v-14.1938c-.031-5.66059-2.745-8.63809-7.875-8.63809zm-79.29.03375c-6.551 0-11.846 5.19374-11.846 11.61374s5.295 11.6138 11.846 11.6138c6.552 0 11.847-5.1938 11.847-11.6138s-5.295-11.61374-11.847-11.61374zm5.79 15.12184c-.389.9661-1.019 1.8167-1.83 2.471-.81.6543-1.774 1.0907-2.801 1.2678-.382.0674-.77.1006-1.159.0994-.397 0-.793-.0338-1.156-.0994-1.027-.1768-1.992-.6131-2.803-1.2674s-1.441-1.505-1.831-2.4714c-.438-1.1175-.663-2.3076-.661-3.5081 0-1.2244.23-2.415.661-3.5062.39-.9665 1.019-1.8174 1.83-2.4721.811-.6546 1.775-1.0913 2.802-1.26857.365-.06562.761-.09937 1.158-.09937.398 0 .795.03375 1.159.09937 2.119.36377 3.872 1.81877 4.631 3.73877.439 1.1174.664 2.3076.662 3.5081.034 1.2027-.192 2.3985-.662 3.5063z" fill="#000"/><path d="m76.7476 49.965c2.58 1.5225 3.1425 2.88 3.1425 4.9313 0 2.8781-2.3494 4.9968-5.4937 4.9968h19.5562v-19.8543z" fill="#575a60"/><path d="m93.9561.331953-13.7325 11.945647 13.7325 7.9087c.0338-2.9775.9263-4.17 2.6813-5.1937 2.5125-1.4569 5.5256-.465 7.0796 2.25l-9.7609-16.912522z" fill="#d30c28"/><path d="m93.9544 20.3832v39.51l16.0486-27.8307c.693-1.2243.693-2.7131 0-3.9375l-6.287-10.8862c-1.557-2.7131-4.5997-3.7069-7.0822-2.25-1.8188 1.0256-2.6813 2.25-2.6813 5.3925z" fill="#6f7278"/><path d="m79.0274 51.8513c.6938.8925.8925 1.8525.8925 3.0431 0 2.88-2.3493 4.9969-5.4937 4.9969h-2.0175 13.6331z" fill="#414449"/><path d="m52.5524 19.5225c-1.4887-1.6219-1.7193-4.1025-.4293-6.3188l-9.7613 16.9088 17.2069 9.9262v-12.4425z" fill="#a5a5a5"/><path d="m53.7149 20.4525c-.4337-.2441-.8251-.5569-1.1587-.9263l7.0162 8.04v-7.3781c-2.6137 1.455-4.1044 1.29-5.8575.2625z" fill="#838688"/><path d="m59.7075 20.0869c.8288-.4969 1.4906-.8606 1.4906-.8606l32.7563-18.894391h-32.1263c-1.3893 0-2.7131.761251-3.4087 1.951871l-6.2888 10.88812c-1.5562 2.7131-.9262 5.8219 1.5882 7.2788 1.7868 1.0593 3.3093 1.1906 5.9887-.3638z" fill="#e60a1e"/><path d="m76.7419 10.26 3.4744 2.0175 13.7325-11.94376z" fill="#a1192e"/><path d="m76.5805 49.8675c-.8268-.4969-1.4887-.8625-1.4887-.8625l-32.76-18.8925 16.05 27.8287c.3427.5992.8392 1.0959 1.4381 1.4391.5989.3431 1.2786.5201 1.9688.5128h12.5737c3.1444 0 5.4938-2.1187 5.4938-4.9969.0337-2.085-.5625-3.4743-3.2757-5.0287z" fill="#c7c7c7"/></svg>