<svg fill="none" height="61" viewBox="0 0 301 61" width="301" xmlns="http://www.w3.org/2000/svg"><g fill="#0b0b0b"><path d="m30.0999 9.26562h7.467l3.062 26.53168 3.8141-26.47807h5.9629l3.9752 26.37087 3.0621-26.42448h7.3596l-5.5869 43.41548h-7.5743l-4.1903-27.4965-4.029 27.4965h-7.6819z"/><path d="m73.726 35.4756-8.4877-26.20998h8.3265l4.6736 15.27578 4.2976-15.27578h8.1116l-8.3802 26.20998v17.2055h-8.5414z"/><path d="m92.8079 9.26562h18.9631v6.11028h-10.153v11.5239h7.843v6.1639h-7.843v13.6143h10.26v6.0031h-19.0701z"/></g><g fill="#d91e26"><path d="m113.279 9.26538h7.467l3.062 26.53162 3.814-26.47802h5.963l3.975 26.37092 3.062-26.42452h7.36l-5.587 43.41532h-7.575l-4.19-27.4963-4.029 27.4963h-7.682z"/><path d="m163.247 53.2705c-4.619 0-7.914-1.197-9.884-3.5912-1.97-2.4298-2.955-5.9852-2.955-10.6662v-16.187c0-4.681.985-8.2007 2.955-10.559 1.97-2.35842 5.265-3.53761 9.884-3.53761 4.584 0 7.861 1.19706 9.831 3.59111 2.006 2.3584 3.008 5.8602 3.008 10.5055v16.2407c0 4.6452-1.002 8.1827-3.008 10.6125-1.97 2.3942-5.247 3.5912-9.831 3.5912zm0-6.3246c1.504 0 2.507-.5003 3.009-1.5008.537-1.0362.806-2.4477.806-4.2344v-20.5286c0-1.7866-.269-3.1623-.806-4.1271-.502-1.0005-1.505-1.5008-3.009-1.5008s-2.524.5003-3.062 1.5008c-.501.9648-.752 2.3405-.752 4.1271v20.5286c0 1.8223.251 3.2338.752 4.2344.502 1.0005 1.522 1.5008 3.062 1.5008z"/><path d="m180.393 9.26538h11.281c4.691 0 8.219.85762 10.583 2.57282 2.363 1.7151 3.545 4.681 3.545 8.8974 0 2.8229-.394 5.1098-1.182 6.8608-.787 1.7152-2.184 3.0194-4.19 3.9127l6.017 21.1716h-9.079l-4.942-19.6709h-3.223v19.6709h-8.81zm11.442 18.49172c2.077 0 3.528-.5002 4.351-1.5007.86-1.0363 1.29-2.6443 1.29-4.824 0-2.144-.376-3.7162-1.128-4.7167s-2.113-1.5008-4.083-1.5008h-3.062v12.5422z"/><path d="m210.101 9.26538h8.81v18.33102l7.896-18.33102h8.595l-8.165 19.51012 8.811 23.9052h-8.972l-6.715-19.4029-1.45 2.3584v17.0445h-8.81z"/><path d="m248.675 53.2705c-4.012 0-7.019-1.0898-9.025-3.2695-2.005-2.2154-3.098-5.628-3.277-10.2375l7.628-1.2864c.072 2.7515.448 4.7883 1.13 6.1104.716 1.2863 1.772 1.9295 3.167 1.9295 1.039 0 1.793-.3215 2.258-.9649.465-.6787.698-1.5363.698-2.5726 0-1.7152-.394-3.1623-1.182-4.3416-.753-1.2149-1.953-2.5371-3.6-3.9664l-4.511-3.9127c-1.793-1.5008-3.169-3.1087-4.137-4.8239-.932-1.7152-1.397-3.7698-1.397-6.1639 0-3.5376 1.039-6.2533 3.116-8.1472 2.113-1.92952 5.013-2.89431 8.702-2.89431 3.939 0 6.68 1.14345 8.22 3.43031 1.539 2.2512 2.416 5.1277 2.632 8.6295l-7.683 1.1256c-.07-2.2869-.34-3.9663-.805-5.0383-.43-1.1077-1.307-1.6616-2.632-1.6616-.967 0-1.719.3752-2.256 1.1256-.537.7146-.807 1.5722-.807 2.5728 0 1.4293.305 2.6442.914 3.6447.644.9648 1.647 2.0368 3.009 3.216l4.405 3.8591c2.076 1.8225 3.706 3.752 4.888 5.7887 1.181 2.0011 1.772 4.3595 1.772 7.0752 0 2.0725-.465 3.9306-1.396 5.5744-.932 1.6078-2.255 2.8764-3.976 3.8054-1.684.9291-3.635 1.3936-5.855 1.3936z"/></g><path d="m266.691 52.4339c2.324 0 4.209-1.8799 4.209-4.199 0-2.319-1.885-4.199-4.209-4.199s-4.208 1.88-4.208 4.199c0 2.3191 1.884 4.199 4.208 4.199z" fill="#0b0b0b"/></svg>