<svg fill="none" height="331" viewBox="0 0 1085 331" width="1085" xmlns="http://www.w3.org/2000/svg"><g fill="#e44326"><path d="m271.178 109.965c-10.255-2.171-19.171 8.722-19.171 24.41 0 8.592 2.729 16.482 6.94 21.85l-8.5 21.576c-1.924-.753-3.991-1.156-6.161-1.104-2.171.052-4.355.558-6.408 1.442l-9.801-23.331c4.991-5.303 8.072-13.232 8.072-22.291 0-16.521-10.515-32.183-24.423-35.1339-15.143-3.1974-28.479 9.6579-28.479 28.9339 0 10.554 4.108 20.289 10.412 26.918l-12.777 26.412c-2.912-.923-6.044-1.391-9.359-1.313-3.366.078-6.668.715-9.839 1.833l-15.195-29.102c7.773-6.551 12.543-16.339 12.543-27.595 0-20.537-16.364-40.6965-38.448-45.3628-24.5658-5.1732-46.7142 10.4503-46.7142 35.4198 0 24.969 22.1484 45.778 46.7272 46.337 4.251.091 8.254-.429 11.984-1.456l16.222 29.753c-7.994 7.5-13.232 18.522-13.232 30.441 0 21.758 16.923 35.874 35.939 31.858 17.301-3.653 30.246-21.291 30.246-39.605 0-10.021-3.795-18.795-9.943-24.657l12.049-25.879c2.522.988 5.16 1.547 7.851 1.612 2.651.065 5.173-.377 7.513-1.209l10.32 23.747c-5.108 5.914-8.423 14.636-8.423 24.111 0 17.301 10.802 29.103 23.15 26.49 11.438-2.417 20.134-16.507 20.134-31.546 0-8.24-2.561-15.48-6.694-20.341l8.11-21.213c1.716.806 3.51 1.261 5.342 1.3 9.554.221 16.872-10.867 16.872-24.683 0-13.817-7.318-26.607-16.872-28.635zm0 42.308c-.519-.026-1.039-.13-1.533-.26-1.3-.35-2.522-1.065-3.653-2.04-1.157-1.014-2.196-2.327-3.067-3.848-1.677-2.976-2.704-6.759-2.704-10.788 0-8.968 5.017-15.402 10.957-14.376 5.694.988 10.165 8.527 10.165 16.846 0 8.318-4.471 14.817-10.165 14.466zm-26.892 70.761c-7.136 1.235-13.193-5.745-13.193-15.61 0-4.433 1.248-8.605 3.275-11.88 1.04-1.69 2.288-3.12 3.679-4.238 1.351-1.092 2.846-1.871 4.393-2.274.598-.143 1.209-.247 1.833-.286s1.222 0 1.819.065c1.508.208 2.912.78 4.173 1.663 1.274.884 2.391 2.08 3.327 3.523 1.781 2.742 2.834 6.382 2.834 10.476 0 9.086-5.329 17.391-12.153 18.574zm-32.56-74.413c-.767-.052-1.508-.169-2.249-.351-1.91-.455-3.73-1.326-5.381-2.535-1.716-1.247-3.249-2.872-4.523-4.744-2.509-3.665-4.03-8.305-4.03-13.219 0-10.944 7.435-18.574 16.17-17.066 8.319 1.43 14.779 10.684 14.779 20.68 0 4.497-1.287 8.5-3.445 11.516-1.118 1.573-2.496 2.885-4.042 3.86-1.534.949-3.25 1.586-5.082 1.794-.728.091-1.456.117-2.21.065zm-40.203 86.956c-10.957 1.885-20.329-6.499-20.329-18.808 0-5.524 1.937-10.775 5.083-14.895 1.611-2.119 3.535-3.939 5.693-5.356 2.079-1.377 4.354-2.365 6.746-2.898.923-.195 1.858-.338 2.807-.39s1.859-.039 2.769.039c2.287.234 4.432.91 6.33 1.976 1.924 1.065 3.626 2.508 5.017 4.263 2.665 3.314 4.25 7.747 4.25 12.738 0 11.126-8.006 21.551-18.353 23.331zm-50.926-92.571c-14.102-.871-26.2685-13.05-26.2685-27.075s12.1665-23.3701 26.2685-20.9265c13.245 2.2877 23.449 14.2325 23.449 26.7495 0 5.628-2.015 10.594-5.395 14.311-1.78 1.95-3.951 3.574-6.408 4.757-2.43 1.17-5.16 1.924-8.084 2.158-1.157.091-2.353.117-3.562.039z"/><path d="m430.689 187.485 21.083-76.051h19.575l-32.378 105.413h-15.507l-26.503-79.664-26.502 79.664h-15.507l-32.378-105.413h19.575l21.083 76.051 26.048-76.051h15.363z"/><path d="m533.685 141.706h19.731l-30.571 74.387-12.504 32.222h-19.731l13.7-34.34-29.675-72.282h19.575l19.874 53.617 19.575-53.617z"/><path d="m565.309 216.847v-109.936h18.977v109.936z"/><path d="m615.156 106.768c6.473 0 11.295 4.965 11.295 11.139s-4.822 11.139-11.295 11.139-11.295-4.822-11.295-11.139 4.965-11.139 11.295-11.139zm-9.488 110.079v-75.141h18.977v75.141z"/><path d="m641.347 179.348c0-20.485 15.363-39.462 41.268-39.462s41.269 18.977 41.269 39.462-15.364 39.306-41.269 39.306-41.268-18.977-41.268-39.306zm18.522 0c0 12.192 8.136 23.487 22.746 23.487s22.747-11.295 22.747-23.487-8.137-23.643-22.747-23.643-22.746 11.451-22.746 23.643z"/></g><path d="m799.922 106.911h18.977v109.936h-18.223v-12.946c-4.368 7.682-14.311 14.753-27.413 14.753-22.291 0-37.954-17.768-37.954-39.306 0-21.537 15.663-39.462 37.954-39.462 13.102 0 22.889 6.772 26.659 14.753zm-23.046 96.08c12.504 0 23.046-9.189 23.046-23.643s-10.542-23.799-23.046-23.799c-13.556 0-22.59 10.697-22.59 23.799s9.034 23.643 22.59 23.643z" fill="#111949"/><path d="m885.006 159.916h-4.068c-15.208 0-22.292 8.891-22.292 23.487v33.431h-18.977v-75.141h18.366v16.26c3.614-11.893 13.7-16.871 26.958-16.871v18.821z" fill="#111949"/><path d="m907.883 106.768c6.473 0 11.295 4.965 11.295 11.139s-4.822 11.139-11.295 11.139-11.296-4.822-11.296-11.139 4.966-11.139 11.296-11.139zm-9.489 110.079v-75.141h18.977v75.141z" fill="#111949"/><path d="m957.73 216.847h-18.977v-75.141h18.366v12.803c3.47-8.735 13.258-14.61 24.995-14.61 18.066 0 28.166 13.258 28.166 31.923v45.025h-18.977v-41.866c0-10.698-4.822-18.522-16.117-18.522-10.386 0-17.469 7.526-17.469 18.379v42.009z" fill="#111949"/></svg>