<svg width="113" height="33" viewBox="0 0 113 33" fill="none" xmlns="http://www.w3.org/2000/svg">
<g clip-path="url(#clip0_2095_9013)">
<mask id="mask0_2095_9013" style="mask-type:luminance" maskUnits="userSpaceOnUse" x="0" y="8" width="112" height="18">
<path d="M112 8H0V25.8707H112V8Z" fill="white"/>
</mask>
<g mask="url(#mask0_2095_9013)">
<path d="M3.75113 11.3538L3.75087 12.3229C3.74842 13.2537 3.71839 13.9612 3.66076 14.4452C3.60058 14.9506 3.42457 15.417 3.13268 15.8443C2.84083 16.2716 2.36393 16.6326 1.70196 16.9275C2.47825 17.2344 3.01383 17.6963 3.30873 18.3132C3.60359 18.93 3.75105 19.786 3.75105 20.8813V22.6054C3.75105 23.0688 3.78564 23.4208 3.85486 23.6615C3.92404 23.9022 4.0715 24.0843 4.29718 24.2076C4.52281 24.3311 4.88238 24.3927 5.37586 24.3927H5.72789V25.8551H4.93355C3.94662 25.8551 3.22598 25.5752 2.77161 25.0155C2.31727 24.4559 2.09009 23.4961 2.09009 22.136V20.791C2.09009 19.7198 1.94419 18.9465 1.6523 18.4711C1.36041 17.9957 0.826338 17.7339 0.0500488 17.6858V16.1693C0.669883 16.1332 1.12421 15.9737 1.41309 15.6909C1.70196 15.408 1.88698 15.0469 1.96822 14.6076C2.04688 14.1825 2.08742 13.639 2.08996 12.9772L2.09009 12.026L2.09052 11.8978C2.09689 10.9248 2.17646 10.1702 2.32929 9.63386C2.48876 9.07421 2.79719 8.66196 3.25454 8.39718C3.71193 8.13239 4.37691 8 5.24948 8H5.72789V9.45333H5.52931C5.04788 9.45333 4.68078 9.49697 4.42804 9.5842C4.17531 9.67147 3.99926 9.84748 3.89996 10.1123C3.80343 10.3697 3.75385 10.7835 3.75113 11.3538Z" fill="white"/>
<path d="M14.3894 14.4644V13.9356H15.6697V16.7049H14.3894C14.3338 16.1715 14.1203 15.7644 13.7492 15.4838C13.3781 15.2032 12.949 15.0628 12.462 15.0628C12.0445 15.0628 11.6699 15.1742 11.3383 15.3968C11.0066 15.6194 10.7503 15.921 10.5694 16.3014C10.3884 16.6818 10.298 17.0969 10.298 17.5469C10.298 18.3123 10.5021 18.9374 10.9103 19.4221C11.3185 19.9069 11.8566 20.1493 12.5246 20.1493C13.5591 20.1493 14.2896 19.6692 14.7165 18.7089L15.9133 19.2795C15.2406 20.7361 14.0902 21.4643 12.462 21.4643C11.7336 21.4643 11.0866 21.2927 10.5207 20.9495C9.95473 20.6062 9.51754 20.1354 9.20903 19.5369C8.90051 18.9386 8.74634 18.2752 8.74634 17.5469C8.74634 16.8325 8.90284 16.1831 9.21596 15.5986C9.52909 15.0141 9.95938 14.5584 10.5067 14.2313C11.0541 13.9043 11.6641 13.7408 12.3367 13.7408C13.1346 13.7408 13.8188 13.982 14.3894 14.4644ZM24.7099 17.6026C24.7099 18.3123 24.5405 18.9617 24.2019 19.5509C23.8632 20.14 23.4017 20.6062 22.8172 20.9495C22.2327 21.2927 21.5856 21.4643 20.8759 21.4643C20.143 21.4643 19.4819 21.2927 18.8928 20.9495C18.3037 20.6062 17.8456 20.14 17.5185 19.5509C17.1915 18.9617 17.028 18.3123 17.028 17.6026C17.028 16.8604 17.1915 16.197 17.5185 15.6125C17.8456 15.028 18.3014 14.5699 18.8859 14.2383C19.4703 13.9067 20.1336 13.7408 20.8759 13.7408C21.5949 13.7408 22.2466 13.9159 22.8311 14.2661C23.4156 14.6164 23.8749 15.086 24.2089 15.6751C24.5429 16.2643 24.7099 16.9068 24.7099 17.6026ZM20.8759 20.0658C21.3027 20.0658 21.6947 19.9544 22.0518 19.7318C22.409 19.5091 22.6873 19.2099 22.8868 18.8342C23.0863 18.4584 23.186 18.0479 23.186 17.6026C23.186 17.1665 23.0863 16.7606 22.8868 16.3849C22.6873 16.0092 22.409 15.7065 22.0518 15.4769C21.6947 15.2473 21.298 15.1324 20.862 15.1324C20.4352 15.1324 20.0432 15.2448 19.686 15.4699C19.3289 15.6949 19.0481 15.9975 18.8441 16.3779C18.64 16.7583 18.5379 17.1665 18.5379 17.6026C18.5379 18.0386 18.64 18.4468 18.8441 18.8272C19.0481 19.2076 19.3312 19.5091 19.693 19.7318C20.0548 19.9544 20.4491 20.0658 20.8759 20.0658ZM34.9746 19.9684V21.2487H32.2261V20.1771C31.4932 20.975 30.6188 21.3739 29.6029 21.3739C28.8978 21.3739 28.275 21.2081 27.7346 20.8764C27.1942 20.5447 26.7744 20.0936 26.4752 19.523C26.176 18.9524 26.0263 18.3216 26.0263 17.6304C26.0263 16.9253 26.1853 16.2759 26.503 15.6821C26.8208 15.0884 27.2603 14.6164 27.8216 14.2661C28.3829 13.9159 28.9906 13.7408 29.6446 13.7408C30.1178 13.7408 30.5666 13.8358 30.991 14.026C31.4155 14.2162 31.8272 14.5155 32.2261 14.9237V12.0291H30.8136V10.7627H33.6525V19.9684H34.9746ZM29.8743 20.0936C30.3196 20.0936 30.7208 19.9753 31.078 19.7387C31.4353 19.5022 31.7159 19.1867 31.92 18.7924C32.1241 18.3981 32.2261 17.976 32.2261 17.526C32.2261 17.0714 32.1241 16.6563 31.92 16.2805C31.7159 15.9048 31.4329 15.6079 31.071 15.3898C30.7092 15.1718 30.301 15.0628 29.8464 15.0628C29.4058 15.0628 29.0126 15.1799 28.667 15.4143C28.3214 15.6485 28.0489 15.9593 27.8494 16.3466C27.65 16.734 27.5502 17.1479 27.5502 17.5886C27.5502 18.0618 27.6523 18.4885 27.8564 18.8689C28.0605 19.2494 28.3388 19.5485 28.6914 19.7665C29.0439 19.9846 29.4382 20.0936 29.8743 20.0936ZM40.3549 14.2487V13.9356H41.6071V16.364H40.3549V15.9187C39.937 15.3203 39.3667 15.0211 38.643 15.0211C38.2626 15.0211 37.9516 15.1046 37.7108 15.2716C37.4696 15.4386 37.349 15.6543 37.349 15.9187C37.349 16.1553 37.4403 16.3409 37.6238 16.4753C37.8069 16.6099 38.2187 16.7281 38.8588 16.8302L39.8259 17.0181C41.2686 17.2825 41.9901 17.9899 41.9901 19.1403C41.9901 19.813 41.729 20.3533 41.207 20.7616C40.6853 21.1698 39.993 21.3739 39.1302 21.3739C38.7869 21.3739 38.4492 21.3241 38.1175 21.2243C37.7862 21.1245 37.5088 21.0005 37.2861 20.852V21.2487H36.0058V18.7437H37.2861V18.9942C37.3559 19.3467 37.5519 19.6297 37.8741 19.8431C38.1967 20.0565 38.5711 20.1632 38.998 20.1632C39.4666 20.1632 39.8354 20.0808 40.1042 19.9161C40.3734 19.7515 40.5078 19.5068 40.5078 19.182C40.5078 18.9455 40.401 18.7681 40.1878 18.6498L40.1572 18.6336C39.9349 18.5205 39.5158 18.4041 38.9006 18.2845L38.1558 18.1245C37.4183 17.976 36.8782 17.7209 36.5348 17.359C36.1915 16.9972 36.0196 16.5356 36.0196 15.9743C36.0196 15.5198 36.1463 15.1313 36.3991 14.8089C36.652 14.4864 36.9755 14.2441 37.3697 14.0817C37.7638 13.9194 38.17 13.8382 38.5874 13.8382C39.2879 13.8382 39.8767 13.975 40.3549 14.2487ZM51.8439 17.6304C51.8439 18.3123 51.6863 18.9501 51.371 19.5439C51.0556 20.1377 50.6253 20.6062 50.0804 20.9495C49.535 21.2927 48.9311 21.4643 48.2677 21.4643C47.289 21.4643 46.433 21.0886 45.6999 20.3372V23.2456H47.1266V24.5259H42.9378V23.2456H44.2598V15.2228H43.0351V13.9356H45.6999V15.1046C46.0617 14.6778 46.4606 14.36 46.897 14.1513C47.3329 13.9425 47.799 13.8382 48.2957 13.8382C48.9867 13.8382 49.6014 14.0086 50.1394 14.3496C50.6774 14.6906 51.0961 15.151 51.3955 15.7308C51.6945 16.3107 51.8439 16.9439 51.8439 17.6304ZM48.247 20.1493C48.6459 20.1493 49.0052 20.0333 49.3252 19.8014C49.6453 19.5694 49.896 19.254 50.0769 18.855C50.2578 18.4561 50.3483 18.034 50.3483 17.5886C50.3483 17.1387 50.2484 16.7247 50.0489 16.3466C49.8495 15.9685 49.5759 15.667 49.2279 15.4421C48.8798 15.2171 48.4878 15.1046 48.0519 15.1046C47.5974 15.1046 47.189 15.2241 46.8272 15.4629C46.4654 15.7018 46.1849 16.0184 45.9855 16.4127C45.786 16.807 45.6861 17.2408 45.6861 17.7139C45.6861 18.4747 45.926 19.0707 46.4063 19.5022C46.8866 19.9336 47.5001 20.1493 48.247 20.1493ZM60.8772 17.9574H54.7473C54.8352 18.6579 55.1066 19.2111 55.5615 19.6169C56.0159 20.0229 56.5725 20.2258 57.2311 20.2258C57.7136 20.2258 58.1612 20.126 58.5743 19.9266C58.987 19.7271 59.3329 19.421 59.6111 19.0081L60.8772 19.5786C60.4783 20.2003 59.9553 20.6699 59.3083 20.9877C58.6613 21.3055 57.9574 21.4643 57.1967 21.4643C56.4079 21.4643 55.7075 21.2997 55.095 20.9703C54.4828 20.641 54.006 20.1817 53.6652 19.5926C53.3241 19.0035 53.1539 18.3401 53.1539 17.6026C53.1539 16.8696 53.3219 16.2087 53.6583 15.6194C53.9943 15.0303 54.4548 14.5699 55.0394 14.2383C55.6239 13.9067 56.2688 13.7408 56.974 13.7408C57.7438 13.7408 58.4153 13.9113 58.9882 14.2522C59.5612 14.5931 60.0122 15.0803 60.3417 15.7134C60.6708 16.3466 60.8496 17.0947 60.8772 17.9574ZM57.0015 14.9376C56.4588 14.9376 55.9836 15.1197 55.5753 15.4838C55.1669 15.8479 54.905 16.3292 54.7891 16.9276H59.3673C59.2329 16.3292 58.9478 15.8479 58.5114 15.4838C58.0754 15.1197 57.5723 14.9376 57.0015 14.9376ZM69.9173 17.9574H63.7875C63.8753 18.6579 64.1467 19.2111 64.6016 19.6169C65.0561 20.0229 65.6126 20.2258 66.2713 20.2258C66.7537 20.2258 67.2013 20.126 67.6144 19.9266C68.0271 19.7271 68.3726 19.421 68.6513 19.0081L69.9173 19.5786C69.5184 20.2003 68.9955 20.6699 68.3484 20.9877C67.7014 21.3055 66.9975 21.4643 66.2368 21.4643C65.4481 21.4643 64.7476 21.2997 64.1351 20.9703C63.523 20.641 63.0461 20.1817 62.7054 19.5926C62.3642 19.0035 62.194 18.3401 62.194 17.6026C62.194 16.8696 62.362 16.2087 62.6985 15.6194C63.0345 15.0303 63.495 14.5699 64.0795 14.2383C64.6641 13.9067 65.3089 13.7408 66.0141 13.7408C66.7839 13.7408 67.4555 13.9113 68.0284 14.2522C68.6013 14.5931 69.0523 15.0803 69.3819 15.7134C69.711 16.3466 69.8897 17.0947 69.9173 17.9574ZM66.0417 14.9376C65.4989 14.9376 65.0238 15.1197 64.6154 15.4838C64.207 15.8479 63.9451 16.3292 63.8292 16.9276H68.4074C68.273 16.3292 67.9879 15.8479 67.5515 15.4838C67.1156 15.1197 66.6124 14.9376 66.0417 14.9376ZM78.8601 10.7627V19.9684H80.1825V21.2487H77.4342V20.1771C76.7006 20.975 75.8266 21.3739 74.8104 21.3739C74.1052 21.3739 73.4828 21.2081 72.9422 20.8764C72.402 20.5447 71.982 20.0936 71.683 19.523C71.3836 18.9524 71.2342 18.3216 71.2342 17.6304C71.2342 16.9253 71.3931 16.2759 71.7106 15.6821C72.0285 15.0884 72.4679 14.6164 73.0292 14.2661C73.5905 13.9159 74.1983 13.7408 74.8522 13.7408C75.3256 13.7408 75.774 13.8358 76.1988 14.026C76.6231 14.2162 77.0349 14.5155 77.4342 14.9237V12.0291H76.0213V10.7627H78.8601ZM75.0542 15.0628C74.6135 15.0628 74.2202 15.1799 73.8748 15.4143C73.5289 15.6485 73.2566 15.9593 73.0572 16.3466C72.8577 16.734 72.7578 17.1479 72.7578 17.5886C72.7578 18.0618 72.8599 18.4885 73.0641 18.8689C73.2683 19.2494 73.5465 19.5485 73.8989 19.7665C74.2517 19.9846 74.6458 20.0936 75.0818 20.0936C75.5272 20.0936 75.9287 19.9753 76.2858 19.7387C76.6429 19.5022 76.9233 19.1867 77.1275 18.7924C77.3317 18.3981 77.4342 17.976 77.4342 17.526C77.4342 17.0714 77.3317 16.6563 77.1275 16.2805C76.9233 15.9048 76.6407 15.6079 76.2789 15.3898C75.9171 15.1718 75.5087 15.0628 75.0542 15.0628Z" fill="white"/>
<path d="M109.918 11.9616V12.9106C109.918 13.6026 109.958 14.1683 110.036 14.6076C110.114 15.0469 110.302 15.408 110.6 15.6909C110.898 15.9737 111.348 16.1332 111.95 16.1693V17.6858C111.173 17.7339 110.641 17.9957 110.352 18.4711C110.063 18.9465 109.918 19.7198 109.918 20.791V22.136C109.918 23.4961 109.696 24.4559 109.251 25.0155C108.805 25.5752 108.059 25.8551 107.012 25.8551H106.272V24.3927H106.624C107.118 24.3927 107.478 24.3311 107.707 24.2076C107.936 24.0843 108.084 23.9022 108.15 23.6615C108.214 23.4291 108.246 23.0929 108.249 22.653V20.8813C108.249 19.786 108.398 18.93 108.696 18.3132C108.994 17.6963 109.531 17.2344 110.307 16.9275C109.639 16.6326 109.161 16.2716 108.872 15.8443C108.583 15.417 108.407 14.9506 108.344 14.4452L108.336 14.3793C108.278 13.8755 108.249 13.1482 108.249 12.1975V11.4031C108.249 10.8073 108.201 10.3771 108.104 10.1123C108.008 9.84748 107.843 9.67147 107.608 9.5842C107.373 9.49697 106.997 9.45333 106.48 9.45333H106.272V8H106.696C107.611 8 108.296 8.13239 108.75 8.39718C109.205 8.66196 109.513 9.07421 109.675 9.63386C109.834 10.1818 109.915 10.9577 109.918 11.9616Z" fill="white"/>
<path fill-rule="evenodd" clip-rule="evenodd" d="M88.7296 21.9039C89.3473 22.0425 89.7841 21.9447 89.8513 21.9564L89.8543 21.9571C90.8817 22.5182 91.6291 22.9958 92.3502 23.3009C92.3222 23.3036 92.2929 23.3063 92.2645 23.3091C91.6778 23.4022 91.2556 23.47 90.998 23.5122C88.3583 23.9457 87.0621 23.1893 87.3464 22.0256C87.4601 21.5562 88.102 21.7629 88.7296 21.9039ZM97.5966 10.6051C99.2679 11.8512 99.7487 12.4985 100.638 13.4929C102.819 13.4929 104.038 15.138 103.647 17.5916C103.398 19.1523 100.304 18.6036 99.5699 17.5916C99.0801 18.039 97.8761 19.0307 95.9583 20.5667C95.9342 20.5852 95.9079 20.6059 95.8795 20.6286C95.3195 21.0783 93.1583 20.9344 92.9516 20.7809C93.3845 20.0628 93.6964 19.5017 93.8876 19.0979C94.1741 18.492 94.3744 17.8848 94.3744 16.8787C94.3744 15.8726 93.8144 15.018 92.6298 15.0402C92.5255 15.0421 92.4088 15.1224 92.4088 15.2801C92.4088 15.4377 92.5255 15.52 92.6298 15.52C93.2566 15.52 93.6964 16.3066 93.6972 16.8787C93.6972 17.4508 93.6072 17.915 93.3393 18.6124C93.1079 19.2148 92.1762 20.7108 91.9332 20.86C91.8303 20.9231 91.804 21.0636 91.8639 21.1653C91.8833 21.1985 91.9026 21.216 91.9255 21.2322C91.9401 21.242 91.9526 21.2485 91.9673 21.2551C91.9841 21.2627 92.0052 21.2706 92.0306 21.2792C92.0827 21.2968 92.1529 21.3169 92.2348 21.3371C92.4454 21.3892 92.703 21.4357 92.9916 21.4692C93.7873 21.5613 94.6794 21.5424 95.6292 21.3717L95.6663 21.365C95.9506 21.313 96.3633 21.3088 96.7716 21.3625C97.2494 21.4255 97.6844 21.5606 98.0148 21.7627C98.3052 21.94 98.5055 22.1612 98.6071 22.429L98.6166 22.4582C98.6597 22.6008 98.6812 22.754 98.6812 22.9177C98.6812 23.7976 96.8216 23.2706 94.6716 23.1757C94.5364 23.1698 94.3727 23.1693 94.1801 23.1743C93.3031 23.1299 92.5802 22.871 91.6127 22.3836L91.6308 22.3805C91.6308 22.3805 91.5559 22.3489 91.4383 22.2942C91.1514 22.1464 90.8425 21.9798 90.5022 21.7937L90.5001 21.7943C90.1787 21.5923 89.8961 21.3658 89.8242 21.1629C89.6372 20.6343 89.729 20.6343 90.4006 19.853C89.2551 19.9947 89.2267 20.0776 87.9202 20.0776C86.6145 20.0776 84.4624 20.01 84.4624 18.7199C84.4624 17.8598 85.0422 17.5253 86.2031 17.7163C85.9206 16.152 86.4056 14.7443 87.66 13.4929C90.9438 10.2148 95.3772 14.7317 98.4163 14.7317C99.7987 14.7317 95.979 12.5438 94.3912 11.9239C92.8038 11.304 95.3027 8.89505 97.5966 10.6051ZM101.423 15.115C101.173 15.115 100.97 15.3348 100.97 15.606C100.97 15.8773 101.173 16.0972 101.423 16.0972C101.672 16.0972 101.875 15.8773 101.875 15.606C101.875 15.3348 101.672 15.115 101.423 15.115Z" fill="url(#paint0_linear_2095_9013)"/>
</g>
</g>
<defs>
<linearGradient id="paint0_linear_2095_9013" x1="94.091" y1="10.0024" x2="94.091" y2="23.6358" gradientUnits="userSpaceOnUse">
<stop stop-color="#FF8C4A"/>
<stop offset="1" stop-color="#FF6661"/>
</linearGradient>
<clipPath id="clip0_2095_9013">
<rect width="112" height="32" fill="white" transform="translate(0.0407715 0.580078)"/>
</clipPath>
</defs>
</svg>
