<?xml version="1.0" encoding="UTF-8" standalone="no"?>
<!DOCTYPE svg PUBLIC "-//W3C//DTD SVG 1.1//EN" "http://www.w3.org/Graphics/SVG/1.1/DTD/svg11.dtd">
<svg width="100%" height="100%" viewBox="0 0 1084 330" version="1.1" xmlns="http://www.w3.org/2000/svg" xmlns:xlink="http://www.w3.org/1999/xlink" xml:space="preserve" xmlns:serif="http://www.serif.com/" style="fill-rule:evenodd;clip-rule:evenodd;stroke-linejoin:round;stroke-miterlimit:2;">
    <path d="M184.024,268.605L162.172,268.605L157.045,282.421L151.631,282.421L170.783,232.583L173.202,232.583C174.772,232.583 175.909,233.533 176.622,235.434L187.588,264.198L187.66,264.198L187.66,264.342L194.564,282.429L189.15,282.429L184.024,268.612L184.024,268.605ZM163.799,264.191L182.389,264.191L173.13,239.416L173.058,239.416L163.799,264.191Z" style="fill:white;fill-rule:nonzero;"/>
    <path d="M219.131,280.959C216.805,279.606 214.998,277.683 213.716,275.192C212.435,272.701 211.794,269.842 211.794,266.61L211.794,232.575L217.064,232.575L217.064,266.754C217.064,270.217 217.993,273.01 219.844,275.12C221.694,277.23 224.142,278.288 227.18,278.288L234.87,278.288C237.908,278.288 240.349,277.23 242.207,275.12C244.057,273.01 244.986,270.217 244.986,266.754L244.986,232.575L250.256,232.575L250.256,266.61C250.256,269.835 249.616,272.701 248.334,275.192C247.052,277.683 245.245,279.606 242.92,280.959C240.594,282.313 237.908,282.99 234.877,282.99L227.188,282.99C224.149,282.99 221.464,282.313 219.145,280.959L219.131,280.959Z" style="fill:white;fill-rule:nonzero;"/>
    <path d="M285.702,237.133L269.898,237.133L269.898,232.575L306.776,232.575L306.776,237.133L290.972,237.133L290.972,282.414L285.702,282.414L285.702,237.133Z" style="fill:white;fill-rule:nonzero;"/>
    <path d="M330.983,280.78C328.463,279.311 326.505,277.223 325.108,274.516C323.704,271.809 323.005,268.677 323.005,265.12L323.005,249.885C323.005,246.328 323.704,243.189 325.108,240.489C326.505,237.781 328.463,235.693 330.983,234.225C333.496,232.756 336.419,232.021 339.738,232.021L347.284,232.021C350.603,232.021 353.526,232.756 356.039,234.225C358.552,235.693 360.51,237.781 361.914,240.489C363.311,243.196 364.017,246.328 364.017,249.885L364.017,265.12C364.017,268.677 363.318,271.801 361.914,274.48C360.517,277.165 358.545,279.253 356.003,280.744C353.461,282.241 350.56,282.983 347.284,282.983L339.666,282.983C336.39,282.983 333.496,282.249 330.983,280.773L330.983,280.78ZM347.147,278.289C350.61,278.289 353.411,277.079 355.549,274.66C357.688,272.241 358.753,269.058 358.753,265.12L358.753,249.885C358.753,245.946 357.688,242.764 355.549,240.345C353.411,237.925 350.61,236.716 347.147,236.716L339.882,236.716C336.419,236.716 333.618,237.925 331.48,240.345C329.341,242.764 328.276,245.946 328.276,249.885L328.276,265.12C328.276,269.058 329.334,272.241 331.444,274.66C333.553,277.079 336.347,278.289 339.81,278.289L347.147,278.289Z" style="fill:white;fill-rule:nonzero;"/>
    <path d="M386.077,232.575L391.146,232.575L408.944,265.681L426.246,232.575L431.3,232.575L431.3,282.414L426.102,282.414L426.102,242.396L411.716,269.734C411.191,270.685 410.744,271.333 410.363,271.693C409.981,272.053 409.556,272.226 409.081,272.226L407.512,272.226L391.276,242.396L391.276,282.414L386.077,282.414L386.077,232.575Z" style="fill:white;fill-rule:nonzero;"/>
    <path d="M461.353,280.78C458.833,279.311 456.874,277.223 455.477,274.516C454.073,271.809 453.375,268.677 453.375,265.12L453.375,249.885C453.375,246.328 454.073,243.189 455.477,240.489C456.874,237.781 458.833,235.693 461.353,234.225C463.865,232.756 466.789,232.021 470.108,232.021L477.653,232.021C480.973,232.021 483.896,232.756 486.409,234.225C488.921,235.693 490.88,237.781 492.284,240.489C493.681,243.196 494.386,246.328 494.386,249.885L494.386,265.12C494.386,268.677 493.688,271.801 492.284,274.48C490.887,277.165 488.914,279.253 486.373,280.744C483.831,282.241 480.929,282.983 477.653,282.983L470.036,282.983C466.76,282.983 463.865,282.249 461.353,280.773L461.353,280.78ZM477.517,278.289C480.98,278.289 483.781,277.079 485.919,274.66C488.057,272.241 489.123,269.058 489.123,265.12L489.123,249.885C489.123,245.946 488.057,242.764 485.919,240.345C483.781,237.925 480.98,236.716 477.517,236.716L470.252,236.716C466.789,236.716 463.988,237.925 461.849,240.345C459.711,242.764 458.645,245.946 458.645,249.885L458.645,265.12C458.645,269.058 459.704,272.241 461.813,274.66C463.923,277.079 466.717,278.289 470.18,278.289L477.517,278.289Z" style="fill:white;fill-rule:nonzero;"/>
    <path d="M526.427,237.133L510.623,237.133L510.623,232.575L547.501,232.575L547.501,237.133L531.697,237.133L531.697,282.414L526.427,282.414L526.427,237.133Z" style="fill:white;fill-rule:nonzero;"/>
    <rect x="568.15" y="232.575" width="5.271" height="49.839" style="fill:white;fill-rule:nonzero;"/>
    <path d="M612.049,281.637C611.452,281.118 610.948,280.283 610.516,279.145L593.502,232.583L598.916,232.583L614.44,276.085L614.512,276.085L630.107,232.583L635.521,232.583L617.01,282.421L614.303,282.421C613.403,282.421 612.654,282.162 612.064,281.637L612.049,281.637Z" style="fill:white;fill-rule:nonzero;"/>
    <path d="M656.085,281.168C655.278,280.34 654.875,279.188 654.875,277.712L654.875,232.568L688.341,232.568L688.341,237.126L660.145,237.126L660.145,254.644L686.202,254.644L686.202,259.201L660.145,259.201L660.145,277.856L688.341,277.856L688.341,282.414L659.505,282.414C658.036,282.414 656.891,281.996 656.085,281.168Z" style="fill:white;fill-rule:nonzero;"/>
    <path d="M644.11,46.067L688.455,46.067L688.455,66.033L669.634,66.033L669.634,179.267L688.455,179.267L688.455,199.233L644.11,199.233L644.11,46.067Z" style="fill:white;fill-rule:nonzero;"/>
    <path d="M695.411,123.468C695.411,96.958 715.866,78.137 743.852,78.137C771.839,78.137 792.128,96.958 792.128,123.468C792.128,149.978 771.839,168.799 743.852,168.799C715.866,168.799 695.411,149.978 695.411,123.468ZM766.266,123.468C766.266,108.247 756.611,99.089 743.845,99.089C731.079,99.089 721.266,108.254 721.266,123.468C721.266,138.682 731.087,147.847 743.845,147.847C756.603,147.847 766.266,138.682 766.266,123.468Z" style="fill:white;fill-rule:nonzero;"/>
    <path d="M800.625,159.309L809.135,140.985C816.99,146.061 828.935,149.496 839.735,149.496C851.514,149.496 855.935,146.385 855.935,141.475C855.935,127.075 802.749,141.799 802.749,106.62C802.749,89.93 817.804,78.144 843.493,78.144C855.604,78.144 869.024,80.923 877.369,85.833L868.859,103.999C860.183,99.088 851.514,97.454 843.493,97.454C832.038,97.454 827.128,101.054 827.128,105.633C827.128,120.688 880.314,106.123 880.314,140.812C880.314,157.178 865.093,168.792 838.749,168.792C823.859,168.792 808.804,164.702 800.625,159.302L800.625,159.309Z" style="fill:white;fill-rule:nonzero;"/>
    <path d="M887.269,199.233L887.269,179.267L905.924,179.267L905.924,66.033L887.269,66.033L887.269,46.067L931.448,46.067L931.448,199.233L887.269,199.233Z" style="fill:white;fill-rule:nonzero;"/>
    <path d="M217.396,84.127C179.135,84.127 151.631,108.326 151.631,142.656C151.631,176.985 179.135,201.393 217.396,201.393C255.656,201.393 283.16,176.993 283.16,142.656C283.16,108.319 255.865,84.127 217.396,84.127ZM217.396,167.165C203.917,167.165 192.988,156.235 192.988,142.757C192.988,129.278 203.917,118.349 217.396,118.349C230.874,118.349 241.804,129.278 241.804,142.757C241.804,156.235 230.874,167.165 217.396,167.165Z" style="fill:white;fill-rule:nonzero;"/>
    <path d="M428.175,118.385L428.175,199.32L474.91,199.32L474.91,118.32L428.175,118.385Z" style="fill:white;fill-rule:nonzero;"/>
    <path d="M474.91,103.783L474.91,86.193L428.175,86.193L428.175,116.268L474.91,103.783Z" style="fill:white;fill-rule:nonzero;"/>
    <path d="M571.023,46.089L571.124,90.175L571.095,90.175L571.095,130.682C573.14,134.274 574.321,138.429 574.321,142.864C574.321,156.465 563.291,167.495 549.69,167.495C536.089,167.495 525.059,156.465 525.059,142.864C525.059,129.263 536.089,118.233 549.69,118.233C555.968,118.233 561.692,120.58 566.041,124.446L555.644,85.451C551.619,84.436 547.177,83.695 542.015,83.695C512.171,83.695 486.913,106.029 486.913,142.756C486.913,179.483 512.163,202.026 542.015,202.026C556.206,202.026 565.263,199.607 573.32,195.266L573.32,199.312L618.191,199.312L618.191,46.089L571.023,46.089Z" style="fill:white;fill-rule:nonzero;"/>
    <path d="M337.549,97.137L329.168,86.193L278.502,86.193L319.751,140.049L337.549,97.137Z" style="fill:white;fill-rule:nonzero;"/>
    <path d="M374.572,145.471L356.766,188.376L365.147,199.32L415.813,199.32L374.572,145.471Z" style="fill:white;fill-rule:nonzero;"/>
    <path d="M415.813,86.193L365.147,86.193L278.502,199.32L329.168,199.32L415.813,86.193Z" style="fill:white;fill-rule:nonzero;"/>
</svg>
