<svg width="112" height="33" viewBox="0 0 112 33" fill="none" xmlns="http://www.w3.org/2000/svg">
<g clip-path="url(#clip0_2087_28634)">
<path d="M2.85169 16.7222C2.80475 16.7221 2.75868 16.7096 2.71812 16.686C2.67756 16.6624 2.64394 16.6285 2.62066 16.5877C2.59737 16.547 2.58524 16.5008 2.58549 16.4539C2.58575 16.4069 2.59837 16.3609 2.62209 16.3204L6.97362 8.76247C6.99122 8.73206 7.01464 8.70541 7.04254 8.68404C7.07045 8.66268 7.10228 8.64702 7.13623 8.63796C7.17019 8.62889 7.20559 8.62661 7.24043 8.63123C7.27526 8.63585 7.30885 8.64729 7.33926 8.66489C7.36968 8.68249 7.39633 8.70591 7.4177 8.73381C7.43906 8.76171 7.45472 8.79355 7.46378 8.8275C7.47284 8.86146 7.47513 8.89686 7.47051 8.9317C7.46589 8.96653 7.45445 9.00012 7.43685 9.03053L3.08301 16.5856C3.06007 16.6269 3.02654 16.6613 2.98588 16.6853C2.94523 16.7093 2.89891 16.722 2.85169 16.7222ZM4.13689 16.7222C4.09002 16.7219 4.04406 16.7093 4.0036 16.6856C3.96314 16.662 3.92961 16.6281 3.90636 16.5874C3.8831 16.5467 3.87095 16.5007 3.87111 16.4538C3.87128 16.4069 3.88375 16.3609 3.90728 16.3204L7.59814 9.88752C7.63346 9.8261 7.69173 9.78122 7.76014 9.76275C7.82855 9.74429 7.9015 9.75376 7.96292 9.78908C8.02435 9.8244 8.06923 9.88267 8.08769 9.95108C8.10615 10.0195 8.09668 10.0924 8.06136 10.1539L4.36879 16.5856C4.3457 16.6269 4.31206 16.6613 4.27132 16.6853C4.23057 16.7093 4.18418 16.722 4.13689 16.7222ZM5.47202 16.7222C5.42502 16.7223 5.37884 16.7098 5.33828 16.686C5.3079 16.6684 5.2813 16.645 5.25998 16.617C5.23866 16.5891 5.22306 16.5573 5.21405 16.5233C5.20504 16.4894 5.20281 16.454 5.20748 16.4192C5.21215 16.3843 5.22363 16.3508 5.24127 16.3204L8.29613 11.066C8.31292 11.034 8.33601 11.0058 8.36399 10.983C8.39197 10.9602 8.42427 10.9433 8.45895 10.9334C8.49363 10.9234 8.52997 10.9205 8.56578 10.925C8.60159 10.9294 8.63614 10.941 8.66733 10.9592C8.69853 10.9773 8.72574 11.0016 8.74731 11.0305C8.76888 11.0594 8.78438 11.0924 8.79287 11.1275C8.80136 11.1626 8.80267 11.199 8.79671 11.2346C8.79075 11.2702 8.77766 11.3042 8.75821 11.3346L5.70335 16.5867C5.68016 16.6277 5.64655 16.6618 5.60593 16.6856C5.5653 16.7094 5.5191 16.722 5.47202 16.7222ZM6.8307 16.7222C6.78437 16.7224 6.73883 16.7103 6.69867 16.6872C6.6681 16.6696 6.6413 16.6461 6.61983 16.6181C6.59835 16.5902 6.58263 16.5582 6.57356 16.5241C6.56449 16.49 6.56225 16.4545 6.56698 16.4195C6.5717 16.3845 6.5833 16.3509 6.60109 16.3204L8.93156 12.2341C8.94806 12.202 8.97089 12.1735 8.99867 12.1505C9.02645 12.1274 9.05861 12.1102 9.09322 12.0999C9.12782 12.0896 9.16415 12.0865 9.20001 12.0906C9.23587 12.0947 9.27053 12.106 9.3019 12.1239C9.33326 12.1418 9.36068 12.1658 9.38251 12.1946C9.40434 12.2233 9.42012 12.2562 9.42891 12.2912C9.43769 12.3262 9.4393 12.3627 9.43363 12.3983C9.42797 12.434 9.41514 12.4681 9.39593 12.4987L7.06546 16.585C7.04222 16.6268 7.00816 16.6616 6.96686 16.6858C6.92556 16.7099 6.87853 16.7225 6.8307 16.7222ZM0.26694 21.1995C0.198216 21.1963 0.133363 21.1667 0.0858557 21.117C0.0383485 21.0672 0.0118408 21.0011 0.0118408 20.9323C0.0118408 20.8635 0.0383485 20.7973 0.0858557 20.7475C0.133363 20.6978 0.198216 20.6682 0.26694 20.6651L8.82307 20.6553C8.89179 20.6585 8.95665 20.688 9.00415 20.7378C9.05166 20.7875 9.07817 20.8537 9.07817 20.9225C9.07817 20.9913 9.05166 21.0574 9.00415 21.1072C8.95665 21.157 8.89179 21.1865 8.82307 21.1897L0.267514 21.1995H0.26694ZM0.928768 20.0991C0.860045 20.0959 0.795192 20.0664 0.747684 20.0166C0.700177 19.9668 0.673669 19.9007 0.673669 19.8319C0.673669 19.7631 0.700177 19.6969 0.747684 19.6472C0.795192 19.5974 0.860045 19.5679 0.928768 19.5647L8.18018 19.5423C8.24891 19.5455 8.31376 19.575 8.36127 19.6248C8.40877 19.6746 8.43528 19.7407 8.43528 19.8095C8.43528 19.8783 8.40877 19.9444 8.36127 19.9942C8.31376 20.044 8.24891 20.0735 8.18018 20.0767L0.928768 20.0991ZM7.51261 18.9207L1.60036 18.9046C1.56422 18.9063 1.52813 18.9006 1.49425 18.8879C1.46037 18.8752 1.42942 18.8558 1.40326 18.8309C1.3771 18.8059 1.35627 18.7759 1.34204 18.7426C1.32782 18.7093 1.32048 18.6736 1.32048 18.6374C1.32048 18.6012 1.32782 18.5654 1.34204 18.5322C1.35627 18.4989 1.3771 18.4689 1.40326 18.4439C1.42942 18.4189 1.46037 18.3995 1.49425 18.3868C1.52813 18.3742 1.56422 18.3685 1.60036 18.3702L7.51261 18.3863C7.58134 18.3894 7.64619 18.419 7.6937 18.4687C7.74121 18.5185 7.76771 18.5847 7.76771 18.6535C7.76771 18.7222 7.74121 18.7884 7.6937 18.8382C7.64619 18.8879 7.58134 18.9175 7.51261 18.9207ZM2.29605 17.7698C2.22733 17.7666 2.16247 17.737 2.11497 17.6873C2.06746 17.6375 2.04095 17.5714 2.04095 17.5026C2.04095 17.4338 2.06746 17.3676 2.11497 17.3179C2.16247 17.2681 2.22733 17.2386 2.29605 17.2354L6.83586 17.2084C6.90459 17.2116 6.96944 17.2411 7.01695 17.2909C7.06445 17.3406 7.09096 17.4068 7.09096 17.4756C7.09096 17.5444 7.06445 17.6105 7.01695 17.6603C6.96944 17.7101 6.90459 17.7396 6.83586 17.7428L2.29605 17.7698ZM14.0345 21.1954C13.9872 21.1954 13.9408 21.1829 13.9 21.1591C13.8591 21.1353 13.8253 21.1011 13.802 21.06L9.53943 13.5698C9.50792 13.5085 9.5013 13.4373 9.52095 13.3713C9.5406 13.3052 9.58501 13.2492 9.64491 13.2151C9.7048 13.181 9.77557 13.1713 9.84243 13.1881C9.9093 13.2048 9.96711 13.2468 10.0038 13.3052L14.2664 20.7977C14.3014 20.8592 14.3105 20.932 14.2918 21.0003C14.273 21.0685 14.228 21.1265 14.1665 21.1616C14.1262 21.1842 14.0807 21.1959 14.0345 21.1954ZM12.7498 21.1725C12.7026 21.1726 12.6562 21.1601 12.6154 21.1364C12.5745 21.1127 12.5407 21.0786 12.5174 21.0376L8.89712 14.6828C8.8779 14.6522 8.86508 14.6181 8.85941 14.5824C8.85374 14.5468 8.85535 14.5103 8.86414 14.4753C8.87292 14.4403 8.8887 14.4074 8.91053 14.3787C8.93236 14.3499 8.95978 14.3259 8.99115 14.308C9.02251 14.2901 9.05717 14.2788 9.09303 14.2747C9.1289 14.2706 9.16523 14.2737 9.19983 14.284C9.23443 14.2943 9.26659 14.3115 9.29437 14.3346C9.32216 14.3576 9.34499 14.386 9.36149 14.4182L12.9823 20.773C13.0173 20.8346 13.0265 20.9075 13.0078 20.9759C12.989 21.0442 12.944 21.1023 12.8824 21.1375C12.8421 21.1607 12.7964 21.1727 12.7498 21.1725ZM11.3797 21.1891C11.3322 21.1893 11.2855 21.1767 11.2445 21.1526C11.2035 21.1286 11.1697 21.094 11.1466 21.0525L8.22783 15.8377C8.19544 15.776 8.18842 15.704 8.20826 15.6372C8.22809 15.5704 8.27323 15.514 8.33404 15.4799C8.39486 15.4459 8.46656 15.437 8.53388 15.455C8.60121 15.473 8.65883 15.5166 8.69449 15.5765L11.6127 20.7913C11.6356 20.832 11.6474 20.8779 11.647 20.9245C11.6466 20.9712 11.634 21.0169 11.6104 21.0571C11.5868 21.0974 11.5531 21.1307 11.5127 21.1539C11.4722 21.177 11.4263 21.1892 11.3797 21.1891ZM10.0503 21.1558C10.003 21.1559 9.95655 21.1434 9.91569 21.1196C9.87484 21.0958 9.84106 21.0615 9.81782 21.0204L7.54878 17.0167C7.51765 16.9553 7.51136 16.8843 7.53123 16.8184C7.55109 16.7526 7.59558 16.6969 7.65545 16.6629C7.71532 16.629 7.78595 16.6195 7.85267 16.6363C7.9194 16.6531 7.97708 16.695 8.01372 16.7532L10.2828 20.7569C10.3001 20.7874 10.3113 20.821 10.3156 20.8559C10.3199 20.8907 10.3173 20.926 10.3079 20.9599C10.2985 20.9937 10.2825 21.0253 10.2609 21.0529C10.2392 21.0806 10.2123 21.1036 10.1817 21.1208C10.1418 21.144 10.0964 21.1561 10.0503 21.1558ZM24.0888 8.92893H18.7752V21.056H20.294V16.3818H24.0888C26.08 16.3818 27.7004 14.7103 27.7004 12.6554C27.7004 10.6004 26.08 8.92893 24.0888 8.92893ZM24.0888 14.8142H20.294V10.4965H24.0888C25.2425 10.4965 26.181 11.4649 26.181 12.6554C26.181 13.8459 25.2425 14.8142 24.0888 14.8142ZM32.0295 12.0337C29.5665 12.0337 27.5626 14.1002 27.5626 16.6424C27.5626 19.1847 29.5665 21.2505 32.0295 21.2505C34.4926 21.2505 36.4953 19.1841 36.4953 16.643C36.4953 14.1019 34.4903 12.0337 32.0295 12.0337ZM34.9759 16.643C34.9759 18.3197 33.6557 19.6852 32.0295 19.6852C30.4034 19.6852 29.082 18.3214 29.082 16.643C29.082 14.9646 30.4022 13.6008 32.0295 13.6008C33.6569 13.6008 34.9742 14.9663 34.9742 16.643H34.9759ZM37.5836 8.92893H39.1024V21.0565H37.5836V8.92893ZM47.6488 12.2277V13.1875C46.8457 12.4477 45.7944 12.036 44.7025 12.0337C42.24 12.0337 40.2361 14.1002 40.2361 16.6424C40.2361 19.1847 42.24 21.2505 44.7025 21.2505C45.7944 21.2482 46.8457 20.8366 47.6488 20.0968V21.0565H49.1682V12.2277H47.6488ZM47.6488 16.6424C47.6488 18.3191 46.3286 19.6847 44.7025 19.6847C43.0763 19.6847 41.7549 18.3208 41.7549 16.6424C41.7549 14.964 43.0751 13.6002 44.7025 13.6002C46.3298 13.6002 47.6488 14.9658 47.6488 16.6424ZM55.2969 12.055C54.6818 12.1144 54.086 12.3021 53.5479 12.606C53.0099 12.9099 52.5415 13.3233 52.1731 13.8195V12.2277H50.6537V21.0571H52.1731V16.9616C52.1731 15.1822 53.5783 13.7018 55.3049 13.657H55.3726V12.0498L55.2969 12.055ZM65.4516 14.3866L61.8928 13.3826C61.1913 13.1289 61.0318 12.4924 61.1156 11.9815C61.2585 11.1165 62.1281 10.2428 63.7485 10.2428C64.7048 10.2428 65.42 10.4937 65.8724 10.989C66.3723 11.5338 66.4601 12.2742 66.4751 12.5676L66.4791 12.6502L67.9801 12.3471L67.9744 12.2823C67.9129 11.6348 67.692 10.7003 66.9899 9.92885C66.2369 9.09597 65.1457 8.67522 63.7474 8.67522C61.2401 8.67522 59.866 10.2038 59.6145 11.7175C59.3815 13.1301 60.1122 14.3986 61.4376 14.8745L65.063 15.8991C66.211 16.1976 66.8774 16.9845 66.7667 17.9081C66.6519 18.8575 65.7185 19.8155 63.8886 19.8155C62.7744 19.8155 61.937 19.5193 61.4026 18.9356C61.0582 18.5608 60.8343 18.0671 60.7373 17.469L60.7258 17.3961L59.2374 17.698L59.2489 17.7675C59.3999 18.656 59.7494 19.4068 60.2867 19.9992C61.1196 20.9176 62.3319 21.3843 63.8903 21.3843C66.6323 21.3843 68.0857 19.6829 68.2757 18.1021C68.4502 16.6648 67.6437 14.956 65.4516 14.3866ZM70.609 8.93123C70.0672 8.93123 69.6269 9.38584 69.6269 9.94492C69.6269 10.504 70.0672 10.9586 70.609 10.9586C71.1509 10.9586 71.5917 10.504 71.5917 9.94492C71.5917 9.38584 71.1509 8.93123 70.609 8.93123ZM69.8496 12.2277H71.369V21.0565H69.8496V12.2277ZM80.1433 12.2277V13.1875C79.3402 12.4477 78.2888 12.036 77.1969 12.0337C74.7344 12.0337 72.7306 14.1002 72.7306 16.6418C72.7306 19.1835 74.7344 21.2505 77.1969 21.2505C78.2889 21.2481 79.3402 20.8362 80.1433 20.0962V22.4118C80.144 22.4625 80.1348 22.5129 80.1161 22.56C80.0974 22.6072 80.0696 22.6502 80.0342 22.6866C79.9989 22.723 79.9567 22.7521 79.9101 22.7722C79.8635 22.7923 79.8135 22.8031 79.7627 22.8038H74.3986V24.3714H79.7627C80.8103 24.3714 81.6627 23.4926 81.6627 22.4118V12.2277H80.1433ZM80.1433 16.6418C80.1433 18.3191 78.8231 19.6841 77.1969 19.6841C75.5708 19.6841 74.25 18.3202 74.25 16.6418C74.25 14.9635 75.5702 13.5996 77.1969 13.5996C78.8236 13.5996 80.1433 14.9658 80.1433 16.6418ZM87.3161 12.0337C86.7546 12.0365 86.2016 12.1709 85.7015 12.4261C85.2014 12.6813 84.768 13.0502 84.4363 13.5032V12.2277H82.9169V21.056H84.4363V16.2004C84.4363 14.793 85.5458 13.6478 86.9102 13.6478C88.2747 13.6478 89.3842 14.7958 89.3842 16.2004V21.056H90.9484V15.7808C90.9472 13.7144 89.3182 12.0337 87.3161 12.0337ZM99.3851 12.2277V13.1875C98.5818 12.4476 97.5303 12.0359 96.4382 12.0337C93.9757 12.0337 91.9718 14.1002 91.9718 16.6424C91.9718 19.1847 93.9757 21.2505 96.4382 21.2505C97.5303 21.2484 98.5818 20.8367 99.3851 20.0968V21.0565H100.904V12.2277H99.3851ZM99.3851 16.6424C99.3851 18.3191 98.0649 19.6847 96.4382 19.6847C94.8114 19.6847 93.4906 18.3208 93.4906 16.6424C93.4906 14.964 94.8109 13.6002 96.4382 13.6002C98.0655 13.6002 99.3851 14.9658 99.3851 16.6424ZM102.347 8.92893H103.866V21.0565H102.347V8.92893ZM109.818 15.7831L107.317 15.0943C106.889 14.9428 106.882 14.584 106.915 14.3843C106.999 13.882 107.539 13.3758 108.555 13.3758C109.167 13.3758 109.618 13.525 109.896 13.8195C110.126 14.0651 110.213 14.3808 110.241 14.6024L110.26 14.7419L111.763 14.5381L111.745 14.3963C111.66 13.7506 111.415 13.2036 111.013 12.7719C110.439 12.1531 109.611 11.8391 108.558 11.8391C106.654 11.8391 105.608 12.9872 105.416 14.1266C105.232 15.2172 105.813 16.193 106.867 16.5655L109.435 17.2715C110.128 17.4483 110.535 17.8926 110.472 18.404C110.403 18.9585 109.817 19.5182 108.66 19.5182C107.934 19.5182 107.397 19.338 107.064 18.9821C106.852 18.7571 106.713 18.4574 106.653 18.0906L106.607 17.81L105.11 18.105L105.157 18.3748C105.272 19.032 105.537 19.5894 105.949 20.0314C106.58 20.7121 107.499 21.0571 108.66 21.0571C110.735 21.0571 111.837 19.7805 111.983 18.5946C112.117 17.5023 111.5 16.2096 109.818 15.7831Z" fill="white"/>
</g>
<defs>
<clipPath id="clip0_2087_28634">
<rect width="112" height="32" fill="white" transform="translate(0 0.139893)"/>
</clipPath>
</defs>
</svg>
