<?xml version="1.0" encoding="UTF-8" standalone="no"?>
<!DOCTYPE svg PUBLIC "-//W3C//DTD SVG 1.1//EN" "http://www.w3.org/Graphics/SVG/1.1/DTD/svg11.dtd">
<svg width="100%" height="100%" viewBox="0 0 598 192" version="1.1" xmlns="http://www.w3.org/2000/svg" xmlns:xlink="http://www.w3.org/1999/xlink" xml:space="preserve" xmlns:serif="http://www.serif.com/" style="fill-rule:evenodd;clip-rule:evenodd;stroke-linejoin:round;stroke-miterlimit:2;">
    <g transform="matrix(1,0,0,1,-0.370727,0)">
        <path d="M23.601,141.586C26.092,122.843 28.281,104.176 31.956,85.607C36.166,64.362 43.03,41.242 61.448,29.844C65.934,27.066 71.068,25.109 76.343,25.142C84.666,25.19 92.329,30.206 97.572,36.675C102.814,43.144 106.013,50.975 109.148,58.703C104.495,50.532 91.119,52.823 85.331,60.233C79.542,67.642 78.678,77.597 76.44,86.715C70.209,112.083 51.039,133.906 26.676,143.337C23.363,144.634 23.406,143.051 23.601,141.586Z" style="fill:white;fill-rule:nonzero;"/>
        <path d="M58.427,120.914C59.016,115.704 59.362,110.289 57.049,105.463C52.812,96.616 44.943,90.454 37.798,84.088C14.181,63.059 0.189,31.622 0.373,0C3.939,12.306 14.608,21.25 25.773,27.514C36.939,33.778 49.196,38.193 59.622,45.635C70.047,53.077 79.553,62.189 78.986,74.992C78.997,74.992 75.986,101.885 58.427,120.914Z" style="fill:white;fill-rule:nonzero;"/>
        <path d="M104.197,138.224C105.224,139.271 106.383,140.179 107.645,140.926C108.784,141.608 109.975,142.199 111.207,142.694C112.182,143.095 113.186,143.42 114.212,143.667C114.79,143.821 115.382,143.92 115.979,143.964C116.725,143.964 117.676,143.931 118.832,143.872C119.959,143.816 121.075,143.635 122.162,143.331C123.173,143.065 124.11,142.572 124.902,141.888C125.29,141.532 125.595,141.093 125.793,140.604C125.991,140.115 126.078,139.589 126.047,139.062C126.094,138.143 125.868,137.232 125.399,136.441C124.914,135.747 124.269,135.182 123.518,134.792C122.551,134.285 121.533,133.881 120.481,133.587C119.288,133.227 117.944,132.814 116.449,132.35C112.383,131.344 108.463,129.82 104.786,127.815C102.022,126.289 99.558,124.275 97.512,121.87C95.791,119.813 94.517,117.421 93.772,114.845C93.05,112.256 92.686,109.582 92.691,106.895C92.651,103.82 93.317,100.776 94.637,97.999C95.943,95.317 97.843,92.968 100.192,91.13C102.76,89.137 105.675,87.64 108.791,86.714C114.668,85.024 120.853,84.701 126.874,85.769C129.005,86.171 131.08,86.824 133.057,87.714C135.091,88.639 137.017,89.785 138.802,91.13C140.789,92.634 142.649,94.298 144.363,96.107C144.948,96.704 145.312,97.481 145.395,98.312C145.417,99.004 144.976,99.741 144.071,100.523C142.54,101.784 141.077,103.021 139.683,104.236C138.288,105.45 136.847,106.805 135.359,108.3C134.955,108.658 134.469,108.91 133.943,109.035C133.497,109.133 133.033,109.122 132.592,109.002C132.148,108.881 131.729,108.682 131.355,108.413C130.946,108.137 130.581,107.8 130.274,107.413C129.022,105.964 127.389,104.893 125.561,104.322C123.96,103.819 122.294,103.551 120.616,103.528C119.023,103.452 117.439,103.797 116.022,104.527C115.482,104.822 115.042,105.271 114.758,105.817C114.474,106.362 114.359,106.98 114.428,107.592C114.444,108.047 114.554,108.494 114.752,108.905C114.95,109.315 115.232,109.68 115.579,109.975C116.335,110.583 117.193,111.052 118.114,111.359C119.15,111.723 120.212,112.009 121.291,112.213C122.41,112.429 123.453,112.677 124.383,112.948C127.693,114.001 130.941,115.24 134.111,116.66C136.902,117.895 139.485,119.554 141.769,121.579C143.924,123.52 145.641,125.899 146.806,128.556C147.998,131.269 148.597,134.567 148.6,138.451C148.661,142.061 147.864,145.634 146.276,148.876C144.755,151.899 142.57,154.537 139.883,156.594C136.999,158.774 133.735,160.399 130.257,161.388C126.363,162.505 122.327,163.051 118.276,163.009C115.789,163.004 113.306,162.789 110.855,162.366C108.353,161.944 105.903,161.254 103.549,160.307C101.174,159.335 98.922,158.089 96.836,156.594C94.686,155.053 92.78,153.196 91.183,151.087C90.767,150.565 90.439,149.979 90.21,149.352C90,148.776 89.901,148.165 89.918,147.552C89.928,146.994 90.048,146.443 90.27,145.931C90.497,145.425 90.853,144.987 91.302,144.661L98.895,137.068C99.841,136.284 100.673,135.987 101.403,136.246C102.46,136.707 103.411,137.381 104.197,138.224Z" style="fill:white;fill-rule:nonzero;"/>
        <path d="M171.515,75.03C171.479,74.51 171.57,73.99 171.78,73.514C171.99,73.037 172.313,72.619 172.72,72.295C173.781,71.554 174.942,70.968 176.168,70.555L189.539,65.902C189.717,65.866 189.898,65.846 190.08,65.842L190.582,65.842C192.036,65.842 193.003,66.269 193.495,67.112C194.03,68.136 194.286,69.282 194.236,70.436L194.176,86.65L202.245,86.65C203.373,86.602 204.473,87.005 205.304,87.768C206.093,88.514 206.482,89.633 206.482,91.124L206.482,102.474C206.482,104.122 206.093,105.327 205.304,106.095C204.897,106.481 204.416,106.782 203.891,106.979C203.365,107.175 202.806,107.265 202.245,107.241L194.192,107.241L194.252,156.962C194.252,158.453 193.819,159.583 192.955,160.35C191.94,161.164 190.659,161.572 189.361,161.496L176.05,161.496C173.03,161.496 171.519,159.984 171.515,156.962L171.456,107.241L165.392,107.241C162.366,107.241 160.854,105.652 160.858,102.474L160.858,91.13C160.858,88.147 162.369,86.655 165.392,86.655L171.456,86.655L171.515,75.03Z" style="fill:white;fill-rule:nonzero;"/>
        <path d="M218.81,124.151C218.797,120.629 219.262,117.122 220.193,113.726C221.942,107.274 225.354,101.394 230.089,96.675C232.414,94.346 235.038,92.336 237.893,90.698C243.885,87.273 250.674,85.485 257.576,85.515C262.637,85.483 267.655,86.452 272.34,88.367C277.025,90.283 281.284,93.106 284.874,96.675C288.38,100.195 291.179,104.354 293.121,108.927C295.167,113.739 296.199,118.922 296.153,124.151C296.167,127.662 295.702,131.159 294.769,134.544C293.878,137.791 292.572,140.91 290.883,143.823C287.544,149.551 282.77,154.31 277.032,157.632C271.125,161.067 264.409,162.867 257.576,162.847C254.067,162.859 250.572,162.403 247.183,161.49C243.935,160.617 240.817,159.32 237.909,157.632C232.175,154.309 227.405,149.55 224.068,143.823C222.378,140.911 221.072,137.792 220.182,134.544C219.253,131.158 218.792,127.662 218.81,124.151ZM240.303,124.151C240.285,126.627 240.695,129.088 241.514,131.425C242.258,133.583 243.419,135.573 244.929,137.284C246.422,138.949 248.247,140.283 250.285,141.202C252.52,142.192 254.943,142.684 257.387,142.645C259.771,142.681 262.133,142.188 264.304,141.202C266.31,140.283 268.097,138.947 269.547,137.284C271.02,135.567 272.14,133.576 272.843,131.425C274.378,126.727 274.378,121.662 272.843,116.963C272.127,114.774 271.009,112.738 269.547,110.959C268.07,109.173 266.21,107.743 264.105,106.774C262,105.806 259.703,105.324 257.387,105.365C254.936,105.324 252.509,105.838 250.285,106.868C248.229,107.834 246.403,109.229 244.929,110.959C243.43,112.732 242.272,114.768 241.514,116.963C240.695,119.271 240.278,121.702 240.281,124.151L240.303,124.151Z" style="fill:white;fill-rule:nonzero;"/>
        <path d="M361.514,138.462C361.976,138.11 362.506,137.86 363.071,137.727C363.449,137.643 363.835,137.595 364.222,137.581C364.855,137.573 365.48,137.714 366.049,137.992C366.757,138.428 367.345,139.036 367.756,139.759L374.35,149.714C374.554,150.062 374.734,150.423 374.89,150.795C375.039,151.088 375.129,151.408 375.155,151.735C375.17,152.143 375.102,152.548 374.955,152.928C374.808,153.308 374.586,153.655 374.301,153.946C373.735,154.51 373.112,155.014 372.442,155.448C369.177,157.716 365.621,159.534 361.871,160.853C357.963,162.219 353.851,162.907 349.711,162.885C346.259,162.894 342.821,162.438 339.491,161.528C336.282,160.654 333.203,159.356 330.336,157.67C327.504,156 324.891,153.983 322.559,151.665C320.216,149.345 318.197,146.72 316.555,143.861C314.883,140.93 313.588,137.799 312.701,134.544C310.856,127.727 310.856,120.543 312.701,113.726C313.587,110.483 314.884,107.366 316.56,104.452C318.208,101.605 320.227,98.99 322.564,96.675C324.893,94.361 327.506,92.353 330.341,90.698C336.227,87.286 342.913,85.497 349.716,85.515C353.743,85.476 357.753,86.052 361.606,87.223C365.255,88.371 368.702,90.079 371.826,92.287L371.648,92.114C372.448,92.566 373.149,93.177 373.707,93.908C374.238,94.654 374.508,95.554 374.474,96.47C374.448,97.243 374.202,97.992 373.766,98.631L368.524,107.527C367.443,109.451 366.108,110.413 364.519,110.413C364.077,110.394 363.641,110.304 363.227,110.148C362.62,109.921 362.046,109.614 361.52,109.235C359.778,108.091 357.91,107.152 355.953,106.435C353.922,105.705 351.778,105.339 349.619,105.354C347.257,105.328 344.921,105.842 342.788,106.857C340.742,107.828 338.926,109.223 337.459,110.948C335.959,112.727 334.791,114.761 334.011,116.952C332.368,121.633 332.368,126.734 334.011,131.415C334.777,133.569 335.948,135.557 337.459,137.273C338.987,138.982 340.862,140.344 342.959,141.268C345.057,142.193 347.327,142.659 349.619,142.634C351.78,142.654 353.925,142.258 355.937,141.467C357.902,140.675 359.772,139.668 361.514,138.462Z" style="fill:white;fill-rule:nonzero;"/>
        <path d="M392.146,68.972C392.146,68.301 392.146,67.696 392.206,67.145C392.222,66.635 392.389,66.142 392.687,65.729C393.045,65.292 393.528,64.973 394.07,64.816C394.931,64.568 395.824,64.459 396.719,64.491L410.77,64.491C411.41,64.467 412.046,64.599 412.624,64.875C413.084,65.105 413.487,65.436 413.802,65.842C414.088,66.218 414.289,66.652 414.391,67.112C414.485,67.528 414.534,67.952 414.537,68.377L414.537,111.959L435.777,88.428C436.223,87.893 436.782,87.462 437.413,87.167C438.045,86.872 438.733,86.719 439.43,86.72L457.54,86.72C459.702,86.72 460.783,87.565 460.783,89.254C460.799,89.626 460.729,89.996 460.578,90.335C460.334,90.757 460.048,91.151 459.724,91.513L435.517,117.071L465.966,156.178L465.847,156.178C466.306,156.623 466.673,157.154 466.928,157.74C467.128,158.195 467.238,158.685 467.252,159.183C467.252,160.085 467.004,160.707 466.512,161.036C465.842,161.416 465.075,161.591 464.307,161.539L444.375,161.539C443.675,161.526 443.004,161.253 442.494,160.772C441.755,160.088 441.102,159.316 440.549,158.475L421.287,131.209L414.753,137.932L414.753,156.956C414.742,157.372 414.693,157.786 414.607,158.194C414.497,158.724 414.298,159.232 414.018,159.696C413.711,160.2 413.298,160.632 412.808,160.961C412.212,161.341 411.514,161.53 410.808,161.501L396.021,161.501C395.372,161.523 394.733,161.334 394.2,160.961C393.719,160.619 393.308,160.187 392.99,159.691C392.725,159.275 392.507,158.831 392.341,158.367C392.253,158.119 392.188,157.864 392.146,157.605L392.146,68.972Z" style="fill:white;fill-rule:nonzero;"/>
        <path d="M481.125,68.972C481.088,67.836 481.42,66.719 482.071,65.788C482.698,64.927 483.779,64.497 485.314,64.497L499.743,64.497C500.176,64.506 500.6,64.617 500.981,64.821C501.433,65.052 501.841,65.361 502.186,65.734C502.576,66.15 502.896,66.626 503.132,67.145C503.39,67.719 503.519,68.342 503.51,68.972L503.51,156.956C503.51,158.448 503.089,159.577 502.246,160.345C501.349,161.123 500.19,161.532 499.003,161.49L485.341,161.49C483.809,161.49 482.728,161.108 482.098,160.345C481.467,159.581 481.152,158.451 481.152,156.956L481.125,68.972Z" style="fill:white;fill-rule:nonzero;"/>
        <path d="M518.881,92.346C518.247,90.779 518.236,89.435 518.848,88.314C519.461,87.194 520.807,86.633 522.886,86.633L537.429,86.633C537.872,86.618 538.314,86.69 538.729,86.847C539.143,87.004 539.523,87.242 539.845,87.547C540.489,88.182 540.974,88.959 541.261,89.817L557.928,137.224L574.239,89.817C574.671,88.559 575.222,87.714 575.892,87.282C576.734,86.805 577.694,86.58 578.66,86.633L593.792,86.633C594.679,86.593 595.563,86.744 596.386,87.077C596.936,87.293 597.394,87.692 597.683,88.207C597.973,88.722 598.076,89.321 597.975,89.903C597.897,90.519 597.739,91.122 597.505,91.697L592.641,103.803L587.139,117.466C585.23,122.2 583.295,127.01 581.335,131.896C579.375,136.781 577.461,141.58 575.595,146.293C573.725,151.006 571.924,155.531 570.191,159.869C568.458,164.207 566.876,168.194 565.446,171.829C564.004,175.461 562.758,178.65 561.706,181.395C560.654,184.141 559.848,186.261 559.29,187.756L559.468,187.464C559.238,188.443 558.727,189.334 557.998,190.026C557.292,190.674 556.362,191.023 555.404,190.999L541.801,190.999C540.034,190.999 538.823,190.653 538.18,189.967C537.476,189.12 537.127,188.033 537.207,186.935C537.185,186.531 537.255,186.128 537.413,185.756C537.493,185.561 537.602,185.379 537.737,185.216L546.984,161.188L518.881,92.346Z" style="fill:white;fill-rule:nonzero;"/>
    </g>
</svg>
