<svg width="137" height="32" viewBox="0 0 137 32" fill="none" xmlns="http://www.w3.org/2000/svg">
<path d="M30.2114 8.52967C28.7971 8.23026 27.5675 9.73254 27.5675 11.8961C27.5675 13.0811 27.9439 14.1692 28.5246 14.9095L27.3524 17.8851C27.087 17.7813 26.8019 17.7257 26.5027 17.7328C26.2033 17.74 25.9021 17.8098 25.6189 17.9317L24.2673 14.7141C24.9556 13.9827 25.3805 12.8892 25.3805 11.6399C25.3805 9.36142 23.9303 7.20143 22.0122 6.79445C19.9238 6.35355 18.0846 8.12641 18.0846 10.7848C18.0846 12.2403 18.6512 13.5829 19.5206 14.4971L17.7585 18.1397C17.3569 18.0124 16.9249 17.9479 16.4678 17.9586C16.0035 17.9694 15.5482 18.0572 15.1108 18.2114L13.0153 14.1979C14.0872 13.2944 14.7451 11.9445 14.7451 10.3922C14.7451 7.55987 12.4883 4.77969 9.44263 4.13605C6.05467 3.42263 3.00018 5.57738 3.00018 9.02091C3.00018 12.4645 6.05467 15.3343 9.44442 15.4114C10.0307 15.4239 10.5827 15.3522 11.0972 15.2106L13.3344 19.3139C12.2319 20.3482 11.5095 21.8683 11.5095 23.5121C11.5095 26.5128 13.8434 28.4595 16.466 27.9057C18.852 27.4019 20.6373 24.9694 20.6373 22.4437C20.6373 21.0616 20.1139 19.8516 19.266 19.0432L20.9277 15.4741C21.2755 15.6104 21.6393 15.6875 22.0105 15.6964C22.3761 15.7054 22.7239 15.6444 23.0466 15.5297L24.4699 18.8047C23.7654 19.6203 23.3082 20.8232 23.3082 22.1299C23.3082 24.5159 24.7979 26.1436 26.5009 25.7832C28.0783 25.4499 29.2776 23.5067 29.2776 21.4326C29.2776 20.2962 28.9244 19.2977 28.3544 18.6273L29.4729 15.7018C29.7096 15.813 29.957 15.8757 30.2096 15.8811C31.5273 15.9116 32.5365 14.3824 32.5365 12.477C32.5365 10.5715 31.5273 8.80756 30.2096 8.52788L30.2114 8.52967ZM30.2114 14.3645C30.1399 14.3609 30.0681 14.3465 30 14.3286C29.8207 14.2803 29.6522 14.1817 29.4962 14.0473C29.3366 13.9074 29.1934 13.7264 29.0732 13.5166C28.842 13.1062 28.7003 12.5844 28.7003 12.0288C28.7003 10.792 29.3922 9.90466 30.2114 10.0462C30.9967 10.1824 31.6133 11.2221 31.6133 12.3694C31.6133 13.5166 30.9967 14.4129 30.2114 14.3645ZM26.5027 24.1233C25.5185 24.2936 24.6832 23.331 24.6832 21.9705C24.6832 21.3591 24.8553 20.7837 25.1349 20.3321C25.2783 20.099 25.4504 19.9018 25.6422 19.7476C25.8286 19.597 26.0347 19.4896 26.2481 19.434C26.3306 19.4143 26.4148 19.3999 26.5009 19.3946C26.5869 19.3892 26.6694 19.3946 26.7517 19.4035C26.9597 19.4322 27.1534 19.5111 27.3273 19.6329C27.503 19.7548 27.657 19.9197 27.7861 20.1187C28.0317 20.4969 28.1769 20.9989 28.1769 21.5635C28.1769 22.8166 27.442 23.9619 26.5009 24.1251L26.5027 24.1233ZM22.0122 13.8608C21.9065 13.8536 21.8043 13.8375 21.7021 13.8124C21.4387 13.7497 21.1877 13.6295 20.96 13.4628C20.7233 13.2908 20.5119 13.0667 20.3362 12.8085C19.9902 12.3031 19.7804 11.6632 19.7804 10.9855C19.7804 9.47616 20.8058 8.42389 22.0105 8.63186C23.1577 8.82908 24.0487 10.1053 24.0487 11.4839C24.0487 12.1041 23.8712 12.6561 23.5736 13.0721C23.4194 13.289 23.2293 13.47 23.0161 13.6044C22.8046 13.7353 22.5679 13.8232 22.3152 13.8519C22.2148 13.8644 22.1144 13.868 22.0105 13.8608H22.0122ZM16.4678 25.8531C14.9566 26.1131 13.6641 24.9568 13.6641 23.2593C13.6641 22.4974 13.9313 21.7733 14.3651 21.2051C14.5873 20.9128 14.8527 20.6618 15.1503 20.4664C15.437 20.2765 15.7507 20.1402 16.0806 20.0667C16.2079 20.0398 16.3369 20.0201 16.4678 20.013C16.5986 20.0058 16.7241 20.0076 16.8496 20.0183C17.165 20.0506 17.4609 20.1438 17.7226 20.2908C17.988 20.4377 18.2227 20.6367 18.4145 20.8788C18.7821 21.3358 19.0007 21.9472 19.0007 22.6355C19.0007 24.1699 17.8965 25.6076 16.4695 25.8531H16.4678ZM9.44442 13.0864C7.49958 12.9663 5.82174 11.2867 5.82174 9.35245C5.82174 7.41823 7.49958 6.12944 9.44442 6.46636C11.2711 6.7819 12.6783 8.42927 12.6783 10.1555C12.6783 10.9317 12.4004 11.6166 11.9343 12.1292C11.6888 12.3981 11.3894 12.6221 11.0505 12.7852C10.7154 12.9466 10.3389 13.0506 9.93566 13.0828C9.7761 13.0954 9.61116 13.099 9.44442 13.0882V13.0864Z" fill="white"/>
<path d="M52.2099 19.2208L55.1175 8.73242H57.8171L53.3518 23.2702H51.2132L47.5581 12.2835L43.9031 23.2702H41.7645L37.2992 8.73242H39.9988L42.9064 19.2208L46.4988 8.73242H48.6175L52.2099 19.2208Z" fill="white"/>
<path d="M66.4142 12.9073H69.1354L64.9193 23.1662L63.1948 27.61H60.4737L62.3631 22.8741L58.2705 12.9055H60.9701L63.711 20.3L66.4107 12.9055L66.4142 12.9073Z" fill="white"/>
<path d="M73.3928 8.1084H70.7756V23.2699H73.3928V8.1084Z" fill="white"/>
<path d="M77.6502 8.08887C78.5429 8.08887 79.2079 8.7736 79.2079 9.62507C79.2079 10.4765 78.5429 11.1613 77.6502 11.1613C76.7575 11.1613 76.0925 10.4963 76.0925 9.62507C76.0925 8.75388 76.7772 8.08887 77.6502 8.08887ZM76.3417 23.2701V12.9073H78.9588V23.2701H76.3417Z" fill="white"/>
<path d="M81.2621 18.0988C81.2621 15.2737 83.3809 12.6565 86.9535 12.6565C90.5261 12.6565 92.645 15.2737 92.645 18.0988C92.645 20.9239 90.5261 23.5196 86.9535 23.5196C83.3809 23.5196 81.2621 20.9024 81.2621 18.0988ZM83.8166 18.0988C83.8166 19.7802 84.9386 21.3379 86.9535 21.3379C88.9684 21.3379 90.0906 19.7802 90.0906 18.0988C90.0906 16.4174 88.9684 14.8381 86.9535 14.8381C84.9386 14.8381 83.8166 16.4174 83.8166 18.0988Z" fill="white"/>
<path d="M103.132 8.1084H105.749V23.2699H103.236V21.4845C102.633 22.544 101.262 23.5192 99.4551 23.5192C96.3809 23.5192 94.2208 21.0687 94.2208 18.0984C94.2208 15.1281 96.3809 12.6561 99.4551 12.6561C101.262 12.6561 102.612 13.59 103.132 14.6907V8.1084ZM99.9534 21.359C101.678 21.359 103.132 20.0918 103.132 18.0984C103.132 16.105 101.678 14.8162 99.9534 14.8162C98.0838 14.8162 96.8379 16.2914 96.8379 18.0984C96.8379 19.9053 98.0838 21.359 99.9534 21.359Z" fill="white"/>
<path d="M114.866 15.4187H114.305C112.207 15.4187 111.23 16.6449 111.23 18.6579V23.2684H108.613V12.9056H111.146V15.148C111.645 13.5078 113.036 12.8213 114.864 12.8213V15.4169L114.866 15.4187Z" fill="white"/>
<path d="M118.021 8.08887C118.914 8.08887 119.579 8.7736 119.579 9.62507C119.579 10.4765 118.914 11.1613 118.021 11.1613C117.128 11.1613 116.463 10.4963 116.463 9.62507C116.463 8.75388 117.148 8.08887 118.021 8.08887ZM116.712 23.2701V12.9073H119.329V23.2701H116.712Z" fill="white"/>
<path d="M124.895 23.27H122.278V12.9072H124.811V14.6729C125.29 13.4682 126.64 12.658 128.258 12.658C130.75 12.658 132.143 14.4864 132.143 17.0605V23.27H129.525V17.4962C129.525 16.0208 128.86 14.9418 127.303 14.9418C125.87 14.9418 124.894 15.9797 124.894 17.4765V23.27H124.895Z" fill="white"/>
</svg>
