<?xml version="1.0" encoding="UTF-8" standalone="no"?>
<!DOCTYPE svg PUBLIC "-//W3C//DTD SVG 1.1//EN" "http://www.w3.org/Graphics/SVG/1.1/DTD/svg11.dtd">
<svg width="100%" height="100%" viewBox="0 0 937 175" version="1.1" xmlns="http://www.w3.org/2000/svg" xmlns:xlink="http://www.w3.org/1999/xlink" xml:space="preserve" xmlns:serif="http://www.serif.com/" style="fill-rule:evenodd;clip-rule:evenodd;stroke-linejoin:round;stroke-miterlimit:2;">
    <g transform="matrix(1,0,0,1,-73.8698,-77.1188)">
        <path d="M271.178,109.965C260.923,107.794 252.007,118.687 252.007,134.375C252.007,142.967 254.736,150.857 258.947,156.225L250.447,177.801C248.523,177.048 246.456,176.645 244.286,176.697C242.115,176.749 239.931,177.255 237.878,178.139L228.077,154.808C233.068,149.505 236.149,141.576 236.149,132.517C236.149,115.996 225.634,100.334 211.726,97.383C196.583,94.186 183.247,107.041 183.247,126.317C183.247,136.871 187.355,146.606 193.659,153.235L180.882,179.647C177.97,178.724 174.838,178.256 171.523,178.334C168.157,178.412 164.855,179.049 161.684,180.167L146.489,151.065C154.262,144.514 159.032,134.726 159.032,123.47C159.032,102.933 142.668,82.774 120.584,78.107C96.018,72.934 73.87,88.558 73.87,113.527C73.87,138.496 96.018,159.305 120.597,159.864C124.848,159.955 128.851,159.435 132.581,158.408L148.803,188.161C140.809,195.661 135.571,206.683 135.571,218.602C135.571,240.36 152.494,254.476 171.51,250.46C188.811,246.807 201.756,229.169 201.756,210.855C201.756,200.834 197.961,192.06 191.813,186.198L203.862,160.319C206.384,161.307 209.022,161.866 211.713,161.931C214.364,161.996 216.886,161.554 219.226,160.722L229.546,184.469C224.438,190.383 221.123,199.105 221.123,208.58C221.123,225.881 231.925,237.683 244.273,235.07C255.711,232.653 264.407,218.563 264.407,203.524C264.407,195.284 261.846,188.044 257.713,183.183L265.823,161.97C267.539,162.776 269.333,163.231 271.165,163.27C280.719,163.491 288.037,152.403 288.037,138.587C288.037,124.77 280.719,111.98 271.165,109.952L271.178,109.965ZM271.178,152.273C270.659,152.247 270.139,152.143 269.645,152.013C268.345,151.663 267.123,150.948 265.992,149.973C264.835,148.959 263.796,147.646 262.925,146.125C261.248,143.149 260.221,139.366 260.221,135.337C260.221,126.369 265.238,119.935 271.178,120.961C276.872,121.949 281.343,129.488 281.343,137.807C281.343,146.125 276.872,152.624 271.178,152.273ZM244.286,223.034C237.15,224.269 231.093,217.289 231.093,207.424C231.093,202.991 232.341,198.819 234.368,195.544C235.408,193.854 236.656,192.424 238.047,191.306C239.398,190.214 240.893,189.435 242.44,189.032C243.038,188.889 243.649,188.785 244.273,188.746C244.897,188.707 245.495,188.746 246.092,188.811C247.6,189.019 249.004,189.591 250.265,190.474C251.539,191.358 252.656,192.554 253.592,193.997C255.373,196.739 256.426,200.379 256.426,204.473C256.426,213.559 251.097,221.864 244.273,223.047L244.286,223.034ZM211.726,148.621C210.959,148.569 210.218,148.452 209.477,148.27C207.567,147.815 205.747,146.944 204.096,145.735C202.38,144.488 200.847,142.863 199.573,140.991C197.064,137.326 195.543,132.686 195.543,127.772C195.543,116.828 202.978,109.198 211.713,110.706C220.032,112.136 226.492,121.39 226.492,131.386C226.492,135.883 225.205,139.886 223.047,142.902C221.929,144.475 220.551,145.787 219.005,146.762C217.471,147.711 215.755,148.348 213.923,148.556C213.195,148.647 212.467,148.673 211.713,148.621L211.726,148.621ZM171.523,235.577C160.566,237.462 151.194,229.078 151.194,216.769C151.194,211.245 153.131,205.994 156.277,201.874C157.888,199.755 159.812,197.935 161.97,196.518C164.049,195.141 166.324,194.153 168.716,193.62C169.639,193.425 170.574,193.282 171.523,193.23C172.472,193.178 173.382,193.191 174.292,193.269C176.579,193.503 178.724,194.179 180.622,195.245C182.546,196.31 184.248,197.753 185.639,199.508C188.304,202.822 189.889,207.255 189.889,212.246C189.889,223.372 181.883,233.797 171.536,235.577L171.523,235.577ZM120.597,143.006C106.495,142.135 94.329,129.956 94.329,115.931C94.329,101.906 106.495,92.561 120.597,95.004C133.842,97.292 144.046,109.237 144.046,121.754C144.046,127.382 142.031,132.348 138.651,136.065C136.871,138.015 134.7,139.639 132.243,140.822C129.813,141.992 127.083,142.746 124.159,142.98C123.002,143.071 121.806,143.097 120.597,143.019L120.597,143.006Z" style="fill:white;fill-rule:nonzero;"/>
        <path d="M430.689,187.485L451.772,111.434L471.347,111.434L438.969,216.847L423.462,216.847L396.959,137.183L370.457,216.847L354.95,216.847L322.572,111.434L342.147,111.434L363.23,187.485L389.278,111.434L404.641,111.434L430.689,187.485Z" style="fill:white;fill-rule:nonzero;"/>
        <path d="M533.685,141.706L553.416,141.706L522.845,216.093L510.341,248.315L490.61,248.315L504.31,213.975L474.635,141.693L494.21,141.693L514.084,195.31L533.659,141.693L533.685,141.706Z" style="fill:white;fill-rule:nonzero;"/>
        <rect x="565.309" y="106.911" width="18.977" height="109.936" style="fill:white;fill-rule:nonzero;"/>
        <path d="M615.156,106.768C621.629,106.768 626.451,111.733 626.451,117.907C626.451,124.081 621.629,129.046 615.156,129.046C608.683,129.046 603.861,124.224 603.861,117.907C603.861,111.59 608.826,106.768 615.156,106.768ZM605.668,216.847L605.668,141.706L624.645,141.706L624.645,216.847L605.668,216.847Z" style="fill:white;fill-rule:nonzero;"/>
        <path d="M641.347,179.348C641.347,158.863 656.71,139.886 682.615,139.886C708.52,139.886 723.884,158.863 723.884,179.348C723.884,199.833 708.52,218.654 682.615,218.654C656.71,218.654 641.347,199.677 641.347,179.348ZM659.869,179.348C659.869,191.54 668.005,202.835 682.615,202.835C697.225,202.835 705.362,191.54 705.362,179.348C705.362,167.156 697.225,155.705 682.615,155.705C668.005,155.705 659.869,167.156 659.869,179.348Z" style="fill:white;fill-rule:nonzero;"/>
        <path d="M799.922,106.911L818.899,106.911L818.899,216.847L800.676,216.847L800.676,203.901C796.308,211.583 786.365,218.654 773.263,218.654C750.972,218.654 735.309,200.886 735.309,179.348C735.309,157.811 750.972,139.886 773.263,139.886C786.365,139.886 796.152,146.658 799.922,154.639L799.922,106.911ZM776.876,202.991C789.38,202.991 799.922,193.802 799.922,179.348C799.922,164.894 789.38,155.549 776.876,155.549C763.32,155.549 754.286,166.246 754.286,179.348C754.286,192.45 763.32,202.991 776.876,202.991Z" style="fill:white;fill-rule:nonzero;"/>
        <path d="M885.006,159.916L880.938,159.916C865.73,159.916 858.646,168.807 858.646,183.403L858.646,216.834L839.669,216.834L839.669,141.693L858.035,141.693L858.035,157.953C861.649,146.06 871.735,141.082 884.993,141.082L884.993,159.903L885.006,159.916Z" style="fill:white;fill-rule:nonzero;"/>
        <path d="M907.883,106.768C914.356,106.768 919.178,111.733 919.178,117.907C919.178,124.081 914.356,129.046 907.883,129.046C901.41,129.046 896.587,124.224 896.587,117.907C896.587,111.59 901.553,106.768 907.883,106.768ZM898.394,216.847L898.394,141.706L917.371,141.706L917.371,216.847L898.394,216.847Z" style="fill:white;fill-rule:nonzero;"/>
        <path d="M957.73,216.847L938.753,216.847L938.753,141.706L957.119,141.706L957.119,154.509C960.589,145.774 970.377,139.899 982.114,139.899C1000.18,139.899 1010.28,153.157 1010.28,171.822L1010.28,216.847L991.303,216.847L991.303,174.981C991.303,164.283 986.481,156.459 975.186,156.459C964.8,156.459 957.717,163.985 957.717,174.838L957.717,216.847L957.73,216.847Z" style="fill:white;fill-rule:nonzero;"/>
    </g>
</svg>
