<?xml version="1.0" encoding="UTF-8"?>
<svg width="200px" height="100px" viewBox="0 0 200 100" version="1.1" xmlns="http://www.w3.org/2000/svg" xmlns:xlink="http://www.w3.org/1999/xlink">
    <title>Artboard</title>
    <g id="Artboard" stroke="none" stroke-width="1" fill="none" fill-rule="evenodd">
        <g id="axodotdev" transform="translate(18, 35)" fill="#FFFFFF" fill-rule="nonzero">
            <path d="M45.3155288,22.7958942 C44.1952411,22.7958942 43.1916041,22.5219207 42.302417,21.9739736 C41.4132299,21.4260264 40.7111242,20.6817676 40.198301,19.7411969 C39.6854777,18.8027836 39.4279656,17.7392484 39.4279656,16.5505915 C39.4279656,15.3619346 39.7074873,14.2962422 40.2665307,13.3491997 C40.8255741,12.4021573 41.5849046,11.6535839 42.5445224,11.1056367 C43.5019393,10.5576896 44.5804088,10.2815588 45.7777301,10.2837035 C46.9728504,10.2837035 48.046918,10.5576896 48.9977319,11.1056367 C49.9485459,11.6535839 50.7034746,12.4021573 51.2647189,13.3491997 C51.8237623,14.2962422 52.1054849,15.3640919 52.1054849,16.5505915 L51.205293,16.5505915 C51.205293,17.7370912 50.9477809,18.8006263 50.4349577,19.7411969 C49.9221344,20.6796103 49.2200287,21.4238692 48.3308416,21.9739736 C47.4394535,22.5219207 46.4358166,22.7958942 45.3155288,22.7958942 Z M45.7755291,20.7680585 C46.5568693,20.7680585 47.254573,20.5846903 47.8686404,20.2157968 C48.4827077,19.8469033 48.9647176,19.3442589 49.3190718,18.7057063 C49.6712252,18.0671538 49.8473018,17.3487822 49.8495028,16.5527488 C49.8495028,15.7416145 49.6734261,15.0167711 49.3190718,14.3760612 C48.9669185,13.7375087 48.4827077,13.232707 47.8686404,12.8659708 C47.254573,12.4970772 46.5568693,12.3137091 45.7755291,12.3137091 C45.0095956,12.3137091 44.3140928,12.4970772 43.6934226,12.8659708 C43.0727524,13.2348643 42.5819387,13.7375087 42.2209816,14.3760612 C41.8600244,15.0146138 41.6795459,15.7416145 41.6795459,16.5527488 C41.6795459,17.3487822 41.8600244,18.0671538 42.2209816,18.7057063 C42.5819387,19.3442589 43.0727524,19.8469033 43.6934226,20.2157968 C44.3162938,20.5825331 45.0095956,20.7680585 45.7755291,20.7680585 Z M50.9279723,22.7290188 C50.5912257,22.7290188 50.311704,22.6189979 50.0894072,22.4011134 C49.8671104,22.1832289 49.7570625,21.9092554 49.7548616,21.5770355 L49.7548616,18.1297147 L50.1928523,15.7394572 L52.103284,16.5505915 L52.103284,21.5791928 C52.103284,21.9092554 51.9910351,22.1832289 51.7709393,22.4032707 C51.5464416,22.6189979 51.2669199,22.7290188 50.9279723,22.7290188 L50.9279723,22.7290188 Z M64.430851,22.7052888 C64.2833868,22.7052888 64.1337216,22.6837161 63.9928603,22.6384134 C63.8541999,22.5931106 63.7243434,22.4960334 63.6010897,22.3450244 L59.5755372,17.6119694 L58.7479769,16.8008351 L54.7444339,12.1562283 C54.5441467,11.9167711 54.4385007,11.6578984 54.423094,11.3796103 C54.4076872,11.1013222 54.4847208,10.8661795 54.6519936,10.6698678 C54.8214674,10.473556 55.0745776,10.3764788 55.4113242,10.3764788 C55.7788842,10.3764788 56.0716117,10.5037578 56.2851046,10.7604732 L60.218217,15.3597773 L60.8168776,15.9012526 L65.1417605,20.9751566 C65.3706602,21.2448156 65.482909,21.5123173 65.4741052,21.7755045 C65.4719042,22.0279054 65.3640573,22.2673626 65.1747749,22.4399443 C64.9876934,22.6168406 64.7389851,22.7052888 64.430851,22.7052888 L64.430851,22.7052888 Z M55.6446258,22.7052888 C55.3386926,22.7052888 55.0965872,22.6103688 54.9205105,22.4226862 C54.7444339,22.2350035 54.6563955,22.0063326 54.6563955,21.7345164 C54.6563955,21.4648573 54.7642425,21.1930411 54.9777354,20.923382 L58.8888382,16.1212944 L60.1301786,17.8341684 L56.4721861,22.3428671 C56.2432864,22.5866388 55.9659657,22.7052888 55.6446258,22.7052888 Z M61.3274999,16.9108559 L59.740609,15.5798191 L63.4426208,10.7561587 C63.5658744,10.6051496 63.6957309,10.5037578 63.8343913,10.4519833 C63.9818555,10.3980515 64.1381235,10.370007 64.2943916,10.3721642 C64.6311382,10.3721642 64.8842484,10.473556 65.0537222,10.6763396 C65.223196,10.8791232 65.3024304,11.1228949 65.2958276,11.4098121 C65.2892247,11.6967293 65.1769758,11.9728601 64.9612819,12.2446764 L61.3274999,16.9108559 Z M72.966167,22.7958942 C71.7248265,22.7958942 70.6265484,22.5283925 69.6757344,21.9955463 C68.7249205,21.4627001 67.9765947,20.724913 67.432958,19.7864997 C66.8893213,18.845929 66.6164025,17.767293 66.6164025,16.5505915 C66.6164025,15.3187891 66.8893213,14.231524 67.432958,13.2931106 C67.9765947,12.3546973 68.7249205,11.6169102 69.6757344,11.084064 C70.6265484,10.5512178 71.7226256,10.2837161 72.966167,10.2837161 C74.1921007,10.2837161 75.281575,10.5512178 76.232389,11.084064 C77.1832029,11.6169102 77.9315287,12.3546973 78.4751654,13.2931106 C79.0188021,14.231524 79.2917209,15.3187891 79.2917209,16.5505915 C79.2917209,17.767293 79.023204,18.845929 78.4861702,19.7864997 C77.9645431,20.7098121 77.1920068,21.4756437 76.2543986,21.9955463 C75.3035846,22.5305498 74.2075074,22.7958942 72.966167,22.7958942 Z M72.966167,20.7680585 C73.7629139,20.7680585 74.4694214,20.5868476 75.0812878,20.2265832 C75.6953552,19.8663187 76.1729631,19.3701461 76.5185135,18.7380654 C76.864064,18.1059847 77.0357387,17.3768267 77.0357387,16.5505915 C77.0357387,15.7243563 76.864064,14.9908838 76.5185135,14.3523312 C76.1729631,13.7137787 75.6931542,13.2132916 75.0812878,12.8530271 C74.4672205,12.4927627 73.7629139,12.3115518 72.966167,12.3115518 C72.1694201,12.3115518 71.4629125,12.4927627 70.8488452,12.8530271 C70.2347778,13.2132916 69.752768,13.7137787 69.3984137,14.3523312 C69.0462604,14.9908838 68.8701837,15.7243563 68.8701837,16.5505915 C68.8701837,17.3768267 69.0462604,18.1059847 69.3984137,18.7380654 C69.750567,19.3701461 70.2347778,19.8663187 70.8488452,20.2265832 C71.4629125,20.5868476 72.1694201,20.7680585 72.966167,20.7680585 Z M88.4939272,22.7958942 C87.296606,22.7958942 86.2203374,22.5219207 85.2607196,21.9739736 C84.3011018,21.4260264 83.5439722,20.677453 82.9827278,19.7304106 C82.4236845,18.7833681 82.1419618,17.7155184 82.14415,16.5290188 C82.14415,15.3425191 82.4016749,14.278984 82.9144981,13.3384134 C83.4273214,12.4 84.1294271,11.6557411 85.0186142,11.1056367 C85.9078013,10.5555324 86.9136392,10.2815588 88.031726,10.2837161 C88.9363198,10.2837161 89.772684,10.4670842 90.5386174,10.8359777 C91.3045509,11.2048713 91.9494316,11.7032011 92.4710587,12.3352818 L92.4710587,6.24745999 C92.4710587,5.90229645 92.5833076,5.62400835 92.8056044,5.41259569 C93.0279012,5.20118302 93.3074229,5.09763396 93.6441695,5.09763396 C93.9963228,5.09763396 94.2802464,5.20334029 94.4959403,5.41259569 C94.7116342,5.62400835 94.8194812,5.90013918 94.8173132,6.24745999 L94.8173132,16.5290188 C94.8173132,17.7155184 94.5377585,18.7833681 93.9765142,19.7304106 C93.4174708,20.677453 92.6603411,21.4260264 91.7095272,21.9739736 C90.7631152,22.5219207 89.6890475,22.7958942 88.4939272,22.7958942 L88.4939272,22.7958942 Z M88.4939272,20.7680585 C89.2752674,20.7680585 89.9729712,20.5846903 90.5870385,20.2157968 C91.2011058,19.8469033 91.6831157,19.3399443 92.03747,18.6927627 C92.3896233,18.0455811 92.5656999,17.3250522 92.5656999,16.5290188 C92.5656999,15.7178845 92.3896233,14.9951983 92.03747,14.3652749 C91.6853167,13.7331942 91.2033068,13.2348643 90.5870385,12.8659708 C89.9729712,12.4970772 89.2752674,12.3137091 88.4939272,12.3137091 C87.7279938,12.3137091 87.032491,12.4970772 86.4118208,12.8659708 C85.7955525,13.2305498 85.2871311,13.7461378 84.9393797,14.3652749 C84.5784226,14.9973556 84.397944,15.7178845 84.397944,16.5290188 C84.397944,17.3250522 84.5784226,18.0477383 84.9393797,18.6927627 C85.3003369,19.3377871 85.7911505,19.8469033 86.4118208,20.2136395 C87.032491,20.5825331 87.7257928,20.7680585 88.4939272,20.7680585 L88.4939272,20.7680585 Z M104.664367,22.7958942 C103.423027,22.7958942 102.324749,22.5283925 101.373935,21.9955463 C100.423121,21.4627001 99.674795,20.724913 99.1311583,19.7864997 C98.5875216,18.845929 98.3146028,17.767293 98.3146028,16.5505915 C98.3146028,15.3187891 98.5875216,14.231524 99.1311583,13.2931106 C99.674795,12.3546973 100.423121,11.6169102 101.373935,11.084064 C102.324749,10.5512178 103.420826,10.2837161 104.664367,10.2837161 C105.890301,10.2837161 106.979775,10.5512178 107.930589,11.084064 C108.881403,11.6169102 109.629729,12.3546973 110.173366,13.2931106 C110.717002,14.231524 110.989921,15.3187891 110.989921,16.5505915 C110.989921,17.767293 110.721404,18.845929 110.184371,19.7864997 C109.662743,20.7098121 108.890207,21.4756437 107.952599,21.9955463 C107.001785,22.5305498 105.905708,22.7958942 104.664367,22.7958942 Z M104.664367,20.7680585 C105.461114,20.7680585 106.167622,20.5868476 106.779488,20.2265832 C107.393555,19.8663187 107.871163,19.3701461 108.216714,18.7380654 C108.562264,18.1059847 108.733939,17.3768267 108.733939,16.5505915 C108.733939,15.7243563 108.562264,14.9908838 108.216714,14.3523312 C107.871163,13.7137787 107.391355,13.2132916 106.779488,12.8530271 C106.165421,12.4927627 105.461114,12.3115518 104.664367,12.3115518 C103.86762,12.3115518 103.161113,12.4927627 102.549246,12.8530271 C101.935179,13.2132916 101.453169,13.7137787 101.098815,14.3523312 C100.746662,14.9908838 100.570585,15.7243563 100.570585,16.5505915 C100.570585,17.3768267 100.746662,18.1059847 101.098815,18.7380654 C101.450968,19.3701461 101.935179,19.8663187 102.549246,20.2265832 C103.163314,20.5868476 103.86762,20.7680585 104.664367,20.7680585 Z M113.956813,12.7624217 C113.633272,12.7624217 113.373559,12.6718163 113.173272,12.4927627 C112.975186,12.3115518 112.873941,12.0871955 112.873941,11.8153793 C112.873941,11.5155184 112.972985,11.273904 113.173272,11.0948504 C113.373559,10.9136395 113.633272,10.8251914 113.954612,10.8251914 L119.267725,10.8251914 C119.589065,10.8251914 119.850979,10.9157968 120.049065,11.0948504 C120.249352,11.2760612 120.348396,11.5155184 120.348396,11.8153793 C120.348396,12.0850383 120.249352,12.3115518 120.049065,12.4927627 C119.848778,12.6739736 119.589065,12.7624217 119.267725,12.7624217 L113.956813,12.7624217 Z M119.063036,22.7052888 C118.297103,22.7052888 117.606002,22.5132916 116.991934,22.1314544 C116.377867,21.7496173 115.895857,21.2254001 115.543704,20.5652749 C115.19155,19.9029923 115.015474,19.1587335 115.015474,18.3324983 L115.015474,7.57849687 C115.015474,7.24843424 115.123321,6.97661795 115.336814,6.76736256 C115.550307,6.55810717 115.827627,6.45240084 116.164374,6.45240084 C116.501121,6.45240084 116.778441,6.55810717 116.991934,6.76736256 C117.205427,6.97661795 117.313274,7.24843424 117.313274,7.57849687 L117.313274,18.3324983 C117.313274,18.9343772 117.482748,19.4370216 117.819495,19.8425887 C118.156241,20.2481559 118.570021,20.4509395 119.060835,20.4509395 L119.842175,20.4509395 C120.117295,20.4509395 120.350597,20.5566458 120.544281,20.7659012 C120.735764,20.9773138 120.832606,21.2469729 120.832606,21.5770355 C120.832606,21.9070981 120.704951,22.1789144 120.454042,22.3881698 C120.203132,22.5974252 119.87519,22.7031315 119.476816,22.7031315 L119.063036,22.7052888 Z M129.416343,22.7958942 C128.219022,22.7958942 127.142754,22.5219207 126.183136,21.9739736 C125.234523,21.4368128 124.450982,20.6623521 123.905144,19.7304106 C123.346101,18.7833681 123.066579,17.7155184 123.066579,16.5290188 C123.066579,15.3425191 123.324091,14.278984 123.836914,13.3384134 C124.349738,12.4 125.051843,11.6557411 125.94103,11.1056367 C126.830218,10.5555324 127.836055,10.2815588 128.954142,10.2837161 C129.858736,10.2837161 130.6951,10.4670842 131.461034,10.8359777 C132.226967,11.2048713 132.871848,11.7032011 133.393475,12.3352818 L133.393475,6.24745999 C133.393475,5.90229645 133.503523,5.62400835 133.72582,5.41259569 C133.948116,5.20118302 134.227638,5.09763396 134.564385,5.09763396 C134.916538,5.09763396 135.200462,5.20334029 135.416156,5.41259569 C135.631849,5.62400835 135.739696,5.90013918 135.737528,6.24745999 L135.737528,16.5290188 C135.737528,17.7155184 135.457974,18.7833681 134.896729,19.7304106 C134.337686,20.677453 133.580556,21.4260264 132.629742,21.9739736 C131.685531,22.5219207 130.611464,22.7958942 129.416343,22.7958942 L129.416343,22.7958942 Z M129.416343,20.7680585 C130.197684,20.7680585 130.895387,20.5846903 131.509455,20.2157968 C132.123522,19.8469033 132.605532,19.3399443 132.957685,18.6927627 C133.309839,18.0455811 133.485915,17.3250522 133.488116,16.5290188 C133.488116,15.7178845 133.31204,14.9951983 132.957685,14.3652749 C132.605532,13.7331942 132.121321,13.2348643 131.509455,12.8659708 C130.895387,12.4970772 130.197684,12.3137091 129.416343,12.3137091 C128.65041,12.3137091 127.954907,12.4970772 127.334237,12.8659708 C126.717969,13.2305498 126.209547,13.7461378 125.861796,14.3652749 C125.500839,14.9973556 125.32036,15.7178845 125.32036,16.5290188 C125.32036,17.3250522 125.500839,18.0477383 125.861796,18.6927627 C126.222753,19.3377871 126.713567,19.8469033 127.334237,20.2136395 C127.954907,20.5825331 128.648209,20.7680585 129.416343,20.7680585 Z M145.793674,22.7959216 C144.52152,22.7959216 143.390227,22.5283925 142.399796,21.9955463 C141.409365,21.4627001 140.636828,20.724913 140.075584,19.7864997 C139.516541,18.845929 139.234818,17.767293 139.237006,16.5505915 C139.237006,15.3187891 139.501134,14.231524 140.031565,13.2931106 C140.559795,12.3546973 141.292714,11.6169102 142.228121,11.084064 C143.163529,10.5512178 144.237596,10.2837161 145.448123,10.2837161 C146.643243,10.2837161 147.671091,10.5425887 148.529465,11.0624913 C149.387838,11.5802366 150.043724,12.2942937 150.497121,13.2046625 C150.950519,14.1150313 151.175016,15.1634656 151.175016,16.3499652 C151.175016,16.6368824 151.075973,16.8720251 150.875686,17.0597077 C150.675399,17.2473904 150.422289,17.3401531 150.116356,17.3423104 L140.84592,17.3423104 L140.84592,15.5388309 L150.050327,15.5388309 L149.106116,16.1709116 C149.090709,15.4180237 148.936642,14.747112 148.646115,14.1538622 C148.355589,13.5606124 147.941809,13.0903271 147.404775,12.7451635 C146.867741,12.4 146.216258,12.2274182 145.450324,12.2274182 C144.576544,12.2274182 143.828218,12.4151009 143.207548,12.7904662 C142.586877,13.1658316 142.115872,13.6814196 141.792332,14.3350731 C141.468791,14.9887265 141.308121,15.7286708 141.308121,16.5549061 C141.308121,17.3811413 141.499604,18.1189283 141.882571,18.7639527 C142.265538,19.4111343 142.795968,19.9224078 143.469462,20.2977731 C144.142955,20.6731385 144.917692,20.8608212 145.793674,20.8608212 C146.269081,20.8608212 146.755492,20.7745303 147.25511,20.6019485 C147.754727,20.4293667 148.155302,20.2308977 148.463436,20.0043841 C148.67913,19.844746 148.941044,19.7541406 149.211762,19.7455115 C149.467073,19.7347251 149.717982,19.8188587 149.913867,19.9828114 C150.17358,20.209325 150.312241,20.4574113 150.327648,20.7270703 C150.343054,20.9967293 150.219801,21.2297147 149.960088,21.4260264 C149.43846,21.8315936 148.791379,22.1638135 148.016641,22.4183716 C147.241904,22.6729297 146.49798,22.7980515 145.793674,22.7959216 L145.793674,22.7959216 Z M157.962772,22.6837161 C157.487365,22.6837161 157.119805,22.4356298 156.857891,21.9394572 L151.980567,11.860682 C151.857313,11.6061239 151.846309,11.353723 151.945352,11.1056367 C152.044395,10.8575505 152.24028,10.6655532 152.533008,10.5296451 C152.792721,10.393737 153.056836,10.3721642 153.325353,10.4627697 C153.59387,10.5533751 153.796358,10.7259569 153.935018,10.980515 L158.488801,20.6084203 L157.386121,20.6084203 L161.893683,10.980515 C162.02354,10.7302714 162.252439,10.544746 162.525358,10.4627697 C162.809282,10.3721642 163.097607,10.3958942 163.388134,10.5296451 C163.663253,10.6504523 163.848134,10.838135 163.940574,11.0926931 C164.033014,11.3472512 164.017608,11.6039666 163.894354,11.8585247 L159.017031,21.9372999 C158.790332,22.4356298 158.438179,22.6837161 157.962772,22.6837161 L157.962772,22.6837161 Z M15.8138848,0 C16.5600097,0 17.2951297,0.0517745303 18.014843,0.148851775 C18.0258478,0.498329854 18.1116852,0.808977035 18.2701542,1.08295059 C18.4352261,1.37202505 18.6795324,1.61363953 18.9744608,1.77759221 C19.2737912,1.94585943 19.6171406,2.02999304 20.0067102,2.02999304 C20.3962798,2.02999304 20.7418303,1.94585943 21.0389596,1.77759221 C21.3206823,1.62011134 21.5561848,1.39359777 21.7190557,1.11746695 C27.5273845,3.41064718 31.6255687,8.98719555 31.6255687,15.5 C31.6255687,22.0041754 27.5361883,27.5742519 21.7410653,29.873904 L21.7344624,29.8609603 C21.5693906,29.5718859 21.3250842,29.3302714 21.0301558,29.1663187 C20.7308255,28.9980515 20.389677,28.9160752 20.0045093,28.9160752 C19.6149397,28.9160752 19.2693892,29.0002088 18.9722599,29.1663187 C18.6773315,29.3302714 18.4330251,29.5697286 18.2679532,29.8609603 C18.1028814,30.1478775 18.017044,30.4779402 18.0126421,30.8511482 C17.2929288,30.9482255 16.5600097,31 15.8138848,31 C15.1073772,31 14.4118744,30.9546973 13.7295774,30.8662491 C13.7273764,30.4865692 13.6415391,30.1521921 13.4742662,29.8609603 C13.3091944,29.5718859 13.064888,29.3302714 12.7699596,29.1663187 C12.4706293,28.9980515 12.1294808,28.9160752 11.7443131,28.9160752 C11.3547435,28.9160752 11.009193,29.0002088 10.7120637,29.1663187 C10.4171353,29.3302714 10.1728289,29.5697286 10.007757,29.8609603 C9.9989532,29.8760612 9.99014937,29.8933194 9.98134554,29.9105776 C4.13339954,27.6346555 0,22.040849 0,15.5 C0,8.95052192 4.14440433,3.34808629 10.0033551,1.07863605 L10.0055561,1.08079332 C10.1706279,1.36986778 10.4149343,1.61148225 10.7098627,1.77543493 C11.009193,1.94370216 11.3525425,2.02783577 11.7421121,2.02783577 C12.1316817,2.02783577 12.4772322,1.94370216 12.7765625,1.77543493 C13.0714909,1.61148225 13.3135963,1.37202505 13.4764672,1.08079332 C13.6349362,0.802505219 13.7185726,0.487543493 13.7273764,0.131593598 C14.4118744,0.045302714 15.1073772,0 15.8138848,0 L15.8138848,0 Z M11.7421121,29.5546277 C11.9930214,29.5546277 12.2131172,29.6107168 12.4068015,29.7250522 C12.5982849,29.8372303 12.7545529,30.001183 12.8579979,30.1953375 C12.9482372,30.3636047 13.0010602,30.5512874 13.0164669,30.7583855 C12.2021124,30.6160056 11.4119684,30.413222 10.6460349,30.1543493 C10.74948,29.977453 10.8991451,29.8307585 11.0774227,29.7250522 C11.2711071,29.6107168 11.4934038,29.5546277 11.7421121,29.5546277 L11.7421121,29.5546277 Z M20.0067102,29.5546277 C20.2576195,29.5546277 20.4799163,29.6107168 20.6713996,29.7250522 C20.8386724,29.8221294 20.9773328,29.9601949 21.0785769,30.1219903 C20.3192463,30.3851775 19.5335042,30.5922756 18.7257526,30.7389701 C18.7433602,30.540501 18.7961832,30.3592902 18.8864225,30.1974948 C18.9920685,30.0033403 19.1483365,29.8393876 19.3420209,29.7272095 C19.5335042,29.6107168 19.755801,29.5546277 20.0067102,29.5546277 L20.0067102,29.5546277 Z M14.2357978,26.6530967 C14.1367547,26.6509395 14.0421135,26.6876131 13.9716828,26.7566458 C13.8330224,26.901183 13.8330224,27.1255393 13.9716828,27.2700765 C14.0399125,27.3412665 14.1367547,27.3800974 14.2357978,27.3757829 L17.6230725,27.3757829 C17.7177137,27.3757829 17.8101539,27.336952 17.8761827,27.2700765 C17.9818287,27.1686848 18.0126421,27.0133612 17.9576181,26.8796103 C17.9025942,26.7458594 17.7705367,26.6574113 17.6230725,26.6530967 L14.2357978,26.6530967 Z M11.7421121,22.7527488 C11.3525425,22.7527488 11.0069921,22.8368824 10.7098627,23.0051496 C10.4149343,23.1691023 10.1706279,23.4085595 10.0055561,23.6997912 C9.83388134,23.9953375 9.75024492,24.3361865 9.75024492,24.7223382 C9.75024492,25.1041754 9.83608229,25.4428671 10.0055561,25.7384134 C10.1706279,26.0274878 10.4149343,26.2691023 10.7098627,26.433055 C11.009193,26.6013222 11.3525425,26.6854558 11.7421121,26.6854558 C12.1316817,26.6854558 12.4772322,26.6013222 12.7765625,26.433055 C13.0714909,26.2691023 13.3135963,26.0296451 13.4764672,25.7384134 C13.645941,25.4428671 13.7295774,25.1041754 13.7295774,24.7223382 C13.7295774,24.3361865 13.64374,23.9953375 13.4742662,23.6997912 C13.3091944,23.4107168 13.064888,23.1691023 12.7699596,23.0051496 C12.4706293,22.8368824 12.1272798,22.7527488 11.7421121,22.7527488 L11.7421121,22.7527488 Z M20.0067102,22.7527488 C19.6171406,22.7527488 19.2715902,22.8368824 18.9744608,23.0051496 C18.6795324,23.1691023 18.4352261,23.4085595 18.2701542,23.6997912 C18.0984795,23.9953375 18.0126421,24.3361865 18.0126421,24.7223382 C18.0126421,25.1041754 18.0984795,25.4428671 18.2701542,25.7384134 C18.4352261,26.0274878 18.6795324,26.2691023 18.9744608,26.433055 C19.2737912,26.6013222 19.6171406,26.6854558 20.0067102,26.6854558 C20.3962798,26.6854558 20.7418303,26.6013222 21.0389596,26.433055 C21.333888,26.2691023 21.5759935,26.0296451 21.7388644,25.7384134 C21.9083381,25.4428671 21.9919746,25.1041754 21.9919746,24.7223382 C21.9919746,24.3361865 21.9061372,23.9953375 21.7344624,23.6997912 C21.5693906,23.4107168 21.3250842,23.1691023 21.0301558,23.0051496 C20.7330265,22.8368824 20.3918779,22.7527488 20.0067102,22.7527488 L20.0067102,22.7527488 Z M6.18249165,22.2997216 C6.05263511,22.2328462 5.92718049,22.2306889 5.80612779,22.2954071 C5.68507509,22.3601253 5.62564922,22.461517 5.62564922,22.5974252 C5.62564922,22.7398051 5.68507509,22.8455115 5.80612779,22.9167015 L7.98067451,24.1808629 L5.80612779,25.457968 C5.68727605,25.5313152 5.62785017,25.632707 5.62564922,25.7599861 L5.62564922,25.7686152 C5.62344826,25.8570633 5.65646263,25.9411969 5.7158885,26.0059151 C5.77311342,26.068476 5.85014695,26.1116214 5.93598432,26.1267223 C6.0218217,26.1439805 6.10986002,26.1267223 6.18249165,26.0814196 L8.84785205,24.5152401 C8.97770859,24.435421 9.04373733,24.3275574 9.04373733,24.189492 C9.04373733,24.0665275 8.97770859,23.9608212 8.84785205,23.8702157 L6.18249165,22.2997216 Z M25.9514984,22.2954071 C25.8304457,22.2328462 25.7049911,22.2328462 25.5751345,22.2997216 L22.9097741,23.872373 C22.7799176,23.9629784 22.7138889,24.0686848 22.7138889,24.1916493 C22.7138889,24.3275574 22.7777166,24.4375783 22.9097741,24.5173974 L25.5751345,26.0814196 C25.6477662,26.1267223 25.7358045,26.1439805 25.8216419,26.1267223 C25.9074792,26.1116214 25.9845128,26.068476 26.0417377,26.0059151 C26.1033645,25.9411969 26.1341779,25.8570633 26.131977,25.7686152 C26.131977,25.6370216 26.0725511,25.5334725 25.9514984,25.457968 L23.7769517,24.1808629 L25.9492974,22.9167015 C26.0681492,22.8476688 26.1275751,22.7441197 26.129776,22.6060543 L26.129776,22.5974252 C26.131977,22.4593598 26.0703501,22.3601253 25.9514984,22.2954071 L25.9514984,22.2954071 Z M11.7421121,23.3891441 C11.9930214,23.3891441 12.2131172,23.4452331 12.4068015,23.5595685 C12.5982849,23.6717467 12.7545529,23.8356994 12.8579979,24.0298539 C12.9658449,24.2304802 13.0208688,24.4613083 13.0208688,24.7201809 C13.0208688,24.9790536 12.9658449,25.2077244 12.8579979,25.4061935 C12.7545529,25.6003479 12.5982849,25.7621434 12.4068015,25.8743215 C12.2131172,25.9864997 11.9930214,26.044746 11.7421121,26.044746 C11.4912029,26.044746 11.2711071,25.9886569 11.0774227,25.8743215 C10.8859394,25.7621434 10.7274704,25.6003479 10.6218244,25.4061935 C10.5117765,25.2077244 10.4545516,24.9790536 10.4545516,24.7201809 C10.4545516,24.4613083 10.5095755,24.2304802 10.6218244,24.0298539 C10.7274704,23.8356994 10.8837384,23.6717467 11.0774227,23.5595685 C11.2711071,23.4473904 11.4934038,23.3891441 11.7421121,23.3891441 Z M20.0067102,23.3891441 C20.2576195,23.3891441 20.4799163,23.4452331 20.6713996,23.5595685 C20.862883,23.6717467 21.019151,23.8356994 21.1225961,24.0298539 C21.230443,24.2304802 21.285467,24.4613083 21.285467,24.7201809 C21.285467,24.9790536 21.230443,25.2077244 21.1225961,25.4061935 C21.019151,25.6003479 20.862883,25.7621434 20.6713996,25.8743215 C20.4777153,25.9864997 20.2576195,26.044746 20.0067102,26.044746 C19.755801,26.044746 19.5357052,25.9886569 19.3420209,25.8743215 C19.1505375,25.7621434 18.9920685,25.6003479 18.8864225,25.4061935 C18.7763746,25.2077244 18.7191497,24.9790536 18.7213506,24.7201809 C18.7213506,24.4613083 18.7763746,24.2304802 18.8864225,24.0298539 C18.9920685,23.8356994 19.1483365,23.6717467 19.3420209,23.5595685 C19.5335042,23.4473904 19.755801,23.3891441 20.0067102,23.3891441 Z M8.24038758,24.0276966 L8.24038758,24.331872 L7.98067451,24.1808629 L8.24038758,24.0276966 Z M23.5172386,24.0276966 L23.7769517,24.1808629 L23.5172386,24.331872 L23.5172386,24.0276966 Z M14.2357978,20.4897704 C14.0861326,20.4876131 13.9474723,20.573904 13.8902473,20.7098121 C13.8330224,20.8457203 13.8638358,21.0032011 13.9716828,21.1067502 C14.0399125,21.1779402 14.1367547,21.2146138 14.2357978,21.2124565 L17.6230725,21.2124565 C17.7177137,21.2124565 17.8101539,21.1736256 17.8761827,21.1067502 C17.9818287,21.0053584 18.0126421,20.8500348 17.9576181,20.7162839 C17.9025942,20.5825331 17.7705367,20.4940849 17.6230725,20.4897704 L14.2357978,20.4897704 Z M11.7421121,16.5894224 C11.3525425,16.5894224 11.0069921,16.673556 10.7098627,16.8418232 C10.4149343,17.0057759 10.1706279,17.2452331 10.0055561,17.5364649 C9.83388134,17.8320111 9.75024492,18.1728601 9.75024492,18.5590118 C9.75024492,18.940849 9.83608229,19.2795407 10.0055561,19.575087 C10.1706279,19.8641614 10.4149343,20.1057759 10.7098627,20.2697286 C11.009193,20.4379958 11.3525425,20.5221294 11.7421121,20.5221294 C12.1316817,20.5221294 12.4772322,20.4379958 12.7765625,20.2718859 C13.0714909,20.1079332 13.3135963,19.868476 13.4764672,19.5772443 C13.645941,19.281698 13.7295774,18.9430063 13.7295774,18.5611691 C13.7295774,18.1750174 13.64374,17.8341684 13.4742662,17.5386221 C13.3091944,17.2495477 13.064888,17.0079332 12.7699596,16.8439805 C12.4706293,16.673556 12.1272798,16.5894224 11.7421121,16.5894224 L11.7421121,16.5894224 Z M20.0067102,16.5894224 C19.6171406,16.5894224 19.2715902,16.673556 18.9744608,16.8418232 C18.6795324,17.0057759 18.4352261,17.2452331 18.2701542,17.5364649 C18.0984795,17.8320111 18.0126421,18.1728601 18.0126421,18.5590118 C18.0126421,18.940849 18.0984795,19.2795407 18.2701542,19.575087 C18.4352261,19.8641614 18.6795324,20.1057759 18.9744608,20.2697286 C19.2737912,20.4379958 19.6171406,20.5221294 20.0067102,20.5221294 C20.3962798,20.5221294 20.7418303,20.4379958 21.0389596,20.2718859 C21.333888,20.1079332 21.5759935,19.868476 21.7388644,19.5772443 C21.9083381,19.281698 21.9919746,18.9430063 21.9919746,18.5611691 C21.9919746,18.1750174 21.9061372,17.8341684 21.7344624,17.5386221 C21.5693906,17.2495477 21.3250842,17.0079332 21.0301558,16.8439805 C20.7330265,16.673556 20.3918779,16.5894224 20.0067102,16.5894224 L20.0067102,16.5894224 Z M6.18029069,16.134238 C6.05043415,16.0673626 5.92497953,16.0673626 5.80392683,16.1299235 C5.68287413,16.1946416 5.62344826,16.2938761 5.62344826,16.4297843 C5.62344826,16.5721642 5.68287413,16.6778706 5.80392683,16.7490605 L7.97847355,18.0153793 L5.80392683,19.2924843 C5.68507509,19.3658316 5.62564922,19.4672234 5.62344826,19.5945024 L5.62344826,19.6031315 C5.6212473,19.6915797 5.65426167,19.7757133 5.71368754,19.8404315 C5.77091246,19.9029923 5.847946,19.9461378 5.93378337,19.9612387 C6.01962074,19.9784969 6.10765907,19.9612387 6.18029069,19.915936 L8.84565109,18.3497564 C8.97550763,18.2699374 9.04153638,18.1599165 9.04153638,18.0240084 C9.04153638,17.9010438 8.97550763,17.7953375 8.84565109,17.7047321 L6.18029069,16.134238 Z M25.9514984,16.1320807 C25.8304457,16.0695198 25.7049911,16.0695198 25.5751345,16.1363953 L22.9097741,17.7090466 C22.7799176,17.7996521 22.7138889,17.9053584 22.7138889,18.0283229 C22.7138889,18.164231 22.7777166,18.2742519 22.9097741,18.354071 L25.5751345,19.9180932 C25.6477662,19.963396 25.7358045,19.9806541 25.8216419,19.963396 C25.9074792,19.9482951 25.9845128,19.9051496 26.0417377,19.8425887 C26.1033645,19.7778706 26.1341779,19.693737 26.131977,19.6052888 C26.131977,19.4736952 26.0725511,19.3701461 25.9514984,19.2946416 L23.7769517,18.0175365 L25.9492974,16.7533751 C26.0681492,16.6843424 26.1275751,16.5807933 26.129776,16.4427279 L26.129776,16.4340988 C26.131977,16.2960334 26.0703501,16.1967989 25.9514984,16.1320807 L25.9514984,16.1320807 Z M11.7421121,17.2258177 C11.9930214,17.2258177 12.2131172,17.2819068 12.4068015,17.3962422 C12.5982849,17.5084203 12.7545529,17.672373 12.8579979,17.8665275 C12.9658449,18.0671538 13.0208688,18.2979819 13.0208688,18.5568546 C13.0208688,18.8157272 12.9658449,19.0443981 12.8579979,19.2428671 C12.7545529,19.4370216 12.5982849,19.598817 12.4068015,19.7109951 C12.2131172,19.8253305 11.9930214,19.8814196 11.7421121,19.8814196 C11.4912029,19.8814196 11.2711071,19.8253305 11.0774227,19.7109951 C10.8859394,19.598817 10.7274704,19.4370216 10.6218244,19.2428671 C10.5117765,19.0443981 10.4545516,18.8157272 10.4545516,18.5568546 C10.4545516,18.2979819 10.5095755,18.0671538 10.6218244,17.8665275 C10.7274704,17.672373 10.8837384,17.5084203 11.0774227,17.3962422 C11.2711071,17.2819068 11.4934038,17.2258177 11.7421121,17.2258177 Z M20.0067102,17.2258177 C20.2576195,17.2258177 20.4799163,17.2819068 20.6713996,17.3962422 C20.862883,17.5084203 21.019151,17.672373 21.1225961,17.8665275 C21.230443,18.0671538 21.285467,18.2979819 21.285467,18.5568546 C21.285467,18.8157272 21.230443,19.0443981 21.1225961,19.2428671 C21.019151,19.4370216 20.862883,19.598817 20.6713996,19.7109951 C20.4777153,19.8253305 20.2576195,19.8814196 20.0067102,19.8814196 C19.755801,19.8814196 19.5357052,19.8253305 19.3420209,19.7109951 C19.1505375,19.598817 18.9920685,19.4370216 18.8864225,19.2428671 C18.7763746,19.0443981 18.7191497,18.8157272 18.7213506,18.5568546 C18.7213506,18.2979819 18.7763746,18.0671538 18.8864225,17.8665275 C18.9920685,17.672373 19.1483365,17.5084203 19.3420209,17.3962422 C19.5335042,17.2819068 19.755801,17.2258177 20.0067102,17.2258177 Z M23.5172386,17.8643702 L23.7769517,18.0175365 L23.5172386,18.1685456 L23.5172386,17.8643702 Z M8.24038758,17.8643702 L8.24038758,18.1685456 L7.98067451,18.0175365 L8.24038758,17.8643702 Z M14.2357978,14.326444 C14.0861326,14.3242867 13.9496732,14.4105776 13.8902473,14.5464857 C13.8330224,14.6823939 13.8638358,14.8398747 13.9716828,14.9412665 C14.0399125,15.0124565 14.1367547,15.0512874 14.2357978,15.0469729 L17.6230725,15.0469729 C17.7177137,15.0469729 17.8101539,15.008142 17.8761827,14.9412665 C17.9818287,14.8398747 18.0126421,14.6845511 17.9576181,14.5508003 C17.9025942,14.4170494 17.7705367,14.3286013 17.6230725,14.3242867 L14.2357978,14.3242867 L14.2357978,14.326444 Z M11.7421121,10.426096 C11.3525425,10.426096 11.0069921,10.5102296 10.7098627,10.6763396 C10.4149343,10.8402923 10.1706279,11.0797495 10.0055561,11.3709812 C9.83388134,11.6665275 9.75024492,12.0073765 9.75024492,12.3935282 C9.75024492,12.7753653 9.83608229,13.1140571 10.0055561,13.4096033 C10.1706279,13.6986778 10.4149343,13.9402923 10.7098627,14.104245 C11.009193,14.2725122 11.3525425,14.3566458 11.7421121,14.3566458 C12.1316817,14.3566458 12.4772322,14.2725122 12.7765625,14.1064022 C13.0714909,13.9424495 13.3135963,13.7029923 13.4764672,13.4117606 C13.645941,13.1162143 13.7295774,12.7775226 13.7295774,12.3956855 C13.7295774,12.0095338 13.64374,11.6686848 13.4742662,11.3731385 C13.3091944,11.084064 13.064888,10.8424495 12.7699596,10.6784969 C12.4706293,10.5080724 12.1272798,10.426096 11.7421121,10.426096 L11.7421121,10.426096 Z M20.0067102,10.426096 C19.6171406,10.426096 19.2715902,10.5102296 18.9744608,10.6763396 C18.6795324,10.8402923 18.4352261,11.0797495 18.2701542,11.3709812 C18.0984795,11.6665275 18.0126421,12.0073765 18.0126421,12.3935282 C18.0126421,12.7753653 18.0984795,13.1140571 18.2701542,13.4096033 C18.4352261,13.6986778 18.6795324,13.9402923 18.9744608,14.104245 C19.2737912,14.2725122 19.6171406,14.3544885 20.0067102,14.3544885 C20.3962798,14.3544885 20.7418303,14.2703549 21.0389596,14.104245 C21.333888,13.9402923 21.5759935,13.7008351 21.7388644,13.4096033 C21.9083381,13.1140571 21.9919746,12.7753653 21.9919746,12.3935282 C21.9919746,12.0073765 21.9061372,11.6665275 21.7344624,11.3709812 C21.5693906,11.0819068 21.3250842,10.8402923 21.0301558,10.6763396 C20.7330265,10.5102296 20.3918779,10.426096 20.0067102,10.426096 L20.0067102,10.426096 Z M25.9514984,9.96875435 C25.8304457,9.90619346 25.7049911,9.90619346 25.5751345,9.97306889 L22.9097741,11.5457203 C22.7799176,11.6363257 22.7138889,11.742032 22.7138889,11.8649965 C22.7138889,12.0009047 22.7777166,12.1109255 22.9097741,12.1907446 L25.5751345,13.7547669 C25.6477662,13.8022269 25.7358045,13.8173278 25.8216419,13.8022269 C25.9074792,13.787126 25.9845128,13.7439805 26.0417377,13.6814196 C26.1033645,13.6167015 26.1341779,13.5325678 26.131977,13.4441197 C26.131977,13.3125261 26.0725511,13.208977 25.9514984,13.1334725 L23.7791526,11.8563674 L25.9514984,10.592206 C26.0703501,10.5231733 26.129776,10.4196242 26.131977,10.2815588 L26.131977,10.2729297 C26.131977,10.132707 26.0725511,10.0313152 25.9514984,9.96875435 Z M6.18249165,9.97306889 C6.05263511,9.90619346 5.92718049,9.90619346 5.80612779,9.96875435 C5.68507509,10.0334725 5.62564922,10.132707 5.62564922,10.2707724 C5.62564922,10.4131524 5.68507509,10.5188587 5.80612779,10.5900487 L7.97847355,11.8542102 L5.80612779,13.1313152 C5.68727605,13.2046625 5.62785017,13.3060543 5.62564922,13.4333333 L5.62564922,13.4419624 C5.62344826,13.5304106 5.65426167,13.6145442 5.7158885,13.6792624 C5.77311342,13.7418232 5.85014695,13.7849687 5.93598432,13.8000696 C6.0218217,13.8173278 6.10986002,13.8000696 6.18249165,13.7547669 L8.84785205,12.1907446 C8.97770859,12.1109255 9.04373733,12.0009047 9.04373733,11.8649965 C9.04373733,11.742032 8.97770859,11.6363257 8.84785205,11.5457203 L6.18249165,9.97306889 Z M11.7421121,11.0624913 C11.9930214,11.0624913 12.2131172,11.1185804 12.4068015,11.2329158 C12.5982849,11.3450939 12.7545529,11.5090466 12.8579979,11.7032011 C12.9658449,11.9038274 13.0208688,12.1346555 13.0208688,12.3935282 C13.0208688,12.6524008 12.9658449,12.8810717 12.8579979,13.0795407 C12.7545529,13.2736952 12.5982849,13.4354906 12.4068015,13.5476688 C12.2131172,13.6598469 11.9930214,13.7180932 11.7421121,13.7180932 C11.4912029,13.7180932 11.2711071,13.6620042 11.0774227,13.5476688 C10.8859394,13.4354906 10.7274704,13.2736952 10.6218244,13.0795407 C10.5117765,12.8810717 10.4545516,12.6524008 10.4545516,12.3935282 C10.4545516,12.1346555 10.5095755,11.9038274 10.6218244,11.7032011 C10.7274704,11.5090466 10.8837384,11.3450939 11.0774227,11.2329158 C11.2711071,11.1185804 11.4934038,11.0624913 11.7421121,11.0624913 Z M20.0067102,11.0624913 C20.2576195,11.0624913 20.4799163,11.1185804 20.6713996,11.2329158 C20.862883,11.3450939 21.019151,11.5090466 21.1225961,11.7032011 C21.230443,11.9038274 21.285467,12.1346555 21.285467,12.3935282 C21.285467,12.6524008 21.230443,12.8810717 21.1225961,13.0795407 C21.019151,13.2736952 20.862883,13.4354906 20.6713996,13.5476688 C20.4777153,13.6598469 20.2576195,13.7180932 20.0067102,13.7180932 C19.755801,13.7180932 19.5357052,13.6620042 19.3420209,13.5476688 C19.1505375,13.4354906 18.9920685,13.2736952 18.8864225,13.0795407 C18.7763746,12.8810717 18.7191497,12.6524008 18.7213506,12.3935282 C18.7213506,12.1346555 18.7763746,11.9038274 18.8864225,11.7032011 C18.9920685,11.5090466 19.1483365,11.3450939 19.3420209,11.2329158 C19.5335042,11.1185804 19.755801,11.0624913 20.0067102,11.0624913 Z M23.5172386,11.6988866 L23.7791526,11.8520529 L23.5172386,12.0030619 L23.5172386,11.6988866 Z M8.24038758,11.6988866 L8.24038758,12.0052192 L7.97847355,11.8520529 L8.24038758,11.6988866 Z M14.2357978,8.16311761 C14.1367547,8.16096033 14.0421135,8.19763396 13.9716828,8.26666667 C13.9012521,8.33569937 13.8638358,8.42846207 13.8660368,8.52553932 C13.8638358,8.62045929 13.9012521,8.71322199 13.9716828,8.78009743 C14.0399125,8.8512874 14.1367547,8.88796103 14.2357978,8.88580376 L17.6230725,8.88580376 C17.7177137,8.88580376 17.8101539,8.84697286 17.8761827,8.78009743 C17.9818287,8.67870564 18.0126421,8.52338205 17.9576181,8.38963118 C17.9025942,8.25588031 17.7705367,8.16743215 17.6230725,8.16311761 L14.2357978,8.16311761 Z M11.7421121,4.26276966 C11.3525425,4.26276966 11.0069921,4.34690327 10.7098627,4.51517049 C10.4149343,4.67912317 10.1706279,4.91858038 10.0055561,5.20981211 C9.83388134,5.50535839 9.75024492,5.84620738 9.75024492,6.23235908 C9.75024492,6.61419624 9.83608229,6.95288796 10.0055561,7.24843424 C10.1706279,7.5375087 10.4149343,7.77912317 10.7098627,7.94307585 C11.009193,8.11134308 11.3525425,8.19547669 11.7421121,8.19547669 C12.1316817,8.19547669 12.4772322,8.11134308 12.7765625,7.94307585 C13.0714909,7.77912317 13.3135963,7.53966597 13.4764672,7.24843424 C13.645941,6.95288796 13.7295774,6.61419624 13.7295774,6.23235908 C13.7295774,5.84620738 13.64374,5.50320111 13.4742662,5.20981211 C13.3091944,4.92073765 13.064888,4.67912317 12.7699596,4.51517049 C12.4706293,4.344746 12.1272798,4.26276966 11.7421121,4.26276966 L11.7421121,4.26276966 Z M20.0067102,4.26276966 C19.6171406,4.26276966 19.2715902,4.34690327 18.9744608,4.51517049 C18.6795324,4.67912317 18.4352261,4.91858038 18.2701542,5.20981211 C18.0984795,5.50535839 18.0126421,5.84620738 18.0126421,6.23235908 C18.0126421,6.61419624 18.0984795,6.95288796 18.2701542,7.24843424 C18.4352261,7.5375087 18.6795324,7.77912317 18.9744608,7.94307585 C19.2737912,8.11134308 19.6171406,8.19547669 20.0067102,8.19547669 C20.3962798,8.19547669 20.7418303,8.11134308 21.0389596,7.94307585 C21.333888,7.77912317 21.5759935,7.53966597 21.7388644,7.24843424 C21.9083381,6.95288796 21.9919746,6.61419624 21.9919746,6.23235908 C21.9919746,5.84620738 21.9061372,5.50320111 21.7344624,5.20981211 C21.5693906,4.92073765 21.3250842,4.67912317 21.0301558,4.51517049 C20.7330265,4.344746 20.3918779,4.26276966 20.0067102,4.26276966 L20.0067102,4.26276966 Z M6.18249165,3.80758525 C6.05263511,3.74070981 5.92718049,3.73855254 5.80612779,3.8032707 C5.68507509,3.86798887 5.62564922,3.96938065 5.62564922,4.1052888 C5.62564922,4.24766875 5.68507509,4.35337509 5.80612779,4.42456507 L7.98067451,5.68872651 L5.80612779,6.96583159 C5.68727605,7.03917884 5.62785017,7.14057063 5.62564922,7.26784969 L5.62564922,7.27647878 C5.62344826,7.36492693 5.65646263,7.44906054 5.7158885,7.51377871 C5.77311342,7.5763396 5.85014695,7.61948504 5.93598432,7.63458594 C6.0218217,7.65184412 6.10986002,7.63458594 6.18249165,7.58928323 L8.84785205,6.02310369 C8.97770859,5.94328462 9.04373733,5.83326374 9.04373733,5.6973556 C9.04373733,5.57439109 8.97770859,5.46868476 8.84785205,5.37807933 L6.18249165,3.80758525 Z M25.9514984,3.80542797 C25.8304457,3.74286708 25.7049911,3.74286708 25.5751345,3.80974252 L22.9097741,5.38239388 C22.7799176,5.4729993 22.7138889,5.57870564 22.7138889,5.70167015 C22.7138889,5.83757829 22.7777166,5.94759916 22.9097741,6.02741823 L25.5751345,7.5914405 C25.6477662,7.63674322 25.7358045,7.65400139 25.8216419,7.63674322 C25.9074792,7.62164231 25.9845128,7.57849687 26.0417377,7.51593598 C26.1033645,7.45121781 26.1341779,7.3670842 26.131977,7.27863605 C26.131977,7.14704245 26.0725511,7.04349339 25.9514984,6.96798887 L23.7769517,5.69088379 L25.9492974,4.42672234 C26.0681492,4.35768963 26.1275751,4.25414057 26.129776,4.11607516 L26.129776,4.10744607 C26.131977,3.96938065 26.0703501,3.86798887 25.9514984,3.80542797 L25.9514984,3.80542797 Z M11.7421121,4.89916493 C11.9930214,4.89916493 12.2131172,4.955254 12.4068015,5.06958942 C12.5982849,5.18176757 12.7545529,5.34572025 12.8579979,5.53987474 C12.9658449,5.74050104 13.0208688,5.97132916 13.0208688,6.23020181 C13.0208688,6.48907446 12.9658449,6.7177453 12.8579979,6.91621434 C12.7545529,7.11036882 12.5982849,7.27216423 12.4068015,7.38434238 C12.2131172,7.49652053 11.9930214,7.55476688 11.7421121,7.55476688 C11.4912029,7.55476688 11.2711071,7.4986778 11.0774227,7.38434238 C10.8859394,7.27216423 10.7274704,7.11036882 10.6218244,6.91621434 C10.5117765,6.7177453 10.4545516,6.48907446 10.4545516,6.23020181 C10.4545516,5.97132916 10.5095755,5.74050104 10.6218244,5.53987474 C10.7274704,5.34572025 10.8837384,5.18176757 11.0774227,5.06958942 C11.2711071,4.955254 11.4934038,4.89916493 11.7421121,4.89916493 L11.7421121,4.89916493 Z M20.0067102,4.89916493 C20.2576195,4.89916493 20.4799163,4.955254 20.6713996,5.06958942 C20.862883,5.18176757 21.019151,5.34572025 21.1225961,5.53987474 C21.230443,5.74050104 21.285467,5.97132916 21.285467,6.23020181 C21.285467,6.48907446 21.230443,6.7177453 21.1225961,6.91621434 C21.019151,7.11036882 20.862883,7.27216423 20.6713996,7.38434238 C20.4777153,7.49652053 20.2576195,7.55476688 20.0067102,7.55476688 C19.755801,7.55476688 19.5357052,7.4986778 19.3420209,7.38434238 C19.1505375,7.27216423 18.9920685,7.11036882 18.8864225,6.91621434 C18.7763746,6.7177453 18.7191497,6.48907446 18.7213506,6.23020181 C18.7213506,5.97132916 18.7763746,5.74050104 18.8864225,5.53987474 C18.9920685,5.34572025 19.1483365,5.18176757 19.3420209,5.06958942 C19.5335042,4.955254 19.755801,4.89916493 20.0067102,4.89916493 L20.0067102,4.89916493 Z M8.24038758,5.53556019 L8.24038758,5.83973556 L7.98067451,5.68872651 L8.24038758,5.53556019 Z M23.5172386,5.53556019 L23.7769517,5.68872651 L23.5172386,5.83973556 L23.5172386,5.53556019 Z M14.2357978,1.99979123 C14.0861326,1.99763396 13.9496732,2.08392484 13.8902473,2.21983299 C13.8330224,2.35574113 13.8638358,2.51322199 13.9716828,2.61461378 C14.0399125,2.68580376 14.1367547,2.72463466 14.2357978,2.72032011 L17.6230725,2.72032011 C17.7177137,2.72032011 17.8101539,2.68148921 17.8761827,2.61461378 C17.9818287,2.51322199 18.0126421,2.3578984 17.9576181,2.22414753 C17.9025942,2.09039666 17.7705367,2.0019485 17.6230725,1.99763396 L14.2357978,1.99763396 L14.2357978,1.99979123 Z M13.012065,0.241614475 C12.9922564,0.429297147 12.9416343,0.599721642 12.8579979,0.752887961 C12.7545529,0.94704245 12.5982849,1.10883786 12.4068015,1.22101601 C12.2131172,1.33535143 11.9930214,1.3914405 11.7421121,1.3914405 C11.4912029,1.3914405 11.2711071,1.33535143 11.0774227,1.22101601 C10.9145518,1.12609603 10.7758915,0.994502436 10.6724464,0.837021573 C11.4229732,0.584620738 12.1999114,0.386151705 12.9966583,0.243771747 L13.012065,0.241614475 Z M18.7323554,0.263187196 C19.5269013,0.407724426 20.3016386,0.612665275 21.0499644,0.869380654 C20.9509213,1.01176061 20.8210648,1.13041058 20.6713996,1.21885873 C20.4777153,1.33319415 20.2576195,1.38928323 20.0067102,1.38928323 C19.755801,1.38928323 19.5357052,1.33319415 19.3420209,1.21885873 C19.1505375,1.10668058 18.9920685,0.944885177 18.8864225,0.750730689 C18.804987,0.604036186 18.754365,0.442240779 18.7323554,0.265344468 L18.7323554,0.263187196 Z" id="Shape"></path>
        </g>
    </g>
</svg>