<?xml version="1.0" encoding="UTF-8"?>
<svg width="200px" height="100px" viewBox="0 0 200 100" version="1.1" xmlns="http://www.w3.org/2000/svg" xmlns:xlink="http://www.w3.org/1999/xlink">
    <title>Artboard</title>
    <g id="Artboard" stroke="none" stroke-width="1" fill="none" fill-rule="evenodd">
        <g id="crabnebula" transform="translate(15, 37)" fill="#FFFFFF">
            <path d="M42.9255582,22 C41.6933811,22 40.534018,21.7629583 39.4477927,21.2888748 C38.3614056,20.8147913 37.41288,20.1689219 36.6022158,19.3514297 C35.8077326,18.5341007 35.1753822,17.5857706 34.7053264,16.5067658 C34.2351088,15.411447 34,14.2425522 34,13.0000816 C34,11.7574967 34.2351088,10.5967426 34.7053264,9.51772148 C35.1753822,8.42235374 35.8077326,7.46594825 36.6022158,6.64850501 C37.41288,5.83106177 38.3614056,5.18529025 39.4477927,4.71117415 C40.534018,4.23705805 41.6933811,4 42.9255582,4 C43.8172888,4 44.6685671,4.11444238 45.4792313,4.34332714 C46.3060764,4.5722119 47.0601074,4.89919246 47.7410006,5.3242525 C48.4382365,5.73296597 49.0624964,6.23161825 49.6137804,6.82016042 C50.1650644,7.39237232 50.6270298,8.03816015 51,8.75749128 L47.5952104,10.6212625 C47.1088119,9.73843295 46.4764615,9.04360538 45.6981592,8.53679612 C44.9360378,8.02997054 44.0119453,7.77656591 42.9255582,7.77656591 C42.2121414,7.77656591 41.5474291,7.91554448 40.9312596,8.19346898 C40.3314329,8.47139348 39.8044202,8.85558708 39.3505454,9.34604976 C38.8965087,9.82016586 38.5397194,10.3760312 38.2803392,11.0136294 C38.0209591,11.634881 37.8911881,12.2969502 37.8911881,13.0000816 C37.8911881,13.7030498 38.0209591,14.373227 38.2803392,15.0109394 C38.5397194,15.6321747 38.8965087,16.1879911 39.3505454,16.6785517 C39.8044202,17.1526352 40.3314329,17.5286718 40.9312596,17.8064984 C41.5474291,18.0844881 42.2121414,18.223483 42.9255582,18.223483 C44.0119453,18.223483 44.9360378,17.9699642 45.6981592,17.4632528 C46.4764615,16.9563783 47.1088119,16.261567 47.5952104,15.3788191 L51,17.242525 C50.6270298,17.9618072 50.1650644,18.6158336 49.6137804,19.204441 C49.0624964,19.7765714 48.4382365,20.2752889 47.7410006,20.7002674 C47.0601074,21.1089319 46.3060764,21.4278697 45.4792313,21.6567544 C44.6685671,21.8856392 43.8172888,22 42.9255582,22 Z" id="Path" fill-rule="nonzero"></path>
            <path d="M53,10.1422896 L56.786848,10.1422896 L56.786848,11.9209485 C56.9875696,11.3992148 57.355309,10.9486181 57.8903998,10.569174 C58.4420089,10.1897142 59.0690346,10 59.7711431,10 C59.9551797,10 60.1473919,10.0079041 60.3479467,10.0237123 C60.5486683,10.0395205 60.766075,10.0790568 61,10.1422896 L61,13.7707443 C60.7158529,13.6759267 60.4400484,13.604774 60.1724195,13.5572863 C59.9049576,13.5099564 59.6208105,13.4861336 59.3198115,13.4861336 C58.5005735,13.4861336 57.8735479,13.7549677 57.4389013,14.292478 C57.0042547,14.8299882 56.786848,15.5257383 56.786848,16.3794125 L56.786848,22 L53,22 L53,10.1422896 Z" id="Path" fill-rule="nonzero"></path>
            <path d="M66.3640652,22 C65.6087581,22 64.8997539,21.8391179 64.2368988,21.5172008 C63.5895806,21.1954366 63.026869,20.7663157 62.5490719,20.2298381 C62.0712747,19.6780676 61.6936212,19.0421857 61.4161112,18.3218865 C61.138755,17.5861415 61,16.812164 61,15.9999541 C61,15.1877442 61.138755,14.4214132 61.4161112,13.7011141 C61.6936212,12.965522 62.0712747,12.3294872 62.5490719,11.7931013 C63.026869,11.2413767 63.5895806,10.804594 64.2368988,10.4827533 C64.8997539,10.1609127 65.6087581,10 66.3640652,10 C66.7494103,10 67.1039893,10.0459707 67.4276484,10.1379273 C67.7668444,10.2145604 68.067429,10.3218407 68.3294021,10.459768 C68.6069121,10.5976953 68.8381192,10.7509463 69.0230233,10.919536 C69.2234643,11.0881105 69.3852938,11.2490385 69.5086658,11.4022894 L69.5086658,10.2528693 L73,10.2528693 L73,21.7470542 L69.5086658,21.7470542 L69.5086658,20.5976342 C69.3852938,20.7508698 69.2234643,20.9119048 69.0230233,21.0804334 C68.8381192,21.248962 68.6069121,21.4021976 68.3294021,21.5401402 C68.067429,21.6780829 67.7668444,21.7854396 67.4276484,21.8620574 C67.1039893,21.9539681 66.7494103,22 66.3640652,22 Z M67.1502923,18.8505647 C67.9363655,18.8505647 68.5683007,18.5823259 69.0462517,18.0460013 C69.5394319,17.5095237 69.7860219,16.8276099 69.7860219,15.9999541 C69.7860219,15.1724512 69.5394319,14.4903845 69.0462517,13.9540599 C68.5683007,13.4175823 67.9363655,13.1493435 67.1502923,13.1493435 C66.3640652,13.1493435 65.7244385,13.4175823 65.2311045,13.9540599 C64.7533074,14.4903845 64.5144088,15.1724512 64.5144088,15.9999541 C64.5144088,16.8276099 64.7533074,17.5095237 65.2311045,18.0460013 C65.7244385,18.5823259 66.3640652,18.8505647 67.1502923,18.8505647 Z" id="Shape" fill-rule="nonzero"></path>
            <path d="M84.635866,22 C84.250516,22 83.8882408,21.9526374 83.5490405,21.8580695 C83.2253772,21.7792367 82.9247888,21.6687763 82.6474291,21.5268458 C82.3852988,21.3849153 82.1540887,21.2272497 81.953799,21.053849 C81.7533555,20.8804483 81.5992155,20.7147578 81.4912251,20.5570922 L81.4912251,21.7397416 L78,21.7397416 L78,4 L81.4912251,4 L81.4912251,11.0959124 C81.5992155,10.938231 81.7533555,10.7726507 81.953799,10.5992028 C82.1540887,10.4257391 82.3852988,10.2680578 82.6474291,10.126143 C82.9247888,9.98422819 83.2253772,9.87384653 83.5490405,9.79499799 C83.8882408,9.70038289 84.250516,9.6530832 84.635866,9.6530832 C85.3911828,9.6530832 86.0925045,9.81864783 86.739831,10.1497928 C87.4026946,10.4809378 87.973105,10.9303477 88.4509083,11.4980226 C88.9287115,12.0499152 89.3063699,12.7043376 89.5838835,13.4611955 C89.8612432,14.2023183 90,14.9908037 90,15.8264944 C90,16.6621851 89.8612432,17.458538 89.5838835,18.2155533 C89.3063699,18.956676 88.9287115,19.6109411 88.4509083,20.1786632 C87.973105,20.7306502 87.4026946,21.1721769 86.739831,21.5032432 C86.0925045,21.8344668 85.3911828,22 84.635866,22 Z M83.8496289,18.7595154 C84.635866,18.7595154 85.2678093,18.4835219 85.7456126,17.9316922 C86.2389529,17.3797052 86.4855462,16.6780775 86.4855462,15.8264944 C86.4855462,14.9750686 86.2389529,14.2732836 85.7456126,13.7214539 C85.2678093,13.1694669 84.635866,12.8934734 83.8496289,12.8934734 C83.0635456,12.8934734 82.4239107,13.1694669 81.9305703,13.7214539 C81.4527671,14.2732836 81.2138654,14.9750686 81.2138654,15.8264944 C81.2138654,16.6780775 81.4527671,17.3797052 81.9305703,17.9316922 C82.4239107,18.4835219 83.0635456,18.7595154 83.8496289,18.7595154 Z" id="Shape" fill-rule="nonzero"></path>
            <polygon id="Path" fill-rule="nonzero" points="103.799005 22 95.7149075 11.4887353 95.7149075 22 92 22 92 5 95.2009949 5 103.26162 15.5112169 103.26162 5 107 5 107 22"></polygon>
            <path d="M115.234368,22 C114.375019,22 113.562451,21.8620574 112.796819,21.5861721 C112.046936,21.3102868 111.390613,20.9119048 110.828162,20.3907202 C110.26571,19.8696886 109.820365,19.2413002 109.492281,18.5057081 C109.164042,17.754823 109,16.9195207 109,15.9999541 C109,15.1417124 109.148448,14.3524419 109.445345,13.6321428 C109.757836,12.8965507 110.187588,12.2605311 110.734446,11.72413 C111.296897,11.1877289 111.953064,10.7662851 112.703103,10.459768 C113.453142,10.1532509 114.273507,10 115.164042,10 C115.929674,10 116.66412,10.1226038 117.367223,10.3678113 C118.085919,10.5976953 118.7109,10.9501831 119.242164,11.4252747 C119.773429,11.8850427 120.195228,12.4674298 120.507719,13.1724359 C120.835958,13.8619962 121,14.674359 121,15.6092186 C121,15.7624542 120.992203,15.9386293 120.97661,16.1378968 C120.97661,16.3218712 120.960861,16.5517247 120.929674,16.8276099 L112.421955,16.8276099 C112.531265,17.5171702 112.867145,18.0305554 113.429752,18.3677655 C113.992203,18.6896826 114.609387,18.8505647 115.281304,18.8505647 C115.968813,18.8505647 116.554655,18.7202685 117.038983,18.4596762 C117.539061,18.1839439 117.898487,17.8773198 118.117106,17.5402626 L120.742086,19.4713066 C120.195228,20.2374846 119.445345,20.85058 118.492125,21.3102868 C117.554655,21.7701466 116.468735,22 115.234368,22 Z M117.484329,14.5517094 C117.328084,13.938614 117.015593,13.5018466 116.546858,13.2414073 C116.078123,12.965522 115.585997,12.8275794 115.070326,12.8275794 C114.804616,12.8275794 114.539061,12.8581653 114.273507,12.9194901 C114.007797,12.980815 113.757836,13.0803722 113.523468,13.2183149 C113.2891,13.3562575 113.078123,13.5325855 112.890691,13.7471459 C112.718696,13.9617064 112.593794,14.2299452 112.515671,14.5517094 L117.484329,14.5517094 Z" id="Shape" fill-rule="nonzero"></path>
            <path d="M130.635781,22 C130.250436,22 129.888165,21.9526374 129.549123,21.8580695 C129.225464,21.7792367 128.924879,21.6687763 128.64737,21.5268458 C128.385396,21.3849153 128.154189,21.2272497 127.953748,21.053849 C127.753307,20.8804483 127.599169,20.7147578 127.491334,20.5570922 L127.491334,21.7397416 L124,21.7397416 L124,4 L127.491334,4 L127.491334,11.0959124 C127.599169,10.938231 127.753307,10.7726507 127.953748,10.5992028 C128.154189,10.4257391 128.385396,10.2680578 128.64737,10.126143 C128.924879,9.98422819 129.225464,9.87384653 129.549123,9.79499799 C129.888165,9.70038289 130.250436,9.6530832 130.635781,9.6530832 C131.391088,9.6530832 132.092401,9.81864783 132.739873,10.1497928 C133.402728,10.4809378 133.972977,10.9303477 134.450774,11.4980226 C134.928725,12.0499152 135.306379,12.7043376 135.583735,13.4611955 C135.861245,14.2023183 136,14.9908037 136,15.8264944 C136,16.6621851 135.861245,17.458538 135.583735,18.2155533 C135.306379,18.956676 134.928725,19.6109411 134.450774,20.1786632 C133.972977,20.7306502 133.402728,21.1721769 132.739873,21.5032432 C132.092401,21.8344668 131.391088,22 130.635781,22 Z M129.849708,18.7595154 C130.635781,18.7595154 131.26787,18.4835219 131.745667,17.9316922 C132.238847,17.3797052 132.485591,16.6780775 132.485591,15.8264944 C132.485591,14.9750686 132.238847,14.2732836 131.745667,13.7214539 C131.26787,13.1694669 130.635781,12.8934734 129.849708,12.8934734 C129.063634,12.8934734 128.423854,13.1694669 127.930674,13.7214539 C127.452723,14.2732836 127.213824,14.9750686 127.213824,15.8264944 C127.213824,16.6780775 127.452723,17.3797052 127.930674,17.9316922 C128.423854,18.4835219 129.063634,18.7595154 129.849708,18.7595154 Z" id="Shape" fill-rule="nonzero"></path>
            <path d="M142.794835,22 C141.221875,22 140.029538,21.5146191 139.217655,20.5440135 C138.405941,19.5734079 138,18.2895778 138,16.6926793 L138,10 L141.830872,10 L141.830872,16.0821648 C141.830872,16.943259 141.974513,17.6086073 142.262132,18.0782098 C142.566461,18.5479685 143.074015,18.7827698 143.784286,18.7827698 C144.511604,18.7827698 145.086674,18.5401574 145.509494,18.0547765 C145.949194,17.5693956 146.169128,16.7867248 146.169128,15.7064516 L146.169128,10 L150,10 L150,21.7416093 L146.169128,21.7416093 L146.169128,20.5440135 C145.86463,20.9509711 145.43337,21.29544 144.875179,21.577264 C144.316989,21.859088 143.623597,22 142.794835,22 Z" id="Path" fill-rule="nonzero"></path>
            <polygon id="Path" fill-rule="nonzero" points="153 4 157 4 157 22 153 22"></polygon>
            <path d="M164.363928,22 C163.60864,22 162.8995,21.8391179 162.236508,21.5172008 C161.590437,21.1954366 161.027432,20.7663157 160.549032,20.2298381 C160.07217,19.6780676 159.693757,19.0421857 159.41687,18.3218865 C159.138444,17.5861415 159,16.812164 159,15.9999541 C159,15.1877442 159.138444,14.4214132 159.41687,13.7011141 C159.693757,12.965522 160.07217,12.3294872 160.549032,11.7931013 C161.027432,11.2413767 161.590437,10.804594 162.236508,10.4827533 C162.8995,10.1609127 163.60864,10 164.363928,10 C164.750032,10 165.103833,10.0459707 165.428407,10.1379273 C165.766825,10.2145604 166.068325,10.3218407 166.32983,10.459768 C166.606717,10.5976953 166.838995,10.7509463 167.023587,10.919536 C167.223561,11.0881105 167.385079,11.2490385 167.50814,11.4022894 L167.50814,10.2528693 L171,10.2528693 L171,21.7470542 L167.50814,21.7470542 L167.50814,20.5976342 C167.385079,20.7508698 167.223561,20.9119048 167.023587,21.0804334 C166.838995,21.248962 166.606717,21.4021976 166.32983,21.5401402 C166.068325,21.6780829 165.766825,21.7854396 165.428407,21.8620574 C165.103833,21.9539681 164.750032,22 164.363928,22 Z M165.149981,18.8505647 C165.936034,18.8505647 166.56826,18.5823259 167.046661,18.0460013 C167.538905,17.5095237 167.786566,16.8276099 167.786566,15.9999541 C167.786566,15.1724512 167.538905,14.4903845 167.046661,13.9540599 C166.56826,13.4175823 165.936034,13.1493435 165.149981,13.1493435 C164.363928,13.1493435 163.72401,13.4175823 163.231765,13.9540599 C162.753365,14.4903845 162.514934,15.1724512 162.514934,15.9999541 C162.514934,16.8276099 162.753365,17.5095237 163.231765,18.0460013 C163.72401,18.5823259 164.363928,18.8505647 165.149981,18.8505647 Z" id="Shape" fill-rule="nonzero"></path>
            <path d="M10.5889497,5.04863931 C6.40357762,10.7182721 6.42779195,17.9619495 10.6430252,21.2278973 C11.7508153,22.086207 13.0378664,22.5843834 14.4092297,22.7494244 C10.5187938,25.9959274 6.03726547,27.0033685 3.01127182,24.8888509 C-1.13865473,21.9889823 -0.979540925,14.3152984 3.36668126,7.74930165 C6.99587456,2.26646889 12.397,-0.710343855 16.4965426,0.1451214 C14.3311745,1.12908402 12.2526213,2.79485725 10.5889497,5.04863931 Z M16.0884342,12.2895204 C14.1336118,14.1873796 11.8995738,15.4490514 10.013437,15.8688052 C11.1271242,19.9588332 15.4083055,20.2731664 15.4083055,20.2731664 C15.4083055,20.2731664 17.9561287,19.6713372 19.8799792,15.2300145 C21.4642347,11.5728053 21.3261129,7.79376791 19.7293436,5.87058212 C19.5965402,7.72934245 18.2929081,10.1491619 16.0884342,12.2895204 Z" id="Shape"></path>
        </g>
    </g>
</svg>