<svg width="211" height="115" viewBox="0 0 211 115" fill="none" xmlns="http://www.w3.org/2000/svg">
<path d="M38.1384 29.6338L36.2322 10.7149L49.8824 8.5918" fill="#CCCCCC"/>
<path d="M36.231 10.7148L27.6375 19.1124L38.1384 29.6337" fill="#E5E5E5"/>
<path d="M21.5378 13.0004L36.2309 10.7153L27.6387 19.1124" fill="white"/>
<path d="M37.3581 30.3661L17.9857 29.0553L28.6141 21.606" fill="#E6E6E6"/>
<path d="M17.9857 29.0548L20.7588 13.7358L28.6141 21.6065" fill="#CCCCCC"/>
<path d="M17.9857 29.0552L23.9119 37.0752L37.3581 30.366" fill="white"/>
<path d="M17.9857 29.0552L23.9119 37.0752L15.8016 41.1223" fill="#E4E4E4"/>
<path d="M37.8464 31.3188L26.1215 37.1684L41.744 56.0727" fill="#CCCCCC"/>
<path d="M41.7441 56.0718L26.2069 37.2665L26.1215 37.168L25.5949 47.2245" fill="#E6E6E6"/>
<path d="M16.2402 42.0995L26.1228 37.168L25.5949 47.2245" fill="#CCCCCC"/>
<path d="M40.5468 41.588L47.8437 33.156L38.911 31.2031" fill="white"/>
<path d="M40.5468 41.5877L49.9627 49.2197L47.8436 33.1558" fill="#E6E6E6"/>
<path d="M40.5468 41.5879L49.9627 49.2199L42.8125 55.9779" fill="#CCCCCC"/>
<path d="M47.8449 33.1558L63.3655 36.5489L49.9627 49.2197" fill="white"/>
<path d="M43.6234 22.0039L47.8449 32.06L39.0806 30.145" fill="white"/>
<path d="M43.6234 22.0039L47.8449 32.06L60.4317 29.0553" fill="#E6E6E6"/>
<path d="M47.8449 32.0604L63.5134 35.4859L60.4317 29.0547" fill="#CCCCCC"/>
<path d="M43.6234 22.0039L60.4317 29.0552L50.8488 9.05713" fill="white"/>
<path d="M100.662 36.5176V45.0172H82.2865C80.1381 45.4282 80.0349 47.2111 80.0349 47.2111V67.5937C80.0349 67.5937 79.8309 69.9938 82.2444 70.3285H93.0475V62.4972H86.7184V54.1828H101.369V78.4656H82.3452C74.7831 78.4656 71.7703 74.8025 71.7703 67.0627V47.4473C71.7703 40.1215 75.7878 36.5176 83.6457 36.5176" fill="white"/>
<path d="M154.267 36.5176V45.0172H135.891C133.744 45.4282 133.638 47.2111 133.638 47.2111V67.5937C133.638 67.5937 133.436 69.9938 135.849 70.3285H146.654V62.4972H140.322V54.1828H154.976V78.4656H135.951C128.388 78.4656 125.376 74.8025 125.376 67.0627V47.4473C125.376 40.1215 129.393 36.5176 137.25 36.5176" fill="white"/>
<path d="M186.71 70.3373V58.7592L174.728 60.3779C171.813 60.7837 169.386 61.998 169.386 65.5581C169.386 68.7172 171.167 70.3373 173.434 70.3373H186.71ZM181.205 36.498C191.082 36.498 194.887 42.1643 194.887 51.7168V78.5132H173.514C165.905 78.5132 161.048 74.0612 161.048 65.4794C161.048 58.5167 165.823 54.5497 174.001 53.1747L186.789 51.0694C186.789 47.3445 185.173 44.917 181.448 44.917H166.714V36.498" fill="white"/>
<mask id="mask0_79_67" style="mask-type:luminance" maskUnits="userSpaceOnUse" x="15" y="8" width="180" height="98">
<path d="M15.8032 105.966H194.887V8.5918H15.8032V105.966Z" fill="white"/>
</mask>
<g mask="url(#mask0_79_67)">
<path d="M109.184 36.4971V44.9051H117.441V36.4971H109.184Z" fill="white"/>
<path d="M109.183 48.3999V78.5134H117.439V48.3999H109.183Z" fill="white"/>
<path d="M53.8298 8.85938H53.2356L66.6461 36.8398L44.9902 57.3094V58.0147L44.9915 58.044L67.2964 36.9602" fill="white"/>
<path d="M72.5162 100.365C72.5162 100.518 72.4397 100.595 72.2867 100.595H71.8762C71.7232 100.595 71.6722 100.518 71.6722 100.365V88.2696C71.6722 88.1157 71.7232 88.0379 71.8762 88.0379H72.2867C72.4397 88.0379 72.5162 88.1157 72.5162 88.2696V100.365ZM72.5162 85.4307C72.5162 85.5835 72.4397 85.6598 72.2867 85.6598H71.8762C71.7232 85.6598 71.6722 85.5835 71.6722 85.4307V82.9504C71.6722 82.7965 71.7232 82.7188 71.8762 82.7188H72.2867C72.4397 82.7188 72.5162 82.7965 72.5162 82.9504" fill="white"/>
<path d="M77.708 88.0391C77.861 88.0391 77.9107 88.1159 77.9107 88.2698L77.9643 89.4446C78.7038 88.8315 80.2657 87.834 82.4905 87.834C84.8939 87.834 85.9675 89.0621 85.9675 90.7749V100.365C85.9675 100.518 85.8897 100.595 85.7367 100.595H85.3274C85.1744 100.595 85.1222 100.518 85.1222 100.365V90.9024C85.1222 89.5736 84.2794 88.6014 82.3363 88.6014C80.0859 88.6014 78.5763 89.7275 77.9885 90.2121V100.365C77.9885 100.518 77.9108 100.595 77.759 100.595H77.3498C77.1968 100.595 77.1445 100.518 77.1445 100.365V88.2698C77.1445 88.1159 77.1968 88.0391 77.3498 88.0391" fill="white"/>
<path d="M90.903 88.0643V85.5846C90.903 83.8453 91.9 82.5928 95.2762 82.5928H95.3782C95.5312 82.5928 95.5835 82.669 95.5835 82.8219V83.1038C95.5835 83.2567 95.5312 83.3329 95.3782 83.3329H95.2762C92.5133 83.3329 91.747 84.3051 91.747 85.6613V88.0643H94.918C95.0722 88.0643 95.1487 88.1411 95.1487 88.2939V88.5753C95.1487 88.7297 95.0722 88.806 94.918 88.806H91.747V100.365C91.747 100.518 91.696 100.595 91.5175 100.595H91.1338C90.9795 100.595 90.903 100.518 90.903 100.365V88.806H89.1626C89.0109 88.806 88.9599 88.7297 88.9599 88.5753V88.3462C88.9599 88.1918 89.0109 88.1157 89.1626 88.1157L90.597 88.0643" fill="white"/>
<path d="M105.71 90.878C105.71 89.5477 104.891 88.5512 102.131 88.5512C99.3945 88.5512 98.5759 89.5477 98.5759 90.878V97.7581C98.5759 99.0859 99.3945 100.059 102.131 100.059C104.891 100.059 105.71 99.0859 105.71 97.7581V90.878ZM97.7319 90.8262C97.7319 89.0621 98.7799 87.834 102.131 87.834C105.506 87.834 106.556 89.0621 106.556 90.8262V97.8078C106.556 99.547 105.506 100.8 102.131 100.8C98.7799 100.8 97.7319 99.547 97.7319 97.8078" fill="white"/>
<path d="M117.96 90.4424C117.96 89.3167 116.937 88.4989 114.559 88.4989C112.181 88.4989 111.21 89.3167 111.21 90.4424V91.3876C111.21 92.3607 112.129 92.9485 112.793 93.1536L116.859 94.3808C117.96 94.7136 118.957 95.4551 118.957 96.6311V98.1655C118.957 99.6488 117.627 100.799 114.585 100.799C111.541 100.799 110.237 99.6488 110.237 98.1655V97.4239C110.237 97.2964 110.314 97.2187 110.468 97.2187H110.85C110.979 97.2187 111.057 97.2964 111.057 97.4239V98.1402C111.057 99.2906 112.129 100.109 114.585 100.109C117.014 100.109 118.14 99.2906 118.14 98.1402V96.8098C118.14 95.864 117.321 95.352 116.451 95.0961L112.384 93.8689C111.541 93.6124 110.39 92.7956 110.39 91.5176V90.4424C110.39 88.9845 111.567 87.8345 114.559 87.8345C117.55 87.8345 118.753 88.9845 118.753 90.4424V91.3378C118.753 91.4653 118.702 91.5176 118.522 91.5176H118.14C118.011 91.5176 117.96 91.4653 117.96 91.3378" fill="white"/>
<path d="M125.3 98.2934C125.402 98.6001 125.631 99.4184 125.631 99.4184C125.631 99.4184 125.786 98.7033 125.939 98.2934L129.391 88.2687C129.442 88.1158 129.519 88.0391 129.646 88.0391H130.081C130.234 88.0391 130.286 88.1422 130.234 88.2687L124.252 105.737C124.201 105.863 124.123 105.966 123.996 105.966H123.637C123.484 105.966 123.432 105.863 123.484 105.737L125.197 100.57L120.978 88.2687C120.927 88.1422 120.978 88.0391 121.131 88.0391H121.565C121.72 88.0391 121.798 88.1158 121.847 88.2687" fill="white"/>
<path d="M140.158 90.4424C140.158 89.3167 139.135 88.4989 136.757 88.4989C134.377 88.4989 133.408 89.3167 133.408 90.4424V91.3876C133.408 92.3607 134.327 92.9485 134.991 93.1536L139.058 94.3808C140.158 94.7136 141.156 95.4551 141.156 96.6311V98.1655C141.156 99.6488 139.826 100.799 136.781 100.799C133.738 100.799 132.435 99.6488 132.435 98.1655V97.4239C132.435 97.2964 132.511 97.2187 132.664 97.2187H133.048C133.176 97.2187 133.253 97.2964 133.253 97.4239V98.1402C133.253 99.2906 134.327 100.109 136.781 100.109C139.211 100.109 140.336 99.2906 140.336 98.1402V96.8098C140.336 95.864 139.519 95.352 138.648 95.0961L134.582 93.8689C133.738 93.6124 132.588 92.7956 132.588 91.5176V90.4424C132.588 88.9845 133.763 87.8345 136.757 87.8345C139.748 87.8345 140.951 88.9845 140.951 90.4424V91.3378C140.951 91.4653 140.898 91.5176 140.72 91.5176H140.336C140.209 91.5176 140.158 91.4653 140.158 91.3378" fill="white"/>
<path d="M149.389 88.0645C149.542 88.0645 149.619 88.1413 149.619 88.2941V88.5755C149.619 88.7299 149.542 88.8062 149.389 88.8062H146.192V97.5274C146.192 98.8821 146.934 99.8533 149.696 99.8533H150.054C150.208 99.8533 150.285 99.9042 150.285 100.083V100.365C150.285 100.518 150.208 100.595 150.054 100.595H149.619C146.244 100.595 145.349 99.3931 145.349 97.6037V88.8062H143.636C143.483 88.8062 143.406 88.7299 143.406 88.5755V88.3464C143.406 88.192 143.483 88.1159 143.636 88.1159L145.042 88.0645H145.349V85.2257C145.349 85.0727 145.4 84.9961 145.553 84.9961H145.963C146.116 84.9961 146.192 85.0727 146.192 85.2257V88.0645" fill="white"/>
<path d="M153.865 93.5619H160.922V90.8517C160.922 89.5467 160.156 88.5502 157.394 88.5502C154.633 88.5502 153.865 89.5467 153.865 90.8517V93.5619ZM161.742 94.0232C161.742 94.1761 161.666 94.2527 161.537 94.2527H153.865V97.7565C153.865 99.0859 154.607 100.083 157.394 100.083C160.181 100.083 160.922 99.0859 160.922 97.7565V97.117C160.922 96.9641 160.999 96.8874 161.153 96.8874H161.511C161.665 96.8874 161.742 96.9641 161.742 97.117V97.8078C161.742 99.547 160.744 100.8 157.369 100.8C154.018 100.8 153.021 99.547 153.021 97.8078V90.8262C153.021 89.0621 154.018 87.834 157.394 87.834C160.744 87.834 161.742 89.0621 161.742 90.8262" fill="white"/>
<path d="M166.37 88.0391C166.523 88.0391 166.576 88.1159 166.576 88.2698L166.601 89.4202C167.316 88.8315 168.774 87.834 170.998 87.834C172.789 87.834 173.837 88.5248 174.271 89.5736C174.887 89.0357 176.394 87.834 178.824 87.834C181.228 87.834 182.301 89.0621 182.301 90.7749V100.365C182.301 100.518 182.226 100.595 182.072 100.595H181.689C181.51 100.595 181.457 100.518 181.457 100.365V90.9024C181.457 89.5736 180.615 88.6014 178.67 88.6014C176.318 88.6014 174.913 89.8027 174.4 90.2639C174.451 90.4681 174.477 90.6987 174.477 90.9024V100.365C174.477 100.518 174.4 100.595 174.246 100.595H173.837C173.685 100.595 173.634 100.518 173.634 100.365V90.9024C173.634 89.5736 172.789 88.6014 170.845 88.6014C168.621 88.6014 167.189 89.7275 166.651 90.2121V100.365C166.651 100.518 166.575 100.595 166.422 100.595H166.012C165.859 100.595 165.809 100.518 165.809 100.365V88.2698C165.809 88.1159 165.859 88.0391 166.012 88.0391" fill="white"/>
<path d="M193.862 90.4424C193.862 89.3167 192.841 88.4989 190.461 88.4989C188.083 88.4989 187.111 89.3167 187.111 90.4424V91.3876C187.111 92.3607 188.033 92.9485 188.697 93.1536L192.763 94.3808C193.862 94.7136 194.86 95.4551 194.86 96.6311V98.1655C194.86 99.6488 193.53 100.799 190.487 100.799C187.442 100.799 186.14 99.6488 186.14 98.1655V97.4239C186.14 97.2964 186.217 97.2187 186.37 97.2187H186.754C186.881 97.2187 186.958 97.2964 186.958 97.4239V98.1402C186.958 99.2906 188.033 100.109 190.487 100.109C192.916 100.109 194.042 99.2906 194.042 98.1402V96.8098C194.042 95.864 193.223 95.352 192.352 95.0961L188.288 93.8689C187.442 93.6124 186.293 92.7956 186.293 91.5176V90.4424C186.293 88.9845 187.468 87.8345 190.461 87.8345C193.453 87.8345 194.655 88.9845 194.655 90.4424V91.3378C194.655 91.4653 194.604 91.5176 194.424 91.5176H194.042C193.913 91.5176 193.862 91.4653 193.862 91.3378" fill="white"/>
</g>
</svg>
