<?xml version="1.0" encoding="UTF-8"?>
<svg width="200px" height="100px" viewBox="0 0 200 100" version="1.1" xmlns="http://www.w3.org/2000/svg" xmlns:xlink="http://www.w3.org/1999/xlink">
    <title>Artboard</title>
    <defs>
        <polygon id="path-1" points="0 37 120 37 120 0 0 0"></polygon>
        <polygon id="path-3" points="0 37 120 37 120 0 0 0"></polygon>
    </defs>
    <g id="Artboard" stroke="none" stroke-width="1" fill="none" fill-rule="evenodd">
        <g id="google" transform="translate(40, 31)">
            <path d="M15.098927,29 C6.89298839,29 0,22.4914065 0,14.5 C0,6.50443999 6.89298839,0 15.098927,0 C19.634573,0 22.8657945,1.73202521 25.2998677,3.99570324 L22.4309864,6.79103409 C20.6874908,5.19607563 18.3301485,3.96247494 15.098927,3.96247494 C9.10965751,3.96247494 4.42481258,8.66427957 4.42481258,14.5 C4.42481258,20.3357204 9.10965751,25.0375251 15.098927,25.0375251 C18.9823607,25.0375251 21.1947671,23.5173303 22.610025,22.1383558 C23.7737763,21.0085935 24.536822,19.3804067 24.8266941,17.1541106 L15.098927,17.1541106 L15.098927,13.1916356 L28.782596,13.1916356 C28.927532,13.897737 29,14.7450587 29,15.6671441 C29,18.6369235 28.1644863,22.3169579 25.4789064,24.9336866 C22.8657945,27.5836437 19.5280024,29 15.098927,29" id="Fill-1" fill="#FEFEFE" fill-rule="nonzero"></path>
            <path d="M45.8414934,20 C45.8414934,16.761121 43.3650793,14.547153 40.4978761,14.547153 C37.6306729,14.547153 35.1585066,16.761121 35.1585066,20 C35.1585066,23.202847 37.6306729,25.452847 40.4978761,25.452847 C43.3650793,25.452847 45.8414934,23.202847 45.8414934,20 M50,20 C50,25.180605 45.7353007,29 40.4978761,29 C35.2646993,29 31,25.180605 31,20 C31,14.783363 35.2646993,11 40.4978761,11 C45.7353007,11 50,14.783363 50,20" id="Fill-3" fill="#FEFEFE" fill-rule="nonzero"></path>
            <path d="M66.8414936,20 C66.8414936,16.761121 64.3693272,14.547153 61.4978762,14.547153 C58.6349207,14.547153 56.1585066,16.761121 56.1585066,20 C56.1585066,23.202847 58.6349207,25.452847 61.4978762,25.452847 C64.3693272,25.452847 66.8414936,23.202847 66.8414936,20 M71,20 C71,25.180605 66.7353008,29 61.4978762,29 C56.2646994,29 52,25.180605 52,20 C52,14.783363 56.2646994,11 61.4978762,11 C66.7353008,11 71,14.783363 71,20" id="Fill-5" fill="#FEFEFE" fill-rule="nonzero"></path>
            <path d="M86.3699236,19.3523722 C86.3699236,16.0690926 84.1643074,13.6688162 81.3571596,13.6688162 C78.5082386,13.6688162 76.1271756,16.0690926 76.1271756,19.3523722 C76.1271756,22.5983418 78.5082386,24.9654537 81.3571596,24.9654537 C84.1643074,24.9654537 86.3699236,22.5983418 86.3699236,19.3523722 L86.3699236,19.3523722 Z M90,10.5637955 L90,27.2952556 C90,34.176877 85.9104201,37 81.0689252,37 C76.5156648,37 73.7795313,33.9654538 72.7477373,31.4947029 L76.340218,30.0147398 C76.9793453,31.5320129 78.5458342,33.3311838 81.0689252,33.3311838 C84.1643074,33.3311838 86.0858668,31.4242285 86.0858668,27.8590511 L86.0858668,26.5158913 L85.9438381,26.5158913 C85.020654,27.6476278 83.2411234,28.63427 81.0020885,28.63427 C76.3067993,28.63427 72,24.5757715 72,19.3523722 C72,14.0916628 76.3067993,10 81.0020885,10 C83.2411234,10 85.020654,10.9866421 85.9438381,12.0810686 L86.0858668,12.0810686 L86.0858668,10.5637955 L90,10.5637955 Z" id="Fill-7" fill="#FEFEFE" fill-rule="nonzero"></path>
            <g id="Fill-9-Clipped">
                <mask id="mask-2" fill="white">
                    <use xlink:href="#path-1"></use>
                </mask>
                <g id="path-1"></g>
                <polygon id="Fill-9" fill="#FEFEFE" fill-rule="nonzero" mask="url(#mask-2)" points="94.9273695 28.1446666 99.0531928 28.1446666 99.0531928 0.982555552 94.9273695 0.982555552"></polygon>
            </g>
            <g id="Fill-11-Clipped">
                <mask id="mask-4" fill="white">
                    <use xlink:href="#path-3"></use>
                </mask>
                <g id="path-1"></g>
                <path d="M106.759745,19.1824445 L115.157697,15.7537778 C114.693698,14.5944445 113.305884,13.7927778 111.667259,13.7927778 C109.572996,13.7927778 106.65106,15.614 106.759745,19.1824445 M116.620755,22.5083334 L119.822761,24.6091111 C118.79026,26.1137778 116.298882,28.7037778 111.989131,28.7037778 C106.65106,28.7037778 102.663183,24.642 102.663183,19.462 C102.663183,13.9654445 106.688682,10.2202222 111.529314,10.2202222 C116.403386,10.2202222 118.79026,14.0353334 119.571951,16.1032222 L119.998328,17.1515555 L107.436932,22.2616666 C108.39837,24.1157778 109.890689,25.0613334 111.989131,25.0613334 C114.091755,25.0613334 115.550632,24.05 116.620755,22.5083334" id="Fill-11" fill="#FEFEFE" fill-rule="nonzero" mask="url(#mask-4)"></path>
            </g>
        </g>
    </g>
</svg>