<?xml version="1.0" encoding="UTF-8"?>
<svg width="200px" height="100px" viewBox="0 0 200 100" version="1.1" xmlns="http://www.w3.org/2000/svg" xmlns:xlink="http://www.w3.org/1999/xlink">
    <title>Artboard</title>
    <defs>
        <polygon id="path-1" points="0 0 12 0 12 34 0 34"></polygon>
    </defs>
    <g id="Artboard" stroke="none" stroke-width="1" fill="none" fill-rule="evenodd">
        <g id="hightec_rt" transform="translate(30, 27)">
            <path d="M50,23.5039952 C50,19.9346942 50,16.3653933 50,12.7965882 C50,12.5204631 50.0717474,12.2770566 50.3429102,12.1243698 C50.482712,12.0455478 50.638868,12.0182823 50.7987169,12.0167951 C51.1817212,12.0133249 51.5647255,12.0128292 51.9477298,12.0162993 C52.442048,12.020761 52.7163761,12.2825097 52.7163761,12.7455273 C52.7163761,15.5846088 52.7163761,18.4231944 52.7158485,21.2622759 C52.7158485,21.3961247 52.7216517,21.5284862 52.7416987,21.6613435 C52.7802102,21.916152 52.8830832,22.0113334 53.1605767,22.0128205 C53.7735946,22.0152992 54.3866124,22.0133163 54.9996303,22.013812 C56.2420202,22.013812 57.4844103,22.0133163 58.7262724,22.0143078 C58.8491929,22.0143078 58.9684198,22.0034015 59.070238,21.93499 C59.1435681,21.8854163 59.1889375,21.814526 59.1942129,21.726285 C59.2052918,21.5369138 59.2258665,21.3470468 59.226394,21.1571798 C59.228504,18.3542871 59.227449,15.5513944 59.227449,12.7485018 C59.227449,12.3048178 59.423699,12.056454 59.8932219,12.0286927 C60.4091704,11.9979571 60.9319762,11.9761447 61.4479241,12.049018 C61.7544332,12.092147 61.9533211,12.3286132 61.9791713,12.614653 C62.0060764,12.9175478 61.999218,13.2204427 61.999218,13.5238332 C61.999746,20.3431809 61.999746,27.1625286 61.9986905,33.9818762 C61.9986905,34.1360502 61.9902496,34.2902242 61.9728403,34.4434067 C61.9364393,34.7557205 61.6462845,34.9867336 61.2690834,34.9936739 C60.8206621,35.0016057 60.3717138,35.0025972 59.9227651,34.9936739 C59.4796198,34.9842549 59.2279765,34.7319251 59.2279765,34.315011 C59.227449,31.2657374 59.2279765,28.2159681 59.226394,25.1661987 C59.226394,24.9659213 59.2079292,24.7656439 59.1963234,24.5658621 C59.184717,24.3621146 59.0823713,24.25801 58.8655466,24.2302487 C58.8170117,24.2238042 58.7674219,24.2267786 58.718359,24.2267786 C56.8845809,24.2267786 55.0513304,24.2267786 53.2175525,24.2262829 C53.129451,24.2262829 53.0429321,24.229753 52.959051,24.2575142 C52.8329655,24.2996518 52.7659662,24.3844227 52.7490845,24.5083567 C52.7263997,24.6764114 52.7147935,24.8449617 52.7147935,25.0149992 C52.7169037,28.0955042 52.7116281,31.1765049 52.7216517,34.2570098 C52.7227068,34.6679752 52.4388826,35.0050759 51.9382338,34.997144 C51.5715837,34.9911952 51.2049336,34.9961526 50.8377559,34.9961526 C50.2753833,34.9951611 50,34.7383697 50,34.2114021 C50,30.642597 50,27.073296 50,23.5039952" id="Fill-1" fill="#FFFFFF" fill-rule="nonzero"></path>
            <path d="M83.8051325,28.5226886 C83.8051325,30.1544668 83.8051325,31.7867508 83.8051325,33.4185289 C83.8051325,33.9051286 83.6473879,34.1150443 83.1679475,34.2470635 C82.288198,34.4898576 81.4037937,34.7195002 80.4950811,34.8297692 C80.0078827,34.8889502 79.5186158,34.9385207 79.0277975,34.9724107 C78.5933534,35.0022541 78.1589087,35.0063006 77.7265337,34.9921377 C76.8695405,34.9638117 76.0177192,34.8818687 75.2062394,34.5829286 C74.5416434,34.3381113 73.9437652,33.9906124 73.4550154,33.4741692 C73.0257431,33.0204479 72.7407684,32.4842778 72.4883772,31.9268631 C72.2887398,31.4862931 72.2013335,31.0209379 72.1578892,30.543443 C72.0777238,29.6612915 72.0425546,28.7781282 72.0249701,27.8924358 C72.0110054,27.1792284 72.001696,26.4660209 72.0011789,25.7528135 C71.9991103,23.5803128 71.9980755,21.4078121 72.0130745,19.2358173 C72.0182463,18.4396552 72.0513469,17.6429874 72.1025493,16.8483427 C72.1516831,16.0880939 72.1889207,15.3217753 72.4201075,14.5858059 C72.7961083,13.3895396 73.5253543,12.4568058 74.63629,11.8235181 C75.4244963,11.3738434 76.2820066,11.1356017 77.1876159,11.0410132 C77.8573837,10.9717157 78.5235317,10.9944777 79.1876106,11.0774323 C80.1382161,11.1963002 81.0453774,11.4613504 81.8346173,12.0081427 C82.8550446,12.7147745 83.5036074,13.6743167 83.7725489,14.8746297 C83.9323626,15.5883429 84.0094246,16.308126 83.999081,17.0385314 C83.9928743,17.4684791 83.7306566,17.7350467 83.2879368,17.7411166 C82.9015922,17.7466806 82.5152471,17.7426341 82.128902,17.7426341 C81.4829248,17.7426341 81.2548414,17.5347417 81.2434629,16.8994307 C81.2357049,16.4957856 81.2160518,16.093658 81.140024,15.6970944 C81.0102077,15.0187886 80.767643,14.3930882 80.2023483,13.9368377 C79.7953153,13.60856 79.3153584,13.419383 78.8023003,13.3455331 C78.2349365,13.2635902 77.6587811,13.2570145 77.0955549,13.3986443 C76.320279,13.5938912 75.6680952,13.9656696 75.2657169,14.6743246 C75.0381512,15.0754406 74.945573,15.5170222 74.889716,15.9651795 C74.763003,16.9864319 74.7774848,18.013754 74.7485218,19.0400646 C74.7086973,20.4406826 74.7221449,21.8418064 74.7345571,23.2419186 C74.7412809,23.980923 74.7350748,24.7214447 74.7640373,25.4599432 C74.7888627,26.0998066 74.7671406,26.7401759 74.7961036,27.3790276 C74.8235147,27.9875301 74.8059302,28.5960326 74.8261009,29.2035235 C74.8452369,29.7745953 74.930057,30.3350448 75.1038347,30.8858838 C75.3401933,31.6319696 75.8775592,32.1018772 76.5690498,32.3982882 C77.3355339,32.726566 78.1594259,32.8130613 78.9915936,32.7650083 C79.5465446,32.7326358 80.0921856,32.627425 80.6264488,32.4670798 C81.1927777,32.2966182 81.1234737,32.1610582 81.1720898,31.7609539 C81.1845026,31.6628246 81.1741589,31.5616605 81.1741589,31.4620138 C81.174676,29.6304364 81.174676,27.7993648 81.1741589,25.9677874 C81.1741589,25.8104771 81.1720898,25.6541784 81.1498505,25.497374 C81.1105438,25.2237249 81.0277928,25.1427935 80.7428175,25.1422877 C80.1366648,25.1407702 79.5299943,25.1463342 78.9238409,25.1397586 C78.6192131,25.1362178 78.3378583,25.067932 78.1656325,24.7836607 C78.0590903,24.6066234 78.079261,24.4078358 78.0647792,24.2166355 C78.0451262,23.9500679 78.063745,23.6824886 78.0859843,23.415921 C78.1133959,23.0835967 78.3952673,22.853954 78.7816124,22.8529424 C79.7203223,22.8509191 80.6595494,22.8524366 81.5982593,22.8519308 C82.0921809,22.8519308 82.5855854,22.851425 83.079507,22.8524366 C83.5501551,22.8529424 83.8040982,23.1002888 83.8046153,23.5636207 C83.8056496,25.2166433 83.8051325,26.869666 83.8051325,28.5226886" id="Fill-3" fill="#FFFFFF" fill-rule="nonzero"></path>
            <path d="M99.9998672,23.5054621 C99.9998672,27.0902917 100.000399,30.6751214 99.9993358,34.259951 C99.9993358,34.5554231 99.9100489,34.8092515 99.5879802,34.9351741 C99.481155,34.9773136 99.3679524,34.9966482 99.2504981,34.9966482 C98.8370169,34.9956567 98.4235352,34.9981354 98.0100535,34.9956567 C97.5561804,34.9926821 97.2968245,34.7452986 97.2968245,34.3194421 C97.2962932,31.1921975 97.2957618,28.0654487 97.2984187,24.9382041 C97.2984187,24.7879893 97.274503,24.6412448 97.2590902,24.493013 C97.2468663,24.377997 97.1713981,24.2966926 97.0502234,24.2575277 C96.9657203,24.2302609 96.8790911,24.2257991 96.7898048,24.2257991 C94.9317949,24.2262949 93.0737856,24.2262949 91.2157756,24.2267907 C91.1504051,24.2267907 91.0829091,24.2292694 91.0196642,24.2436464 C90.8219585,24.2887605 90.7438327,24.3804758 90.7374554,24.5703513 C90.7332036,24.6937952 90.7321403,24.817239 90.7321403,24.9406829 C90.7316089,27.970263 90.7321403,30.9993474 90.7305461,34.0284318 C90.7305461,34.1771594 90.7204484,34.3268784 90.6970634,34.473623 C90.646043,34.7894211 90.3861552,34.9872288 90.0029671,34.9936736 C89.5618493,35.0016058 89.1207315,35.0025973 88.6796136,34.9936736 C88.2751674,34.9857415 88.0259093,34.7368707 88.001993,34.3377851 C87.998804,34.286722 88.0003988,34.2351631 88.0003988,34.1836043 C88.0003988,27.0655038 88.0003988,19.9474033 88.0009302,12.8293029 C88.0009302,12.7574179 87.9972098,12.6845414 88.0078389,12.6141437 C88.0631117,12.256206 88.2528458,12.0524493 88.6551665,12.0286529 C89.1595287,11.9989074 89.6692059,11.9761025 90.1725053,12.0465002 C90.498295,12.09211 90.6688959,12.2963625 90.7076931,12.6052201 C90.7326717,12.8005488 90.7310775,12.9948862 90.7316089,13.1897193 C90.7321403,15.8901158 90.7316089,18.5900165 90.7321403,21.2904131 C90.7321403,21.4084036 90.733735,21.5268899 90.7369234,21.6453762 C90.7427699,21.8763996 90.8628813,21.9943902 91.1084196,22.0117417 C91.1413702,22.0142205 91.1748529,22.013229 91.2078035,22.013229 C93.0716594,22.013229 94.9349839,22.013229 96.7988397,22.013229 C97.0619159,22.0127332 97.2266709,21.9279585 97.257496,21.7663412 C97.2803489,21.6453762 97.2867268,21.5214366 97.2952298,21.3984884 C97.3005449,21.3266034 97.2968245,21.2542227 97.2968245,21.1823378 C97.2968245,18.3639507 97.3005449,15.5455637 97.2925728,12.7271766 C97.29151,12.2571976 97.5832851,12.020225 98.0605431,12.0157632 C98.4463881,12.0117971 98.8322332,12.0127886 99.2186102,12.0152674 C99.736791,12.0192335 99.9998672,12.2676085 99.9998672,12.7514688 C99.9998672,16.3358027 99.9998672,19.9206324 99.9998672,23.5054621" id="Fill-5" fill="#FFFFFF" fill-rule="nonzero"></path>
            <path d="M132.743242,26.410428 C132.71683,27.2044473 132.765082,28.027294 132.781335,28.8501408 C132.796572,29.6279763 132.886982,30.4042945 133.096243,31.1598773 C133.288236,31.8557821 133.736219,32.3155041 134.414287,32.5506755 C134.853127,32.7029046 135.308728,32.8278236 135.77398,32.7691572 C136.540935,32.6725599 137.260145,32.4459862 137.713206,31.7490699 C137.943293,31.3950486 138.040812,30.989947 138.090588,30.5772592 C138.162205,29.9835149 138.15611,29.3852188 138.162712,28.7879342 C138.163729,28.6680727 138.174395,28.5461882 138.200298,28.4298669 C138.265312,28.1319832 138.523841,27.9377772 138.882431,27.9306968 C139.361904,27.9215934 139.841377,27.9205819 140.320851,27.9306968 C140.738866,27.9398002 140.990793,28.2088564 140.992316,28.6255902 C140.99384,29.0509215 141.011109,29.4767586 140.988253,29.9005728 C140.950159,30.6151901 140.921208,31.3343592 140.67436,32.0186319 C140.425482,32.7089736 139.9968,33.2713617 139.452821,33.7664859 C139.079502,34.1063464 138.648789,34.3324143 138.203854,34.5468501 C137.791425,34.7456078 137.344459,34.8275384 136.900032,34.8973313 C136.444431,34.969147 135.979686,35.0121353 135.518498,34.996963 C134.580376,34.9666183 133.660539,34.846251 132.785907,34.457839 C131.669505,33.9617034 130.911694,33.1585807 130.504345,32.0130687 C130.327082,31.5154159 130.242259,31.0036021 130.186897,30.4821792 C130.060933,29.3022766 130.088361,28.1178224 130.055347,26.9343796 C130.014205,25.4606393 130.06906,23.9863932 130.025379,22.5131586 C129.979667,20.9762002 130.011665,19.4397476 130.002015,17.9032949 C129.997444,17.169965 130.055854,16.4391638 130.121375,15.7088683 C130.167596,15.1919971 130.224483,14.6786661 130.393111,14.1845535 C130.779128,13.0582599 131.495798,12.2005167 132.546678,11.6401515 C133.11402,11.3377161 133.732155,11.1647514 134.375686,11.0813035 C134.752052,11.0322463 135.13045,10.9958326 135.506308,11.0003843 C136.200122,11.0084762 136.883778,11.102039 137.557276,11.294222 C138.215536,11.4823591 138.819957,11.7595072 139.344127,12.1944477 C140.148667,12.8625366 140.670805,13.7015672 140.834862,14.74239 C140.966413,15.5733287 140.956254,16.4123593 140.956762,17.2498726 C140.956762,17.3535503 140.940001,17.459251 140.917145,17.5609057 C140.851624,17.8501917 140.623061,18.0266967 140.289868,18.0317541 C139.82614,18.0388345 139.362412,18.039846 138.898684,18.0312483 C138.49489,18.0241679 138.253122,17.7621921 138.215536,17.3545618 C138.174902,16.9105179 138.206901,16.4639452 138.154586,16.0209128 C138.082969,15.4109846 138.010338,14.7924587 137.618226,14.2887369 C137.142816,13.6777972 136.509951,13.3399597 135.722173,13.3106265 C135.210193,13.291914 134.723101,13.380925 134.245659,13.5736138 C133.542194,13.8583481 133.13129,14.3696561 132.965201,15.0948941 C132.824508,15.7088683 132.761526,16.3299229 132.734099,16.9595751 C132.709719,17.5310667 132.730544,18.1030641 132.7021,18.6735442 C132.652324,19.6804821 132.661467,20.6879257 132.685847,21.6938521 C132.713274,22.8110423 132.68026,23.9282326 132.715306,25.0444113 C132.72902,25.4899725 132.731052,25.9355336 132.743242,26.410428" id="Fill-7" fill="#FFFFFF" fill-rule="nonzero"></path>
            <path d="M118.000516,23.5055201 C118.000516,19.9184009 118.000516,16.3307855 118,12.7436661 C118,12.5650544 118.029894,12.3963655 118.145349,12.2500031 C118.304098,12.0495611 118.530884,12.0019313 118.772101,12.0014351 C119.916334,11.9989544 121.060568,12.0004428 122.204802,12.0004428 C123.717562,12.0004428 125.230837,12 126.744111,12.0004428 C127.314682,12.0004428 127.552291,12.2301574 127.552291,12.7793885 C127.552291,13.0110876 127.552291,13.2422906 127.552291,13.4739898 C127.552291,14.0261978 127.321898,14.2459894 126.74205,14.2459894 C125.517926,14.2459894 124.293287,14.2459894 123.069163,14.2459894 C122.427464,14.2459894 121.785765,14.2454933 121.144066,14.2464856 C120.789972,14.2464856 120.685857,14.3422413 120.685342,14.6850766 C120.683795,16.9703147 120.683795,19.2550567 120.685342,21.5402948 C120.685857,21.913891 120.791003,22.0066699 121.186331,22.0066699 C122.956285,22.0066699 124.725724,22.0066699 126.495679,22.0066699 C126.800293,22.0066699 127.049756,22.1034179 127.202321,22.3738162 C127.279118,22.5102558 127.278087,22.663068 127.28685,22.8094305 C127.304374,23.1066206 127.303859,23.4052991 127.261594,23.7024892 C127.217783,24.0135713 126.935848,24.2189749 126.534851,24.2204633 C125.887998,24.222944 125.240629,24.2214555 124.593777,24.2214555 C123.449543,24.2214555 122.305309,24.2214555 121.161075,24.2214555 C120.79925,24.2214555 120.685857,24.3236612 120.685857,24.6655042 C120.684311,27.2385057 120.684311,29.8120033 120.685342,32.3855009 C120.685857,32.7164288 120.793065,32.8156575 121.13685,32.8156575 C123.157814,32.8161537 125.178779,32.8156575 127.199743,32.8161537 C127.44663,32.8161537 127.678054,32.8538606 127.845565,33.0577757 C127.982152,33.2234877 127.983183,33.4229374 127.99246,33.6154412 C128.005861,33.8922894 128.003284,34.1696338 127.969267,34.4469782 C127.932156,34.7535949 127.687331,34.9728905 127.339938,34.9981939 C127.307982,35.0006745 127.27551,35 127.243554,35 C124.409771,35 121.575989,35 118.742206,34.9991861 C118.311314,34.9991861 118.088137,34.8275204 118.01237,34.436063 C117.997423,34.3611453 118.001031,34.2822584 118.001031,34.2053561 C118.000516,31.0250747 118.000516,27.8442972 118.000516,24.6635197 L118.000516,23.5055201 Z" id="Fill-9" fill="#FFFFFF" fill-rule="nonzero"></path>
            <path d="M107.152216,24.5377402 C107.152216,21.3009158 107.152216,18.0635954 107.151686,14.826771 C107.151686,14.7394635 107.151686,14.6531482 107.132069,14.5658407 C107.076398,14.3183043 106.992627,14.2463749 106.718517,14.2463749 C105.789085,14.2448866 104.859124,14.2453827 103.929692,14.2453827 C103.550073,14.2453827 103.170453,14.2458788 102.791364,14.2453827 C102.292451,14.2448866 101.976455,14.0052872 102.001374,13.507734 C102.014099,13.2512684 102.003495,12.9933146 102.004025,12.7358568 C102.004025,12.279477 102.272303,12.0185468 102.759552,12.0006884 C102.786592,11.9996963 102.814163,12 102.841733,12 C106.62043,12 110.399659,12 114.178357,12.0006884 C114.43338,12.0006884 114.669317,12.0483107 114.841631,12.2472327 C114.97577,12.4025011 114.978421,12.5929901 114.988495,12.7745499 C115.006521,13.0925276 115.007051,13.4119935 114.963045,13.7294751 C114.92116,14.0320747 114.627962,14.2433985 114.232437,14.2448866 C113.5066,14.247367 112.780233,14.2453827 112.054397,14.2453827 C111.482317,14.2453827 110.910236,14.2448866 110.338156,14.2458788 C110.006785,14.2463749 109.926195,14.3138397 109.868934,14.6154472 C109.849317,14.7181327 109.849317,14.819826 109.849317,14.9225115 C109.848787,21.3659003 109.848787,27.8092892 109.850377,34.252182 C109.850377,34.3826471 109.839243,34.5081515 109.781452,34.6281992 C109.657916,34.885657 109.425161,34.9863582 109.145218,34.9928071 C108.716291,35.0027284 108.286833,35.0017362 107.858436,34.9937992 C107.398226,34.9853661 107.152216,34.7417982 107.152216,34.3107176 C107.152216,31.0530585 107.152216,27.7953993 107.152216,24.5377402" id="Fill-11" fill="#FFFFFF" fill-rule="nonzero"></path>
            <path d="M66.004145,23.481893 C66.004145,19.8956822 66.0076922,16.3089754 66,12.7227646 C65.9988245,12.2535315 66.2985487,12.0060185 66.8607531,12.0020503 C67.2775292,11.9990742 67.6943046,11.9995702 68.1116718,12.0020503 C68.6165324,12.0050264 68.9700532,12.1994655 68.9812853,12.6696906 C68.9848325,12.8180001 68.9996117,12.9673015 68.9996117,13.1161069 C69.0002028,20.0678005 69.0002028,27.018998 68.9990206,33.9706916 C68.9990206,34.1348736 68.9883797,34.2995515 68.9712354,34.4632375 C68.9399036,34.7583683 68.6449088,34.9830645 68.2511885,34.9914968 C67.7421896,35.0019132 67.2325996,35.0038973 66.7241925,34.9910008 C66.2743106,34.9795923 66.0047361,34.721663 66.004145,34.3337768 C66.004145,30.7163168 66.004145,27.0993529 66.004145,23.481893" id="Fill-13" fill="#FFFFFF" fill-rule="nonzero"></path>
            <polygon id="Fill-15" fill="#FFFFFF" fill-rule="nonzero" points="24 12 24 0 12 12"></polygon>
            <g id="Fill-17-Clipped" transform="translate(23, 12)">
                <mask id="mask-2" fill="white">
                    <use xlink:href="#path-1"></use>
                </mask>
                <g id="path-1"></g>
                <polygon id="Fill-17" fill="#FFFFFF" fill-rule="nonzero" mask="url(#mask-2)" points="12 0 0 11.350885 0 34.0000496 12 22.6486683"></polygon>
            </g>
            <polygon id="Fill-20" fill="#FFFFFF" fill-rule="nonzero" points="24 12 12 23.5156079 12 35 24 23.4838886"></polygon>
            <polygon id="Fill-22" fill="#FFFFFF" fill-rule="nonzero" points="0 12.3374755 0 35 12 23.6307125 12 12.3374755 12 12.2932371 12 1"></polygon>
            <polyline id="Fill-24" fill="#FFFFFF" fill-rule="nonzero" points="35 11.041926 23 11.041926 23 11.958074 23.5220129 11.958074 25.4883488 11.958074 35 11.958074"></polyline>
            <polyline id="Fill-26" fill="#FFFFFF" fill-rule="nonzero" points="34 25 34.8401142 24.1600259 46.1569172 12.8434471 47 12 45.8090961 12 34.4922931 12 34 12 34 12.4936646 34.4922931 12.4936646 36.3036347 12.4936646 45.8090961 12.4936646 34.4922931 23.8102435"></polyline>
        </g>
    </g>
</svg>