<?xml version="1.0" encoding="UTF-8"?>
<svg width="200px" height="100px" viewBox="0 0 200 100" version="1.1" xmlns="http://www.w3.org/2000/svg" xmlns:xlink="http://www.w3.org/1999/xlink">
    <title>Artboard</title>
    <g id="Artboard" stroke="none" stroke-width="1" fill="none" fill-rule="evenodd">
        <g id="oreilly" transform="translate(30, 37)" fill="#FFFFFF" fill-rule="nonzero">
            <polygon id="Path" points="71 4.81516588 71 1 55 1 55 24 71 24 71 20.1848341 58.845805 20.1848341 58.845805 14.4075829 70.38322 14.4075829 70.38322 10.5924171 58.845805 10.5924171 58.845805 4.81516588"></polygon>
            <polygon id="Path" points="83 24 83 1 86.8686131 1 86.8686131 20.1848341 98 20.1848341 98 24"></polygon>
            <polygon id="Path" points="101 24 101 1 104.841463 1 104.841463 20.1848341 116 20.1848341 116 24"></polygon>
            <polygon id="Path" points="75 1 79 1 79 24 75 24"></polygon>
            <path d="M6.28409894,6.50529501 C4.77738516,8.05597579 3.85865724,10.1739788 3.85865724,12.5189107 C3.85865724,14.8638427 4.77738516,16.9818457 6.28409894,18.5325265 C7.79081272,20.0832073 9.84876325,21.0287443 12.1272085,21.0287443 C14.4056537,21.0287443 16.4636042,20.0832073 17.970318,18.5325265 C19.4402827,16.9440242 20.3590106,14.8638427 20.3590106,12.5189107 C20.3590106,10.1739788 19.4402827,8.05597579 17.9335689,6.50529501 C16.4268551,4.95461422 14.3689046,4.00907716 12.0904594,4.00907716 C9.81201413,4.00907716 7.79081272,4.95461422 6.28409894,6.50529501 M0,12.5189107 C0,5.63540091 5.43886926,0.0378214826 12.1272085,0.0378214826 C18.8155477,0.0378214826 24.254417,5.63540091 24.254417,12.5189107 C24.254417,19.4024206 18.8155477,25 12.1272085,25 C5.40212014,24.9621785 0,19.4024206 0,12.5189107 M36.234629,10.4009077 L36.234629,4.38729198 L44.0621908,4.38729198 C45.6791519,4.38729198 46.965371,5.71104387 46.965371,7.37518911 C46.965371,9.03933434 45.6791519,10.3630862 44.0621908,10.3630862 L36.234629,10.3630862 L36.234629,10.4009077 Z M45.9731449,14.107413 C48.7660777,13.2375189 50.8240283,10.5900151 50.8240283,7.41301059 C50.8240283,3.55521936 47.7738516,0.416036309 44.0254417,0.416036309 L32.3392226,0.416036309 L32.3392226,24.3570348 L36.234629,24.3570348 L36.234629,14.3721634 L41.6367491,14.3721634 L47.4798587,24.3570348 L52,24.3570348 L45.9731449,14.107413 Z M29.5830389,2.95007564 C29.5830389,4.57639939 28.2968198,5.90015129 26.7166078,5.90015129 C25.1363958,5.90015129 23.8501767,4.57639939 23.8501767,2.95007564 C23.8501767,1.32375189 25.1363958,0 26.7166078,0 C28.3335689,0.0378214826 29.5830389,1.32375189 29.5830389,2.95007564" id="Shape"></path>
            <polygon id="Path" points="134 1 129.153184 1 123.018933 9.53870458 116.846816 1 112 1 121.012048 13.4992101 121.012048 24 124.987952 24 124.987952 13.535545"></polygon>
            <g id="Group" transform="translate(136, 0)">
                <path d="M2.5,4.61538462 C1.34615385,4.61538462 0.384615385,3.68589744 0.384615385,2.5 C0.384615385,1.34615385 1.31410256,0.384615385 2.5,0.384615385 C3.65384615,0.384615385 4.61538462,1.31410256 4.61538462,2.5 C4.61538462,3.65384615 3.68589744,4.61538462 2.5,4.61538462 M2.5,0 C1.12179487,0 0,1.12179487 0,2.5 C0,3.87820513 1.12179487,5 2.5,5 C3.87820513,5 5,3.87820513 5,2.5 C5,1.12179487 3.87820513,0 2.5,0" id="Shape"></path>
                <path d="M1.89102564,1.63461538 L2.88461538,1.63461538 C3.07692308,1.63461538 3.20512821,1.76282051 3.20512821,1.95512821 C3.20512821,2.1474359 3.07692308,2.27564103 2.88461538,2.27564103 L1.89102564,2.27564103 L1.89102564,1.63461538 Z M3.62179487,1.95512821 C3.62179487,1.53846154 3.30128205,1.21794872 2.88461538,1.21794872 L1.47435897,1.21794872 L1.47435897,3.78205128 L1.89102564,3.78205128 L1.89102564,2.72435897 L2.59615385,2.72435897 L3.10897436,3.78205128 L3.58974359,3.78205128 L3.07692308,2.69230769 C3.3974359,2.59615385 3.62179487,2.30769231 3.62179487,1.95512821 Z" id="Shape"></path>
            </g>
        </g>
    </g>
</svg>