<?xml version="1.0" encoding="UTF-8"?>
<svg width="195px" height="46px" viewBox="0 0 195 46" version="1.1" xmlns="http://www.w3.org/2000/svg" xmlns:xlink="http://www.w3.org/1999/xlink">
    <title>Group 16</title>
    <defs>
        <polygon id="path-1" points="0 0 37.3797715 0 37.3797715 43.8594088 0 43.8594088"></polygon>
    </defs>
    <g id="Web" stroke="none" stroke-width="1" fill="none" fill-rule="evenodd">
        <g id="DT_EuroRust-'23_vs.2c" transform="translate(-1131.000000, -4128.000000)">
            <g id="Group-22" transform="translate(167.000000, 3775.000000)">
                <g id="Group-19" transform="translate(0.000000, 347.000000)">
                    <g id="Group-16" transform="translate(964.000000, 6.000000)">
                        <g id="Group-3" transform="translate(0.000000, 1.742112)">
                            <mask id="mask-2" fill="white">
                                <use xlink:href="#path-1"></use>
                            </mask>
                            <g id="Clip-2"></g>
                            <path d="M26.8422,21.9359881 C26.8692,21.9349881 26.8962,21.9349881 26.9242,21.9339881 C26.8732,20.6469881 26.8532,19.3579881 26.7632,18.0739881 C26.6452,16.3959881 26.3152,14.7549881 25.6982,13.1819881 C25.1822,11.8659881 24.4712,10.6699881 23.3932,9.73398813 C21.6702,8.23698813 19.6292,7.87898813 17.4372,8.17798813 C15.0192,8.50798813 13.3312,9.86098813 12.2302,11.9939881 C11.1642,14.0589881 10.7782,16.3029881 10.6452,18.5829881 C10.5442,20.3229881 10.5752,22.0719881 10.6022,23.8169881 C10.6192,24.8539881 10.7052,25.8939881 10.8292,26.9239881 C11.0072,28.4009881 11.3752,29.8369881 11.9872,31.1999881 C12.5822,32.5259881 13.3682,33.7159881 14.5912,34.5469881 C16.4582,35.8159881 18.5182,36.0589881 20.6752,35.5489881 C22.6182,35.0909881 23.9772,33.8489881 24.9562,32.1599881 C26.2462,29.9339881 26.6672,27.4719881 26.8312,24.9559881 C26.8972,23.9539881 26.8422,22.9429881 26.8422,21.9359881 M37.3562,21.9209881 C37.3562,22.9109881 37.4152,23.9049881 37.3462,24.8899881 C37.0042,29.7989881 35.6122,34.3219881 32.2972,38.0929881 C29.8852,40.8379881 26.8392,42.5359881 23.2962,43.3629881 C21.6362,43.7499881 19.9472,43.8979881 18.2452,43.8509881 C14.2332,43.7399881 10.5522,42.6349881 7.3462,40.1479881 C5.0922,38.3999881 3.4352,36.1769881 2.2342,33.6099881 C1.0792,31.1409881 0.4292,28.5339881 0.1792,25.8219881 C0.0292,24.2019881 -0.0278,22.5809881 0.0122,20.9569881 C0.0842,18.0199881 0.4102,15.1209881 1.3862,12.3239881 C2.3482,9.56498813 3.7522,7.07698813 5.8462,5.01298813 C8.3062,2.58598813 11.2552,1.07598813 14.6332,0.386988135 C15.7782,0.152988135 16.9352,0.055988135 18.1042,0.013988135 C20.8802,-0.084011865 23.5632,0.327988135 26.1252,1.40598813 C30.1622,3.10498813 33.0792,5.99098813 35.0182,9.89198813 C36.1692,12.2069881 36.8472,14.6599881 37.1862,17.2189881 C37.3932,18.7829881 37.4042,20.3499881 37.3562,21.9209881" id="Fill-1" fill="#FFFFFF" mask="url(#mask-2)"></path>
                        </g>
                        <path d="M107.8075,29.188 C107.8075,27.296 107.8105,25.405 107.8025,23.513 C107.8015,23.308 107.7815,23.079 107.6895,22.903 C107.1925,21.951 106.4805,21.219 105.4755,20.786 C104.7985,20.493 104.0875,20.372 103.3615,20.358 C102.3065,20.338 101.3315,20.593 100.5145,21.304 C99.7715,21.95 99.3305,22.787 99.0025,23.695 C98.2725,25.71 98.3135,27.821 98.2645,29.914 C98.2455,30.702 98.3555,31.496 98.4415,32.283 C98.5535,33.303 98.7835,34.301 99.2085,35.24 C99.8165,36.583 100.7495,37.567 102.2675,37.831 C102.6815,37.903 103.1135,37.903 103.5355,37.892 C105.2205,37.847 106.5625,37.16 107.5125,35.743 C107.7165,35.439 107.8175,35.131 107.814565,34.757 C107.7995,32.9 107.8075,31.044 107.8075,29.188 L107.8075,29.188 Z M108.8645,44.979 C108.7035,43.906 108.5445,42.853 108.3725,41.714 C108.1075,42.002 107.8955,42.229 107.6875,42.46 C106.1615,44.15 104.2915,45.243 102.0195,45.494 C97.9875,45.937 94.5475,44.764 91.9175,41.57 C90.4855,39.83 89.6215,37.813 89.0885,35.643 C88.7305,34.186 88.4885,32.708 88.4445,31.206 C88.4075,29.955 88.3295,28.7 88.3845,27.452 C88.5315,24.138 89.1445,20.934 90.9125,18.053 C92.5095,15.451 94.7285,13.671 97.7535,13.009 C99.7485,12.572 101.7445,12.518 103.7175,13.161 C105.0735,13.603 106.2245,14.371 107.2445,15.35 C107.4065,15.505 107.5615,15.666 107.8055,15.91 L107.8055,0 L117.7525,0 L117.7525,44.979 L108.8645,44.979 Z" id="Fill-4" fill="#FFFFFF"></path>
                        <path d="M70.3873,44.9783 L60.0123,44.9783 C58.3823,41.9153 56.7493,38.8463 55.0663,35.6833 C53.4133,38.8453 51.8043,41.9203 50.1983,44.9933 L39.7793,44.9933 C40.7323,43.1363 41.7303,41.3603 42.6943,39.5663 C43.6643,37.7603 44.6443,35.9603 45.6193,34.1573 C46.5943,32.3553 47.5673,30.5523 48.5523,28.7303 C45.7883,23.6033 43.0263,18.4793 40.2333,13.2983 L50.6713,13.2983 C52.1193,16.1303 53.5803,18.9893 55.0943,21.9503 C56.6483,19.0073 58.1613,16.1423 59.6643,13.2973 L69.9703,13.2973 C69.8603,13.5123 69.7773,13.6793 69.6893,13.8433 C67.0913,18.6463 64.4983,23.4513 61.8873,28.2473 C61.6943,28.6023 61.6923,28.8633 61.8843,29.2163 C64.4283,33.9083 66.9573,38.6073 69.4893,43.3053 C69.7803,43.8453 70.0693,44.3853 70.3873,44.9783" id="Fill-6" fill="#FFFFFF"></path>
                        <path d="M153.8795,23.6226 C153.9105,21.3786 153.9395,19.1346 153.5675,16.9086 C153.2025,14.7286 152.5695,12.6446 151.4175,10.7436 C149.8665,8.1826 147.7265,6.3476 144.8215,5.4796 C143.1595,4.9826 141.4605,4.8536 139.7335,4.9816 C136.6115,5.2146 133.9765,6.4396 131.8735,8.7776 C130.2135,10.6216 129.2085,12.7976 128.6005,15.1776 C128.1175,17.0706 127.9225,19.0016 127.8865,20.9486 C127.8555,22.6096 127.8775,24.2716 127.8805,25.9336 C127.8845,27.5436 128.0005,29.1446 128.2905,30.7306 C128.6905,32.9246 129.4015,35.0016 130.6195,36.8846 C132.2675,39.4316 134.4925,41.2146 137.4635,41.9916 C139.1955,42.4446 140.9565,42.5156 142.7275,42.3146 C144.2335,42.1436 145.6705,41.7326 147.0085,41.0036 C149.1795,39.8196 150.7335,38.0486 151.8485,35.8766 C153.2585,33.1316 153.7635,30.1676 153.8725,27.1216 C153.9145,25.9566 153.8795,24.7896 153.8795,23.6226 M124.2025,23.6566 C124.2525,22.0676 124.2465,20.4736 124.3655,18.8896 C124.6555,15.0176 125.7125,11.3816 127.9825,8.1786 C130.3995,4.7696 133.6925,2.7056 137.8165,2.0046 C140.8325,1.4916 143.8135,1.6636 146.7015,2.7136 C150.5225,4.1016 153.2865,6.6986 155.1365,10.2876 C156.2895,12.5246 156.9545,14.9166 157.2885,17.4046 C157.5025,19.0016 157.5625,20.6076 157.5545,22.2166 C157.5465,24.0016 157.5635,25.7886 157.4885,27.5706 C157.3315,31.3326 156.4945,34.9206 154.5185,38.1736 C152.0915,42.1686 148.5535,44.5726 143.9395,45.3286 C140.7955,45.8436 137.6905,45.6466 134.7035,44.4626 C131.3125,43.1186 128.8195,40.7386 127.0035,37.6176 C125.6885,35.3556 124.9585,32.8956 124.5655,30.3226 C124.2285,28.1116 124.2255,25.8856 124.2025,23.6566" id="Fill-8" fill="#FFFFFF"></path>
                        <path d="M194.1183,14.469 L190.4923,14.469 C190.4803,14.267 190.4673,14.095 190.4603,13.923 C190.3683,11.686 189.6323,9.707 188.0873,8.06 C186.9633,6.863 185.6143,5.995 184.0453,5.52 C180.5813,4.47 177.1373,4.558 173.7493,5.852 C172.4773,6.338 171.3943,7.127 170.4713,8.137 C168.2103,10.61 167.9343,15.458 171.5323,18.085 C172.9023,19.085 174.4013,19.839 175.9943,20.383 C177.7823,20.994 179.5973,21.524 181.4063,22.073 C183.6063,22.741 185.7853,23.466 187.8373,24.522 C189.6663,25.464 191.2953,26.659 192.5343,28.331 C193.6503,29.836 194.2193,31.537 194.3653,33.395 C194.4863,34.928 194.3643,36.431 193.8623,37.891 C193.1193,40.053 191.6893,41.669 189.8233,42.931 C188.0513,44.129 186.0843,44.838 183.9903,45.218 C181.6753,45.638 179.3443,45.689 177.0133,45.42 C173.9473,45.066 171.0603,44.161 168.5373,42.328 C165.7153,40.278 164.1643,37.485 163.8503,34.011 C163.8163,33.628 163.7963,33.244 163.7673,32.819 L167.3963,32.819 C167.4103,32.968 167.4313,33.12 167.4373,33.272 C167.5893,36.848 169.3823,39.349 172.5023,40.969 C174.0273,41.762 175.6663,42.181 177.3693,42.359 C179.2073,42.551 181.0433,42.554 182.8693,42.243 C185.0223,41.876 186.9883,41.093 188.6003,39.571 C189.9793,38.269 190.6813,36.658 190.7343,34.762 C190.7583,33.927 190.6853,33.104 190.4623,32.296 C190.0243,30.714 189.1063,29.476 187.7723,28.535 C186.4023,27.569 184.8893,26.877 183.3163,26.335 C181.5293,25.72 179.7163,25.182 177.9103,24.625 C175.7283,23.952 173.5743,23.21 171.5363,22.168 C169.7533,21.256 168.1513,20.112 166.9453,18.481 C165.4413,16.446 164.9473,14.141 165.1913,11.661 C165.5363,8.169 167.4813,5.74 170.3903,3.976 C172.2803,2.831 174.3533,2.207 176.5323,1.927 C178.3993,1.687 180.2703,1.662 182.1383,1.917 C185.3223,2.35 188.1843,3.512 190.5253,5.763 C192.3213,7.49 193.4473,9.606 193.9213,12.056 C194.0713,12.835 194.1843,13.622 194.1183,14.469" id="Fill-10" fill="#FFFFFF"></path>
                        <path d="M83.5079,44.9837 L73.6429,44.9837 L73.6429,13.3027 L83.4709,13.3027 C83.5769,13.6727 83.6189,44.0607 83.5079,44.9837" id="Fill-12" fill="#FFFFFF"></path>
                        <path d="M78.5248,10.0001 C77.2468,9.9681 76.0568,9.7021 75.0088,8.9581 C73.7468,8.0631 73.0998,6.8551 73.0308,5.2861 C72.9208,2.7781 74.6828,0.9241 76.9928,0.4501 C78.2548,0.1911 79.5288,0.2061 80.7538,0.6461 C82.5558,1.2931 83.7498,2.5131 83.9888,4.4661 C84.3708,7.5831 82.2868,9.2691 80.2988,9.7451 C79.7198,9.8831 79.1168,9.9181 78.5248,10.0001" id="Fill-14" fill="#FFFFFF"></path>
                    </g>
                </g>
            </g>
        </g>
    </g>
</svg>