<?xml version="1.0" encoding="UTF-8"?>
<svg width="200px" height="100px" viewBox="0 0 200 100" version="1.1" xmlns="http://www.w3.org/2000/svg" xmlns:xlink="http://www.w3.org/1999/xlink">
    <title>Artboard</title>
    <defs>
        <polygon id="path-1" points="0 0 8 0 8 13 0 13"></polygon>
        <polygon id="path-3" points="0 0 9 0 9 13 0 13"></polygon>
        <polygon id="path-5" points="0 0 38 0 38 23 0 23"></polygon>
    </defs>
    <g id="Artboard" stroke="none" stroke-width="1" fill="none" fill-rule="evenodd">
        <g id="realm_group" transform="translate(44, 25)">
            <g id="Fill-1-Clipped" transform="translate(65, 37)">
                <mask id="mask-2" fill="white">
                    <use xlink:href="#path-1"></use>
                </mask>
                <g id="path-1"></g>
                <path d="M2.39117688,4.99255489 C2.39117688,5.79219327 2.52184839,6.42130359 2.78430826,6.87988582 C3.04565127,7.3396203 3.47228815,7.56891138 4.06086835,7.56891138 C4.42719531,7.56891138 4.7365629,7.4997784 4.99008796,7.36151236 C5.24472987,7.22439864 5.44799665,7.02276069 5.60100517,6.75775086 L5.60100517,2.78836438 C5.44799665,2.51183238 5.24472987,2.29752007 4.99008796,2.14657968 C4.7365629,1.99448708 4.43277956,1.91844078 4.07762111,1.91844078 C3.49350831,1.91844078 3.06687142,2.18575505 2.79659361,2.7203836 C2.52631579,3.25501214 2.39117688,3.95325545 2.39117688,4.81511353 L2.39117688,4.99255489 Z M0,4.81511353 C0,3.37369046 0.304900182,2.21110382 0.913583695,1.32620141 C1.52226721,0.442451207 2.37442413,0 3.47228815,0 C3.96816976,0 4.4048583,0.114069452 4.78235376,0.342208355 C5.15873238,0.570347259 5.48038531,0.896424579 5.74842943,1.31813589 L5.92042441,0.169375853 L8,0.169375853 L8,9.03798767 C8,10.2432064 7.63255621,11.2053073 6.8987854,11.9231383 C6.16389781,12.6409693 5.15538182,13.0004609 3.87323747,13.0004609 C3.42538043,13.0004609 2.95071898,12.9370889 2.44813626,12.8103451 C1.94667039,12.6836013 1.48206059,12.5096165 1.05654055,12.2906954 L1.49881335,10.5589137 C1.88077621,10.7282896 2.26273908,10.8619467 2.64470194,10.9598851 C3.02666481,11.0589757 3.43096468,11.1073688 3.85648472,11.1073688 C4.44059752,11.1073688 4.87728605,10.9253186 5.16655033,10.5589137 C5.45581461,10.1925088 5.60100517,9.68322904 5.60100517,9.02992218 L5.60100517,8.4307695 C5.3385453,8.77413007 5.03029457,9.03568326 4.67513612,9.21542907 C4.31997767,9.39632705 3.91344409,9.4862 3.45553539,9.4862 C2.36883987,9.4862 1.52226721,9.07370637 0.913583695,8.24871927 C0.304900182,7.4237321 0,6.33834399 0,4.99255489 L0,4.81511353 Z" id="Fill-1" fill="#FFFFFF" fill-rule="nonzero" mask="url(#mask-2)"></path>
            </g>
            <path d="M75.1172295,45.5707389 L76.2106573,45.3256591 L76.2106573,39.8458968 L75,39.6008169 L75,38.1637579 L78.3357017,38.1637579 L78.4380104,39.453769 C78.6351687,38.9970293 78.8909413,38.6405496 79.2031972,38.3843297 C79.5154531,38.1281099 79.8777974,38 80.2891653,38 C80.4085259,38 80.5353463,38.010026 80.6674953,38.028964 C80.8007106,38.047902 80.9115453,38.071296 81,38.098032 L80.7580819,40.2703305 L79.8202486,40.2458225 C79.4866784,40.2458225 79.210657,40.3137765 78.992185,40.4507984 C78.7737125,40.5867063 78.6063946,40.7794281 78.4923625,41.030078 L78.4923625,45.3256591 L79.5857903,45.5707389 L79.5857903,47 L75.1172295,47 L75.1172295,45.5707389 Z" id="Fill-4" fill="#FFFFFF" fill-rule="nonzero"></path>
            <path d="M85.2883101,42.5841837 C85.2883101,43.3746356 85.4240483,44.0098396 85.695524,44.4876093 C85.9670005,44.9664723 86.4062791,45.2048105 87.0122913,45.2048105 C87.6022709,45.2048105 88.0351369,44.9642857 88.3087506,44.4832361 C88.5834337,44.0032799 88.7202406,43.3691691 88.7202406,42.5841837 L88.7202406,42.4158163 C88.7202406,41.646137 88.5812957,41.018586 88.3044753,40.53207 C88.0276555,40.0466472 87.5915829,39.8028426 86.9962593,39.8028426 C86.4009351,39.8028426 85.9670005,40.0466472 85.695524,40.53207 C85.4240483,41.018586 85.2883101,41.646137 85.2883101,42.4158163 L85.2883101,42.5841837 Z M83,42.4158163 C83,41.1224489 83.3537739,40.0630467 84.0623916,39.2376093 C84.76994,38.412172 85.7478955,38 86.9962593,38 C88.2499665,38 89.2311287,38.4110787 89.9386771,39.2343294 C90.6462255,40.0564869 91,41.1169825 91,42.4158163 L91,42.5841837 C91,43.8884839 90.6462255,44.9500728 89.9386771,45.7700437 C89.2311287,46.5900146 88.2553106,47 87.0122913,47 C85.7532395,47 84.76994,46.5900146 84.0623916,45.7700437 C83.3537739,44.9500728 83,43.8884839 83,42.5841837 L83,42.4158163 Z" id="Fill-6" fill="#FFFFFF" fill-rule="nonzero"></path>
            <path d="M98.5969126,45.7111056 C98.3064608,46.1240415 97.9473985,46.4423695 97.5197251,46.6660895 C97.0920523,46.8886965 96.6049167,47 96.0571757,47 C95.1012005,47 94.3522008,46.7028197 93.8101773,46.107346 C93.2681531,45.5107593 92.9971413,44.5847143 92.9971413,43.3280979 L92.9971413,39.6817957 L92,39.436928 L92,38 L92.9971413,38 L95.4453969,38 L95.4453969,43.3447934 C95.4453969,43.9870146 95.5551742,44.447811 95.7758715,44.7282958 C95.9965695,45.0076676 96.3247566,45.1479099 96.7604344,45.1479099 C97.146941,45.1479099 97.4808463,45.086693 97.7632932,44.9642592 C98.0445967,44.8418254 98.2755857,44.6670789 98.4539734,44.4377937 L98.4539734,39.6817957 L97.3813608,39.436928 L97.3813608,38 L98.4539734,38 L100.90223,38 L100.90223,45.1568142 L102,45.4005688 L102,46.8285926 L98.7558603,46.8285926 L98.5969126,45.7111056 Z" id="Fill-8" fill="#FFFFFF" fill-rule="nonzero"></path>
            <g id="Fill-10-Clipped" transform="translate(103, 37)">
                <mask id="mask-4" fill="white">
                    <use xlink:href="#path-3"></use>
                </mask>
                <g id="path-3"></g>
                <path d="M6.67879784,4.88157067 C6.67879784,4.00781741 6.54322625,3.2999371 6.27316768,2.75792974 C6.00310911,2.21592236 5.58988697,1.94491868 5.03241667,1.94491868 C4.68318431,1.94491868 4.38492686,2.02201455 4.13872889,2.17503819 C3.89144634,2.32922994 3.69730785,2.55000449 3.55414428,2.83502561 L3.55414428,6.89424027 C3.69730785,7.15706712 3.89144634,7.35681553 4.13872889,7.49348551 C4.38492686,7.63015543 4.68860718,7.69907449 5.04868526,7.69907449 C5.61049384,7.69907449 6.02263142,7.46194627 6.28509798,6.98768981 C6.54756454,6.51460149 6.67879784,5.87213586 6.67879784,5.06146104 L6.67879784,4.88157067 Z M0,1.67858748 L0,0.171713542 L3.37085151,0.171713542 L3.48256248,1.2510558 C3.73743704,0.85155899 4.04111735,0.543175487 4.39685715,0.325905293 C4.75151238,0.108635097 5.16581909,0 5.63760816,0 C6.70265844,0 7.52910269,0.448557822 8.1180256,1.34450535 C8.70586394,2.24162099 9.00086768,3.42025339 9.00086768,4.88157067 L9.00086768,5.06146104 C9.00086768,6.43166502 8.70586394,7.53320156 8.1180256,8.36723873 C7.52910269,9.20010783 6.70808129,9.61712645 5.65279218,9.61712645 C5.20269456,9.61712645 4.80248729,9.52718125 4.45217036,9.34729085 C4.10293799,9.16740052 3.80359596,8.9034055 3.55414428,8.55530595 L3.55414428,11.2349717 L4.6755923,11.4919579 L4.6755923,13 L0.119302981,13 L0.119302981,11.4919579 L1.24075101,11.2349717 L1.24075101,1.93557373 L0,1.67858748 Z" id="Fill-10" fill="#FFFFFF" fill-rule="nonzero" mask="url(#mask-4)"></path>
            </g>
            <path d="M0.312062752,28.3473187 L3.22917109,27.7209829 L3.22917109,13.7173388 L0,13.0910031 L0,9.41793469 L8.89604972,9.41793469 L9.166278,12.7149751 C9.69429724,11.5472497 10.3749558,10.6354952 11.2082539,9.98197663 C12.0415518,9.32732552 13.0071373,9 14.1038796,9 C14.423857,9 14.7607943,9.02491754 15.1146916,9.07361991 C15.4685888,9.12232235 15.7636916,9.18121827 16,9.2514404 L15.3543919,14.8023834 L12.8544979,14.7400896 C11.9657975,14.7400896 11.2297364,14.9145123 10.6463148,15.2610923 C10.0628931,15.6099375 9.6174122,16.1037573 9.31213341,16.7436845 L9.31213341,27.7209829 L12.2292418,28.3473187 L12.2292418,32 L0.312062752,32 L0.312062752,28.3473187 Z" id="Fill-13" fill="#FFFFFF" fill-rule="nonzero"></path>
            <path d="M26.7700005,13.6085182 C25.6889117,13.6085182 24.8349059,14.031988 24.2068966,14.8778162 C23.5799737,15.7247557 23.1931721,16.8373364 23.0464917,18.2166698 L23.1062504,18.3189249 L30.2740321,18.3189249 L30.2740321,17.7865312 C30.2740321,16.5172333 29.9828444,15.5024619 29.402642,14.7455513 C28.8224395,13.9875293 27.9445302,13.6085182 26.7700005,13.6085182 M27.2904443,32 C24.1677818,32 21.6709556,30.9763368 19.8032253,28.9278989 C17.9333219,26.8794611 17,24.2786231 17,21.1253848 L17,20.3062319 C17,17.0151715 17.8833419,14.3054095 19.6521988,12.1747229 C21.4210557,10.0451479 23.7929319,8.98702907 26.7700005,9.00011998 C29.6927432,9.00011998 31.9624864,9.90176826 33.5770572,11.7034599 C35.1916281,13.5062631 36,15.9437151 36,19.0158162 L36,22.2713096 L23.066049,22.2713096 L23.0258478,22.3946827 C23.1323269,23.8562648 23.6093098,25.057763 24.457883,25.9991775 C25.3053697,26.9417034 26.4559959,27.4129664 27.9108481,27.4129664 C29.2059816,27.4129664 30.2805512,27.2795901 31.1345571,27.0128375 C31.988563,26.7471963 32.9229713,26.3270609 33.9377824,25.7535428 L35.518671,29.4402863 C34.6244639,30.1638528 33.4673186,30.7718265 32.0450621,31.2630959 C30.623892,31.7543653 29.0386573,32 27.2904443,32" id="Fill-15" fill="#FFFFFF" fill-rule="nonzero"></path>
            <path d="M47.7927605,27.5762818 C48.7033631,27.5762818 49.5308774,27.3817716 50.2753034,26.9927511 C51.0208523,26.6037307 51.6002245,26.1157879 52.0134203,25.5278113 L52.0134203,22.1488909 L48.9301717,22.1488909 C47.6479175,22.1488909 46.6755601,22.4456579 46.0130995,23.039192 C45.3517617,23.6338375 45.0205315,24.3474121 45.0205315,25.1799159 C45.0205315,25.9312811 45.265305,26.5181462 45.7548522,26.9416228 C46.2443993,27.3650993 46.9237021,27.5762818 47.7927605,27.5762818 L47.7927605,27.5762818 Z M53.0273218,31.5698546 C52.8622681,31.2019523 52.7163022,30.8229353 52.5927926,30.4339148 C52.4681602,30.0437829 52.3715982,29.651428 52.3031064,29.2557387 C51.585628,30.0749045 50.7132011,30.7373508 49.6858258,31.2419658 C48.6584505,31.7476925 47.4828637,32 46.1579426,32 C43.9650858,32 42.2236005,31.4098004 40.9346094,30.2282897 C39.6444955,29.0478906 39,27.4395689 39,25.4055478 C39,23.3304016 39.8409881,21.7254143 41.524087,20.5928092 C43.2060632,19.4590924 45.6751323,18.8922341 48.9301717,18.8922341 L52.0134203,18.8922341 L52.0134203,16.7215 C52.0134203,15.6566955 51.7035235,14.8308607 51.0826071,14.2428841 C50.4616906,13.6560189 49.5443512,13.3625864 48.3305887,13.3625864 C47.6411805,13.3625864 47.027001,13.4415019 46.4891728,13.5982216 C45.9513447,13.7549412 45.5168155,13.9427825 45.1855852,14.1617455 L44.7926001,16.5369932 L40.24071,16.5369932 L40.2620435,11.6219978 C41.3646474,10.8839704 42.6311822,10.2626492 44.0582794,9.75803408 C45.4853767,9.25230755 47.0404748,9 48.7235737,9 C51.4958028,9 53.7481687,9.67244964 55.4784259,11.0173489 C57.2098059,12.3622481 58.0754959,14.2773401 58.0754959,16.762625 L58.0754959,25.9168318 C58.0754959,26.2591698 58.0788643,26.579278 58.0856013,26.8793795 C58.0923381,27.1805924 58.1170401,27.4673561 58.1585842,27.7396704 L60,27.9864206 L60,31.5698546 L53.0273218,31.5698546 Z" id="Fill-17" fill="#FFFFFF" fill-rule="nonzero"></path>
            <polygon id="Fill-19" fill="#FFFFFF" fill-rule="nonzero" points="62 3.61010228 62 0 71.1274302 0 71.1274302 27.7943366 74 28.4099353 74 32 62.3051691 32 62.3051691 28.4099353 65.1788446 27.7943366 65.1788446 4.22570097"></polygon>
            <g id="Fill-21-Clipped" transform="translate(74, 9)">
                <mask id="mask-6" fill="white">
                    <use xlink:href="#path-5"></use>
                </mask>
                <g id="path-5"></g>
                <path d="M0,4.09100311 L0,0.417934703 L8.79450061,0.417934703 L9.04152459,3.40237357 C9.75577041,2.317329 10.6510926,1.47919437 11.7297267,0.88796967 C12.8072431,0.296744965 14.0535405,0 15.4675013,0 C16.8959928,0 18.1176997,0.320529867 19.1337394,0.960456987 C20.1497792,1.60038411 20.9187951,2.56763678 21.4407869,3.86108239 C22.1270888,2.65145024 23.0201755,1.70458463 24.1189292,1.02275078 C25.2165651,0.34204954 26.5075728,0 27.9908344,0 C30.187224,0 31.9208629,0.769045161 33.1917509,2.30713548 C34.4615212,3.84409317 35.0964064,6.18520708 35.0964064,9.32934457 L35.0964064,18.7209829 L38.0003353,19.3473187 L38.0003353,23 L26.4874532,23 L26.4874532,19.3473187 L29.0817638,18.7209829 L29.0817638,9.30895752 C29.0817638,7.59757723 28.8079137,6.40719949 28.257978,5.74008963 C27.70916,5.07184715 26.8920807,4.73772591 25.8078578,4.73772591 C24.9561281,4.73772591 24.2184094,4.92913774 23.5935841,5.3119614 C22.9687587,5.69478505 22.4713575,6.22711381 22.1002626,6.90894766 C22.1002626,7.17284683 22.1069692,7.39936969 22.1203823,7.58625103 C22.1337953,7.77426501 22.1416196,7.96567684 22.1416196,8.16048653 L22.1416196,18.7209829 L24.5716202,19.3473187 L24.5716202,23 L13.7170961,23 L13.7170961,19.3473187 L16.1482144,18.7209829 L16.1482144,9.30895752 C16.1482144,7.63948396 15.8732465,6.45929976 15.3233108,5.77067022 C14.7744928,5.08204068 13.950707,4.73772591 12.8519532,4.73772591 C12.0415805,4.73772591 11.3318057,4.8940267 10.7203935,5.20776088 C10.1089812,5.52036244 9.60487344,5.96208205 9.20695242,6.53291969 L9.20695242,18.7209829 L11.8023808,19.3473187 L11.8023808,23 L0.308500531,23 L0.308500531,19.3473187 L3.21354719,18.7209829 L3.21354719,4.71733885 L0,4.09100311 Z" id="Fill-21" fill="#FFFFFF" fill-rule="nonzero" mask="url(#mask-6)"></path>
            </g>
        </g>
    </g>
</svg>