<?xml version="1.0" encoding="UTF-8"?>
<svg width="194px" height="64px" viewBox="0 0 194 64" version="1.1" xmlns="http://www.w3.org/2000/svg" xmlns:xlink="http://www.w3.org/1999/xlink">
    <title>Group 3</title>
    <defs>
        <polygon id="path-1" points="0 0 194 0 194 64 0 64"></polygon>
    </defs>
    <g id="Web" stroke="none" stroke-width="1" fill="none" fill-rule="evenodd">
        <g id="DT_EuroRust-'23_vs.2c" transform="translate(-167.000000, -4122.000000)">
            <g id="Group-22" transform="translate(167.000000, 3775.000000)">
                <g id="Group-3" transform="translate(0.000000, 347.000000)">
                    <mask id="mask-2" fill="white">
                        <use xlink:href="#path-1"></use>
                    </mask>
                    <g id="Clip-2"></g>
                    <path d="M193.939042,46.9741791 L189.825905,46.9741791 L189.825905,40.6050726 C189.825905,40.0537945 189.70299,39.6251334 189.457161,39.3798993 C189.211332,39.1346653 188.904546,39.0120483 188.597759,39.0120483 C188.229016,39.0120483 187.861272,39.1346653 187.492528,39.4407094 C187.124784,39.7477504 186.817998,40.1146045 186.633126,40.6050726 L186.633126,46.9741791 L182.519989,46.9741791 L182.519989,35.6435695 L186.203425,35.6435695 L186.203425,37.2974039 C186.633126,36.6853157 187.185742,36.1948477 187.922229,35.8888036 C188.659716,35.5827595 189.519118,35.3993324 190.501435,35.3993324 C191.29888,35.3993324 191.913452,35.5219494 192.343153,35.8279935 C192.772854,36.1340376 193.140598,36.4400817 193.386427,36.8687428 C193.632256,37.2974039 193.75517,37.726065 193.878085,38.216533 C193.939042,38.7060042 194,39.1346653 194,39.5025164 L194,46.9741791 L193.939042,46.9741791 Z M172.819739,41.2789677 C172.819739,42.0136729 173.00461,42.6257611 173.372354,43.0544222 C173.741098,43.4830833 174.231756,43.7283173 174.846329,43.7283173 C175.459902,43.7283173 175.889603,43.4830833 176.319304,43.0544222 C176.688047,42.6257611 176.871919,42.0136729 176.871919,41.2789677 C176.871919,40.5432656 176.688047,39.9311775 176.319304,39.5025164 C175.95056,39.0738553 175.459902,38.8286212 174.846329,38.8286212 C174.231756,38.8286212 173.802055,39.0738553 173.372354,39.5025164 C173.00461,39.9311775 172.819739,40.5432656 172.819739,41.2789677 L172.819739,41.2789677 Z M174.846329,47.2194131 C173.802055,47.2194131 172.942653,47.0349892 172.144209,46.7289451 C171.346764,46.422901 170.732192,45.9942399 170.180575,45.4429617 C169.62796,44.8916836 169.259217,44.2795955 169.013388,43.5448903 C168.767559,42.8091882 168.583687,42.074483 168.583687,41.3397778 C168.583687,40.5432656 168.706601,39.8085604 169.013388,39.1346653 C169.259217,38.3999601 169.688918,37.7878719 170.180575,37.2365938 C170.671234,36.6853157 171.346764,36.2566546 172.144209,35.9506105 C172.942653,35.6435695 173.802055,35.4601425 174.846329,35.4601425 C175.828645,35.4601425 176.749005,35.6435695 177.547449,35.9506105 C178.344894,36.2566546 178.959466,36.6853157 179.512082,37.2365938 C180.064697,37.7878719 180.432441,38.3999601 180.67827,39.1346653 C180.924099,39.8703674 181.107971,40.6050726 181.107971,41.3397778 C181.107971,42.1362899 180.985057,42.8709951 180.67827,43.5448903 C180.432441,44.2795955 180.00274,44.8916836 179.512082,45.4429617 C178.959466,45.9942399 178.344894,46.422901 177.547449,46.7289451 C176.749005,47.0349892 175.828645,47.2194131 174.846329,47.2194131 L174.846329,47.2194131 Z M163.058531,46.9741791 L167.171669,46.9741791 L167.171669,35.6435695 L163.058531,35.6435695 L163.058531,46.9741791 Z M163.058531,34.6636303 L167.171669,34.6636303 L167.171669,31.2343415 L163.058531,31.2343415 L163.058531,34.6636303 Z M161.892343,46.3620909 C161.339728,46.606328 160.725155,46.790752 160.050625,46.9741791 C159.375095,47.1576062 158.761522,47.2194131 158.085992,47.2194131 C157.594334,47.2194131 157.164633,47.1576062 156.796889,47.0349892 C156.367188,46.913369 155.998444,46.7289451 155.691658,46.4847079 C155.384871,46.2394739 155.139042,45.8716229 154.95517,45.4429617 C154.770299,45.0143006 154.709341,44.5248295 154.709341,43.9117444 L154.709341,38.7060042 L153.297324,38.7060042 L153.297324,35.6435695 L154.709341,35.6435695 L154.709341,32.0916637 L158.822479,32.0916637 L158.822479,35.6435695 L161.032941,35.6435695 L161.032941,38.7060042 L158.822479,38.7060042 L158.822479,42.442334 C158.822479,42.8091882 158.883437,43.0544222 159.068308,43.2378493 C159.25218,43.3604663 159.436052,43.4830833 159.743838,43.4830833 C159.92771,43.4830833 160.173539,43.4222732 160.418369,43.3604663 C160.664198,43.2996562 160.910027,43.1770392 161.216813,43.1162292 C161.216813,43.1162292 161.892343,46.3620909 161.892343,46.3620909 L161.892343,46.3620909 Z M145.622665,44.2795955 C145.868494,44.2795955 146.114323,44.2177885 146.360151,44.1569784 C146.604981,44.0961684 146.85081,43.9735514 147.034682,43.8509343 C147.219553,43.7283173 147.342468,43.6057003 147.403425,43.4830833 C147.52634,43.3604663 147.52634,43.1770392 147.52634,43.0544222 L147.52634,42.1971 C147.280511,42.1362899 147.034682,42.0136729 146.727896,41.951866 C146.421109,41.8910559 146.17528,41.8910559 145.93045,41.8910559 C145.438793,41.8910559 145.009092,42.0136729 144.702305,42.2579101 C144.395519,42.5031441 144.210647,42.8091882 144.210647,43.1770392 C144.210647,43.4830833 144.333562,43.7283173 144.579391,43.9735514 C144.82522,44.2177885 145.254921,44.2795955 145.622665,44.2795955 L145.622665,44.2795955 Z M144.395519,47.2194131 C143.842903,47.2194131 143.290288,47.0967961 142.79863,46.913369 C142.307971,46.7289451 141.87827,46.4847079 141.509527,46.1168569 C141.141783,45.8108128 140.895954,45.3821517 140.650125,44.9534906 C140.404296,44.5248295 140.343338,44.0343614 140.343338,43.4830833 C140.343338,42.9318052 140.466253,42.3805271 140.712082,41.8910559 C140.956911,41.4005879 141.325655,41.0337337 141.755356,40.6658827 C142.185057,40.2990285 142.675715,40.0537945 143.290288,39.8693705 C143.903861,39.6859434 144.518433,39.5633264 145.254921,39.5633264 C146.17528,39.5633264 146.911768,39.6859434 147.52634,39.9919875 L147.52634,39.6251334 C147.52634,39.0738553 147.342468,38.7060042 147.034682,38.4607702 C146.727896,38.216533 146.237237,38.093916 145.561707,38.093916 C144.886177,38.093916 144.333562,38.216533 143.780946,38.3999601 C143.228331,38.5833872 142.675715,38.8904282 142.062142,39.3190893 L140.895954,36.7461258 C142.368929,35.7661866 144.087733,35.2767154 145.991408,35.2767154 C147.833126,35.2767154 149.184186,35.7053765 150.166503,36.5018886 C151.148819,37.2974039 151.639478,38.5225771 151.639478,40.1146045 L151.639478,42.319717 C151.639478,42.687568 151.700435,42.9936121 151.82335,43.1162292 C151.946264,43.2378493 152.131136,43.3604663 152.437922,43.3604663 L152.437922,46.790752 C152.131136,46.8515621 151.762392,46.913369 151.516563,46.9741791 C151.270734,47.0349892 150.963948,47.0349892 150.718119,47.0349892 C149.981631,47.0349892 149.429016,46.913369 149.061272,46.606328 C148.692528,46.3620909 148.446699,45.9334298 148.324784,45.4429617 L148.262827,45.0143006 C147.772169,45.6881958 147.157597,46.1776669 146.482067,46.4847079 C145.807536,46.790752 145.192964,47.2194131 144.395519,47.2194131 Z M132.546764,43.7283173 C133.283251,43.7283173 133.958781,43.3604663 134.511397,42.564951 L134.511397,40.5432656 C134.326525,40.0537945 134.019739,39.6251334 133.650995,39.3190893 C133.283251,39.0120483 132.85355,38.8286212 132.423849,38.8286212 C132.117063,38.8286212 131.871234,38.8904282 131.564447,39.0120483 C131.318618,39.1346653 131.07279,39.3190893 130.888918,39.5633264 C130.705045,39.8085604 130.582131,40.0537945 130.459217,40.3598386 C130.336302,40.6658827 130.275344,40.9719267 130.275344,41.3397778 C130.275344,42.074483 130.459217,42.6257611 130.888918,43.0544222 C131.318618,43.4830833 131.871234,43.7283173 132.546764,43.7283173 L132.546764,43.7283173 Z M131.441533,47.2194131 C130.643089,47.2194131 129.967559,47.0967961 129.293028,46.790752 C128.617498,46.4847079 128.064883,46.1168569 127.573225,45.5655788 C127.082566,45.0143006 126.713823,44.4022125 126.468993,43.6665104 C126.223164,42.9318052 126.038293,42.1362899 126.038293,41.2789677 C126.038293,40.4206486 126.161207,39.6859434 126.407036,38.9512382 C126.652865,38.216533 127.020609,37.603448 127.45031,37.1139768 C127.881011,36.5626987 128.432627,36.1948477 129.047199,35.8888036 C129.660772,35.5827595 130.336302,35.4601425 131.07279,35.4601425 C131.809277,35.4601425 132.484807,35.6435695 133.099379,35.9506105 C133.712952,36.2566546 134.203611,36.7461258 134.511397,37.3592108 L134.511397,31.2343415 L138.624534,31.2343415 L138.624534,42.442334 C138.624534,42.8091882 138.685492,43.1162292 138.808407,43.2378493 C138.931321,43.3604663 139.115193,43.4830833 139.42198,43.4830833 L139.42198,46.913369 C138.685492,47.0349892 138.132877,47.1576062 137.703176,47.1576062 C136.291158,47.1576062 135.493713,46.606328 135.308842,45.5655788 L135.247884,45.1369177 C134.879141,45.8108128 134.326525,46.300284 133.650995,46.668135 C132.914508,47.0349892 132.17802,47.2194131 131.441533,47.2194131 Z M124.688232,46.9741791 L120.575095,46.9741791 L120.575095,40.6050726 C120.575095,40.0537945 120.45218,39.6251334 120.206351,39.3798993 C119.960522,39.1346653 119.653736,39.0120483 119.346949,39.0120483 C118.978206,39.0120483 118.610462,39.1346653 118.241718,39.4407094 C117.873974,39.7477504 117.566188,40.1146045 117.382316,40.6050726 L117.382316,46.9741791 L113.269179,46.9741791 L113.269179,35.6435695 L116.952615,35.6435695 L116.952615,37.2974039 C117.382316,36.6853157 117.934932,36.1948477 118.671419,35.8888036 C119.407907,35.5827595 120.268308,35.3993324 121.250625,35.3993324 C122.04807,35.3993324 122.662642,35.5219494 123.092343,35.8279935 C123.522044,36.1340376 123.889788,36.4400817 124.135617,36.8687428 C124.381446,37.2974039 124.50436,37.726065 124.626276,38.216533 C124.688232,38.7060042 124.74919,39.1346653 124.74919,39.5025164 L124.74919,46.9741791 L124.688232,46.9741791 Z M102.893399,47.2194131 C101.72721,47.2194131 100.867808,46.8515621 100.254235,46.1776669 C99.6396631,45.5047687 99.3328766,44.4630225 99.3328766,43.1162292 L99.3328766,35.6435695 L103.446014,35.6435695 L103.446014,42.1971 C103.446014,42.687568 103.568929,43.1162292 103.752801,43.3604663 C103.937672,43.6057003 104.305416,43.7891274 104.67416,43.7891274 C104.980946,43.7891274 105.287733,43.7283173 105.656476,43.5448903 C105.963263,43.4222732 106.332006,43.0544222 106.638793,42.6257611 L106.638793,35.6435695 L110.75193,35.6435695 L110.75193,42.442334 C110.75193,42.8091882 110.812888,43.1162292 110.935802,43.2378493 C111.058717,43.3604663 111.243588,43.4830833 111.550375,43.4830833 L111.550375,46.913369 C110.812888,47.0349892 110.261272,47.1576062 109.831571,47.1576062 C108.419553,47.1576062 107.621109,46.606328 107.437237,45.5655788 L107.37528,45.1369177 C106.822665,45.8716229 106.209092,46.3620909 105.472604,46.668135 C104.67416,47.0349892 103.875715,47.2194131 102.893399,47.2194131 Z M89.7555412,41.2789677 C89.7555412,42.0136729 89.9394133,42.6257611 90.3081567,43.0544222 C90.6769001,43.4830833 91.1675587,43.7283173 91.782131,43.7283173 C92.395704,43.7283173 92.825405,43.4830833 93.255106,43.0544222 C93.6238494,42.6257611 93.8077214,42.0136729 93.8077214,41.2789677 C93.8077214,40.5432656 93.6238494,39.9311775 93.255106,39.5025164 C92.8863626,39.0738553 92.395704,38.8286212 91.782131,38.8286212 C91.1675587,38.8286212 90.7378577,39.0738553 90.3081567,39.5025164 C89.9394133,39.9311775 89.7555412,40.5432656 89.7555412,41.2789677 L89.7555412,41.2789677 Z M91.782131,47.2194131 C90.7378577,47.2194131 89.8784557,47.0349892 89.0800113,46.7289451 C88.2825663,46.422901 87.6679939,45.9942399 87.1153785,45.4429617 C86.5637623,44.8916836 86.1950189,44.2795955 85.94919,43.5448903 C85.7033611,42.8091882 85.519489,42.074483 85.519489,41.3397778 C85.519489,40.5432656 85.6424035,39.8085604 85.94919,39.1346653 C86.1950189,38.3999601 86.6247199,37.7878719 87.1153785,37.2365938 C87.6070363,36.6853157 88.2825663,36.2566546 89.0800113,35.9506105 C89.8784557,35.6435695 90.7378577,35.4601425 91.782131,35.4601425 C92.7634481,35.4601425 93.684807,35.6435695 94.4832513,35.9506105 C95.2806964,36.2566546 95.8952688,36.6853157 96.4478842,37.2365938 C97.0004997,37.7878719 97.3682437,38.3999601 97.6140727,39.1346653 C97.8599016,39.8703674 98.0437737,40.6050726 98.0437737,41.3397778 C98.0437737,42.1362899 97.9208592,42.8709951 97.6140727,43.5448903 C97.3682437,44.2795955 96.9385428,44.8916836 96.4478842,45.4429617 C95.8952688,45.9942399 95.2806964,46.422901 94.4832513,46.7289451 C93.684807,47.0349892 92.825405,47.2194131 91.782131,47.2194131 L91.782131,47.2194131 Z M74.8988796,46.9741791 L74.8988796,31.6630026 L85.4585314,31.6630026 L85.4585314,35.3375254 L79.1349319,35.3375254 L79.1349319,37.910489 L84.2913437,37.910489 L84.2913437,41.3397778 L79.1349319,41.3397778 L79.1349319,47.0349892 L74.8988796,47.0349892 L74.8988796,46.9741791 Z M121.495454,27.4372016 C120.942839,27.6824356 120.329266,27.8658627 119.653736,28.0492898 C118.978206,28.2337138 118.364633,28.2945238 117.689103,28.2945238 C117.198444,28.2945238 116.768743,28.2337138 116.4,28.1110967 C115.970299,27.9884797 115.601556,27.8050527 115.294769,27.5598186 C114.987983,27.3145846 114.742154,26.9477304 114.558282,26.5190693 C114.37441,26.0904082 114.312453,25.5999402 114.312453,24.987852 L114.312453,19.7821118 L112.900435,19.7821118 L112.900435,16.7196771 L114.312453,16.7196771 L114.312453,13.1677713 L118.42559,13.1677713 L118.42559,16.7196771 L120.636052,16.7196771 L120.636052,19.7821118 L118.42559,19.7821118 L118.42559,23.5174447 C118.42559,23.8852958 118.487547,24.1305298 118.671419,24.3139569 C118.856291,24.4365739 119.040163,24.5591909 119.346949,24.5591909 C119.530821,24.5591909 119.77665,24.497384 120.022479,24.4365739 C120.268308,24.3747669 120.513138,24.2521499 120.819924,24.1913399 L121.495454,27.4372016 Z M107.498195,28.2945238 C106.515878,28.2945238 105.533562,28.1110967 104.551245,27.8050527 C103.568929,27.4990086 102.770484,27.0085405 102.156911,26.3964523 L103.568929,23.9461058 C104.305416,24.4365739 104.980946,24.803428 105.594519,25.0486621 C106.270049,25.2938961 106.822665,25.4165131 107.37528,25.4165131 C107.927896,25.4165131 108.234682,25.2320891 108.234682,24.865235 C108.234682,24.6818079 108.111768,24.497384 107.927896,24.3747669 C107.682067,24.2521499 107.252366,24.0687228 106.638793,23.8852958 C105.840348,23.6400617 105.164818,23.4566347 104.613202,23.2114006 C104.060587,22.9661666 103.630886,22.7219295 103.3231,22.4766954 C102.955356,22.2314614 102.770484,21.9254173 102.586612,21.6193732 C102.463698,21.3133291 102.340783,20.9454781 102.340783,20.516817 C102.340783,19.9655389 102.463698,19.4142608 102.709527,18.9247896 C102.955356,18.4343215 103.262142,18.0056604 103.691843,17.6378094 C104.121544,17.2709553 104.613202,17.0257212 105.164818,16.7804872 C105.717434,16.5362501 106.332006,16.4744431 107.006537,16.4744431 C107.866938,16.4744431 108.664383,16.5970601 109.400871,16.7804872 C110.138357,17.0257212 110.935802,17.4543823 111.673289,18.0674674 L110.138357,20.516817 C109.400871,20.026349 108.849254,19.7203049 108.357597,19.5368778 C107.866938,19.3534507 107.437237,19.2308337 107.006537,19.2308337 C106.761707,19.2308337 106.576836,19.2916438 106.392964,19.3534507 C106.209092,19.4760677 106.147135,19.5976878 106.147135,19.7821118 C106.147135,20.026349 106.270049,20.148966 106.515878,20.3333899 C106.761707,20.4550101 107.191408,20.639434 107.866938,20.8228611 C108.664383,21.0680951 109.400871,21.2515222 109.953486,21.4967562 C110.506101,21.7419903 110.935802,21.9862274 111.304546,22.2932684 C111.673289,22.5993125 111.857161,22.9053566 112.041033,23.2114006 C112.163948,23.5792517 112.286862,23.9461058 112.286862,24.4365739 C112.286862,25.0486621 112.163948,25.5391301 111.980076,26.0286013 C111.795204,26.5190693 111.42746,26.8859235 111.058717,27.1919676 C110.629016,27.4990086 110.138357,27.8050527 109.585742,27.9276697 C108.910212,28.1719068 108.234682,28.2945238 107.498195,28.2945238 L107.498195,28.2945238 Z M92.4566616,28.2945238 C91.2904731,28.2945238 90.4310712,27.9276697 89.8174981,27.2537745 C89.2029258,26.5798794 88.8961393,25.5391301 88.8961393,24.1913399 L88.8961393,16.7196771 L93.009277,16.7196771 L93.009277,23.2732076 C93.009277,23.7626788 93.1321915,24.1913399 93.3160636,24.4365739 C93.5618925,24.6818079 93.868679,24.865235 94.2374224,24.865235 C94.5442089,24.865235 94.8509954,24.803428 95.2197388,24.620001 C95.5265254,24.497384 95.8952688,24.1305298 96.2020553,23.7018687 L96.2020553,16.7196771 L100.315193,16.7196771 L100.315193,23.5174447 C100.315193,23.8852958 100.376151,24.1913399 100.499065,24.3139569 C100.62198,24.4365739 100.806851,24.5591909 101.113637,24.5591909 L101.113637,27.9884797 C100.376151,28.1110967 99.8245345,28.2337138 99.3948335,28.2337138 C97.9828161,28.2337138 97.1843717,27.6824356 97.0004997,26.6406895 L96.9385428,26.2120284 C96.3859273,26.9477304 95.7723543,27.4372016 95.0358668,27.7432457 C94.29838,28.1110967 93.438978,28.2945238 92.4566616,28.2945238 L92.4566616,28.2945238 Z M79.1349319,19.6594948 L81.7750947,19.6594948 C82.0199243,19.6594948 82.2657532,19.5368778 82.5115821,19.2308337 C82.7574111,18.9247896 82.8183687,18.5569386 82.8183687,18.0056604 C82.8183687,17.4543823 82.6954542,17.0875282 82.4496253,16.7804872 C82.2047956,16.4744431 81.9589667,16.3518261 81.6521802,16.3518261 L79.072975,16.3518261 L79.072975,19.6594948 L79.1349319,19.6594948 Z M74.8988796,28.0492898 L74.8988796,12.7391102 L81.9589667,12.7391102 C82.6954542,12.7391102 83.3709841,12.9225373 84.046514,13.2285814 C84.6600871,13.5346254 85.2127025,13.9632865 85.7033611,14.4537546 C86.1950189,14.9432258 86.5018054,15.4945039 86.7476344,16.168399 C86.9934633,16.7804872 87.1153785,17.4543823 87.1153785,18.1282775 C87.1153785,19.0464097 86.9315064,19.8429219 86.5018054,20.639434 C86.133062,21.4349493 85.5814459,22.0480343 84.905916,22.5375055 L88.1596518,28.1719068 L83.4319417,28.1719068 L80.7308213,23.4566347 L79.1349319,23.4566347 L79.1349319,28.1719068 L74.8988796,28.1719068 L74.8988796,28.0492898 Z M54.7618925,26.7633065 C53.7186185,26.7633065 52.8582172,25.9059843 52.8582172,24.865235 C52.8582172,23.8234888 53.7186185,22.9661666 54.7618925,22.9661666 L54.8228501,22.9661666 C55.8671234,22.9661666 56.6645685,23.8234888 56.6645685,24.865235 C56.6645685,25.9059843 55.8051665,26.7633065 54.7618925,26.7633065 L54.7618925,26.7633065 Z M30.0820666,7.53336999 C30.0820666,6.49162382 30.9414686,5.63430161 31.9847426,5.63430161 L32.0466995,5.63430161 C33.0899735,5.63430161 33.8884179,6.49162382 33.8884179,7.53336999 C33.8884179,8.57411927 33.0290159,9.43144148 31.9847426,9.43144148 C30.9414686,9.43144148 30.0820666,8.57411927 30.0820666,7.53336999 L30.0820666,7.53336999 Z M49.9732248,38.3391501 C48.7450795,38.4607702 47.3950189,37.848682 47.2101476,37.0521699 C46.4736601,33.0107929 45.3074716,32.1534706 43.4037963,30.6222533 C45.7371726,29.151846 48.192464,26.9477304 48.192464,23.9461058 C48.192464,20.762051 45.9830015,18.7403656 44.5090272,17.7604264 C42.4214799,16.413633 40.0891029,16.107589 39.4755299,16.107589 L14.5498751,16.107589 C17.9874829,12.2486421 22.5922786,9.67667551 27.6877328,8.69673629 L30.6346821,11.759171 C31.310212,12.4320692 32.4144436,12.4938762 33.0899735,11.819981 L36.4056662,8.69673629 C43.2199243,9.9827196 49.051866,14.1477105 52.4904731,20.148966 L50.2190538,25.2320891 C49.8503104,26.0904082 50.2190538,27.1311575 51.0784557,27.5598186 L55.4374224,29.4578901 C55.5603369,30.8056804 55.5603369,32.1534706 55.49838,33.500264 L53.1040462,33.500264 C52.8582172,33.500264 52.7363021,33.684688 52.7363021,33.8681151 L52.7363021,34.9706713 C52.7363021,37.603448 51.2623278,38.216533 49.9732248,38.3391501 L49.9732248,38.3391501 Z M26.7663739,27.8050527 L26.7663739,23.3948277 L34.6868622,23.3948277 C35.1165632,23.3948277 37.5718546,23.8852958 37.5718546,25.7225572 C37.5718546,27.2537745 35.6691787,27.8050527 34.1342468,27.8050527 L26.7663739,27.8050527 Z M7.30491668,24.742618 C7.30491668,23.7018687 8.16431864,22.8435496 9.20859196,22.8435496 L9.26954954,22.8435496 C10.3138229,22.8435496 11.1112679,23.7018687 11.1112679,24.742618 C11.1112679,25.7833673 10.251866,26.6406895 9.20859196,26.6406895 C8.16431864,26.6406895 7.30491668,25.7833673 7.30491668,24.742618 L7.30491668,24.742618 Z M8.71693409,29.274463 L12.8310712,27.4372016 C13.6904731,27.0703475 14.1201741,26.0286013 13.6904731,25.1712791 L12.8920287,23.2732076 L16.2077214,23.2732076 L16.2077214,38.216533 L9.45442089,38.216533 C8.65597651,35.3375254 8.41014758,32.2760877 8.71693409,29.274463 L8.71693409,29.274463 Z M19.7682437,51.5678311 C19.7682437,52.6085804 18.9088418,53.4659026 17.8645685,53.4659026 C16.8212945,53.4659026 15.9618925,52.6085804 15.9618925,51.5678311 C15.9618925,50.5260849 16.8212945,49.6687627 17.8645685,49.6687627 L17.9265254,49.6687627 C18.9088418,49.7305697 19.7682437,50.5260849 19.7682437,51.5678311 L19.7682437,51.5678311 Z M48.008592,51.6904481 C48.008592,52.7311974 47.14919,53.5885196 46.105916,53.5885196 C45.0616427,53.5885196 44.2022407,52.7311974 44.2022407,51.6904481 C44.2022407,50.6487019 45.0616427,49.7913797 46.105916,49.7913797 L46.1668736,49.7913797 C47.2101476,49.7913797 48.008592,50.6487019 48.008592,51.6904481 L48.008592,51.6904481 Z M44.8158137,47.3420301 C43.8954542,47.1576062 42.9740953,47.7088843 42.7292657,48.6888235 L41.7469493,53.1598585 C35.4843073,55.9770592 28.3632627,55.9162491 22.1625776,53.0990484 L21.1802612,48.6280134 C20.9963891,47.7088843 20.0750303,47.0967961 19.0927138,47.2802232 L15.1634481,48.1375454 C14.4269606,47.4028402 13.7514307,46.606328 13.1378577,45.7490058 L32.353486,45.7490058 C32.537358,45.7490058 32.7222294,45.6881958 32.7222294,45.5047687 L32.7222294,38.7060042 C32.7222294,38.5225771 32.5993149,38.4607702 32.353486,38.4607702 L26.7054163,38.4607702 L26.7054163,34.1741591 L32.783187,34.1741591 C33.3358024,34.1741591 35.7301362,34.3575862 36.5285806,37.4200209 C36.7734103,38.3391501 37.3260257,41.4623948 37.6328122,42.442334 C38.0015556,43.5448903 39.4755299,45.7490058 41.0094625,45.7490058 L50.8945837,45.7490058 C50.2190538,46.606328 49.4825663,47.4636503 48.7450795,48.2601624 L44.8158137,47.3420301 Z M63.7256548,31.2343415 L60.9625776,29.5196971 C60.9625776,29.274463 60.90162,29.029229 60.90162,28.7849919 L63.233997,26.5798794 C63.4798259,26.3346454 63.5407835,26.0286013 63.4798259,25.7225572 C63.417869,25.4165131 63.1730394,25.1712791 62.9272104,25.0486621 L59.9193036,23.9461058 L59.7344322,23.2114006 L61.6381075,20.5776271 C61.8219796,20.3333899 61.8829371,19.9655389 61.761022,19.7203049 C61.6381075,19.4142608 61.3922786,19.2308337 61.0854921,19.1690267 L57.8927138,18.6795556 C57.7697994,18.4343215 57.6468849,18.2508945 57.5249697,18.0056604 L58.8750303,15.0658428 C58.9979447,14.7597987 58.9979447,14.4537546 58.8140727,14.1477105 C58.6292013,13.8406695 58.3224148,13.7190494 58.0156283,13.7190494 L54.7618925,13.8406695 C54.638978,13.6572425 54.455106,13.4738154 54.3321915,13.2903883 L55.068679,10.1661467 C55.1306359,9.86010259 55.068679,9.5540585 54.8228501,9.30882447 C54.5780204,9.06359044 54.2702346,9.00278038 53.9634481,9.06359044 L50.8326268,9.79929252 C50.6487547,9.67667551 50.4638834,9.49324843 50.2800113,9.37063142 L50.4029258,6.12476966 C50.4029258,5.81772869 50.2800113,5.5116846 49.9732248,5.32825752 C49.7273959,5.14483044 49.3596518,5.14483044 49.051866,5.26744746 L46.0439591,6.67604778 C45.8600871,6.55343077 45.6142581,6.43081376 45.3684292,6.30819674 L44.8777706,3.12314505 C44.8158137,2.81710096 44.6319417,2.57186693 44.3251552,2.44924992 C44.0183687,2.32762979 43.7115821,2.38843986 43.4037963,2.57186693 L40.7646329,4.47093531 L40.0271461,4.28750824 L39.0458289,1.22507356 C38.9229145,0.919029469 38.6770855,0.673795442 38.3083421,0.611988492 C38.0015556,0.551178429 37.6947691,0.673795442 37.4489402,0.857222519 L35.2394777,3.184952 C34.9936487,3.184952 34.7478198,3.12314505 34.5019909,3.12314505 L32.783187,0.367751352 C32.7222294,0.183327388 32.4144436,-9.96886288e-05 32.0466995,-9.96886288e-05 C31.6779561,-9.96886288e-05 31.4331264,0.183327388 31.2482551,0.428561415 L29.5294512,3.184952 C29.2836222,3.184952 29.0387926,3.24576207 28.7929637,3.24576207 L26.5825019,0.919029469 C26.3366729,0.673795442 26.0298864,0.611988492 25.7230999,0.673795442 C25.4163134,0.734605506 25.1704845,0.979839532 25.04757,1.22507356 L23.9423391,4.22570129 C23.758467,4.28750824 23.5126381,4.3483183 23.3287661,4.40912836 L20.7505602,2.51105687 C20.5047312,2.32762979 20.1359878,2.26582284 19.8911582,2.38843986 C19.5833724,2.51105687 19.3995003,2.7562909 19.3385428,3.06233499 L18.8468849,6.24638979 C18.6020553,6.36900681 18.4171839,6.49162382 18.171355,6.61424083 L15.225405,5.26744746 C14.9176192,5.14483044 14.6108327,5.14483044 14.3040462,5.32825752 C14.0582172,5.5116846 13.8743452,5.81772869 13.8743452,6.12476966 L13.9972596,9.37063142 C13.8133876,9.49324843 13.6285162,9.67667551 13.4446442,9.79929252 L10.3138229,9.06359044 C10.0070363,9.00278038 9.69925052,9.06359044 9.45442089,9.30882447 C9.20859196,9.5540585 9.14663507,9.86010259 9.20859196,10.1661467 L9.94507946,13.2903883 C9.76120741,13.4738154 9.63829294,13.6572425 9.51537847,13.8406695 L6.26164267,13.7190494 C5.95485616,13.7190494 5.64806964,13.8406695 5.46319829,14.1477105 C5.27932624,14.3919477 5.27932624,14.7597987 5.40224071,15.0658428 L6.75230123,18.0056604 C6.63038607,18.1890875 6.5074716,18.4343215 6.38455714,18.6795556 L3.19177892,19.1690267 C2.8849924,19.2308337 2.63916347,19.4142608 2.516249,19.7203049 C2.39433384,20.026349 2.45529142,20.3333899 2.63916347,20.5776271 L4.41992428,23.2732076 L4.23605223,24.0079128 L1.22714606,25.0486621 C0.920359544,25.1712791 0.736487496,25.4165131 0.67453061,25.7225572 C0.613573029,26.0286013 0.736487496,26.3346454 0.920359544,26.5798794 L3.2537358,28.7849919 C3.2537358,29.029229 3.19177892,29.274463 3.19177892,29.5196971 L0.429700981,31.2343415 C0.183872048,31.3569585 0,31.6630026 0,31.9690467 C0,32.2760877 0.183872048,32.5821317 0.429700981,32.7655588 L3.19177892,34.4802032 C3.19177892,34.7254373 3.2537358,34.9706713 3.2537358,35.2149084 L0.920359544,37.4200209 C0.67453061,37.6652549 0.613573029,37.971299 0.67453061,38.2773431 C0.67453061,38.5833872 0.920359544,38.8286212 1.22714606,38.9512382 L4.23605223,40.0537945 L4.41992428,40.7884997 L2.516249,43.4222732 C2.33237695,43.6665104 2.27141937,44.0343614 2.39433384,44.2795955 C2.516249,44.5248295 2.76207794,44.7690666 3.06886445,44.8308736 L6.26164267,45.3203447 C6.38455714,45.5655788 6.5074716,45.7490058 6.63038607,45.9942399 L5.27932624,48.9340575 C5.15641178,49.2401016 5.15641178,49.5461457 5.34028382,49.8521898 C5.52515518,50.0974238 5.83194169,50.2818478 6.1387282,50.2818478 L9.39246401,50.1592308 C9.51537847,50.3426579 9.69925052,50.5260849 9.82216499,50.7105089 L9.08567749,53.8337536 C9.02471991,54.1397977 9.08567749,54.4458418 9.33150643,54.6910758 C9.57733536,54.9363099 9.88412187,54.9971199 10.1909084,54.9363099 L13.3217297,54.2006078 C13.5056018,54.3232248 13.6904731,54.5076488 13.8743452,54.6292689 L13.7514307,57.8761275 C13.7514307,58.1821716 13.8743452,58.4882157 14.1811317,58.6716428 C14.4879182,58.8550699 14.795704,58.8550699 15.1024905,58.7334497 L18.0494398,57.3856595 C18.2333119,57.5082765 18.4791408,57.6308935 18.7239704,57.7535105 L19.2156283,60.9375653 C19.2765859,61.2436094 19.4614572,61.4888434 19.7682437,61.6114605 C20.0750303,61.7340775 20.3818168,61.6732674 20.6276457,61.4888434 L23.2678085,59.5907719 L24.004296,59.774199 L25.1095269,62.7748268 C25.2324413,63.0818677 25.477271,63.2652948 25.7840575,63.3261049 C26.0918433,63.3879118 26.3986298,63.2652948 26.6444588,63.0818677 L28.8539212,60.7541382 C29.0997502,60.7541382 29.3455791,60.8149483 29.5904087,60.8149483 L31.310212,63.5713389 C31.494084,63.8165729 31.8008705,64 32.107657,64 C32.4144436,64 32.7222294,63.8165729 32.9061014,63.5713389 L34.6249053,60.8149483 C34.8707343,60.8149483 35.1165632,60.7541382 35.3613928,60.7541382 L37.5718546,63.0818677 C37.8176836,63.3261049 38.1244701,63.3879118 38.4312566,63.3261049 C38.7380431,63.2652948 38.983872,63.0200608 39.1067865,62.7748268 L40.2120174,59.774199 L40.9485049,59.5907719 L43.5267108,61.4888434 C43.7725397,61.6732674 44.1412831,61.7340775 44.4480696,61.6114605 C44.7548562,61.4888434 44.9387282,61.2436094 45.0006851,60.9375653 L45.4913437,57.7535105 C45.7371726,57.6308935 45.9210446,57.5082765 46.1668736,57.3856595 L49.1138229,58.7334497 C49.4206094,58.8550699 49.7273959,58.8550699 50.0341824,58.6716428 C50.2800113,58.4882157 50.4638834,58.1821716 50.4638834,57.8761275 L50.3419682,54.6292689 C50.5258403,54.5076488 50.7097123,54.3232248 50.8945837,54.2006078 L54.025405,54.9363099 C54.3321915,54.9971199 54.638978,54.9363099 54.884807,54.6910758 C55.1306359,54.4458418 55.1915935,54.1397977 55.1306359,53.8337536 L54.3931491,50.7105089 C54.5160636,50.5260849 54.7009349,50.3426579 54.8228501,50.1592308 L58.0765859,50.2818478 C58.3843717,50.2818478 58.6911582,50.1592308 58.8750303,49.8521898 C59.0589023,49.6079527 59.0589023,49.2401016 58.9369871,48.9340575 L57.4630129,45.9334298 C57.5859273,45.7490058 57.7088418,45.5047687 57.8317563,45.2595347 L61.0235352,44.7690666 C61.331321,44.7082566 61.5761506,44.5248295 61.6990651,44.2177885 C61.8219796,43.9117444 61.761022,43.6057003 61.5761506,43.3604663 L59.6734746,40.7276896 L59.8573467,39.9919875 L62.8652536,38.8904282 C63.1730394,38.7678112 63.3569114,38.5225771 63.417869,38.216533 C63.4798259,37.910489 63.3569114,37.603448 63.1730394,37.3592108 L60.8396631,35.1540984 C60.8396631,34.9088643 60.90162,34.6636303 60.90162,34.4193932 L63.6636979,32.7047488 C63.9095269,32.5203248 64.0933989,32.2142807 64.0933989,31.9082366 C64.0933989,31.6021925 63.9704845,31.3569585 63.7256548,31.2343415 L63.7256548,31.2343415 Z" id="Fill-1" fill="#FFFFFF" mask="url(#mask-2)"></path>
                </g>
            </g>
        </g>
    </g>
</svg>