<?xml version="1.0" encoding="UTF-8"?>
<svg width="200px" height="100px" viewBox="0 0 200 100" version="1.1" xmlns="http://www.w3.org/2000/svg" xmlns:xlink="http://www.w3.org/1999/xlink">
    <title>Artboard</title>
    <g id="Artboard" stroke="none" stroke-width="1" fill="none" fill-rule="evenodd">
        <g id="trail-of-bits" transform="translate(44, 17)" fill="#FFFFFF">
            <g id="Group-3" transform="translate(30, 59)">
                <path d="M11,5.29195641 L2.14113535,0 L0,7 L10.9834277,5.29631552 C10.9496203,5.29631552 10.9330481,5.29631552 11,5.29195641" id="Fill-1"></path>
            </g>
            <path d="M40.4757495,64.497 L40.4517495,64.503 C40.5137495,64.503 40.6207495,64.497 40.4757495,64.497" id="Fill-4"></path>
            <polygon id="Fill-6" points="72 61 79.2691034 59.0094221 82 51 75.2876157 51.4265075"></polygon>
            <polygon id="Fill-8" points="88 6.68677615 82.871091 3 80 13.1199654 85.6436091 15"></polygon>
            <path d="M52,3.99145378 C52,3.99145378 55.5201567,5.09079213 56.9083786,5.49154567 L61.9121698,7 L62,0 L53.2011879,1.78119831 L52,3.99145378 Z" id="Fill-10"></path>
            <path d="M14,30.9830521 L20.6367957,31 L23,23.5978457 L16.9660557,22 C16.3245078,24.0330672 14.6537678,28.9499849 14,30.9830521" id="Fill-12"></path>
            <polygon id="Fill-14" points="2 25.2078486 6.44256464 30 9 21.4973901 3.54745792 20"></polygon>
            <path d="M105.995624,53.9485291 C105.896645,51.3993675 105.199207,50.5651812 103.717807,49 L95.9935512,49.5232805 C98.1474807,50.8973911 99.467631,52.5990513 99.7403135,54.8825781 C100.041182,57.3904631 97.3595856,60.2878126 94.763858,60.2878126 C93.3158877,60.2878126 92.5935413,59.1340657 92.5935413,57.8092207 C92.634837,56.8212458 92.9770011,55.5383431 93.4889362,54.6835185 L86.9360351,54.6835185 C86.4247554,56.0116923 86,57.5109641 86,58.9223568 C86,63.7583739 90.2128134,65 94.2106272,65 C98.378212,65 101.828039,64.186452 103.998355,60.2878126 C104.976342,58.5275663 106.078215,56.0037032 105.995624,53.9485291" id="Fill-16"></path>
            <g id="Group-20" transform="translate(0, 1)">
                <polygon id="Fill-18" points="22 0 1.59321829 0.0173237536 0 5.23315949 7.47986679 5.22415114 3.78189525 17.3493928 9.76512262 19 13.9206782 5.21999344 20.4067817 5.21098508"></polygon>
            </g>
            <path d="M29.3231194,5.86826603 L31.4950612,5.86417507 C33.1032879,5.86417507 34.7068337,6.2548623 34.7115217,8.18579813 C34.7155268,10.5537855 33.0230437,14.5458862 30.2452585,14.5458862 L26.6837553,14.550659 L29.3231194,5.86826603 Z M25.1684781,19.4229992 C25.9053869,19.3759531 26.6456393,19.3759531 27.3825481,19.3759531 C28.5989158,19.3718622 30.4217956,19.4611816 30.4217956,21.1705234 C30.4258078,22.3521307 29.9924894,23.8446514 29.6474395,24.9846672 C28.9987992,27.3096994 28.2204309,29.6313225 28.0900341,31.9999916 L34.8165007,31.9911279 C34.6399635,28.177666 36.9804181,24.8442107 36.9757372,21.0723403 C36.9757372,18.529805 35.0645889,17.5220638 32.8505188,17.1272856 L33.4991591,17.0379662 C38.3184895,16.3745479 41.0046626,12.5604042 40.9999878,7.78147435 C40.9959695,2.4836737 36.6099576,0.995925815 32.1390206,1.00000837 L24.4148517,1.00819871 C22.2174992,7.89670322 20.1338259,14.8227082 18,21.7405313 L23.9394051,23.3428263 L25.1684781,19.4229992 Z" id="Fill-21"></path>
            <path d="M43.6909317,31.9700045 L47.1133541,25.3464433 L55.3051049,25.3382627 L55.0554088,32 L61.4887174,31.995228 L62,9.31587089 L56.4736564,7.60271638 C55.9703007,11.8579931 55.687576,16.1603083 55.687576,20.4285377 L55.6459599,20.4285377 L49.4709348,20.432628 C51.6911166,16.1391751 53.8208001,11.8109547 55.7377794,7.37297779 L51.3086456,6 L37,31.9740948 L43.6909317,31.9700045 Z" id="Fill-23"></path>
            <polygon id="Fill-25" points="89.3471476 31.9872074 91 27.0034853 82.236054 27.0162779 85.4826564 16.8306864 79.4071982 15 74 32"></polygon>
            <path d="M45.4038032,45.7609743 L42.9968582,45.7609743 L45.5288136,37.7345479 C47.4191815,37.8239048 50.9829682,37.2113671 50.9829682,40.192884 C51.0286069,43.7023566 48.838611,45.7609743 45.4038032,45.7609743 M45.9203803,57.343257 C44.7165771,59.1849627 43.4300951,59.3172927 41.4107482,59.3172927 L38.7921455,59.3172927 L41.6687061,50.1974388 C43.7713931,50.2827029 47.5064903,49.7595221 47.5064903,52.91566 C47.5064903,54.3146742 46.6942538,56.2034458 45.9203803,57.343257 M49.3968582,33 L40.9404713,33 L33,58.3773406 L43.1053328,64 C49.1554361,63.7660352 53.3938818,59.1938302 53.3938818,52.91566 C53.3938818,50.5037076 51.9327821,48.6197109 49.6587846,47.9601074 C54.1267466,46.909653 57,43.9704271 57,39.1465223 C56.99537,34.4467622 53.4315833,33 49.3968582,33" id="Fill-27"></path>
            <path d="M70.5028637,11 L63.8633695,32.5332119 L58,50 L65.0398761,49.4731813 L70.1236987,33.93337 L70.1325961,33.93337 L77,12.8847509 C76.0431901,12.6260333 72.235114,11.4390156 70.5028637,11" id="Fill-29"></path>
            <polygon id="Fill-31" points="73.6012469 33 72 38.2686327 79.4815846 38.2686327 75.9821445 50 82.5116364 49.5323159 85.9191962 38.2686327 92.3987531 38.2686327 94 33"></polygon>
            <g id="Group-35" transform="translate(92, 33)">
                <path d="M11.1537777,0 C4.15597008,0 0,4.60639851 0,11.0095579 C0.00834811532,11.9414576 0.889074281,14.2340369 2.68878881,15 L11.1057761,14.4617018 C9.67337862,13.3193947 7.14250833,10.6245852 7.14250833,9.19288464 C7.14250833,7.22686845 8.30289636,4.65617948 10.6981098,4.65617948 C12.3232096,4.65617948 13.317331,5.08296827 13.317331,6.74697995 C13.317331,7.81428382 12.7740078,8.79530068 12.4588664,9.82211602 L18.9620483,9.82211602 C19.3690189,8.92340369 20,6.87508297 20,5.93521837 C20.0041713,1.2790389 15.2179185,0 11.1537777,0" id="Fill-33"></path>
            </g>
            <path d="M29.2265231,36.0892524 C29.2265231,36.454204 28.8347432,37.6437935 28.703153,38.0596094 L28.0966419,40.0503121 C27.8597795,40.80374 27.5732718,41.6677979 26.6700846,41.6677979 C26.1580791,41.6677979 25.8267111,41.3543464 25.8267111,40.7916598 C25.8267111,40.0617566 26.3608476,38.710037 26.5869435,37.9566091 C26.8130394,37.2076319 27.1103136,35.7128563 27.8974622,35.4229297 C28.0745108,35.359985 28.2665129,35.3358245 28.4585149,35.3358245 C28.816201,35.3358245 29.2450654,35.6728007 29.2450654,36.0771721 L29.2265231,36.0892524 Z M28.4621037,34 C25.7250278,34 25.3332479,36.1286722 24.6555584,38.3889559 C24.4294625,39.2015136 24,40.1927323 24,41.0453456 C24,42.6869919 25.3822951,42.9998075 26.6658976,42.9998075 C28.2360079,43.0118878 29.0722037,42.4568308 29.6290695,40.9022897 C30.0094847,39.839861 31,36.9177052 31,35.8908815 C31,34.4361616 29.6069384,34 28.4621037,34 Z" id="Fill-36"></path>
            <polygon id="Fill-38" points="36.3667471 39.1249371 36.7842613 37.6571593 34.3841579 37.6571593 35.0333563 35.4677779 37.5553353 35.4677779 38 34 33.6281676 34 31 43 32.8383899 43 33.9775039 39.1249371"></polygon>
        </g>
    </g>
</svg>