<?xml version="1.0" encoding="UTF-8"?>
<svg width="140px" height="43px" viewBox="0 0 140 43" version="1.1" xmlns="http://www.w3.org/2000/svg" xmlns:xlink="http://www.w3.org/1999/xlink">
    <title>Group 3</title>
    <defs>
        <polygon id="path-1" points="3.53826492e-15 0 140 0 140 43 3.53826492e-15 43"></polygon>
    </defs>
    <g id="Web" stroke="none" stroke-width="1" fill="none" fill-rule="evenodd">
        <g id="DT_EuroRust-'23_vs.2c" transform="translate(-699.000000, -4133.000000)">
            <g id="Group-22" transform="translate(167.000000, 3775.000000)">
                <g id="Group-19" transform="translate(0.000000, 347.000000)">
                    <g id="Group-3" transform="translate(532.000000, 11.000000)">
                        <mask id="mask-2" fill="white">
                            <use xlink:href="#path-1"></use>
                        </mask>
                        <g id="Clip-2"></g>
                        <path d="M31.6099186,1.13210917 L41.0224818,1.13210917 L41.0224818,41.7464011 L31.6099186,41.7464011 L31.6099186,37.512213 C27.4648453,42.3438754 22.4343876,43.0001995 19.5332346,43.0001995 C7.10199848,43.0001995 0,32.5618537 0,21.4083341 C0,8.17013765 8.99825498,0.0588497279 19.6517507,0.0588497279 C22.6116637,0.0588497279 27.8223853,0.833870721 31.6099186,5.84307976 L31.6099186,1.13210917 Z M9.58884327,21.5888731 C9.58884327,28.6259041 13.9699527,34.5308259 20.777155,34.5308259 C26.696981,34.5308259 32.2005069,30.1759461 32.2005069,21.7065725 C32.2005069,12.8212611 26.755741,8.58707301 20.777155,8.58707301 C13.9699527,8.58707301 9.58884327,14.3703056 9.58884327,21.5888731 L9.58884327,21.5888731 Z M52.1510375,1.13210917 L61.5626047,1.13210917 L61.5626047,4.76882287 C62.629249,3.51801679 64.1679655,2.14651889 65.4716419,1.3714979 C67.3061505,0.295246093 69.0809032,0 71.2141918,0 C73.5217686,0 76.0086134,0.357088179 78.6119824,1.90713017 L74.764693,10.4942032 C72.6324004,9.12170783 70.9164078,9.0628581 69.9702714,9.0628581 C67.9554989,9.0628581 65.9437141,9.36109655 64.1092055,11.2712191 C61.5038447,14.0750595 61.5038447,17.949167 61.5038447,20.6333131 L61.5038447,41.6875513 L52.0912815,41.6875513 L52.0912815,1.13210917 L52.1510375,1.13210917 Z M84.6503244,1.13210917 L94.0618915,1.13210917 L94.0618915,4.88751978 C97.2000765,1.01341226 100.930842,0.0588497279 104.009271,0.0588497279 C108.210116,0.0588497279 112.176918,2.0846768 114.425734,6.02262131 C117.799955,1.1909589 122.833401,0.0588497279 126.383902,0.0588497279 C131.29684,0.0588497279 135.560429,2.38291525 137.86701,6.43955667 C138.638858,7.81205202 140.000299,10.7924416 140.000299,16.6973635 L140.000299,41.8052508 L130.587736,41.8052508 L130.587736,19.4413567 C130.587736,14.9089302 130.112676,13.0606498 129.699363,12.2237867 C129.107779,10.6747422 127.686583,8.64592274 124.313358,8.64592274 C122.002793,8.64592274 119.991008,9.89972118 118.748084,11.6293047 C117.089855,13.9533702 116.912579,17.4135347 116.912579,20.8727018 L116.912579,41.8052508 L107.501012,41.8052508 L107.501012,19.4413567 C107.501012,14.9089302 107.027944,13.0606498 106.611644,12.2237867 C106.021055,10.6747422 104.599859,8.64592274 101.225638,8.64592274 C98.9160692,8.64592274 96.9042844,9.89972118 95.6603641,11.6293047 C94.0031315,13.9533702 93.8258554,17.4135347 93.8258554,20.8727018 L93.8258554,41.8052508 L84.6503244,41.8052508 L84.6503244,1.13210917 Z" id="Fill-1" fill="#FFFFFF" mask="url(#mask-2)"></path>
                    </g>
                </g>
            </g>
        </g>
    </g>
</svg>