<?xml version="1.0" encoding="UTF-8"?>
<svg width="218px" height="47px" viewBox="0 0 218 47" version="1.1" xmlns="http://www.w3.org/2000/svg" xmlns:xlink="http://www.w3.org/1999/xlink">
    <title>Group 28</title>
    <defs>
        <polygon id="path-1" points="0 0 41.2215553 0 41.2215553 14.5655573 0 14.5655573"></polygon>
        <polygon id="path-3" points="0 0 41.2218988 0 41.2218988 18.4606771 0 18.4606771"></polygon>
        <polygon id="path-5" points="0 0 20.5219905 0 20.5219905 19.8342785 0 19.8342785"></polygon>
    </defs>
    <g id="Web" stroke="none" stroke-width="1" fill="none" fill-rule="evenodd">
        <g id="DT_EuroRust-'23_vs.2c" transform="translate(-421.000000, -4131.000000)">
            <g id="Group-22" transform="translate(167.000000, 3775.000000)">
                <g id="Group-19" transform="translate(0.000000, 347.000000)">
                    <g id="Group-28" transform="translate(254.000000, 9.000000)">
                        <g id="Group-3">
                            <mask id="mask-2" fill="white">
                                <use xlink:href="#path-1"></use>
                            </mask>
                            <g id="Clip-2"></g>
                            <path d="M31.4014354,14.5221646 C31.1230433,14.624598 30.811723,14.5410601 30.6141544,14.3202814 C28.1575184,11.5854105 24.5863161,9.86393356 20.6109962,9.86393356 C16.6356762,9.86393356 13.0644739,11.5854105 10.6078379,14.3202814 C10.4092715,14.5410601 10.0979513,14.624598 9.82055695,14.5221646 L0.556784269,11.0931337 C0.021952068,10.894234 -0.171625259,10.2388595 0.171625259,9.78437368 L7.29806478,0.338626746 C7.458714,0.124809564 7.7121606,-0.000497249259 7.98057453,-0.000497249259 L33.2414178,-0.000497249259 C33.5098317,-0.000497249259 33.7622805,0.124809564 33.9239276,0.338626746 L41.0503671,9.78437368 C41.3926198,10.2388595 41.2000403,10.894234 40.6652081,11.0931337 L31.4014354,14.5221646 Z" id="Fill-1" fill="#FFFFFF" mask="url(#mask-2)"></path>
                        </g>
                        <g id="Group-6" transform="translate(0.000000, 28.539323)">
                            <mask id="mask-4" fill="white">
                                <use xlink:href="#path-3"></use>
                            </mask>
                            <g id="Clip-5"></g>
                            <path d="M7.98047474,0 C8.17205643,0 8.34567733,0.11436733 8.42650085,0.287410072 C10.552858,4.86906475 15.2096899,8.04748201 20.6108964,8.04748201 C26.0121029,8.04748201 30.6689348,4.86906475 32.7952919,0.287410072 C32.8761155,0.11436733 33.0487385,0 33.241318,0 C33.509732,0 33.7621807,0.125306813 33.9238278,0.339123995 L41.0502673,9.78487093 C41.3935178,10.2393567 41.1999405,10.8957258 40.6651083,11.0926365 L20.9082471,18.4071731 C20.7166654,18.478777 20.5051273,18.478777 20.3135457,18.4071731 L0.556684487,11.0926365 C0.0218522858,10.8957258 -0.171725041,10.2393567 0.171525476,9.78487093 L7.29796499,0.339123995 C7.45861422,0.125306813 7.71206082,0 7.98047474,0" id="Fill-4" fill="#FFFFFF" mask="url(#mask-4)"></path>
                        </g>
                        <path d="M28.6906544,23.2255184 C28.6906544,27.6699323 25.0735522,31.2720059 20.6112955,31.2720059 C16.148041,31.2720059 12.5309389,27.6699323 12.5309389,23.2255184 C12.5309389,18.7811045 16.148041,15.1790309 20.6112955,15.1790309 C25.0735522,15.1790309 28.6906544,18.7811045 28.6906544,23.2255184" id="Fill-7" fill="#FFFFFF"></path>
                        <path d="M53.3216729,34.4903026 L53.3216729,21.3519826 L50.8750151,21.3519826 L50.8750151,16.9483432 L53.3216729,16.9483432 L53.3216729,15.383997 C53.3216729,13.0061511 53.9303438,11.1136204 55.1476858,9.70640499 C56.3650277,8.27432713 57.9834938,7.55928269 60.0040819,7.55928269 C61.6105742,7.55928269 63.2779335,7.93520313 65.0071578,8.68704401 L63.9474716,13.0548815 C63.5583213,12.8848223 63.1202777,12.7515595 62.633341,12.6540986 C62.1464042,12.5327698 61.7083606,12.4721054 61.3182125,12.4721054 C59.8823477,12.4721054 59.1639164,13.3701375 59.1639164,15.1652074 L59.1639164,16.9483432 L63.6191884,16.9483432 L63.6191884,21.3519826 L59.1639164,21.3519826 L59.1639164,34.4903026 L53.3216729,34.4903026 Z" id="Fill-9" fill="#FFFFFF"></path>
                        <path d="M70.1865486,23.1719149 L78.5123693,23.1719149 C78.3906351,21.9586267 77.9406177,20.9999302 77.1613193,20.2968197 C76.4059686,19.5688468 75.4690144,19.2048603 74.349459,19.2048603 C73.2299035,19.2048603 72.2799777,19.5688468 71.5016771,20.2968197 C70.7463264,21.0247926 70.3082828,21.9834892 70.1865486,23.1719149 M74.4222999,34.854289 C72.25603,34.854289 70.4060693,34.4057702 68.872418,33.507738 C67.3387667,32.6097059 66.1573463,31.4212802 65.3301525,29.9414664 C64.5269064,28.4606581 64.1247844,26.8595154 64.1247844,25.137044 C64.1247844,23.2932438 64.5269064,21.6065743 65.3301525,20.07803 C66.1333986,18.5494858 67.3018473,17.3242636 68.8354986,16.4023635 C70.3691499,15.4804634 72.2310844,15.0200106 74.4222999,15.0200106 C76.5895677,15.0200106 78.4395284,15.4804634 79.9731797,16.4023635 C81.5058331,17.3242636 82.6633058,18.5375518 83.4416064,20.0422281 C84.2448525,21.5459099 84.6469745,23.159981 84.6469745,24.8824524 C84.6469745,25.5855628 84.5980813,26.2051354 84.5002948,26.7381866 L70.3322305,26.7381866 C70.430017,28.0240732 70.8930061,29.0066377 71.7201999,29.6868747 C72.5723393,30.3412548 73.534239,30.6694393 74.6049012,30.6694393 C75.4570406,30.6694393 76.2722606,30.4625836 77.051559,30.0498667 C77.8298596,29.6381443 78.3666874,29.0802306 78.6580512,28.3761257 L83.6242077,29.7594731 C82.8698548,31.2631549 81.6894322,32.4883771 80.0819422,33.4351397 C78.5003955,34.3809077 76.6135154,34.854289 74.4222999,34.854289" id="Fill-11" fill="#FFFFFF"></path>
                        <path d="M98.7237381,20.369617 C97.311821,20.393485 96.0336119,20.6242086 94.8901088,21.0607935 C93.7456078,21.4973783 92.9174161,22.1527529 92.4065316,23.0259226 L92.4065316,34.4905015 L86.5642881,34.4905015 L86.5642881,15.3832014 L91.9315687,15.3832014 L91.9315687,19.2418557 C92.5891329,17.9559691 93.4412723,16.9485421 94.4879868,16.2205692 C95.5347013,15.4925963 96.630309,15.1166758 97.77481,15.0928079 C98.2617468,15.0928079 98.5780562,15.1047419 98.7237381,15.1286098 L98.7237381,20.369617 Z" id="Fill-13" fill="#FFFFFF"></path>
                        <path d="M112.613809,20.369617 C111.201892,20.393485 109.923683,20.6242086 108.78018,21.0607935 C107.635679,21.4973783 106.807487,22.1527529 106.296603,23.0259226 L106.296603,34.4905015 L100.454359,34.4905015 L100.454359,15.3832014 L105.82164,15.3832014 L105.82164,19.2418557 C106.479204,17.9559691 107.331343,16.9485421 108.378058,16.2205692 C109.424773,15.4925963 110.52038,15.1166758 111.664881,15.0928079 C112.151818,15.0928079 112.468127,15.1047419 112.613809,15.1286098 L112.613809,20.369617 Z" id="Fill-15" fill="#FFFFFF"></path>
                        <path d="M119.058238,24.9551502 C119.058238,26.434964 119.46036,27.6363182 120.263606,28.5582184 C121.0908,29.4801185 122.113567,29.9415658 123.330909,29.9415658 C124.523305,29.9415658 125.521126,29.4801185 126.324372,28.5582184 C127.152564,27.6363182 127.56666,26.434964 127.56666,24.9551502 C127.56666,23.4753364 127.152564,22.2739822 126.324372,21.3520821 C125.521126,20.430182 124.523305,19.9687347 123.330909,19.9687347 C122.113567,19.9687347 121.0908,20.430182 120.263606,21.3520821 C119.46036,22.2739822 119.058238,23.4753364 119.058238,24.9551502 M123.330909,34.8543885 C121.139693,34.8543885 119.276761,34.3929412 117.744107,33.471041 C116.234404,32.5491409 115.077929,31.3358527 114.274683,29.832171 C113.471437,28.3274947 113.070313,26.7024841 113.070313,24.9551502 C113.070313,23.1839484 113.471437,21.5460093 114.274683,20.0423275 C115.077929,18.5376513 116.246378,17.3243631 117.780029,16.402463 C119.31368,15.4805628 121.163641,15.02011 123.330909,15.02011 C125.497179,15.02011 127.347139,15.4805628 128.880791,16.402463 C130.414442,17.3243631 131.582891,18.5376513 132.386137,20.0423275 C133.189383,21.5460093 133.591505,23.1839484 133.591505,24.9551502 C133.591505,26.7024841 133.189383,28.3274947 132.386137,29.832171 C131.582891,31.3358527 130.414442,32.5491409 128.880791,33.471041 C127.347139,34.3929412 125.497179,34.8543885 123.330909,34.8543885" id="Fill-17" fill="#FFFFFF"></path>
                        <path d="M144.923961,34.8541896 C142.781638,34.8541896 140.931678,34.3937368 139.373081,33.4718366 C137.83943,32.548942 136.659007,31.3366483 135.831813,29.8319721 C135.028567,28.3272958 134.626445,26.6903512 134.626445,24.9191494 C134.626445,23.1718155 135.028567,21.5468049 135.831813,20.0421287 C136.659007,18.5374524 137.83943,17.3251587 139.373081,16.4022641 C140.906732,15.4803639 142.757691,15.0199111 144.923961,15.0199111 C147.114178,15.0199111 148.965137,15.4932924 150.473842,16.4390605 C152.007494,17.3609606 153.151995,18.5742488 153.906348,20.0789251 L148.209786,21.7894625 C147.455433,20.5761744 146.347851,19.9695303 144.887041,19.9695303 C143.694645,19.9695303 142.683852,20.4180491 141.856658,21.3160813 C141.029464,22.2131189 140.615368,23.4144731 140.615368,24.9191494 C140.615368,26.4228311 141.029464,27.6361193 141.856658,28.5580195 C142.683852,29.4799196 143.694645,29.9413669 144.887041,29.9413669 C145.617446,29.9413669 146.286984,29.7713077 146.895655,29.4311892 C147.504326,29.0672027 147.954344,28.6067499 148.246705,28.0488362 L153.943267,29.7951756 C153.23681,31.2759839 152.10528,32.4882776 150.547681,33.4350402 C149.013032,34.3808083 147.139124,34.8541896 144.923961,34.8541896" id="Fill-19" fill="#FFFFFF"></path>
                        <path d="M160.604622,23.1719149 L168.930443,23.1719149 C168.808709,21.9586267 168.357693,20.9999302 167.579393,20.2968197 C166.824042,19.5688468 165.887088,19.2048603 164.767532,19.2048603 C163.646979,19.2048603 162.698051,19.5688468 161.918753,20.2968197 C161.1644,21.0247926 160.726356,21.9834892 160.604622,23.1719149 M164.840373,34.854289 C162.674103,34.854289 160.823145,34.4057702 159.289494,33.507738 C157.75684,32.6097059 156.57542,31.4212802 155.748226,29.9414664 C154.94498,28.4606581 154.542858,26.8595154 154.542858,25.137044 C154.542858,23.2932438 154.94498,21.6065743 155.748226,20.07803 C156.551472,18.5494858 157.719921,17.3242636 159.253572,16.4023635 C160.787223,15.4804634 162.649158,15.0200106 164.840373,15.0200106 C167.006643,15.0200106 168.856604,15.4804634 170.390255,16.4023635 C171.923907,17.3242636 173.080381,18.5375518 173.85968,20.0422281 C174.662926,21.5459099 175.06405,23.159981 175.06405,24.8824524 C175.06405,25.5855628 175.016155,26.2051354 174.918368,26.7381866 L160.750304,26.7381866 C160.84809,28.0240732 161.310082,29.0066377 162.138273,29.6868747 C162.990413,30.3412548 163.952312,30.6694393 165.022975,30.6694393 C165.875114,30.6694393 166.690334,30.4625836 167.469632,30.0498667 C168.248931,29.6381443 168.783763,29.0802306 169.076125,28.3761257 L174.042281,29.7594731 C173.28693,31.2631549 172.106508,32.4883771 170.500016,33.4351397 C168.917471,34.3809077 167.031589,34.854289 164.840373,34.854289" id="Fill-21" fill="#FFFFFF"></path>
                        <path d="M195.458719,34.4903026 L189.616475,34.4903026 L189.616475,23.7536966 C189.616475,22.4926725 189.373007,21.5827063 188.88607,21.0247926 C188.424079,20.4420165 187.802436,20.1516229 187.024135,20.1516229 C186.220889,20.1516229 185.404671,20.466879 184.577478,21.097391 C183.750284,21.7279031 183.165561,22.5414029 182.824306,23.5359014 L182.824306,34.4903026 L176.982062,34.4903026 L176.982062,15.383997 L182.24058,15.383997 L182.24058,18.5862823 C182.94604,17.4704549 183.944859,16.5962907 185.235042,15.9657787 C186.525225,15.3352666 188.009983,15.0200106 189.689316,15.0200106 C190.930606,15.0200106 191.929425,15.2497397 192.683778,15.7111871 C193.463076,16.1477719 194.046801,16.730548 194.435952,17.4585209 C194.850048,18.1616314 195.118462,18.9383347 195.240196,19.7876365 C195.385878,20.6369382 195.458719,21.4613775 195.458719,22.2619488 L195.458719,34.4903026 Z" id="Fill-23" fill="#FFFFFF"></path>
                        <g id="Group-27" transform="translate(197.478009, 15.020011)">
                            <mask id="mask-6" fill="white">
                                <use xlink:href="#path-5"></use>
                            </mask>
                            <g id="Clip-26"></g>
                            <path d="M6.06176422,8.15190436 L14.3875849,8.15190436 C14.2658507,6.93861617 13.8158333,5.97991959 13.0365349,5.27680914 C12.2811842,4.54883623 11.34423,4.18484977 10.2246746,4.18484977 C9.1051191,4.18484977 8.15519325,4.54883623 7.37589484,5.27680914 C6.62154195,6.00478206 6.18349842,6.96347863 6.06176422,8.15190436 M10.2975155,19.8342785 C8.13124554,19.8342785 6.2812849,19.3857596 4.74763361,18.4877275 C3.21398231,17.5896953 2.03256193,16.4012696 1.2053681,14.9214558 C0.402121972,13.4406475 0,11.8395049 0,10.1170334 C0,8.27323318 0.402121972,6.58656369 1.2053681,5.05801947 C2.00861422,3.52947524 3.17706293,2.30425307 4.71071422,1.38235294 C6.24436551,0.460452814 8.10630001,0 10.2975155,0 C12.4647833,0 14.314744,0.460452814 15.8473974,1.38235294 C17.3820465,2.30425307 18.5375236,3.51754126 19.316822,5.02221752 C20.1200681,6.52589928 20.5221901,8.13997038 20.5221901,9.86244181 C20.5221901,10.5655523 20.4732968,11.1851248 20.3755104,11.718176 L6.20744613,11.718176 C6.30523261,13.0040626 6.76822168,13.9866272 7.59541551,14.6668642 C8.44755488,15.3212442 9.40945459,15.6494287 10.4801168,15.6494287 C11.3322562,15.6494287 12.1474762,15.442573 12.9267746,15.0298561 C13.706073,14.6181337 14.2409052,14.0602201 14.5332668,13.3561151 L19.4994233,14.7394625 C18.7450704,16.2431443 17.5646478,17.4683665 15.9571578,18.4151291 C14.3746132,19.3608972 12.488731,19.8342785 10.2975155,19.8342785" id="Fill-25" fill="#FFFFFF" mask="url(#mask-6)"></path>
                        </g>
                    </g>
                </g>
            </g>
        </g>
    </g>
</svg>