<?xml version="1.0" encoding="UTF-8"?>
<svg width="160px" height="160px" viewBox="0 0 160 160" version="1.1" xmlns="http://www.w3.org/2000/svg" xmlns:xlink="http://www.w3.org/1999/xlink">
    <title>Group 11 Copy</title>
    <g id="Social-media" stroke="none" stroke-width="1" fill="none" fill-rule="evenodd">
        <g id="Sponsor-/--jet-brains" transform="translate(-191, -42)" fill="#FFFFFF">
            <g id="Group-11-Copy" transform="translate(191, 42)">
                <polygon id="Fill-1" points="72.6933333 69.9733333 78.32 69.9733333 75.52 62.9066667"></polygon>
                <g id="Group-10">
                    <path d="M31.0669333,62.6666667 L31.0136,62.5866667 C31.0136,61.2 29.8936,60.4533333 27.8669333,60.4533333 L24.4269333,60.4533333 L24.4269333,64.8266667 L27.7602667,64.8266667 C29.8402667,64.8266667 31.0669333,64.1066667 31.0669333,62.6666667" id="Fill-2"></path>
                    <path d="M135.386667,79.9466667 C131.136,80.128 126.965333,78.752 123.653333,76.08 L127.493333,71.4666667 C129.744,73.3466667 132.562667,74.4106667 135.493333,74.48 C137.386667,74.48 138.373333,73.8133333 138.373333,72.7466667 C138.373333,71.6533333 137.573333,71.12 134.133333,70.32 C128.8,69.0933333 124.72,67.6533333 124.72,62.5066667 C124.72,57.8666667 128.4,54.5066667 134.4,54.5066667 C138.109333,54.368 141.746667,55.5493333 144.666667,57.84 L141.333333,62.5866667 C139.317333,61.0613333 136.874667,60.2053333 134.346667,60.1333333 C132.666667,60.1333333 131.84,60.8 131.84,61.7333333 C131.84,62.88 132.693333,63.3866667 136.186667,64.16 C141.92,65.4133333 145.466667,67.28 145.466667,71.9466667 C145.466667,77.04 141.44,79.9466667 135.386667,79.9466667 L135.386667,79.9466667 Z M122.506667,79.7866667 L116.453333,79.7866667 L107.04,66.08 L107.04,79.7866667 L100.16,79.7866667 L100.16,54.8 L106.666667,54.8 L115.653333,68.1333333 L115.653333,54.8 L122.506667,54.8 L122.506667,79.7866667 Z M90.6666667,79.7866667 L97.6,79.7866667 L97.6,54.8 L90.6666667,54.8 L90.6666667,79.7866667 Z M82.1333333,79.8666667 L80.3466667,75.36 L70.6666667,75.36 L68.88,80 L63.44,80 L61.6533333,80 L55.44,80 L50.4,72.4266667 L48.08,72.4266667 L48.08,80 L41.1466667,80 L41.2,54.88 L52.2666667,54.88 C55.2266667,54.64 58.1573333,55.6 60.4,57.5466667 C61.9146667,59.0933333 62.7146667,61.2 62.6133333,63.36 C62.712,66.7626667 60.648,69.8533333 57.4666667,71.0666667 L62.3413333,78.3573333 L72.24,54.6933333 L78.9066667,54.6933333 L89.5733333,79.8666667 L82.1333333,79.8666667 Z M17.4133333,140 L77.4133333,140 L77.4133333,130 L17.4133333,130 L17.4133333,140 Z M14.9066667,41.2533333 L19.36,37.04 C20.2186667,38.3973333 21.6773333,39.2586667 23.28,39.36 C24.9866667,39.36 26.1066667,38.16 26.1066667,35.84 L26.1066667,20.0533333 L32.9866667,20.0533333 L32.9866667,35.8933333 C33.1946667,38.472 32.304,41.0186667 30.5333333,42.9066667 C28.7066667,44.6906667 26.232,45.6533333 23.68,45.5733333 C20.2133333,45.712 16.9093333,44.088 14.9066667,41.2533333 L14.9066667,41.2533333 Z M38.9866667,72.8266667 C38.9866667,77.3333333 35.4933333,80 29.52,80 L17.68,80 L17.68,54.88 L29.4666667,54.88 C31.9386667,54.6773333 34.3866667,55.4746667 36.2666667,57.0933333 C37.3386667,58.168 37.9253333,59.6293333 37.8933333,61.1466667 C37.9333333,63.6426667 36.3786667,65.8853333 34.0266667,66.72 C36.9573333,67.2586667 39.0613333,69.848 38.9866667,72.8266667 L38.9866667,72.8266667 Z M36.08,20.0533333 L56.16,20.0533333 L56.16,25.8933333 L42.8266667,25.8933333 L42.8266667,29.7066667 L54.8,29.7066667 L54.8,35.04 L42.9333333,35.04 L42.9333333,39.0133333 L56.2666667,39.0133333 L56.2666667,44.88 L36,44.88 L36.08,20.0533333 Z M58.48,20.0533333 L80.3733333,20.0533333 L80.3733333,26.1066667 L72.88,26.1066667 L72.88,45.0133333 L65.9466667,45.0133333 L65.9466667,26.1066667 L58.48,26.1066667 L58.48,20.0533333 Z M0,160 L160,160 L160,0 L0,0 L0,160 Z" id="Fill-4"></path>
                    <path d="M51.8397333,60.88 L48.1330667,60.88 L48.1330667,66.9333333 L51.8664,66.88 C54.1864,66.88 55.5997333,65.7333333 55.5997333,63.8933333 C55.5997333,61.8933333 54.1330667,60.88 51.8397333,60.88" id="Fill-6"></path>
                    <path d="M28.6666667,69.68 L28.6133333,69.68 L24.4266667,69.68 L24.4266667,74.2933333 L28.7466667,74.2933333 C30.88,74.2933333 32.0533333,73.4666667 32.0533333,72 C32,70.5866667 30.9866667,69.68 28.6666667,69.68" id="Fill-8"></path>
                </g>
            </g>
        </g>
    </g>
</svg>