<svg width="1768" height="288" viewBox="0 0 1768 288" fill="none" xmlns="http://www.w3.org/2000/svg">
<path d="M23.7554 23.6926H67.3647V97.1353H23.7554V23.6926Z" fill="white"/>
<path d="M23.7554 105.172H67.3647V180.146H23.7554V105.172Z" fill="white"/>
<path d="M23.7554 262.771H67.3647V188.943H23.7554V262.771Z" fill="white"/>
<path d="M155.49 262.771H227.38V188.943H155.49V262.771Z" fill="white"/>
<path d="M235.38 262.771H262.162V188.943H235.38V262.771Z" fill="white"/>
<path d="M155.49 97.1353H262.162V23.6926H155.49V97.1353Z" fill="white"/>
<path d="M75.7812 110.911V180.146L147.578 180.12L75.7812 110.911Z" fill="white"/>
<path d="M75.6824 104.932H147.573L75.7813 180.146L75.6824 104.932Z" fill="white"/>
<path d="M282.755 287.417H0V0H286.87V287.417H282.755ZM282.755 279.193V283.307H278.641V4.11458H282.755V8.22917H4.11458V4.11458H8.22917V283.307H4.11458V279.193H282.755Z" fill="white"/>
<path d="M428.248 149.869L397.477 181.056V220.64H381.56V70.0564H397.477V161.056L485.893 70.0564H504.185L438.998 138.244L508.706 220.64H489.768L428.248 149.869Z" fill="white"/>
<path d="M696.74 206.869V220.64H590.24V70.0564H693.511V83.8272H606.156V137.39H684.031V150.931H606.156V206.869H696.74Z" fill="white"/>
<path d="M841.509 168.577V220.64H825.822V168.577L765.572 70.0564H782.572L834.197 154.598L885.842 70.0564H901.759L841.509 168.577Z" fill="white"/>
<path d="M1085.05 220.64L1050.63 172.244C1046.76 172.676 1042.74 172.89 1038.59 172.89H998.13V220.64H982.214V70.0564H1038.59C1057.8 70.0564 1072.85 74.6501 1083.76 83.8272C1094.66 93.0095 1100.11 105.629 1100.11 121.681C1100.11 133.447 1097.13 143.385 1091.17 151.494C1085.22 159.593 1076.73 165.431 1065.69 169.015L1102.46 220.64H1085.05ZM1038.15 159.327C1053.07 159.327 1064.47 156.03 1072.36 149.431C1080.24 142.838 1084.19 133.588 1084.19 121.681C1084.19 109.489 1080.24 100.135 1072.36 93.6189C1064.47 87.0929 1053.07 83.8272 1038.15 83.8272H998.13V159.327H1038.15Z" fill="white"/>
<path d="M1259.31 221.931C1244.39 221.931 1230.87 218.598 1218.75 211.931C1206.63 205.265 1197.17 196.129 1190.35 184.515C1183.54 172.89 1180.14 159.838 1180.14 145.348C1180.14 130.864 1183.54 117.817 1190.35 106.202C1197.17 94.5771 1206.63 85.4313 1218.75 78.7646C1230.87 72.098 1244.39 68.7646 1259.31 68.7646C1274.23 68.7646 1287.67 72.0667 1299.64 78.6605C1311.61 85.2594 1321.04 94.4053 1327.93 106.098C1334.82 117.78 1338.27 130.864 1338.27 145.348C1338.27 159.838 1334.82 172.926 1327.93 184.619C1321.04 196.301 1311.61 205.442 1299.64 212.035C1287.67 218.634 1274.23 221.931 1259.31 221.931ZM1259.31 207.723C1271.21 207.723 1281.96 205.035 1291.58 199.66C1301.19 194.285 1308.71 186.838 1314.16 177.306C1319.61 167.765 1322.33 157.114 1322.33 145.348C1322.33 133.588 1319.61 122.942 1314.16 113.41C1308.71 103.869 1301.19 96.4105 1291.58 91.0355C1281.96 85.6501 1271.21 82.9521 1259.31 82.9521C1247.4 82.9521 1236.61 85.6501 1226.93 91.0355C1217.25 96.4105 1209.65 103.869 1204.12 113.41C1198.61 122.942 1195.85 133.588 1195.85 145.348C1195.85 157.114 1198.61 167.765 1204.12 177.306C1209.65 186.838 1217.25 194.285 1226.93 199.66C1236.61 205.035 1247.4 207.723 1259.31 207.723Z" fill="white"/>
<path d="M1495.09 221.931C1480.17 221.931 1466.72 218.634 1454.75 212.035C1442.78 205.442 1433.38 196.301 1426.57 184.619C1419.76 172.926 1416.36 159.838 1416.36 145.348C1416.36 130.864 1419.76 117.78 1426.57 106.098C1433.38 94.4053 1442.82 85.2594 1454.86 78.6605C1466.91 72.0667 1480.4 68.7646 1495.32 68.7646C1506.49 68.7646 1516.82 70.6344 1526.28 74.3688C1535.74 78.0928 1543.78 83.5355 1550.38 90.7021L1540.28 100.806C1528.51 88.9053 1513.66 82.9521 1495.73 82.9521C1483.83 82.9521 1473 85.6813 1463.25 91.1396C1453.5 96.5876 1445.86 104.046 1440.34 113.515C1434.82 122.973 1432.07 133.588 1432.07 145.348C1432.07 157.114 1434.82 167.733 1440.34 177.202C1445.86 186.66 1453.5 194.114 1463.25 199.556C1473 205.004 1483.83 207.723 1495.73 207.723C1513.8 207.723 1528.65 201.702 1540.28 189.66L1550.38 199.765C1543.78 206.947 1535.71 212.442 1526.17 216.244C1516.64 220.035 1506.28 221.931 1495.09 221.931Z" fill="white"/>
<path d="M1686.78 149.869L1656.01 181.056V220.64H1640.09V70.0564H1656.01V161.056L1744.43 70.0564H1762.72L1697.53 138.244L1767.24 220.64H1748.3L1686.78 149.869Z" fill="white"/>
</svg>
