<?xml version="1.0" encoding="UTF-8"?>
<svg width="600px" height="600px" viewBox="0 0 600 600" version="1.1" xmlns="http://www.w3.org/2000/svg" xmlns:xlink="http://www.w3.org/1999/xlink">
    <title>logo-w-type_update_2019 2</title>
    <defs>
        <polygon id="path-1" points="-1.41670119e-13 600 600 600 600 0 -1.41670119e-13 0"></polygon>
    </defs>
    <g id="Social-media" stroke="none" stroke-width="1" fill="none" fill-rule="evenodd">
        <g id="logo-w-type_update_2019" transform="translate(0, -0)">
            <g id="g8" transform="translate(300, 300) scale(-1, 1) rotate(-180) translate(-300, -300)translate(-0, 0)">
                <g id="g10" transform="translate(0, 0)">
                    <g id="g12-Clipped" transform="translate(-0, 0)">
                        <mask id="mask-2" fill="white">
                            <use xlink:href="#path-1"></use>
                        </mask>
                        <g id="path14"></g>
                        <g id="g12" mask="url(#mask-2)">
                            <g transform="translate(33.1992, 33.3263)">
                                <g id="g18" transform="translate(0, 0)">
                                    <path d="M266.667993,0 C119.39333,0 0,119.387997 0,266.663993 C0,413.938656 119.39333,533.327987 266.667993,533.327987 C413.94399,533.327987 533.331987,413.938656 533.331987,266.663993 C533.331987,119.387997 413.94399,0 266.667993,0 Z" id="path20" stroke="#FFFFFF" stroke-width="5" fill-rule="nonzero"></path>
                                </g>
                                <g id="g22" transform="translate(279.2948, 306.1061)">
                                    <polygon id="path24" fill="#FFFFFF" fill-rule="nonzero" points="20.0319995 68.298665 30.3653326 73.3426648 30.0839992 47.1559988 48.0626655 65.026665 51.669332 53.4026653 33.0733325 37.2733324 45.4653322 22.8626661 37.2533324 10.4653331 26.050666 26.954666 15.7746663 0 7.19733315 4.19866656 18.8759995 30.3426659 0 28.2159993 3.02799992 43.0986656 21.3759995 42.9279989"></polygon>
                                </g>
                                <g id="g26" transform="translate(152.7927, 228.3875)">
                                    <path d="M147.071996,212.743995 C158.726663,206.910661 189.583995,163.690663 190.883995,120.13333 C191.374662,104.046664 191.301329,88.7226644 188.111995,65.0893317 C177.841329,52.537332 140.146663,26.7253327 109.489331,18.1919995 C105.590664,29.2399993 104.119997,46.4693322 102.979997,69.3559983 C99.1546642,145.362663 134.88933,204.342662 147.071996,212.743995 M27.642666,87.9173311 C29.5546659,95.6639976 29.3799993,101.167997 26.414666,105.487997 C23.9626661,109.061331 22.1626661,111.438664 16.3279996,112.467997 C22.1626661,113.535997 23.9626661,115.890664 26.414666,119.462664 C29.3799993,123.771997 29.5546659,129.27733 27.642666,137.022663 C25.6053327,145.262663 35.0866658,149.49333 47.7786655,144.111996 C42.6386656,124.02933 41.6093323,100.849331 44.2093322,79.523998 C33.3666658,76.2866648 25.8013327,80.4666647 27.642666,87.9173311 M202.513328,121.186664 C200.125328,177.757329 156.105329,228.325328 145.587996,228.709328 C111.634664,211.953328 69.7986649,197.123995 54.2266653,162.903996 C53.3066653,160.878663 52.4559987,158.771996 51.649332,156.622663 C48.6426655,159.755996 45.1239989,163.181329 39.679999,164.821329 C16.0319996,171.981329 -5.28666653,152.195996 5.86799985,134.89333 C9.57199976,129.150663 9.00933311,117.603997 0.0093333331,113.133331 L0,111.817331 C9.00933311,107.331997 9.57199976,95.7999976 5.86799985,90.0519977 C-5.28666653,72.7773315 16.0319996,52.973332 39.679999,60.1133318 C42.5333323,60.9799985 44.8466655,62.3426651 46.8466655,63.8866651 C48.6813321,55.5146653 51.0879987,47.6639988 54.105332,40.771999 C62.6733318,33.7826658 86.8119978,6.04266652 97.1799976,0 C124.919997,2.6746666 186.713329,39.9853323 199.121328,61.3266651 C203.333328,89.1839978 203.237328,104.259997 202.513328,121.186664" id="path28" fill="#FFFFFF" fill-rule="nonzero"></path>
                                </g>
                                <g id="g30" transform="translate(97.4532, 152.3753)">
                                    <path d="M0,38.1226657 L11.2946664,38.1226657 L11.2946664,32.9426658 L11.4546664,32.9426658 C13.0239997,35.9279991 16.8666662,39.0693324 22.5946661,39.0693324 C34.5159991,39.0693324 36.7106657,31.2199992 36.7106657,21.0226661 L36.7106657,0 L24.9439994,0 L24.9439994,18.6679995 C24.9439994,23.0653328 24.866666,28.7093326 18.8239995,28.7093326 C12.7079997,28.7093326 11.7706664,23.9293327 11.7706664,18.9879995 L11.7706664,0 L0,0 L0,38.1226657 Z" id="path32" fill="#FFFFFF" fill-rule="nonzero"></path>
                                </g>
                                <g id="g34" transform="translate(141.3084, 151.4376)">
                                    <path d="M21.1773328,10.3533331 C27.0599993,10.3533331 30.5893326,14.2746663 30.5893326,19.9986662 C30.5893326,25.7253327 27.0599993,29.6479993 21.1773328,29.6479993 C15.289333,29.6479993 11.761333,25.7253327 11.761333,19.9986662 C11.761333,14.2746663 15.289333,10.3533331 21.1773328,10.3533331 M21.1773328,40.0066657 C32.9426658,40.0066657 42.3493323,32.1586659 42.3493323,19.9986662 C42.3493323,7.83866647 32.9426658,0 21.1773328,0 C9.41199976,0 0,7.83866647 0,19.9986662 C0,32.1586659 9.41199976,40.0066657 21.1773328,40.0066657" id="path36" fill="#FFFFFF" fill-rule="nonzero"></path>
                                </g>
                                <g id="g38" transform="translate(207.5981, 151.4377)">
                                    <path d="M23.8413327,27.846666 C22.1226661,29.9639993 19.8466662,31.0559992 17.0213329,31.0559992 C15.061333,31.0559992 12.7066663,30.1973326 12.7066663,27.9199993 C12.7066663,22.2799994 32.5546659,27.0613327 32.5546659,12.5466664 C32.5546659,2.82533326 23.1373328,0 14.9786663,0 C9.64799976,0 3.76533324,1.3293333 0,5.17999987 L7.13999982,13.0959997 C9.33866643,10.4306664 11.9199997,8.94133311 15.4533329,8.94133311 C18.1186662,8.94133311 20.7839995,9.65066643 20.7839995,11.689333 C20.7839995,17.8053329 0.94533331,12.625333 0.94533331,27.1333327 C0.94533331,36.0853324 8.94533311,40.0066657 16.9439996,40.0066657 C21.9626661,40.0066657 27.530666,38.743999 31.0639992,34.9786658 L23.8413327,27.846666 Z" id="path40" fill="#FFFFFF" fill-rule="nonzero"></path>
                                </g>
                                <g id="g42" transform="translate(245.5747, 151.4385)">
                                    <path d="M29.6466659,29.6466659 L19.2933329,29.6466659 L19.2933329,16.9399996 C19.2933329,12.8626663 19.7639995,9.88799975 24.8613327,9.88799975 C26.118666,9.88799975 28.6279993,10.0373331 29.6466659,10.9786664 L29.6466659,1.17466664 C27.0599993,0.237333327 24.1573327,0 21.4106661,0 C13.5706663,0 7.52799981,3.21866659 7.52799981,11.5279997 L7.52799981,29.6466659 L0,29.6466659 L0,39.059999 L7.52799981,39.059999 L7.52799981,50.3493321 L19.2933329,50.3493321 L19.2933329,39.059999 L29.6466659,39.059999 L29.6466659,29.6466659 Z" id="path44" fill="#FFFFFF" fill-rule="nonzero"></path>
                                </g>
                                <g id="g46" transform="translate(281.4983, 151.4385)">
                                    <path d="M22.9053328,17.6439996 C19.2946664,17.6439996 11.2946664,17.3333329 11.2946664,12.1546664 C11.2946664,9.33466643 14.2746663,7.99866647 16.8626662,7.99866647 C21.4879995,7.99866647 25.802666,10.4306664 25.802666,15.133333 L25.802666,17.6439996 L22.9053328,17.6439996 Z M25.802666,5.72266652 L25.6479994,5.72266652 C23.0546661,1.64933329 18.3573329,0 13.5706663,0 C6.43199984,0 0,4.0759999 0,11.761333 C0,24.938666 16.0026663,25.1719994 25.802666,25.1719994 C25.802666,29.3319993 22.3519994,32.0013325 18.2746662,32.0013325 C14.4346663,32.0013325 11.2159997,30.2733326 8.70799978,27.4533326 L2.43199994,33.8799992 C6.7466665,37.9559991 13.017333,40.0053323 19.2159995,40.0053323 C32.9426658,40.0053323 36.6266658,33.0159992 36.6266658,20.3186662 L36.6266658,0.93733331 L25.802666,0.93733331 L25.802666,5.72266652 Z" id="path48" fill="#FFFFFF" fill-rule="nonzero"></path>
                                </g>
                                <g id="g50" transform="translate(326.6875, 152.3753)">
                                    <path d="M0,38.1226657 L11.765333,38.1226657 L11.765333,32.0066659 L11.921333,32.0066659 C14.4359996,36.6266658 17.7266662,39.0693324 22.9066661,39.0693324 C24.2359994,39.0693324 25.730666,38.9813324 26.8279993,38.675999 L26.8279993,27.9253326 C25.1773327,28.394666 23.5279994,28.7093326 21.8079995,28.7093326 C12.8626663,28.7093326 11.765333,23.5373327 11.765333,15.9253329 L11.765333,0 L0,0 L0,38.1226657 Z" id="path52" fill="#FFFFFF" fill-rule="nonzero"></path>
                                </g>
                                <g id="g54" transform="translate(357.0447, 151.4376)">
                                    <path d="M26.982666,26.7413327 C25.802666,28.3959993 23.6093327,29.6479993 21.1773328,29.6479993 C15.2986663,29.6479993 11.7706664,25.7253327 11.7706664,19.9986662 C11.7706664,14.2746663 15.2986663,10.3533331 21.1773328,10.3533331 C23.7693327,10.3533331 25.6519994,11.689333 26.982666,13.257333 L34.7426658,5.09333321 C31.0653326,1.3293333 25.6519994,0 21.1773328,0 C9.41599976,0 0,7.83866647 0,19.9986662 C0,32.1573325 9.41599976,40.0066657 21.1773328,40.0066657 C25.6519994,40.0066657 31.0653326,38.6706657 34.7426658,34.9053325 L26.982666,26.7413327 Z" id="path56" fill="#FFFFFF" fill-rule="nonzero"></path>
                                </g>
                                <g id="g58" transform="translate(399.1761, 152.3749)">
                                    <path d="M11.765333,49.4133321 L11.765333,32.9426658 L11.921333,32.9426658 C13.0226663,35.9293324 16.8666662,39.0693324 22.5893328,39.0693324 C34.5119991,39.0693324 36.7053324,31.2199992 36.7053324,21.0226661 L36.7053324,0 L24.9439994,0 L24.9439994,18.6679995 C24.9439994,23.0653328 24.866666,28.7106659 18.8239995,28.7106659 C12.7079997,28.7106659 11.765333,23.9306661 11.765333,18.9893329 L11.765333,0 L0,0 L0,49.4133321 L11.765333,49.4133321 Z" id="path60" fill="#FFFFFF" fill-rule="nonzero"></path>
                                </g>
                                <g id="g62" transform="translate(169.2379, 65.7731)">
                                    <path d="M20.2399995,20.7053328 C26.122666,20.7053328 29.6519993,24.6266661 29.6519993,30.3506659 C29.6519993,36.0719991 26.122666,39.999999 20.2399995,39.999999 C14.3519996,39.999999 10.8239997,36.0719991 10.8239997,30.3506659 C10.8239997,24.6266661 14.3519996,20.7053328 20.2399995,20.7053328 M0,49.4106654 L10.8239997,49.4106654 L10.8239997,44.3933322 L10.9839997,44.3933322 C12.7839997,47.1293322 17.3319996,50.3573321 22.6719994,50.3573321 C33.9626658,50.3573321 41.411999,42.1946656 41.411999,30.6719992 C41.411999,20.0799995 34.8253325,10.3533331 24.0013327,10.3533331 C19.1426662,10.3533331 14.5946663,11.681333 11.925333,15.3719996 L11.765333,15.3719996 L11.765333,0 L0,0 L0,49.4106654 Z" id="path64" fill="#FFFFFF" fill-rule="nonzero"></path>
                                </g>
                                <g id="g66" transform="translate(217.9557, 77.0615)">
                                    <path d="M0,38.1226657 L11.7706664,38.1226657 L11.7706664,32.0079992 L11.921333,32.0079992 C14.4359996,36.6279991 17.7266662,39.0693324 22.9053328,39.0693324 C24.2359994,39.0693324 25.730666,38.9826657 26.8279993,38.675999 L26.8279993,27.9253326 C25.1813327,28.3959993 23.5306661,28.7106659 21.8079995,28.7106659 C12.8679997,28.7106659 11.7706664,23.5373327 11.7706664,15.9279996 L11.7706664,0 L0,0 L0,38.1226657 Z" id="path68" fill="#FFFFFF" fill-rule="nonzero"></path>
                                </g>
                                <g id="g70" transform="translate(247.924, 76.1273)">
                                    <path d="M27.2973327,24.3119994 C27.370666,28.2333326 24.3133327,31.5279992 20.0746662,31.5279992 C14.9066663,31.5279992 12.081333,27.9999993 11.765333,24.3119994 L27.2973327,24.3119994 Z M37.2586657,7.53066648 C33.4959992,2.74399993 27.2973327,0 21.1719995,0 C9.41066643,0 0,7.83866647 0,19.9973328 C0,32.1559992 9.41066643,40.003999 21.1719995,40.003999 C32.1573325,40.003999 39.0586657,32.1559992 39.0586657,19.9973328 L39.0586657,16.3066663 L11.765333,16.3066663 C12.7026663,11.845333 16.0799996,8.93999978 20.6279995,8.93999978 C24.4733327,8.93999978 27.0599993,10.8999997 29.0213326,13.5639997 L37.2586657,7.53066648 Z" id="path72" fill="#FFFFFF" fill-rule="nonzero"></path>
                                </g>
                                <g id="g74" transform="translate(292.4868, 76.1267)">
                                    <path d="M23.8426661,27.8413326 C22.1199994,29.9613326 19.8479995,31.0546659 17.0239996,31.0546659 C15.057333,31.0546659 12.7079997,30.1959992 12.7079997,27.914666 C12.7079997,22.2786661 32.5506659,27.0599993 32.5506659,12.5466664 C32.5506659,2.8226666 23.1399994,0 14.9799996,0 C9.64533309,0 3.76133324,1.32799997 0,5.1773332 L7.14133315,13.093333 C9.33466643,10.4293331 11.9226664,8.93999978 15.4506663,8.93999978 C18.1199995,8.93999978 20.7853328,9.64399976 20.7853328,11.6879997 C20.7853328,17.8026662 0.94133331,12.625333 0.94133331,27.1333327 C0.94133331,36.0773324 8.94133311,40.003999 16.9399996,40.003999 C21.9599995,40.003999 27.5319993,38.7373324 31.0599992,34.9773325 L23.8426661,27.8413326 Z" id="path76" fill="#FFFFFF" fill-rule="nonzero"></path>
                                </g>
                                <g id="g78" transform="translate(331.5505, 76.1267)">
                                    <path d="M23.8426661,27.8413326 C22.1253328,29.9613326 19.8493328,31.0546659 17.0239996,31.0546659 C15.0626663,31.0546659 12.7079997,30.1959992 12.7079997,27.914666 C12.7079997,22.2786661 32.5559992,27.0599993 32.5559992,12.5466664 C32.5559992,2.8226666 23.1399994,0 14.9839996,0 C9.64933309,0 3.76666657,1.32799997 0,5.1773332 L7.14666649,13.093333 C9.33999977,10.4293331 11.9226664,8.93999978 15.4559996,8.93999978 C18.1199995,8.93999978 20.7853328,9.64399976 20.7853328,11.6879997 C20.7853328,17.8026662 0.946666643,12.625333 0.946666643,27.1333327 C0.946666643,36.0773324 8.94666644,40.003999 16.9453329,40.003999 C21.9653328,40.003999 27.5373326,38.7373324 31.0653326,34.9773325 L23.8426661,27.8413326 Z" id="path80" fill="#FFFFFF" fill-rule="nonzero"></path>
                                </g>
                            </g>
                        </g>
                    </g>
                </g>
            </g>
        </g>
    </g>
</svg>