<?xml version="1.0" encoding="UTF-8"?>
<svg width="28.6609755px" height="22.2629852px" viewBox="0 0 28.6609755 22.2629852" version="1.1" xmlns="http://www.w3.org/2000/svg" xmlns:xlink="http://www.w3.org/1999/xlink">
    <title>Group 13</title>
    <g id="Web" stroke="none" stroke-width="1" fill="none" fill-rule="evenodd">
        <g id="DT_EuroRust-'23_vs.2d--Copy" transform="translate(-866.914286, -4176.793954)" fill="#FFFFFF">
            <g id="Group-5" transform="translate(836.000000, 4156.000000)">
                <g id="Group-13" transform="translate(30.914286, 19.925500)">
                    <rect id="Rectangle-Copy-4" transform="translate(11.500000, 12.074500) rotate(-270.000000) translate(-11.500000, -12.074500) " x="8.5" y="0.5745" width="6" height="23" rx="1"></rect>
                    <path d="M19.6316362,4.24814387 L14.4636972,12.0003773 L9.50021817,19.4452837 C9.19385682,19.9048065 9.31801867,20.5256782 9.77754143,20.8320396 C9.94181231,20.9415581 10.1348262,21 10.3322577,21 L20.4636972,21 L30.5951366,21 C31.1474214,21 31.5951366,20.5522847 31.5951366,20 C31.5951366,19.8025684 31.5366947,19.6095546 31.4271762,19.4452837 L26.4636972,12.0003773 L21.2957582,4.24814387 C20.9894146,3.78860925 20.3685477,3.66442337 19.9090131,3.97076694 C19.7991485,4.0440069 19.7048761,4.13827933 19.6316362,4.24814387 Z" id="Fill-1" transform="translate(20.463697, 12.000000) rotate(-270.000000) translate(-20.463697, -12.000000) "></path>
                </g>
            </g>
        </g>
    </g>
</svg>